<?xml version="1.0" encoding="UTF-8"?>
<svg width="119px" height="126px" viewBox="0 0 119 126" version="1.1" xmlns="http://www.w3.org/2000/svg" xmlns:xlink="http://www.w3.org/1999/xlink">
    <!-- Generator: Sketch 47.1 (45422) - http://www.bohemiancoding.com/sketch -->
    <title>communityLoneFishFront</title>
    <desc>Created with Sketch.</desc>
    <defs>
        <polygon id="path-1" points="38.58 56.6644276 38.58 0.613548929 0.5533 0.613548929 0.5533 56.6644276 38.58 56.6644276"></polygon>
        <polygon id="path-3" points="0.777524803 0.277 8.09738077 0.277 8.09738077 36.2288776 0.777524803 36.2288776 0.777524803 0.277"></polygon>
    </defs>
    <g id="Symbols" stroke="none" stroke-width="1" fill="none" fill-rule="evenodd">
        <g id="communityLoneFishFront">
            <g>
                <path d="M61.094,101.9481 C61.094,101.9481 75.639,122.8861 78.734,124.6461 C81.829,126.4061 83.126,124.6631 83.708,124.2341 C84.289,123.8051 85.52,119.0791 84.424,116.0701 C83.327,113.0611 79.509,105.6961 76.802,104.0621 C74.373,102.5961 71.157,101.8521 69.471,101.4691 C68.381,101.2201 67.603,101.6391 67.603,101.6391 C67.603,101.6391 61.561,102.2771 61.094,101.9481" id="Fill-1" fill="#1E1854"></path>
                <path d="M68.949,101.7127 C68.949,101.7127 68.147,101.6397 68.442,101.8617 C69.459,102.6297 73.071,104.6487 74.678,105.2927 C76.749,106.1217 79.471,107.4067 79.606,107.1027 C79.803,106.6587 78.08,104.7287 77.467,104.5067 C76.854,104.2857 73.577,103.4457 72.485,102.9797 C71.544,102.5777 68.949,101.7127 68.949,101.7127 L68.949,101.7127 Z M66.949,102.1217 C66.949,102.1217 73.715,106.9567 75.42,108.5057 C77.124,110.0557 80.963,112.2947 81.64,112.6767 C82.474,113.1477 83.597,114.2647 83.594,114.0057 C83.557,111.6007 82.54,110.1417 81.554,109.8207 C80.569,109.4997 75.793,107.5607 74.199,106.3187 C72.657,105.1167 70.169,103.6207 70.169,103.6207 L67.692,101.9107 L66.949,102.1217 Z M64.706,101.7827 C65.077,102.7437 79.084,115.9097 79.084,115.9097 C79.084,115.9097 82.254,118.4567 82.828,118.9307 C83.403,119.4057 84.881,119.8877 84.938,119.5077 C84.996,119.1297 85.332,117.7577 84.65,117.1377 C83.968,116.5187 78.928,112.7217 76.69,111.2187 C74.539,109.7737 66.216,102.2697 66.03,101.7887 C65.632,100.7607 64.706,101.7827 64.706,101.7827 L64.706,101.7827 Z M63.596,102.0677 L62.625,102.0827 C62.625,102.0827 79.323,121.0297 80.005,121.6497 C80.687,122.2697 83.012,124.4797 83.344,124.5027 C83.856,124.5367 84.737,122.9427 84.366,122.5877 C72.24,111.0207 63.596,102.0677 63.596,102.0677 L63.596,102.0677 Z M61.612,102.1557 C61.612,102.1557 68.757,111.1187 70.132,113.1357 C71.508,115.1537 77.657,121.5107 78.319,122.2567 C78.982,123.0037 81.468,124.8007 81.644,125.3437 C81.821,125.8877 79.555,126.4827 76.065,122.2077 C72.574,117.9317 66.137,109.2047 65.027,108.0027 C63.915,106.8007 61.329,102.5327 61.007,102.0967 C60.685,101.6607 61.612,102.1557 61.612,102.1557 L61.612,102.1557 Z" id="Fill-3" fill="#6557A4"></path>
                <path d="M58.4783,101.2948 C58.4783,101.2948 52.0733,111.1848 50.0993,113.9878 C48.1243,116.7928 38.8743,124.1918 37.0723,122.3608 C35.7283,120.9948 35.1253,117.2848 35.3543,115.7688 C35.5833,114.2518 35.0163,112.8738 35.8643,110.6758 C36.7133,108.4768 35.9433,107.5858 37.4743,106.0068 C39.0053,104.4288 37.6723,103.8398 40.5823,101.6938 C43.4903,99.5478 44.4323,99.3028 45.7723,98.9878 C47.1123,98.6738 52.2373,98.5428 52.2373,98.5428 C52.2373,98.5428 52.8563,99.1528 54.5873,99.6728 C56.3183,100.1928 58.4783,101.2948 58.4783,101.2948" id="Fill-5" fill="#1E1854"></path>
                <path d="M52.3997,98.6102 C52.3997,98.6102 50.7017,98.8712 50.2437,98.9092 C49.7857,98.9482 48.9077,99.0522 48.3107,99.1562 C47.7127,99.2592 46.8417,99.3222 46.3147,99.3932 C45.7867,99.4642 43.8747,99.7142 43.4557,99.7802 C43.0367,99.8462 42.0357,100.6212 42.0267,100.6842 C42.0167,100.7472 42.8007,100.6932 43.6897,100.6552 C44.5787,100.6172 45.7717,100.2802 46.8227,99.8792 C47.8747,99.4782 52.2787,98.6992 52.4077,98.6972 L52.3997,98.6102 Z M52.5527,98.7412 C52.5527,98.7412 51.8037,98.9942 51.3297,99.1382 C50.8557,99.2812 49.0377,99.7612 48.3787,99.9852 C47.7207,100.2092 45.8597,100.8322 44.3667,101.1672 C42.8727,101.5012 42.0667,101.2722 40.5817,101.6942 C39.0957,102.1162 39.0977,103.1072 39.0977,103.1072 C39.0977,103.1072 40.0747,102.9102 40.5957,102.8812 C41.1177,102.8522 42.3467,102.4132 43.3977,102.1622 C44.4477,101.9112 52.7227,98.8962 52.7747,98.8392 L52.5527,98.7412 Z M52.9517,98.9522 C52.9517,98.9522 52.8267,99.0632 52.5037,99.2082 C52.1797,99.3532 49.3107,100.6642 48.9177,100.8412 C48.5247,101.0192 46.0487,102.1532 43.8577,102.9642 C41.6677,103.7752 38.4417,104.4792 38.3117,104.6042 C37.5807,105.3012 37.6507,105.8392 37.6507,105.8392 C37.6507,105.8392 39.1537,105.4422 39.7187,105.2692 C40.2837,105.0952 41.9207,104.5242 42.6097,104.2402 C43.2987,103.9572 47.2037,102.3492 47.8357,102.0142 C48.4677,101.6782 53.1577,99.1552 53.2277,99.1232 L52.9517,98.9522 Z M53.5177,99.3392 C53.5177,99.3392 51.1637,100.6642 50.9027,100.8182 C50.6427,100.9732 48.3657,102.0722 47.7477,102.4532 C47.1307,102.8342 42.8857,104.6922 40.9707,105.3932 C39.0557,106.0952 37.6197,106.3302 36.9487,106.6382 C36.2767,106.9462 36.4057,108.0212 36.4057,108.0212 C36.4057,108.0212 37.9807,107.5052 38.7817,107.1952 C39.5827,106.8852 41.7777,105.7522 42.9897,105.2892 C44.2017,104.8252 53.8047,99.5762 53.8047,99.5762 L53.5177,99.3392 Z M53.9607,99.6862 C53.9607,99.6862 53.7747,99.8522 53.3057,100.1692 C52.8377,100.4862 52.2487,100.7522 51.7037,101.1542 C51.1577,101.5572 46.2387,104.1742 45.4897,104.6432 C44.7397,105.1112 40.8267,106.8472 40.1547,107.2302 C39.4827,107.6132 36.3697,108.7592 36.2507,108.9022 C36.0557,109.0182 35.8337,110.2772 36.0097,110.2882 C36.1857,110.2982 39.0667,108.8752 39.8647,108.5112 C40.6627,108.1472 41.7147,107.5952 42.4507,107.2212 C43.1857,106.8482 45.7927,105.2062 46.5677,104.7742 C47.3447,104.3412 54.1847,99.9142 54.2887,99.8652 L53.9607,99.6862 Z M54.6707,99.9762 C54.6027,99.9982 53.4897,100.7352 53.0587,101.0262 C52.6267,101.3162 51.8047,101.8382 51.0187,102.3332 C50.2327,102.8282 49.2367,103.6472 48.7427,103.9282 C48.2477,104.2092 46.3297,105.5672 45.8167,105.9742 C45.3017,106.3812 41.5357,108.4302 40.9997,108.7692 C40.4637,109.1082 35.7887,111.1812 35.5917,111.4102 C35.3967,111.6382 35.4187,112.7732 35.4187,112.7732 C35.4187,112.7732 36.2577,112.3502 36.6217,112.0822 C36.9847,111.8142 39.4527,110.6682 39.8937,110.3142 C40.3347,109.9612 42.4447,108.8252 43.0077,108.5232 C43.5707,108.2202 54.7537,100.2802 54.9267,100.2092 C54.9267,100.2092 54.7387,99.9542 54.6707,99.9762 L54.6707,99.9762 Z M55.0877,100.2872 C55.0877,100.2872 54.8327,100.6152 54.4007,100.9052 C53.9697,101.1952 53.6597,101.5362 53.0587,102.0922 C52.4577,102.6472 49.0687,105.2592 48.6427,105.5182 C48.2157,105.7772 45.1607,108.0292 44.0477,108.7662 C42.9357,109.5032 35.5737,113.5282 35.3217,113.9112 C35.0707,114.2932 35.2637,115.5822 35.2637,115.5822 C35.2637,115.5822 35.8447,115.2282 36.3497,114.8842 C36.8537,114.5412 40.9347,112.1952 41.8747,111.6042 C42.7377,111.0622 55.3287,100.6142 55.4687,100.5392 L55.0877,100.2872 Z M55.7847,100.5862 C55.5677,100.5962 54.7747,101.8562 54.2707,102.3392 C53.7667,102.8232 51.6987,104.5362 50.7747,105.5172 C49.8517,106.4972 45.3137,109.7332 44.0857,111.0122 C42.8587,112.2922 36.0177,115.9302 35.3047,116.6652 C34.9217,117.0602 35.1127,118.7912 35.5207,118.6582 C36.0587,118.4842 36.6237,118.2002 37.0057,117.9562 C37.3867,117.7122 39.8797,116.3222 40.3167,116.0012 C40.7537,115.6792 43.5457,113.7312 44.0987,113.2112 C44.6507,112.6922 48.5627,108.7582 49.6607,107.7612 C50.7587,106.7642 56.3427,100.8862 56.3427,100.8862 C56.4397,100.8152 56.0017,100.5762 55.7847,100.5862 L55.7847,100.5862 Z M56.7447,101.0762 C56.5277,101.0862 56.5257,101.3872 56.3907,101.7122 C56.2547,102.0362 52.7027,105.5922 50.1737,108.3562 C47.6457,111.1192 44.9557,113.8152 43.1887,115.5292 C41.4207,117.2442 35.8767,119.7252 35.7607,119.9222 C35.6447,120.1202 35.4247,120.4322 35.6437,120.9822 C35.8617,121.5322 36.5657,121.7242 36.5657,121.7242 C36.5657,121.7242 39.5117,120.1872 40.3297,119.6222 C41.1477,119.0562 45.6637,115.6882 46.7387,114.5582 C47.8147,113.4282 57.0857,101.3722 57.4417,101.3102 C57.5747,101.2872 56.9617,101.0662 56.7447,101.0762 L56.7447,101.0762 Z M58.6707,101.4532 C58.8677,101.5692 56.2417,105.2652 54.2267,108.6232 C52.2117,111.9812 49.7287,115.8712 44.5697,119.7882 C43.8247,120.3542 39.4377,122.6752 38.6777,122.8622 C37.9167,123.0482 37.4497,122.7192 37.4267,122.5872 C37.4027,122.4542 38.1507,122.5232 38.6047,122.2042 C46.3317,116.7832 45.6207,117.2942 46.6947,116.2752 C49.0137,114.0722 58.0387,101.3572 58.0387,101.3572 C58.0387,101.3572 58.4717,101.3372 58.6707,101.4532 L58.6707,101.4532 Z" id="Fill-7" fill="#8776B5"></path>
                <path d="M80.969,62.2313 C80.969,62.2313 82.139,53.5983 82.23,51.2863 C82.31,49.2393 82.836,47.8443 85.125,46.3803 C87.414,44.9173 95.61,44.3353 97.967,45.2183 C110.69,49.9833 115.358,58.4433 116.892,65.3963 C118.427,72.3483 120.244,75.7253 114.344,85.6913 C108.445,95.6573 101.616,99.7953 97.205,99.9053 C92.794,100.0143 89.57,100.8203 85.455,95.5453 C81.34,90.2713 80.096,83.1043 80.096,83.1043 C80.096,83.1043 82.407,70.1383 80.969,62.2313" id="Fill-9" fill="#CE7046"></path>
                <g id="Group-13" transform="translate(80.000000, 43.723000)">
                    <mask id="mask-2" fill="white">
                        <use xlink:href="#path-1"></use>
                    </mask>
                    <g id="Clip-12"></g>
                    <path d="M1.1243,20.0195 C1.1243,20.0195 3.3193,11.4755 3.4593,10.5485 C3.5993,9.6225 4.3243,3.3985 4.1063,3.4085 C3.8903,3.4185 3.0593,4.0695 3.0193,4.6235 C2.9783,5.1775 2.5803,9.8125 2.5813,10.3735 C2.5823,10.9335 1.9763,15.2365 1.9253,15.5735 C1.8743,15.9105 0.9823,18.9635 0.9993,19.1385 C1.0163,19.3135 1.1243,20.0195 1.1243,20.0195 L1.1243,20.0195 Z M1.3903,22.2565 C1.4573,22.0945 5.1263,13.7735 5.4993,12.4515 C5.8713,11.1285 6.6953,5.9535 6.9453,4.8715 C7.1943,3.7895 7.5173,1.9415 7.3613,1.8325 C7.2053,1.7225 5.5633,2.0345 5.1253,2.6575 C4.6863,3.2805 4.1863,8.5905 4.2633,9.5075 C4.3403,10.4235 3.5773,14.6165 3.3473,15.5725 C3.1163,16.5285 2.2393,19.1965 1.9393,19.7545 C1.6403,20.3125 1.2513,21.4605 1.2513,21.4605 L1.3903,22.2565 Z M1.4443,24.4625 C1.4443,24.4625 7.8723,15.5665 8.7293,13.0245 C9.2243,11.5585 10.3743,8.4055 10.4353,7.7255 C10.4943,7.0445 11.9983,2.7905 12.0643,2.0685 C12.1273,1.3835 12.3473,1.3355 12.1623,1.1355 C11.9773,0.9355 10.0413,0.3415 9.3583,1.4445 C9.0573,1.9305 7.4003,8.9895 6.9673,10.4325 C6.5333,11.8745 5.0773,16.9545 4.3383,18.1355 C3.6003,19.3165 1.4663,23.1735 1.4223,23.4675 C1.3773,23.7625 1.4443,24.4625 1.4443,24.4625 L1.4443,24.4625 Z M1.3463,26.2565 C1.3713,26.0885 6.5713,20.7555 7.2753,20.0865 C7.9793,19.4175 13.6533,12.0885 14.3553,10.8585 C15.0583,9.6295 16.9153,6.4635 17.2013,5.4295 C17.4863,4.3955 19.3773,2.1395 18.9103,1.8105 C18.4433,1.4805 16.1553,-0.2005 14.4943,1.1005 C12.8323,2.3995 10.6533,11.9795 10.0673,13.0115 C9.4803,14.0435 6.9633,18.4455 6.4013,19.3085 C5.8403,20.1715 3.0573,23.1975 2.5703,23.8565 C2.0823,24.5155 1.3143,25.6055 1.3143,25.6055 L1.3463,26.2565 Z M1.3613,27.2935 C1.3613,27.2935 4.7873,24.5795 5.3943,23.9815 C6.0013,23.3845 12.4623,18.5435 13.6123,17.2085 C14.7613,15.8745 18.1763,11.5215 19.9353,9.2895 C21.6943,7.0555 23.7993,4.5305 23.6873,4.1255 C23.5763,3.7215 22.0633,2.3295 20.9273,2.7175 C19.7913,3.1065 17.6653,8.3425 17.0853,9.3325 C16.5053,10.3215 13.2863,16.5135 11.7223,17.7425 C10.1583,18.9715 5.9183,22.5095 5.1593,23.2565 C4.4003,24.0035 1.2923,26.8945 1.2923,26.8945 L1.3613,27.2935 Z M25.5043,5.2185 C25.2093,5.1735 23.7883,7.4575 23.2173,8.6645 C22.6473,9.8715 14.6633,17.6695 13.2803,18.8395 C11.8963,20.0095 1.3633,27.8535 1.3633,27.8535 L1.4213,28.8965 C1.4213,28.8965 3.0543,28.0655 4.1023,27.4055 C5.1493,26.7455 12.6023,23.0455 14.0563,21.9725 C15.5103,20.8995 22.9783,15.2485 24.0233,14.1715 C25.8093,12.3305 28.5823,7.6655 28.5823,7.6655 C28.0433,6.0975 25.7993,5.2635 25.5043,5.2185 L25.5043,5.2185 Z M1.2623,29.9495 C1.3953,29.9265 8.3503,28.0905 9.3303,27.5915 C10.3103,27.0935 17.3593,24.0655 20.5283,22.4765 C23.6983,20.8865 30.1293,16.8165 30.7913,16.1415 C31.4533,15.4655 32.9783,13.2285 33.2233,13.0195 C33.5443,12.7445 32.6353,10.4965 30.6263,9.6755 C30.0493,9.4395 26.0533,14.9955 25.3073,15.6575 C24.5603,16.3205 19.9623,20.2365 14.7393,23.1525 C9.5173,26.0685 6.5373,27.2565 5.4603,27.8265 C4.3833,28.3955 1.2733,29.3045 1.2733,29.3045 L1.2623,29.9495 Z M1.2323,31.0545 C1.7493,30.8415 12.5663,29.1795 15.9373,28.0405 C19.3083,26.9015 26.4953,24.8855 27.8413,24.3125 C29.1873,23.7415 33.1053,21.7605 34.8243,21.1025 C35.5713,20.8155 35.9373,20.5805 36.3623,19.8805 C36.9443,18.9215 35.5213,15.3475 34.7313,15.4435 C33.4613,15.5985 31.3443,18.5405 29.0543,20.2305 C26.7633,21.9195 17.9543,24.9525 15.3133,26.3955 C12.6723,27.8385 8.1643,28.8055 6.6423,29.2535 C5.1203,29.7025 1.5083,30.5145 1.2243,30.4715 C0.9393,30.4285 1.2323,31.0545 1.2323,31.0545 L1.2323,31.0545 Z M1.0323,32.2195 C1.3063,32.2215 -0.0247,32.1855 1.1193,32.3945 C5.6303,33.2205 17.5503,35.5155 20.6733,35.8325 C24.5873,36.2285 29.7913,36.4335 32.4073,36.4405 C35.0233,36.4485 36.5523,36.3755 37.1663,36.3835 C37.9433,36.3935 39.0583,31.8665 38.3593,31.0715 C37.5673,30.1685 34.7573,32.4335 30.3353,32.8325 C25.9133,33.2305 19.0783,33.5555 16.4913,33.3585 C13.9033,33.1615 6.8993,32.6855 5.9373,32.6375 C4.9753,32.5885 1.0323,32.2195 1.0323,32.2195 L1.0323,32.2195 Z M1.0093,31.8935 C1.0093,31.8935 1.6583,32.0875 2.1323,32.1595 C2.6063,32.2305 9.7913,32.1525 13.3463,31.7205 C16.9003,31.2885 30.0633,29.4955 31.1633,29.2735 C32.2633,29.0525 37.6823,27.5205 38.0713,26.5365 C39.0123,24.1585 37.0333,22.1675 37.0333,22.1675 C37.0333,22.1675 36.5073,22.1325 34.6003,23.2015 C32.6943,24.2705 31.1213,24.4205 27.2703,26.1655 C23.4203,27.9105 14.5763,28.7075 9.9303,29.9445 C5.2853,31.1815 1.1753,31.4335 1.1753,31.4335 L1.0093,31.8935 Z M0.9663,33.0495 C0.9663,33.0495 8.5963,37.4975 9.8133,37.7785 C11.0313,38.0595 19.1423,40.8345 21.8913,41.2495 C24.6393,41.6655 29.7203,42.7775 30.2893,42.8635 C30.8573,42.9495 32.8873,43.4395 33.4413,43.3825 C33.8213,43.3435 35.7803,41.0215 35.6213,39.7915 C35.4613,38.5515 28.3913,38.6455 26.8973,38.9045 C25.4043,39.1635 17.9893,37.5595 15.1463,37.1295 C12.3033,36.7005 4.6663,33.9965 3.2873,33.4975 C1.9083,32.9985 1.0653,32.6445 1.0653,32.6445 L0.9663,33.0495 Z M0.9503,34.2105 C0.9503,34.2105 4.6193,38.1575 6.7503,39.4485 C8.8823,40.7395 16.6033,44.8135 19.6593,45.7595 C22.7143,46.7065 28.0483,49.2565 28.8213,49.2755 C29.5933,49.2955 31.9073,48.0945 31.5683,46.4925 C31.2283,44.8895 19.5343,42.7355 17.5063,42.0415 C15.4783,41.3485 7.1033,37.7565 6.4823,37.3725 C5.8623,36.9875 1.0643,33.4525 1.0643,33.4525 L0.9503,34.2105 Z M0.6923,35.9155 C0.6923,35.9155 6.4193,43.5665 7.9253,45.1505 C9.4303,46.7355 18.3583,52.4455 19.5193,53.1055 C20.6793,53.7655 21.7823,54.8045 22.3653,54.7955 C22.9483,54.7865 24.8863,54.7885 25.0493,53.0685 C25.2123,51.3485 15.1273,46.2385 11.6233,43.7705 C8.1183,41.3025 4.4333,39.3895 3.4013,37.8765 C2.3703,36.3635 0.7413,34.9545 0.7413,34.9545 L0.6923,35.9155 Z M0.5813,36.4825 C0.5813,36.4825 2.8543,40.2165 4.3493,43.1565 C5.8433,46.0965 12.0223,51.3925 13.2123,51.8625 C14.4013,52.3325 19.9903,55.1155 18.9803,56.0295 C17.9703,56.9425 15.1933,56.7175 14.3833,56.3045 C13.5733,55.8915 8.3683,52.4875 6.9713,50.8225 C5.5753,49.1575 0.5533,38.1245 0.5533,38.1245 L0.5813,36.4825 Z" id="Fill-11" fill="#FCC06D" mask="url(#mask-2)"></path>
                </g>
                <path d="M40.6521,69.0965 C40.6521,69.0965 34.6491,57.7085 33.2751,55.8465 C31.9021,53.9835 25.4351,47.4915 23.5061,47.4755 C21.5781,47.4595 14.5511,48.3295 11.9051,51.2395 C9.2591,54.1505 5.9011,54.4705 4.0481,59.4305 C2.1961,64.3915 0.4911,70.2025 0.6891,74.3695 C0.8871,78.5365 0.2861,86.1695 3.4911,90.5145 C6.6961,94.8605 10.9241,101.5665 15.2801,101.9485 C19.6351,102.3305 27.6611,98.5705 30.3211,97.3245 C32.9921,96.0735 35.2061,94.2005 36.8391,92.5165 C38.4721,90.8325 43.0371,84.3505 43.0371,84.3505 L40.6521,69.0965 Z" id="Fill-14" fill="#CE7046"></path>
                <g id="Group-18" transform="translate(0.000000, 46.723000)" fill="#FCC06D">
                    <path d="M41.6843,39.1104 C41.6843,39.1104 35.8843,44.5684 34.8283,45.5714 C33.7713,46.5754 30.6633,48.7554 28.6013,49.9954 C26.5403,51.2354 23.4483,53.7404 18.4573,55.1194 C13.4673,56.4984 13.2473,54.5274 13.2473,54.5274 C13.2473,54.5274 13.8263,54.5494 14.8303,54.3134 C15.8353,54.0774 18.9043,53.4424 21.2373,52.1144 C23.5713,50.7864 30.2683,48.3724 31.7173,46.9114 C33.1653,45.4494 41.4893,38.6934 41.4893,38.6934 L41.6843,39.1104 Z M41.0003,37.6504 C40.8453,37.8204 21.8113,47.0304 20.1143,48.0024 C18.4163,48.9744 13.0903,50.4314 11.9113,50.9644 C10.7323,51.4974 9.4403,51.4964 9.4403,51.4964 C9.4403,51.4964 10.5183,53.3394 11.5743,53.6274 C12.6293,53.9164 21.7213,49.3434 23.5253,48.5174 C25.3303,47.6924 30.3133,45.0834 31.3853,44.4054 C32.4563,43.7274 40.1833,39.2074 40.5123,38.7394 C40.8413,38.2724 41.1763,38.1934 41.1763,38.1934 L41.0003,37.6504 Z M40.7673,36.1934 C40.7673,36.1934 25.8213,40.5924 23.5453,41.5414 C21.2693,42.4894 11.8143,43.9054 10.5473,44.1664 C9.2793,44.4274 4.7573,44.8434 4.6813,45.3484 C4.6053,45.8544 6.4693,48.9144 7.2813,49.1024 C8.0933,49.2894 10.2103,48.9624 12.7923,48.1244 C15.3743,47.2864 25.5123,43.0664 28.0793,41.9024 C30.6453,40.7394 33.4813,39.9394 34.5533,39.2614 C35.6243,38.5834 39.3633,37.7904 39.8823,37.3524 C40.4003,36.9134 40.9973,36.8094 40.9973,36.8094 L40.7673,36.1934 Z M40.7213,35.2164 C40.7213,35.2164 33.7273,36.1644 32.2523,36.5234 C30.7763,36.8814 21.3563,37.2044 16.8673,36.9784 C12.3773,36.7524 8.9023,36.2274 7.5463,36.2164 C6.1913,36.2064 1.1903,35.5154 1.0793,35.8214 C0.9683,36.1284 0.2313,38.7104 1.6503,40.1734 C2.8243,41.3844 11.6623,39.9444 14.3493,39.9584 C17.4483,39.9744 24.6123,39.1824 27.3463,38.6254 C30.0803,38.0684 35.5203,37.0584 36.8773,36.7044 C38.2903,36.3364 40.7903,35.6144 40.7903,35.6144 L40.7213,35.2164 Z M40.6943,34.1144 C40.6943,34.1144 5.0343,30.6034 4.1933,30.6054 C3.3533,30.6074 1.0823,29.8124 0.6893,30.2704 C0.2973,30.7274 0.3063,31.9564 0.4383,32.3644 C0.5703,32.7724 0.6403,33.1704 0.8833,33.2724 C1.1263,33.3734 27.7423,34.2904 29.3223,34.5294 C30.9013,34.7674 34.4973,34.9234 35.8083,34.7984 C37.1203,34.6734 40.6903,34.5664 40.6903,34.5664 L40.6943,34.1144 Z M40.6323,32.8124 C40.6323,32.8124 6.1843,24.7014 5.1923,24.4224 C4.2003,24.1434 1.4803,22.8924 1.0883,23.3504 C0.6963,23.8084 -0.0477,25.3114 0.0023,25.8364 C0.0523,26.3604 0.2823,26.9774 0.6233,27.2874 C0.9643,27.5974 21.8593,30.8814 25.1443,31.3784 C28.4303,31.8744 33.6843,32.6034 34.9033,32.6584 C36.1233,32.7134 40.7993,33.4194 40.7993,33.4194 L40.6323,32.8124 Z M40.5473,32.0884 C40.5473,32.0884 5.0473,17.6794 4.6143,17.5494 C4.1813,17.4204 2.8773,16.6414 2.6683,16.7384 C2.4603,16.8364 0.8623,18.8574 1.6953,19.7584 C2.7073,20.8534 22.4733,26.3864 23.7523,26.9024 C25.0323,27.4194 33.0893,30.1224 33.9013,30.3094 C34.7133,30.4964 40.5723,32.3504 40.5723,32.3504 L40.5473,32.0884 Z M40.5833,30.9954 C40.5833,30.9954 7.1693,12.1844 6.5123,11.8264 C5.8553,11.4684 5.2403,10.7354 4.9463,11.0724 C4.3993,11.7014 2.1883,13.5004 3.3623,14.7114 C4.5373,15.9224 16.9183,20.3774 18.1503,21.2094 C19.3813,22.0414 29.8293,26.4634 32.1063,27.6474 C34.3833,28.8314 39.2913,30.9944 39.5883,31.1684 C39.8843,31.3424 40.5993,31.3204 40.5993,31.3204 L40.5833,30.9954 Z M40.6343,30.2274 C40.6343,30.2274 10.9583,8.4904 10.7003,8.0644 C10.4413,7.6374 9.6713,6.7454 9.0933,6.7224 C8.5153,6.7004 5.6223,7.8794 6.3263,9.2134 C6.8823,10.2694 10.7463,12.4654 11.9683,13.3604 C13.1893,14.2564 24.6113,21.2154 25.6633,21.9564 C26.7143,22.6964 37.0443,28.3284 37.7163,29.0114 C38.3893,29.6944 40.6503,30.5534 40.6503,30.5534 L40.6343,30.2274 Z M40.6263,28.9984 C40.6263,28.9984 19.0213,5.5804 17.2763,3.8874 C15.6983,2.3564 15.6063,2.5364 15.1733,2.4064 C14.7403,2.2764 12.4493,2.9004 12.3943,4.1194 C12.3253,5.6564 24.9483,16.4204 26.9813,17.5024 C29.0153,18.5854 36.7613,26.3464 37.8723,27.5484 C38.9833,28.7504 40.7653,29.7954 40.7653,29.7954 L40.6263,28.9984 Z M40.6363,25.5104 C40.6363,25.5104 29.9103,8.3804 28.6733,7.1594 C27.4353,5.9384 21.5823,1.0474 21.5823,1.0474 C21.5823,1.0474 19.3933,0.1354 18.4693,1.5474 C17.9103,2.4024 24.1853,7.7744 26.9133,10.2544 C29.6413,12.7344 31.5333,15.6054 34.0773,18.4444 C36.6213,21.2844 40.7293,27.4634 40.7293,27.4634 L40.6363,25.5104 Z" id="Fill-16"></path>
                </g>
                <path d="M53.075,44.6424 C51.53,48.0284 50.307,46.0664 48.735,49.4154 C47.428,52.2024 45.812,53.3684 45.812,53.3684 C45.812,53.3684 42.597,57.5364 42.545,59.5964 C42.492,61.6564 40.45,68.3274 40.637,72.2334 C40.822,76.1384 40.12,82.4954 41.255,85.2514 C42.39,88.0084 45.823,92.6624 46.858,94.3704 C47.892,96.0774 55.66,101.1274 57.177,101.3564 C58.693,101.5854 59.88,102.2824 62.484,102.1584 C65.088,102.0344 68.082,102.7454 71.244,100.6374 C74.406,98.5304 77.444,93.8184 78.04,91.5824 C78.637,89.3464 81.923,76.1424 81.485,72.1984 C81.046,68.2544 81.81,63.1994 80.598,60.9484 C79.387,58.6974 75.326,52.8264 73.609,49.0364 C71.864,45.1854 70.652,48.0724 68.154,44.0764 C65.655,40.0804 54.62,41.2564 53.075,44.6424" id="Fill-19" fill="#CE7046"></path>
                <path d="M43.9016,72.7269 C44.1016,71.3999 44.1416,69.8549 44.3136,68.7169 C44.4846,67.5799 43.8806,65.1619 44.7716,65.6839 C45.6616,66.2059 47.4436,67.2509 48.1836,66.1999 C48.9236,65.1479 50.3006,62.4479 50.9096,60.9879 C51.5176,59.5289 51.5676,56.6279 53.5496,56.3459 C55.5306,56.0629 54.7656,53.4269 57.2876,53.4199 C59.8096,53.4129 61.4976,52.5049 64.6916,53.1809 C67.8856,53.8569 71.1196,52.9879 70.8326,54.8839 C70.5466,56.7799 70.5256,59.4909 71.9166,61.8339 C73.3076,64.1769 73.4466,67.1059 75.0776,66.5769 C76.7086,66.0479 76.9556,65.6969 77.8576,64.8639 C78.7586,64.0309 78.5116,64.3809 78.8806,65.7939 C79.2486,67.2069 79.1306,71.8429 79.0046,73.9559 C78.8796,76.0699 78.9616,79.3789 78.1246,82.3549 C77.2866,85.3309 76.4106,89.8519 74.6936,90.9499 C72.9766,92.0479 71.5706,94.9369 72.1386,95.0229 C72.7076,95.1089 74.9936,94.0979 75.7346,93.0459 C76.4746,91.9939 80.3526,81.7219 80.5816,80.2059 C80.8106,78.6889 81.6696,73.0009 81.6336,70.6689 C81.5986,68.3369 81.7846,63.7719 80.9546,61.5839 C80.2276,59.6659 77.6046,52.2269 75.5916,49.5939 C73.5806,46.9609 73.5736,44.4399 70.9306,42.6839 C68.2876,40.9269 68.5336,40.5759 64.1736,39.9179 C59.8136,39.2589 58.9516,38.5479 56.0406,39.8529 C53.1286,41.1579 49.3616,44.2729 48.2316,46.6229 C47.1006,48.9729 43.8456,51.9749 44.3716,52.6339 C44.8976,53.2939 43.1226,54.7709 42.8656,56.4769 C42.6076,58.1829 42.3776,69.9759 42.3776,69.9759 L43.9016,72.7269 Z" id="Fill-21" fill="#1E1854"></path>
                <path d="M76.6121,50.8158 C76.3851,50.3938 74.1241,41.6188 72.5381,39.9248 C70.9521,38.2318 66.8451,31.4078 66.0781,30.7108 C65.3111,30.0128 62.2821,25.6778 61.9261,26.1088 C61.5701,26.5408 60.8371,24.9758 60.8371,24.9758 C60.8371,24.9758 58.0501,26.1058 57.6331,25.6548 C57.2161,25.2038 57.0371,23.8198 56.8851,24.1848 C56.7341,24.5498 53.6141,29.7978 52.2051,31.4268 C50.7961,33.0558 47.6721,38.9818 46.9121,40.8048 C46.1521,42.6288 43.1591,54.0998 42.7461,54.9098 C42.3331,55.7198 40.6931,60.8038 40.8281,62.4718 C40.9641,64.1398 40.7441,71.3768 40.7441,71.3768 C40.7441,71.3768 42.1121,68.0938 42.0891,67.6058 C42.0661,67.1178 42.6941,59.7488 42.7791,59.1798 C42.8651,58.6108 46.1941,52.6198 46.1941,52.6198 C46.1941,52.6198 51.0281,43.0748 56.7111,42.6728 C62.3931,42.2708 68.4391,43.9598 69.6321,45.6908 C70.8241,47.4208 73.5371,50.6418 74.7201,51.7898 C75.9041,52.9378 77.5561,54.8358 77.5561,54.8358 L76.6121,50.8158 Z" id="Fill-23" fill="#1E1854"></path>
                <path d="M72.8728,83.4349 C73.2768,83.4149 75.3628,82.7769 74.7838,80.6219 C74.2048,78.4659 74.3478,77.5179 72.0328,76.5869 C69.0098,75.3709 64.8568,74.4909 61.7278,74.6429 C58.5258,74.7989 55.9678,74.0879 53.9358,74.8879 C51.2638,75.9399 51.0218,75.3529 49.8318,77.2409 C48.6428,79.1289 47.6278,79.4289 48.3328,81.6029 C49.0388,83.7779 50.5608,84.3949 52.4828,83.6509 C54.4048,82.9079 56.7998,82.8819 60.8318,82.7149 C64.8638,82.5479 67.3448,81.9539 68.8538,83.0859 C70.3628,84.2189 72.2218,83.4659 72.8728,83.4349" id="Fill-25" fill="#FCC06D"></path>
                <path d="M76.3889,57.7279 C76.6919,57.2969 74.9609,57.3399 74.5579,58.0119 C73.9009,59.1069 73.4699,61.5089 73.7339,62.3249 C73.9989,63.1399 74.3309,64.2249 75.3669,64.2079 C76.3649,64.1929 77.0069,63.3359 77.2289,62.7229 C77.4509,62.1099 77.1679,61.9819 76.8009,62.7019 C76.4339,63.4219 75.8979,63.6859 75.1599,63.4449 C74.4199,63.2039 74.2799,62.2779 74.4249,60.7489 C74.5369,59.5589 74.8969,58.6229 75.2069,58.2819 C75.5159,57.9409 76.2239,57.9619 76.3889,57.7279" id="Fill-27" fill="#FCC06D"></path>
                <path d="M46.9592,59.2127 C47.0792,60.0227 47.1272,61.3057 47.0202,61.8067 C46.8552,62.5737 46.7472,63.1357 46.4042,63.2807 C46.1802,63.3767 46.0042,63.2207 45.8082,62.8037 C45.6132,62.3857 45.3982,62.0627 45.3242,62.0197 C45.1752,61.9327 45.1212,62.1827 45.2902,62.5637 C45.4592,62.9447 45.5652,63.1297 45.7512,63.4737 C45.9022,63.7547 46.1472,64.1277 46.6472,63.8507 C47.1122,63.5937 47.6512,62.4027 47.6842,62.1497 C48.0892,59.0447 47.4562,58.5287 47.3992,58.2617 C47.3422,57.9947 46.9132,57.7037 46.5062,57.6097 C46.1012,57.5157 45.9732,57.6137 46.2032,57.6927 C46.5412,57.8087 46.7022,58.1427 46.7652,58.3597 C46.8932,58.7987 46.9592,59.2127 46.9592,59.2127" id="Fill-29" fill="#FCC06D"></path>
                <g id="Group-33" transform="translate(55.000000, 0.723000)">
                    <mask id="mask-4" fill="white">
                        <use xlink:href="#path-3"></use>
                    </mask>
                    <g id="Clip-32"></g>
                    <path d="M3.9793,0.6108 C4.0023,1.0898 5.5433,10.1528 5.3753,12.5508 C5.2073,14.9488 5.8393,22.3138 5.8393,22.3138 C5.8393,22.3138 6.2393,24.7978 6.8543,25.8598 C7.3373,26.6938 9.2953,30.8818 7.0173,34.4148 C5.8493,36.2248 5.3013,36.6318 3.6983,35.8518 C2.2533,35.1498 0.7383,32.9818 0.7783,31.4368 C0.8173,29.8918 0.6673,28.3188 1.2903,26.7648 C1.9123,25.2108 1.6883,26.0488 1.8853,23.4618 C2.0823,20.8748 0.5613,16.1858 1.0173,15.0908 C1.4733,13.9968 0.7603,11.6598 1.2533,10.9588 C1.7473,10.2578 1.2083,8.0448 1.4613,7.0158 C1.7133,5.9878 1.4393,4.5898 1.9533,3.1158 C2.4663,1.6428 2.5153,0.6808 3.0313,0.4678 C3.5483,0.2558 3.9563,0.1228 3.9793,0.6108" id="Fill-31" fill="#CE7046" mask="url(#mask-4)"></path>
                </g>
                <path d="M60.6882,31.7381 C60.9692,30.5201 59.6672,28.8701 59.4652,26.9981 C59.2642,25.1251 59.3642,19.3241 59.5702,17.3201 C59.7752,15.3161 59.2342,11.8411 59.0272,10.6471 C58.8192,9.4521 58.8292,4.8981 58.9392,2.8791 C59.0512,0.8601 58.6662,1.4811 57.8692,2.9111 C57.0712,4.3421 57.2942,8.6401 57.7142,10.3511 C58.1342,12.0631 57.9732,16.9821 57.9712,18.9211 C57.9692,20.8591 58.1392,26.7971 58.0132,28.9111 C57.8882,31.0251 58.5032,32.0871 59.1892,32.6751 C59.1892,32.6751 60.4072,32.9561 60.6882,31.7381" id="Fill-34" fill="#FCC06D"></path>
                <path d="M40.7937,69.4779 C40.7937,69.4779 40.8737,71.9459 41.0677,73.6559 C41.2617,75.3649 41.1817,79.7479 41.7737,81.3879 C42.3667,83.0279 43.6747,85.4879 44.3937,87.1469 C45.1127,88.8069 45.7557,90.1109 46.2297,90.8279 C46.7027,91.5459 48.0397,92.9899 48.4387,93.3159 C48.9567,93.7389 50.1787,93.4929 50.3427,93.2589 C50.5077,93.0249 50.9477,92.5319 49.4457,90.4959 C47.9437,88.4589 45.9427,86.7349 45.5837,85.2589 C45.2257,83.7829 44.5977,79.8109 44.3867,79.0679 C44.1757,78.3259 43.7857,73.3559 43.9017,72.7269 C44.0177,72.0979 44.0877,71.2039 43.9997,70.9319 C43.9117,70.6599 40.7937,69.4779 40.7937,69.4779" id="Fill-36" fill="#1E1854"></path>
                <path d="M76.5379,57.1688 C76.7759,57.5928 77.2459,58.3318 77.4749,59.0978 C77.7039,59.8648 77.8119,60.5708 77.8299,61.3058 C77.8489,62.0418 77.3299,62.9108 77.5249,63.3278 C77.7209,63.7458 77.9189,63.7168 78.1719,63.0378 C78.4609,62.2628 78.5099,59.9438 78.3039,59.3098 C78.0989,58.6758 77.8779,57.5648 77.4529,57.2428 C77.0279,56.9198 77.0539,56.7518 76.7039,56.7848 C76.3539,56.8178 76.5379,57.1688 76.5379,57.1688" id="Fill-38" fill="#8776B5"></path>
                <path d="M45.9588,56.4608 C45.8278,56.4728 44.8818,57.1698 44.6198,57.8418 C44.3558,58.5128 44.1068,59.6278 44.0228,60.0778 C43.9388,60.5248 44.0938,62.1458 44.2018,62.6038 C44.3068,63.0508 44.4268,63.6068 44.6008,63.9568 C44.7738,64.3058 45.3068,65.0538 45.3728,64.8378 C45.4378,64.6218 45.3258,63.8618 45.1208,63.5078 C44.9158,63.1528 44.7458,61.2858 44.6808,60.8558 C44.6168,60.4258 44.8248,59.2618 44.9588,58.7978 C45.0938,58.3338 45.1358,58.2748 45.3918,57.8608 C45.6478,57.4478 46.0008,57.4688 46.1668,57.0088 C46.3328,56.5498 45.9588,56.4608 45.9588,56.4608" id="Fill-40" fill="#8776B5"></path>
                <path d="M59.3884,40.2108 C56.6194,40.2878 55.0284,41.1248 53.0494,42.5278 C51.0714,43.9308 49.1274,46.6358 48.2094,48.0438 C47.0604,49.8088 44.7984,52.8718 44.2874,54.0438 C43.6284,55.5598 42.6394,57.5428 41.8284,59.4878 C41.0174,61.4338 41.0624,67.1278 41.0674,68.8088 C41.0724,70.4898 42.1754,79.4448 42.4904,80.7848 C42.8044,82.1258 44.8404,87.4738 45.8554,89.3068 C46.4564,90.3928 47.3444,91.8448 48.2874,92.6038 C48.9374,93.1268 49.7494,93.2898 49.9664,92.8998 C50.4974,91.9468 47.0884,88.8468 45.9654,86.8678 C44.8434,84.8888 44.4734,81.3428 44.1084,79.4788 C43.7444,77.6138 43.0264,74.6618 43.1174,72.3498 C43.2084,70.0368 43.4684,69.1708 43.8814,67.2948 C44.2934,65.4188 44.0404,64.3788 43.9914,63.8538 C43.9404,63.3298 43.5344,62.1698 43.4724,60.8678 C43.4104,59.5658 44.1624,57.5798 44.9594,56.7298 C46.0404,55.5768 46.4204,54.0428 47.1674,53.3798 C47.9134,52.7168 49.5254,53.0248 49.8734,52.4308 C50.2214,51.8368 55.6464,49.2958 57.4424,48.5338 C59.2374,47.7708 60.9944,47.2608 64.3494,48.1548 C67.4464,48.9808 71.6264,51.3218 72.8514,51.7658 C74.0774,52.2088 76.4824,54.2528 78.1034,57.2108 C79.7254,60.1708 78.9384,63.5098 78.9384,63.5098 C78.9384,63.5098 79.8274,65.4848 80.0084,67.7098 C80.1894,69.9348 79.4354,78.3508 79.3894,79.5078 C79.3444,80.6638 77.8154,85.7968 77.0924,88.0138 C76.3694,90.2318 74.5944,91.5788 73.5304,93.4858 C72.4674,95.3938 74.8264,93.4288 75.9424,91.7828 C77.1344,90.0238 77.4564,87.7458 78.2284,86.0528 C79.0014,84.3598 79.8804,80.6798 80.5984,76.7818 C81.3164,72.8838 80.8094,74.0998 81.0604,69.8718 C81.3114,65.6448 81.3114,66.0208 80.8044,63.4358 C80.2694,60.7048 79.6554,59.9848 78.6784,56.9748 C77.7084,53.9848 76.1644,51.8408 75.6734,50.7698 C75.3554,50.0778 74.7524,49.1178 73.0034,46.3288 C71.6454,44.1638 70.5314,42.8838 68.4874,41.8648 C66.4444,40.8458 62.1574,40.1328 59.3884,40.2108" id="Fill-42" fill="#8776B5"></path>
                <path d="M71.9158,79.9295 C71.4688,79.4465 68.5428,77.8695 63.6648,77.6495 C58.7868,77.4295 56.4948,77.5985 53.9548,78.1865 C50.4058,79.0075 50.3658,80.5525 54.9358,79.8215 C59.6338,79.0685 57.1548,79.2515 63.3348,79.4095 C69.5978,79.5695 69.6208,81.0045 71.2038,80.7915 C72.7878,80.5785 72.1938,80.2305 71.9158,79.9295" id="Fill-44" fill="#CE7046"></path>
            </g>
        </g>
    </g>
</svg>