<?xml version="1.0" encoding="UTF-8"?>
<svg width="210px" height="145px" viewBox="0 0 210 145" version="1.1" xmlns="http://www.w3.org/2000/svg" xmlns:xlink="http://www.w3.org/1999/xlink">
    <!-- Generator: Sketch 47.1 (45422) - http://www.bohemiancoding.com/sketch -->
    <title>communityFooter2</title>
    <desc>Created with Sketch.</desc>
    <defs>
        <polygon id="path-1" points="25.2877311 37.3265674 25.2877311 0.404163184 0.362667227 0.404163184 0.362667227 37.3265674 25.2877311 37.3265674"></polygon>
        <polygon id="path-3" points="0.509638106 0.182468254 5.30752689 0.182468254 5.30752689 23.8650543 0.509638106 23.8650543 0.509638106 0.182468254"></polygon>
        <polygon id="path-5" points="40.1154644 0.0572145055 40.1154644 71.0732148 0.062424049 71.0732148 0.062424049 0.0572145055"></polygon>
        <polygon id="path-7" points="26.4211525 40.1176471 0.106145484 40.1176471 0.106145484 0.0479793466 26.4211525 0.0479793466 26.4211525 40.1176471"></polygon>
    </defs>
    <g id="Symbols" stroke="none" stroke-width="1" fill="none" fill-rule="evenodd">
        <g id="communityFooter2">
            <g id="communityLoneFishFront" transform="translate(52.296875, 0.000000)">
                <g>
                    <path d="M40.0448067,67.1562881 C40.0448067,67.1562881 49.5785042,80.9487802 51.6071597,82.1081452 C53.6358151,83.2675103 54.4859496,82.1193437 54.8674286,81.8367484 C55.2482521,81.5541532 56.0551261,78.4409944 55.3367395,76.4588754 C54.6176975,74.4767563 52.1151429,69.6252087 50.3408067,68.5488437 C48.7486891,67.5831452 46.6407227,67.09305 45.5356134,66.8407563 C44.8211597,66.6767325 44.3112101,66.9527405 44.3112101,66.9527405 C44.3112101,66.9527405 40.3509076,67.3730103 40.0448067,67.1562881" id="Fill-1" fill="#1E1854"></path>
                    <path d="M45.1934622,67.001223 C45.1934622,67.001223 44.6677815,66.9531357 44.8611429,67.0993738 C45.5277479,67.6052786 47.8952773,68.9352548 48.948605,69.359477 C50.3060672,69.9055643 52.0902353,70.7520325 52.1787227,70.5517786 C52.3078487,70.2593024 51.1784874,68.9879532 50.7766891,68.8417151 C50.3748908,68.6961357 48.2269412,68.1428024 47.5111765,67.8358341 C46.8943866,67.5710246 45.1934622,67.001223 45.1934622,67.001223 L45.1934622,67.001223 Z M43.8825378,67.2706437 C43.8825378,67.2706437 48.317395,70.455604 49.434958,71.475977 C50.5518655,72.4970087 53.0681849,73.9719056 53.5119328,74.2235405 C54.0585882,74.5338024 54.7946723,75.269604 54.7927059,75.0989929 C54.7684538,73.5147468 54.1018487,72.5536595 53.455563,72.3422071 C52.8099328,72.1307548 49.6794454,70.853477 48.6346387,70.0353341 C47.623916,69.2435405 45.9931261,68.2580802 45.9931261,68.2580802 L44.3695462,67.1316516 L43.8825378,67.2706437 Z M42.4123361,67.0473341 C42.6555126,67.6803738 51.8365714,76.3532151 51.8365714,76.3532151 C51.8365714,76.3532151 53.9143866,78.0310008 54.2906218,78.3432389 C54.6675126,78.6561357 55.6362857,78.9736437 55.6736471,78.7233262 C55.7116639,78.4743262 55.9318992,77.5705484 55.4848739,77.1621357 C55.0378487,76.7543817 51.7343193,74.2531833 50.267395,73.2631119 C48.8574958,72.3112468 43.402084,67.3681357 43.2801681,67.0512865 C43.0192941,66.3741119 42.4123361,67.0473341 42.4123361,67.0473341 L42.4123361,67.0473341 Z M41.6847731,67.2350722 L41.0483193,67.2449532 C41.0483193,67.2449532 51.9932269,79.7259135 52.4402521,80.1343262 C52.8872773,80.5427389 54.4112269,81.9985325 54.6288403,82.0136833 C54.964437,82.0360802 55.5418992,80.9860643 55.2987227,80.7522151 C47.3505882,73.1326833 41.6847731,67.2350722 41.6847731,67.2350722 L41.6847731,67.2350722 Z M40.3843361,67.2930405 C40.3843361,67.2930405 45.0676134,73.1972389 45.9688739,74.5258976 C46.8707899,75.8552151 50.9012269,80.0427627 51.3351429,80.5341754 C51.7697143,81.0262468 53.3991933,82.2099849 53.5145546,82.5676754 C53.6305714,82.9260246 52.1452941,83.317969 49.8577311,80.5018976 C47.5695126,77.6851675 43.3503025,71.9364294 42.6227395,71.1446357 C41.8938655,70.3528421 40.1988403,67.5413817 39.9877815,67.2541754 C39.7767227,66.966969 40.3843361,67.2930405 40.3843361,67.2930405 L40.3843361,67.2930405 Z" id="Fill-3" fill="#6557A4"></path>
                    <path d="M38.3303143,66.7259397 C38.3303143,66.7259397 34.132079,73.240781 32.8381966,75.0872016 C31.5436588,76.9349397 25.4806336,81.8088841 24.2994908,80.6027492 C23.4185496,79.7029238 23.0233059,77.2590349 23.1734067,76.2604 C23.3235076,75.2611063 22.9518605,74.3533762 23.5076924,72.9054873 C24.0641798,71.4569397 23.5594739,70.8700111 24.5629866,69.8298762 C25.5664992,68.7904 24.6927681,68.4024079 26.600163,66.988773 C28.5062471,65.5751381 29.1236924,65.4137492 30.0020118,65.2062492 C30.8803311,64.9994079 34.2395748,64.9131143 34.2395748,64.9131143 C34.2395748,64.9131143 34.6453059,65.3149397 35.7799109,65.6574794 C36.914516,66.000019 38.3303143,66.7259397 38.3303143,66.7259397" id="Fill-5" fill="#1E1854"></path>
                    <path d="M34.3460218,64.9575127 C34.3460218,64.9575127 33.2330471,65.1294413 32.9328454,65.154473 C32.6326437,65.1801635 32.0571479,65.2486714 31.665837,65.3171794 C31.2738706,65.3850286 30.702963,65.4265286 30.3575345,65.4732984 C30.0114504,65.5200683 28.7582067,65.6847508 28.4835681,65.728227 C28.2089294,65.7717032 27.5528118,66.282219 27.5469126,66.323719 C27.540358,66.365219 28.0542403,66.3296476 28.6369462,66.3046159 C29.2196521,66.2795841 30.0016185,66.0575921 30.6905092,65.7934413 C31.3800555,65.5292905 34.2667109,65.0161397 34.3512655,65.0148222 L34.3460218,64.9575127 Z M34.4463076,65.0438063 C34.4463076,65.0438063 33.9553664,65.2104651 33.6446773,65.3053222 C33.3339882,65.3995206 32.142358,65.7157111 31.7104084,65.8632667 C31.2791143,66.0108222 30.0592992,66.4212111 29.0806941,66.6418857 C28.1014336,66.8619016 27.5731311,66.7110524 26.5997697,66.9890365 C25.6257529,67.2670206 25.6270639,67.9198222 25.6270639,67.9198222 C25.6270639,67.9198222 26.2674504,67.7900524 26.6089462,67.7709492 C26.9510975,67.751846 27.7566605,67.4626635 28.4455513,67.2973222 C29.1337866,67.131981 34.5577361,65.1459095 34.5918202,65.1083619 L34.4463076,65.0438063 Z M34.707837,65.1827984 C34.707837,65.1827984 34.6259042,65.2559175 34.4141899,65.3514333 C34.2018202,65.4469492 32.3212992,66.3105444 32.0637025,66.4271397 C31.8061059,66.5443937 30.1831815,67.2913937 28.7470639,67.8256238 C27.3116017,68.359854 25.1970807,68.8236 25.1118706,68.9059413 C24.6327277,69.3650762 24.6786101,69.719473 24.6786101,69.719473 C24.6786101,69.719473 25.6637697,69.4579571 26.0341059,69.3439968 C26.404442,69.2293778 27.4774336,68.8532429 27.9290471,68.6661635 C28.3806605,68.4797429 30.9402403,67.4205048 31.3544924,67.1998302 C31.7687445,66.9784968 34.8428622,65.3165206 34.8887445,65.2954413 L34.707837,65.1827984 Z M35.0788286,65.437727 C35.0788286,65.437727 33.5358706,66.3105444 33.364795,66.4119889 C33.1943748,66.5140921 31.7018874,67.2380365 31.2968118,67.4890127 C30.8923916,67.7399889 28.1099546,68.9639095 26.8547445,69.4256794 C25.5995345,69.8881079 24.6582908,70.0429095 24.2184756,70.2457984 C23.778005,70.4486873 23.8625597,71.1568222 23.8625597,71.1568222 C23.8625597,71.1568222 24.8949126,70.8169175 25.4199378,70.6127111 C25.944963,70.4085048 27.3837025,69.6621635 28.1781227,69.3571714 C28.9725429,69.0515206 35.2669462,65.593846 35.2669462,65.593846 L35.0788286,65.437727 Z M35.3691983,65.6663063 C35.3691983,65.6663063 35.2472824,65.7756556 34.9398706,65.984473 C34.6331143,66.1932905 34.2470471,66.3685127 33.8898202,66.6333222 C33.5319378,66.8987905 30.3077193,68.6226873 29.8167782,68.9316317 C29.3251815,69.2399175 26.760358,70.383473 26.3198874,70.6357667 C25.8794168,70.8880603 23.838963,71.6429651 23.760963,71.7371635 C23.6331479,71.8135762 23.4876353,72.6429175 23.6029966,72.6501635 C23.718358,72.6567508 25.6067445,71.7193778 26.1298034,71.4796 C26.6528622,71.2398222 27.3424084,70.8762032 27.8248286,70.6298381 C28.3065933,70.3841317 30.0153832,69.3024968 30.5233664,69.0179254 C31.0326605,68.7326952 35.5160218,65.8164968 35.5841899,65.784219 L35.3691983,65.6663063 Z M35.8345765,65.8573381 C35.790005,65.8718302 35.0604756,66.3573143 34.7779714,66.5490048 C34.4948118,66.7400365 33.9560218,67.0838937 33.4408286,67.4099651 C32.9256353,67.7360365 32.272795,68.2755365 31.9489966,68.4606397 C31.6245429,68.6457429 30.3673664,69.5402984 30.0311143,69.8084016 C29.6935513,70.0765048 27.2250807,71.4262429 26.8737529,71.6495524 C26.5224252,71.8728619 23.4581395,73.2384095 23.3290134,73.3892587 C23.2011983,73.5394492 23.2156185,74.2871079 23.2156185,74.2871079 C23.2156185,74.2871079 23.7655513,74.0084651 24.0041395,73.8319254 C24.2420723,73.6553857 25.8597529,72.900481 26.1488118,72.6672905 C26.4378706,72.4347587 27.8208958,71.6864413 28.189921,71.4875048 C28.5589462,71.2879095 35.8889798,66.0575921 36.0023748,66.0108222 C36.0023748,66.0108222 35.8791479,65.842846 35.8345765,65.8573381 L35.8345765,65.8573381 Z M36.1079042,66.0622032 C36.1079042,66.0622032 35.9407613,66.2782667 35.6576017,66.4692984 C35.3750975,66.6603302 35.1719042,66.8849571 34.7779714,67.2512111 C34.3840387,67.6168063 32.1626773,69.3374095 31.8834504,69.5080206 C31.6035681,69.6786317 29.6011311,71.1620921 28.8716017,71.6475762 C28.1427277,72.1330603 23.3172151,74.7844492 23.1520387,75.0367429 C22.9875176,75.2883778 23.1140218,76.137481 23.1140218,76.137481 C23.1140218,76.137481 23.4948454,75.9042905 23.8258538,75.6776873 C24.1562067,75.4517429 26.8311479,73.9063619 27.4472824,73.5170524 C28.0129462,73.1600206 36.2658706,66.2776079 36.3576353,66.2282032 L36.1079042,66.0622032 Z M36.5647613,66.2591635 C36.4225261,66.2657508 35.9027445,67.0957508 35.5723916,67.4139175 C35.2420387,67.7327429 33.8865429,68.8611476 33.2808958,69.5073619 C32.6759042,70.1529175 29.7014168,72.2845683 28.8965092,73.1270841 C28.0922571,73.9702587 23.6082403,76.366719 23.1408958,76.8508857 C22.8898538,77.1110841 23.0150471,78.251346 23.2824756,78.1637349 C23.6351143,78.0491159 24.0054504,77.8620365 24.255837,77.7013063 C24.5055681,77.5405762 26.1396353,76.6249413 26.4260723,76.4134889 C26.7125092,76.2013778 28.5425597,74.9181714 28.9050303,74.5756317 C29.2668454,74.2337508 31.8310134,71.6423063 32.5507109,70.9855524 C33.2704084,70.3287984 36.9305092,66.4567825 36.9305092,66.4567825 C36.9940891,66.4100127 36.7069966,66.2525762 36.5647613,66.2591635 L36.5647613,66.2591635 Z M37.194005,66.5819413 C37.0517697,66.5885286 37.0504588,66.7868063 36.9619714,67.0008937 C36.8728286,67.2143222 34.5446269,69.5567667 32.886963,71.3774968 C31.2299546,73.1975683 29.4667613,74.9735048 28.3085597,76.1025683 C27.1497025,77.2322905 23.5158202,78.8666 23.4397866,78.9963698 C23.3637529,79.1267984 23.2195513,79.3323222 23.3630975,79.6946238 C23.5059882,80.0569254 23.9674336,80.1834016 23.9674336,80.1834016 C23.9674336,80.1834016 25.8984252,79.1709333 26.4345933,78.7987508 C26.9707613,78.4259095 29.9308286,76.2073063 30.6354504,75.4629413 C31.3407277,74.7185762 37.4175176,66.7769254 37.6508622,66.7360841 C37.7380387,66.7209333 37.3362403,66.575354 37.194005,66.5819413 L37.194005,66.5819413 Z M38.4564252,66.8302825 C38.5855513,66.9066952 36.8643076,69.3413619 35.5435513,71.5533778 C34.222795,73.7653937 32.5952824,76.327854 29.2137529,78.9081 C28.7254336,79.2809413 25.849921,80.809854 25.3517697,80.9330365 C24.852963,81.0555603 24.5468622,80.8388381 24.5317866,80.7518857 C24.5160555,80.6642746 25.0063412,80.709727 25.303921,80.4995921 C30.3686773,76.9286159 29.9026437,77.265227 30.6066101,76.593981 C32.1266269,75.1427984 38.0421731,66.7670444 38.0421731,66.7670444 C38.0421731,66.7670444 38.3259882,66.7538698 38.4564252,66.8302825 L38.4564252,66.8302825 Z" id="Fill-7" fill="#8776B5"></path>
                    <path d="M53.0721176,40.9936341 C53.0721176,40.9936341 53.8390084,35.3068167 53.8986555,33.7838325 C53.9510924,32.4354119 54.2958655,31.5164833 55.7962185,30.5521024 C57.2965714,29.5883802 62.6687395,29.2049992 64.2136639,29.7866579 C72.5531092,32.9255071 75.6128067,38.4983643 76.6182857,43.0785151 C77.6244202,47.6580071 78.815395,49.8825389 74.9481681,56.4474437 C71.0815966,63.0123484 66.6054454,65.7381738 63.7142017,65.8106341 C60.822958,65.8824357 58.7097479,66.4133722 56.012521,62.9385706 C53.3152941,59.4644278 52.4998992,54.7433087 52.4998992,54.7433087 C52.4998992,54.7433087 54.0146723,46.2022135 53.0721176,40.9936341" id="Fill-9" fill="#CE7046"></path>
                    <g id="Group-13" transform="translate(52.436975, 28.801659)">
                        <mask id="mask-2" fill="white">
                            <use xlink:href="#path-1"></use>
                        </mask>
                        <g id="Clip-12"></g>
                        <path d="M0.736936134,13.1874484 C0.736936134,13.1874484 2.17567563,7.55925794 2.26744034,6.94861508 C2.35920504,6.33863095 2.83441513,2.23869444 2.69152437,2.24528175 C2.54994454,2.25186905 2.00525546,2.68070238 1.97903697,3.04563889 C1.95216303,3.4105754 1.69128908,6.46378968 1.69194454,6.8333373 C1.6926,7.20222619 1.29538992,10.0367421 1.26196134,10.2587341 C1.22853277,10.4807262 0.643860504,12.4918294 0.655003361,12.6071071 C0.666146218,12.7223849 0.736936134,13.1874484 0.736936134,13.1874484 L0.736936134,13.1874484 Z M0.911289076,14.6610278 C0.955205042,14.5543135 3.3600958,9.07301984 3.60458319,8.20217857 C3.84841513,7.33067857 4.38851597,3.92175 4.55238151,3.20900397 C4.7155916,2.49625794 4.92730588,1.2789246 4.82505378,1.20712302 C4.72280168,1.1346627 3.64653277,1.34018651 3.35944034,1.7505754 C3.07169244,2.16096429 2.74396134,5.65882143 2.79443193,6.26287698 C2.84490252,6.86627381 2.34478487,9.62832937 2.19402857,10.2580754 C2.04261681,10.8878214 1.46777647,12.6453135 1.27113782,13.0128849 C1.07515462,13.3804563 0.820179832,14.1366786 0.820179832,14.1366786 L0.911289076,14.6610278 Z M0.946684034,16.1141865 C0.946684034,16.1141865 5.15999496,10.254123 5.72172605,8.57963095 C6.04617983,7.61393254 6.79996134,5.53695635 6.83994454,5.08901984 C6.87861681,4.6404246 7.86443193,1.83818651 7.90769244,1.36258333 C7.94898655,0.911353175 8.09318824,0.879734127 7.97192773,0.747988095 C7.85066723,0.616242063 6.58169244,0.224956349 6.13401176,0.951535714 C5.93671765,1.27167857 4.85061681,5.92165476 4.56680168,6.87220238 C4.28233109,7.82209127 3.32797815,11.1684405 2.8435916,11.9464008 C2.3598605,12.7243611 0.961104202,15.2650833 0.932263866,15.45875 C0.902768067,15.6530754 0.946684034,16.1141865 0.946684034,16.1141865 L0.946684034,16.1141865 Z M0.882448739,17.2959484 C0.898835294,17.1852817 4.30723866,13.6722738 4.76868403,13.2315833 C5.23012941,12.7908929 8.94922185,7.96305952 9.4093563,7.15282143 C9.87014622,6.34324206 11.0873395,4.25770238 11.2748017,3.5765754 C11.4616084,2.89544841 12.7010874,1.40935317 12.3949866,1.19263095 C12.0888857,0.97525 10.5891882,-0.132075397 9.50046555,0.72493254 C8.41108739,1.58062302 6.98283529,7.89125794 6.59873445,8.57106746 C6.21397815,9.25087698 4.56417983,12.1506071 4.19581008,12.7190913 C3.8280958,13.2875754 2.00394454,15.2808929 1.68473445,15.714996 C1.36486891,16.1490992 0.86147395,16.8671151 0.86147395,16.8671151 L0.882448739,17.2959484 Z M0.892280672,17.9790516 C0.892280672,17.9790516 3.13789412,16.1912579 3.53575966,15.7973373 C3.93362521,15.4040754 8.16856639,12.2151627 8.9223479,11.3357579 C9.67547395,10.4570119 11.9138773,7.58955952 13.0668353,6.11927381 C14.2197933,4.64767063 15.5995412,2.98437698 15.5261294,2.71759127 C15.4533731,2.45146429 14.4616588,1.5345119 13.7170538,1.79009921 C12.9724487,2.04634524 11.5789361,5.49545635 11.1987681,6.14759921 C10.8186,6.79908333 8.70866723,10.8779405 7.68352437,11.6875198 C6.65838151,12.4970992 3.87922185,14.8276865 3.38172605,15.3197579 C2.88423025,15.8118294 0.847053782,17.7162183 0.847053782,17.7162183 L0.892280672,17.9790516 Z M16.7171042,3.43758333 C16.5237429,3.40794048 15.5923311,4.91248016 15.2180622,5.70756746 C14.8444487,6.50265476 9.61123866,11.6394325 8.70473445,12.4101468 C7.79757479,13.1808611 0.893591597,18.3479405 0.893591597,18.3479405 L0.931608403,19.034996 C0.931608403,19.034996 2.00197815,18.4875913 2.68890252,18.0528294 C3.37517143,17.6180675 8.26033109,15.1807659 9.21337311,14.4739484 C10.1664151,13.767131 15.0614067,10.0446468 15.7463647,9.33519444 C16.9170202,8.12247222 18.7346168,5.04949603 18.7346168,5.04949603 C18.3813227,4.01660714 16.9104655,3.46722619 16.7171042,3.43758333 L16.7171042,3.43758333 Z M0.827389916,19.7286389 C0.914566387,19.7134881 5.47330588,18.5040595 6.11565882,18.1753532 C6.75801176,17.8473056 11.3783647,15.8526706 13.4555244,14.8059484 C15.5333395,13.7585675 19.7486168,11.0775357 20.1825328,10.6328929 C20.6164487,10.1875913 21.6160286,8.7140119 21.7766168,8.5763373 C21.9870202,8.39518651 21.391205,6.91436111 20.0743815,6.37354365 C19.6961798,6.21808333 17.0769529,9.8779881 16.5879782,10.3140675 C16.0983479,10.7508056 13.0845328,13.3303929 9.66105378,15.25125 C6.23823025,17.1721071 4.28495294,17.9546786 3.57902017,18.3301548 C2.87308739,18.7049722 0.8346,19.3037579 0.8346,19.3037579 L0.827389916,19.7286389 Z M0.80772605,20.4565357 C1.1466,20.3162262 8.23673445,19.2214167 10.4462975,18.471123 C12.6558605,17.7208294 17.3666672,16.3928294 18.2489193,16.015377 C19.1311714,15.6392421 21.6992723,14.3342976 22.8260118,13.9008532 C23.315642,13.7117976 23.5555412,13.556996 23.8341126,13.0958849 C24.2155916,12.4641627 23.2828689,10.1098611 22.7650538,10.1730992 C21.9326168,10.2752024 20.5450034,12.2131865 19.043995,13.3264405 C17.5423311,14.4390357 11.7683647,16.4369643 10.0372891,17.3875119 C8.30621345,18.3380595 5.35138992,18.9750516 4.35377647,19.2701627 C3.35616303,19.5659325 0.988633613,20.1008214 0.802482353,20.072496 C0.61567563,20.0441706 0.80772605,20.4565357 0.80772605,20.4565357 L0.80772605,20.4565357 Z M0.676633613,21.2239563 C0.856230252,21.2252738 -0.016189916,21.2015595 0.733658824,21.3392341 C3.69044874,21.8833452 11.503558,23.395131 13.5505664,23.6039484 C16.1160454,23.8648056 19.5270706,23.9998452 21.2417597,24.0044563 C22.9564487,24.0097262 23.9586504,23.9616389 24.3611042,23.9669087 C24.8703983,23.973496 25.6012387,20.9914246 25.1430706,20.4677341 C24.6239445,19.8729008 22.7820958,21.3649246 19.883642,21.6277579 C16.9851882,21.8899325 12.5051042,22.1040198 10.8094235,21.97425 C9.11308739,21.8444802 4.52223025,21.5309246 3.89167563,21.4993056 C3.26112101,21.4670278 0.676633613,21.2239563 0.676633613,21.2239563 L0.676633613,21.2239563 Z M0.661557983,21.0092103 C0.661557983,21.0092103 1.08695294,21.137004 1.39764202,21.1844325 C1.70833109,21.2312024 6.41782689,21.1798214 8.74799496,20.89525 C11.0775076,20.6106786 19.7053563,19.4295754 20.4263647,19.2833373 C21.1473731,19.1377579 24.6993227,18.1285833 24.9542975,17.4803929 C25.5710874,15.9139325 24.2739277,14.6024008 24.2739277,14.6024008 C24.2739277,14.6024008 23.9291546,14.5793452 22.6791882,15.2835278 C21.4298773,15.9877103 20.3988353,16.0865198 17.8746504,17.236004 C15.351121,18.3854881 9.55421345,18.910496 6.50893613,19.7253452 C3.46431429,20.5401944 0.770364706,20.7061944 0.770364706,20.7061944 L0.661557983,21.0092103 Z M0.633373109,21.7707024 C0.633373109,21.7707024 5.63454958,24.7007341 6.43224706,24.8858373 C7.2306,25.0709405 12.5470538,26.8989167 14.3489193,27.1722897 C16.1501294,27.4463214 19.4805328,28.1788294 19.8534908,28.2354802 C20.2257933,28.292131 21.5563815,28.6149087 21.9195076,28.5773611 C22.1685832,28.5516706 23.4526336,27.0220992 23.3484151,26.2118611 C23.2435412,25.3950357 18.6094235,25.4569563 17.630163,25.6275675 C16.651558,25.7981786 11.7913059,24.7415754 9.92782689,24.4583214 C8.0643479,24.1757262 3.05858319,22.3945198 2.15470084,22.0658135 C1.25081849,21.7371071 0.698263866,21.5039167 0.698263866,21.5039167 L0.633373109,21.7707024 Z M0.622885714,22.5354881 C0.622885714,22.5354881 3.02777647,25.135496 4.42456639,25.9859167 C5.82201176,26.8363373 10.8828353,29.520004 12.8859277,30.1431627 C14.8883647,30.7669802 18.3846,32.4467421 18.8912723,32.4592579 C19.3972891,32.4724325 20.9140286,31.6812976 20.6918269,30.6260119 C20.4689697,29.5700675 12.803995,28.1511627 11.4747176,27.694004 C10.1454403,27.237504 4.65594454,24.8713452 4.24890252,24.6183929 C3.84251597,24.3647817 0.697608403,22.0361706 0.697608403,22.0361706 L0.622885714,22.5354881 Z M0.453776471,23.658623 C0.453776471,23.658623 4.2076084,28.6985675 5.19473445,29.741996 C6.18120504,30.7860833 12.0331714,34.5474325 12.794163,34.9821944 C13.5544992,35.4169563 14.2774739,36.101377 14.6596084,36.0954484 C15.0417429,36.0895198 16.3120286,36.0908373 16.4188689,34.9578214 C16.5257092,33.8248056 9.91537311,30.4586944 7.61863361,28.8329484 C5.32123866,27.2072024 2.9058605,25.9470516 2.22942353,24.9503929 C1.55364202,23.9537341 0.485894118,23.0255833 0.485894118,23.0255833 L0.453776471,23.658623 Z M0.381020168,24.032123 C0.381020168,24.032123 1.87088571,26.4918214 2.85080168,28.4284881 C3.83006218,30.3651548 7.88016303,33.8537897 8.66016303,34.1633929 C9.43950756,34.472996 13.1028857,36.3062421 12.4408689,36.9083214 C11.7788521,37.5097421 9.95863361,37.3615278 9.42770924,37.0894722 C8.89678487,36.8174167 5.4851042,34.5750992 4.56942353,33.4783135 C3.65439832,32.3815278 0.362667227,25.1137579 0.362667227,25.1137579 L0.381020168,24.032123 Z" id="Fill-11" fill="#FCC06D" mask="url(#mask-2)"></path>
                    </g>
                    <path d="M26.6459143,45.5159484 C26.6459143,45.5159484 22.7111748,38.0143294 21.8105697,36.7877738 C20.9106202,35.5605595 16.6717462,31.2840833 15.4073597,31.2735437 C14.1436286,31.263004 9.5376958,31.8360992 7.80334286,33.753004 C6.06898992,35.6705675 3.8679479,35.8813611 2.65337647,39.1486627 C1.4394605,42.416623 0.321897479,46.244504 0.451678992,48.9894325 C0.581460504,51.7343611 0.187527731,56.7624484 2.28828403,59.624631 C4.38904034,62.4874722 7.16033445,66.9049167 10.0155277,67.1565516 C12.8700655,67.4081865 18.130805,64.9313611 19.8743345,64.1105833 C21.6250739,63.2865119 23.0762672,62.0527103 24.146637,60.9434087 C25.2170067,59.8341071 28.2091916,55.5642183 28.2091916,55.5642183 L26.6459143,45.5159484 Z" id="Fill-14" fill="#CE7046"></path>
                    <g id="Group-18" transform="translate(0.000000, 30.777849)" fill="#FCC06D">
                        <path d="M27.3224824,25.7632 C27.3224824,25.7632 23.5208017,29.3585492 22.8286336,30.0192556 C22.1358101,30.6806206 20.0986336,32.1166524 18.7470706,32.9334778 C17.396163,33.7503032 15.3694739,35.4004222 12.0980622,36.3088111 C8.82730588,37.2172 8.6831042,35.9188429 8.6831042,35.9188429 C8.6831042,35.9188429 9.06261681,35.9333349 9.72070084,35.7778746 C10.3794403,35.6224143 12.3910538,35.2041206 13.9202471,34.329327 C15.4500958,33.4545333 19.8397261,31.8643587 20.7894908,30.901954 C21.7386,29.9388905 27.1946672,25.4885095 27.1946672,25.4885095 L27.3224824,25.7632 Z M26.8741462,24.801454 C26.7725496,24.9134381 14.2964824,30.9803429 13.184163,31.6206286 C12.0711882,32.2609143 8.58019664,33.2206841 7.80740672,33.5717873 C7.03461681,33.9228905 6.18775966,33.9222317 6.18775966,33.9222317 C6.18775966,33.9222317 6.8943479,35.1362714 7.58651597,35.3259857 C8.27802857,35.5163587 14.2374908,32.5039857 15.4199445,31.9598746 C16.6030538,31.4164222 19.8692218,29.6977952 20.5718773,29.2511762 C21.2738773,28.8045571 26.3386336,25.8270968 26.5542807,25.5188111 C26.7699277,25.2111841 26.9895076,25.1591444 26.9895076,25.1591444 L26.8741462,24.801454 Z M26.7214235,23.8416841 C26.7214235,23.8416841 16.9248857,26.7394381 15.4330538,27.364573 C13.9412218,27.9890492 7.74382689,28.9218111 6.9133563,29.0937397 C6.08223025,29.2656683 3.11823025,29.5397 3.06841513,29.8723587 C3.0186,30.2056762 4.24038151,32.2213905 4.77261681,32.3452317 C5.3048521,32.4684143 6.69246555,32.2530095 8.38486891,31.7009937 C10.0772723,31.1489778 16.7223479,28.3691365 18.4049193,27.6023746 C20.0868353,26.8362714 21.9457261,26.3092873 22.6483815,25.8626683 C23.3503815,25.4160492 25.8011546,24.8936762 26.1413395,24.6051524 C26.4808689,24.3159698 26.8721798,24.2474619 26.8721798,24.2474619 L26.7214235,23.8416841 Z M26.6912723,23.1981048 C26.6912723,23.1981048 22.1069697,23.822581 21.140163,24.0590651 C20.1727008,24.2948905 13.9982471,24.5076603 11.0558773,24.3587873 C8.1128521,24.2099143 5.83512101,23.864081 4.94631429,23.8568349 C4.05816303,23.8502476 0.780196639,23.3950651 0.707440336,23.5966365 C0.634684034,23.7988667 0.151608403,25.4997079 1.08170924,26.4634302 C1.85122185,27.2611524 7.64419664,26.312581 9.40542353,26.3218032 C11.4367008,26.3323429 16.1324319,25.8106286 17.9244655,25.4437159 C19.7164992,25.0768032 23.2822134,24.4114857 24.1716756,24.1782952 C25.0978437,23.9358825 26.7364992,23.4602794 26.7364992,23.4602794 L26.6912723,23.1981048 Z M26.6735748,22.4721841 C26.6735748,22.4721841 3.29979328,20.1593825 2.74854958,20.1607 C2.19796134,20.1620175 0.709406723,19.638327 0.451810084,19.9400254 C0.194868908,20.2410651 0.200768067,21.0506444 0.287289076,21.3194063 C0.373810084,21.5881683 0.419692437,21.8503429 0.578969748,21.9175333 C0.738247059,21.9840651 18.1840286,22.5881206 19.2196588,22.7455571 C20.2546336,22.9023349 22.6116756,23.0050968 23.4709866,22.9227556 C24.3309529,22.8404143 26.6709529,22.7699302 26.6709529,22.7699302 L26.6735748,22.4721841 Z M26.6329361,21.6145175 C26.6329361,21.6145175 4.05357479,16.2715571 3.4033563,16.0877714 C2.75313782,15.9039857 0.970280672,15.0799143 0.713339496,15.3816127 C0.456398319,15.6833111 -0.0312655462,16.6733825 0.00150756303,17.0192159 C0.0342806723,17.3643905 0.185036975,17.770827 0.40854958,17.9750333 C0.632062185,18.1792397 14.3279445,20.3425095 16.4811378,20.6698984 C18.6349866,20.9966286 22.0787849,21.4768429 22.8777933,21.513073 C23.6774571,21.5493032 26.7423983,22.0143667 26.7423983,22.0143667 L26.6329361,21.6145175 Z M26.5772218,21.1375968 C26.5772218,21.1375968 3.30831429,11.645954 3.02449916,11.560319 C2.74068403,11.4753429 1.88596134,10.9621921 1.74896975,11.0260889 C1.61263361,11.0906444 0.565205042,12.4219381 1.11120504,13.015454 C1.77453277,13.7367635 14.7303983,17.3815175 15.5687345,17.7214222 C16.4077261,18.0619857 21.6887849,19.8425333 22.2210202,19.9657159 C22.7532555,20.0888984 26.5936084,21.3101841 26.5936084,21.3101841 L26.5772218,21.1375968 Z M26.6008185,20.4176048 C26.6008185,20.4176048 4.69920504,8.02623175 4.26856639,7.79040635 C3.83792773,7.55458095 3.43481849,7.07173175 3.24211261,7.29372381 C2.88357479,7.70806508 1.4343479,8.89312063 2.2038605,9.69084286 C2.97402857,10.4885651 11.0893059,13.4232079 11.8968353,13.9712714 C12.7037092,14.5193349 19.5519782,17.4322397 21.0444655,18.2121762 C22.5369529,18.9921127 25.7539613,20.416946 25.9486336,20.5315651 C26.1426504,20.6461841 26.6113059,20.6316921 26.6113059,20.6316921 L26.6008185,20.4176048 Z M26.6342471,19.9117 C26.6342471,19.9117 7.18275126,5.59288254 7.01364202,5.31226349 C6.84387731,5.03098571 6.33917143,4.44339841 5.96031429,4.42824762 C5.58145714,4.41375556 3.68520504,5.19039841 4.14665042,6.06914444 C4.51108739,6.76476349 7.04379328,8.21133492 7.84476807,8.80089841 C8.64508739,9.39112063 16.1317765,13.9752238 16.8213227,14.4633429 C17.5102134,14.9508032 24.2811378,18.6607714 24.7216084,19.1106841 C25.1627345,19.5605968 26.6447345,20.126446 26.6447345,20.126446 L26.6342471,19.9117 Z M26.6290034,19.1021206 C26.6290034,19.1021206 12.4677429,3.67597778 11.3239613,2.56074762 C10.289642,1.55223175 10.2293395,1.67080317 9.94552437,1.58516825 C9.66170924,1.49953333 8.16004538,1.91058095 8.12399496,2.71357302 C8.07876807,3.72604127 16.3526672,10.8166127 17.6852218,11.5293587 C19.0184319,12.2427635 24.095642,17.3551683 24.8238605,18.1469619 C25.552079,18.9387556 26.7201126,19.6271286 26.7201126,19.6271286 L26.6290034,19.1021206 Z M26.635558,16.8044698 C26.635558,16.8044698 19.6050706,5.52042222 18.7942639,4.7161127 C17.9828017,3.91180317 14.1463815,0.689953968 14.1463815,0.689953968 C14.1463815,0.689953968 12.7115748,0.0891920635 12.1059277,1.01931905 C11.7395244,1.58253333 15.8525496,5.12123175 17.6406504,6.75488254 C19.4287513,8.38853333 20.6688857,10.2797476 22.3363815,12.1498825 C24.0038773,14.0206762 26.696516,18.0909698 26.696516,18.0909698 L26.635558,16.8044698 Z" id="Fill-16"></path>
                    </g>
                    <path d="M34.7886555,29.4072952 C33.7759664,31.6377556 32.9743361,30.345327 31.9439496,32.5514143 C31.0872605,34.3872952 30.0280336,35.1553746 30.0280336,35.1553746 C30.0280336,35.1553746 27.9207227,37.9009619 27.8866387,39.257946 C27.8518992,40.6149302 26.5134454,45.009319 26.6360168,47.582319 C26.7572773,50.1546603 26.2971429,54.3422079 27.0410924,56.1576683 C27.785042,57.9737873 30.0352437,61.0395175 30.7136471,62.1646286 C31.391395,63.289081 36.4830252,66.6156683 37.4773613,66.7665175 C38.471042,66.9173667 39.2490756,67.3765016 40.9558992,67.294819 C42.6627227,67.2131365 44.6251765,67.6814937 46.6977479,66.2928905 C48.7703193,64.904946 50.7616134,61.8010095 51.1522689,60.3280889 C51.5435798,58.8551683 53.6974286,50.1572952 53.4103361,47.5592635 C53.1225882,44.9612317 53.6233613,41.6313508 52.8289412,40.1485492 C52.0351765,38.6657476 49.3733445,34.7983429 48.247916,32.3017556 C47.1041345,29.7649857 46.3097143,31.6667397 44.6723697,29.034454 C43.0343697,26.4021683 35.8013445,27.1768349 34.7886555,29.4072952" id="Fill-19" fill="#CE7046"></path>
                    <path d="M28.7758387,47.9074024 C28.9069311,47.0332675 28.9331496,46.0155294 29.0458891,45.2658944 C29.1579731,44.5169183 28.7620739,42.9241087 29.3460908,43.2679659 C29.9294521,43.611823 31.0974857,44.300196 31.5825277,43.6078706 C32.0675697,42.9148865 32.9701412,41.1363151 33.3693176,40.174569 C33.7678387,39.2134817 33.8006118,37.3025056 35.0997378,37.1167437 C36.3982084,36.930323 35.8967798,35.1939103 37.5498555,35.1892992 C39.2029311,35.1846881 40.3093513,34.5865611 42.4028975,35.0318627 C44.4964437,35.4771643 46.6162084,34.9047278 46.4280908,36.1536802 C46.2406286,37.4026325 46.2268639,39.18845 47.1386118,40.7318548 C48.0503597,42.2752595 48.1414689,44.2046802 49.2105277,43.8562119 C50.2795866,43.5077437 50.4414857,43.2765294 51.0327126,42.7278071 C51.623284,42.1790849 51.4613849,42.4096405 51.7032504,43.3404262 C51.9444605,44.2712119 51.867116,47.3250849 51.7845277,48.7169817 C51.702595,50.1095373 51.7563429,52.2892754 51.207721,54.2496563 C50.6584437,56.2100373 50.0842588,59.1881563 48.9588303,59.9114421 C47.8334017,60.6347278 46.9118218,62.5377992 47.2841244,62.59445 C47.6570824,62.6511008 49.1554689,61.9851246 49.6411664,61.2921405 C50.1262084,60.5991563 52.6680908,53.8326802 52.8181916,52.8340452 C52.9682924,51.8347516 53.5313345,48.0878944 53.5077378,46.5517357 C53.4847966,45.015577 53.6067126,42.0084738 53.062679,40.5671722 C52.586158,39.3037278 50.8668807,34.4034341 49.5474353,32.6689976 C48.2293008,30.9345611 48.2247126,29.2739024 46.4923261,28.1171722 C44.7599395,26.9597833 44.9211832,26.728569 42.0633681,26.2951246 C39.2055529,25.8610214 38.6405445,25.3926643 36.7324941,26.2523071 C34.8237882,27.11195 32.3546622,29.1638944 31.6139899,30.7119103 C30.8726622,32.2599262 28.7391328,34.2374341 29.0839059,34.6715373 C29.428679,35.1062992 28.2652336,36.0792437 28.0967798,37.2030373 C27.9276706,38.326831 27.7769143,46.0952357 27.7769143,46.0952357 L28.7758387,47.9074024 Z" id="Fill-21" fill="#1E1854"></path>
                    <path d="M50.2163345,33.4739 C50.0675445,33.1959159 48.5855445,27.4155587 47.5459815,26.2996698 C46.5064185,25.1844397 43.8144353,20.6892651 43.3116958,20.2301302 C42.8089563,19.7703365 40.8235613,16.9147413 40.5902168,17.198654 C40.3568723,17.4832254 39.8764185,16.4523127 39.8764185,16.4523127 C39.8764185,16.4523127 38.0496454,17.1966778 37.7763176,16.8995905 C37.5029899,16.6025032 37.3856622,15.6908206 37.2860319,15.9312571 C37.1870571,16.1716937 35.1420151,19.6287095 34.2184689,20.701781 C33.2949227,21.7748524 31.2472588,25.6784873 30.7491076,26.8793524 C30.2509563,28.0808762 28.289158,35.6371698 28.0184521,36.1707413 C27.7477462,36.7043127 26.6727882,40.0532968 26.7612756,41.1520587 C26.8504185,42.2508206 26.7062168,47.0180508 26.7062168,47.0180508 C26.7062168,47.0180508 27.6028891,44.8554397 27.5878134,44.5339794 C27.5727378,44.212519 27.9843681,39.3583365 28.0400824,38.983519 C28.0964521,38.6087016 30.2784857,34.6622492 30.2784857,34.6622492 C30.2784857,34.6622492 33.4469899,28.3746698 37.1719815,28.1098603 C40.8963176,27.8450508 44.859242,28.957646 45.6412084,30.0979079 C46.4225193,31.2375111 48.2007882,33.359281 48.9762,34.1155032 C49.7522672,34.8717254 50.8350908,36.1219952 50.8350908,36.1219952 L50.2163345,33.4739 Z" id="Fill-23" fill="#1E1854"></path>
                    <path d="M47.7653647,54.9610849 C48.0301714,54.9479103 49.3974655,54.5276405 49.0179529,53.108077 C48.6384403,51.6878548 48.7321714,51.0633786 47.2147765,50.4501008 C45.2333143,49.6490849 42.5111798,49.0694024 40.4602387,49.1695294 C38.3614487,49.2722913 36.6847765,48.8039341 35.3528773,49.3309183 C33.6014824,50.0239024 33.4428605,49.6372278 32.6628605,50.8809103 C31.883516,52.1245929 31.2182218,52.3222119 31.6803227,53.7542913 C32.143079,55.1870294 33.1406924,55.5934659 34.4004908,55.1033706 C35.6602891,54.6139341 37.230121,54.5968071 39.8729445,54.4867992 C42.5157681,54.3767913 44.1419697,53.9855056 45.1310622,54.7311881 C46.1201546,55.4775294 47.3386588,54.9815056 47.7653647,54.9610849" id="Fill-25" fill="#FCC06D"></path>
                    <path d="M50.0700353,38.0271087 C50.2686403,37.743196 49.1340353,37.7715214 48.869884,38.2141881 C48.4392454,38.9354976 48.1567412,40.5177675 48.3297832,41.0552913 C48.5034807,41.5921563 48.7210941,42.3068786 49.4001529,42.2956802 C50.0543042,42.2857992 50.4751109,41.7212675 50.6206235,41.3174659 C50.7661361,40.9136643 50.5806403,40.8293468 50.3400857,41.3036325 C50.0995311,41.7779183 49.7482034,41.951823 49.2644723,41.793069 C48.7794303,41.6343151 48.6876655,41.024331 48.7827076,40.0171325 C48.8561193,39.2332437 49.0920857,38.6166722 49.295279,38.3920452 C49.4978168,38.1674183 49.961884,38.1812516 50.0700353,38.0271087" id="Fill-27" fill="#FCC06D"></path>
                    <path d="M30.7799798,39.0051913 C30.8586353,39.5387627 30.8900975,40.3839135 30.819963,40.7139373 C30.7118118,41.2191833 30.6410218,41.5893897 30.4161983,41.6849056 C30.2693748,41.7481437 30.1540134,41.6453817 30.0255429,41.3706913 C29.8977277,41.0953421 29.7568034,40.8825722 29.7082992,40.8542468 C29.6106353,40.7969373 29.5752403,40.9616198 29.6860134,41.212596 C29.7967866,41.4635722 29.8662655,41.5854373 29.9881815,41.8120405 C30.0871563,41.9971437 30.2477445,42.24285 30.5754756,42.0603817 C30.8802655,41.8910881 31.2335597,41.1065405 31.2551899,40.9398817 C31.5206521,38.8945246 31.1057445,38.5546198 31.0683832,38.3787389 C31.0310218,38.2028579 30.7498286,38.0111675 30.4830555,37.9492468 C30.2175933,37.8873262 30.1336941,37.9518817 30.2844504,38.0039214 C30.5059966,38.0803341 30.6115261,38.30035 30.6528202,38.4432944 C30.7367193,38.732477 30.7799798,39.0051913 30.7799798,39.0051913" id="Fill-29" fill="#FCC06D"></path>
                    <g id="Group-33" transform="translate(36.050420, 0.476262)">
                        <mask id="mask-4" fill="white">
                            <use xlink:href="#path-3"></use>
                        </mask>
                        <g id="Clip-32"></g>
                        <path d="M2.60828067,0.402352381 C2.6233563,0.717884127 3.63342353,6.68795556 3.52330588,8.26759048 C3.41318824,9.8472254 3.82744034,14.698773 3.82744034,14.698773 C3.82744034,14.698773 4.08962521,16.3350587 4.49273445,17.0346302 C4.80932269,17.5840111 6.09271765,20.342773 4.59957479,22.6700667 C3.83399496,23.8623683 3.47480168,24.1304714 2.4240958,23.6166619 C1.47695294,23.1542333 0.483927731,21.7261063 0.510146218,20.7083683 C0.535709244,19.6906302 0.437389916,18.6544476 0.845742857,17.630781 C1.25344034,16.6071143 1.10661681,17.1591302 1.23574286,15.4549952 C1.36486891,13.7508603 0.367910924,10.6620746 0.666801681,9.94076508 C0.965692437,9.22011429 0.498347899,7.6806619 0.821490756,7.21889206 C1.14528908,6.75712222 0.791994958,5.29935238 0.957826891,4.62151905 C1.12300336,3.94434444 0.943406723,3.02343968 1.28031429,2.05247143 C1.61656639,1.0821619 1.64868403,0.448463492 1.98690252,0.308153968 C2.32577647,0.168503175 2.59320504,0.0808920635 2.60828067,0.402352381" id="Fill-31" fill="#CE7046" mask="url(#mask-4)"></path>
                    </g>
                    <path d="M39.7788202,20.9068437 C39.963005,20.1045103 39.1095933,19.0176056 38.9771899,17.7844627 C38.845442,16.5506611 38.9109882,12.7293675 39.0460134,11.4092722 C39.1803832,10.089177 38.8257782,7.80008968 38.6900975,7.01356587 C38.5537613,6.22638333 38.560316,3.22652619 38.6324168,1.89655 C38.7058286,0.56657381 38.4534756,0.975645238 37.9310723,1.91762937 C37.4080134,2.86027222 37.5541815,5.69149444 37.8294756,6.81858175 C38.1047697,7.94632778 37.9992403,11.1866214 37.9979294,12.4638992 C37.9966185,13.7405183 38.1080471,17.6520579 38.0254588,19.0446135 C37.9435261,20.437169 38.3466353,21.1367405 38.7962824,21.5240738 C38.7962824,21.5240738 39.5946353,21.709177 39.7788202,20.9068437" id="Fill-34" fill="#FCC06D"></path>
                    <path d="M26.7387277,45.7671881 C26.7387277,45.7671881 26.7911647,47.3929341 26.9183244,48.5193627 C27.045484,49.6451325 26.9930471,52.5323468 27.3810807,53.6126643 C27.7697697,54.6929817 28.6271143,56.3134579 29.0983916,57.4062913 C29.5696689,58.4997833 29.9911311,59.3587675 30.3018202,59.831077 C30.6118538,60.3040452 31.4882067,61.2552516 31.7497361,61.4699976 C32.0892655,61.7486405 32.8902403,61.5865929 32.9977361,61.43245 C33.1058874,61.2783071 33.3942908,60.9535532 32.4097866,59.6123786 C31.4252824,58.2705452 30.1137025,57.1348944 29.8783916,56.1626087 C29.6437361,55.190323 29.2321059,52.5738468 29.0938034,52.0844103 C28.9555008,51.5956325 28.6998706,48.3217437 28.7759042,47.9074024 C28.8519378,47.4930611 28.8978202,46.9041563 28.8401395,46.7249817 C28.7824588,46.5458071 26.7387277,45.7671881 26.7387277,45.7671881" id="Fill-36" fill="#1E1854"></path>
                    <path d="M50.1676992,37.6588127 C50.3236992,37.9381143 50.6317664,38.4249159 50.7818672,38.9295032 C50.9319681,39.4347492 51.002758,39.8998127 51.0145563,40.3839794 C51.0270101,40.8688048 50.6868252,41.4412413 50.8146403,41.7159317 C50.9431109,41.991281 51.0728924,41.9721778 51.2387244,41.5249 C51.4281529,41.0143841 51.4602706,39.4867889 51.3252454,39.069154 C51.1908756,38.651519 51.0460185,37.9196698 50.7674471,37.7075587 C50.4888756,37.4947889 50.5059176,37.3841222 50.2765059,37.4058603 C50.0470941,37.4275984 50.1676992,37.6588127 50.1676992,37.6588127" id="Fill-38" fill="#8776B5"></path>
                    <path d="M30.1242555,37.1924317 C30.0383899,37.2003365 29.4183227,37.6594714 29.2465916,38.1021381 C29.0735496,38.544146 28.9103395,39.2786302 28.8552807,39.5750587 C28.8002218,39.8695111 28.9018185,40.9373127 28.9726084,41.2390111 C29.0414319,41.5334635 29.1200874,41.8997175 29.2341378,42.130273 C29.3475328,42.3601698 29.6968941,42.8529 29.7401546,42.7106143 C29.7827597,42.5683286 29.7093479,42.0676937 29.5749782,41.8345032 C29.4406084,41.600654 29.3291798,40.3708048 29.2865748,40.0875508 C29.2446252,39.8042968 29.3809613,39.0375349 29.4687933,38.7318841 C29.5572807,38.4262333 29.5848101,38.3873683 29.7526084,38.114654 C29.9204067,37.8425984 30.1517849,37.8564317 30.2605916,37.5534159 C30.3693983,37.2510587 30.1242555,37.1924317 30.1242555,37.1924317" id="Fill-40" fill="#8776B5"></path>
                    <path d="M38.9268504,26.4880667 C37.1118756,26.5387889 36.0690353,27.090146 34.7718756,28.0143444 C33.4753714,28.9385429 32.2011529,30.7204079 31.5994387,31.6479 C30.8463126,32.8105587 29.3636571,34.8282492 29.028716,35.600281 C28.5967664,36.5989159 27.9485143,37.9051778 27.4169345,39.1864079 C26.8853546,40.4682968 26.9148504,44.2191063 26.9181277,45.3264317 C26.921405,46.4337571 27.6443798,52.3326857 27.8508504,53.2153841 C28.0566655,54.0987413 29.3911866,57.6216302 30.0564807,58.8290825 C30.4504134,59.5444635 31.0324639,60.5009397 31.6505647,61.0009159 C32.0766151,61.3454317 32.6088504,61.4528048 32.7510857,61.1959 C33.0991361,60.5681302 30.8646655,58.5260667 30.1285815,57.2224397 C29.3931529,55.9188127 29.1506319,53.5829556 28.9113882,52.3550825 C28.6728,51.1265508 28.2021782,49.1819794 28.2618252,47.6589952 C28.3214723,46.1353524 28.4918924,45.5648921 28.7625983,44.3291143 C29.0326487,43.0933365 28.8668168,42.4082571 28.8346992,42.0624238 C28.8012706,41.7172492 28.5351529,40.9531222 28.4945143,40.0954556 C28.4538756,39.2377889 28.9467832,37.9295508 29.4691866,37.3696302 C30.1777412,36.6101143 30.4268168,35.5996222 30.9164471,35.1628841 C31.4054218,34.726146 32.4620269,34.9290349 32.6901277,34.5377492 C32.9182286,34.1464635 36.4741109,32.4726302 37.651321,31.9706778 C38.8278756,31.4680667 39.9795227,31.1321143 42.1785983,31.721019 C44.2085647,32.2651302 46.9483966,33.8072175 47.7513378,34.0996937 C48.5549345,34.3915111 50.131321,35.7379556 51.1938252,37.6864794 C52.2569849,39.6363206 51.7411361,41.8358206 51.7411361,41.8358206 C51.7411361,41.8358206 52.323842,43.1368127 52.4424807,44.6024873 C52.5611193,46.0681619 52.0669008,51.6120349 52.0367496,52.3741857 C52.0072538,53.1356778 51.0050521,56.5169397 50.5311529,57.9773444 C50.0572538,59.4384079 48.8938084,60.3257175 48.1963966,61.5819159 C47.4996403,62.838773 49.0458756,61.5443683 49.7773714,60.4600984 C50.5586824,59.3013921 50.7697412,57.8008048 51.275758,56.6855746 C51.7824303,55.5703444 52.3585815,53.1462175 52.8292034,50.5784873 C53.2998252,48.0107571 52.9675059,48.811773 53.1320269,46.0266619 C53.2965479,43.2422095 53.2965479,43.4898921 52.9642286,41.7870746 C52.6135563,39.9880825 52.2111025,39.5137968 51.570716,37.531019 C50.9349176,35.5614159 49.922884,34.1490984 49.6010521,33.4435984 C49.3926151,32.9877571 48.9973714,32.3553762 47.8509681,30.5181778 C46.9608504,29.092027 46.2306655,28.2488524 44.8909008,27.5776063 C43.5517916,26.9063603 40.7418252,26.4366857 38.9268504,26.4880667" id="Fill-42" fill="#8776B5"></path>
                    <path d="M47.1380874,52.6519722 C46.8450958,52.3338056 44.9272134,51.2949881 41.7298689,51.1500675 C38.5325244,51.0051468 37.030205,51.1164722 35.3653311,51.5038056 C33.0390958,52.044623 33.0128773,53.0623611 36.0083395,52.5808294 C39.0877008,52.0848056 37.4628101,52.2053532 41.5135664,52.3094325 C45.6187261,52.4148294 45.6338017,53.3601071 46.6713983,53.2197976 C47.7096504,53.0794881 47.3203059,52.85025 47.1380874,52.6519722" id="Fill-44" fill="#CE7046"></path>
                </g>
            </g>
            <g id="communityLoneFishPlant" transform="translate(0.296875, 21.000000)">
                <g>
                    <path d="M73.5167613,42.6069462 C73.5167613,40.4744225 68.3831866,29.4462283 67.7671576,27.7296129 C67.1511286,26.0129975 69.4099015,25.2500573 68.7938726,21.2446214 C68.1778436,17.2391855 67.9725006,14.3781599 63.6602978,13.4244847 C59.348095,12.4708095 55.2162518,11.9396124 52.5717763,16.2855103 C49.9023175,20.6724163 51.5450614,24.1056471 52.3664333,26.0129975 C53.1878053,27.9203479 55.0358922,28.8740231 55.6519212,30.2091684 C56.2679502,31.5443137 58.732066,41.653271 59.553438,45.0865018 C60.37481,48.5197325 62.8389258,58.2472197 65.3030417,63.5878009 C67.7671576,68.9283821 74.7488193,79.6095445 76.8022492,83.6149804 C78.8556791,87.6204163 84.8106258,94.8683479 88.7121426,97.5386385 C92.6136594,100.208929 100.21135,104.78657 103.496838,105.54951 C106.782326,106.31245 115.406731,109.745681 118.692219,109.745681 C121.977707,109.745681 130.602113,111.271562 132.039514,109.364211 C133.476914,107.456861 138.199803,103.26069 136.557059,99.4459889 C134.914315,95.6312881 135.735687,91.2443821 131.834171,91.2443821 C127.932654,91.2443821 118.897562,91.2443821 115.817417,90.862912 C112.737272,90.4814419 99.5953211,85.7130659 96.1044903,82.6613052 C92.6136594,79.6095445 86.6335012,69.6443803 84.8106258,66.2580915 C81.525138,60.1545701 73.5167613,43.7513565 73.5167613,42.6069462" id="Fill-1" fill="#526A32"></path>
                    <path d="M73.5167613,42.6069462 C73.5167613,40.4744225 68.3831866,29.4462283 67.7671576,27.7296129 C67.1511286,26.0129975 69.4099015,25.2500573 68.7938726,21.2446214 C68.1778436,17.2391855 67.9725006,14.3781599 63.6602978,13.4244847 C59.348095,12.4708095 55.2162518,11.9396124 52.5717763,16.2855103 C49.9023175,20.6724163 51.5450614,24.1056471 52.3664333,26.0129975 C53.1878053,27.9203479 55.0358922,28.8740231 55.6519212,30.2091684 C56.2679502,31.5443137 58.732066,41.653271 59.553438,45.0865018 C60.37481,48.5197325 62.8389258,58.2472197 65.3030417,63.5878009 C67.7671576,68.9283821 74.7488193,79.6095445 76.8022492,83.6149804 C78.8556791,87.6204163 84.8106258,94.8683479 88.7121426,97.5386385 C92.6136594,100.208929 100.21135,104.78657 103.496838,105.54951 C106.782326,106.31245 115.406731,109.745681 118.692219,109.745681 C121.977707,109.745681 130.602113,111.271562 132.039514,109.364211 C133.476914,107.456861 138.199803,103.26069 136.557059,99.4459889 C134.914315,95.6312881 135.735687,91.2443821 131.834171,91.2443821 C127.932654,91.2443821 118.897562,91.2443821 115.817417,90.862912 C112.737272,90.4814419 99.5953211,85.7130659 96.1044903,82.6613052 C92.6136594,79.6095445 86.6335012,69.6443803 84.8106258,66.2580915 C81.525138,60.1545701 73.5167613,43.7513565 73.5167613,42.6069462 Z" id="Stroke-3" stroke="#688538"></path>
                    <path d="M65.5706834,24.4840241 C66.5955084,22.7764511 66.5955084,17.1319737 63.7259984,15.8038613 C60.8564883,14.475749 57.2183594,13.8591254 54.9637443,15.9461591 C52.7091292,18.0331928 51.8736691,19.5225759 52.042993,21.6380691 C52.247958,24.1994286 54.7075381,25.9544342 55.3224331,26.5236252 C55.9373281,27.0928162 56.4497406,28.0414679 57.4745657,31.8360746 C58.4993907,35.6306812 62.0862783,49.1015349 62.9061383,52.8961416 C63.7259984,56.6907483 65.9806134,61.623737 67.6203335,65.038883 C69.2600535,68.454029 72.3345286,74.5253997 73.9742487,76.8021637 C75.1988007,78.5023583 79.3033388,84.9605681 80.5331289,86.6681411 C81.7629189,88.3757141 85.9647016,93.4984331 88.3217991,95.3957364 C90.6788967,97.2930398 98.3650845,101.467107 99.7998395,102.036298 C101.234595,102.605489 107.58851,104.882253 110.04809,105.451444 C112.50767,106.020635 120.70627,107.917938 124.190675,107.538478 C127.67508,107.159017 131.979346,102.98495 131.364451,100.138995 C130.749555,97.2930398 131.569416,94.4470848 129.519765,94.0676241 C127.470115,93.6881634 117.631795,93.5932983 116.19704,93.4984331 C114.762285,93.4035679 103.796657,90.1781523 100.20977,88.5654444 C96.6228819,86.9527366 92.8310293,83.4427254 91.1913092,81.5454221 C89.5515892,79.6481187 84.017534,71.4897144 82.1728489,68.8334897 C80.3281639,66.177265 77.0487238,58.777782 75.6139687,55.7420966 C74.1792137,52.7064113 71.3609448,43.7890856 70.1311548,40.1842092 C68.9013648,36.5793329 66.5955084,32.4052656 65.9806134,29.5593105 C65.3657184,26.7133555 65.3480686,24.8549469 65.5706834,24.4840241" id="Fill-5" fill="#475727"></path>
                    <path d="M147.115918,92.5743857 C150.100915,93.1488743 151.413005,94.7156323 154.808909,93.8540058 C158.204813,92.9924857 167.157631,88.6846725 167.466412,84.0897214 C167.775193,79.4947703 168.936324,76.5843473 168.010095,75.7227209 C167.083981,74.8612008 164.912793,72.3520687 167.701314,67.871377 C168.833511,66.0521632 171.805813,64.3619965 175.318025,64.8074379 C179.846698,65.3819265 180.653188,67.6811575 180.670114,67.7756289 C181.184749,70.6480718 182.522456,73.3295504 180.670114,76.2014613 C178.817771,79.0733723 181.596457,84.4363295 181.287676,87.3082404 C180.979009,90.1801514 177.962905,97.5875432 174.875668,100.746486 C171.78843,103.905641 166.848964,108.500592 162.218165,109.936494 C157.587366,111.372397 153.265347,111.372397 149.869329,111.085259 C146.473539,110.798014 141.557518,105.691343 140.013956,103.106676 C138.470394,100.52201 136.90316,99.8849656 138.446721,96.1515345 C139.990397,92.4181035 144.131035,91.9998971 147.115918,92.5743857" id="Fill-7" fill="#688538"></path>
                    <path d="M178.401693,68.8022908 C179.461139,70.1292276 179.884917,73.803822 179.778973,74.6203985 C179.673028,75.4369751 178.931416,77.0701281 178.401693,77.7846326 C177.871971,78.499137 174.58769,79.4177856 173.21041,79.3157136 C171.833131,79.2136415 170.032074,77.5804884 169.290462,77.0701281 C168.54885,76.5597678 167.489405,74.8245427 168.125072,72.3748131 C168.735901,70.0210312 168.760739,68.9043628 170.87963,68.2919304 C172.998521,67.679498 174.799579,67.1691377 176.282802,67.679498 C177.766026,68.1898584 178.401693,68.8022908 178.401693,68.8022908" id="Fill-9" fill="#475727"></path>
                    <path d="M142.313458,95.1705688 C138.661685,93.476393 139.574685,93.476393 138.357427,90.088146 C137.140169,86.6997944 138.053169,80.487921 140.183313,77.0996739 C142.313458,73.7113223 144.443603,72.8642867 145.356603,70.6053856 C146.269603,68.3464845 148.399635,67.7817593 148.399635,64.9582375 C148.399635,62.1346111 148.399635,59.0286744 151.138521,57.6169136 C153.877295,56.2051527 157.224697,54.2285619 159.963471,57.0521883 C162.702245,59.87571 163.615244,61.0051606 163.310874,64.1112019 C163.006503,67.217034 161.789358,67.217034 159.963471,69.4759351 C158.137584,71.7348362 156.920326,73.146597 156.920326,76.817259 C156.920326,80.487921 157.833326,89.8057311 155.398811,92.3469425 C152.964295,94.8882585 151.442779,95.7352941 148.095376,95.7352941 C144.747974,95.7352941 142.313458,95.1705688 142.313458,95.1705688" id="Fill-11" fill="#526A32"></path>
                    <path d="M152.228441,59.8857399 C152.72566,58.8565065 155.878967,56.236067 158.757534,58.084004 C161.502062,59.845944 163.237678,61.1142678 162.100471,64.4218429 C161.149793,67.1873958 159.981344,67.5876649 155.846462,67.4459116 C150.879436,67.2755978 150.96891,62.4933691 152.228441,59.8857399" id="Fill-13" fill="#475727"></path>
                    <path d="M132.837294,77.9047055 C132.837294,77.9047055 126.438763,71.8141694 123.684076,68.5895809 C120.929276,65.3649925 117.311743,62.7840287 116.997249,59.3634808 C116.682868,55.9430388 117.888334,54.1602205 120.952639,49.7482171 C124.413548,44.7652921 127.929463,41.0079354 127.893057,34.9729335 C127.855177,28.6879217 126.374685,28.4884648 122.595198,27.4994469 C118.398693,26.4011622 113.844709,31.7633944 113.749443,34.0682768 C113.654062,36.3731591 115.005264,37.7002575 113.38482,40.1276543 C111.764262,42.5549451 107.765435,49.1931927 106.197388,52.1906632 C104.629341,55.1880276 104.038233,62.1269444 107.534186,66.7278066 C111.030027,71.3285629 115.808001,79.8463897 117.821761,81.6948104 C119.835294,83.5431251 123.662528,88.4043835 125.318697,89.7072122 C126.974866,91.0099349 131.438232,96.1072138 133.652166,96.7910054 C135.865874,97.4745851 140.42462,100.267194 142.245352,96.6751678 C144.066083,93.083248 146.506162,92.8872885 144.125625,87.0483522 C141.744974,81.2095218 139.09508,79.1250807 136.602377,78.7509665 C134.109788,78.3768524 132.837294,77.9047055 132.837294,77.9047055" id="Fill-15" fill="#688538"></path>
                    <path d="M115.193525,34.1849132 C115.940983,32.4906031 116.607429,30.3971621 118.27448,29.7565182 C119.962745,29.1077801 121.252109,28.9647099 122.722403,29.5244119 C124.306903,30.1274288 125.733338,30.3191735 125.911189,32.379144 C126.08904,34.4390051 125.617372,38.7419402 124.451008,39.6187375 C122.807151,40.8545229 121.5955,41.048674 120.104102,41.028001 C118.612814,41.007328 117.539663,40.6543558 117.057882,40.2508497 C116.576322,39.8474529 116.056399,39.0024855 116.056399,39.0024855 C116.056399,39.0024855 114.446177,35.8793327 115.193525,34.1849132" id="Fill-17" fill="#475727"></path>
                    <path d="M137.246546,40.0092881 C137.246546,40.0092881 140.168529,29.4662776 140.629973,25.7619252 C140.958941,23.120316 141.013617,18.611546 140.60366,11.773521 C140.193475,4.93549593 138.963262,1.89637369 144.704369,0.376812571 C150.825361,-1.24341947 157.416454,2.65615425 157.826639,6.45505704 C158.236596,10.2539598 156.596312,13.2930821 155.366099,14.8126432 C154.135887,16.3322043 154.135887,23.1702293 153.72593,27.3490224 C153.315745,31.5278155 154.135887,41.784853 152.085532,48.2429878 C150.035177,54.7011225 143.063972,77.114649 141.013617,83.1928935 C138.963262,89.271138 139.501708,104.834926 135.400999,109.393715 C131.30029,113.952293 123.763756,113.99999 120.483188,110.960868 C113.073548,104.096462 116.228588,99.3250398 119.099085,94.0065758 C121.969581,88.6881119 125.840993,72.935856 127.481276,68.7570629 C129.121674,64.5782698 137.246546,40.0092881 137.246546,40.0092881" id="Fill-19" fill="#688538"></path>
                    <path d="M147.515181,2.73529412 C149.513837,2.87915509 152.127395,2.87915509 153.664762,4.89342176 C155.202243,6.90768844 155.686762,8.56017142 154.45696,11.2455761 C153.227157,13.9309809 151.997355,15.0818686 151.587421,17.3836441 C151.177487,19.6854196 150.357618,29.65978 150.357618,32.728814 C150.357618,35.797848 148.717996,47.3067254 147.898014,50.3757594 C147.078145,53.4447933 137.969409,76.8367998 137.64966,79.9152114 C137.404952,82.2718672 137.012213,87.1695339 134.780121,98.3294153 C134.478478,99.8377176 137.64966,107.920146 130.68078,109.071034 C123.7119,110.221922 120.022606,108.303776 119.612558,105.618371 C119.202624,102.932966 121.252295,96.7948983 122.072277,92.9586058 C122.892031,89.1223133 135.190055,57.6647151 136.009924,52.6775348 C136.829792,47.6903546 142.620112,28.7965076 142.441676,29.4960982 C142.263355,30.1956888 145.362685,18.5133257 144.132882,15.8279209 C142.90308,13.1425162 142.92278,9.59852791 142.978804,7.02565443 C143.056691,3.45459896 147.515181,2.73529412 147.515181,2.73529412" id="Fill-21" fill="#526A32"></path>
                    <path d="M22.0945741,46.9804 C20.5514015,42.317165 14.2008277,31.3808522 11.0082292,29.1335497 C7.81574421,26.886141 -1.31036061,23.0688169 0.158797757,16.1235553 C1.6278426,9.17839983 8.70834135,7.36976892 13.5262999,10.8190379 C18.1179022,14.1061545 17.2230347,16.7702534 19.842364,21.6680624 C22.4615799,26.5659777 31.5249089,35.4037604 33.032096,39.1610871 C34.5391696,42.9185199 37.6621811,55.6000682 40.784171,63.3831702 C43.906161,71.1663784 47.1351989,76.7687592 51.2605802,80.5256611 C55.3859615,84.282563 62.1301044,90.4882101 69.8419939,94.2109188 C77.5539969,97.9336275 86.8436821,99.8778632 86.7014432,106.051122 C86.5593179,112.224488 76.9121625,115.916826 72.4282893,112.898052 C67.9444162,109.879384 45.1659909,93.074684 42.1527519,90.4582645 C39.1393993,87.841845 31.6778185,80.6633898 29.5963405,74.6582297 C27.5148625,68.6530696 23.530585,53.8244624 23.1355401,51.2076181 C22.7404952,48.5906677 22.0945741,46.9804 22.0945741,46.9804" id="Fill-23" fill="#688538"></path>
                    <path d="M20.8794941,39.6181311 C19.8377119,37.9803754 18.145783,34.4758657 17.2586297,33.3628935 C16.3714764,32.2498156 12.8228632,27.7979269 11.6241765,26.9965912 C10.4254898,26.1953611 5.86183295,24.2590727 3.88044424,21.3654719 C1.74636093,18.2491075 1.07505087,17.6703239 2.82421181,14.4196462 C4.12541552,12.0013729 8.2166521,9.89927994 10.6141393,11.5017401 C13.0115127,13.1043059 14.3300111,13.6605806 15.145596,16.2206703 C15.961067,18.7807599 15.1940668,19.0481184 16.369087,20.8734477 C17.5439934,22.698777 19.3424217,25.5259081 20.6850418,26.6833696 C22.0276619,27.8407254 25.4323417,31.9365941 26.9670248,34.6523434 C28.5017079,37.3680927 30.9714462,40.7740074 31.4751563,42.0205532 C31.9787526,43.2672046 33.7537419,48.7436153 34.8574212,53.641348 C35.9611005,58.5389751 38.5991214,64.5272769 39.9662045,67.9109998 C41.3331739,71.2947227 42.5563236,74.3223198 45.4815287,77.7725124 C48.4066201,81.2228107 55.1438423,87.6109878 58.8838358,90.3709094 C62.6238294,93.1309367 69.648122,96.981216 71.4220873,97.58198 C73.1960526,98.1827441 79.596482,99.4060412 81.0351336,101.342647 C82.4737852,103.279252 84.5599665,106.81874 81.3962756,108.733999 C78.232471,110.649153 72.7911047,110.71689 71.4484846,109.559429 C70.1059782,108.401968 64.7596194,104.373414 61.4271907,102.080894 C58.0947621,99.7883744 49.9912532,93.2668351 46.9944795,91.2636543 C43.9977059,89.2605791 34.3836356,80.6242658 32.8727328,76.8843116 C31.3617163,73.1443573 27.8362007,64.417903 26.396525,57.605651 C24.9568494,50.7933989 22.6779224,42.4451565 20.8794941,39.6181311" id="Fill-25" fill="#475727"></path>
                    <path d="M102.615983,112.927257 C101.806164,113.388887 96.9216987,114.453872 91.5745449,113.719508 C86.2275053,112.985039 76.9472721,111.398015 74.1325844,108.876279 C71.3178967,106.354648 67.4364932,101.69023 65.9715414,98.3991449 C64.5065897,95.1081654 62.8620838,87.1057009 62.6438583,83.4477496 C62.4257468,79.7897983 60.9131116,75.8187705 63.8503159,72.7328666 C66.8582468,69.5727908 70.1519356,68.5090664 72.5682732,69.8824003 C74.9846109,71.2558392 77.2981669,73.0316549 77.2850483,75.7898792 C77.2719297,78.5481035 74.6111292,79.0332669 75.1379278,81.4837728 C75.6646122,83.9341737 76.9363209,92.4930317 78.7741839,95.2277228 C80.6119329,97.9624138 81.0358358,100.815402 85.6759524,101.608914 C90.316069,102.402426 99.840651,102.130953 101.627408,101.456263 C103.414166,100.781783 108.401527,99.3142106 109.90515,101.551761 C111.408887,103.789207 113.658105,104.913971 111.087082,107.754877 C108.516058,110.595678 102.615983,112.927257 102.615983,112.927257" id="Fill-27" fill="#688538"></path>
                    <path d="M70.7916503,82.0128376 C72.0314117,81.6090888 74.1382165,81.0034128 75.0139461,78.9880465 C75.8897884,76.9725746 76.2084714,75.5589787 74.700001,73.6394566 C72.8753294,71.3175578 71.2966923,70.750515 69.2757346,71.3263189 C67.331712,71.8800617 64.9317189,73.726223 64.3223293,75.4598623 C63.7887468,76.9779579 63.4967994,78.0249604 64.9582288,79.6927333 C66.4195454,81.3604006 67.3542736,81.6220721 68.3866937,81.8972546 C69.4190009,82.1723316 70.7916503,82.0128376 70.7916503,82.0128376" id="Fill-29" fill="#475727"></path>
                    <path d="M61.9497724,109.842177 C61.5852724,106.306944 60.2429005,105.16036 59.3237462,103.454107 C58.4045918,101.747855 58.5219138,96.2063106 58.0556745,89.2451601 C57.5893222,82.2840097 50.9216138,70.8316819 51.7687263,64.4166801 C52.615726,58.0015726 49.6114236,47.4806865 51.3334266,39.5203935 C52.9102167,32.2318285 51.6850539,25.5436995 44.9287047,25.5294411 C40.1102581,25.5193019 35.9830969,28.1356611 35.6471652,30.4969538 C35.3113464,32.8581409 36.6096802,37.0758742 38.2291534,39.9560661 C39.8486266,42.8361525 39.5419407,45.7979869 39.4539774,49.2922396 C39.3660141,52.7863867 36.4902127,63.8010351 37.803,69.6430615 C39.1156744,75.4850878 43.0691674,86.6914322 43.2730977,90.8953295 C43.4769151,95.0993325 40.1930272,100.354019 40.4407698,104.134813 C40.6883995,107.915712 42.4824443,117.047198 45.0651099,118.562494 C47.6478886,120.07779 50.1429297,122.439294 54.1707229,120.583381 C58.198516,118.727469 61.817771,116.407472 61.9930201,114.71495 C62.1683821,113.022428 61.9497724,109.842177 61.9497724,109.842177" id="Fill-31" fill="#688538"></path>
                    <path d="M59.3097848,107.085203 C58.026669,103.537987 57.5514703,101.922591 56.9190791,99.6186606 C56.4562159,97.9324263 56.0147417,93.4824577 55.5929589,87.1366223 C55.1712894,80.7907869 49.7828369,70.5850475 50.5489944,64.7371025 C51.3151519,58.8890508 48.2807382,48.1777398 49.8384031,40.9211501 C51.2645651,34.2769219 51.2338962,27.3660924 45.1227433,27.3529703 C40.7643596,27.3437956 38.6685737,29.5018896 38.3647136,31.6543293 C38.0609666,33.8069825 39.9267921,37.6537644 41.391545,40.2792374 C42.8564109,42.9048171 41.6200342,46.6981508 41.5405892,49.8834971 C41.461031,53.0688434 38.8598301,63.109864 40.0472045,68.4354881 C41.2345789,73.7610056 45.5353593,85.1854937 45.7198256,89.0178734 C45.9041787,92.8502532 42.598045,101.744643 42.8221206,105.191256 C43.0461962,108.637976 43.9294841,113.708948 45.651358,115.739662 C48.0928768,118.619041 50.8461775,120.518108 54.7450931,118.770425 C58.3434304,117.157482 60.0611171,114.470986 60.2197807,112.928134 C60.378218,111.385175 59.3097848,107.085203 59.3097848,107.085203" id="Fill-33" fill="#475727"></path>
                    <g id="Group-37" transform="translate(166.104803, 47.411765)">
                        <mask id="mask-6" fill="white">
                            <use xlink:href="#path-5"></use>
                        </mask>
                        <g id="Clip-36"></g>
                        <path d="M12.3069504,50.536708 C12.3069504,50.536708 18.6887787,44.4548792 21.4363234,41.2349007 C24.1839812,38.0149223 27.7921343,35.4376484 28.105813,32.0220964 C28.4194917,28.6064386 27.2170379,26.8261691 24.1606787,22.4204732 C20.7087427,17.444672 17.2019441,13.692687 17.2382552,7.66631303 C17.2760369,1.3902865 18.7526909,1.19111476 22.5223778,0.203510767 C26.7080029,-0.893203782 31.2501788,4.46136239 31.3453117,6.76294958 C31.4403316,9.06453676 30.0926332,10.3898437 31.708989,12.8136644 C33.3252316,15.237485 37.3135774,21.8663482 38.8776723,24.8594275 C40.441654,27.8525068 41.0312296,34.7815034 37.5443399,39.3757881 C34.0574502,43.9699669 29.2919777,52.4757222 27.2835518,54.3213944 C25.275126,56.1670667 21.457816,61.0214811 19.806054,62.3223414 C18.1540657,63.6232017 13.7022719,68.7132991 11.4940781,69.3960074 C9.28611051,70.0786098 4.73918368,72.8672258 2.92317306,69.2804412 C1.10716243,65.6935507 -1.32659045,65.4978713 1.04777501,59.6672826 C3.42225359,53.8367996 6.06527641,51.7553385 8.55151645,51.3817592 C11.0376434,51.0081799 12.3069504,50.536708 12.3069504,50.536708" id="Fill-35" fill="#688538" mask="url(#mask-6)"></path>
                    </g>
                    <path d="M195.112112,55.1555015 C194.364766,53.4611914 193.698322,51.3677503 192.031277,50.7271064 C190.343017,50.0783683 189.053657,49.9352981 187.583368,50.4950002 C185.998873,51.0980171 184.572333,51.2898711 184.394482,53.3497322 C184.216632,55.4095933 184.688408,59.7126378 185.854658,60.5893257 C187.49851,61.8251111 188.710267,62.0192622 190.20155,61.9985892 C191.692944,61.9779162 192.765982,61.6249441 193.24776,61.2215473 C193.729429,60.8180412 194.249241,59.9730737 194.249241,59.9730737 C194.249241,59.9730737 195.859567,56.849921 195.112112,55.1555015" id="Fill-38" fill="#475727"></path>
                    <g id="Group-42" transform="translate(103.131004, 82.058824)">
                        <mask id="mask-8" fill="white">
                            <use xlink:href="#path-7"></use>
                        </mask>
                        <g id="Clip-41"></g>
                        <path d="M21.7858659,39.5536285 C25.5463047,37.8614786 24.6062531,37.8614786 25.8597327,34.4772835 C27.1132123,31.0929839 26.1730445,24.888539 23.9793972,21.5042394 C21.7858659,18.1200442 19.5923346,17.2740215 18.6522829,15.0178218 C17.7121151,12.761622 15.5185838,12.1975721 15.5185838,9.37742687 C15.5185838,6.55717718 15.5185838,3.45495475 12.6983127,2.04488214 C9.87804163,0.634705055 6.43103071,-1.33941749 3.61075961,1.4808322 C0.790488501,4.30097742 -0.149679258,5.4290773 0.16374869,8.53129972 C0.477060553,11.6335222 1.73054017,11.6335222 3.61075961,13.8897219 C5.49086295,16.1459217 6.74434258,17.5559943 6.74434258,21.2222666 C6.74434258,24.888539 5.8042909,34.1952063 8.31113406,36.7333788 C10.8180933,39.2715513 12.3850009,40.1176784 15.8320118,40.1176784 C19.2789066,40.1176784 21.7858659,39.5536285 21.7858659,39.5536285" id="Fill-40" fill="#688538" mask="url(#mask-8)"></path>
                    </g>
                    <path d="M114.2693,86.3269164 C113.772197,85.297683 110.618784,82.6772435 107.74034,84.5251804 C104.995706,86.2871205 103.260209,87.5554443 104.397298,90.8630194 C105.348088,93.6285722 106.516419,94.0288413 110.651289,93.8870881 C115.618416,93.7167742 115.528942,88.9345456 114.2693,86.3269164" id="Fill-43" fill="#526A32"></path>
                </g>
            </g>
        </g>
    </g>
</svg>