<!--<?xml version="1.0" encoding="utf-8"?>
<svg version="1.1" id="logos" xmlns="http://www.w3.org/2000/svg" xmlns:xlink="http://www.w3.org/1999/xlink" x="0px" y="0px" viewBox="0 0 143.8 46.9" style="enable-background:new 0 0 143.8 46.9;" xml:space="preserve">-->

<svg version="1.1" xmlns="http://www.w3.org/2000/svg" id="logos" viewBox="0 0 143.8 46.9">

<style type="text/css">
	.footerLogo{fill:#FFFFFF;}
</style>
<title>Queensland Government Logo</title>
<desc>The Queensland Government coat of arms and 'Queensland Government' in sanserif font</desc>
<path id="QLDgov" class="footerLogo" d="M50.1,17.8c-0.1,0.6-0.6,1.2-1.3,1.6c0.2,0,0.6-0.1,0.8-0.1c-0.1,0.4-0.6,1.3-1.9,1.7
	c0.3,0.3,0.5,0.4,0.6,0.6c-0.5,0.1-1.1,0.2-1.5,0.3c0.1,0.3,0.2,0.6,0.4,0.9c-0.3,0-0.8,0-1.1,0c0.1,0.2,0.2,0.5,0.3,0.7
	c-0.3,0-0.6,0-1,0c0,0.2,0.1,0.5,0.1,0.7c-0.2,0-0.4,0.1-0.7,0.1c0,0.7-0.5,1.1-1,1.1c-0.5,0.5-1.4,1.3-2.4,1.6
	c0.7,0.9,1.3,2,1.5,3.1c0.7,0.9,1.1,1.5,1.4,3c-0.1,0.2-0.3,0.3-0.5,0.4c-0.6,0.4-1.4,0.6-2.3,0.6c-0.1-0.2-0.2-0.4-0.2-0.6
	c0-0.2-0.1-0.5-0.2-0.8c-0.2-0.6-0.7-0.2-1-1.5c-0.4,0.1-1-0.1-1.2-0.3c0,1,0.2,1.9,0.4,2.6c0.1,0.3,0.2,0.6,0.2,0.8
	c0.2,0.7,0.2,1,0.1,1.4c-0.1,0.4-0.2,2.6-0.3,4.3c1.4,0.2,1,1.2,1,1.6c-0.3-0.2-3-0.6-3.8,1.4c-0.7-0.2-0.9-0.7-0.8-1.4
	c-0.3-0.2-0.8-0.3-1.2,0.1c-0.2-1,0.5-2.3,3.2-1.5c0.2-1.9,0.3-5.2,0.2-6.1c0-0.1-0.1-0.3-0.2-0.6c-0.2-0.6-0.7-1.5-1-2
	c-0.5,0.9-0.8,1.5-1,2v0c-0.3,0.6-0.4,1-0.6,1.6c-0.1,0.4-1.3,0.4-1.5,0c-0.1-0.3-0.4-0.9-0.6-1.6c-0.4-1.1-0.8-2.4-0.9-2.6
	c-0.5,0.5-1.5,0.2-1.6-0.8c0.8,0,1.1-0.9,1.1-2c0-0.9-0.2-1.8-0.9-1.8c0.5-0.7,1.2-0.8,1.6-0.5c0.4,0.4,1.1,1.3,0.7,3.4
	c0.4,1.1,1,3,1.3,3.9c0.4-0.8,0.8-2.9,0.5-4.2c-0.7-0.7-1.6-2.6-1.6-3.7c-0.6-0.2-1.4-3.4,1.1-4.7c1.5-0.8,2-1,3.1-1.7
	c0.8-0.6,0-1-0.4-1.2c-1.3,0.2-2.6,0.4-3,0.5c-0.2,0-0.8,0-1-0.1c0.3-0.3,0.9-0.5,1.4-0.6c0.4-0.1,1.5-0.4,1.9-0.6
	c0.2-0.5,1.2-1.6,2.5-1.5c0.9,0,1.7,0.5,1.8,1.8c0,1.2-0.5,1.9-1.9,2.7c-1.3,0.8-2.9,1.9-2.6,3.1c0.9-0.1,1.5,0.3,1.9,0.5
	c2.5-1.4,2.7-3.7,2.9-5.3c1.7-2.6,2.2-6.5,2.2-8.6c0.6,0.7,1.1,1.4,1.4,2.4c0.3-0.7,0.3-1.8,0.3-1.8c0.5,0.6,0.8,1.2,0.9,2.2
	c0.4-0.4,0.5-1.4,0.5-1.4c0.5,0.5,0.6,1.5,0.5,2.3c0.7-0.8,1.2-1.6,1.7-2.5c0.5,0.5,0.5,1.3,0.3,2.5c0.4-0.2,0.7-0.6,1-0.8
	c0.3,0.5,0.3,1.4-0.4,2.5c0.3-0.1,0.7-0.3,0.9-0.4c0.2,1-0.2,1.8-1,2.4c0.4-0.1,0.8-0.2,1-0.3c0,0.5-0.3,1.1-0.8,1.6
	C49.6,18,50,17.8,50.1,17.8 M32,20.7h-8h-8h-0.3V21v5.7c0.1,0,0.1,0.1,0.2,0.2v-6h16.3v5.5c0.1,0.1,0.1,0.1,0.2,0.2V21v-0.3H32z
	 M23.9,41.6c-7.2-2.7-8.1-8.6-8.2-11.3c0,0,0,0,0,0c0-0.1,0-0.1,0-0.2c0-0.6,0-1,0.1-1.1c0-0.4-0.1-0.7-0.1-0.9c0,0,0-0.1-0.1-0.1
	v2.8c0,3.1,1.1,5.8,3.4,8c2,1.9,4.2,2.8,4.8,3l0.1,0l0.1,0c0.6-0.2,2.9-1.1,4.8-3c2.3-2.2,3.4-4.9,3.4-8v-0.5
	c-0.1,0.1-0.1,0.1-0.2,0.2c-0.1,1.4-0.3,3.6-1.3,5.2C29.7,37.9,28,39.8,23.9,41.6 M10.9,4.3L10.9,4.3c0,0.5,0.7,0.7,1.1,0.8
	c-0.6,0.4-0.5,1.1-1.5,1.6c1.4,0.4,2.4-1.2,3.7-1.6C12.3,3.9,12,4.8,10.9,4.3 M14.6,14.6L14.6,14.6c0.5,0.2,1.2,0.4,2.2,0.2
	c-0.3-1,0.5-2.4,1.8-2.2c0.1-0.4-0.2-0.9-0.7-1c0.3-0.3,0.4-0.7,0.3-1.7c-0.3,0.7-1.8,1.2-1.6,2.5l-0.4,0.4c-0.7-2.3-0.3-4.9-0.6-6
	c-0.3-1-0.8-1.4-1.6-1c0.5,0.8,0.9,2.1,0.8,3c-0.6-0.2-1.3-0.2-1.5,0.3c1.4,0.1,1.7,3.8,2.4,4.3c-0.1,0.1,0-0.1-0.3,0.3
	c-0.8-0.3-1.2-0.5-1.9-1.1c-1-0.8-2.3-0.3-2.8,0c0.2,0.4,1,0.8,2.3,0.8c-0.3,0.2-0.7,1-0.4,1.5C13.1,14.2,14,14.3,14.6,14.6
	 M21,15.3L21,15.3c0.3,0,0,0.5,0,0.5c-0.6,0-2,1.1-1.1,2.9c-0.2,0.3-0.8,0.5-1.4,0.2c-0.3,0.5-2.1,1.3-3.3,0.7c1-0.4,1.1-1.6,2-2.6
	c0.7-0.7,1.2-0.7,1.4-1.1c-1.2,0.4-2,0.3-3.5-0.6c-1.3-0.7-2.4-0.4-2.4,0.5c-0.8-0.2-1.2-0.9-0.8-1.9c-0.8-0.1-2-0.7-2.1-1.7
	c0.6,0,1.1-0.7,2.5-0.6c1.2,0.1,1.9,1.1,2.4,1.1c-0.5-0.5-0.6-3.9-2.4-3.2c0-0.4,0.2-1.4,1.6-1.4c0-0.5-0.2-1.5-0.5-2
	c-0.1,0.1-0.1,0.1-0.2,0.2c-0.8,0.8-2.5,1.6-4,0.2C9.9,6.5,10.9,6,11,5.4C10.2,4.9,9.9,4,10.8,2.9c0,0.8,0.1,1.1,1.9,1
	c0.4,0,3.2,0.8,3.3,3c0.1,1.2,0.1,3.6,0.2,4.5c0.2-1.1,1.8-1.4,1.9-2.8c0.4,0.5,0.9,1.4,0.4,2.7c0.5,0.1,1,1.3,0.3,2.1
	c-0.1-0.5-1.8-0.5-1.6,1.2c0.6-0.2,1.7-0.6,2.6-1.1l0.3,0.3c-0.8,0.5-2.4,1.3-3.8,1.5c0.6,0.6,2.7,0.1,3.1-0.1
	c-0.3,1-0.7,1.4-1.6,1.9c-0.9,0.6-1.2,1.7-1.6,2.1c0.8,0.1,1.9-0.5,2-1.1c0.2,0.3,0.7,0.3,0.8,0.3C18.8,16.9,19.9,15.4,21,15.3
	 M33.8,5.3L33.8,5.3c1.8-0.1,2.1,1.9,4.1,1.3c-0.6-0.2-1.1-1.3-2.3-1.4c0.9-0.1,1-0.4,1.6-1.1c-0.6,0.3-1.5,0.3-2,0.3
	C34.8,4.7,34.4,4.9,33.8,5.3 M36.3,11.4L36.3,11.4c0.4-0.1,1.9-0.5,2.3-1.5c-0.5,0.2-0.8,0.2-1.7,0.2c-1.3-0.1-2.4,0.9-2.7,1.7h-0.3
	c0-3-0.1-5.1-0.1-5.9c-1-0.1-1,0.6-1,0.9c0,2.2,0,2.2,0.2,5.3l-0.6,0.4c-0.2-1.8-1.6-2.9-2.5-3.3c0.1,0.6,0.2,1.4,0.7,2
	c-0.2,0.1-0.6,0.5-0.7,1.2c0.5-0.2,2.4-0.2,2.3,2.1c0.2-0.2,0.3-0.3,0.5-0.5c1.7-1.9,3.4-2.2,3.9-1.3C36.7,12.6,36.9,11.9,36.3,11.4
	 M34.4,10.3L34.4,10.3c1.4-1.6,3.4-0.3,4.9-1.1c-0.1,1.3-1,2.2-2.2,2.5c0.3,0.7-0.1,1.7-0.8,1.9c0.1-0.9-1.4-1.1-2.5,0.1
	C32.6,15,31.4,16,30,16.1c0.3,0.5,1.6,1.1,2.3,0.8c-0.2,0.5-0.8,1.2-1.6,1.4c0.1,0.9,0.1,1.2-0.7,2.1c-2.2-1-1-3.9-3.2-5.4
	c-0.1-0.3-0.1-0.1,0-0.6c0.8,0.3,1.8,1.8,2.1,3.2c0.2,1.4,0.5,1.8,1.1,2.2c0.4-0.6,0.3-1.4,0.1-2c0.3,0,0.8-0.1,1.2-0.4
	c-1.1-0.3-2.3-1.1-2.4-2.1c1,0.4,1.9,0.2,2.6-0.2c0.1-0.3,0.1-0.5,0.1-0.7c-1.3,0.8-3.1,0.4-3.8-0.5l0.4-0.4c1,1,2.5,0.9,3.4,0.3
	c-0.3-0.8-1.4-0.9-2-0.5c-0.2-0.3-0.4-1.5,0.4-2.1C29.6,10.6,29,9,29.5,8c0.7,1.2,2.1,0.9,2.8,2.9c0.1-1.4-0.8-5.1,0.5-5.8
	c0.5-0.3,1.2-0.7,1.8-1C35,3.9,37.2,3.8,38.2,3c0,0-0.1,1.5-1.2,2.1c0.7,0,0.8,1.4,2.5,1.2c-3,2-3.4,0.2-4.8-0.3
	c-0.1,0-0.2-0.1-0.2-0.1C34.4,6.6,34.4,8.2,34.4,10.3 M26.2,17.3c-0.1,0-0.2,0.1-0.3,0.1c-0.1,0-0.2,0-0.4,0l0-0.7
	c0.1,0,0.2-0.2,0.2-0.3c0-0.2-0.1-0.3-0.3-0.3c-0.2,0-0.3,0.1-0.3,0.3c0,0.1,0.1,0.2,0.2,0.3l0,0.6c-0.1,0-0.2,0-0.3,0
	c-0.1-0.1-0.2-0.2-0.3-0.2c-0.2,0-0.3,0.1-0.3,0.3c0,0.2,0.1,0.3,0.3,0.3c0.1,0,0.2-0.1,0.3-0.2c0.1,0,0.3,0,0.4,0l0,1
	c-0.1,0.1-0.2,0.2-0.2,0.3c0,0.2,0.1,0.3,0.3,0.3c0.2,0,0.3-0.1,0.3-0.3c0-0.1-0.1-0.2-0.2-0.3l0-0.9c0.1,0,0.2,0,0.3,0
	c0,0.1,0.2,0.2,0.3,0.2c0.2,0,0.3-0.1,0.3-0.3C26.5,17.4,26.3,17.3,26.2,17.3 M23.3,17.1c-0.1,0-0.2,0.1-0.3,0.2c-0.1,0-0.2,0-0.3,0
	l0-0.6c0.1-0.1,0.2-0.2,0.2-0.3c0-0.2-0.1-0.3-0.3-0.3c-0.2,0-0.3,0.1-0.3,0.3c0,0.1,0.1,0.3,0.2,0.3l0,0.7c-0.1,0-0.2,0-0.4,0
	c-0.1-0.1-0.1-0.1-0.3-0.1c-0.2,0-0.3,0.1-0.3,0.3c0,0.2,0.1,0.3,0.3,0.3c0.1,0,0.3-0.1,0.3-0.2c0.1,0,0.2,0,0.3,0l0,0.9
	c-0.1,0-0.2,0.2-0.2,0.3c0,0.2,0.1,0.3,0.3,0.3c0.2,0,0.3-0.1,0.3-0.3c0-0.1-0.1-0.2-0.2-0.3l0-1c0.1,0,0.2,0,0.4,0
	c0.1,0.1,0.2,0.2,0.3,0.2c0.2,0,0.3-0.1,0.3-0.3C23.6,17.2,23.5,17.1,23.3,17.1 M24,19.9L24,19.9c0.5,0.9,1.4,0.9,2.2,0.4
	c0.3-0.2,0.7-0.3,0.9-0.4c-0.1-0.9-0.4-2.7-0.5-4.1c-1-0.5-2.3-0.6-2.6,0.6c-0.3-1.2-1.6-1.1-2.6-0.6c-0.2,1.5-0.4,3.2-0.5,4.1
	c0.3,0,0.6,0.2,0.9,0.4C22.5,20.8,23.5,20.8,24,19.9 M27.7,19.9L27.7,19.9c0.3,0.1,0.6,0.5,0.6,1.1c0,0-3.1,0-4.3,0
	c-1.2,0-4.3,0-4.3,0c0-0.6,0.2-0.9,0.6-1.1c0.2-1.3,0.7-5,0.7-6.3l0.6,0c0,0.2,0,0.5-0.1,0.8c0.7-0.2,1.6-0.3,2.5-0.3
	c0.9,0,1.8,0.1,2.5,0.3c0-0.3,0-0.6-0.1-0.8l0.6,0C27,14.9,27.5,18.6,27.7,19.9 M40.6,46.4L40.6,46.4c0.1-1.1,0.3-1.7,0.5-2.3H6.8
	c0.2,0.6,0.4,1.3,0.5,2.3H40.6z M18,39.3L18,39.3c-0.5,1.9-3.3,3.7-5.4,4.3H16c0.9-0.5,2-1.2,2.6-2.1c0.3-0.4,0.4-0.6,0.2-1
	C18.6,40,18.3,39.7,18,39.3 M16,38.6L16,38.6c-0.3,0.5,0.1,1.2,0.7,1.7c0.8-0.8,0.9-1.5,0.7-1.8C16.9,38,16.3,38.1,16,38.6
	 M29.3,41.4L29.3,41.4c0.6,0.9,1.7,1.6,2.6,2.1h3.3c-2.1-0.6-4.9-2.4-5.4-4.3c-0.3,0.5-0.6,0.8-0.7,1.1C28.9,40.8,29,41,29.3,41.4
	 M30.5,38.6L30.5,38.6c-0.2,0.3-0.1,0.9,0.7,1.8c0.6-0.5,1-1.2,0.7-1.7C31.6,38.1,30.9,38,30.5,38.6 M41.2,43.4L41.2,43.4
	c0.6-0.1,0.7,0.1,0.4,1.1c-0.2,0.7-0.4,1.7-0.5,2.5H6.7c-0.1-0.7-0.2-1.8-0.5-2.5c-0.3-1-0.2-1.2,0.4-1.1c0.4,0.1,0.8,0.2,1.4,0.2
	h0.8c2.8-0.1,5.6-0.9,7.4-2.7c-2.4-2.4,0.4-4.4,2-2.4c0.5,0.6,0.9,1.1,1.2,1.7c0.3,0.5,0.1,1-0.5,1.8c-0.3,0.4-1.1,1.1-1.8,1.5h13.8
	c-0.7-0.4-1.5-1.1-1.8-1.5c-0.6-0.8-0.8-1.3-0.5-1.8c0.3-0.6,0.7-1.1,1.2-1.7c1.5-2.1,4.4-0.1,2,2.4c1.7,1.8,4.6,2.6,7.4,2.7h0.8
	C40.5,43.5,40.9,43.5,41.2,43.4 M11.3,45.5L11.3,45.5h0.5c0,0,0,0,0,0l-0.2-0.7c0,0,0,0,0,0c0,0,0,0,0,0L11.3,45.5
	C11.3,45.5,11.3,45.5,11.3,45.5 M11.8,45.6L11.8,45.6h-0.6c0,0,0,0,0,0l0,0.1c0,0,0,0.1,0,0.1c0,0,0,0.1,0.1,0.1h0c0,0,0,0,0,0
	c0,0,0,0,0,0h-0.2h-0.2c0,0,0,0,0,0c0,0,0,0,0,0c0,0,0,0,0.1,0c0.1,0,0.1-0.1,0.2-0.2l0.5-1.2c0-0.1,0-0.1,0.1-0.1c0,0,0,0,0.1,0.1
	c0,0.1,0.4,0.9,0.5,1.2c0.1,0.2,0.1,0.2,0.2,0.2c0,0,0.1,0,0.1,0c0,0,0,0,0,0c0,0,0,0-0.1,0h-0.4c0,0-0.1,0-0.1,0c0,0,0,0,0,0
	c0,0,0,0,0,0L11.8,45.6C11.8,45.6,11.8,45.6,11.8,45.6 M12.8,45.3c0,0.3,0.1,0.4,0.2,0.5c0.1,0.1,0.3,0.1,0.4,0.1
	c0.1,0,0.3,0,0.4-0.1c0.2-0.1,0.2-0.4,0.2-0.6v-0.2c0-0.3,0-0.4,0-0.4c0-0.1,0-0.1,0.1-0.1c0,0,0,0,0.1,0c0,0,0,0,0,0c0,0,0,0,0,0
	c-0.1,0-0.2,0-0.2,0c0,0-0.1,0-0.2,0c0,0,0,0,0,0c0,0,0,0,0,0c0,0,0.1,0,0.1,0c0.1,0,0.1,0,0.1,0.1c0,0.1,0,0.1,0,0.4v0.2
	c0,0.2,0,0.4-0.1,0.5c-0.1,0.1-0.2,0.1-0.3,0.1c-0.1,0-0.2,0-0.2-0.1c-0.1-0.1-0.2-0.2-0.2-0.5v-0.3c0-0.3,0-0.4,0-0.4
	c0-0.1,0-0.1,0.1-0.1c0,0,0,0,0.1,0c0,0,0,0,0,0c0,0,0,0,0,0c-0.1,0-0.2,0-0.2,0c-0.1,0-0.2,0-0.3,0c0,0,0,0,0,0c0,0,0,0,0,0
	c0,0,0.1,0,0.1,0c0.1,0,0.1,0,0.1,0.1c0,0.1,0,0.1,0,0.4V45.3z M15.1,45L15.1,45v0.2c0,0.2,0,0.4,0,0.4c0,0,0,0.1,0,0.2
	c0,0,0.1,0.1,0.3,0.1c0.2,0,0.3,0,0.5-0.1c0.1-0.1,0.2-0.3,0.2-0.5c0-0.2-0.1-0.4-0.2-0.5c-0.2-0.2-0.4-0.2-0.6-0.2c0,0-0.1,0-0.1,0
	c0,0,0,0,0,0C15.1,44.7,15.1,44.9,15.1,45 M14.9,45.4L14.9,45.4v-0.3c0-0.3,0-0.4,0-0.4c0-0.1,0-0.1-0.1-0.1c0,0-0.1,0-0.1,0
	c0,0,0,0,0,0c0,0,0,0,0,0c0.1,0,0.2,0,0.3,0c0.1,0,0.2,0,0.3,0c0.2,0,0.6,0,0.8,0.2c0.1,0.1,0.2,0.3,0.2,0.5c0,0.2-0.1,0.4-0.2,0.6
	C16,45.8,15.8,46,15.4,46c-0.1,0-0.3,0-0.4,0h-0.2c0,0,0,0,0,0c0,0,0,0,0,0c0,0,0.1,0,0.1,0c0,0,0,0,0.1-0.1
	C14.9,45.7,14.9,45.6,14.9,45.4 M17,45.5L17,45.5h0.5c0,0,0,0,0,0l-0.2-0.7c0,0,0,0,0,0c0,0,0,0,0,0L17,45.5
	C17,45.5,17,45.5,17,45.5 M17.6,45.6L17.6,45.6H17c0,0,0,0,0,0l0,0.1c0,0,0,0.1,0,0.1c0,0,0,0.1,0.1,0.1h0c0,0,0,0,0,0c0,0,0,0,0,0
	h-0.2h-0.2c0,0,0,0,0,0c0,0,0,0,0,0c0,0,0.1,0,0.1,0c0.1,0,0.1-0.1,0.2-0.2l0.5-1.2c0-0.1,0-0.1,0.1-0.1c0,0,0,0,0,0.1
	c0,0.1,0.4,0.9,0.5,1.2c0.1,0.2,0.1,0.2,0.2,0.2c0,0,0.1,0,0.1,0c0,0,0,0,0,0c0,0,0,0-0.1,0h-0.4c0,0-0.1,0-0.1,0c0,0,0,0,0,0
	c0,0,0,0,0,0L17.6,45.6C17.6,45.6,17.6,45.6,17.6,45.6 M19.5,44.7c0.1-0.1,0.1-0.1,0.1-0.2c0,0,0.1,0,0.1,0c0,0,0,0,0,0c0,0,0,0,0,0
	c-0.1,0-0.2,0-0.2,0c0,0-0.1,0-0.2,0c0,0,0,0,0,0c0,0,0,0,0,0c0,0,0,0,0.1,0c0,0,0,0,0,0c0,0,0,0.1,0,0.1c0,0.1-0.2,0.3-0.3,0.4
	c-0.1-0.1-0.2-0.3-0.2-0.4c0,0,0,0,0-0.1c0,0,0,0,0,0c0,0,0,0,0.1,0c0,0,0,0,0,0c0,0,0,0,0,0c-0.1,0-0.2,0-0.2,0c-0.1,0-0.3,0-0.3,0
	c0,0,0,0,0,0c0,0,0,0,0,0c0,0,0.1,0,0.1,0c0.1,0,0.1,0.1,0.2,0.1l0.3,0.6l-0.4,0.5c-0.1,0.1-0.1,0.1-0.2,0.1c0,0-0.1,0-0.1,0
	c0,0,0,0,0,0c0,0,0,0,0,0h0h0.2h0.2h0c0,0,0,0,0,0c0,0,0,0,0,0c0,0,0,0,0,0c0,0,0,0,0,0c0,0,0,0,0-0.1l0.3-0.5
	c0.1,0.1,0.2,0.3,0.3,0.5c0,0,0,0,0,0c0,0,0,0,0,0c0,0,0,0,0.1,0h0.4h0.1c0,0,0,0,0,0c0,0,0,0,0,0c0,0,0,0-0.1,0
	c-0.1,0-0.1,0-0.1-0.1c0-0.1-0.4-0.6-0.4-0.7L19.5,44.7z M22.2,45.5L22.2,45.5h0.5c0,0,0,0,0,0l-0.3-0.7c0,0,0,0,0,0c0,0,0,0,0,0
	L22.2,45.5C22.2,45.5,22.2,45.5,22.2,45.5 M22.7,45.6L22.7,45.6h-0.6c0,0,0,0,0,0l0,0.1c0,0,0,0.1,0,0.1c0,0,0,0.1,0.1,0.1h0
	c0,0,0,0,0,0c0,0,0,0,0,0h-0.2h-0.2c0,0,0,0,0,0c0,0,0,0,0,0c0,0,0,0,0.1,0c0.1,0,0.1-0.1,0.2-0.2l0.5-1.2c0-0.1,0-0.1,0.1-0.1
	c0,0,0,0,0.1,0.1c0,0.1,0.4,0.9,0.5,1.2c0.1,0.2,0.1,0.2,0.2,0.2c0,0,0.1,0,0.1,0c0,0,0,0,0,0c0,0,0,0-0.1,0h-0.4c0,0-0.1,0-0.1,0
	c0,0,0,0,0,0c0,0,0,0,0,0L22.7,45.6C22.7,45.6,22.7,45.6,22.7,45.6 M23.9,45.4c0,0.2,0,0.3,0,0.4c0,0.1,0,0.1-0.1,0.1c0,0,0,0-0.1,0
	c0,0,0,0,0,0c0,0,0,0,0,0H24h0.3c0,0,0,0,0,0c0,0,0,0,0,0c0,0-0.1,0-0.1,0c-0.1,0-0.1,0-0.1-0.1c0-0.1,0-0.2,0-0.4v-0.8l0.2,0
	c0.2,0,0.2,0.1,0.2,0.1v0c0,0,0,0,0,0c0,0,0,0,0,0c0-0.1,0-0.2,0-0.2c0,0,0,0,0,0c0,0-0.1,0-0.2,0h-0.8c-0.1,0-0.1,0-0.2,0
	c0,0-0.1,0-0.1,0c0,0,0,0,0,0c0,0,0,0.2,0,0.2c0,0,0,0,0,0c0,0,0,0,0,0c0,0,0,0,0-0.1c0,0,0.1-0.1,0.2-0.1l0.3,0V45.4z M27.4,45.2
	C27.4,45.2,27.4,45.2,27.4,45.2c0,0,0.3,0,0.3,0c0.1,0,0.1,0,0.1,0.1c0,0,0,0,0,0.1c0,0,0,0,0,0c0,0,0,0,0,0c0,0,0-0.1,0-0.1
	c0-0.1,0-0.1,0-0.1c0,0,0,0,0,0c0,0,0,0,0,0c0,0,0,0-0.1,0c0,0-0.1,0-0.1,0l-0.3,0c0,0,0,0,0,0v-0.5c0,0,0,0,0,0l0.3,0
	c0.1,0,0.1,0,0.1,0.1c0,0,0,0.1,0,0.1c0,0,0,0,0,0c0,0,0,0,0,0c0,0,0-0.1,0-0.2c0,0,0-0.1,0-0.1c0,0,0,0,0,0c0,0,0,0,0,0
	c0,0,0,0-0.1,0c0,0-0.4,0-0.5,0c-0.1,0-0.2,0-0.3,0c0,0,0,0,0,0c0,0,0,0,0,0c0,0,0.1,0,0.1,0c0.1,0,0.1,0,0.1,0.1c0,0.1,0,0.1,0,0.4
	v0.3c0,0.2,0,0.3,0,0.4c0,0.1,0,0.1-0.1,0.1c0,0,0,0-0.1,0c0,0,0,0,0,0c0,0,0,0,0,0h0.2h0.3c0,0,0,0,0,0c0,0,0,0,0,0
	c0,0-0.1,0-0.1,0c-0.1,0-0.1,0-0.1-0.1c0-0.1,0-0.2,0-0.4V45.2z M28.6,45.4c0,0.2,0,0.3,0,0.4c0,0.1,0,0.1-0.1,0.1c0,0,0,0-0.1,0
	c0,0,0,0,0,0c0,0,0,0,0,0h0.2H29c0,0,0,0,0,0c0,0,0,0,0,0c0,0-0.1,0-0.1,0c-0.1,0-0.1,0-0.1-0.1c0-0.1,0-0.2,0-0.4v-0.3
	c0-0.3,0-0.4,0-0.4c0-0.1,0-0.1,0.1-0.1c0,0,0,0,0.1,0c0,0,0,0,0,0c0,0,0,0,0,0c-0.1,0-0.2,0-0.2,0c-0.1,0-0.2,0-0.3,0c0,0,0,0,0,0
	c0,0,0,0,0,0c0,0,0,0,0.1,0c0,0,0.1,0,0.1,0.1c0,0.1,0,0.1,0,0.4V45.4z M30,45L30,45v0.2c0,0.2,0,0.4,0,0.4c0,0,0,0.1,0,0.2
	c0,0,0.1,0.1,0.3,0.1c0.2,0,0.3,0,0.5-0.1c0.1-0.1,0.2-0.3,0.2-0.5c0-0.2-0.1-0.4-0.2-0.5c-0.2-0.2-0.4-0.2-0.6-0.2c0,0-0.1,0-0.1,0
	c0,0,0,0,0,0V45z M29.8,45.4L29.8,45.4v-0.3c0-0.3,0-0.4,0-0.4c0-0.1,0-0.1-0.1-0.1c0,0-0.1,0-0.1,0c0,0,0,0,0,0c0,0,0,0,0,0
	c0.1,0,0.2,0,0.3,0c0.1,0,0.2,0,0.3,0c0.2,0,0.6,0,0.8,0.2c0.1,0.1,0.2,0.3,0.2,0.5c0,0.2-0.1,0.4-0.2,0.6c-0.1,0.1-0.3,0.2-0.7,0.2
	c-0.1,0-0.3,0-0.4,0h-0.2c0,0,0,0,0,0c0,0,0,0,0,0c0,0,0.1,0,0.1,0c0,0,0.1,0,0.1-0.1C29.8,45.7,29.8,45.6,29.8,45.4 M31.9,45.4
	c0,0.2,0,0.3,0,0.4c0,0.1,0,0.1-0.1,0.1c0,0,0,0-0.1,0c0,0,0,0,0,0c0,0,0,0,0,0H32c0.1,0,0.2,0,0.5,0c0.1,0,0.1,0,0.1-0.1
	c0,0,0-0.2,0-0.2c0,0,0,0,0,0c0,0,0,0,0,0c0,0.1,0,0.1-0.1,0.1c-0.1,0-0.1,0-0.2,0c-0.2,0-0.2,0-0.2-0.2v-0.3v-0.2c0,0,0,0,0,0
	c0,0,0.2,0,0.3,0c0.1,0,0.1,0,0.1,0.1c0,0,0,0.1,0,0.1c0,0,0,0,0,0c0,0,0,0,0,0c0,0,0-0.1,0-0.1c0-0.1,0-0.1,0-0.1c0,0,0,0,0,0
	c0,0,0,0,0,0c0,0,0,0-0.1,0c0,0-0.3,0-0.3,0c0,0,0,0,0,0v-0.5c0,0,0,0,0,0c0,0,0.2,0,0.3,0c0.1,0,0.1,0,0.1,0.1c0,0,0,0.1,0,0.1
	c0,0,0,0,0,0c0,0,0,0,0,0c0,0,0-0.1,0-0.1c0-0.1,0-0.1,0-0.1c0,0,0,0,0,0c0,0,0,0,0,0c0,0,0,0-0.1,0c0,0-0.4,0-0.5,0
	c-0.1,0-0.2,0-0.3,0c0,0,0,0,0,0c0,0,0,0,0,0c0,0,0.1,0,0.1,0c0.1,0,0.1,0,0.1,0.1c0,0.1,0,0.1,0,0.4V45.4z M33.7,45.1
	c0-0.3,0-0.4,0-0.4c0-0.1,0-0.1,0.1-0.1c0,0,0.1,0,0.1,0c0,0,0,0,0,0c0,0,0,0,0,0c-0.1,0-0.2,0-0.3,0c-0.1,0-0.2,0-0.3,0
	c0,0,0,0,0,0c0,0,0,0,0,0c0,0,0.1,0,0.1,0c0.1,0,0.1,0,0.1,0.1c0,0.1,0,0.1,0,0.4v0.3c0,0.2,0,0.3,0,0.4c0,0.1,0,0.1-0.1,0.1
	c0,0,0,0-0.1,0c0,0,0,0,0,0c0,0,0,0,0,0h0.2c0.2,0,0.3,0,0.6,0c0.1,0,0.1,0,0.1-0.1c0-0.1,0-0.2,0-0.2c0,0,0,0,0,0c0,0,0,0,0,0
	c0,0,0,0.1-0.1,0.1c0,0-0.1,0.1-0.2,0.1c-0.2,0-0.2,0-0.2,0c0,0,0-0.2,0-0.4V45.1z M34.9,45.4c0,0.2,0,0.3,0,0.4
	c0,0.1,0,0.1-0.1,0.1c0,0,0,0-0.1,0c0,0,0,0,0,0c0,0,0,0,0,0H35h0.3c0,0,0,0,0,0c0,0,0,0,0,0c0,0-0.1,0-0.1,0c-0.1,0-0.1,0-0.1-0.1
	c0-0.1,0-0.2,0-0.4v-0.3c0-0.3,0-0.4,0-0.4c0-0.1,0-0.1,0.1-0.1c0,0,0,0,0.1,0c0,0,0,0,0,0c0,0,0,0,0,0c-0.1,0-0.2,0-0.2,0
	c-0.1,0-0.2,0-0.3,0c0,0,0,0,0,0c0,0,0,0,0,0c0,0,0.1,0,0.1,0c0,0,0.1,0,0.1,0.1c0,0.1,0,0.1,0,0.4V45.4z M36.3,46
	c0.1,0,0.2,0,0.3-0.1c0.1-0.1,0.2-0.2,0.2-0.3c0-0.2-0.1-0.3-0.3-0.5l-0.1,0c-0.2-0.1-0.2-0.2-0.2-0.3c0-0.1,0.1-0.2,0.2-0.2
	c0.1,0,0.2,0.1,0.2,0.1c0,0,0.1,0.1,0.1,0.1c0,0,0,0,0,0c0,0,0,0,0-0.1c0-0.2,0-0.2,0-0.2c0,0,0,0,0,0c-0.1,0-0.1,0-0.3,0
	c-0.3,0-0.5,0.2-0.5,0.4c0,0.2,0.1,0.3,0.3,0.5l0.1,0.1c0.2,0.1,0.2,0.2,0.2,0.3C36.6,45.8,36.5,45.9,36.3,46
	c-0.1-0.1-0.2-0.1-0.3-0.3c0,0,0-0.1,0-0.1c0,0,0,0,0,0c0,0,0,0,0,0.1c0,0,0,0.2,0,0.3c0,0,0,0.1,0,0.1C36.1,46,36.2,46,36.3,46
	 M24,11.6L24,11.6c1,0,2.2,0.2,3.1,0.6c0-0.2-0.1-0.4-0.2-0.5c-0.5-0.6-1.9-0.8-2.9-0.8c-1,0-2.4,0.2-2.9,0.8
	c-0.1,0.2-0.2,0.3-0.2,0.5C21.8,11.8,22.9,11.6,24,11.6 M25.7,13L25.7,13c0.5,0.1,0.9,0.3,1.2,0.4l-0.2-0.8
	c-0.4-0.2-0.9-0.3-1.4-0.4L25.7,13z M22.7,12.9L22.7,12.9c0.4-0.1,0.7-0.1,1.2-0.1l-0.3-0.6c-0.5,0-0.9,0.1-1.4,0.2L22.7,12.9z
	 M20.9,13.5L20.9,13.5c0.1,0,0.2-0.1,0.3-0.1l-0.5-0.4c0,0-0.1,0-0.1,0.1c-0.3,0.2-0.3,0.4-0.3,0.5c0.1,0.1,0.2,0.2,0.4,0.1
	L20.9,13.5z M24,9.6L24,9.6l-0.7,0.5c0.3,0,0.6,0,0.7,0c0.2,0,0.4,0,0.7,0L24,9.6z M23.1,7.6L23.1,7.6h0.6l-0.1-1.1
	C22.7,6.1,22.8,7,23.1,7.6 M23.8,5.3L23.8,5.3l-0.5-0.4l0.3,1c0,0,0,0,0,0c0.1-0.1,0.2-0.2,0.3-0.2c0.1,0,0.3,0.1,0.3,0.2
	c0,0,0,0,0,0l0.3-1l-0.5,0.4L24,5.3L23.8,5.3z M24.6,9.5L24.6,9.5l-0.3-1.1h-0.6l-0.3,1.1l0.5-0.4L24,9l0.1,0.1L24.6,9.5z M24.8,7.6
	L24.8,7.6c0.3-0.7,0.4-1.5-0.5-1.1l-0.1,1.1H24.8z M21.7,7.9L21.7,7.9l1-0.3c-0.1-0.2-0.2-0.4-0.2-0.8l-0.8-0.2l0.4,0.5l0.1,0.1
	l-0.1,0.1L21.7,7.9z M25.4,6.8L25.4,6.8c0,0.3-0.1,0.6-0.2,0.8l1,0.3l-0.4-0.5l-0.1-0.1l0.1-0.1l0.4-0.5L25.4,6.8z M30.3,5.5
	L30.3,5.5c0,0.6,0,2,0.4,2.7c-0.5-0.1-1.1-1-1.1-2c-0.9,0.8-1,3.7-2,5.3l0,0c0.2,0.3,0.3,0.7,0.2,1.1c0.5,0.3,0.5,0.8,0.3,1.1
	c-0.2,0.3-0.6,0.6-1.1,0.4L26.8,14c-0.6-0.2-1.6-0.7-2.8-0.7s-2.3,0.4-2.8,0.7l-0.2,0.1c-0.5,0.2-1,0-1.1-0.4
	c-0.2-0.3-0.1-0.8,0.3-1.1c-0.1-0.4,0-0.7,0.2-1.1c-0.6-0.9-1.3-2.8-1.4-3.9c-0.1-0.6-0.3-1.3-0.5-1.6c-0.1,0.5-0.6,2-1.4,2.8
	c0.6-1.4,0.6-2.6,0.7-3.2c0.4-0.4,0.9-0.4,1.1-0.4c0.2,0,0.3,0.2,0.6,0.5c0-0.7,0.3-1.6,0.2-2.9c-0.5-0.2-1.9,1.8-2.8,1.5
	c1.3-0.8,1.2-1.9,2.8-2.2c0.5,0,0.9,0.3,0.9,1c0.4-0.6,0.8-1.1,1.1-1.5c0.2-0.8,0.8-1.3,1.8-1.6c-0.2,0.5-0.5,1.5-1.3,1.9
	c-0.6,0.8-0.9,1.3-1.2,1.7c0.4,0,0.7,0.1,0.9,0.3c0.3,0.3,0,1.4,0.2,2c-0.2-0.2-0.8-1-0.7-1.6c-1.2,0.9-1.6,3.8-0.2,6.6
	c0.5-0.3,1.1-0.5,1.7-0.6l0.1-0.2l0.5-1.6h-0.2c-0.3,0-0.3-0.2-0.3-0.3l-1.5,0.5l-0.7,0.2l0.4-0.6l0.7-1l-0.7-0.9l-0.4-0.6l0.7,0.2
	l1.3,0.4c0.1-0.3,0.3-0.4,0.6-0.5l-0.4-1.5l-0.2-0.6L23,4.1l1,0.7l0.9-0.7l0.5-0.4l-0.2,0.6l-0.5,1.5c0.3,0,0.5,0.2,0.6,0.5l1.3-0.4
	l0.7-0.2L27,6.3l-0.7,0.9l0.7,1l0.4,0.6l-0.7-0.2l-1.5-0.5c0,0.1,0,0.3-0.3,0.3h-0.2l0.5,1.6l0.1,0.2c0.6,0.1,1.2,0.3,1.6,0.6
	c0.5-0.9,2.2-5.1,0.1-6.7c-0.2,0.4-0.5,0.8-1.2,1.1c0.5-0.6,0.5-1.5,0.7-1.7C26.7,3.4,26.8,3.2,27,3c-0.2-0.4-0.6-0.8-0.9-1.1
	c-1.2-0.6-0.8-1-1.3-1.8c0.7,0.6,1.3,0.3,1.8,1.6c0.6,0.7,0.9,1.2,1.2,1.8C28,3,28,2.1,28.5,2.1c0.1,0,0.3,0,0.6,0
	c0.4,0.1,0.2,1.1,1.6,2.2c-0.4,0.1-1.2-0.2-1.8-1.3c-0.1,0.6-0.3,1.2,0,2.6c0.3-0.3,0.6-0.8,0.8-0.8C29.8,4.9,30.4,5.2,30.3,5.5
	 M16.8,29.1c-0.4,0-0.7,0-0.7,0c-0.1,1.1-0.1,2.2,0.1,3.1c0.4-0.7,0.8-1.3,0.8-1.8C17.1,30,17,29.5,16.8,29.1 M19.2,31.1
	c-0.2-0.4-0.9-0.2-0.6,0.5c0.3,0.8,0.7,1.6,0.8,1.9c0.2,0,0.4,0,0.6,0C19.7,32.7,19.4,31.7,19.2,31.1 M20.6,30.5
	c-0.1-0.4-1.1-0.4-0.9,0.4c0.2,0.8,0.4,1.8,0.6,2.6c0.1,0,0.2,0,0.3,0c0.1,0,0.2,0,0.3,0c0.2-0.8,0.4-1.8,0.6-2.6
	C21.7,30,20.6,30.1,20.6,30.5 M22.5,31.6c0.3-0.7-0.4-0.9-0.6-0.5c-0.2,0.6-0.5,1.6-0.7,2.3c0.2,0,0.4,0,0.6,0
	C21.9,33.2,22.2,32.4,22.5,31.6 M19.2,34c0,0.1,0,0.3,0,0.4c0.3,0.1,0.9,0.2,1.4,0.2c0.4,0,1-0.1,1.4-0.2c0-0.1,0-0.3,0-0.4
	c-0.2-0.1-1.1-0.1-1.4-0.1C20.3,33.8,19.4,33.9,19.2,34 M21.7,36.6c0-0.1-0.1-0.3-0.1-0.5c0.2,0,0.5-0.1,0.6-0.2
	c-0.1-0.3-0.2-0.6-0.4-1.1c-0.4,0.1-0.8,0.1-1.3,0.1c-0.5,0-0.9,0-1.3-0.1c-0.1,0.4-0.3,0.8-0.4,1.1c0.2,0.1,0.4,0.1,0.6,0.2
	c0,0.2-0.1,0.4-0.1,0.5c0.3,0.1,0.8,0.1,1.1,0.1C20.9,36.7,21.4,36.6,21.7,36.6 M17.1,29.1c2,0,6.6,0,6.6,0V41c0,0-6-2.1-7.3-8.3
	c0.1-0.1,0.1-0.2,0.2-0.3c0.4-0.7,0.9-1.4,0.8-2C17.3,30,17.2,29.5,17.1,29.1 M30.3,30.3l0-0.3l0.3,0c0.4,0,0.6-0.4,0.7-0.8
	c-1.5,0-7.1,0-7.1,0v5.7c0.5-0.3,0.9-0.6,1.5-0.8v-1v-0.3h0.3h0.3c0-1.4,0.4-2.4,1-3l0.2-0.2l0.2,0.2c0.6,0.7,1,1.7,1,3H29h0.3v0.3
	v1.1c0.6,0.3,1.1,0.7,1.4,1.1c0.5-1.1,0.9-2.3,1-3.7c0,0-0.1,0-0.1,0C31,31.6,30.4,31.1,30.3,30.3 M31.7,29.2c0,0,0,0-0.1,0
	c-0.1,0.7-0.4,1.1-1,1.1c0,0.7,0.5,1,1,1c0,0,0.1,0,0.1,0C31.8,30.6,31.8,29.9,31.7,29.2 M28.8,36.6c0.1-0.4,0-0.9-0.2-1.1
	c-0.2-0.3-0.6-0.4-1.1-0.4l0.5,0.6l-0.9,0.7L26.8,36c0,0,0.1-0.1,0.4-0.3c-0.3-0.4-0.7-0.7-1.4-0.5c-0.2,0.6,0,1.1,0.3,1.4
	c0.2-0.2,0.3-0.3,0.3-0.3l0.4,0.4l-1.1,0.9l0.3,0.4l1-0.9l0.3,0.4c0,0-0.2,0.3,0.1,0.7c0.2-0.2,0.7-0.6,0.9-0.8
	c-0.3-0.4-0.7-0.2-0.7-0.2l-0.4-0.4l0.9-0.8L28.8,36.6z M27.5,34.4c1.7,0,2.4,0.7,2.9,1.4c-2.2,3.9-6.2,5.2-6.2,5.2v-5.5
	C25.1,34.9,25.8,34.4,27.5,34.4 M17.6,24.5v2.9c1.1,1,2.6,0.1,3.1-0.2c-0.2-0.3-0.2-0.5-0.3-0.8c-1.4,0.1-1.9-0.6-2.2-1.6
	c0,0,0.3-0.2,0.5-0.3c0.5,1.6,1.4,1.4,2.1,1.3c0.5-0.4,1.1-0.6,1.7-0.5c-0.2-0.6-0.6-1.4-1-2.2c0.4-0.2,0.8-0.5,1.1-1
	c-1.9,0.7-2.7,0.4-4.3,0c0.3,0.4,0.7,0.7,1,0.9C18.8,23.7,18.4,24,17.6,24.5 M22.9,26.8c0.1-0.2,0-0.9-0.3-1
	c-0.3-0.1-1.3,0.2-1.4,0.4c-0.1,0.2,0.1,0.7,0.5,0.9C21.8,27.3,22.7,27.1,22.9,26.8 M25.5,25.6c-1.1,0.3-1.2,1.1-0.1,0.8
	c0.4-0.1,0.8-0.3,1.3-0.5l0.3,0.5c-0.4,0.3-0.9,0.8-1,1.2h3.8c-0.1-0.4-0.1-1,0-1.5c-1,0.6-2.5,0.2-2.5-1.3c0-0.1,0-0.2,0-0.3
	c-0.4,0.3-1,0.4-1.3-0.2c0.3-0.1,0.6-0.2,0.7-0.4c0.1,0.1,0.4,0.2,0.6,0.2c0.4-0.9,1.6-0.8,1.9-0.8c0.6,0.1,0.6,0.6-0.1,0.5
	c-0.8-0.1-1.2,0.3-1.2,0.9c0,0.6,0.7,1.2,1.6,0.8c0.6-0.3,0.7-1.4,0.7-1.8c0-0.4-0.2-1.5-1.3-1.5c-0.9,0-1.9,0.3-1.9,1.1
	c-0.7,0.2-2.1,1.2-2.3,1.9l0.7,0V25.6z M16.4,26.2L16.4,26.2c-0.1-0.1-0.1-0.1-0.2-0.1v-4.8h15.5v4.3c-0.5,0-0.9,0.3-1.2,0.8
	l-0.3,0.5l0.6-0.1c0,0,0,0,0,0c0.1,0,0.2,0,0.3,0.1c0.2,0.2,0.3,0.7,0.3,1.4c0,0.1,0,0.3,0,0.4H17c-0.1-0.3-0.2-0.6-0.1-0.7
	C17,26.8,16.8,26.6,16.4,26.2 M16.2,26.4v2.3h0.5c-0.1-0.3-0.2-0.6-0.1-0.8C16.7,26.8,16.5,26.7,16.2,26.4 M31.7,28.7v-2.9
	c-0.3,0-0.7,0.2-0.9,0.7c0,0,0.1,0,0.1,0c0.6,0,0.9,0.9,0.8,1.8C31.7,28.4,31.7,28.6,31.7,28.7L31.7,28.7z M20,24.8
	c0.3,0.1,0.6,0,0.9,0c-0.1-0.1-0.1-0.3-0.1-0.5c0.1-0.4-0.2-0.5-0.4-0.5c-0.4,0-0.6,0.1-1,0C19.7,24.1,19.6,24.6,20,24.8 M16.6,27.9
	c0.1-1.2-0.1-1.3-0.4-1.6c-0.3-0.2-0.8-0.3-1.3-0.7c-0.4-0.2-0.4-0.6-0.9-1.1c0.1-1,0.8-2.2,1.3-2.5c0.1,0,0.1-1.6,0.1-1.6
	s0.4,0,0.3,0c-0.5-0.3-1-0.1-1.5,0.4c-0.4,0.3-1.3,0.9-1.9,1.2c-0.9-0.7-2.2-1.4-3.2-2.3c0,0,1.3,0,1.9-0.3c0.2-0.1,0.6-0.8,0.4-1.4
	c-0.2-0.1-0.5-0.2-0.8-0.4c-0.4-0.2-0.7-0.4-0.9-0.5c-0.6-0.4-0.8-0.8-1.8-1c0.1-0.4,0.2-0.3,0.6-0.6c0.5-0.4,0.8-0.8,1.1-1.2
	c0.2-0.3,0-1-0.5-0.2c-0.2,0.3-0.6,0.7-1.1,0.9c0-0.3,0.1-0.4,0.1-0.6c1.4-1,1.3-1.9,1.2-2.7c-0.1-0.5-0.5-0.7-0.5-0.2
	c0,0.3,0.3,1.3-0.7,1.8c0-0.4-0.1-0.6-0.2-0.8c0.9-1.1,0.5-2.2,0.1-2.7C8,9.4,7.4,9.3,7.6,9.8c0.2,0.4,0.6,1.5-0.1,2
	c-0.2-0.3-0.5-0.4-0.6-0.8c0.1-1.2,0-2-0.2-2.4C6.7,8.2,6.3,8,6.3,8.6c0,0.7,0.1,1.6,0,1.6c-0.1,0.1-1-0.8-1.4-1.1
	C4.6,8.9,4.2,9,4.6,9.5C5,9.9,6.2,10.8,6,11.1c-0.1,0.2-0.9-0.5-1.4-0.7c-0.4-0.2-0.6,0.1-0.2,0.4c0.6,0.5,1,0.8,2,1.1
	c1,0.3,1.5,1.7,1.2,3.6c0,0.1-0.2,0.1-0.3,0c0-0.7-0.2-1.6-0.4-2c-0.2-0.5-0.7-0.5-0.5,0.2c0.1,0.5,0.2,1.1,0.1,1.9
	c-0.8-0.1-1.1-0.4-1.5-0.6c0-0.4,0.2-1,0.2-1.5c0-0.5-0.3-0.9-0.5-0.2c-0.2,0.7-0.3,1-0.4,1.4c-0.2-0.1-0.5-0.2-0.6-0.3
	c-0.1-0.1,0-0.8-0.1-1.3c-0.1-0.6-0.3-0.6-0.5-0.1c-0.1,0.2-0.1,0.6-0.2,1c-0.3-0.2-0.5-0.5-0.5-0.8c0-0.6,0.1-1.3,0.2-1.7
	c0.1-0.3-0.1-0.9-0.4-0.2c-0.2,0.5-0.2,1-0.3,1.3c-0.2,0-0.5-1.2-0.6-2c-0.1-0.4-0.4-0.7-0.4,0c-0.1,0.9,0.1,1.7,0.3,2.1
	c-0.4,0-0.8-0.8-1.1-1.2c-0.3-0.4-0.4,0-0.4,0.2c0.2,1.5,1.5,2.1,2,2.2c0.8,1.2,2.5,1.7,3.8,2.3c-1.8,0-2.3,0.7-3.1,0.2
	c0,0.7,0.4,1,0.7,1.1c0.2,0.1,0.5,0.1,0.6,0.2c0.1,0.8,0.9,0.8,1.6,0.8c-0.2,1.6,0,3.7,1.4,5.3C7,24.8,7,25.8,7,26.5
	c-1.1,1.1-2.2,3.3-2.6,4.5c-0.3,0.9-0.8,1.6-1.5,2c0.6,0.6,1.4,0.3,1.9,0c0,0.5,0.2,0.9,0.2,1.2c-0.3,0.5-0.6,0.8-0.5,1.4
	C4.2,35.8,4,36,3.7,36.3c-0.1,0.2,0,0.9,0.2,1.2c0.5,1,0.1,3.3,0,4c0.2,0,0.5,0,0.6-0.3c0.1,0.1,0.4,0.3,0.5,0.8
	c0,0.2-0.1,0.9,0.2,1c0.3,0.1,1.6,0,1.8-0.2c-0.1-0.2-0.4-0.5-0.5-0.8c0-0.4,0-0.8-0.1-1c-0.1-0.3-0.5-0.9-0.8-1.1
	c-0.1-0.4-0.1-2.3,0.1-3c0.3-0.2,2.6-1.9,3.1-3.5c0.4,0.1,0.3,1.3,0.3,2.7c0,0.4,0.5,0.6,0.8,0.6c0.6,0.1,1.5,0.7,2.5,2.1
	c0.2-0.2,0.4-0.4,0.4-0.4c0.1,0.2,0.3,0.6,0.4,0.9c0.1,0.2,0.9,0.3,1.5,0.1c0.2-0.1,0.3-0.1,0.4-0.3c-0.8-1.3-1.2-2.2-2.2-3
	c-0.5-0.3-1.1-0.5-1.6-0.8c0.3-0.6,1.3-3.6,0.7-4.7c-0.2-0.4-0.9-0.7-1.8-0.6c0.7-0.9,2.2-2.6,2.4-3.1c0.2,0.2,1,0.1,1.7,0.3
	c0.2,0.1,0.9,0.9,0.9,1.2c0.1,0.5,0.1,1.2-0.3,2.6c0.3,0,0.2-0.1,0.5-0.2c0,0.4-0.1,0.7-0.4,1.3c0.1,0.5,0.3,1.3,0.6,1.5
	c0.3-1,1.5-2.4,1.5-3.2C17.1,29.3,16.6,28.4,16.6,27.9 M62.2,15.8c0.2,0.7,0.3,1.6,0.3,2.9c0,3.1-0.7,4.4-2.4,4.4
	c-0.6,0-1.1-0.1-1.5-0.4c-0.7-0.5-1.1-1.9-1.1-4c0-1.5,0.2-2.6,0.6-3.4c0.4-0.7,1.1-1.1,1.9-1.1C61.4,14.2,62,15.2,62.2,15.8
	 M66,26.9l0.7-1.6c0,0-0.6,0.1-1.1,0.1c-0.5,0-1.1-0.2-1.5-0.5c-0.3-0.2-0.8-0.5-1.1-0.6c1.5-1,2.4-3,2.4-5.6c0-3.9-2-6.3-5.3-6.3
	c-0.9,0-1.8,0.2-2.6,0.6c-1.8,1-2.8,3.1-2.8,5.8c0,1.8,0.5,3.4,1.4,4.6c0.9,1.2,2.1,1.7,4,1.7c1,0.3,1.9,0.9,2.5,1.2
	c0.5,0.3,1.3,0.9,2.3,0.9C65.7,27.1,66,26.9,66,26.9 M73.2,25l1.7-1c-0.4-0.4-0.5-1-0.5-1.6v-6.9L72.1,16v6.4
	c-0.2,0.4-0.9,0.9-1.5,0.9c-0.4,0-0.7-0.2-0.8-0.4c-0.1-0.2-0.2-0.7-0.2-1.5v-5.8l-2.3,0.4v5.8c0,0.9,0.1,1.4,0.2,1.8
	c0.3,0.9,1.4,1.5,2.7,1.5c1,0,1.8-0.3,2.4-0.9C72.6,24.5,72.9,24.8,73.2,25 M81.6,19.2v0.1h-2.7v0c0-1.3,0.5-2,1.4-2
	c0.5,0,0.8,0.2,1,0.5C81.5,18.1,81.6,18.5,81.6,19.2 M78.8,21h5.2v-0.5c0-1.9-0.4-3.1-1.2-4c-0.6-0.6-1.6-1-2.6-1
	c-1.2,0-2.1,0.4-2.9,1.2c-0.8,0.9-1.1,2-1.1,3.6c0,2.9,1.7,4.7,4.3,4.7c1.3,0,2.4-0.4,3.4-1.3L83,22.4c-0.7,0.6-1.5,0.9-2.3,0.9
	C79.5,23.3,78.8,22.5,78.8,21L78.8,21z M90.6,19.2v0.1h-2.7v0c0-1.3,0.5-2,1.4-2c0.5,0,0.8,0.2,1,0.5C90.5,18.1,90.6,18.5,90.6,19.2
	 M87.8,21H93v-0.5c0-1.9-0.4-3.1-1.2-4c-0.6-0.6-1.6-1-2.6-1c-1.2,0-2.1,0.4-2.9,1.2c-0.8,0.9-1.1,2-1.1,3.6c0,2.9,1.7,4.7,4.3,4.7
	c1.3,0,2.4-0.4,3.4-1.3L92,22.4c-0.7,0.6-1.5,0.9-2.3,0.9C88.5,23.3,87.8,22.5,87.8,21L87.8,21z M99.5,24.8h2.3v-6.6
	c0-0.6-0.1-1-0.2-1.3c-0.3-0.8-1.2-1.3-2.2-1.3c-0.5,0-1.2,0.1-1.6,0.4c-0.4,0.2-0.7,0.4-1,0.7c0-0.4-0.1-0.8-0.3-1.1l-2.1,0.6
	c0.2,0.6,0.3,1.3,0.3,2.1v6.6h2.4v-6.4c0.5-0.5,1.2-0.8,1.6-0.8c0.6,0,0.8,0.3,0.8,1.3V24.8z M107,25.1c2.3,0,3.9-1.3,3.9-3.2
	c0-0.6-0.2-1.1-0.5-1.5c-0.3-0.4-0.7-0.7-1.8-1l-1.1-0.3c-0.8-0.2-1.1-0.5-1.1-0.9c0-0.5,0.5-0.9,1.2-0.9c0.7,0,1.3,0.2,2.2,0.7
	l0.8-1.6c-0.8-0.4-1.8-0.9-3.2-0.9c-2.1,0-3.5,1.2-3.5,3c0,0.6,0.2,1.2,0.5,1.6s1.1,0.8,1.7,0.9l1.1,0.2c1,0.2,1.4,0.5,1.4,1.1
	c0,0.6-0.5,1-1.2,1c-1,0-2.3-0.6-3-1l-0.8,1.7C104.7,24.7,105.9,25.1,107,25.1 M114.9,25c0.5,0,1-0.1,1.4-0.2l-0.4-1.4
	c-0.1,0-0.2,0-0.3,0c-0.2,0-0.4-0.1-0.5-0.2c-0.1-0.2-0.2-0.5-0.2-2V14c0-1.3,0-1.9-0.1-2.4l-2.4,0.5c0.1,0.8,0.1,1.5,0.1,2.7v6.8
	c0,1.3,0,1.6,0.2,2C113.1,24.5,113.9,25,114.9,25 M121.6,20.8h0.1l0,1.9c-0.4,0.4-0.8,0.6-1.2,0.6c-0.6,0-1-0.5-1-1.2
	C119.4,21.1,119.9,20.8,121.6,20.8 M123.6,25.3l1.3-1.5c-0.8-0.6-0.9-1-0.9-2l0.1-3c0-1,0-1.3-0.2-1.6c-0.4-1-1.4-1.6-2.9-1.6
	c-0.8,0-1.6,0.2-2.5,0.5c-0.6,0.3-1,0.4-1.5,0.7l1,1.7c1-0.7,1.9-1,2.6-1c0.9,0,1.1,0.3,1.1,1.3v0.4c-0.2,0-0.4,0-0.5,0
	c-2.9,0-4.4,1-4.4,3.1c0,1.8,1.1,2.8,3.1,2.8c0.7,0,1.4-0.2,1.8-0.5c0.2-0.1,0.4-0.3,0.5-0.5C122.5,24.6,123,25,123.6,25.3
	 M131.3,24.8h2.3v-6.6c0-0.6-0.1-1-0.2-1.3c-0.3-0.8-1.2-1.3-2.2-1.3c-0.5,0-1.2,0.1-1.6,0.4c-0.4,0.2-0.7,0.4-1,0.7
	c0-0.4-0.1-0.8-0.3-1.1l-2.1,0.6c0.2,0.6,0.3,1.3,0.3,2.1v6.6h2.4v-6.4c0.5-0.5,1.2-0.8,1.6-0.8c0.6,0,0.8,0.3,0.8,1.3V24.8z
	 M141.1,18.1v4.3c-0.2,0.3-0.7,0.6-1.2,0.6c-1.2,0-1.6-0.6-1.6-2.6c0-2,0.5-2.9,1.5-2.9C140.2,17.5,140.6,17.7,141.1,18.1
	 M141.6,24.8h2.1c-0.2-0.4-0.3-1.1-0.3-3.3v-9.4l-2.4-0.4v3.1c0,0.5,0,1.2,0.1,1.3c-0.4-0.4-1-0.5-1.6-0.5c-2.3,0-3.9,1.9-3.9,4.8
	c0,2.8,1.5,4.6,3.8,4.6c0.8,0,1.5-0.2,2.1-0.8C141.5,24.5,141.5,24.7,141.6,24.8 M60.3,42.1c1.2,0,2.5-0.4,3.4-0.9v-5.7h-4.1
	l0.3,1.2h2.4v3.7c-0.5,0.3-1.2,0.5-1.9,0.5c-1.2,0-2.4-0.5-2.9-1.3c-0.5-0.8-0.8-2.1-0.8-3.7c0-1.2,0.2-2.2,0.5-3.1
	c0.5-1.4,1.6-2.1,3-2.1c0.9,0,1.6,0.3,2.6,0.9l0.7-0.9c-0.9-0.8-2-1.2-3.3-1.2c-1.3,0-2.3,0.4-3.2,1.2c-1.3,1.1-1.9,2.8-1.9,5.1
	c0,2.1,0.5,3.6,1.5,4.7C57.5,41.6,58.8,42.1,60.3,42.1 M71.8,35.1c0.3,0.6,0.4,1.4,0.4,2.7c0,0.9-0.1,1.4-0.3,1.9
	c-0.3,0.9-1,1.3-1.9,1.3c-0.8,0-1.5-0.4-1.8-0.9c-0.3-0.5-0.5-1.6-0.5-2.9c0-1,0.1-1.8,0.4-2.3c0.3-0.6,1-1,1.8-1
	C70.6,34,71.4,34.3,71.8,35.1 M70,42.2c2.2,0,3.8-1.6,3.8-4.5c0-1.4-0.3-2.5-0.8-3.3c-0.6-0.9-1.6-1.5-3-1.5c-2.3,0-3.8,1.8-3.8,4.6
	C66.1,40.4,67.5,42.2,70,42.2 M79.2,42l3.3-8.9h-1.5l-2,5.9c-0.3,0.8-0.4,1.5-0.4,1.5h0c0,0-0.2-0.8-0.4-1.5l-2.1-6.1l-1.4,0.3
	l3.2,8.8H79.2z M88.9,34.7c0.3,0.4,0.4,1,0.4,2h-4c0.1-1.8,0.8-2.7,2-2.7C88,34,88.6,34.3,88.9,34.7 M85.3,37.8h5.5v-0.2
	c0-2.1-0.2-2.9-1-3.7c-0.6-0.6-1.4-1-2.4-1c-1.1,0-1.9,0.4-2.6,1.2C84,35,83.7,36,83.7,37.4c0,2.9,1.5,4.7,3.9,4.7
	c1.1,0,2.2-0.4,3-1.1l-0.5-0.9c-0.6,0.6-1.3,0.8-2.2,0.8c-0.9,0-1.7-0.3-2.2-1.1c-0.3-0.5-0.4-1.1-0.4-1.9V37.8z M97,34.4l0.6-1.5
	c0,0-0.2-0.1-0.5-0.1c-0.9,0-1.8,0.6-2.5,1.5c0.1-0.7-0.3-1.4-0.3-1.4L93,33.3c0,0,0.3,0.6,0.3,1.9v6.8h1.4v-5.5
	c0-0.7,0.1-1,0.5-1.4c0.4-0.4,0.9-0.6,1.5-0.6C96.8,34.4,96.9,34.4,97,34.4 M104,41.9h1.4v-6.7c0-0.4-0.1-0.7-0.2-1
	c-0.4-0.8-1.2-1.3-2.2-1.3c-0.9,0-1.9,0.4-2.8,1.4c0-0.7-0.3-1.4-0.3-1.4l-1.3,0.4c0,0,0.3,0.6,0.3,1.9v6.8h1.3v-6.6
	c0.6-0.7,1.7-1.2,2.4-1.2c0.4,0,0.8,0.1,1,0.4c0.2,0.3,0.3,0.5,0.3,1.5V41.9z M117.7,41.9h1.4v-6.7c0-1.4-0.9-2.4-2.2-2.4
	c-0.9,0-2,0.6-2.8,1.5c-0.3-0.9-1.2-1.5-2.1-1.5c-0.9,0-2,0.7-2.6,1.3c0-0.6-0.3-1.3-0.3-1.3l-1.3,0.3c0,0,0.3,0.6,0.3,1.9v6.8h1.3
	v-6.6c0.9-0.8,1.6-1.2,2.2-1.2c0.4,0,0.7,0.1,0.9,0.4c0.2,0.2,0.2,0.6,0.2,1.1v6.3h1.4v-6.4c0.9-0.8,1.5-1.4,2.3-1.4
	c0.7,0,1.1,0.4,1.1,1.3V41.9z M126.6,34.7c0.3,0.4,0.4,1,0.4,2h-4c0.1-1.8,0.8-2.7,2-2.7C125.6,34,126.3,34.3,126.6,34.7
	 M122.9,37.8h5.5v-0.2c0-2.1-0.2-2.9-1-3.7c-0.6-0.6-1.4-1-2.4-1c-1.1,0-1.9,0.4-2.6,1.2c-0.7,0.9-1.1,1.8-1.1,3.3
	c0,2.9,1.5,4.7,3.9,4.7c1.1,0,2.2-0.4,3-1.1l-0.5-0.9c-0.6,0.6-1.3,0.8-2.2,0.8c-0.9,0-1.7-0.3-2.2-1.1c-0.3-0.5-0.4-1.1-0.4-1.9
	V37.8z M136,41.9h1.4v-6.7c0-0.4-0.1-0.7-0.2-1c-0.4-0.8-1.2-1.3-2.2-1.3c-0.9,0-1.9,0.4-2.8,1.4c0-0.7-0.3-1.4-0.3-1.4l-1.3,0.4
	c0,0,0.3,0.6,0.3,1.9v6.8h1.3v-6.6c0.6-0.7,1.7-1.2,2.4-1.2c0.4,0,0.8,0.1,1,0.4c0.2,0.3,0.3,0.5,0.3,1.5V41.9z M143.3,34.2l0.4-1
	h-2.2c0-1.2,0.2-2.5,0.2-2.5l-1.5,0.3c0,0-0.1,1.4-0.1,2.2H139v1h1.2v6.1c0,0.9,0.2,1.5,0.8,1.8c0.3,0.2,0.7,0.2,1.2,0.2
	c0.6,0,1.1-0.1,1.6-0.4l-0.2-0.9c-0.2,0.1-0.5,0.2-0.9,0.2c-0.9,0-1.1-0.3-1.1-1.3v-5.7H143.3z"/>
</svg>
