<?xml version="1.0" encoding="utf-8"?>
<!-- Generator: Adobe Illustrator 22.0.1, SVG Export Plug-In . SVG Version: 6.00 Build 0)  -->
<svg version="1.1" id="logos" xmlns="http://www.w3.org/2000/svg" xmlns:xlink="http://www.w3.org/1999/xlink" x="0px" y="0px"
	 viewBox="0 0 143.8 46.9" style="enable-background:new 0 0 143.8 46.9;" xml:space="preserve">
<style type="text/css">
	.st0{fill:#FFFFFF;}
</style>
<path id="slq" class="st0" d="M57.4,23v0.3c0,1.1,0.3,1.7,1.5,1.7c0.7,0,1.3-0.4,1.3-1.4s-0.5-1.4-2-1.9c-2-0.7-2.9-1.5-2.9-3.4
	c0-2.2,1.3-3.3,3.5-3.3c2,0,3.5,0.9,3.5,3v0.3H60c0-1-0.4-1.7-1.2-1.7c-1,0-1.3,0.6-1.3,1.3c0,0.7,0.2,1.1,1.2,1.5l1.7,0.8
	c1.7,0.7,2.1,1.6,2.1,3c0,2.4-1.4,3.4-3.9,3.4c-2.6,0-3.6-1.2-3.6-3.3V23H57.4z M64.4,15.6V18h-1.1v1.5h1.1v4.8c0,1.7,0.3,2.2,2,2.2
	c0.5,0,0.9,0,1.4-0.1V25c-0.1,0-0.3,0-0.5,0c-0.6,0-0.8-0.3-0.8-0.9v-4.6h1.3V18h-1.3v-2.4H64.4z M72.7,22.3V24
	c0,0.9-0.7,1.3-1.3,1.3c-0.6,0-0.8-0.5-0.8-1.2c0-0.8,0.3-1.2,1.2-1.4C72.1,22.6,72.4,22.5,72.7,22.3 M68.8,20.6h1.9v-0.2
	c0-0.7,0.3-1.1,1-1.1s1,0.4,1,1s-0.2,0.8-0.9,1l-1.2,0.3c-1.5,0.4-2.1,1.1-2.1,2.6c0,1.1,0.5,2.4,2,2.4c1,0,1.7-0.2,2.1-1.1l0,0
	c0.1,0.3,0.1,0.6,0.3,0.9H75c-0.2-0.5-0.3-0.8-0.3-1.6v-4.4c0-1.5-0.5-2.6-3.1-2.6c-1.6,0-3,0.7-3,2.6v0.2H68.8z M76.9,15.6V18h-1.1
	v1.5h1.1v4.8c0,1.7,0.3,2.2,2,2.2c0.5,0,0.9,0,1.4-0.1V25c-0.1,0-0.3,0-0.5,0c-0.6,0-0.8-0.3-0.8-0.9v-4.6h1.3V18H79v-2.4H76.9z
	 M85.3,21.3h-2.2V21c0-0.8,0.2-1.7,1.1-1.7C85.1,19.3,85.3,20,85.3,21.3 M83.1,22.6h4.3v-0.5c0-2.6-0.6-4.3-3.1-4.3
	c-2.9,0-3.4,2.1-3.4,4.4c0,2.1,0.1,4.5,3.3,4.5c2,0,3-1.1,3.1-3.1h-1.9c-0.1,1-0.4,1.6-1.1,1.6c-0.8,0-1.1-1-1.1-2v-0.6H83.1z
	 M91.2,26.5h6.3v-1.8h-4v-9.3h-2.3V26.5z M98.5,26.5h2.2v-8.4h-2.2V26.5z M98.5,17h2.2v-1.8h-2.2V17z M105.6,25
	c-1,0-1.1-0.9-1.1-2.8c0-1.8,0.2-2.8,1.1-2.8s1.1,0.9,1.1,2.8S106.5,25,105.6,25 M102.2,15.3v11.2h2.1v-0.9l0,0
	c0.5,0.8,1.1,1.1,1.9,1.1c1.8,0,2.6-1.3,2.6-4.4s-0.8-4.4-2.6-4.4c-0.8,0-1.4,0.3-1.8,1l0,0v-3.5h-2.2V15.3z M110.2,18.1v8.4h2.2
	v-5.1c0-1.1,0.8-1.5,1.6-1.5c0.2,0,0.5,0,0.7,0v-2.1c-0.1,0-0.3,0-0.4,0c-0.9,0-1.5,0.5-1.9,1.3l0,0V18h-2.2V18.1z M119.5,22.3V24
	c0,0.9-0.7,1.3-1.3,1.3c-0.6,0-0.8-0.5-0.8-1.2c0-0.8,0.3-1.2,1.2-1.4C118.8,22.6,119.2,22.5,119.5,22.3 M115.5,20.6h1.9v-0.2
	c0-0.7,0.3-1.1,1-1.1s1,0.4,1,1s-0.2,0.8-0.9,1l-1.2,0.3c-1.5,0.4-2.1,1.1-2.1,2.6c0,1.1,0.5,2.4,2,2.4c1,0,1.6-0.2,2.1-1.1l0,0
	c0.1,0.3,0.1,0.6,0.3,0.9h2.1c-0.2-0.5-0.3-0.8-0.3-1.6v-4.4c0-1.5-0.5-2.6-3.1-2.6c-1.6,0-3,0.7-3,2.6v0.2H115.5z M123.2,18.1v8.4
	h2.2v-5.1c0-1.1,0.8-1.5,1.6-1.5c0.2,0,0.5,0,0.7,0v-2.1c-0.1,0-0.3,0-0.4,0c-0.9,0-1.5,0.5-1.9,1.3l0,0V18h-2.2V18.1z M128.9,27.6
	v1.6h0.9c2,0,2.5-0.4,3.2-3.3l2-7.9h-2.2l-1.1,5.8l0,0l-1.3-5.8h-2.3l2.4,8.4c-0.1,0.8-0.4,1.2-1.2,1.2
	C129.3,27.7,129.1,27.7,128.9,27.6 M58.4,41.3c-1.1,0-1.2-1.2-1.2-3c0-1.7,0.1-3,1.2-3c0.9,0,1.2,0.9,1.2,3
	C59.6,40.4,59.3,41.3,58.4,41.3 M58.4,33.9c-2.5,0-3.3,1.6-3.3,4.4c0,2.9,0.7,4.5,3.3,4.4c2.5,0,3.3-1.6,3.3-4.4
	C61.8,35.4,61,33.8,58.4,33.9 M63.6,35.6v7h2.2v-7H67v-1.5h-1.3v-0.7c0-0.5,0.2-0.7,0.8-0.7c0.1,0,0.3,0,0.4,0v-1.5
	c-0.4,0-0.8,0-1.2,0c-1.4,0-2.3,0.5-2.3,2v1h-1.1v1.5L63.6,35.6L63.6,35.6z M74.5,41.1c-1.3,0-1.6-1.1-1.6-4.2c0-3,0.2-4.2,1.6-4.2
	c1.3,0,1.6,1.2,1.6,4.2C76,39.9,75.8,41.1,74.5,41.1 M77.3,43.9l1.3-1.2l-1.2-1.2c0.7-1.1,0.9-2.7,0.9-4.5c0-3.4-0.4-5.8-3.8-5.8
	s-3.8,2.4-3.8,5.8s0.4,5.8,3.8,5.8c0.3,0,0.6,0,0.8,0c0.3,0,0.5-0.1,0.7-0.2L77.3,43.9z M84.1,41.6v1h2.1v-8.4H84v5.6
	c0,0.9-0.4,1.4-1.1,1.4c-0.6,0-0.9-0.3-0.9-1.2v-5.8h-2.2v6.3c0,1.7,0.8,2.4,2.1,2.4C82.8,42.8,83.6,42.4,84.1,41.6L84.1,41.6z
	 M91.9,37.4h-2.2V37c0-0.8,0.3-1.7,1.1-1.7C91.7,35.4,91.9,36.1,91.9,37.4 M89.7,38.6H94v-0.5c0-2.6-0.6-4.3-3.1-4.3
	c-2.9,0-3.4,2.1-3.4,4.4c0,2.1,0.1,4.5,3.3,4.5c2,0,3-1.1,3.1-3.1H92c-0.1,1-0.4,1.6-1.1,1.6c-0.8,0-1.1-1-1.1-2v-0.6H89.7z
	 M99.4,37.4h-2.2V37c0-0.8,0.3-1.7,1.1-1.7C99.2,35.4,99.4,36.1,99.4,37.4 M97.2,38.6h4.3v-0.5c0-2.6-0.6-4.3-3.1-4.3
	c-2.9,0-3.4,2.1-3.4,4.4c0,2.1,0.1,4.5,3.3,4.5c2,0,3-1.1,3.1-3.1h-1.9c-0.1,1-0.4,1.6-1.1,1.6c-0.8,0-1.1-1-1.1-2v-0.6H97.2z
	 M102.9,34.1v8.4h2.2v-5.6c0-0.9,0.4-1.4,1.1-1.4c0.6,0,0.9,0.3,0.9,1.2v5.8h2.2v-6.3c0-1.7-0.8-2.4-2.1-2.4c-0.9,0-1.7,0.4-2.1,1.2
	l0,0v-1L102.9,34.1L102.9,34.1z M112.5,39.8h-1.9v0.3c0,1.6,0.7,2.7,3.1,2.7c1.8,0,3.1-0.9,3.1-2.7c0-1.3-0.5-2-1.9-2.4l-1.3-0.4
	c-0.7-0.2-0.9-0.6-0.9-1c0-0.6,0.5-0.9,1-0.9c0.7,0,1,0.4,1,1.3h1.9v-0.3c0-1.5-0.9-2.4-2.9-2.4c-2.2,0-3.1,1.1-3.1,2.5
	c0,1.2,0.6,1.9,1.8,2.3l1.5,0.5c0.4,0.2,0.8,0.4,0.8,1c0,0.7-0.4,1-1.1,1s-1.1-0.5-1.1-1.2V39.8z M118.1,42.5h2.2V31.3h-2.2V42.5z
	 M125.8,38.3V40c0,0.9-0.8,1.3-1.3,1.3c-0.6,0-0.8-0.5-0.8-1.2s0.3-1.2,1.2-1.4C125.1,38.7,125.5,38.5,125.8,38.3 M121.9,36.7h1.9
	v-0.2c0-0.7,0.3-1.1,1-1.1s1,0.4,1,1s-0.2,0.8-0.9,1l-1.2,0.3c-1.5,0.4-2.1,1-2.1,2.6c0,1.1,0.5,2.4,2,2.4c1,0,1.6-0.2,2.1-1.1l0,0
	c0.1,0.3,0.1,0.6,0.3,0.9h2.1c-0.2-0.5-0.3-0.8-0.3-1.6v-4.4c0-1.5-0.5-2.6-3.1-2.6c-1.6,0-3,0.7-3,2.6v0.2H121.9z M129.5,34.1v8.4
	h2.2v-5.6c0-0.9,0.4-1.4,1.1-1.4c0.6,0,0.9,0.3,0.9,1.2v5.8h2.2v-6.3c0-1.7-0.8-2.4-2.1-2.4c-0.9,0-1.7,0.4-2.1,1.2l0,0v-1
	L129.5,34.1L129.5,34.1z M140.5,41.1c-0.9,0-1.1-0.9-1.1-2.8c0-1.8,0.2-2.8,1.1-2.8c1,0,1.1,0.9,1.1,2.8
	C141.6,40.2,141.4,41.1,140.5,41.1 M141.7,41.6v0.9h2.1V31.3h-2.2v3.5l0,0c-0.5-0.7-1-1-1.8-1c-1.8,0-2.6,1.3-2.6,4.4
	c0,3.1,0.8,4.4,2.6,4.4C140.6,42.8,141.2,42.4,141.7,41.6L141.7,41.6z M33.8,31.4v-3.6h-4.1V15.1h-4.1v16.3H33.8z M24.1,27.6
	c0.1-0.7,0.1-1.7,0-2.4c-0.3-1.5-1.2-2.3-2.3-2.9c-0.6-0.3-1.2-0.6-1.8-0.8c-0.3-0.1-0.6-0.3-0.9-0.4s-0.6-0.3-0.9-0.4
	s-0.5-0.3-0.7-0.6c-0.1-0.3-0.2-0.7-0.1-1.2c0.1-0.4,0.2-0.6,0.6-0.7c0.3-0.1,0.8-0.2,1.1,0c0.7,0.2,0.6,1.1,0.6,2l0,0h4
	c0-0.9,0-1.8-0.3-2.5c-0.4-1.3-1.4-2.2-2.8-2.6c-0.8-0.2-1.9-0.4-2.9-0.3c-2.2,0.2-3.6,1.2-4.3,2.9c-0.2,0.5-0.3,1-0.3,1.6
	s0,1.2,0.1,1.8c0.2,1,0.7,1.8,1.4,2.4s1.6,1,2.5,1.3c0.5,0.2,0.9,0.3,1.4,0.5c0.4,0.2,0.9,0.4,1.1,0.8s0.3,1.2,0,1.6
	c-0.2,0.4-0.6,0.7-1.3,0.6c-0.6,0-1-0.2-1.2-0.7c-0.2-0.4-0.2-1.1-0.2-1.7H13c0,0.9,0,1.7,0.2,2.4c0.5,2.1,2.1,3.1,4.5,3.3
	c0.9,0.1,1.7,0,2.4-0.1C22.3,31.1,23.7,29.8,24.1,27.6 M43.7,33.8c0,0,5,11.8,5.2,12.5c0,0.1-13.1-3.8-13.2-3.8
	c-2.9,1.9-6.4,3.2-10.1,3.6C13,47.6,1.5,38.4,0.1,25.7S7.9,1.5,20.6,0.1s24.2,7.8,25.6,20.5C46.7,25.3,45.8,29.9,43.7,33.8"/>
</svg>
