<?xml version="1.0" encoding="UTF-8"?>
<svg width="572px" height="222px" viewBox="0 0 572 222" version="1.1" xmlns="http://www.w3.org/2000/svg" xmlns:xlink="http://www.w3.org/1999/xlink">
    <!-- Generator: Sketch 47.1 (45422) - http://www.bohemiancoding.com/sketch -->
    <title>playHeaderMotif</title>
    <desc>Created with Sketch.</desc>
    <defs></defs>
    <g id="Symbols" stroke="none" stroke-width="1" fill="none" fill-rule="evenodd">
        <g id="playHeaderMotif">
            <g id="playHeaderUmbrellas" transform="translate(0.000000, 0.792480)">
                <g id="umbrellaPurple" transform="translate(159.841678, 84.480000) rotate(-7.000000) translate(-159.841678, -84.480000) translate(0.884980, 25.960000)">
                    <path d="M317.913396,70.9374288 C317.913396,70.9374288 292.628729,50.1423208 281.083287,41.9075531 C275.517295,37.9375968 259.586186,24.4739297 239.436105,16.1396721 C219.286024,7.80507025 199.882964,3.28017374 194.318871,2.73246298 C188.754777,2.18492434 176.811752,1.75649816 171.989675,1.28194172 C168.999173,0.987603121 162.011097,-0.0737371048 159.007135,0.00406467621 C156.003001,0.0820385851 146.619935,0.279297083 143.579045,0.727173708 C140.5385,1.17522246 131.118678,1.74238367 129.561822,2.33656896 C128.004967,2.93040998 119.93924,4.5012486 113.877822,5.64968551 C107.388968,6.8790225 99.4164244,7.96222296 90.4090259,11.9325236 C78.5155256,17.175021 69.2075239,21.8011287 65.2786291,23.6559782 C61.3495618,25.5108278 46.0462336,36.3335375 46.0462336,36.3335375 C46.0462336,36.3335375 23.5587985,55.415457 21.0038435,58.5263234 C18.4487159,61.6373619 5.32536526,73.1415257 5.03925724,74.1407277 C3.49603403,79.5300502 0.755057022,82.9173539 0.0908653505,83.4607615 C-0.316553859,83.7943452 0.561442303,95.7425988 4.4587582,97.994203 C8.35590154,100.245807 51.8503612,106.39473 51.8503612,106.39473 C51.8503612,106.39473 54.4103205,107.020242 55.705917,105.279858 C57.0018587,103.539301 57.9794232,94.9181065 57.9794232,94.9181065 C57.9794232,94.9181065 59.107807,97.3953703 58.8149691,100.355281 C58.5221311,103.315363 57.7071201,103.982358 59.0810599,105.238375 C60.4549996,106.494392 63.3126287,107.896373 63.3126287,107.896373 L91.0228294,111.744635 C91.0228294,111.744635 122.217578,114.441362 123.330603,114.550835 C124.443284,114.660481 140.691217,117.006755 144.808032,117.038427 C148.924847,117.069926 153.444077,116.640639 157.055457,114.647399 C161.363644,112.269625 161.363816,109.68547 163.150697,106.981858 C164.753282,104.557437 166.977608,100.540318 166.977608,100.540318 C166.977608,100.540318 166.949135,102.405495 170.365693,105.730661 C173.782251,109.055654 173.780525,110.269499 178.454716,111.290045 C183.964797,112.492875 186.210866,112.14707 186.210866,112.14707 C186.210866,112.14707 207.031696,108.965803 209.294158,108.814847 C211.556275,108.663891 225.239245,106.648274 227.574528,105.75734 C229.910157,104.866407 243.629537,102.480715 244.742563,102.590188 C245.855244,102.699662 256.132527,100.769936 259.282994,99.2120074 C262.433461,97.6540784 264.494371,96.2226633 265.936472,93.0023237 C267.378574,89.7818119 268.454327,83.7533788 268.454327,83.7533788 C268.454327,83.7533788 269.694186,88.8877799 271.727658,91.0493613 C274.353536,93.8407584 278.152146,93.7832677 279.264999,93.892741 C280.37768,94.0022143 292.421655,90.0973222 294.757283,89.2063886 C297.092567,88.3154549 308.732918,84.2306893 308.732918,84.2306893 C308.732918,84.2306893 313.040587,83.5960539 314.108919,82.891879 C315.177596,82.1875319 315.665084,81.6751073 316.020562,79.34398 C316.757748,74.5092534 317.913396,70.9374288 317.913396,70.9374288" id="Fill-1" fill="#6657A5"></path>
                    <path d="M26.3341567,53.5437168 C26.3341567,53.5437168 26.3544928,56.6322834 25.394215,58.766087 C24.4339372,60.8998907 21.9553451,63.2562613 21.9553451,63.2562613 C21.9553451,63.2562613 26.807919,63.3602742 33.5491657,63.2779877 C40.2904123,63.1957012 43.3272133,62.7503961 50.699741,63.8438999 C58.0722686,64.9374037 71.2719522,66.5102563 74.4824718,68.0778056 C76.858694,69.2380282 84.8182113,66.8144255 91.8569166,67.503853 C98.8954495,68.1932804 113.15554,67.733434 120.528068,68.8267668 C127.900596,69.9202706 139.123886,69.9057293 144.644276,70.8177238 C150.164495,71.7297183 163.798131,73.8077518 164.909723,73.9165548 C166.02097,74.0255288 170.758938,71.5189553 173.810216,70.7056704 C176.861666,69.8923855 194.865151,66.0825718 202.420531,65.3372032 C209.975911,64.5921767 219.973003,61.8582462 227.382239,62.5839413 C234.791303,63.3094653 250.606244,62.2594142 250.606244,62.2594142 C250.606244,62.2594142 253.34214,58.9000378 258.146286,56.9641666 C263.498818,54.807268 269.100898,52.4597931 273.863855,52.1912072 C278.822246,51.9116726 283.464048,50.436161 285.779779,50.8520415 C288.095682,51.2677508 292.445196,51.6904742 292.445196,51.6904742 L285.596582,46.4246512 L275.17157,38.72 C275.17157,38.72 261.909672,38.8599384 258.465977,39.6364424 C255.022281,40.4131175 248.275003,41.2804617 245.838806,42.4841371 C243.402954,43.6878124 237.547707,46.8704696 237.547707,46.8704696 C237.547707,46.8704696 216.575839,46.4870932 203.026995,47.9449842 C199.516087,48.3227152 188.634547,50.4609667 185.511059,51.0563036 C182.079255,51.7104898 178.258308,51.8931967 173.759548,53.2472459 C170.312578,54.2848085 162.55263,56.2340235 162.55263,56.2340235 C162.55263,56.2340235 144.400416,54.4560534 141.02962,54.4971111 C137.658997,54.5383399 119.522465,51.9809575 124.025189,52.4603063 C128.601502,52.9475246 110.244892,51.1858065 105.429371,51.3815149 C100.808595,51.5691829 84.2818896,53.3945404 84.2818896,53.3945404 C84.2818896,53.3945404 78.5007484,51.3430233 72.5734629,50.7625698 C66.6461775,50.1819453 61.4597812,49.6740272 54.7916067,49.0208674 C48.1234321,48.3677076 41.3821855,48.4499941 40.2707656,48.3411911 C39.1593457,48.2323882 36.1592531,48.3097135 36.1592531,48.3097135 L35.7547714,45.3229359 L30.591124,49.7602484 L26.3341567,53.5437168 Z" id="Fill-4" fill="#D16027"></path>
                    <path d="M38.6414073,42.4759851 C38.6414073,42.4759851 40.1381359,44.0279946 40.4435978,45.6171621 C40.4900736,45.8593525 44.5654326,45.6476847 48.4833958,45.8387829 C52.4011862,46.0298812 58.9045178,46.0167763 63.0000911,46.2840153 C67.0666387,46.5490977 72.0153629,47.0480764 75.9894772,47.6046168 C80.4553021,48.2299989 86.0690279,50.479716 86.0690279,50.479716 C86.0690279,50.479716 89.5396829,49.5482781 97.2263338,49.5564064 C104.913157,49.5645347 111.187565,48.7188587 118.225455,49.56553 C125.263518,50.4123672 135.419261,50.1142738 142.791985,51.3529287 C150.164708,52.5914177 162.620054,53.6671746 163.552853,53.6797818 C164.66067,53.6947113 165.581203,52.9420962 169.361812,51.8898948 C174.187349,50.5467331 188.003106,47.9866473 194.043062,47.0870591 C200.199639,46.1702189 208.670332,44.6323096 215.967208,44.7835956 C223.252335,44.93455 237.716162,45.4038354 237.716162,45.4038354 C237.716162,45.4038354 244.060543,41.4441874 248.88608,40.1011916 C253.711618,38.7580299 257.79527,37.9448672 261.3784,37.7441477 C264.961357,37.5435941 270.197575,37.6796189 271.701387,37.6419632 C273.205199,37.6044735 274.88092,37.7182698 274.88092,37.7182698 L272.884706,36.3138969 C272.884706,36.3138969 263.47344,35.6022551 257.552006,36.6615895 C251.630745,37.7207581 249.161652,38.0269797 246.415433,39.2069117 C243.669213,40.3870095 236.934193,43.8894816 236.934193,43.8894816 C236.934193,43.8894816 228.690524,43.8286022 224.047953,43.3888441 C219.405727,42.9490859 213.78008,42.9562189 208.099318,43.4981615 C202.418557,44.0401041 198.631382,44.4013992 190.018843,46.1056901 C181.406132,47.8101469 174.316756,48.4937543 170.534592,49.6005315 C166.700596,50.72257 163.3165,51.7221862 163.3165,51.7221862 C163.3165,51.7221862 156.363441,50.6583729 151.906773,50.2361985 C147.450105,49.8138582 137.255315,48.6680983 133.541569,48.3162586 C129.827651,47.9644189 121.248975,47.5117218 115.660128,47.1622045 C110.070936,46.812853 102.755574,46.8398921 100.304968,46.9677886 C97.854362,47.095685 86.673559,48.2616828 86.3846833,48.3194104 C85.8743132,48.4209313 84.7402342,47.2934186 76.426419,45.7857001 C73.2429119,45.2082584 65.1174188,44.5342722 62.7034407,44.3055183 C60.2894626,44.0767645 55.6470641,43.6370063 53.3821887,43.7824865 C51.1171405,43.9279666 47.226821,43.9244831 46.0485122,43.9878507 C44.6343688,44.0639914 41.9083635,44.1356532 41.9083635,44.1356532 L40.4867909,40.940564 L38.6414073,42.4759851 Z" id="Fill-6" fill="#D16027"></path>
                    <path d="M43.0324763,39.8124616 C43.0324763,39.8124616 44.6426852,40.7509735 44.7550977,41.5169815 C44.8673375,42.2829896 44.7941226,43.0305647 44.7941226,43.0305647 C44.7941226,43.0305647 51.2596511,42.1482208 57.4117716,42.3972386 C63.8203168,42.6565163 68.9087497,43.3194045 73.1868115,43.9647293 C77.2443653,44.5766662 79.8528174,44.7844709 82.9711834,45.4717044 C86.0895495,46.1591118 88.0730851,46.9536386 88.0730851,46.9536386 C88.0730851,46.9536386 92.451472,46.256493 97.3501333,45.9883468 C102.248622,45.7203744 116.50808,45.5645644 120.415578,45.8269721 C124.32532,46.0897276 131.012566,46.6914047 138.065022,47.3920282 C145.117305,48.0929994 155.444054,49.1662801 157.329682,49.6839659 C159.164543,50.1875661 163.380787,51.04 163.380787,51.04 C163.380787,51.04 167.032378,49.0838538 173.248734,47.8688486 C179.489956,46.6489743 188.924831,44.7084787 193.099459,44.1798375 C197.274088,43.6510225 203.006431,42.5222692 208.66556,42.1409172 C214.325035,41.7597391 222.007415,41.76826 224.976761,42.0631861 C227.94628,42.3582861 235.202494,42.890753 235.202494,42.890753 C235.202494,42.890753 238.930236,41.1851897 242.064315,39.7980283 C245.19874,38.4110408 249.297391,36.7425171 252.525752,36.3084749 C255.754113,35.8744327 259.426598,34.7295072 262.39629,35.0246072 C265.365636,35.3197073 268.593824,34.8854912 269.503484,35.1645928 C270.413144,35.4436945 272.246279,35.8619122 272.246279,35.8619122 L270.02963,34.2577298 C270.02963,34.2577298 265.956535,33.1138477 260.668488,33.5318915 C255.380441,33.9501093 254.146667,34.5250066 250.965274,35.0211293 C247.761951,35.5205561 242.600476,38.1529805 240.856788,38.7344857 C239.113446,39.3161649 234.013271,41.6400993 234.013271,41.6400993 C234.013271,41.6400993 230.301415,41.2714416 226.960987,40.939302 C223.620214,40.6075101 218.219927,40.2595459 214.86085,40.1145174 C211.501945,39.9694889 207.6649,40.720368 203.137493,41.02538 C198.610086,41.3303921 194.754737,42.2683824 191.340748,42.6839917 C187.926933,43.099601 186.226932,43.8743038 179.752079,44.9293255 C173.277226,45.9845211 169.047859,47.073974 167.8854,47.4615862 C167.062078,47.7363405 163.051493,49.4020819 162.97068,49.4895511 C162.97068,49.4895511 155.081779,47.762077 152.687445,47.3353384 C150.293112,46.9087736 139.379954,45.4468374 136.039353,45.1148716 C132.698752,44.7829058 127.502224,44.2666112 124.328774,44.1400155 C121.155497,44.0134199 116.321589,43.7292753 115.003549,43.6852798 C113.571542,43.6372847 105.777786,43.4917345 103.096637,43.7600547 C100.394594,44.0304616 95.0656224,44.4403324 94.3049822,44.5535381 C93.5443419,44.6667439 89.1505869,45.5195255 89.1505869,45.5195255 C89.1505869,45.5195255 87.5818203,44.9548881 85.5587417,44.5651891 C83.5354904,44.1753162 76.7206373,42.9634412 73.9550495,42.4998368 C71.1894617,42.0364063 67.5984799,41.7108746 64.2577065,41.3790827 C60.9171058,41.0471169 55.6535788,40.876178 54.0602922,40.9003495 C51.5892906,40.9379108 48.5679688,41.1724953 46.6785419,41.330566 C46.4550984,41.3493467 46.4214265,40.3398855 45.7115532,39.7248184 C45.1285971,39.219827 44.2103031,38.7892627 44.2103031,38.7892627 L43.0324763,39.8124616 Z" id="Fill-8" fill="#D16027"></path>
                    <path d="M57.773448,27.7887858 C57.6082565,27.9115523 58.0435258,28.3562065 57.558146,29.889623 C57.0727662,31.4232059 56.2056834,32.1080698 56.2056834,32.1080698 C56.2056834,32.1080698 68.7035652,32.7536751 72.6037103,33.1241371 C76.5036826,33.494599 86.1976278,34.0545339 88.3895263,34.6236181 C90.5815975,35.193035 93.1450042,35.7975518 93.1450042,35.7975518 C93.1450042,35.7975518 100.665194,35.6092433 102.559022,35.4280879 C104.45285,35.2469325 112.122162,35.4339101 115.873186,35.429086 C119.624036,35.4244282 125.585274,35.8101944 129.336298,35.8053702 C133.087321,35.8007124 141.517793,35.8793961 146.142465,36.4992171 C150.766965,37.1190381 160.25684,37.84 160.25684,37.84 C160.25684,37.84 163.950323,36.5660899 167.180889,36.1508797 C170.411282,35.7355031 196.106,32.0382027 201.175273,31.9783166 C206.244718,31.9182642 210.997604,31.286466 214.526241,31.6216617 C218.054705,31.9568574 222.975029,31.5215189 222.975029,31.5215189 C222.975029,31.5215189 229.080378,28.6714402 232.384036,27.5410903 C235.687868,26.4107404 239.305666,24.0464045 242.164724,23.5957617 C245.023783,23.1452852 252.047361,23.0752518 252.047361,23.0752518 L249.080307,21.5296917 L245.867365,19.9457047 L243.225683,18.7320134 L240.653982,17.6 C240.653982,17.6 236.957216,17.6853377 234.469666,18.1710804 C231.981943,18.6568231 228.584112,18.87574 226.802773,19.7896682 C225.021435,20.7035964 217.783418,23.6267028 217.783418,23.6267028 C217.783418,23.6267028 209.626134,23.1677425 208.307712,23.2229708 C207.189213,23.2698816 197.357032,23.4916264 194.702045,23.7810759 C192.047057,24.0703589 185.047324,24.6692198 181.259668,25.0315306 C177.472012,25.3938414 159.815695,27.5078203 159.815695,27.5078203 C159.815695,27.5078203 147.87473,26.9151144 144.680969,26.9728379 C141.487035,27.0303951 129.954384,26.1154688 126.946377,26.1908254 C123.938197,26.2660157 114.0407,26.3187488 111.538808,26.4872615 C109.416373,26.6303228 99.9857664,27.6014755 99.9857664,27.6014755 C99.9857664,27.6014755 93.1876845,26.2334111 89.677191,25.7195552 C86.1670432,25.205533 79.5179102,24.2127547 77.6607147,24.0364235 C75.8035192,23.8599259 70.4176869,23.3483989 70.4176869,23.3483989 L68.5388921,22.011442 C68.5388921,22.011442 65.9449008,23.1146768 63.1046773,24.5642528 C60.883231,25.6979297 58.3656148,27.3486231 57.773448,27.7887858" id="Fill-10" fill="#D16027"></path>
                    <path d="M73.7699594,20.1800927 C74.6057397,20.2624598 74.6520472,21.3540823 74.6520472,21.3540823 C74.6520472,21.3540823 94.7460238,22.8425489 102.998426,24.4938541 C103.611308,24.6165432 114.545741,23.697926 126.078196,23.7105051 C137.610478,23.7232565 157.518361,24.478518 159.282191,24.632224 C161.347711,24.8124666 176.158837,21.8045167 182.397902,21.2963565 C188.636794,20.7880239 198.876096,19.6827884 201.950703,19.8538983 C205.386094,20.0449969 214.263819,20.5043916 214.263819,20.5043916 C214.263819,20.5043916 218.731797,18.7715808 221.376678,17.6291251 C224.021386,16.4866693 224.925418,15.1012478 229.131793,15.2346204 C233.338168,15.3679931 238.874154,16.2497346 238.874154,16.2497346 L235.838079,15.0316321 C235.838079,15.0316321 227.836567,13.6207078 225.525514,14.2348424 C223.214289,14.8491493 218.510972,17.5340066 217.341537,17.9799606 C216.172273,18.426087 212.702325,19.2287355 212.702325,19.2287355 C212.702325,19.2287355 204.966735,18.6011602 201.59614,18.5501546 C198.225373,18.4989768 185.960983,19.4026024 183.12016,19.6841669 C180.279163,19.9655592 174.097464,20.8138713 172.409489,21.0387439 C170.623888,21.2768847 165.407388,22.4296795 163.708354,22.5430635 C162.00932,22.6564475 157.747998,23.0786219 157.747998,23.0786219 C157.747998,23.0786219 149.086432,22.5415126 143.760211,22.5206624 C133.70562,22.4815466 130.577621,22.417445 126.899462,22.3576514 C123.359016,22.3002701 118.104676,22.4894732 114.985143,22.7436394 C111.865784,22.9978057 103.875503,23.2088929 103.875503,23.2088929 C103.875503,23.2088929 98.999743,22.627843 94.8481421,21.9389232 C90.6968867,21.2498311 84.9879387,20.4320189 82.7314873,20.3801517 C80.2526565,20.3232874 75.9039034,20.0746352 75.9039034,20.0746352 L75.3566807,19.4246589 L73.7699594,20.1800927 Z" id="Fill-12" fill="#D16027"></path>
                    <path d="M96.3065856,10.1733499 C96.3065856,10.1733499 99.1613178,10.0320692 101.823606,10.924025 C104.390101,11.7838796 109.188159,13.7762729 109.188159,13.7762729 C109.188159,13.7762729 117.812098,13.214854 121.741496,13.0390027 C125.670895,12.8631514 131.260704,12.8555671 135.347354,12.9827374 C139.243448,13.1039107 144.041506,13.146242 146.859844,13.3841792 C149.637496,13.6185888 157.971137,14.08 157.971137,14.08 C157.971137,14.08 166.256882,12.1922003 169.097366,11.7145621 C171.937849,11.2369239 178.615372,10.5739099 181.428559,10.3805969 C184.227842,10.1881659 186.483095,10.1273146 190.191552,10.3119849 C193.899837,10.4964789 198.353007,10.7903287 200.763109,10.8093777 C201.275034,10.8134345 205.188811,9.34383278 206.885959,9.13323455 C208.582936,8.92228356 210.113735,8.50320366 211.423248,8.44464536 C212.733105,8.38591068 216.918809,8.53107177 216.918809,8.53107177 C216.918809,8.53107177 215.865945,8.0973523 215.229386,8.01692282 C214.677461,7.94707617 210.793899,7.84160068 209.042845,8.01198417 C207.115313,8.19930019 204.892677,8.54818067 204.118265,8.85261329 C203.343853,9.15686952 199.955049,10.0096689 199.955049,10.0096689 C199.955049,10.0096689 198.554378,9.88355688 194.046273,9.61810434 C189.588469,9.3552975 184.018917,9.11189251 181.565725,9.43749078 C179.112534,9.76291267 176.631188,9.89413971 174.934211,10.1050907 C173.237234,10.3158653 167.638841,10.8968624 166.062035,11.3111801 C165.094663,11.5653443 162.345853,12.178619 160.916341,12.5123308 C159.6379,12.8105901 157.780925,13.1515334 157.227455,13.0952681 C156.673984,13.0391791 147.959575,12.5888799 144.446137,12.326073 C140.839139,12.0560346 135.641085,11.8639563 134.146681,11.9039947 C132.652448,11.9438566 126.965816,11.9893628 125.236393,12.0533889 C123.527914,12.1165331 120.090528,12.2020776 117.801969,12.3525301 C115.223801,12.5218553 109.666781,12.9952604 109.666781,12.9952604 C109.666781,12.9952604 105.54614,11.4450528 103.70513,10.7319467 C102.059311,10.0945079 99.7407105,9.31684657 98.8143689,9.27910116 C98.4200385,9.26305054 98.3232155,9.30114871 98.3232155,9.30114871 L95.7253045,10.162238 L96.3065856,10.1733499 Z" id="Fill-14" fill="#D16027"></path>
                    <path d="M100.116373,8.63911456 C100.116373,8.63911456 101.273795,8.26988654 103.791549,9.14452873 C106.218545,9.98737578 110.414457,11.9320257 110.414457,11.9320257 C110.414457,11.9320257 118.911531,11.3904055 122.627427,11.2180133 C126.343323,11.0454374 131.629536,11.0380859 135.493992,11.1626934 C139.178657,11.2816036 143.71586,11.3231395 146.381139,11.5563651 C149.00794,11.7862826 157.753305,12.32 157.753305,12.32 C157.753305,12.32 164.749769,10.6811716 167.435753,10.2128824 C170.122082,9.74459319 176.214246,8.87877277 178.874521,8.6892884 C181.521855,8.50072297 183.852054,8.36343411 187.359,8.54428049 C190.865773,8.72512686 197.283872,8.97213655 199.563343,8.96882839 C199.797485,8.96846081 201.612297,7.82126254 203.146553,7.38862802 C204.709106,6.94772308 206.198846,6.77092001 207.437363,6.71357848 C208.676053,6.65605315 212.52774,6.64153398 212.52774,6.64153398 C212.52774,6.64153398 211.567708,6.30796063 211.114954,6.22709437 C210.596116,6.13464952 206.842261,6.12233579 205.186362,6.28921436 C203.36344,6.47300133 201.832635,6.98705349 201.10036,7.28552353 C200.367913,7.58380978 198.934595,8.42904606 198.934595,8.42904606 C198.934595,8.42904606 195.102922,8.11973258 190.837993,7.9023126 C186.620169,7.68709806 181.424886,7.60071818 179.207185,7.79332693 C176.875605,7.99604395 174.535398,8.13480312 172.930572,8.34137967 C171.325745,8.54814001 166.478827,9.28328789 164.987706,9.68964088 C164.072881,9.93885601 161.025936,10.3744311 159.674231,10.7015719 C158.465219,10.993977 157.997281,11.3483183 157.473784,11.293366 C156.95046,11.2384137 147.42123,10.7767408 144.098734,10.5188877 C140.687722,10.2542345 135.771787,10.0660366 134.358656,10.1051832 C132.945698,10.1441461 127.567864,10.1889901 125.932324,10.2516614 C124.316973,10.3135976 121.066081,10.3974045 118.901869,10.5448017 C116.46383,10.7107613 110.968666,11.0717189 110.968666,11.0717189 C110.968666,11.0717189 107.311953,9.65508893 105.570817,8.95614709 C104.014303,8.3310876 103.182816,7.94366467 102.309401,8.02195792 C101.636826,8.08205626 100.116373,8.63911456 100.116373,8.63911456" id="Fill-16" fill="#D16027"></path>
                    <path d="M4.42081894,74.6129093 C4.44165443,74.6381386 2.53512052,79.3338632 0.00765440028,83.5013061 C-0.495496982,84.3308057 23.8586141,82.779713 57.7572762,94.6923911 C58.0748023,94.8040479 109.597538,92.6038113 116.886518,93.2538076 C124.175669,93.9038039 163.529615,99.0430875 166.495143,100.319555 C166.676119,100.39746 213.256366,90.2111158 220.159975,89.1900096 C228.620736,87.9386005 267.117843,83.9491268 268.242788,83.7109823 C271.241205,83.0761577 283.888867,76.3830539 296.163212,74.1313358 C303.819654,72.726846 317.189499,71.2251892 317.033835,71.1948458 C317.033835,71.1948458 315.488393,69.825984 315.07771,69.5701108 C314.369647,69.1285974 297.461384,71.6921024 289.13063,73.8188671 C277.338429,76.8291699 268.471117,81.4207383 267.583456,81.8890152 C266.695795,82.3572921 223.471785,85.4899913 194.836066,91.5723066 C192.149665,92.1428645 166.561955,98.2449541 166.561955,98.2449541 C166.561955,98.2449541 134.488379,93.554514 123.315732,91.9081295 C112.14274,90.2615744 60.6220707,92.197244 58.2170346,92.5790934 C55.6036436,92.9938432 44.4998744,86.8000416 27.2410243,84.0031653 C21.4528893,83.0650772 4.23381606,81.8791281 4.23381606,81.8791281 C6.8730362,76.8445121 6.68190066,74.7315553 7.65273143,71.483108 L4.42081894,74.6129093 Z" id="Fill-18" fill="#D16027"></path>
                    <path d="M8.89634894,69.4152493 C9.12623682,69.460004 9.4209427,75.5682724 7.03391146,79.4238852 C6.55857939,80.1915883 26.78007,77.7215287 58.7961913,88.7429293 C59.0962555,88.8461837 108.209466,86.7405317 116.878659,87.5700868 C126.167339,88.4588121 163.164249,93.1067684 166.296947,94.1178568 C168.639211,94.8738265 207.11086,85.2210494 213.631206,84.2763388 C221.62197,83.1185821 265.963884,78.6913825 267.026381,78.4711288 C269.85815,77.8837856 278.837605,71.1204553 286.774787,69.658467 C295.441041,68.0622144 313.522327,66.881829 313.522327,66.881829 C313.522327,66.881829 311.859357,65.4039167 311.397852,65.1777963 C310.692287,64.8321623 293.213549,66.068533 285.345506,68.0360656 C274.208217,70.8212523 266.925784,76.2330563 265.663129,76.657975 C264.765529,76.9600276 216.126786,81.0846718 189.152987,87.0274984 C186.274722,87.6616078 165.97787,91.7225561 165.97787,91.7225561 C165.97787,91.7225561 129.613065,86.7054989 120.442613,85.7281022 C110.954639,84.7168462 61.3322176,86.9586063 59.0345487,86.4007644 C53.693199,85.1040501 46.1831251,81.8756742 30.1039375,79.4485255 C24.6301862,78.6223227 9.33624717,77.0748478 9.33624717,77.0748478 C11.8288886,72.4170019 10.7290566,68.2263152 10.8628409,67.6024307 L8.89634894,69.4152493 Z" id="Fill-20" fill="#D16027"></path>
                </g>
                <g id="umbrellaGreen" transform="translate(277.798376, 0.000000)">
                    <path d="M286.042196,178.304105 C286.042196,178.304105 280.00644,169.689817 279.292733,161.839549 C278.579027,153.989281 287.219312,156.34321 291.48868,143.864219 C294.038859,136.411069 293.928728,130.793868 294.081767,129.111873 C294.25483,127.224126 252.957097,77.6088778 247.449112,73.5772702 C241.942557,69.5456626 230.651974,61.9299242 230.651974,61.9299242 L186.829807,32.2928603 C186.829807,32.2928603 145.360442,15.8455703 141.972122,14.3635733 C140.569024,13.7491919 127.34757,10.3938354 125.861516,10.0629041 C124.376891,9.7334115 101.574032,4.28599311 98.8221849,3.6629788 C64.3282658,-4.13980777 46.7316043,6.55790902 46.7316043,6.55790902 C46.7316043,6.55790902 48.9656923,13.6614232 43.8581837,15.3578062 C37.6951329,17.4023867 36.0603297,17.3146179 30.9127734,18.3563324 C24.939949,19.5649514 13.593585,20.5836445 13.593585,20.5836445 C13.593585,20.5836445 -4.27768915,31.7273992 1.08869906,39.9934898 C10.1251705,53.9069963 26.0484114,81.3930062 24.7397106,93.5468211 C24.2376844,98.218709 45.6531777,90.4605262 52.1537732,93.8719972 C54.9327956,95.330973 43.1401862,113.594069 52.3096731,118.661636 C61.4791599,123.727764 151.420513,184.8882 159.358534,181.319897 C180.144706,171.976121 179.985946,171.122894 184.248163,173.6279 C188.510379,176.132907 180.666756,193.866513 190.222417,193.04494 C207.711808,191.54136 269.089158,195.463616 277.550659,197.09813 C281.529682,197.866466 286.042196,178.304105 286.042196,178.304105" id="Fill-12" fill="#475727"></path>
                    <path d="M196.916664,156.266441 C191.719893,156.744971 184.368398,157.740948 184.368398,157.740948 C184.368398,157.740948 167.380657,148.418261 153.16348,139.57987 C138.944874,130.741479 119.669525,118.14115 106.95551,110.85654 C94.241496,103.570489 67.5817881,86.9992258 63.6509887,86.4111528 C59.7187604,85.8216385 57.2082498,67.9661281 52.4601412,60.6858421 C47.7120327,53.4069974 43.5554731,41.3904177 36.6040593,34.3493966 C29.8826923,27.5418752 28.7738953,20.7905666 29.0096576,20.7819185 C29.7955317,20.75165 37.7471489,19.5351461 50.7012121,15.2845891 C64.1125111,10.8884552 71.518303,2.52138722 73.000033,0.94742715 C73.1943582,0.742754687 80.6987416,1.05985287 81.7446686,1.16074775 C81.8289715,1.16939588 74.4660454,11.5053553 67.7289609,13.5030738 C60.9933053,15.499351 44.2027476,19.9041331 44.2027476,19.9041331 C44.2027476,19.9041331 53.3889016,37.9816122 57.7955121,43.8118947 C62.2035515,49.6436185 75.930629,77.3479102 75.930629,77.3479102 C75.930629,77.3479102 111.030625,99.1671479 119.916718,104.690422 C128.80424,110.215137 151.463134,124.300062 158.846064,128.270996 C166.227565,132.24193 183.999751,143.289919 183.999751,143.289919 C183.999751,143.289919 206.908696,143.924115 217.369395,144.862437 C227.831523,145.799318 240.446946,146.221636 245.267926,147.363189 C250.087478,148.503301 271.181768,151.103506 271.181768,151.103506 C271.181768,151.103506 266.485099,139.814811 269.108489,129.408225 C272.157681,117.318136 279.327711,110.581241 279.512034,110.661957 C279.697786,110.742673 286.2977,119.070824 286.2977,119.070824 C286.2977,119.070824 278.899052,124.598422 277.72167,135.381202 C276.212791,149.206683 278.900481,164.56 278.900481,164.56 C278.900481,164.56 202.113435,155.78647 196.916664,156.266441" id="Fill-15" fill="#F4C55C"></path>
                    <path d="M54.682792,19.945983 C56.2845525,20.3227746 66.4048316,16.7760808 72.844621,15.2432241 C79.2844103,13.7117946 85.8637307,7.97714048 87.6705166,6.03181108 C89.4773025,4.08648169 90.8939708,1.76150621 91.0107213,1.76007897 C91.9603874,1.7472338 99.1106465,3.3057809 99.1106465,3.3057809 C99.1106465,3.3057809 95.1297376,8.80208574 91.1758806,11.2597946 C87.2234475,13.7160763 71.2741837,19.786132 71.2741837,19.786132 C71.2741837,19.786132 79.1363364,33.8273283 83.6967267,40.3169928 C88.2585407,46.8095118 100.067431,66.352722 100.067431,66.352722 C100.067431,66.352722 116.994837,75.5826891 125.133204,81.2231453 C133.272996,86.8636014 150.641775,96.3675988 156.567577,100.640758 C162.493379,104.91249 187.06937,116.508823 187.06937,116.508823 C187.06937,116.508823 199.620053,118.050243 204.969222,118.292874 C210.31839,118.535505 223.227868,120.386637 229.019834,120.903298 C234.811801,121.419959 253.410732,124.948099 254.843062,124.606988 C256.272544,124.267305 254.373212,111.459244 257.205125,105.858751 C260.035614,100.259685 265.998434,93.4331915 265.998434,93.4331915 C265.998434,93.4331915 273.130184,101.751152 273.124489,101.883885 C273.118794,102.018046 262.938716,118.7553 262.571379,122.810092 C261.741311,131.955852 265.905888,139.401768 264.305551,139.026403 C262.703791,138.648184 253.26693,137.106764 241.617503,134.19662 C229.968077,131.286476 225.571422,133.468727 215.248965,131.379246 C204.927932,129.289765 185.644159,130.848313 185.644159,130.848313 C185.644159,130.848313 169.602349,122.163551 158.092453,115.054464 C146.581134,107.942523 129.665119,97.5836081 119.651624,92.0116595 C109.639552,86.4382836 87.4028447,73.1620885 87.4028447,73.1620885 C87.4028447,73.1620885 82.9663239,64.3602936 76.8411915,54.452387 C70.7146354,44.5444805 66.4617831,34.5694936 63.2952805,30.7773144 C60.1302016,26.9851353 53.0810314,19.5677641 54.682792,19.945983" id="Fill-17" fill="#F4C55C"></path>
                    <path d="M260.829421,86.5810537 C260.85526,86.8192124 254.464508,96.1002266 253.156787,100.219224 C251.850501,104.338221 251.191616,114.396837 251.191616,114.396837 C251.191616,114.396837 244.631478,116.660779 235.460203,113.939171 C226.255913,111.210389 219.108664,110.811545 208.978489,109.940688 C200.718744,109.233385 188.771253,109.058353 188.771253,109.058353 C188.771253,109.058353 171.681878,100.511901 162.754635,95.0141658 C153.827392,89.5149962 144.557069,82.5753972 133.740736,77.1450928 C122.924403,71.7133538 110.597946,64.7364528 110.597946,64.7364528 C110.597946,64.7364528 104.504338,54.7610482 98.4997299,45.5230747 C92.4936863,36.2836665 89.426068,30.153233 86.404385,27.0629092 C83.3841375,23.969716 79.917456,20.6053663 79.917456,20.6053663 C79.917456,20.6053663 89.8925986,18.5221953 96.3005762,14.2382089 C102.646828,9.99726309 106.832685,5.28 106.832685,5.28 L117.469583,7.80362098 C117.469583,7.80362098 111.384588,13.5165594 108.670098,14.923991 C105.955607,16.3285532 97.0915251,20.7187068 97.0915251,20.7187068 C97.0915251,20.7187068 100.314175,29.4731896 105.292416,34.3855706 C110.269221,39.2979517 115.211575,47.2662239 116.446087,49.2575746 C117.682034,51.25036 121.216183,56.5041975 121.216183,56.5041975 C121.216183,56.5041975 134.778587,65.4724491 142.64214,69.699048 C150.505693,73.9285162 165.681576,83.2740916 170.145915,86.022959 C174.608819,88.7732611 189.243526,95.8032456 189.243526,95.8032456 C189.243526,95.8032456 203.28538,97.2006344 210.016341,98.269479 C216.748736,99.3383236 221.798751,98.1403568 227.533489,99.8246837 C233.268227,101.510445 243.058193,102.616592 243.058193,102.616592 C243.058193,102.616592 243.302224,97.2264588 244.60851,93.1074618 C245.916231,88.9884647 248.942221,84.0818225 250.043233,82.2970672 C251.14281,80.5137467 253.128077,78.007342 253.128077,78.007342 C253.128077,78.007342 260.796405,86.2639871 260.829421,86.5810537" id="Fill-19" fill="#F4C55C"></path>
                    <path d="M245.02151,71.1259186 C245.055883,71.1519433 238.798479,79.2745562 236.108754,93.6575667 C235.802257,95.3000174 231.068744,92.5312734 220.411534,90.862798 C209.754325,89.1957683 187.616375,87.2106584 187.616375,87.2106584 C187.616375,87.2106584 157.228791,69.5470839 151.438293,65.945548 C145.649227,62.3454579 131.294004,54.655145 131.294004,54.655145 C131.294004,54.655145 121.501861,40.4991281 119.482419,36.7616852 C117.462978,33.0227965 108.020298,21.4707002 108.020298,21.4707002 C108.020298,21.4707002 116.477605,17.5250593 119.015513,15.3809093 C121.551989,13.2382051 126.590567,9.66558555 126.716603,9.68004375 C129.467914,9.99667818 136.833863,12.278181 136.833863,12.278181 L122.16355,22.3020463 C122.16355,22.3020463 137.952433,44.428865 139.901695,47.6024384 C142.36656,51.6174786 185.118569,75.2233705 187.42016,76.6547316 C189.691673,78.0672971 226.163362,81.1859293 227.571243,82.06065 C227.793238,82.1994487 229.950173,74.3905786 231.322248,72.1423295 C232.694322,69.8926347 235.414124,64.6500939 235.455658,64.4852705 C235.465684,64.4433417 243.825599,70.2526437 245.02151,71.1259186" id="Fill-21" fill="#F4C55C"></path>
                    <path d="M226.579161,58.0254148 C226.579161,58.0254148 219.775925,72.3791203 219.141701,72.9092531 C218.506045,73.4408188 212.700674,72.2401395 209.067127,71.308825 C205.984768,70.5179241 188.783404,68.3286186 188.783404,68.3286186 C188.783404,68.3286186 167.423075,57.6170692 164.889041,55.7458435 C162.353576,53.8760505 149.388486,46.4928758 149.388486,46.4928758 C149.388486,46.4928758 143.24238,39.0122713 142.23163,37.1596719 C141.222312,35.3085052 137.250894,29.7850939 135.435552,27.7419332 C133.870751,25.983898 133.488498,24.3361877 133.488498,24.3361877 C133.488498,24.3361877 137.975312,21.6239134 140.649649,19.2755681 C143.323985,16.9272228 145.328305,14.96 145.328305,14.96 L155.487347,18.9976065 L146.316149,25.536867 C146.316149,25.536867 149.568875,31.2322133 151.606123,33.4114892 C153.644803,35.5907651 158.180294,42.6931127 158.180294,42.6931127 C158.180294,42.6931127 171.53909,50.931664 174.794679,52.6309547 C178.048836,54.3302455 188.034647,59.5656657 188.034647,59.5656657 C188.034647,59.5656657 196.189368,60.292091 199.324698,60.6875414 C202.460028,61.0844247 211.591139,62.7192398 211.591139,62.7192398 C211.591139,62.7192398 213.356373,58.4896393 214.172417,56.264514 C215.168851,53.5493741 215.369283,50.4860658 215.369283,50.4860658 L226.579161,58.0254148 Z" id="Fill-23" fill="#F4C55C"></path>
                    <path d="M171.852164,28.6055556 C172.10683,28.3529524 182.172604,31.3927528 182.172604,31.3927528 L192.710301,37.2896801 C192.710301,37.2896801 197.500032,42.4716122 197.638156,42.5815017 C197.77628,42.6913912 195.869883,46.1707495 195.572054,46.3205988 C195.274224,46.4704482 189.024121,45.5556538 186.95658,45.034749 C186.104817,44.8192514 174.155667,37.9932584 174.09236,37.8862231 C173.81899,37.4209767 169.64506,32.1576979 169.64506,32.1576979 C169.64506,32.1576979 171.293914,29.1578573 171.852164,28.6055556 M158.081506,29.8685712 C161.448274,33.9673068 163.924432,40.44936 165.97183,41.548255 C169.055156,43.2051602 187.644322,53.8772857 187.644322,53.8772857 C187.644322,53.8772857 192.787996,53.7274364 196.338929,54.2925824 C200.404949,54.9390751 202.725717,55.44 202.725717,55.44 C202.725717,55.44 204.616287,52.8825717 205.407622,51.2342292 C206.221977,49.5373641 206.380244,45.1175229 206.380244,45.1175229 C206.380244,45.1175229 201.429368,41.5311293 196.934588,38.4256807 C192.439808,35.320232 188.837079,32.8127535 183.818579,30.7148631 C178.798642,28.6155455 176.639018,27.8577361 176.639018,27.8577361 C176.639018,27.8577361 165.570407,23.7704177 165.442355,23.7604277 C164.714327,23.7019151 157.914606,29.6659179 158.081506,29.8685712" id="Fill-25" fill="#F4C55C"></path>
                </g>
                <g id="umbrellaOrange" transform="translate(137.886333, 85.480000)">
                    <path d="M157.599843,130.642318 C157.599843,130.642318 182.585788,111.853224 191.633014,109.256574 C200.678971,106.659925 215.012003,98.7808329 221.214981,98.2421459 C227.332847,97.7098264 233.013723,95.3958923 233.013723,95.3958923 C233.013723,95.3958923 233.904218,80.0248491 233.995681,74.2431974 C234.103659,67.4720427 232.975614,64.5086279 235.977382,54.9905519 C238.060709,48.3874981 240.987529,42.8758267 243.829237,41.3731066 C246.670945,39.8716601 248.534506,37.4303767 248.534506,37.4303767 C248.534506,37.4303767 217.080086,22.7406515 210.294031,19.044979 C203.507976,15.3493065 185.75778,4.75258318 183.353062,4.32469001 C180.948344,3.89679685 165.261149,4.50170534 161.429861,4.58448229 C157.599843,4.66725925 147.622741,0.707973971 147.622741,0.707973971 C147.622741,0.707973971 133.703833,-0.433074471 127.489422,0.182021955 C121.275012,0.795844889 114.082454,0.47110454 109.773525,0.564069424 C105.463325,0.6583078 101.164559,1.23010551 101.164559,1.23010551 C101.164559,1.23010551 91.8988371,8.70040703 88.1412273,12.1426547 C84.3823473,15.5861759 77.1618423,16.4355948 73.3724746,18.438797 C69.5831068,20.4419993 60.4063074,21.8008148 60.4063074,21.8008148 C60.4063074,21.8008148 36.2714775,35.4348154 30.6426848,39.273119 C24.4282741,43.5100255 20.2031863,47.6845308 19.9415001,48.5097533 C19.0929257,51.1777182 14.9783557,71.433875 13.0157097,76.6781133 C9.84371796,85.1531996 0,100.701258 0,100.701258 C0,100.701258 22.5380364,100.000838 34.8830165,109.764698 C47.296594,119.584591 60.1344587,135.479039 60.1344587,135.479039 C60.1344587,135.479039 65.8191455,135.80378 74.8562096,134.624526 C84.4598369,133.371411 100.009837,131.285432 109.158689,131.122425 C118.432033,130.955597 136.330857,129.93553 140.404777,130.327766 C144.486318,130.720001 155.594006,130.821881 156.493393,131.477729 L157.599843,130.642318 Z" id="Fill-1" fill="#D16027"></path>
                    <path d="M117.68065,22 C117.68065,22 158.430898,32.4875365 181.741239,47.8410555 C205.052849,63.1933003 232.726658,95.9058518 232.726658,95.9058518 C232.726658,95.9058518 204.555182,106.93108 195.036042,109.539267 C185.515632,112.147454 156.257416,132 156.257416,132 C156.257416,132 139.063802,67.023398 131.077018,51.8189547 C123.090233,36.6157856 117.68065,22 117.68065,22" id="Fill-3" fill="#F4C55C"></path>
                    <path d="M248.534506,36.96 C244.67617,36.0926687 203.055254,19.3902384 194.870287,18.1384071 C186.684047,16.8878364 157.40421,16.5613266 150.229638,17.6656611 C143.055066,18.7687351 117.68065,21.2144076 117.68065,21.2144076 C117.68065,21.2144076 131.826187,9.97692068 137.039777,7.01185795 C142.25464,4.04931654 147.459322,0.608986534 147.459322,0.608986534 C147.459322,0.608986534 180.526234,-1.52152197 184.925399,2.18732775 C189.324564,5.89617746 248.534506,36.96 248.534506,36.96" id="Fill-5" fill="#F4C55C"></path>
                    <path d="M101.695039,0.88 C101.695039,0.88 110.500351,5.89207206 112.02213,9.16746115 C113.543909,12.4441033 118.558863,20.844336 118.558863,20.844336 C118.558863,20.844336 100.189912,20.28549 92.9371227,19.9659704 C85.6830522,19.6464508 60.5967524,21.12 60.5967524,21.12 C60.5967524,21.12 73.5177852,15.6493233 84.9823677,9.73758435 C96.4456692,3.82584535 101.695039,0.88 101.695039,0.88" id="Fill-7" fill="#F4C55C"></path>
                    <path d="M60.3602296,135.35984 C60.3602296,135.35984 19.8487934,104.49472 -0.000254965297,100.652151 C-0.000254965297,100.652151 26.1515356,72.4944978 32.7653354,67.0795644 C39.3791352,61.66336 58.1764518,45.6104978 67.7873687,41.4005778 C81.5988388,35.35136 118.318941,21.6322578 118.318941,21.6322578 C118.318941,21.6322578 112.259691,30.3787733 102.416755,42.0946044 C92.5738201,53.8117067 82.9284829,74.6312356 78.3403823,84.7963111 C73.751007,94.9613867 65.1395541,119.113769 63.8009862,123.936364 C62.4624184,128.75896 60.3602296,135.35984 60.3602296,135.35984" id="Fill-9" fill="#F4C55C"></path>
                </g>
            </g>
        </g>
    </g>
</svg>