<?xml version="1.0" encoding="UTF-8"?>
<svg width="94px" height="88px" viewBox="0 0 94 88" version="1.1" xmlns="http://www.w3.org/2000/svg" xmlns:xlink="http://www.w3.org/1999/xlink">
    <!-- Generator: Sketch 47.1 (45422) - http://www.bohemiancoding.com/sketch -->
    <title>SLQmark</title>
    <desc>Created with Sketch.</desc>
    <defs></defs>
    <g id="Symbols" stroke="none" stroke-width="1" fill="none" fill-rule="evenodd">
        <g id="SLQmark" fill="#FEFEFE">
            <path d="M64.8986227,59.5973723 L49.085201,59.5973723 L49.085201,28.6638232 L57.0068122,28.6638232 L57.0068122,52.7909593 L64.8986227,52.7909593 L64.8986227,59.5973723 Z M46.1928559,52.5057169 C45.4850875,56.6789763 42.7856768,59.0847241 38.5991817,59.8629122 C37.211005,60.1209523 35.5813394,60.2344646 33.9376725,60.1186643 C29.2238835,59.786517 26.2202993,57.8672321 25.2407273,53.8532459 C24.917543,52.5291058 24.87631,51.0140414 24.8849163,49.249962 C27.5253677,49.249962 30.1740401,49.2500891 32.8144915,49.2500891 C32.8022886,50.543849 32.7904711,51.7159615 33.1325377,52.5646975 C33.4904039,53.4528387 34.2653525,53.846636 35.4981027,53.8532459 C36.7239165,53.8597286 37.5141508,53.4291956 37.9232692,52.6238053 C38.3197994,51.843202 38.2888426,50.3896605 37.8338669,49.6335901 C37.4131879,48.9348479 36.5758118,48.4862648 35.7167274,48.0993317 C34.8680475,47.7169746 33.9440951,47.416987 33.062917,47.0960258 C31.2823206,46.4474933 29.6039718,45.6685425 28.2721854,44.5879517 C26.9003222,43.4746927 25.9601848,42.0249646 25.5388635,40.0339878 C25.3179267,38.9896243 25.2670599,37.8442056 25.3301296,36.6700593 C25.3903734,35.5489193 25.6363583,34.5289616 25.9563312,33.6701836 C27.175594,30.3977768 29.9561861,28.4739158 34.1164771,28.1425312 C36.0607208,27.9874529 38.117745,28.2063421 39.622941,28.6638232 C42.2380875,29.458536 44.1106552,31.0980444 44.9504719,33.6406933 C45.3751329,34.9265722 45.4672327,36.5421833 45.4473227,38.2929158 L37.7741369,38.2929158 C37.7627047,38.2945683 37.756539,38.290882 37.7543554,38.2831281 C37.7436939,36.6157819 37.8536485,34.9273349 36.5516629,34.5161231 C35.8626484,34.2983779 34.911978,34.3681631 34.3550118,34.5850186 C33.7451235,34.8224664 33.4141037,35.3208779 33.2915608,36.0111036 C33.1555306,36.7772159 33.2177012,37.6677722 33.4803847,38.1848695 C33.7600239,38.7352704 34.2632973,39.0620789 34.8022803,39.3553294 C35.3492273,39.6526476 35.93137,39.8768756 36.5218621,40.1322464 C37.0970684,40.3811344 37.6971944,40.629514 38.2712447,40.8798002 C39.4459347,41.39194 40.6279465,41.8496753 41.7102798,42.4338884 C43.8579909,43.5932895 45.6027492,45.1856388 46.1630551,47.9419653 C46.4351157,49.2803421 46.4316475,51.097682 46.1928559,52.5057169 L46.1928559,52.5057169 Z M83.9531355,64.1695134 C87.917024,56.7692268 89.6317246,48.1122972 88.6332702,39.1627527 C85.9395114,15.0166766 63.9754409,-2.39633092 39.575157,0.269490855 C15.1750017,2.93518552 -2.42145692,24.6703021 0.27230194,48.8163782 C2.9660608,72.962073 24.9301313,90.3754618 49.3304151,87.7097672 C56.5112459,86.9252234 63.0979879,84.4814687 68.7612912,80.8259421 C68.8165254,80.7904775 94.0266967,88.0942851 93.9999788,87.9990772 C93.627726,86.6675646 83.933354,64.2067577 83.9531355,64.1695134 L83.9531355,64.1695134 Z"></path>
        </g>
    </g>
</svg>