<?xml version="1.0" encoding="UTF-8"?>
<svg width="286px" height="179px" viewBox="0 0 286 179" version="1.1" xmlns="http://www.w3.org/2000/svg" xmlns:xlink="http://www.w3.org/1999/xlink">
    <!-- Generator: Sketch 47.1 (45422) - http://www.bohemiancoding.com/sketch -->
    <title>wellbeingHeaderMotif	</title>
    <desc>Created with Sketch.</desc>
    <defs></defs>
    <g id="Symbols" stroke="none" stroke-width="1" fill="none" fill-rule="evenodd">
        <g id="wellbeingHeaderMotif-">
            <path d="M81.354993,96.3400479 C78.5226715,99.0917519 76.0599943,101.241294 75.4452036,100.380685 C74.8302454,99.5200769 74.8625412,97.1397969 77.294094,95.5063231 C79.7256468,93.8730143 81.08073,91.6654167 82.8032821,92.5839159 C84.5256668,93.502415 81.354993,96.3400479 81.354993,96.3400479 M93.5886696,99.9050963 C93.4549948,98.9739824 94.1390263,96.8489743 95.3471509,95.2539388 C96.5552755,93.6587267 98.6834672,94.6302548 99.4840012,95.8361497 C100.236217,96.9693344 99.1461102,97.7892653 97.4276977,100.561782 C96.0332027,102.811915 93.7223445,100.836034 93.5886696,99.9050963 M117.089487,101.084649 C119.365618,100.46915 121.848627,99.9715157 122.142949,102.320544 C122.437271,104.669572 122.435181,108.486511 120.720849,108.603194 C119.006517,108.719708 118.149431,108.777965 118.149431,108.777965 C117.20474,106.604722 114.813356,101.699979 117.089487,101.084649 M134.288156,114.647744 C134.409866,112.427813 132.513767,109.312994 134.441154,109.868864 C136.368704,110.425088 136.399009,109.870105 136.457817,112.768072 C136.516461,115.666394 137.175959,121.493713 135.640897,119.735499 C134.105671,117.977286 134.288156,114.647744 134.288156,114.647744 M127.722822,108.662821 C126.876992,111.590587 125.220192,110.94925 125.376978,110.186697 C125.800403,108.126736 125.849378,103.934014 127.381021,104.788838 C128.912664,105.643661 128.568652,105.735055 127.722822,108.662821 M147.953181,118.170055 C147.791323,115.825239 148.499214,113.723599 149.857052,115.745575 C151.214891,117.767396 151.567876,118.468252 149.827785,119.734041 C148.087546,120.999675 147.953181,118.170055 147.953181,118.170055 M102.007596,85.234786 C100.933882,84.3796471 103.946635,81.6579535 104.195859,81.2601266 C104.195859,81.2601266 105.43369,79.4970688 107.15933,80.2454443 C108.884971,80.9936478 107.330643,82.8462768 106.235964,85.8052224 C105.141285,88.7639961 103.491679,86.4167482 102.007596,85.234786 M120.415314,92.4400748 C119.206721,90.9903702 124.470802,89.2192271 127.740296,88.5401245 C132.284697,87.5958777 130.060766,89.1918453 129.078495,91.7050181 C128.096403,94.2180208 127.148267,94.2768662 124.72877,95.2219634 C122.309274,96.1670606 121.624085,93.8896093 120.415314,92.4400748 M99.7405712,71.6509052 C97.2228651,81.8261295 96.4453971,71.0823571 96.6925227,68.7874474 C96.9396482,66.4925378 98.0178774,62.3955828 98.9410475,59.9267506 C99.8640505,57.4579184 105.39622,53.9746211 105.39622,53.9746211 L106.318221,53.3940437 L106.840209,53.9463859 C107.362196,54.4985609 104.626104,57.6056106 102.841921,61.4974004 C101.057739,65.3893573 101.068767,66.2831958 99.7405712,71.6509052 M108.030962,71.7263688 C108.550875,70.3758803 113.287903,64.7991413 116.894741,59.6917043 C120.501579,54.5842673 124.465879,53.2074344 128.290483,53.41363 C128.840296,53.4433519 128.044812,55.7332886 123.645811,57.4048073 C119.246976,59.076326 119.887151,61.337723 118.297345,64.0089781 C116.707705,66.6802332 112.825462,72.7272873 110.961414,74.4293723 C109.097366,76.1314572 107.510882,73.0768573 108.030962,71.7263688 M109.988381,148.077163 C109.023166,147.281186 104.636068,137.792829 103.175284,132.076806 C101.71433,126.360614 102.246833,121.175921 102.873707,114.400459 C103.50058,107.624828 103.688134,106.358008 105.716324,100.614369 C107.744513,94.8707294 107.961547,96.9035372 110.54596,98.8492587 C113.130542,100.794811 109.078568,104.622718 107.020051,108.981784 C104.961534,113.340851 107.07647,119.410811 108.284641,131.283879 C109.492812,143.157117 116.124964,148.934643 117.556607,151.351038 C118.98825,153.767602 122.009949,154.034283 125.716974,154.124589 C129.423998,154.214894 128.147548,152.976877 128.147548,152.976877 C128.147548,152.976877 125.251732,150.589116 122.82336,147.906887 C120.394988,145.224828 119.712713,139.656547 117.440551,136.23798 C115.168389,132.819413 117.230294,122.715521 117.637931,117.736853 C118.045907,112.758354 122.12482,116.060015 123.182372,119.094826 C124.239755,122.129805 124.328703,130.113634 124.232131,135.534342 C124.135559,140.95505 127.028156,149.087468 128.491312,150.973719 C129.954469,152.859971 134.283961,153.834357 138.270876,154.896845 C142.257791,155.959504 150.26415,155.639452 155.871279,155.936969 C161.478577,156.234317 153.225026,153.136818 150.32921,150.749057 C147.433393,148.361295 145.176988,144.106089 140.55727,133.421394 C136.71928,124.545184 138.628533,127.767721 139.410769,122.402755 C140.650623,113.899627 145.857569,125.61716 147.53742,129.53622 C149.217441,133.45528 151.518914,140.173475 153.415968,146.125342 C155.312853,152.077379 160.545891,152.993312 170.826615,152.261887 C181.107338,151.530632 178.055143,149.879378 173.66381,148.050563 C169.272477,146.221917 169.521871,145.809527 166.222653,140.740553 C162.923266,135.671749 162.860409,136.732374 161.244431,129.837804 C159.628284,122.943234 169.747376,132.523082 172.642176,136.825729 C175.536806,141.128376 179.460864,143.251489 182.762284,144.490523 C186.063705,145.729556 187.967197,140.191942 190.89656,138.21962 C193.826092,136.247129 196.381194,134.893223 194.420435,131.916866 C192.459508,128.940339 192.771928,127.467493 192.836987,122.577098 C192.902046,117.686702 192.343451,113.827112 188.60593,112.352233 C184.868579,110.877185 179.229937,111.11015 175.64761,110.81365 C172.065113,110.517318 165.801801,113.695804 160.59909,114.164614 C155.39638,114.633255 163.343102,109.629003 166.926445,108.010448 C170.509959,106.392064 179.812591,106.897301 186.353422,108.520938 C192.894592,110.144575 190.768135,107.442184 190.05333,104.318932 C189.338695,101.195849 189.79682,99.8615963 186.308863,97.9743279 C182.820905,96.0870594 173.31886,96.9660565 169.113048,97.7005308 C164.906897,98.4348356 155.621885,101.346641 150.200108,103.612413 C144.77833,105.878186 142.723033,104.492427 141.50944,102.193955 C140.295847,99.8953127 148.739323,97.8963906 151.637173,96.4542118 C154.535191,95.0122025 168.057698,90.8356108 171.640025,91.1321114 C175.222353,91.4286119 177.994658,92.1075135 178.743009,90.8705131 C179.49136,89.6335128 175.039034,85.0355514 173.202973,81.8528296 C171.366742,78.6702773 170.213804,79.1409507 167.223617,78.3441266 C164.233431,77.5471331 157.970119,80.7256192 154.885563,81.519563 C151.801007,82.3133374 148.279334,84.7863215 139.149515,88.8766739 C130.019528,92.9670263 132.389279,89.0499997 133.761284,86.7821939 C135.13329,84.5145576 139.360789,86.3764117 152.137146,79.6070496 C164.913335,72.8376875 168.112422,77.1203417 167.444887,72.7172236 C167.187869,71.0217486 159.349749,65.0534464 157.138241,64.4041949 C154.926733,63.7549433 149.848889,64.0173887 151.374733,64.8431851 C152.900746,65.6688121 153.163186,65.4741383 154.034031,67.8608832 C154.904877,70.2474586 147.154181,69.6056619 143.999821,70.095142 C140.59268,70.6237602 137.580638,70.8187728 131.679387,74.1944741 C128.788145,75.848439 125.527895,79.259551 121.397138,80.9133464 C117.632171,82.4207553 122.302886,77.0249533 123.892772,74.8752394 C125.482828,72.7253562 134.054051,64.7754136 141.781706,61.5681246 C149.509361,58.361005 155.457204,62.4000205 155.457204,62.4000205 C155.457204,62.4000205 154.772726,60.6615106 152.717597,59.2759211 C150.6623,57.8901621 141.413037,52.6121132 134.560633,50.5462667 C127.708229,48.4805896 129.855863,52.1053514 129.855863,52.1053514 C129.855863,52.1053514 125.650898,50.9247708 122.910275,49.7155568 C120.169483,48.5063428 112.754248,50.2407864 109.701205,50.5042483 C106.647993,50.7678797 104.466982,51.5032011 100.167816,51.9135578 C95.8684813,52.3237452 91.4109031,57.3003801 88.1062637,61.8061722 C84.8014549,66.3117948 85.0476298,71.6443998 86.2917193,75.3274452 C87.5358089,79.0106599 94.9666307,83.8900427 95.8071494,84.8922146 L96.1612481,85.3195143 C96.1612481,85.3195143 96.2146171,85.2954554 96.1202472,86.8862232 C96.0258773,88.4771606 94.4466646,87.6755925 90.2416995,86.4950119 C86.0367343,85.3144314 85.2277288,83.7821165 77.2213694,84.1019982 C69.2150101,84.4220494 72.7953043,88.5483207 68.0556331,96.382374 C63.3159619,104.216427 67.770321,104.984618 67.9548251,109.462793 C68.1391598,113.940799 66.8110353,112.025744 66.6749868,113.969602 C66.6055224,114.961947 69.9135504,116.269091 69.1021729,118.566546 C68.2909648,120.864172 73.0555415,123.989288 76.8232201,126.848908 C80.5910681,129.708529 84.8275464,130.358797 84.8275464,130.358797 C84.8275464,130.358797 84.0844472,122.021032 83.9316257,117.012714 C83.7786347,112.004396 87.2687947,110.061724 89.2644547,106.763282 C91.2601146,103.464671 91.9456092,103.288296 93.8760404,104.88008 C95.8066411,106.472034 90.9727694,115.896855 87.4792209,123.584183 C83.9858418,131.271511 86.9760279,132.068504 87.6593199,135.7219 C88.3426119,139.375464 90.9282106,139.406131 95.599434,142.207299 C100.270657,145.008297 110.953766,148.87314 109.988381,148.077163 Z" id="Fill-86" fill="#6657A5" transform="translate(130.494731, 102.624196) rotate(120.000000) translate(-130.494731, -102.624196) "></path>
            <path d="M51.5568042,34.1397914 C48.282164,33.8131017 51.248587,28.3430098 51.2983862,28.3822126 C51.2997322,28.3822126 52.795057,29.2106976 53.6187642,30.697789 C54.2957655,31.9183016 54.6833924,34.4534135 51.5568042,34.1397914 M62.0133104,29.3309194 C63.3134758,33.7556043 64.9232044,34.6010772 63.6203471,36.8134197 C62.3188358,39.0244554 57.9270763,34.2273442 57.8261318,31.3158858 C57.785754,30.1267354 59.7346561,28.5181155 61.3834166,27.6948575 C61.6095323,28.1378487 61.8194969,28.6762333 62.0133104,29.3309194 M34.3087508,49.0864974 C35.8134971,52.3952105 36.4339694,57.0812472 32.4486798,56.2200932 C31.7662949,56.0724294 31.7407223,56.4357084 27.8886794,53.5556122 C26.2008871,52.29459 26.4485376,52.0802816 25.3462235,50.9420948 C23.7728349,49.3191005 23.164476,46.2952608 23.2788797,43.2714212 C26.3341338,43.5301594 31.9089631,43.8098058 34.3087508,49.0864974 M96.9603027,45.2537741 C97.1904562,40.4017791 96.5807513,37.001593 90.7757686,28.1861988 C87.1633007,22.704346 87.0960044,23.5419783 83.9398058,21.2342425 C80.7647642,18.9147458 77.7552716,16.8095575 69.6164515,13.3335794 C61.4789774,9.85629445 58.2231802,11.1212369 54.3173003,11.7524013 C50.4114204,12.3861793 45.2026833,12.0686369 40.3196604,12.3861793 C35.4366376,12.7011081 32.8336149,15.2296862 30.880675,18.7056644 C28.927735,22.1829493 25.3462235,29.4511412 23.0675692,37.353111 C22.5884192,39.0166149 22.3111583,40.5690442 22.1994464,42.0064788 C18.3541332,42.1998791 15.5048059,43.2518198 13.2799887,44.8303843 C11.6096934,46.013001 10.292031,47.4935586 9.16683605,49.1309272 C6.37807549,53.19364 5.97968112,60.5441577 9.7644276,66.7342737 C13.55052,72.9243897 15.9408862,76.2121945 33.2750789,89.3673344 C50.6092717,102.521167 53.3980322,103.488169 53.9956238,118.577312 C54.5945613,133.665148 52.4020463,135.407057 49.4140886,138.694862 C46.4247849,141.982667 49.6132858,141.016972 49.8124829,140.242064 C50.0116801,139.46977 51.6590947,138.408682 52.7358362,136.400194 C53.9660134,134.105525 55.9889415,131.924545 55.9889415,123.799119 C55.9889415,115.676307 55.39135,111.420194 54.1961669,108.131083 C52.9996379,104.841971 52.003652,101.554166 46.2255877,96.9112524 C40.4475235,92.2683387 29.8873809,85.3046216 26.5010288,82.0168167 C23.1133307,78.727705 17.8736373,76.7845549 13.3513228,70.0220786 C8.71998832,63.0975642 7.57325858,58.6101548 8.37004732,54.547442 C9.13184195,50.6650619 15.1817834,42.8428043 22.1173448,43.2714212 C22.1483011,47.8084874 23.9330002,51.3498035 25.9976521,53.1544373 C27.1430359,54.1554144 28.0582662,55.2321836 29.0407929,55.8345994 C30.7097422,56.8577914 31.9210765,57.0812472 33.6896244,57.1661865 C35.9575113,57.2759542 36.1957403,54.5539758 36.1957403,53.3935741 C36.1957403,52.2331724 35.9171335,50.9329475 35.9171335,50.9329475 C35.0503565,47.0374998 31.0839099,41.9738098 23.5117251,41.9738098 L23.4605799,41.9738098 C24.2250664,35.20872 27.7527408,26.6742789 30.880675,20.603078 C35.7636978,11.1212369 44.3130256,14.1620644 56.6834398,12.5808863 C69.0525082,11.0010151 82.6382944,21.2342425 86.21846,24.7102206 C89.7986256,28.1861988 95.3303852,37.3295894 95.3303852,44.9153236 C95.3303852,52.5010579 90.6250248,72.2919184 66.2126024,71.0282828 C41.7974882,69.7633404 41.4758116,61.2916237 38.4205575,44.8839614 C36.4676176,29.0813285 45.4153397,26.1711768 47.7276421,26.2129931 C49.4100508,26.2979324 50.3293189,27.1904486 50.3293189,27.4060638 C50.179921,27.6857102 49.8959304,28.3051138 49.8313259,28.444937 C49.2996848,29.5961914 49.2673825,29.7268673 49.0735691,30.5174563 C48.3171581,33.6066338 49.4934983,35.6112017 53.015789,34.8232262 C56.791114,33.9803668 54.9539237,29.9150405 52.1476661,27.2727744 C53.0682801,26.2717973 54.7601103,25.2342308 56.3725307,25.3100228 C58.3766159,25.4041095 59.6202524,25.2865012 60.8800399,26.8938144 C60.2407247,27.3694746 57.9997564,28.5494777 57.2944907,30.069238 C56.053546,32.7350258 58.0818579,36.1325984 61.4009137,37.7464454 C65.3081395,39.6425523 65.6890368,35.4883664 63.1102408,29.2120043 C62.8100991,28.4802195 62.1613624,27.285842 62.242118,27.2387987 C63.2825195,26.6363829 63.8208903,25.5543867 65.9393792,25.6484734 C66.6756012,25.6798356 67.4064396,26.1202132 68.1090134,26.4651975 C69.7147042,27.2505595 71.3876914,28.4919803 73.862851,29.8392485 C77.3407261,31.7301283 77.0648111,32.8970639 77.7552716,32.9271193 C77.7552716,32.9271193 78.7310686,32.6121905 77.7552716,31.347248 C76.7781287,30.0836124 72.2208201,28.1861988 68.3149402,25.6589274 C65.6338538,23.9235519 63.7616695,24.8160681 61.5960731,26.3684974 C60.3430151,24.6605638 58.982283,24.3835309 57.251421,24.3547822 C54.7130028,24.3116592 52.4545375,25.3518391 51.1422587,26.4377556 C50.6186932,26.045728 50.0587876,25.8144317 49.5096494,25.6053503 C45.7921992,24.1875171 43.0397787,26.0365807 40.2792826,29.1518934 C37.2442174,32.5782147 37.3909234,34.8232262 36.7394948,39.2479112 C36.0894121,43.6739029 37.9965906,54.3422809 42.0061068,62.194594 C44.7343007,67.5366235 51.8677133,70.1893437 57.2473832,71.4856483 C62.9433459,72.857745 72.4536655,72.5101471 77.7552716,71.1694127 C81.5521314,70.1566747 85.66663,69.7319781 92.1768785,60.4213224 C96.8970442,53.6706069 96.7261115,50.1946288 96.9603027,45.2537741" id="Fill-1" fill="#526A32"></path>
            <path d="M184.831966,148.514301 C188.10952,148.6745 185.450702,154.268418 185.398358,154.233252 C185.398358,154.233252 183.864269,153.483055 182.962338,152.045177 C182.224151,150.86518 181.70205,148.360615 184.831966,148.514301 M174.67853,153.830803 C173.144441,149.492423 171.49627,148.733109 172.674686,146.465586 C173.85176,144.198063 178.483552,148.750041 178.739904,151.642728 C178.844593,152.82533 176.989728,154.523693 175.393901,155.427577 C175.142917,154.997776 174.905355,154.472899 174.67853,153.830803 M201.203628,132.764068 C199.527271,129.547077 198.658894,124.915651 202.671951,125.569469 C203.361821,125.681477 203.367189,125.318101 207.356087,127.989376 C209.104921,129.161559 208.870043,129.386878 210.028327,130.462682 C211.68321,131.998242 212.450925,134.976889 212.499243,137.993307 C209.444488,137.891718 203.87721,137.894323 201.203628,132.764068 M139.020036,139.752884 C139.050906,144.594 139.841438,147.947746 146.097243,156.426537 C149.988163,161.701361 150.009638,160.863901 153.277796,163.001182 C156.563403,165.148882 159.675871,167.092101 167.96639,170.139777 C176.256909,173.186151 179.431117,171.763902 183.287141,170.936861 C187.143165,170.109821 192.346718,170.159313 197.191913,169.597968 C202.037109,169.036622 204.493261,166.387489 206.252832,162.827959 C208.011061,159.269732 211.185268,151.852418 213.029396,143.873759 C213.41728,142.192327 213.609208,140.633324 213.644105,139.198051 C217.462548,138.809928 220.243503,137.619511 222.376194,135.935475 C223.973364,134.672122 225.206809,133.131352 226.238929,131.446013 C228.798428,127.26132 228.79977,119.924756 224.696788,113.955739 C220.593807,107.98542 218.035651,104.83355 200.066819,92.6194024 C182.097988,80.4052547 179.267373,79.5834241 177.86079,64.5964122 C176.454207,49.6094002 178.542607,47.7651655 181.34101,44.3410885 C184.140754,40.915709 181.018891,42.0397024 180.861859,42.8211578 C180.704826,43.6000083 179.121078,44.7396307 178.156065,46.7922536 C177.055494,49.1392246 175.159023,51.4119573 175.595225,59.4987182 C176.031427,67.585479 176.856855,71.7910114 178.223173,75.0040955 C179.592176,78.2158772 180.761197,81.4393806 186.763334,85.7673411 C192.766813,90.0953015 203.657096,96.4915138 207.20845,99.5925893 C210.75712,102.693665 216.080124,104.363374 220.948137,110.863781 C225.932917,117.520478 227.315341,121.930492 226.740897,126.014898 C226.190612,129.916966 220.588438,138.008936 213.657526,137.934698 C213.381041,133.419188 211.414778,129.984692 209.261954,128.294143 C208.067432,127.355094 207.098393,126.331388 206.087747,125.781764 C204.371125,124.846623 203.151102,124.686424 201.387504,124.690332 C199.120597,124.695541 199.030672,127.417611 199.093753,128.57156 C199.155493,129.726812 199.504454,131.008398 199.504454,131.008398 C200.574155,134.841437 204.797931,139.681251 212.338183,139.297035 C212.355632,139.295733 212.371737,139.29443 212.387843,139.293128 C211.990564,146.064439 208.937151,154.738594 206.150828,160.940745 C201.798205,170.625582 193.121144,168.032452 180.88736,170.232249 C168.653576,172.430744 154.574322,162.934758 150.821644,159.656553 C147.068966,156.377045 141.068171,147.558321 140.660155,140.00816 C140.252138,132.459301 143.873285,112.520466 168.253612,112.542608 C192.632598,112.563446 193.41105,120.978418 197.335524,137.155847 C200.129901,152.784955 191.377678,156.134794 189.070506,156.210335 C187.390122,156.210335 186.427794,155.37027 186.417057,155.156672 C186.549931,154.870139 186.800914,154.238462 186.855943,154.096498 C187.323015,152.92171 187.349858,152.791467 187.498837,151.995685 C188.086703,148.880283 186.807625,146.944879 183.342169,147.907371 C179.628414,148.938892 181.675207,152.891754 184.611852,155.379387 C183.748844,156.421328 182.120804,157.541414 180.510213,157.547926 C178.510395,157.554438 177.278293,157.734173 175.937475,156.198613 C176.546816,155.693272 178.715746,154.405173 179.337165,152.857891 C180.429683,150.141031 178.2272,146.860221 174.83422,145.424948 C170.841296,143.735702 170.685605,147.889137 173.591381,154.004026 C173.929605,154.717755 174.639607,155.874309 174.561762,155.925103 C173.559169,156.576316 173.080018,157.680773 170.966117,157.696402 C170.229271,157.701612 169.480346,157.299162 168.760948,156.993092 C167.119487,156.292387 165.388102,155.142346 162.848736,153.92588 C159.285302,152.219702 159.497364,151.043612 158.807494,151.048822 C158.807494,151.048822 157.851876,151.413501 158.893392,152.62085 C159.933565,153.830803 164.573411,155.487488 168.599889,157.805806 C171.363396,159.396068 173.177995,158.414039 175.251632,156.758656 C176.591107,158.394502 177.962794,158.601588 179.687469,158.542979 C182.218782,158.458321 184.410528,157.306977 185.657395,156.15954 C186.202311,156.522917 186.771387,156.726095 187.328383,156.904527 C191.109246,158.128808 193.750616,156.147818 196.330247,152.908686 C199.168914,149.343947 198.901825,147.115496 199.312525,142.679435 C199.723226,138.24207 197.248284,127.719774 192.833921,120.107096 C189.830168,114.928651 182.582507,112.649406 177.156156,111.633514 C171.410371,110.555106 161.957542,111.382146 156.751305,112.986735 C153.024128,114.186269 148.949332,114.816643 142.967327,124.414217 C138.629467,131.373078 138.987824,134.823203 139.020036,139.752884" id="Fill-12" fill="#526A32"></path>
            <g id="nuts" transform="translate(0.000000, 79.000000)">
                <path d="M4.5468,19.5400549 C6.2388,19.1108242 8.03213333,19.2028022 8.2908,17.8703984 C8.54946667,16.5379945 9.5748,15.3588874 8.20013333,13.7594918 C6.8268,12.1588187 6.34146667,11.5609615 2.87613333,12.2252473 C2.55746667,12.2865659 0.904133333,13.0990385 0.704133333,14.2973077 C0.5068,15.493022 0.409466667,17.2125 1.2588,18.118228 C2.1068,19.023956 2.8548,19.9680082 4.5468,19.5400549 M38.1308,26.7628846 C39.8228,26.3336538 41.6161333,26.4269093 41.8748,25.0945055 C42.1334667,23.7621016 43.1588,22.581717 41.7854667,20.9823214 C40.4094667,19.3829258 39.9254667,18.7850687 36.4614667,19.4493544 C36.1414667,19.5106731 34.4881333,20.3218681 34.2908,21.5201374 C34.0908,22.7171291 33.9948,24.4353297 34.8428,25.3410577 C35.6908,26.2467857 36.4388,27.1908379 38.1308,26.7628846 M27.6214667,27.0911951 C29.3134667,26.6632418 31.1081333,26.7552198 31.3654667,25.4215385 C31.6254667,24.0904121 32.6494667,22.9100275 31.2748,21.3106319 C29.9014667,19.7112363 29.4148,19.1133791 25.9521333,19.7776648 C25.6321333,19.837706 23.9788,20.6501786 23.7801333,21.8484478 C23.5814667,23.0454396 23.4854667,24.7649176 24.3334667,25.6706456 C25.1828,26.5763736 25.9294667,27.5191484 27.6214667,27.0911951 M35.5121333,43.9883242 C35.2214667,43.2933791 35.1961333,42.4119231 35.2668,41.6147802 C34.9748,41.9418132 34.6214667,42.2356319 34.2761333,42.5498901 C33.9214667,42.8718132 33.5294667,43.0289423 33.0921333,43.087706 C34.2908,43.3432005 35.0214667,43.6153022 35.5121333,43.9883242 M31.3228,35.9121429 C30.9161333,35.6221566 30.5734667,35.2286951 30.2121333,34.8428984 C30.1521333,34.7803022 30.0988,34.7138736 30.0494667,34.6436126 C29.9934667,35.3296154 29.6694667,35.9709066 29.4988,36.6441346 C30.1108,36.2455632 30.8828,36.0002885 31.3228,35.9121429 M31.2828,42.9906181 C31.0001333,42.9510165 30.7041333,42.9075824 30.3948,42.8718132 C29.6988,42.7875 29.2428,42.5460577 28.9161333,42.2126374 C29.0161333,42.5946016 29.1028,42.9816758 29.2508,43.347033 C29.3468,43.576978 29.3694667,43.7941484 29.3401333,44.0010989 C29.7881333,43.4109066 30.6188,43.1170879 31.2828,42.9906181 M28.9054667,49.5708791 C28.6094667,49.1237637 28.4294667,48.5923352 28.2281333,48.0609066 C27.8894667,47.1679533 28.2428,46.0310027 28.7281333,45.0588462 C28.2508,45.5621703 27.5761333,46.064217 26.9921333,46.6595192 C25.7934667,47.8795055 24.6361333,47.4553846 23.4161333,47.1155769 C23.2268,47.0632005 23.0454667,46.9801648 22.8721333,46.877967 C23.8868,48.275522 23.1014667,49.3588187 22.8081333,50.5443132 C22.9641333,50.2262225 23.1361333,49.927294 23.3001333,49.6654121 C23.9174667,48.6804808 25.6708,48.5259066 25.9748,48.5808379 C27.4948,48.854217 28.3548,49.1493132 28.9054667,49.5708791 M26.9081333,39.9004121 C27.4001333,40.0600962 27.7601333,40.2683242 28.0321333,40.511044 C28.0321333,40.5097665 28.0308,40.508489 28.0294667,40.5072115 C27.7014667,39.6423626 27.9801333,38.7621841 28.4174667,37.9407692 C27.6881333,38.2141484 26.6788,38.2882418 25.7028,38.534794 C24.0121333,38.9640247 23.2641333,38.0199725 22.4148,37.1142445 C21.5668,36.2085165 21.6628,34.4903159 21.8614667,33.2933242 C21.8641333,33.276717 21.8668,33.2613874 21.8708,33.2460577 C21.2134667,32.9803434 20.5214667,32.6724725 20.1654667,32.5025687 C19.7134667,34.4200549 19.1908,36.3515934 18.8681333,37.5153709 C20.3628,38.1017308 20.6214667,38.9193132 21.1174667,40.4267308 C21.2694667,40.8891758 21.3148,41.2864698 21.2841333,41.6390522 C21.3921333,41.4665934 21.4854667,41.3426786 21.5428,41.2928571 C24.1188,38.9767995 24.8588,39.2386813 26.9081333,39.9004121 M22.4694667,51.3478434 C22.1361333,51.7234203 21.5748,51.900989 20.9134667,52.0364011 C21.6681333,52.3033929 22.1081333,52.7236813 22.3841333,53.2308379 L22.3761333,53.2103984 C22.1654667,52.6546978 22.2508,51.992967 22.4694667,51.3478434 M21.4934667,45.4012088 C21.2308,44.9821978 21.0121333,44.5414698 20.8401333,44.1505632 C20.6761333,43.7788187 20.6734667,43.3598077 20.7508,42.9612363 C20.3734667,43.4824451 19.8774667,43.9359478 19.5188,44.4763187 C19.4174667,44.6270604 19.3028,44.7458654 19.1761333,44.8403984 C20.2908,44.7726923 20.9308,44.9681456 21.4934667,45.4012088 M18.3894667,31.6134478 C18.2281333,31.6479396 18.0668,31.6837088 17.9068,31.7233104 C17.4041333,31.8510577 16.9828,31.8574451 16.6201333,31.7782418 C16.7614667,31.9468681 16.9134667,32.1321016 17.0761333,32.3416071 C17.3628,32.7069643 17.3761333,33.8732967 17.2041333,34.4200549 C17.0334667,34.9668132 16.5441333,35.9172527 15.5428,36.8306456 C15.4254667,36.9353984 15.3054667,37.023544 15.1828,37.0950824 C15.8001333,36.9200687 16.3788,36.8932418 16.5481333,36.9226236 C16.6814667,36.9481731 16.8094667,36.9724451 16.9348,36.996717 C17.2414667,35.8942582 17.8841333,33.557761 18.3894667,31.6134478 M17.4174667,45.0818407 C16.8881333,45.0077473 16.3068,44.8723352 15.7054667,44.7714148 C15.5321333,45.3462775 14.7908,46.7987637 14.4121333,47.483489 C14.4748,47.5218132 14.5388,47.5639698 14.6028,47.6074038 C14.7974667,47.7389835 14.9561333,47.8437363 15.0788,47.926772 C15.1041333,47.6597802 15.1388,47.4030082 15.1788,47.1653984 C15.3774667,45.9684066 17.0308,45.1559341 17.3508,45.0946154 C17.3734667,45.0895055 17.3948,45.0856731 17.4174667,45.0818407 M16.7641333,51.9980769 C16.6214667,51.8882143 16.4841333,51.7668544 16.3521333,51.6365522 C16.3321333,51.7374725 16.3134667,51.8396703 16.2961333,51.9405907 C16.2348,52.2855082 16.1054667,52.5716621 15.9214667,52.8246016 C16.0681333,52.6738599 16.2228,52.5154533 16.3868,52.3429945 C16.5134667,52.2114148 16.6388,52.0964423 16.7641333,51.9980769 M14.5934667,30.2733791 C14.3548,30.0076648 14.1934667,29.6780769 14.0894667,29.3101648 C13.8508,29.5988736 13.5348,29.88375 13.1961333,30.1801236 C13.7748,30.2120604 14.2001333,30.1980082 14.5934667,30.2733791 M20.4841333,12.9304121 C20.5561333,12.0195742 20.6241333,11.1202335 20.6908,10.2438874 C19.9961333,10.797033 18.6734667,10.8264148 17.4081333,11.1470604 C17.2308,11.191772 17.0654667,11.2198764 16.9081333,11.2364835 C17.6588,11.7755769 18.2894667,12.6365934 18.7241333,13.3417582 C18.7334667,13.3558104 18.7414667,13.3698626 18.7481333,13.3839148 C19.3921333,13.1986813 20.0814667,13.0223901 20.4841333,12.9304121 M15.0228,10.6335165 C14.7041333,10.3665247 14.4174667,10.0433242 14.1188,9.72395604 C14.1054667,9.71118132 14.0921333,9.69585165 14.0788,9.68052198 C14.0601333,9.98072802 13.9961333,10.2937088 13.8868,10.6220192 C14.2548,10.5658104 14.6348,10.5875275 15.0228,10.6335165 M42.9561333,44.390728 C42.6961333,45.7244093 40.9028,45.6311538 39.2108,46.0603846 C37.7934667,46.4193544 37.0374667,45.8125549 36.3294667,45.0741758 C36.4814667,45.4139835 36.6121333,45.81 36.7668,46.2813874 C37.4534667,48.3611126 36.1388,49.4009753 35.1681333,50.1674588 C33.9534667,51.1255632 32.6841333,50.9071154 30.8548,50.6886676 C30.2348,50.6132967 29.7854667,50.4267857 29.4441333,50.1623489 C29.7068,50.5736951 29.8721333,51.0808516 30.0868,51.7336401 C30.7041333,53.6051374 29.3668,54.2936951 28.6468,55.3782692 C27.9281333,56.4615659 26.3854667,55.7717308 24.7414667,55.575 C23.4828,55.4242582 23.0068,54.7548626 22.6694667,53.9653846 C22.7588,54.29625 22.8161333,54.6475549 22.8694667,55.0078022 C23.1161333,56.667239 22.6761333,57.3941209 21.8561333,58.3241209 C21.0388,59.2553984 19.2481333,59.4023077 17.9828,59.3805907 C16.7174667,59.3575962 15.4094667,57.9012775 15.3014667,57.6074588 C14.3908,55.1125549 14.6734667,54.2336538 15.5361333,53.2423352 C14.9374667,53.7712088 14.0588,54.1531731 13.1001333,54.6769368 C11.5161333,55.5430632 10.4988,54.782967 9.3908,54.0892995 C8.2828,53.3956319 7.9948,52.0772802 7.8588,50.8202473 C7.72546667,49.5632143 9.0828,47.9088874 9.37213333,47.7389835 C10.7641333,46.926511 12.0894667,46.556044 13.4668,47.0287088 C13.7361333,46.2417857 14.1574667,45.2402473 14.5054667,44.5516896 C13.2534667,44.1454533 12.9441333,43.1055907 12.5508,42.068283 C12.0921333,40.8636264 12.8934667,39.2220742 13.5774667,38.1285577 C13.7961333,37.7785302 14.1441333,37.5243132 14.5254667,37.3403571 C13.7294667,37.5000412 12.7841333,37.2879808 11.6614667,37.1525687 C10.0174667,36.9558379 9.7068,35.8712637 9.29746667,34.7892445 C9.03746667,34.1057967 9.1548,33.4146841 9.4308,32.7503984 C8.81746667,32.9407418 7.95613333,33.1566346 7.33746667,33.2984341 C8.1868,34.5030907 8.0308,35.6234341 7.52413333,36.5955907 C6.8388,37.9088324 5.12546667,39.3306593 3.6388,39.2220742 C2.1548,39.1122115 0.6708,39.1122115 0.3268,37.3607967 C-0.0158666667,35.6106593 -0.243866667,32.6558654 2.04013333,31.997967 C2.7068,31.8076236 4.32546667,30.6860027 6.0388,31.997967 C6.2388,32.1512637 6.4188,32.303283 6.5828,32.4540247 C7.24813333,32.1819231 8.15213333,31.8778846 8.9108,31.6632692 C8.80546667,31.6338874 8.70146667,31.603228 8.5948,31.5738462 C7.3748,31.2340385 6.50946667,29.7266209 6.0188,28.6101099 C5.5268,27.4923214 6.4828,25.9644643 6.72013333,25.7511264 C9.29613333,23.4350687 10.0374667,23.6969505 12.0854667,24.3586813 C13.4668,24.8057967 13.8174667,25.6438187 14.0574667,26.5291071 L14.0654667,26.4805632 C14.2641333,25.2835714 15.9174667,24.4698214 16.2361333,24.4110577 C17.8654667,24.0967995 18.8361333,24.0635852 19.5494667,24.2833104 C19.8054667,21.4562637 20.1108,17.7209341 20.3988,14.0405357 C19.9548,14.2168269 19.4548,14.3969505 18.9774667,14.5528022 C18.9254667,15.3499451 18.5641333,16.1062088 18.4308,16.2646154 C16.2041333,18.8923764 15.4321333,18.7288599 13.3081333,18.3366758 C11.1854667,17.9444918 11.1894667,16.4089698 10.5028,15.2247527 C10.1001333,14.5310852 10.4254667,13.8936264 10.9694667,13.2101786 C10.7308,13.2331731 10.4854667,13.2485027 10.2388,13.2714973 C8.90546667,13.3928571 8.1468,12.3555495 6.98013333,11.2262637 C5.81346667,10.0982555 6.26946667,9.06350275 6.64413333,7.96743132 C7.02013333,6.87263736 8.16013333,6.31949176 9.28146667,5.91070055 C10.4014667,5.50190934 12.2374667,6.25434066 12.4601333,6.45873626 C12.8428,6.80620879 13.1708,7.16262363 13.4308,7.53181319 C13.4201333,6.96206044 13.4841333,6.38975275 13.5668,5.90303571 C13.7641333,4.70604396 15.4174667,3.89357143 15.7374667,3.83225275 C19.1961333,3.17052198 19.6854667,3.76326923 21.0548,5.35755495 C21.2641333,2.47813187 21.4028,0.46739011 21.4028,0.285989011 L23.2881333,0.367747253 C23.2881333,0.367747253 21.6414667,22.1154396 21.3854667,23.5091621 C21.3054667,23.9435027 21.2388,24.7125412 21.1814667,25.5045742 C21.3001333,25.6399863 21.4254667,25.7868956 21.5614667,25.9427473 C22.9348,27.5421429 21.9094667,28.72125 21.6508,30.0536538 C21.5308,30.673228 21.0814667,30.9836538 20.4641333,31.1829396 C20.4388,31.3068544 20.4108,31.4307692 20.3841333,31.5534066 C20.9721333,31.697761 21.7614667,31.9481456 22.4721333,32.2049176 C23.0428,31.6236676 23.8241333,31.2621429 24.0321333,31.2225412 C27.4974667,30.5582555 27.9828,31.1548352 29.3561333,32.7555082 C29.4228,32.8308791 29.4828,32.90625 29.5374667,32.9803434 C29.4894667,32.3071154 29.5614667,31.6019505 29.6574667,31.0207005 C29.8561333,29.8237088 31.5108,29.0112363 31.8294667,28.9499176 C35.2948,28.2869093 35.7801333,28.883489 37.1534667,30.4828846 C38.5268,32.0822802 37.5028,33.2626648 37.2428,34.5950687 C36.9854667,35.92875 35.1908,35.8354945 33.5001333,36.2647253 C33.4828,36.2698352 33.4668,36.2723901 33.4508,36.2775 C34.4054667,36.6607418 35.1161333,37.3441896 35.5108,38.510522 C35.7014667,39.0815522 35.7854667,39.3051099 35.8161333,39.370261 C35.8508,39.5171703 35.8988,39.673022 35.9094667,39.8033242 C36.4854667,39.1786401 37.3241333,38.7877335 37.5414667,38.7455769 C41.0068,38.0825687 41.4908,38.6791484 42.8641333,40.278544 C44.2401333,41.8779396 43.2148,43.0583242 42.9561333,44.390728 M35.7414667,39.0291758 C35.7828,39.1543681 35.7908,39.2565659 35.8161333,39.370261 C35.8748,39.4980082 35.7374667,39.0164011 35.7414667,39.0291758 M7.99613333,45.7320742 C6.30546667,46.1600275 5.55746667,45.2159753 4.70946667,44.3102473 C3.86013333,43.4057967 3.95746667,41.6863187 4.1548,40.4880495 C4.35346667,39.2910577 6.00813333,38.4785852 6.3268,38.4172665 C9.79213333,37.7542582 10.2774667,38.3521154 11.6508,39.951511 C13.0241333,41.5509066 12.0001333,42.7300137 11.7414667,44.0624176 C11.4828,45.3960989 9.68813333,45.3028434 7.99613333,45.7320742" id="Fill-1" fill="#CE7046"></path>
                <path d="M11.7746667,14.2854272 C11.0453333,15.6050563 11.428,16.2821168 12.6213333,16.7036827 C13.4693333,17.0026113 13.592,17.4688887 14.792,17.4139574 C15.9906667,17.3603036 16.448,17.085647 16.3906667,16.5401662 C16.3346667,15.9921305 16.1053333,15.225647 15.42,15.1707157 C14.7346667,15.1157843 13.94,14.4668283 13.316,14.203669 C12.7253333,13.9532843 11.9346667,13.9941635 11.7746667,14.2854272 L11.7746667,14.2854272 Z M8.00533333,8.00664973 C7.228,8.95325687 6.88666667,8.73608654 7.152,9.56388874 C7.41866667,10.3904135 7.42133333,10.7417184 8.40133333,11.4072816 C9.37866667,12.0753997 10.332,12.5544519 10.8853333,12.4075426 C11.6733333,12.200592 11.732,10.4019107 11.2293333,9.95224038 C10.7253333,9.50384753 9.80266667,8.6632706 9.46533333,8.20593544 C9.088,7.70261126 8.216,7.74860027 8.00533333,8.00664973 L8.00533333,8.00664973 Z M15.748,55.8582157 C15.748,56.5148365 14.9493333,57.2800426 16.548,57.8280783 C18.1466667,58.376114 18.7186667,58.8130096 19.6333333,58.2662514 C20.5466667,57.7182157 21.1173333,57.1714574 20.5466667,56.7345618 C19.9746667,56.2963887 19.9746667,57.0615948 18.7186667,56.1865261 C17.4626667,55.3101799 18.376,54.6548365 17.4626667,54.1068008 C16.548,53.5600426 15.748,54.1068008 15.748,54.4351113 L15.748,55.8582157 Z M14.892,37.1981745 C14.892,37.1981745 13.8626667,37.5801387 13.5786667,38.1281745 C13.2933333,38.6749327 11.8066667,40.754658 12.5493333,42.5060728 C13.2933333,44.2562102 14.5493333,44.6394519 15.4066667,44.8042459 C16.2626667,44.9690398 18.0893333,44.7493146 18.3186667,43.2712788 C18.5466667,41.7932431 16.148,42.4511415 16.3773333,41.519864 C16.6053333,40.589864 17.12,41.0280371 17.4053333,39.8783118 C17.6906667,38.729864 16.3773333,38.894658 15.976,37.8535179 C15.5773333,36.8149327 14.892,37.1981745 14.892,37.1981745 L14.892,37.1981745 Z M9.92266667,33.5305508 C9.38,34.4337239 9.78,35.6933118 10.5226667,36.1851387 C11.2653333,36.6769657 11.4933333,36.9503448 12.692,36.8954135 C13.892,36.8417596 14.3493333,36.567103 14.292,36.0216223 C14.236,35.4735865 14.0066667,34.707103 13.3213333,34.6521717 C12.636,34.5972404 11.7786667,34.2702074 11.3213333,33.8320343 C10.864,33.3938613 10.0933333,33.2469519 9.92266667,33.5305508 L9.92266667,33.5305508 Z M29.3706667,39.4682431 C29.3706667,40.6728997 28.7426667,41.0012102 29.4853333,41.4930371 C30.228,41.9861415 30.456,42.2582431 31.656,42.2045893 C32.856,42.1509354 33.9133333,41.963147 34.2533333,41.519864 C34.74,40.8913475 33.6266667,39.4401387 32.9413333,39.3852074 C32.2546667,39.3315536 30.884,39.4950701 30.4266667,39.0581745 C29.9693333,38.6200014 29.3706667,39.1399327 29.3706667,39.4682431 L29.3706667,39.4682431 Z M9.372,47.7398777 C9.372,47.7398777 8.56133333,48.5702349 8.428,48.8257294 C8.296,49.0812239 7.952,49.6829135 7.91333333,49.8668695 C7.876,50.0482706 7.76133333,50.5771442 7.78133333,50.7598228 C7.8,50.9412239 7.85733333,51.7268695 7.99066667,52.0730646 C8.124,52.4205371 8.33333333,53.1857431 8.524,53.3684217 C8.71333333,53.5498228 9.076,53.9701113 9.28533333,54.0978585 C9.49466667,54.2256058 9.71333333,54.426169 10.056,54.5628585 C10.2693333,54.6484492 10.4093333,54.7174327 10.4653333,54.5718008 C10.5226667,54.426169 10.6746667,54.2984217 10.5413333,54.0978585 C10.4093333,53.8972953 9.932,53.6239162 9.74266667,53.0579959 C9.552,52.4920755 9.11333333,51.379397 9.51333333,50.8326387 C9.91333333,50.2858805 10.312,49.6100975 10.1226667,49.3188338 C9.932,49.0262926 9.72266667,48.6443283 9.91333333,48.3517871 C10.104,48.0592459 10.16,47.8586827 10.5613333,47.6402349 C10.9613333,47.4205096 11.036,47.0014986 10.8653333,47.0385453 C10.6933333,47.0743146 10.1986667,47.1292459 9.89466667,47.3489712 C9.58933333,47.567419 9.372,47.7398777 9.372,47.7398777 L9.372,47.7398777 Z M23.5746667,52.3566635 C23.5746667,53.5600426 22.9453333,53.888353 23.688,54.3814574 C24.4306667,54.8720069 24.6586667,55.1466635 25.8586667,55.0917321 C27.0573333,55.0368008 27.5146667,54.7646992 27.4573333,54.2166635 C27.4013333,53.6686277 27.172,52.9034217 26.4866667,52.8484904 C25.8013333,52.7935591 24.944,52.4652486 24.4866667,52.0270755 C24.0293333,51.5889025 23.5746667,52.0270755 23.5746667,52.3566635 L23.5746667,52.3566635 Z M17.804,46.2810041 C17.804,46.2810041 17.0053333,45.8441085 16.3773333,46.3359354 C15.748,46.8290398 15.1773333,47.2110041 15.12,47.9225563 C15.064,48.635386 14.9493333,50.2769382 15.292,50.7151113 C15.6346667,51.1520069 16.4333333,52.1369382 16.8906667,52.2468008 C17.348,52.3566635 17.976,52.5201799 18.4333333,52.4652486 C18.8906667,52.4103173 19.86,52.1918695 20.032,51.6987651 C20.204,51.2056607 19.9173333,50.8236964 20.204,50.3855234 C20.4893333,49.9473503 21.06,49.8387651 20.9466667,49.0722816 C20.832,48.3057981 20.66,47.4856607 19.9746667,47.0474876 C19.2906667,46.610592 17.804,46.2810041 17.804,46.2810041 L17.804,46.2810041 Z M7.78266667,25.9474739 C6.80533333,27.0167184 6.82266667,28.337625 7.63733333,29.3033942 C8.45466667,30.2691635 8.74266667,30.2691635 10.0373333,30.2231745 C11.332,30.175908 11.9573333,30.0852074 12.196,29.1654272 C12.436,28.2469245 12.492,28.3503997 12.388,27.6030783 C12.292,26.9132431 11.9093333,25.7175288 10.3253333,25.6715398 C8.74266667,25.6255508 8.11866667,25.5795618 7.78266667,25.9474739 L7.78266667,25.9474739 Z M22.604,41.4892047 C21.628,42.5584492 21.644,43.8793558 22.46,44.845125 C23.276,45.8108942 23.564,45.8108942 24.8586667,45.7649052 C26.1546667,45.7176387 26.7786667,45.6256607 27.0186667,44.7058805 C27.2573333,43.7873777 27.3133333,43.8921305 27.2093333,43.1448091 C27.1146667,42.4549739 26.7306667,41.2592596 25.1466667,41.2132706 C23.564,41.1672816 22.94,41.1212926 22.604,41.4892047 L22.604,41.4892047 Z M5.44,40.4774464 C4.46533333,41.5454135 4.48,42.8675975 5.29733333,43.8333668 C6.112,44.7978585 6.4,44.7978585 7.69466667,44.753147 C8.99066667,44.7058805 9.61466667,44.6139025 9.85466667,43.6941223 C10.0933333,42.7756195 10.1493333,42.8790948 10.0466667,42.1317734 C9.95066667,41.4432157 9.56666667,40.2475014 7.98266667,40.2015124 C6.4,40.1555234 5.776,40.1095343 5.44,40.4774464 L5.44,40.4774464 Z M0.198666667,34.242103 C0.213333333,34.5295343 0.4,35.7009766 1.46933333,36.4316909 C2.912,37.4153448 4.65333333,36.9362926 5.196,36.1710865 C5.74,35.404603 6.93866667,35.0494657 7.28133333,35.104397 C7.624,35.1593283 7.76666667,35.5144657 7.824,35.7878448 C7.88133333,36.0625014 7.38133333,36.9362926 7.13733333,37.2927074 C7.05466667,37.4153448 6.41866667,38.1205096 6.02533333,38.4705371 C5.65333333,38.7975701 4.93866667,39.0990536 4.28266667,39.2357431 C3.86666667,39.3226113 2.42533333,39.2089162 1.512,38.9891909 C0.598666667,38.7707431 0.484,38.032364 0.141333333,37.1841223 C-0.2,36.3358805 0.185333333,33.9546717 0.198666667,34.242103 L0.198666667,34.242103 Z" id="Fill-4" fill="#FCC06D"></path>
            </g>
            <path d="M233.080526,40.0339467 C234.450446,39.0040581 242.107264,26.3979274 243.673749,23.5988521 C245.240235,20.7998919 248.513284,16.030735 249.879218,14.5455841 C251.245153,13.0605482 257.279225,11.0031859 259.900056,12.104371 C266.776079,14.9931418 255.185112,17.7649634 252.843184,22.8738133 C250.501485,27.9827783 251.537837,25.9763585 249.578221,28.5533798 C247.336285,31.5017176 245.047769,32.836571 246.89202,33.6922433 C247.834531,34.1294514 248.609061,35.9261218 253.582866,31.5701392 C258.556785,27.2141567 266.090151,24.3882877 268.977928,24.0677987 C271.865705,23.7473097 275.314821,25.1893377 275.552384,26.9580644 C275.930823,29.7750788 275.376432,28.5533798 271.825959,29.3835234 C268.650396,30.1260413 266.662081,30.112702 266.188889,31.6476453 C265.43258,34.1004729 266.340242,35.4955832 271.749884,35.4469407 C277.159527,35.3982981 283.693781,36.8768943 285.256622,37.7005982 C287.654239,38.9642701 288.638546,42.3817845 281.053818,42.1286821 C275.487925,41.9429664 270.370853,43.1252224 268.385499,44.9835296 C266.982894,46.2963041 265.854979,46.3654156 266.87812,48.4782051 C267.904108,50.5968594 269.037148,51.3685858 274.14864,51.9476969 C278.820423,52.4769005 285.874561,58.4298083 284.69574,60.0738813 C282.909343,62.5650019 274.37789,59.1086195 267.43422,56.6270433 C260.490777,54.1454672 254.996177,53.4543517 251.628831,52.4848351 C249.000028,51.7281729 247.507112,50.4516216 245.080568,51.6511267 C244.058794,52.1562965 238.954021,52.0844251 252.992032,58.7202838 C264.850401,64.325909 268.880215,64.244953 270.695425,65.5942957 C272.634542,67.0358637 264.979774,72.9473736 251.971055,67.671667 C246.03925,65.2659871 239.767045,60.8469877 236.812076,59.5613519 C233.856993,58.275716 227.734887,54.4766507 227.163072,56.8769259 C226.984045,57.6282984 227.253952,57.135433 232.00124,63.1714816 C236.748414,69.2075303 249.856669,69.0479183 250.331569,71.7750071 C250.781642,74.3597331 245.401154,75.8295897 239.44942,74.6574532 C229.567863,72.7112904 224.069049,67.2384836 222.188469,64.9820662 C220.595449,63.0707467 219.312536,62.0145244 218.409316,62.2797011 C217.562924,62.5283187 217.562924,62.8908956 219.78903,66.5567976 C222.696623,71.3449286 231.215207,76.2679478 229.054357,78.6422343 C227.531033,80.3160907 218.648702,75.5913216 215.53771,71.6561031 C212.426719,67.7208845 209.374948,64.4812662 209.030333,64.5111647 C206.631235,64.7191894 207.030629,66.2964506 208.755642,69.4408537 C211.097684,73.7100155 214.516392,79.72985 215.413348,81.6187457 C216.693869,84.3158211 212.36636,82.5183458 210.314612,80.8343699 C207.681709,78.6735127 205.360509,75.0441789 204.523569,73.3646878 C203.68663,71.6850816 202.682507,69.4417736 201.920846,70.2788168 C201.159184,71.115745 200.60206,71.0940111 201.395837,73.8986061 C202.1895,76.7032011 205.305388,81.0154858 204.261179,81.7031515 C202.749586,82.6985418 199.022933,81.4982317 197.88864,79.1786825 C196.754348,76.8591333 195.722324,74.1101956 194.02544,74.1522835 C192.328556,74.1942564 193.30136,76.2474789 192.232779,78.3725728 C191.164198,80.4975517 189.430985,81.5796477 188.191918,77.7240051 C186.964924,73.9057358 190.078534,70.2462734 188.017447,69.9606277 C186.928822,69.8097552 185.805918,70.5182349 185.750912,72.2630428 C185.624499,76.2758824 182.77681,74.8337394 182.715198,69.7015456 C182.696179,68.1093351 182.743897,63.9171044 184.164952,62.6726365 C185.58612,61.4279387 189.10425,61.1027349 188.772845,58.9089894 C188.06767,54.2406825 182.421945,55.9917001 180.96365,51.4932396 C180.241165,49.2646509 181.494695,48.5567462 180.049496,45.2146681 C176.596623,37.2293517 182.723739,38.7102478 183.261845,42.5881992 C183.537333,44.57438 185.113726,44.354166 185.400146,43.3274973 C186.171374,40.5624603 184.853955,38.4532356 185.0684,34.1970681 C185.407321,27.467374 197.4577,23.6047169 191.715628,30.2102171 C187.377528,35.200393 190.084684,39.2418662 192.096459,38.8221372 C194.108234,38.4024081 194.179982,37.8075428 195.084682,32.1224566 C195.98927,26.4372554 195.492846,24.2726035 197.73091,22.4316604 C199.824454,20.7093914 201.618596,21.218471 201.016828,25.1602442 C200.415061,29.1021324 200.721411,30.4702191 200.426563,33.1239416 C200.131715,35.7775492 199.51241,40.7371366 200.311767,41.1584755 C202.056483,42.0779696 202.98601,34.6540553 203.493481,32.0519652 C203.924307,29.8425804 206.56894,22.919696 207.956399,20.8721083 C209.343971,18.8245205 214.900183,16.8297151 215.937902,18.5326651 C217.002041,20.2788529 212.894444,20.8468095 211.399023,25.7071569 C209.903715,30.5675043 209.171664,30.0418655 208.743115,35.2131573 C208.401347,39.3370815 206.992022,41.1468611 208.378114,41.9377916 C209.764092,42.7286072 210.714347,39.2121977 211.532723,35.7772042 C212.3511,32.3422107 216.724732,22.7750333 218.818846,19.6498343 C220.912959,16.5247503 224.401934,15.1006614 225.175668,15.62929 C225.949515,16.1579186 226.729398,15.4011414 224.192272,20.3863725 C221.293335,26.0827281 221.637495,29.5325559 220.189222,33.7229467 C218.741062,37.9134525 217.532972,39.8910088 219.292606,40.3184425 C220.99359,40.7316169 225.338181,28.1604444 225.871162,25.4509497 C226.404257,22.7415699 235.290233,12.5868869 237.187782,11.2308746 C239.08533,9.87497726 239.127923,14.7300349 236.854555,19.5522042 C232.999668,27.728986 231.490466,31.1310911 230.569822,34.9954732 C229.649063,38.8597403 228.184846,41.229427 230.277479,40.9428613 C232.369999,40.6562956 233.080526,40.0339467 233.080526,40.0339467" id="Fill-1" fill="#475726"></path>
            <path d="M56.7525098,131.451634 C58.5596268,130.127892 58.7139404,130.660203 58.7139404,130.660203 C58.7139404,130.660203 60.1671343,128.092523 59.9939988,126.661007 C59.8208633,125.229492 61.0517562,124.794596 61.5399856,123.100562 C62.0300624,121.406997 63.6311904,121.689522 64.5806839,121.164471 C65.5311673,120.635921 65.9925795,121.443982 65.7924622,122.693593 C65.5898213,123.941625 65.3064096,124.030032 64.6351489,125.006332 C63.9645644,125.983741 64.501734,128.847397 64.6715214,130.637147 C64.8406327,132.425788 64.688784,133.45232 66.186332,134.538299 C67.6857273,135.624747 67.2881691,132.984966 67.6807021,131.559167 C68.0737302,130.131618 67.9745948,130.488986 68.0937602,128.076891 C68.2147731,125.665264 68.306701,125.844225 69.644027,124.24939 C70.9836955,122.653275 71.5547241,122.122195 72.9741732,121.689204 C74.3947935,121.255574 74.7124801,122.463128 74.5140445,123.356895 C74.316599,124.247162 73.9251626,125.585109 73.2053775,126.694417 C72.6424833,127.564144 72.3250356,129.725289 72.0315634,130.706509 C71.7367388,131.685511 71.423274,135.764031 71.9576433,137.675356 C72.6858016,140.273394 73.0693708,139.652556 73.7386194,138.854819 C74.408363,138.055332 74.5303815,135.286752 74.5518385,133.321454 C74.5714481,131.355687 75.5737294,130.248682 76.3572783,127.573897 C77.1396561,124.899752 78.6569047,124.289067 80.1698734,123.945436 C81.682842,123.601805 82.4631285,125.79867 81.3150348,127.396519 C80.1639225,128.994539 80.4140767,132.214766 79.6390712,134.173551 C78.8628945,136.132977 78.7251996,140.241097 78.7986145,142.297972 C78.8713532,144.353739 80.9404414,145.088778 82.0901267,143.401327 C82.8029946,142.354955 82.8843213,139.565737 83.2780256,138.139297 C83.6705586,136.713498 84.5381682,134.934783 86.8212773,133.167414 C89.1045675,131.402904 89.2041234,130.956575 91.5174085,130.755082 C93.8685835,130.549139 92.3030551,132.41515 90.9184661,133.876109 C89.1432996,135.751741 90.1009725,135.432215 88.7680166,136.493751 C87.4367269,137.552898 88.0755546,139.525419 87.5940213,140.502984 C87.1119929,141.482299 86.6889867,143.526653 86.5982823,145.498756 C86.4151718,149.47347 87.7019613,148.190206 89.6052862,146.77837 C90.8337647,145.865646 90.8549478,144.55563 90.963393,143.217128 C91.0704858,141.876409 90.891314,140.980581 91.3808958,139.288766 C91.8709726,137.595201 93.5870772,136.001787 94.7311466,134.761063 C95.8770635,133.520808 95.9444193,134.182001 96.569611,135.002556 C97.2101741,135.845763 96.0333186,137.926656 95.4812679,139.818258 C94.924086,141.724496 95.5128545,141.291673 95.5021343,142.365267 C95.493759,143.045682 94.6211161,145.39503 93.75678,146.728299 C92.893615,148.060928 93.6197613,150.837528 94.2776134,151.112275 C94.9354656,151.387023 95.131394,150.673569 96.9520843,147.919748 C98.7764694,145.166865 98.6341697,145.120443 99.5075599,142.71597 C100.382121,140.310856 100.789757,140.777127 102.192422,138.807911 C103.86772,136.455974 104.79541,138.072393 104.783099,139.235589 C104.77252,140.196712 104.465316,142.538591 103.598127,144.228346 C102.730938,145.9181 102.250922,146.718852 101.104164,148.137029 C99.9562352,149.555847 100.255334,152.554104 100.721942,153.0044 C101.189226,153.455804 102.665066,152.172697 104.19212,150.579127 C105.718497,148.984449 106.011474,148.004978 106.601107,145.865085 C107.189568,143.725831 108.419785,143.289827 109.565702,142.049572 C110.710448,140.809957 111.6544,140.818844 113.460676,139.673024 C115.264609,138.528485 116.066938,138.49206 116.534222,138.943465 C117.001506,139.394869 116.239068,140.280529 115.279695,141.701252 C114.320999,143.123084 114.465475,142.811912 113.320894,143.872495 C112.178161,144.933547 112.459577,145.205593 111.308464,146.803613 C110.160371,148.401462 108.189332,151.823112 106.756475,153.50715 C105.323122,155.192937 106.623901,157.170293 107.725738,155.61696 C108.925387,153.924374 110.77648,152.606165 112.409126,150.03058 C114.039924,147.454525 113.99117,147.574349 115.003065,145.586607 C116.45688,142.722816 119.398761,140.355688 120.186585,141.658163 C120.665022,142.448042 119.847874,145.825907 118.002441,147.49151 C116.310508,149.01699 116.754115,149.534578 115.981963,151.136878 C115.210982,152.738538 112.09269,157.580115 112.934234,158.391815 C113.775777,159.203516 116.49718,155.967582 118.215973,154.196715 C119.93409,152.424739 121.090397,149.933608 122.516377,148.96318 C123.941186,147.993393 126.410934,146.819041 127.555256,145.524941 C128.652693,144.284572 129.195075,144.974421 129.467377,145.34166 C129.746441,145.71999 130.126523,145.713304 129.133502,147.291436 C128.396887,148.460228 128.755307,147.949265 127.22893,149.543943 C125.702553,151.138622 125.035152,151.936828 123.322395,153.172007 C121.61081,154.406546 119.712704,157.927332 119.413635,159.145271 C118.823417,161.553157 121.917111,161.112789 123.357176,158.892423 C124.335576,157.37996 125.460198,156.319938 126.519967,154.274964 C127.578384,152.227772 129.474081,151.441225 130.239538,150.555393 C131.003147,149.669093 131.590841,149.257561 132.726862,148.731087 C133.865407,148.206192 134.237955,148.701999 134.419634,149.417515 C134.600818,150.13478 133.696501,150.885057 132.266496,152.21261 C130.836491,153.540163 130.376051,155.471887 129.522271,155.910594 C128.66849,156.3493 125.613048,159.716111 125.975415,161.150641 C126.338278,162.583422 127.299663,160.984136 128.832241,158.674738 C130.366667,156.365809 132.185181,153.969582 132.665873,153.16994 C133.145394,152.370937 137.713129,148.659387 138.570934,147.863555 C139.429234,147.065973 140.842482,147.347702 140.639346,148.597485 C140.437381,149.846627 139.207165,150.282631 138.444891,150.98926 C137.682123,151.697638 134.896024,156.40787 134.318959,157.474638 C133.741894,158.541407 132.202949,161.20921 133.235061,161.844254 C134.266001,162.479937 135.45432,157.128946 136.419053,155.171426 C137.38311,153.212797 139.195092,151.354007 139.95786,150.645629 C140.720133,149.939 143.66596,147.911332 144.804999,147.384687 C145.943544,146.859791 146.02852,147.665151 145.545815,148.643356 C145.064958,149.62203 143.829546,150.415801 143.257841,150.945772 C142.686813,151.476853 140.958635,154.141642 140.567273,155.566801 C140.173569,156.99324 138.253818,160.19164 138.057395,160.906844 C137.86079,161.619189 138.799382,162.164873 139.569522,160.741135 C140.339168,159.319147 140.633481,158.160004 140.937014,156.285971 C141.240546,154.411938 143.055876,152.194914 143.820657,151.307974 C144.584266,150.421673 145.921592,148.826839 147.060796,148.121163 C148.200677,147.416595 147.713018,148.268849 148.370871,148.543596 C149.029218,148.816594 147.145801,150.609442 146.25965,152.583152 C145.403212,154.490334 144.60723,157.303536 144.212685,158.907897 C143.817644,160.514009 144.371076,161.770132 145.325748,160.705425 C146.279925,159.642468 145.153453,159.095987 145.649566,156.866734 C146.143832,154.637013 146.996772,154.376228 147.866814,152.329989 C148.738522,150.28136 149.789072,148.951277 150.369997,147.706415 C150.948398,146.459975 151.695745,147.181207 152.34672,148.169564 C152.9972,149.159671 151.645294,152.006194 151.350981,153.165336 C151.055497,154.325119 150.565614,157.522573 149.893017,158.678544 C149.219744,159.833407 149.583328,161.134175 150.44364,160.158031 C151.302781,159.182527 151.499988,156.921493 151.894533,155.317131 C152.288402,153.71166 152.645262,152.58339 152.94477,151.066482 C153.244279,149.549574 154.744472,148.201392 155.304105,148.742796 C155.864908,149.28356 155.62725,150.504894 155.341395,151.893071 C154.971112,153.698601 154.505352,156.817796 154.3186,158.02017 C154.100472,159.434908 155.037903,158.413641 155.431607,156.987202 C155.822969,155.562043 156.052138,154.818584 156.258967,153.034394 C156.466292,151.248455 157.615557,149.649966 157.912559,148.31337 C158.210055,146.975025 159.924988,145.382252 160.766532,146.193952 C161.605732,147.006933 159.756708,152.439662 160.355932,152.94611 C160.941499,153.437842 161.799484,146.651073 161.903229,145.668588 C162.00765,144.687212 162.296933,144.242149 163.245074,143.714879 C164.195062,143.188078 164.079245,145.241939 164.448985,145.96111 C164.81922,146.678531 163.426626,151.645793 164.189768,151.908818 C164.43323,151.993097 165.090576,147.843389 165.291369,146.594888 C165.493334,145.345746 165.792843,143.828838 166.823107,144.463412 C167.854723,145.100205 166.445736,148.221948 166.910331,148.850806 C167.376279,149.481882 167.914053,148.407019 167.928633,147.155331 C167.942042,145.904284 167.86259,144.383096 167.875999,143.132048 C167.888912,141.882751 169.289794,141.567869 169.720664,142.658822 C170.181747,143.824946 170.414548,143.960898 170.401139,145.211946 C170.388407,146.464102 170.256491,148.875775 171.164444,148.221113 C171.806413,147.757724 172.1915,145.497485 171.736288,143.974705 C171.279725,142.449707 172.033949,142.457328 172.332122,141.120092 C172.629618,139.781747 173.342271,139.295979 174.186667,139.751194 C175.031063,140.20641 174.494054,141.943381 174.300137,142.478273 C174.105545,143.012055 174.007023,144.78435 174.942432,145.509237 C175.879507,146.231734 175.512756,143.829472 175.431474,142.489706 C175.351858,141.14755 175.740367,140.078876 175.841935,139.453984 C175.942332,138.829734 176.179412,138.698631 177.027157,138.795612 C177.876748,138.893062 178.005384,140.100461 177.997335,140.814711 C177.989963,141.530071 179.093795,143.076804 178.941526,142.194365 C178.775671,141.240976 178.96408,138.678628 179.253033,138.056283 C179.543157,137.433297 180.483349,136.713687 181.052778,137.447901 C181.33125,137.807329 181.227926,138.700854 181.782693,139.777305 C182.338812,140.855975 181.985334,138.529272 182.754303,137.106175 C183.523272,135.683078 182.902383,136.526838 183.850359,136.1786 C184.796488,135.829893 184.117435,137.610514 184.876855,137.26037 C185.635104,136.910867 185.7013,135.077866 186.744313,134.642174 C187.787821,134.204732 186.353372,135.978372 187.112792,135.628228 C187.870365,135.277615 187.981902,133.490809 188.831494,133.588259 C189.679238,133.685241 189.012678,134.305524 189.771422,133.954272 C190.529671,133.604768 190.250943,133.155269 191.010363,132.805125 C191.767936,132.454513 193,132.018977 193,132.018977 C193,132.018977 192.142871,132.815918 191.466746,134.327265 C190.788953,135.841003 190.704818,134.857721 190.223961,135.836395 C189.741257,136.814601 190.693422,135.930206 190.11954,136.817771 C189.54264,137.705508 188.980996,137.342667 187.561051,137.777407 C186.140926,138.209288 188.593328,138.233418 189.352748,137.883275 C190.110321,137.532662 189.152119,138.952745 188.292978,139.928249 C187.433838,140.903752 186.595478,139.912849 185.079326,140.435683 C183.563669,140.956767 187.346849,140.276956 187.717925,140.816454 C188.089678,141.357062 186.574021,141.878147 185.436152,142.404151 C184.298284,142.930156 183.265331,142.473035 182.126292,142.99968 C180.989595,143.525044 184.107716,143.106813 185.046308,143.652497 C185.983547,144.195963 185.038259,144.366748 183.900391,144.892752 C182.761846,145.417647 180.587677,145.844765 178.983861,145.739694 C177.380045,145.634622 178.927964,146.588061 180.626141,146.60457 C182.325489,146.620439 182.227269,146.887096 182.928781,147.563882 C183.699384,148.307891 182.165336,148.271151 180.558172,148.524314 C178.951684,148.778585 177.724139,148.855247 175.840094,148.659379 C173.954202,148.463042 178.186062,149.843448 179.697019,149.67838 C181.210499,149.51489 180.829527,149.689172 181.76929,150.234216 C182.706035,150.779431 181.66571,151.03767 180.527166,151.562565 C179.390469,152.087929 178.252765,152.434903 176.083956,152.325224 C173.915147,152.215544 172.598948,151.667799 171.46644,151.657007 C170.335103,151.645574 173.623687,153.018202 175.036259,153.298822 C176.449507,153.580551 175.311383,154.016485 176.63446,153.85062 C177.958708,153.684115 179.281108,153.517141 179.646824,154.593437 C180.013035,155.667983 178.918075,156.507706 176.75329,156.040902 C174.586658,155.573629 175.28817,156.250416 173.305905,156.321205 C171.323641,156.391994 169.637701,155.125078 167.850029,154.662085 C166.061681,154.197982 168.120708,155.825834 169.809501,156.736265 C171.498788,157.644947 170.794964,157.189774 172.2448,158.54585 C173.48335,159.70393 174.648077,159.859781 173.777043,160.83883 C172.399918,162.388876 171.935231,160.955571 169.39467,160.305284 C166.853614,159.656747 164.698214,158.29602 163.295191,156.942447 C161.893339,155.588233 162.620582,158.276981 164.400041,159.633257 C166.179005,160.991281 167.341088,162.654051 169.973832,163.573369 C172.606577,164.492687 171.70226,165.242965 169.906539,165.494222 C168.110819,165.745479 165.474726,165.184395 163.414363,163.736215 C161.351476,162.286457 159.853251,161.199369 158.074123,160.020375 C156.292652,158.842663 157.125651,160.370363 157.590082,161.178253 C158.052847,161.988532 159.929174,163.075932 161.430251,163.806535 C162.93367,164.535858 162.078042,164.974096 164.132881,167.138105 C166.186548,169.302754 165.422939,170.189054 163.817111,170.262545 C162.211959,170.337145 161.844907,169.440521 160.727143,167.999009 C159.60956,166.560356 158.940312,167.358094 157.159336,166.178631 C155.379036,165.000278 154.586932,163.964859 153.933945,163.155064 C153.283301,162.343989 152.008328,162.465806 152.186329,163.362274 C152.366672,164.257462 155.544799,167.147154 157.51349,168.506443 C159.480334,169.865264 159.57453,169.955733 160.113877,172.461795 C160.447945,174.013839 158.594377,173.342863 156.713845,172.609729 C154.83516,171.877065 152.226049,168.634855 150.35759,166.830346 C148.490302,165.025196 148.127019,163.681376 146.898979,163.759787 C145.670263,163.837089 146.408481,165.542313 147.996201,167.075886 C149.584597,168.610568 149.577224,169.325928 150.976388,170.857595 C152.376227,172.390371 151.702954,173.545234 151.964925,175.604015 C152.227392,177.661046 150.640513,175.949551 148.859537,174.770089 C147.079237,173.591736 144.84841,170.352697 143.733334,168.733732 C142.616412,167.114298 142.303665,165.458908 141.367761,164.73577 C140.431181,164.011524 140.092112,164.856479 139.614108,165.478668 C139.136599,166.099108 139.497119,167.533169 141.267194,169.783367 C143.036774,172.035314 142.380934,171.582004 143.394276,174.004891 C144.406267,176.425561 143.658755,175.88336 142.793742,177.21552 C141.930577,178.548149 140.821538,176.393496 139.335551,174.056001 C137.850736,171.717865 137.201773,170.550945 136.191614,167.948854 C135.180283,165.347404 135.412919,165.662388 135.043855,164.944326 C134.672943,164.225796 133.208243,164.346349 133.100474,165.685959 C132.992029,167.02446 133.433667,169.977319 134.340247,173.382864 C135.249168,176.787128 133.631943,177.933103 132.122999,177.919609 C130.614055,177.906115 130.645061,174.867863 129.996593,173.699194 C129.34763,172.532273 129.667919,169.048958 129.500985,166.902724 C129.335222,164.755848 129.613454,165.207097 128.772406,164.393647 C127.932034,163.581306 126.841364,164.048971 126.8188,166.207124 C126.796684,168.353203 126.940012,167.97611 127.007863,170.633485 C127.076412,173.225408 127.078425,173.046845 126.384371,176.168115 C125.706109,179.223075 124.57323,177.848982 123.456818,176.409689 C122.339054,174.968177 122.923327,173.36508 123.154286,169.256249 C123.386416,165.146778 122.994001,167.45391 122.583322,164.521095 C122.320015,162.641986 120.61406,164.003585 119.938115,165.517791 C119.260818,167.029779 119.820415,167.599301 119.41969,169.316477 C118.826409,171.857656 118.982162,170.519908 118.108772,172.924382 C117.547862,174.465903 116.577737,177.131784 114.889785,176.043431 C113.00161,174.826454 114.705887,173.428801 115.092881,170.147111 C115.530107,166.453454 116.115374,165.52565 116.042635,163.469884 C115.96922,161.413008 115.785164,161.262236 114.840617,161.091001 C114.322677,160.997077 113.034295,162.369942 113.291566,164.784739 C113.549513,167.200645 113.360957,167.19874 112.003691,170.582059 C110.648272,173.965847 110.376917,172.800988 109.067249,171.715805 C107.757086,170.632372 109.096078,169.035148 109.401788,166.803521 C109.708173,164.573003 108.683014,163.311561 109.177115,161.26087 C109.669368,159.209711 109.20234,158.848377 108.064637,159.19535 C106.929951,159.542152 106.808774,162.13281 107.169789,163.565122 C107.533328,164.999011 106.762347,166.600671 105.695205,169.361005 C104.626216,172.120869 103.490195,172.647343 102.363047,172.099753 C101.236575,171.553273 100.884432,169.046898 102.146167,165.752783 C103.407225,162.457558 103.305492,163.26148 103.045533,161.024137 C102.78625,158.787902 103.963003,158.932741 103.695672,157.410757 C103.428341,155.888773 102.619481,156.462636 101.282831,158.05858 C99.9450097,159.655163 100.796778,159.395019 101.05522,161.809176 C101.312672,164.226832 99.3357675,163.760824 98.4665662,165.629141 C97.5980412,167.498566 98.348572,168.040595 97.4795354,169.729881 C96.6130225,171.420744 95.2016218,171.139484 94.660923,168.631204 C94.1209004,166.124033 95.6459417,164.709026 95.9496391,162.655962 C96.2533366,160.602897 97.2241058,158.109689 97.6226752,156.148202 C98.0205683,154.185606 97.5043396,153.956171 95.8918151,154.74613 C94.2786144,155.534981 94.9825584,155.944244 94.5826531,158.085402 C94.1815766,160.227202 93.0502396,160.215769 93.0388431,161.288254 C93.0274466,162.360738 93.2981259,163.524488 92.6132919,165.930867 C91.9272867,168.337886 90.0340224,168.856909 89.0050942,168.042663 C87.9743186,167.227948 88.0847759,165.710884 87.9116404,164.279368 C87.7385049,162.847853 89.4824323,158.395391 90.5487331,155.81298 C91.6126916,153.231849 91.610259,153.499373 91.1518645,152.155796 C90.6951362,150.809828 88.2379597,151.054502 87.3808311,151.851443 C86.5237025,152.648384 85.5191534,153.843881 84.8343194,156.25026 C84.1483142,158.657279 82.860657,161.504166 81.2671036,163.367753 C80.1688702,164.652922 78.4192415,165.038695 77.5788695,164.226354 C76.7373263,163.414654 78.2158553,161.954093 78.9031964,159.367402 C79.5494999,156.936245 81.4455192,155.504741 82.2287379,152.652674 C83.0131277,149.799967 83.7725479,149.449823 83.3138075,148.282419 C82.8534008,147.117404 81.3802319,148.041168 80.0524714,148.744939 C78.7233585,149.446492 78.4218379,151.141962 77.8394128,152.745527 C77.2563115,154.347984 75.1528693,157.009431 73.8068351,159.499296 C72.4589535,161.988693 71.9923458,161.538398 69.9065011,162.412641 C67.8199802,163.285774 67.9869799,160.165774 69.4775955,158.207625 C71.334167,155.771365 72.0562044,154.927019 73.1745433,152.209678 C74.7260914,148.440632 75.0415812,149.680443 75.9189956,146.918845 C76.7975812,144.156606 76.4164446,144.50992 75.2913086,143.783768 C74.1668488,143.058725 73.121164,143.853761 71.7880269,144.912439 C70.455071,145.973975 68.7374493,147.744201 67.8794798,148.719065 C67.0191679,149.695209 64.6289495,152.621407 62.7234478,154.390837 C60.8179462,156.160267 59.6914742,155.613787 58.2742019,155.689183 C56.8576058,155.765689 58.4969475,152.473634 60.0374095,149.629017 C61.576519,146.782182 62.4103597,148.131961 64.692809,146.545373 C66.9745822,144.957676 67.7467347,143.355375 69.4643564,141.585149 C71.1806257,139.812704 69.8501715,139.479792 68.7836258,138.941955 C67.6106416,138.349921 67.2303459,138.525313 66.0499895,138.648638 C64.9086941,138.766873 61.8121782,142.317335 60.7564328,144.005184 C59.7001925,145.694782 57.5070738,147.906886 56.078405,149.054767 C54.6515837,150.203117 52.8618995,149.918686 52.5860248,149.112702 C52.3124925,148.305437 53.1805226,146.437761 55.0945677,143.952331 C57.0074416,141.467541 57.8558621,141.565632 59.6629791,140.24189 C61.4689249,138.918788 61.4839251,137.578139 62.7242024,136.249321 C63.9656509,134.919863 63.1601389,135.135491 62.4159748,134.235056 C61.6699632,133.334152 61.0512511,133.820319 60.2970264,133.812697 C59.5416304,133.805716 56.7865371,135.477696 55.9294085,136.274637 C55.0722799,137.071578 50.7928215,140.159674 49.1828041,140.769321 C47.5716155,141.379609 47.1998633,140.839001 47.0201964,139.944923 C46.8410246,139.049095 47.8947578,137.539809 48.5680307,136.384947 C49.2399511,135.227866 51.7089445,133.821746 52.8434649,133.653976 C53.9779853,133.486206 54.946069,132.776485 56.7525098,131.451634 Z" id="Fill-10" fill="#688538"></path>
            <path d="M175.099547,72.5937255 C171.486806,66.4244638 170.708506,59.4474142 172.931264,57.298213 C175.154596,55.1492243 182.286963,51.474725 182.225277,53.6814312 C182.163304,55.8880312 180.786297,58.7221825 183.621024,57.9145009 C186.455465,57.1067131 188.388234,53.735288 191.889705,56.1473881 C195.391177,58.5594882 196.996775,59.1543732 194.718095,59.4248873 C192.439415,59.6954014 188.869919,63.5751883 190.827766,63.1858034 C192.785326,62.7963123 190.395091,59.3095586 196.613969,61.2421024 C202.832561,63.17454 206.833872,63.1706793 205.253353,65.5578345 C203.672547,67.9448834 202.796198,68.2509036 200.634203,68.3058618 C197.591455,68.3822006 192.48419,69.6275666 195.168937,70.3681407 C196.851193,70.8321736 202.937779,71.0169887 205.185615,71.8498277 C207.433452,72.6826667 210.761968,73.5443113 212.423096,76.0180701 C214.084433,78.491243 216.035941,82.1870389 212.707139,81.325288 C209.378623,80.4636434 208.940364,80.673191 204.735072,80.2295501 C200.529389,79.786096 195.625204,82.3505478 195.711682,83.1257756 C195.79816,83.9010033 205.636353,82.7933741 208.847548,83.983144 C212.05903,85.1730203 217.431689,86.4201085 218.623351,90.2059696 C219.815195,93.9922299 221.970503,98.1351282 217.153997,96.3505794 C212.337204,94.5659244 205.63043,92.0037135 205.772829,94.6576283 C205.91455,97.3116236 212.158302,97.100463 215.048377,98.171256 C217.938166,99.2419428 223.866482,99.9520503 225.81799,103.647846 C227.769499,107.343642 230.894399,107.758584 229.078769,110.801484 C227.263608,113.84489 228.078698,115.633592 224.342689,113.87745 C220.606576,112.121601 213.531486,107.287591 213.424626,109.832232 C213.214701,114.82372 221.681099,116.235986 225.645516,121.420766 C229.610325,126.605358 233.035386,129.87865 233.834748,134.116034 C234.964906,140.109 231.025099,137.905755 226.936918,137.134575 C222.848661,136.362703 226.375211,141.756843 228.561361,144.796388 C230.74712,147.83612 232.402588,154.394979 234.150403,157.64338 C235.897826,160.891967 237.034322,162.799753 234.020692,166.141973 C231.007426,169.484991 231.211225,169.932094 227.067332,167.281641 C222.923908,164.631693 218.433895,158.880914 217.007696,155.751011 C215.581105,152.621295 211.59161,144.454475 210.331637,146.960395 C209.071846,149.466714 210.96206,155.369029 206.23164,154.359895 C201.501143,153.350068 192.756828,141.191994 190.867005,135.289492 C189.250455,130.240052 190.310658,116.503683 187.889866,114.120389 C185.469073,111.737094 183.832528,112.245855 182.134219,114.960631 C180.436379,117.675911 181.739311,125.218934 178.528402,124.02927 C175.317207,122.8395 173.631078,117.384393 174.075388,113.089559 C174.520062,108.795522 180.23189,97.9060196 177.545613,97.282329 C174.85944,96.6583454 172.111372,98.2416539 169.4496,100.599791 C166.788507,102.957848 164.650605,108.966234 162.41819,107.581719 C158.502162,105.153048 160.018402,100.560955 161.977765,97.0879055 C163.659883,94.1060208 170.053862,89.7850232 167.836764,87.849124 C165.619875,85.912639 164.12633,85.9933018 161.581879,88.0233135 C159.038001,90.0535377 156.743455,92.9365806 155.562103,91.6627958 C151.850468,87.6599123 154.807249,83.8573525 156.474428,82.2458243 C158.141817,80.6337101 164.129184,81.1795682 161.91219,79.2433761 C159.695301,77.306891 159.021828,78.1724769 157.553658,78.4645952 C155.179829,78.936747 152.448707,82.0382552 153.096815,78.190523 C153.745392,74.3432961 158.906188,72.6476311 159.05396,71.2163393 C159.202229,69.7845679 153.807079,72.1365899 155.184086,69.3024386 C156.561093,66.4682873 156.913056,65.4839112 158.110951,65.1848845 C159.309056,64.8852718 155.838036,61.3700053 158.555548,60.8901561 C161.272563,60.4107866 162.501224,59.0077146 164.656532,63.1506128 C166.812126,67.2936174 168.300116,68.2165215 169.813471,72.121572 C171.326435,76.0268093 175.149131,78.5575934 175.093209,76.6789063 C175.03747,74.8006185 175.099547,72.5937255 175.099547,72.5937255 Z" id="Fill-1" fill="#475727"></path>
            <path d="M162.317773,58.7711995 C163.264384,54.0738441 162.555031,46.6687217 165.461268,44.935661 C168.367504,43.2026004 171.188191,43.491319 173.622818,42.6688327 C176.057688,41.8463463 178.243424,41.3370336 178.488922,43.9000668 C178.734421,46.4635992 181.777099,46.1544181 184.211968,45.3321813 C186.646838,44.5096949 186.592067,43.9397438 189.385369,43.9437365 C192.178671,43.9477291 194.39155,43.7228929 193.199683,45.8572151 C192.007574,47.9912878 191.703669,47.7345103 190.152885,49.0423535 C188.602585,50.3501967 186.911724,53.1098681 187.963756,52.4281227 C189.015546,51.7461277 190.593473,50.7230106 194.107518,49.5035048 C197.621321,48.2839991 200.582328,47.12064 202.627502,48.0631555 C204.672918,49.005671 207.489728,52.1705966 204.80524,53.3060071 C202.121237,54.4411681 200.438131,51.4486751 196.258114,54.4613809 C192.078097,57.4743361 188.867956,58.9506194 188.669231,62.709452 C188.470748,66.4682846 193.087476,68.0121934 198.260877,66.6242476 C203.43452,65.2360523 208.331402,63.8758056 212.839073,64.2808102 C217.346502,64.6858149 220.14344,61.8133511 220.443709,64.9463355 C220.743735,68.0793198 218.667541,69.7280357 216.481805,70.237598 C214.296311,70.7471602 207.408541,71.7343435 206.492951,73.8404676 C205.577603,75.9463422 210.778631,74.8431224 214.097828,74.5059929 C217.416783,74.1688633 225.909624,72.4435384 232.267863,74.6739338 C238.625861,76.9038301 242.607637,77.6497075 244.567263,80.6140023 C246.526888,83.5785467 248.486755,86.5428415 245.884181,88.5326796 C243.282092,90.5222682 238.805441,87.5260321 235.100668,86.7519567 C231.395653,85.9778812 227.803573,83.467002 228.130985,86.8847124 C228.458397,90.3024228 235.338654,95.0676533 240.784939,96.5277164 C246.231466,97.9875299 254.136128,101.78604 257.338755,106.06217 C260.541383,110.338051 267.608733,119.973569 268.236172,126.524264 C268.863611,133.074709 271.014448,138.032835 269.4055,141.647183 C267.796553,145.261781 267.045032,149.076511 264.528249,149.04457 C262.011466,149.012629 259.977682,139.441243 256.303445,136.075936 C252.629693,132.71038 245.640379,126.805995 242.021155,124.010141 C238.401689,121.214036 225.938948,113.564863 222.097248,111.366908 C218.255792,109.168703 210.95603,104.976169 209.221304,102.321304 C206.930389,98.8157557 205.664121,94.3429869 203.47475,97.7285066 C200.634432,102.121422 203.743998,103.452972 203.159455,106.100599 C202.575154,108.747977 202.267615,111.367407 199.754952,108.459508 C197.241804,105.55136 192.492754,99.7068658 190.174454,95.9160919 C187.856396,92.1253181 189.765128,91.6437044 185.896529,89.1610233 C182.027929,86.6780926 180.068061,83.7135482 179.877333,81.719967 C179.686363,79.7263858 179.331566,76.0239494 177.531648,77.6444671 C175.091931,79.8416736 174.731075,83.3928883 173.180291,84.7007315 C171.629991,86.0085747 169.280671,84.8092818 168.67674,81.4197695 C168.072809,78.0300076 166.112941,75.0657128 167.110203,73.8140163 C168.107707,72.5625693 167.752909,68.8598834 164.932464,68.5709152 C162.111777,68.282446 160.39765,67.881434 159.123627,69.1610791 C157.849847,70.4407242 155.052667,73.3129384 154.226745,70.5210763 C153.400581,67.7289646 152.379812,65.8197282 153.930596,64.5121345 C155.480896,63.2042913 156.033934,63.1478951 157.417013,63.0076532 C158.800093,62.8671618 156.591091,60.2155415 153.602942,61.0944241 C150.615034,61.9728076 146.021814,63.5898318 145.301071,64.8133302 C144.580571,66.0365791 144.604079,69.1977616 142.558662,68.2552461 C140.513246,67.3127306 139.134044,64.5767656 140.630058,62.6992208 C142.126071,60.8219256 145.640116,59.6024198 144.64649,57.9776599 C143.652863,56.3531495 141.471005,53.9865048 143.298308,52.650713 C145.125369,51.3146718 148.690307,53.540825 148.802999,51.8040212 C148.915933,50.0669679 145.70967,48.6672937 149.305628,48.301966 C152.901344,47.9366383 153.123335,47.3389882 154.697385,49.192078 C156.271435,51.0454173 157.490687,49.1960706 157.872385,53.1834826 C158.254325,57.1708946 159.292544,63.7248334 160.872652,64.0944033 C163.443964,64.6960461 162.317773,58.7711995 162.317773,58.7711995" id="Fill-4" fill="#688538"></path>
        </g>
    </g>
</svg>