<?xml version="1.0" encoding="UTF-8"?>
<svg width="32px" height="32px" viewBox="0 0 32 32" version="1.1" xmlns="http://www.w3.org/2000/svg" xmlns:xlink="http://www.w3.org/1999/xlink">
    <!-- Generator: Sketch 47.1 (45422) - http://www.bohemiancoding.com/sketch -->
    <title>buttonInfo</title>
    <desc>Created with Sketch.</desc>
    <defs></defs>
    <g id="Symbols" stroke="none" stroke-width="1" fill="none" fill-rule="evenodd">
        <g id="buttonInfo" fill="#DBDBDB" fill-rule="nonzero">
            <path d="M4.68601583,4.68601583 C-1.56200528,10.9340369 -1.56200528,21.0659631 4.68601583,27.3139842 C10.9340369,33.5620053 21.0659631,33.5620053 27.3139842,27.3139842 C33.5620053,21.0659631 33.5620053,10.9340369 27.3139842,4.68601583 C21.0659631,-1.56200528 10.9340369,-1.56200528 4.68601583,4.68601583 Z M16.5172414,6 C17.8965517,6 19,7.13013699 19,8.5 C19,9.86986301 17.862069,11 16.5172414,11 C15.137931,11 14,9.86986301 14,8.46575342 C14,7.09589041 15.137931,6 16.5172414,6 Z M18.9810687,23.8918919 C18.9159507,24.1027027 18.7857146,24.3486486 18.6554785,24.4891892 C17.808944,25.4378378 16.7670552,26 15.5298124,26 C14.94375,26 14.3902466,26 13.8041843,25.8945946 C12.8599726,25.7540541 11.6552888,24.4891892 11.8180839,23.1540541 C11.94832,22.2405405 12.0785561,21.327027 12.2087922,20.4135135 C12.4692644,18.8324324 12.7297365,17.2162162 12.9902087,15.6351351 C12.9902087,15.5297297 13.0227677,15.4243243 13.0227677,15.3189189 C13.0227677,14.6513514 12.8274136,14.4054054 12.2087922,14.3351351 C11.94832,14.3 11.6878478,14.2648649 11.4273757,14.1945946 C11.1343445,14.0891892 10.9715493,13.8081081 11.0041084,13.5621622 C11.0366674,13.2810811 11.1994625,13.1054054 11.5250527,13.0351351 C11.6878478,13 11.883202,13 12.0785561,13 C12.7948546,13 13.5111531,13 14.2600106,13 C15.0414271,13 15.7902846,13 16.5717011,13 C17.1252045,13 17.4507947,13.2810811 17.4507947,13.8783784 C17.4507947,14.3702703 17.3856767,14.8621622 17.2879996,15.3540541 C16.9949684,17.1810811 16.6693782,18.972973 16.376347,20.8 C16.2786699,21.3972973 16.1484338,21.9945946 16.0833158,22.5918919 C16.0507568,22.872973 16.0833158,23.1891892 16.1484338,23.4702703 C16.2461109,23.8567568 16.5065831,24.0675676 16.8647323,24.0324324 C17.1577635,23.9972973 17.4507947,23.8918919 17.7438259,23.7513514 C17.9717391,23.6459459 18.1670932,23.4702703 18.3950063,23.4 C18.7857146,23.2594595 19.0787458,23.5054054 18.9810687,23.8918919 Z"></path>
        </g>
    </g>
</svg>