<?xml version="1.0" encoding="UTF-8"?>
<svg width="229px" height="136px" viewBox="0 0 229 136" version="1.1" xmlns="http://www.w3.org/2000/svg" xmlns:xlink="http://www.w3.org/1999/xlink">
    <!-- Generator: Sketch 47.1 (45422) - http://www.bohemiancoding.com/sketch -->
    <title>communityLoneFishPlant</title>
    <desc>Created with Sketch.</desc>
    <defs>
        <polygon id="path-1" points="43.9542648 0.0627513932 43.9542648 77.9512679 0.0683976422 77.9512679 0.0683976422 0.0627513932"></polygon>
        <polygon id="path-3" points="28.9494925 44 0.116302946 44 0.116302946 0.0526225091 28.9494925 0.0526225091 28.9494925 44"></polygon>
    </defs>
    <g id="Symbols" stroke="none" stroke-width="1" fill="none" fill-rule="evenodd">
        <g id="communityLoneFishPlant">
            <g>
                <path d="M80.5518581,46.7301991 C80.5518581,44.3913021 74.9270322,32.2958633 74.2520531,30.4131238 C73.577074,28.5303844 76.0519974,27.6936113 75.3770183,23.3005525 C74.7020392,18.9074938 74.4770461,15.7695947 69.7521923,14.7236284 C65.0273386,13.677662 60.5001037,13.0950587 57.6025683,17.8615275 C54.6776589,22.6729727 56.4776031,26.4384516 57.3775753,28.5303844 C58.2775474,30.6223171 60.3024848,31.6682834 60.9774639,33.1326364 C61.652443,34.5969893 64.3523594,45.6842327 65.2523316,49.4497116 C66.1523037,53.2151905 68.8522202,63.8840474 71.5521366,69.7414591 C74.2520531,75.5988707 81.9018163,87.313694 84.1517467,91.7067527 C86.4016771,96.0998114 92.9264752,104.049156 97.2013429,106.977862 C101.476211,109.906567 109.800953,114.927206 113.400842,115.763979 C117.00073,116.600752 126.450438,120.366231 130.050326,120.366231 C133.650215,120.366231 143.099922,122.039777 144.674874,119.947844 C146.249825,117.855912 151.424665,113.25366 149.624721,109.069794 C147.824776,104.885929 148.724748,100.074484 144.449881,100.074484 C140.175013,100.074484 130.275319,100.074484 126.900424,99.656097 C123.525528,99.2377105 109.125974,94.0078787 105.301092,90.6607863 C101.476211,87.313694 94.9237883,76.384159 92.9264752,72.6701649 C89.3265866,65.9759802 80.5518581,47.9853587 80.5518581,46.7301991" id="Fill-1" fill="#526A32"></path>
                <path d="M80.5518581,46.7301991 C80.5518581,44.3913021 74.9270322,32.2958633 74.2520531,30.4131238 C73.577074,28.5303844 76.0519974,27.6936113 75.3770183,23.3005525 C74.7020392,18.9074938 74.4770461,15.7695947 69.7521923,14.7236284 C65.0273386,13.677662 60.5001037,13.0950587 57.6025683,17.8615275 C54.6776589,22.6729727 56.4776031,26.4384516 57.3775753,28.5303844 C58.2775474,30.6223171 60.3024848,31.6682834 60.9774639,33.1326364 C61.652443,34.5969893 64.3523594,45.6842327 65.2523316,49.4497116 C66.1523037,53.2151905 68.8522202,63.8840474 71.5521366,69.7414591 C74.2520531,75.5988707 81.9018163,87.313694 84.1517467,91.7067527 C86.4016771,96.0998114 92.9264752,104.049156 97.2013429,106.977862 C101.476211,109.906567 109.800953,114.927206 113.400842,115.763979 C117.00073,116.600752 126.450438,120.366231 130.050326,120.366231 C133.650215,120.366231 143.099922,122.039777 144.674874,119.947844 C146.249825,117.855912 151.424665,113.25366 149.624721,109.069794 C147.824776,104.885929 148.724748,100.074484 144.449881,100.074484 C140.175013,100.074484 130.275319,100.074484 126.900424,99.656097 C123.525528,99.2377105 109.125974,94.0078787 105.301092,90.6607863 C101.476211,87.313694 94.9237883,76.384159 92.9264752,72.6701649 C89.3265866,65.9759802 80.5518581,47.9853587 80.5518581,46.7301991 Z" id="Stroke-3" stroke="#688538"></path>
                <path d="M71.84539,26.8534458 C72.9682844,24.9806238 72.9682844,18.7899066 69.82418,17.3332673 C66.6800757,15.8766279 62.6938005,15.2003311 60.2234328,17.4893358 C57.7530651,19.7783404 56.8376566,21.4118574 57.0231837,23.7320758 C57.2477626,26.5413088 59.9427092,28.4661536 60.6164458,29.0904276 C61.2901825,29.7147016 61.8516297,30.7551583 62.9745241,34.916985 C64.0974185,39.0788117 68.0275489,53.8532964 68.9258645,58.0151231 C69.82418,62.1769498 72.2945477,67.5873244 74.0911788,71.3329684 C75.8878098,75.0786125 79.2564931,81.7375352 81.0531242,84.2346312 C82.3948582,86.0993607 86.8921751,93.1825585 88.2396484,95.0553805 C89.5871217,96.9282025 94.1909888,102.546669 96.7736459,104.627582 C99.3563031,106.708495 107.778011,111.286505 109.350063,111.910779 C110.922116,112.535053 117.884061,115.032149 120.579008,115.656423 C123.273954,116.280697 132.257109,118.36161 136.07495,117.945427 C139.892791,117.529245 144.608948,112.951235 143.935211,109.829865 C143.261475,106.708495 144.15979,103.587125 141.914001,103.170943 C139.668213,102.75476 128.888426,102.650714 127.316374,102.546669 C125.744322,102.442623 113.729352,98.9050702 109.799221,97.1362939 C105.869091,95.3675175 101.714381,91.5178279 99.9177503,89.4369145 C98.1211192,87.3560012 92.0574894,78.4080738 90.0362795,75.4947951 C88.0150695,72.5815165 84.4218074,64.4659544 82.8497552,61.1364931 C81.277703,57.8070317 78.1897434,48.026739 76.8422701,44.0730037 C75.4947968,40.1192683 72.9682844,35.541259 72.2945477,32.419889 C71.6208111,29.298519 71.6014723,27.2602644 71.84539,26.8534458" id="Fill-5" fill="#475727"></path>
                <path d="M161.193996,101.533197 C164.464638,102.163281 165.902288,103.881661 169.623159,102.936652 C173.34403,101.991759 183.153576,97.2670602 183.491906,92.2274364 C183.830235,87.1878126 185.102479,83.9957358 184.087616,83.0507261 C183.072879,82.1058331 180.693922,79.3538818 183.749287,74.4395748 C184.989828,72.444308 188.246561,70.5905768 192.09487,71.0791255 C197.056908,71.7092097 197.940574,74.2309469 197.95912,74.3345607 C198.523002,77.484982 199.98872,80.4259585 197.95912,83.5757963 C195.92952,86.7256341 198.974108,92.6075872 198.635779,95.757425 C198.297575,98.9072628 194.992849,107.031499 191.610181,110.496146 C188.227514,113.961025 182.815372,119.000649 177.741434,120.57551 C172.667496,122.15037 167.931888,122.15037 164.210891,121.835445 C160.490146,121.520403 155.103692,115.919537 153.412421,113.084742 C151.72115,110.249946 150.00394,109.551253 151.695211,105.456522 C153.386607,101.361791 157.923479,100.903113 161.193996,101.533197" id="Fill-7" fill="#688538"></path>
                <path d="M195.473626,75.460577 C196.634454,76.9159271 197.098785,80.9461274 196.982702,81.8417274 C196.866619,82.7373275 196.05404,84.5285276 195.473626,85.3121777 C194.893212,86.0958277 191.294646,87.1033778 189.785569,86.9914278 C188.276493,86.8794778 186.303086,85.0882776 185.490506,84.5285276 C184.677927,83.9687776 183.517099,82.0656274 184.213596,79.3788272 C184.882877,76.7972601 184.910092,75.572527 187.231748,74.9008269 C189.553404,74.2291269 191.526811,73.6693768 193.15197,74.2291269 C194.777129,74.7888769 195.473626,75.460577 195.473626,75.460577" id="Fill-9" fill="#475727"></path>
                <path d="M155.931971,104.380624 C151.930746,102.522496 152.931114,102.522496 151.597372,98.8063537 C150.26363,95.090097 151.263998,88.2770746 153.597985,84.5609327 C155.931971,80.8446761 158.265957,79.9156693 159.266326,77.4381649 C160.266694,74.9606604 162.600557,74.3412843 162.600557,71.2445185 C162.600557,68.147638 162.600557,64.7411268 165.601537,63.1927439 C168.602395,61.644361 172.270123,59.4764873 175.27098,62.5733678 C178.271837,65.6701336 179.272206,66.9088858 178.938708,70.3155117 C178.605211,73.7219082 177.271593,73.7219082 175.27098,76.1994127 C173.270367,78.6769171 171.936626,80.2253 171.936626,84.2511873 C171.936626,88.2770746 172.936994,98.4966083 170.26951,101.283743 C167.602027,104.070993 165.934911,105 162.267183,105 C158.599455,105 155.931971,104.380624 155.931971,104.380624" id="Fill-11" fill="#526A32"></path>
                <path d="M166.795756,65.6811341 C167.340556,64.5522975 170.795615,61.678267 173.949642,63.7050366 C176.956805,65.637487 178.858509,67.0285518 177.612478,70.6562148 C176.570826,73.6894018 175.290564,74.1284066 170.759999,73.9729353 C165.317659,73.7861395 165.415695,68.5411145 166.795756,65.6811341" id="Fill-13" fill="#475727"></path>
                <path d="M145.548997,85.4438705 C145.548997,85.4438705 138.538166,78.7639277 135.519873,75.2272823 C132.501455,71.6906369 128.537747,68.8599025 128.193158,65.1083337 C127.848693,61.3568812 129.169515,59.4015322 132.527054,54.5625606 C136.319151,49.0974171 140.171517,44.9764452 140.131627,38.357411 C140.090122,31.4641722 138.467956,31.245413 134.326796,30.1606837 C129.728711,28.9561134 124.73894,34.8372713 124.634557,37.3652068 C124.530049,39.8931422 126.010552,41.3486695 124.235042,44.0109757 C122.459407,46.6731656 118.077917,53.9538243 116.359818,57.2413725 C114.641718,60.5288045 113.994044,68.1392293 117.824539,73.1853363 C121.65491,78.231327 126.890106,87.5734597 129.096571,89.6007598 C131.302787,91.6279436 135.496262,96.9596464 137.310917,98.3885553 C139.125571,99.817348 144.016054,105.407912 146.441847,106.157877 C148.867393,106.907609 153.862383,109.97047 155.857347,106.030829 C157.852311,102.091304 160.525891,101.876381 157.917551,95.4723862 C155.309086,89.0685078 152.405614,86.7823465 149.674375,86.3720278 C146.94326,85.961709 145.548997,85.4438705 145.548997,85.4438705" id="Fill-15" fill="#688538"></path>
                <path d="M126.216829,37.4931306 C127.035813,35.634855 127.766035,33.338823 129.592612,32.6361812 C131.442433,31.924662 132.855182,31.7677463 134.466173,32.3816131 C136.2023,33.0429864 137.765236,33.2532871 137.960107,35.5126095 C138.154977,37.771812 137.638173,42.4911602 136.360196,43.4528089 C134.559032,44.8081864 133.231433,45.0211263 131.597318,44.9984527 C129.963323,44.9757791 128.787477,44.5886483 128.259593,44.1460932 C127.73195,43.7036581 127.162274,42.7769196 127.162274,42.7769196 C127.162274,42.7769196 125.397964,39.3515262 126.216829,37.4931306" id="Fill-17" fill="#475727"></path>
                <path d="M150.380187,43.8811547 C150.380187,43.8811547 153.581786,32.3178528 154.087387,28.2550148 C154.447835,25.3577659 154.507743,20.4126633 154.058556,12.912894 C153.609119,5.41312456 152.261182,2.07989372 158.551677,0.413278304 C165.25841,-1.36375039 172.48023,2.91320143 172.929667,7.07973998 C173.378854,11.2462785 171.581605,14.5795094 170.233669,16.2461248 C168.885732,17.9127402 168.885732,25.4125096 168.436545,29.995702 C167.987108,34.5788944 168.885732,45.8285485 166.639171,52.911664 C164.392611,59.9947796 156.754304,84.577357 154.507743,91.2438187 C152.261182,97.9102804 152.851154,114.980242 148.358032,119.980204 C143.864911,124.979934 135.607177,125.032247 132.01268,121.699016 C123.893983,114.170313 127.350941,108.93714 130.496127,103.103986 C133.641312,97.2708324 137.883193,79.9941646 139.680442,75.4109722 C141.477815,70.8277798 150.380187,43.8811547 150.380187,43.8811547" id="Fill-19" fill="#688538"></path>
                <path d="M161.631466,3 C163.821382,3.157783 166.685041,3.157783 168.369524,5.3669787 C170.054132,7.57617441 170.585017,9.3885751 169.23753,12.3338577 C167.890043,15.2791403 166.542556,16.5414043 166.093394,19.0659322 C165.644232,21.5904602 164.745907,32.5300813 164.745907,35.8961186 C164.745907,39.2621558 162.949383,51.8847956 162.050934,55.2508328 C161.152609,58.6168701 151.172223,84.2726191 150.821877,87.6489415 C150.553752,90.2336608 150.123429,95.6052952 147.677741,107.845165 C147.347232,109.499432 150.821877,118.364032 143.186118,119.626296 C135.550359,120.88856 131.508023,118.784786 131.058736,115.839504 C130.609574,112.894221 132.855385,106.162146 133.753835,101.9546 C134.652034,97.7470533 148.126903,63.2451714 149.025227,57.7753608 C149.923552,52.3055502 156.267969,31.5832664 156.072459,32.3505593 C155.877073,33.1178522 159.27299,20.3049378 157.925503,17.3596552 C156.578016,14.4143726 156.599601,10.5274177 156.660986,7.70555647 C156.746327,3.78891498 161.631466,3 161.631466,3" id="Fill-21" fill="#526A32"></path>
                <path d="M24.2088874,51.5268903 C22.5180428,46.4123745 15.5597586,34.4177088 12.0616483,31.9529255 C8.56366231,29.4880256 -1.43575397,25.3012831 0.173993715,17.6838993 C1.78361702,10.0666321 9.54167545,8.08297237 14.8206827,11.8660416 C19.8516728,15.4712662 18.871172,18.3931811 21.7411549,23.7649717 C24.6110133,29.1368787 34.5416465,38.8299308 36.1930621,42.9508697 C37.8443533,47.0719251 41.2662176,60.9807199 44.6869625,69.5170254 C48.1077075,78.0534473 51.6457443,84.197994 56.1658989,88.318467 C60.6860535,92.4389401 68.075569,99.2451337 76.5254383,103.328104 C84.975432,107.411075 95.1540823,109.543463 94.9982321,116.314134 C94.8425062,123.084922 84.272178,127.134583 79.3592261,123.82367 C74.4462742,120.512873 49.4880953,102.081912 46.186508,99.2122901 C42.8847964,96.3426687 34.7091887,88.4695243 32.4285262,81.8832196 C30.1478637,75.296915 25.7823156,59.0332813 25.3494674,56.1631941 C24.9166191,53.2929903 24.2088874,51.5268903 24.2088874,51.5268903" id="Fill-23" fill="#688538"></path>
                <path d="M22.8775319,43.4521437 C21.7360576,41.6558956 19.8822216,37.8122398 18.9101732,36.5915606 C17.9381249,35.3707655 14.0499314,30.4880489 12.7365378,29.6091645 C11.4231443,28.730396 6.4227739,26.6067249 4.25177861,23.4330982 C1.91347681,20.0151501 1.17792655,19.3803553 3.09447132,15.8150959 C4.52019212,13.162796 9.0029346,10.8572748 11.6298464,12.6148117 C14.2566335,14.3724645 15.7013041,14.9825723 16.5949353,17.7904125 C17.4884419,20.5982528 16.6480445,20.8914847 17.9355068,22.8934588 C19.2228444,24.8954329 21.1933711,27.9961573 22.6644716,29.2656312 C24.1355721,30.5349892 27.8660586,35.0272322 29.5476013,38.005796 C31.229144,40.9843598 33.935221,44.7198791 34.487133,46.0870583 C35.0389204,47.4543534 36.9837651,53.4607393 38.1930596,58.8324462 C39.4023541,64.2040373 42.2928173,70.7718521 43.7907217,74.483032 C45.2885015,78.1942119 46.628699,81.5148023 49.8338281,85.2988846 C53.0388325,89.0830827 60.420765,96.0894705 64.5186527,99.1164813 C68.6165403,102.143608 76.3130141,106.366495 78.2567368,107.025397 C80.2004595,107.6843 87.2133702,109.025981 88.7896918,111.15 C90.3660134,113.274018 92.6518293,117.156038 89.1853929,119.256644 C85.7188318,121.357135 79.7567606,121.431428 78.2856601,120.161954 C76.8146843,118.892481 70.9567121,114.474067 67.3053908,111.95969 C63.6540694,109.445314 54.7751051,102.292658 51.4915589,100.095621 C48.2080127,97.8986997 37.6739356,88.4266142 36.0184489,84.3247288 C34.3628375,80.2228435 30.4999519,70.6518936 28.9225083,63.1803914 C27.3450646,55.7088891 24.8480585,46.5527523 22.8775319,43.4521437" id="Fill-25" fill="#475727"></path>
                <path d="M112.435694,123.855701 C111.548381,124.362005 106.196502,125.530053 100.337659,124.724622 C94.4789412,123.919075 84.3106474,122.178468 81.2266116,119.412693 C78.1425758,116.647033 73.8897461,111.531219 72.2846076,107.921643 C70.6794691,104.312181 68.8775942,95.5352848 68.6384858,91.5233382 C68.3995024,87.5113916 66.7421175,83.1560709 69.960394,79.7715311 C73.2561651,76.3056415 76.8650395,75.138976 79.5126056,76.6452132 C82.1601717,78.1515656 84.6951207,80.0992345 84.6807467,83.1243837 C84.6663727,86.1495329 81.7509502,86.6816476 82.3281601,89.3692992 C82.905245,92.0568357 84.2986482,101.44397 86.3123834,104.443309 C88.3259935,107.442647 88.7904613,110.571731 93.8746082,111.442034 C98.9587551,112.312338 109.39478,112.014593 111.352519,111.274611 C113.310258,110.534858 118.774879,108.925263 120.422389,111.379351 C122.070025,113.833324 124.534479,115.066936 121.717424,118.182768 C118.90037,121.298485 112.435694,123.855701 112.435694,123.855701" id="Fill-27" fill="#688538"></path>
                <path d="M77.5659709,89.9495638 C78.9243698,89.5067425 81.2327827,88.8424527 82.1923141,86.6320509 C83.1519691,84.4215334 83.5011481,82.8711379 81.8483265,80.7658556 C79.8490451,78.219257 78.1193423,77.5973391 75.9049915,78.2288659 C73.774938,78.8361967 71.1452805,80.8610187 70.4775761,82.7624297 C69.8929331,84.4274377 69.5730481,85.575763 71.1743272,87.4049333 C72.7754827,89.2339878 73.7996586,89.5209823 74.9308749,89.8227954 C76.0619675,90.1244927 77.5659709,89.9495638 77.5659709,89.9495638" id="Fill-29" fill="#475727"></path>
                <path d="M67.8779803,120.472065 C67.4785999,116.594713 66.0077714,115.337169 65.0006597,113.465795 C63.9935479,111.594422 64.122097,105.516599 63.6112414,97.8817885 C63.1002621,90.2469783 55.7944955,77.6863608 56.7226714,70.6505524 C57.6507237,63.614628 54.3589283,52.0755917 56.2457162,43.3449477 C57.9733953,35.3510377 56.6309921,28.0156704 49.2281023,28.0000322 C43.9485604,27.9889117 39.4264555,30.858467 39.0583772,33.4482719 C38.6904226,36.037961 40.1129989,40.663862 41.8874456,43.8227822 C43.6618923,46.9815866 43.3258585,50.2300501 43.2294776,54.0624563 C43.1330968,57.8947467 39.9820991,69.9753288 41.420512,76.3827126 C42.8588011,82.7900963 47.1906188,95.0809256 47.414064,99.6916518 C47.6373854,104.302494 44.0392499,110.065699 44.3106999,114.212375 C44.5820262,118.359168 46.5477499,128.374346 49.3775607,130.036284 C52.2074951,131.698221 54.9412962,134.288257 59.3545241,132.252741 C63.767752,130.217224 67.7333472,127.672712 67.9253666,125.816397 C68.1175096,123.960083 67.8779803,120.472065 67.8779803,120.472065" id="Fill-31" fill="#688538"></path>
                <path d="M64.9853623,117.448287 C63.5794603,113.557792 63.058788,111.786067 62.3658809,109.259176 C61.8587246,107.409758 61.375004,102.529147 60.9128593,95.5691986 C60.4508386,88.6092501 54.5467447,77.4158585 55.3862188,71.0019833 C56.2256928,64.5879912 52.9009045,52.8401017 54.6076283,44.8812614 C56.1702652,37.5940433 56.1366614,30.0144239 49.4407092,30.000032 C44.6652553,29.9899693 42.3689156,32.3569111 42.035978,34.7176515 C41.7031644,37.0786259 43.7475378,41.2976771 45.3524583,44.1772281 C46.9575029,47.0568962 45.6028126,51.2173267 45.5157652,54.7109323 C45.4285938,58.2045379 42.5784741,69.2172702 43.8794729,75.0582773 C45.1804716,80.8991675 49.8928099,93.4292511 50.0949285,97.6325063 C50.2969231,101.835762 46.6744129,111.590899 46.9199312,115.371055 C47.1654494,119.151329 48.1332625,124.71304 50.019909,126.940275 C52.695066,130.098303 55.7118404,132.181151 59.9838579,130.264337 C63.9265338,128.495302 65.8085924,125.548823 65.9824391,123.856663 C66.1560379,122.164385 64.9853623,117.448287 64.9853623,117.448287" id="Fill-33" fill="#475727"></path>
                <g id="Group-37" transform="translate(182.000000, 52.000000)">
                    <mask id="mask-2" fill="white">
                        <use xlink:href="#path-1"></use>
                    </mask>
                    <g id="Clip-36"></g>
                    <path d="M13.484649,55.4273571 C13.484649,55.4273571 20.4771786,48.7569643 23.4876462,45.225375 C26.4982377,41.6937857 30.4516687,38.8670982 30.7953645,35.1210089 C31.1390603,31.3748036 29.8215392,29.42225 26.4727054,24.5901964 C22.6904406,19.1328661 18.8480631,15.0177857 18.887849,8.40821429 C18.9292462,1.52483036 20.5472068,1.30638393 24.6776293,0.223205357 C29.2637927,-0.979642857 34.2406265,4.89310714 34.3448631,7.41742857 C34.4489758,9.94175 32.972311,11.3953125 34.743342,14.0536964 C36.514249,16.7120804 40.8842546,23.9824464 42.5980237,27.2651786 C44.3116687,30.5479107 44.9576631,38.1474554 41.1370997,43.1863482 C37.3165363,48.225125 32.0950377,57.5540179 29.894418,59.5783036 C27.6937983,61.6025893 23.5111955,66.9267857 21.7013701,68.3535357 C19.8912969,69.7802857 15.0134941,75.3629732 12.5939899,76.11175 C10.1747335,76.8604107 5.19269408,79.9188929 3.20290254,75.985 C1.21311099,72.0509911 -1.4535369,71.836375 1.14804056,65.4415357 C3.74974197,59.0468125 6.64568563,56.7639196 9.36984338,56.3541875 C12.0938772,55.9444554 13.484649,55.4273571 13.484649,55.4273571" id="Fill-35" fill="#688538" mask="url(#mask-2)"></path>
                </g>
                <path d="M213.783127,60.4931306 C212.964266,58.634855 212.234047,56.338823 210.407476,55.6361812 C208.55766,54.924662 207.144916,54.7677463 205.53393,55.3816131 C203.797808,56.0429864 202.234757,56.2534071 202.039887,58.5126095 C201.845018,60.771812 202.36194,65.4912802 203.639793,66.4528089 C205.440951,67.8081864 206.768666,68.0211263 208.402656,67.9984527 C210.036766,67.9757791 211.212487,67.5886483 211.740369,67.1462132 C212.268131,66.7036581 212.837685,65.7769196 212.837685,65.7769196 C212.837685,65.7769196 214.602109,62.3515262 213.783127,60.4931306" id="Fill-38" fill="#475727"></path>
                <g id="Group-42" transform="translate(113.000000, 90.000000)">
                    <mask id="mask-4" fill="white">
                        <use xlink:href="#path-3"></use>
                    </mask>
                    <g id="Clip-41"></g>
                    <path d="M23.8706377,43.381399 C27.9909272,41.5254927 26.9609184,41.5254927 28.3343482,37.8137948 C29.7077781,34.1019823 28.6776421,27.2971073 26.2740763,23.5852948 C23.8706377,19.8735969 21.4671991,18.945701 20.4371904,16.4711594 C19.4070544,13.9966177 17.0036158,13.3779823 17.0036158,10.2849198 C17.0036158,7.19174271 17.0036158,3.78930521 13.9134623,2.24277396 C10.8233088,0.696128125 7.04644035,-1.46903854 3.95628684,1.62413854 C0.866133333,4.71720104 -0.164002632,5.95447187 0.179418421,9.35690937 C0.522712281,12.7593469 1.89614211,12.7593469 3.95628684,15.2338885 C6.01630439,17.7084302 7.38973421,19.2549615 7.38973421,23.2760344 C7.38973421,27.2971073 6.35972544,37.5044198 9.10645789,40.2882219 C11.8533175,43.072024 13.5701684,44.0000344 17.3470368,44.0000344 C21.1237781,44.0000344 23.8706377,43.381399 23.8706377,43.381399" id="Fill-40" fill="#688538" mask="url(#mask-4)"></path>
                </g>
                <path d="M125.204162,94.6811341 C124.659489,93.5522975 121.204314,90.678267 118.050421,92.7050366 C115.043142,94.637487 113.141568,96.0285518 114.38747,99.6562148 C115.429245,102.689402 116.709378,103.128407 121.239929,102.972935 C126.68238,102.786139 126.584344,97.5411145 125.204162,94.6811341" id="Fill-43" fill="#526A32"></path>
            </g>
        </g>
    </g>
</svg>