<svg width="229" height="136" xmlns="http://www.w3.org/2000/svg" xmlns:xlink="http://www.w3.org/1999/xlink">
  <defs>
    <path id="a" d="M44 0v78H0V0z"/>
    <path id="c" d="M29 44H0V0H29v44z"/>
  </defs>
  <g fill="none" fill-rule="evenodd">
    <path d="M80.6 46.7c0-2.3-5.7-14.4-6.3-16.3-.7-1.9 1.8-2.7 1-7.1-.6-4.4-.8-7.5-5.5-8.6-4.8-1-9.3-1.6-12.2 3.2-3 4.8-1.1 8.5-.2 10.6.9 2.1 2.9 3.2 3.6 4.6.7 1.5 3.4 12.6 4.3 16.3a136 136 0 0 0 6.3 20.3c2.7 5.9 10.3 17.6 12.6 22a54.5 54.5 0 0 0 13 15.3c4.3 3 12.6 8 16.2 8.8 3.6.8 13 4.6 16.7 4.6 3.6 0 13 1.6 14.6-.5 1.5-2 6.7-6.6 5-10.8-1.9-4.2-1-9-5.3-9-4.2 0-14.1 0-17.5-.4a72.4 72.4 0 0 1-21.6-9 93 93 0 0 1-12.4-18 295 295 0 0 1-12.3-26" fill="#526A32"/>
    <path d="M80.6 46.7c0-2.3-5.7-14.4-6.3-16.3-.7-1.9 1.8-2.7 1-7.1-.6-4.4-.8-7.5-5.5-8.6-4.8-1-9.3-1.6-12.2 3.2-3 4.8-1.1 8.5-.2 10.6.9 2.1 2.9 3.2 3.6 4.6.7 1.5 3.4 12.6 4.3 16.3a136 136 0 0 0 6.3 20.3c2.7 5.9 10.3 17.6 12.6 22a54.5 54.5 0 0 0 13 15.3c4.3 3 12.6 8 16.2 8.8 3.6.8 13 4.6 16.7 4.6 3.6 0 13 1.6 14.6-.5 1.5-2 6.7-6.6 5-10.8-1.9-4.2-1-9-5.3-9-4.2 0-14.1 0-17.5-.4a72.4 72.4 0 0 1-21.6-9 93 93 0 0 1-12.4-18 295 295 0 0 1-12.3-26z" stroke="#688538"/>
    <path d="M71.8 26.9c1.2-2 1.2-8.1-2-9.6-3.1-1.4-7.1-2.1-9.6.2-2.4 2.3-3.4 4-3.2 6.2.2 2.8 3 4.8 3.6 5.4.7.6 1.3 1.7 2.4 5.8L69 58A120.6 120.6 0 0 0 81 84.2l7.1 10.9c1.4 1.8 6 7.4 8.6 9.5 2.6 2.1 11 6.7 12.6 7.3a68.6 68.6 0 0 0 26.7 6c3.8-.4 8.5-5 7.8-8-.6-3.2.3-6.3-2-6.7-2.2-.4-13-.5-14.6-.7-1.6 0-13.6-3.6-17.5-5.4-4-1.7-8-5.6-9.9-7.7-1.8-2-7.8-11-9.9-14-2-2.8-5.6-11-7.2-14.3-1.5-3.3-4.6-13-6-17-1.3-4-3.8-8.6-4.5-11.7-.7-3.1-.7-5.1-.5-5.5" fill="#475727"/>
    <path d="M161.2 101.5c3.3.7 4.7 2.4 8.4 1.4s13.6-5.6 13.9-10.7c.3-5 1.6-8.2.6-9.1-1-1-3.4-3.7-.4-8.7 1.3-2 4.5-3.8 8.4-3.3 5 .6 5.8 3.1 5.9 3.2.5 3.2 2 6.1 0 9.3-2 3.1 1 9 .6 12.2a34.3 34.3 0 0 1-7 14.7 39.3 39.3 0 0 1-13.9 10c-5 1.7-9.8 1.7-13.5 1.3-3.7-.3-9.1-5.9-10.8-8.7-1.7-2.9-3.4-3.5-1.7-7.6s6.2-4.6 9.5-4" fill="#688538"/>
    <path d="M195.5 75.5c1.1 1.4 1.6 5.4 1.5 6.3-.1 1-1 2.7-1.5 3.5-.6.8-4.2 1.8-5.7 1.7-1.5-.1-3.5-2-4.3-2.5-.8-.5-2-2.4-1.3-5.1.7-2.6.7-3.8 3-4.5 2.4-.7 4.3-1.2 6-.7 1.6.6 2.3 1.3 2.3 1.3" fill="#475727"/>
    <path d="M156 104.4c-4-1.9-3-1.9-4.4-5.6a19.7 19.7 0 0 1 2-14.2c2.3-3.8 4.7-4.7 5.7-7.2 1-2.4 3.3-3 3.3-6.2 0-3 0-6.5 3-8 3-1.6 6.7-3.7 9.7-.6 3 3 4 4.3 3.6 7.7-.3 3.4-1.6 3.4-3.6 5.9-2 2.5-3.4 4-3.4 8s1 14.3-1.6 17c-2.7 2.9-4.4 3.8-8 3.8-3.7 0-6.4-.6-6.4-.6" fill="#526A32"/>
    <path d="M166.8 65.7c.5-1.1 4-4 7.1-2 3 2 5 3.3 3.7 7-1 3-2.3 3.4-6.8 3.3-5.5-.2-5.4-5.5-4-8.3" fill="#475727"/>
    <path d="M145.5 85.4s-7-6.6-10-10.2c-3-3.5-7-6.3-7.3-10-.4-3.8 1-5.8 4.3-10.6 3.8-5.5 7.7-9.6 7.6-16.2 0-7-1.6-7.2-5.8-8.2-4.6-1.2-9.6 4.6-9.7 7.2 0 2.5 1.4 4-.4 6.6a214 214 0 0 0-7.8 13.2 16.8 16.8 0 0 0 1.4 16c3.9 5 9 14.4 11.3 16.4 2.2 2 6.4 7.4 8.2 8.8 1.8 1.4 6.7 7 9.1 7.8 2.5.7 7.5 3.8 9.5-.2s4.6-4.1 2-10.5c-2.6-6.4-5.5-8.7-8.2-9.1-2.8-.4-4.2-1-4.2-1" fill="#688538"/>
    <path d="M126.2 37.5c.8-1.9 1.6-4.2 3.4-4.9 1.8-.7 3.3-.8 4.9-.2 1.7.6 3.3.9 3.5 3.1.2 2.3-.4 7-1.6 8a6.8 6.8 0 0 1-4.8 1.5c-1.6 0-2.8-.4-3.3-.9-.6-.4-1.1-1.3-1.1-1.3s-1.8-3.4-1-5.3" fill="#475727"/>
    <path d="M150.4 43.9s3.2-11.6 3.7-15.6c.3-3 .4-7.9 0-15.4-.5-7.5-1.8-10.8 4.5-12.5 6.7-1.8 13.9 2.5 14.3 6.7.5 4.1-1.3 7.5-2.7 9.1-1.3 1.7-1.3 9.2-1.8 13.8-.4 4.6.5 15.8-1.8 23-2.2 7-9.8 31.6-12 38.2-2.3 6.7-1.7 23.8-6.2 28.8s-12.8 5-16.4 1.7c-8.1-7.5-4.6-12.8-1.5-18.6 3.1-5.8 7.4-23.1 9.2-27.7 1.8-4.6 10.7-31.5 10.7-31.5" fill="#688538"/>
    <path d="M161.6 3c2.2.2 5 .2 6.8 2.4 1.7 2.2 2.2 4 .8 7-1.3 2.9-2.7 4.1-3.1 6.7-.5 2.5-1.4 13.4-1.4 16.8 0 3.4-1.8 16-2.6 19.4-1 3.3-11 29-11.3 32.3-.2 2.6-.7 8-3.1 20.2-.4 1.7 3.1 10.6-4.5 11.8-7.6 1.3-11.7-.8-12.1-3.8-.5-3 1.8-9.6 2.7-13.8.9-4.3 14.3-38.8 15.2-44.2 1-5.5 7.3-26.2 7-25.4-.1.7 3.3-12.1 2-15-1.4-3-1.4-6.9-1.3-9.7 0-4 5-4.7 5-4.7" fill="#526A32"/>
    <path d="M24.2 51.5A60.8 60.8 0 0 0 12.1 32C8.6 29.5-1.4 25.3 0 17.7 1.9 10 9.6 8 14.9 11.9c5 3.6 4 6.5 7 11.9 2.8 5.3 12.7 15 14.4 19.2 1.6 4 5 18 8.5 26.5a50 50 0 0 0 11.5 18.8c4.5 4.1 11.9 11 20.3 15 8.5 4.1 18.7 6.2 18.5 13-.2 6.8-10.7 10.8-15.6 7.5-5-3.3-30-21.7-33.2-24.6A52.7 52.7 0 0 1 32.4 82a294.5 294.5 0 0 1-8.2-30.4" fill="#688538"/>
    <path d="M22.9 43.5c-1.2-1.8-3-5.7-4-7-1-1.1-4.9-6-6.2-6.9-1.3-.9-6.3-3-8.4-6.2-2.4-3.4-3.1-4-1.2-7.6 1.4-2.6 5.9-5 8.5-3.2 2.7 1.8 4.1 2.4 5 5.2.9 2.8 0 3 1.3 5 1.3 2.1 3.3 5.2 4.8 6.5a46 46 0 0 1 6.8 8.7c1.7 3 4.4 6.7 5 8 .5 1.5 2.5 7.5 3.7 12.8 1.2 5.4 4 12 5.6 15.7 1.5 3.7 2.8 7 6 10.8 3.2 3.8 10.6 10.8 14.7 13.8a84 84 0 0 0 13.8 8c1.9.6 9 2 10.5 4 1.6 2.2 3.9 6 .4 8.2-3.5 2-9.4 2.1-11 .9-1.4-1.3-7.2-5.7-10.9-8.2-3.6-2.6-12.5-9.7-15.8-11.9A65.6 65.6 0 0 1 36 84.3c-1.6-4-5.5-13.6-7-21.1-1.7-7.5-4.2-16.6-6.1-19.7" fill="#475727"/>
    <path d="M112.4 123.9c-.9.5-6.2 1.6-12 .8-6-.8-16-2.5-19.2-5.3-3-2.8-7.3-7.9-9-11.5a66.5 66.5 0 0 1-3.6-16.4c-.2-4-1.9-8.3 1.4-11.7 3.3-3.5 6.9-4.7 9.5-3.2 2.7 1.6 5.2 3.5 5.2 6.5s-3 3.6-2.4 6.3c.6 2.7 2 12 4 15s2.5 6.2 7.6 7c5 1 15.5.6 17.5-.1 2-.8 7.4-2.4 9 0 1.7 2.5 4.1 3.8 1.3 6.9a30.9 30.9 0 0 1-9.3 5.7" fill="#688538"/>
    <path d="M77.6 90c1.3-.5 3.6-1.2 4.6-3.4 1-2.2 1.3-3.7-.4-5.8-2-2.6-3.7-3.2-5.9-2.6-2.1.6-4.8 2.7-5.4 4.6-.6 1.6-1 2.8.7 4.6a6.4 6.4 0 0 0 3.7 2.4c1.2.3 2.7.1 2.7.1" fill="#475727"/>
    <path d="M67.9 120.5c-.4-4-1.9-5.2-2.9-7-1-2-.9-8-1.4-15.6-.5-7.7-7.8-20.2-6.9-27.2 1-7-2.3-18.6-.5-27.4 1.8-8 .4-15.3-7-15.3-5.3 0-9.8 2.9-10.1 5.4-.4 2.6 1 7.3 2.8 10.4 1.8 3.2 1.4 6.4 1.3 10.3 0 3.8-3.2 15.9-1.8 22.3 1.5 6.4 5.8 18.7 6 23.3.2 4.6-3.4 10.4-3 14.5.2 4.2 2.1 14.2 5 15.8 2.8 1.7 5.5 4.3 10 2.3 4.4-2 8.3-4.6 8.5-6.5.2-1.8 0-5.3 0-5.3" fill="#688538"/>
    <path d="M65 117.4c-1.4-3.8-2-5.6-2.6-8.1-.5-1.9-1-6.8-1.5-13.7-.4-7-6.4-18.2-5.5-24.6.8-6.4-2.5-18.2-.8-26.1 1.6-7.3 1.5-14.9-5.2-14.9-4.7 0-7 2.4-7.4 4.7-.3 2.4 1.7 6.6 3.4 9.5 1.6 2.9.2 7 .1 10.5 0 3.5-3 14.5-1.6 20.4 1.3 5.8 6 18.3 6.2 22.5.2 4.2-3.4 14-3.2 17.8.3 3.8 1.2 9.3 3.1 11.5 2.7 3.2 5.7 5.3 10 3.4 4-1.8 5.8-4.8 6-6.4.2-1.7-1-6.5-1-6.5" fill="#475727"/>
    <g transform="translate(182 52)">
      <mask id="b" fill="#fff">
        <use xlink:href="#a"/>
      </mask>
      <path d="M13.5 55.4s7-6.6 10-10.2c3-3.5 7-6.3 7.3-10 .3-3.8-1-5.8-4.3-10.6-3.8-5.5-7.7-9.6-7.6-16.2 0-6.9 1.6-7 5.8-8.2C29.3-1 34.2 5 34.3 7.4c.1 2.5-1.3 4 .4 6.7 1.8 2.6 6.2 9.9 7.9 13.2a16.8 16.8 0 0 1-1.5 15.9c-3.8 5-9 14.4-11.2 16.4-2.2 2-6.4 7.3-8.2 8.8-1.8 1.4-6.7 7-9.1 7.7-2.4.8-7.4 3.8-9.4-.1-2-4-4.7-4.2-2-10.6 2.5-6.4 5.4-8.6 8.2-9 2.7-.5 4-1 4-1" fill="#688538" mask="url(#b)"/>
    </g>
    <path d="M213.8 60.5c-.8-1.9-1.6-4.2-3.4-4.9-1.8-.7-3.3-.8-4.9-.2-1.7.6-3.3.9-3.5 3.1-.2 2.3.4 7 1.6 8a6.8 6.8 0 0 0 4.8 1.5c1.6 0 2.8-.4 3.3-.9.6-.4 1.1-1.3 1.1-1.3s1.8-3.4 1-5.3" fill="#475727"/>
    <g transform="translate(113 90)">
      <mask id="d" fill="#fff">
        <use xlink:href="#c"/>
      </mask>
      <path d="M23.9 43.4c4-1.9 3-1.9 4.4-5.6 1.4-3.7.4-10.5-2-14.2-2.4-3.7-4.8-4.7-5.9-7.1-1-2.5-3.4-3.1-3.4-6.2s0-6.5-3-8C10.7.6 7-1.6 4 1.5.9 4.7-.2 6 .2 9.4c.3 3.4 1.7 3.4 3.8 5.8 2 2.5 3.4 4 3.4 8 0 4.1-1 14.3 1.7 17 2.8 2.9 4.5 3.8 8.2 3.8 3.8 0 6.6-.6 6.6-.6" fill="#688538" mask="url(#d)"/>
    </g>
    <path d="M125.2 94.7c-.5-1.1-4-4-7.1-2-3 2-5 3.3-3.7 7 1 3 2.3 3.4 6.8 3.3 5.5-.2 5.4-5.5 4-8.3" fill="#526A32"/>
  </g>
</svg>
