<svg width="119" height="126" xmlns="http://www.w3.org/2000/svg" xmlns:xlink="http://www.w3.org/1999/xlink">
  <defs>
    <path id="a" d="M38.6 56.7V.7H.6v56h38z"/>
    <path id="c" d="M.8.3H8v36H.8V.2z"/>
  </defs>
  <g fill="none" fill-rule="evenodd">
    <path d="M61 102s14.6 20.9 17.7 22.6c3.1 1.8 4.4 0 5-.4.6-.4 1.8-5.1.7-8.1-1-3-4.9-10.4-7.6-12a26 26 0 0 0-7.3-2.6c-1.1-.3-1.9.1-1.9.1s-6 .7-6.5.3" fill="#1E1854"/>
    <path d="M69 101.7s-.9 0-.6.2a43 43 0 0 0 6.3 3.4c2 .8 4.8 2.1 5 1.8.1-.4-1.6-2.4-2.2-2.6-.6-.2-4-1-5-1.5l-3.6-1.3zm-2 .4s6.7 4.9 8.4 6.4a46 46 0 0 0 6.2 4.2c.9.4 2 1.6 2 1.3 0-2.4-1-3.9-2-4.2-1-.3-5.8-2.2-7.4-3.5-1.5-1.2-4-2.7-4-2.7l-2.5-1.7-.8.2zm-2.3-.3a318 318 0 0 0 14.4 14.1l3.7 3c.6.5 2 1 2.1.6.1-.4.4-1.7-.3-2.4A115.1 115.1 0 0 1 66 101.8c-.4-1-1.3 0-1.3 0zm-1.1.3h-1s16.7 19 17.4 19.5c.7.7 3 2.9 3.3 2.9.6 0 1.4-1.6 1-2-12-11.5-20.7-20.4-20.7-20.4zm-2 0s7.2 9 8.5 11c1.4 2 7.6 8.4 8.2 9.2.7.7 3.2 2.5 3.3 3 .2.6-2 1.2-5.5-3L65 108c-1.2-1.2-3.8-5.5-4-5.9-.4-.4.5 0 .5 0z" fill="#6557A4"/>
    <path d="M58.5 101.3S52 111.2 50 114c-2 2.8-11.2 10.2-13 8.4-1.4-1.4-2-5.1-1.7-6.6.2-1.5-.4-3 .5-5.1.8-2.2 0-3.1 1.6-4.7 1.5-1.6.2-2.2 3-4.3 3-2.2 4-2.4 5.3-2.7 1.3-.3 6.4-.5 6.4-.5s.7.7 2.4 1.2 3.9 1.6 3.9 1.6" fill="#1E1854"/>
    <path d="M52.4 98.6l-2.2.3-1.9.3-2 .2-2.8.4c-.5 0-1.5.8-1.5.9h1.7c.9 0 2-.4 3.1-.8 1-.4 5.5-1.2 5.6-1.2zm.2.1l-1.3.4-3 .9-4 1.2c-1.4.3-2.2 0-3.7.5C39 102 39 103 39 103l1.5-.2c.5 0 1.7-.5 2.8-.7l9.4-3.4h-.2zm.4.3l-.5.2-3.6 1.6c-.4.2-2.9 1.4-5 2.2-2.2.8-5.5 1.5-5.6 1.6-.7.7-.6 1.2-.6 1.2l2-.5a50.5 50.5 0 0 0 8.1-3.3l5.4-2.9-.2-.1zm.5.3l-2.6 1.5-3.2 1.7c-.6.3-4.8 2.2-6.7 2.9l-4 1.2c-.7.3-.6 1.4-.6 1.4l2.4-.8 4.2-2a318 318 0 0 0 10.8-5.6l-.3-.3zm.5.4l-.7.5-1.6 1c-.5.4-5.5 3-6.2 3.4l-5.3 2.6-4 1.7c-.1.1-.4 1.4-.2 1.4l3.9-1.8 2.6-1.3 4-2.4 7.8-5-.3-.1zm.7.3a43.8 43.8 0 0 0-3.7 2.3l-2.3 1.6-2.9 2c-.5.5-4.3 2.5-4.8 2.9l-5.4 2.6c-.2.2-.2 1.4-.2 1.4s.9-.4 1.2-.7c.4-.3 2.9-1.4 3.3-1.8a41 41 0 0 1 3.1-1.8l12-8.3-.3-.2zm.4.3l-.7.6-1.3 1.2c-.6.5-4 3.2-4.5 3.4l-4.6 3.3c-1 .7-8.4 4.7-8.7 5.1-.2.4 0 1.7 0 1.7l1-.7 5.6-3.3c.8-.5 13.4-11 13.6-11l-.4-.3zm.7.3c-.2 0-1 1.3-1.5 1.7-.5.5-2.6 2.2-3.5 3.2-1 1-5.5 4.2-6.7 5.5-1.2 1.3-8 5-8.8 5.7-.4.4-.2 2 .2 2a7 7 0 0 0 1.5-.7l3.3-2 3.8-2.8 5.6-5.4 6.6-7-.5-.2zm1 .5c-.3 0-.3.3-.4.6-.1.3-3.7 3.9-6.2 6.7l-7 7.1c-1.8 1.7-7.3 4.2-7.4 4.4-.2.2-.4.5-.2 1 .3.6 1 .8 1 .8s3-1.5 3.7-2c.8-.6 5.4-4 6.4-5.1 1.1-1.2 10.4-13.2 10.7-13.3l-.7-.2zm1.9.4c.2 0-2.5 3.8-4.5 7.1a36 36 0 0 1-9.6 11.2 43 43 0 0 1-6 3c-.7.2-1.2 0-1.2-.2 0-.1.8 0 1.2-.4 7.7-5.4 7-5 8-6A225 225 0 0 0 58 101.5h.7z" fill="#8776B5"/>
    <path d="M81 62.2s1.1-8.6 1.2-11c.1-2 .6-3.4 3-4.8 2.2-1.5 10.4-2 12.8-1.2 12.7 4.8 17.4 13.2 18.9 20.2s3.3 10.3-2.6 20.3-12.7 14.1-17 14.2c-4.5.1-7.7 1-11.8-4.4-4.2-5.2-5.4-12.4-5.4-12.4s2.3-13 .9-20.9" fill="#CE7046"/>
    <g transform="translate(80 43.7)">
      <mask id="b" fill="#fff">
        <use xlink:href="#a"/>
      </mask>
      <path d="M1.1 20l2.4-9.5c.1-.9.8-7.1.6-7-.2 0-1 .6-1 1.1l-.5 5.8-.7 5.2C2 15.9 1 19 1 19l.1 1zm.3 2.3c0-.2 3.7-8.5 4.1-9.8C5.9 11 6.7 6 6.9 4.9c.3-1.1.6-3 .5-3-.2-.2-1.8.1-2.3.8-.4.6-1 5.9-.8 6.8a33.7 33.7 0 0 1-3 12v.8zm0 2.2S8 15.5 8.7 13c.5-1.4 1.7-4.6 1.7-5.3 0-.7 1.6-5 1.7-5.6 0-.7.2-.8 0-1-.1-.2-2-.8-2.7.3-.3.5-2 7.6-2.4 9-.5 1.5-2 6.6-2.7 7.7a66 66 0 0 0-2.9 5.4v1zm0 1.8c0-.2 5.2-5.5 5.9-6.2.7-.7 6.4-8 7-9.2.8-1.3 2.6-4.4 2.9-5.5.3-1 2.2-3.3 1.7-3.6-.5-.3-2.7-2-4.4-.7-1.7 1.3-3.8 10.9-4.4 12l-3.7 6.2c-.6.9-3.3 3.9-3.8 4.6l-1.3 1.7v.7zm0 1l4-3.3c.6-.6 7-5.5 8.2-6.8 1.2-1.3 4.6-5.7 6.3-8 1.8-2.1 3.9-4.7 3.8-5-.1-.5-1.6-1.9-2.8-1.5-1.1.4-3.2 5.6-3.8 6.6-.6 1-3.8 7.2-5.4 8.4A163.6 163.6 0 0 0 1.3 27v.4zm24.1-22c-.3-.1-1.7 2.2-2.3 3.4-.6 1.2-8.5 9-10 10.1-1.3 1.2-11.8 9-11.8 9V29s1.7-.8 2.7-1.5c1-.7 8.5-4.4 10-5.4 1.4-1.1 8.9-6.8 10-7.8 1.7-1.9 4.5-6.5 4.5-6.5-.6-1.6-2.8-2.4-3.1-2.5zM1.3 29.8c.1 0 7-1.8 8-2.3 1-.5 8-3.5 11.2-5.1 3.2-1.6 9.6-5.7 10.3-6.4.7-.6 2.2-2.9 2.4-3 .3-.4-.6-2.6-2.6-3.4-.6-.3-4.5 5.3-5.3 6-.7.6-5.3 4.5-10.6 7.5-5.2 2.9-8.2 4-9.2 4.6-1.1.6-4.2 1.5-4.2 1.5v.6zm0 1.2c.4-.3 11.3-2 14.6-3 3.4-1.2 10.6-3.2 12-3.8 1.3-.6 5.2-2.5 7-3.2.7-.3 1-.5 1.5-1.2.5-1-.9-4.6-1.7-4.5-1.2.2-3.4 3.1-5.6 4.8C26.8 22 18 25 15.3 26.4c-2.6 1.4-7.1 2.4-8.7 2.9l-5.4 1.2c-.3 0 0 .6 0 .6zM1 32.2c.3 0-1 0 .1.2 4.5.8 16.5 3.1 19.6 3.4 3.9.4 9 .6 11.7.6h4.8c.7 0 1.9-4.5 1.2-5.3-.8-1-3.6 1.3-8 1.7A120.8 120.8 0 0 1 1 32.2zm0-.3l1.1.3c.5 0 7.7 0 11.2-.5l17.9-2.4c1-.2 6.5-1.8 6.9-2.8 1-2.3-1-4.3-1-4.3s-.6 0-2.5 1c-2 1-3.5 1.2-7.3 3-3.9 1.7-12.7 2.5-17.4 3.7a50 50 0 0 1-8.7 1.5L1 32zM1 33s7.6 4.5 8.8 4.8c1.2.3 9.3 3 12 3.4l8.5 1.7 3.1.5c.4 0 2.4-2.4 2.2-3.6-.1-1.2-7.2-1.2-8.7-.9-1.5.3-9-1.3-11.8-1.8-2.8-.4-10.4-3.1-11.8-3.6L1 32.6 1 33zm0 1.2s3.6 4 5.8 5.2c2 1.3 9.8 5.4 12.9 6.4 3 1 8.3 3.5 9.1 3.5.8 0 3.1-1.2 2.8-2.8-.4-1.6-12-3.8-14-4.5-2.1-.7-10.5-4.2-11.1-4.6l-5.4-4-.1.8zM.7 36s5.7 7.7 7.2 9.3c1.5 1.5 10.5 7.2 11.6 8 1.2.6 2.3 1.6 2.9 1.6.5 0 2.5 0 2.6-1.7.2-1.8-9.9-6.9-13.4-9.3-3.5-2.5-7.2-4.4-8.2-6C2.4 36.5.7 35 .7 35v1zm-.1.6s2.3 3.7 3.7 6.7a33 33 0 0 0 9 8.7c1.1.4 6.7 3.2 5.7 4.1-1 1-3.8.7-4.6.3-.8-.4-6-3.8-7.4-5.5C5.6 49.2.6 38.1.6 38.1v-1.6z" fill="#FCC06D" mask="url(#b)"/>
    </g>
    <path d="M40.7 69.1s-6-11.4-7.4-13.3c-1.4-1.8-7.9-8.3-9.8-8.3-2 0-9 .8-11.6 3.7-2.6 3-6 3.3-7.9 8.2a43 43 0 0 0-3.3 15c.2 4.1-.4 11.8 2.8 16.1 3.2 4.4 7.4 11 11.8 11.4 4.3.4 12.4-3.3 15-4.6 2.7-1.2 5-3.1 6.5-4.8 1.7-1.7 6.2-8.1 6.2-8.1L40.7 69z" fill="#CE7046"/>
    <path d="M41.7 85.8l-6.9 6.5c-1 1-4.1 3.2-6.2 4.4-2 1.3-5.2 3.8-10.1 5.1-5 1.4-5.3-.5-5.3-.5s.6 0 1.6-.3c1-.2 4.1-.8 6.4-2.2 2.4-1.3 9-3.7 10.5-5.2 1.5-1.4 9.8-8.2 9.8-8.2l.2.4zm-.7-1.4L20.1 94.7c-1.7 1-7 2.5-8.2 3-1.2.5-2.5.5-2.5.5s1.1 1.9 2.2 2.2c1 .2 10.1-4.3 12-5.2l7.8-4c1-.7 8.8-5.3 9.1-5.7.3-.5.7-.6.7-.6l-.2-.5zm-.2-1.5s-15 4.4-17.3 5.4c-2.2 1-11.7 2.3-13 2.6-1.2.3-5.7.7-5.8 1.2 0 .5 1.8 3.5 2.6 3.7.8.2 3-.1 5.5-1 2.6-.8 12.7-5 15.3-6.2 2.5-1.1 5.4-2 6.5-2.6 1-.7 4.8-1.5 5.3-2 .5-.4 1.1-.5 1.1-.5l-.2-.6zm0-1l-8.5 1.3c-1.5.4-11 .7-15.4.5-4.5-.2-8-.7-9.4-.8-1.3 0-6.3-.7-6.4-.4-.1.4-.9 3 .6 4.4 1.1 1.2 10-.2 12.6-.2 3.1 0 10.3-.8 13-1.4 2.8-.5 8.2-1.5 9.6-1.9l3.9-1v-.5zm-.1-1L4.2 77.2c-.8 0-3.1-.8-3.5-.3-.4.5-.4 1.7-.3 2 .2.5.2.9.5 1 .2.1 26.8 1 28.4 1.3 1.6.2 5.2.3 6.5.2l4.9-.2v-.5zm0-1.4s-34.5-8-35.5-8.4c-1-.2-3.7-1.5-4.1-1-.4.4-1.1 2-1.1 2.5s.3 1.1.6 1.4A681.3 681.3 0 0 0 35 79.4c1.2 0 5.9.7 5.9.7l-.2-.6zm-.2-.7L4.6 64.3c-.4-.2-1.7-1-2-.8-.1 0-1.7 2-.9 3 1 1 20.8 6.6 22 7.1a232.8 232.8 0 0 0 16.9 5.5v-.3zm0-1l-34-19.3c-.6-.3-1.3-1-1.6-.7-.5.6-2.7 2.4-1.5 3.6 1.1 1.2 13.5 5.7 14.8 6.5 1.2.9 11.6 5.3 14 6.5 2.2 1.2 7 3.3 7.4 3.5.3.2 1 .1 1 .1v-.3zm.1-.8S11 55.2 10.7 54.8c-.3-.4-1-1.3-1.6-1.4-.6 0-3.5 1.2-2.8 2.5.6 1 4.4 3.3 5.7 4.2 1.2.9 12.6 7.8 13.7 8.6 1 .7 11.3 6.4 12 7 .7.7 3 1.6 3 1.6V77zm0-1.3S19 52.3 17.3 50.7c-1.6-1.6-1.7-1.4-2.1-1.6-.5-.1-2.8.5-2.8 1.7 0 1.6 12.5 12.3 14.6 13.4 2 1.1 9.8 8.9 10.9 10a15 15 0 0 0 2.9 2.3l-.2-.8zm0-3.5S30 55.1 28.6 54c-1.2-1.2-7-6.1-7-6.1s-2.2-1-3.1.5c-.6.8 5.7 6.2 8.4 8.7 2.7 2.5 4.6 5.3 7.2 8.2 2.5 2.8 6.6 9 6.6 9v-2z" fill="#FCC06D"/>
    <path d="M53 44.6c-1.5 3.4-2.7 1.5-4.3 4.8-1.3 2.8-2.9 4-2.9 4s-3.2 4.1-3.3 6.2c0 2-2 8.7-1.9 12.6.2 4-.5 10.3.7 13 1 2.8 4.5 7.5 5.6 9.2 1 1.7 8.8 6.7 10.3 7 1.5.2 2.7.9 5.3.8 2.6-.2 5.6.5 8.7-1.6 3.2-2 6.2-6.8 6.8-9a98 98 0 0 0 3.5-19.4c-.5-4 .3-9-.9-11.3-1.2-2.2-5.3-8-7-11.9-1.7-3.8-3-1-5.4-5-2.5-4-13.6-2.7-15.1.6" fill="#CE7046"/>
    <path d="M43.9 72.7l.4-4c.2-1.1-.4-3.5.5-3s2.6 1.6 3.4.5c.7-1 2.1-3.8 2.7-5.2.6-1.5.7-4.4 2.6-4.7 2-.2 1.3-2.9 3.8-2.9s4.2-.9 7.4-.2 6.4-.2 6.1 1.7c-.3 1.9-.3 4.6 1.1 7 1.4 2.3 1.5 5.2 3.2 4.7 1.6-.6 1.9-.9 2.8-1.7.9-.9.6-.5 1 .9.3 1.4.2 6 .1 8.2-.1 2 0 5.4-.9 8.4-.8 3-1.7 7.5-3.4 8.5C73 92 71.6 95 72 95c.6.1 2.9-.9 3.6-2a98 98 0 0 0 4.9-12.8c.2-1.5 1-7.2 1-9.5 0-2.4.2-7-.6-9.1-.8-2-3.4-9.4-5.4-12-2-2.6-2-5.2-4.7-7-2.6-1.7-2.4-2-6.7-2.7-4.4-.6-5.2-1.4-8.2 0-2.9 1.3-6.6 4.4-7.8 6.7-1.1 2.4-4.4 5.4-3.8 6 .5.7-1.3 2.2-1.5 3.9-.3 1.7-.5 13.5-.5 13.5l1.5 2.7z" fill="#1E1854"/>
    <path d="M76.6 50.8c-.2-.4-2.5-9.2-4-10.9-1.6-1.7-5.8-8.5-6.5-9.2-.8-.7-3.8-5-4.2-4.6-.3.4-1-1.1-1-1.1s-2.8 1.1-3.3.7c-.4-.5-.6-1.9-.7-1.5-.2.3-3.3 5.6-4.7 7.2a58.6 58.6 0 0 0-5.3 9.4c-.7 1.8-3.7 13.3-4.2 14.1-.4.8-2 5.9-1.9 7.6.2 1.6 0 8.9 0 8.9S42 68 42 67.6l.7-8.4c0-.6 3.4-6.6 3.4-6.6s4.8-9.5 10.5-10c5.7-.3 11.7 1.4 13 3 1.1 1.8 3.8 5 5 6.2l2.9 3-1-4z" fill="#1E1854"/>
    <path d="M72.9 83.4c.4 0 2.5-.6 1.9-2.8-.6-2.1-.5-3-2.8-4-3-1.2-7.1-2.1-10.3-2-3.2.2-5.7-.5-7.8.3-2.6 1-2.9.5-4 2.3-1.3 2-2.3 2.2-1.6 4.4.7 2.2 2.3 2.8 4.2 2 1.9-.7 4.3-.7 8.3-.9 4-.2 6.5-.7 8 .4 1.6 1.1 3.4.4 4 .3M76.4 57.7c.3-.4-1.4-.4-1.8.3-.7 1.1-1.1 3.5-.9 4.3.3.8.6 2 1.7 2 1-.1 1.6-1 1.8-1.6.3-.6 0-.7-.4 0s-.9 1-1.6.7c-.8-.2-1-1.1-.8-2.7.1-1.1.5-2 .8-2.4.3-.4 1-.3 1.2-.6M47 59.2v2.6c-.1.8-.3 1.3-.6 1.5-.2 0-.4 0-.6-.5l-.5-.8c-.1 0-.2.2 0 .6l.5.9c.1.3.3.6.8.4.5-.3 1-1.5 1-1.8.5-3-.1-3.6-.2-3.8 0-.3-.5-.6-.9-.7h-.3c.3.2.5.5.6.8l.2.8" fill="#FCC06D"/>
    <g transform="translate(55 .7)">
      <mask id="d" fill="#fff">
        <use xlink:href="#c"/>
      </mask>
      <path d="M4 .6c0 .5 1.5 9.6 1.4 12-.2 2.3.4 9.7.4 9.7s.4 2.5 1 3.6c.5.8 2.5 5 .2 8.5-1.2 1.8-1.7 2.2-3.3 1.5-1.4-.8-3-3-3-4.5.1-1.5 0-3 .6-4.6.6-1.6.4-.8.6-3.3C2 20.9.6 16.2 1 15c.5-1.1-.2-3.4.3-4.1.4-.7 0-3 .2-4s0-2.4.5-3.9S2.5.7 3 .5C3.5.3 4 0 4 .6" fill="#CE7046" mask="url(#d)"/>
    </g>
    <path d="M60.7 31.7c.3-1.2-1-2.8-1.2-4.7a77 77 0 0 1 0-9.7c.3-2-.3-5.5-.5-6.7-.2-1.1-.2-5.7 0-7.7 0-2-.3-1.4-1.1 0s-.6 5.7-.2 7.5c.4 1.7.3 6.6.3 8.5v10c-.1 2.1.5 3.2 1.2 3.8 0 0 1.2.3 1.5-1" fill="#FCC06D"/>
    <path d="M40.8 69.5s0 2.4.3 4.2c.2 1.7 0 6 .7 7.7.6 1.6 1.9 4 2.6 5.7.7 1.7 1.4 3 1.8 3.7a18 18 0 0 0 2.2 2.5c.6.4 1.8.2 2 0 .1-.3.5-.8-1-2.8-1.5-2-3.5-3.8-3.8-5.2-.4-1.5-1-5.5-1.2-6.2a42.5 42.5 0 0 1-.4-8.2c0-.2-3.2-1.4-3.2-1.4" fill="#1E1854"/>
    <path d="M76.5 57.2c.3.4.7 1.1 1 1.9l.3 2.2c0 .7-.5 1.6-.3 2 .2.4.4.4.7-.3.3-.7.3-3 .1-3.7-.2-.6-.4-1.7-.8-2-.5-.4-.4-.5-.8-.5-.3 0-.2.4-.2.4M46 56.5c-.2 0-1.1.7-1.4 1.3l-.6 2.3c0 .4 0 2 .2 2.5l.4 1.4c.2.3.7 1 .8.8 0-.2 0-1-.3-1.3-.2-.3-.4-2.2-.4-2.6 0-.5.1-1.6.3-2.1 0-.5.1-.5.4-1 .2-.4.6-.3.8-.8.1-.5-.2-.5-.2-.5" fill="#8776B5"/>
    <path d="M59.4 40.2c-2.8 0-4.4 1-6.4 2.3-2 1.4-3.9 4.1-4.8 5.5-1.1 1.8-3.4 4.9-4 6l-2.4 5.5c-.8 2-.7 7.6-.7 9.3 0 1.7 1 10.6 1.4 12 .3 1.3 2.3 6.7 3.4 8.5a12 12 0 0 0 2.4 3.3c.6.5 1.4.7 1.7.3.5-1-3-4-4-6-1.2-2-1.5-5.6-1.9-7.4-.4-1.9-1-4.8-1-7.2.1-2.3.4-3.1.8-5s.1-3 0-3.4c0-.6-.4-1.7-.4-3s.7-3.3 1.5-4.2c1-1.1 1.4-2.7 2.2-3.3.7-.7 2.3-.4 2.7-1 .3-.6 5.7-3.1 7.5-3.9a9.3 9.3 0 0 1 7-.3c3 .8 7.2 3.1 8.5 3.6 1.2.4 3.6 2.5 5.2 5.4 1.6 3 .8 6.3.8 6.3s1 2 1.1 4.2c.2 2.2-.6 10.7-.6 11.8 0 1.2-1.6 6.3-2.3 8.5-.7 2.2-2.5 3.6-3.6 5.5-1 1.9 1.3 0 2.4-1.7 1.2-1.8 1.6-4 2.3-5.7.8-1.7 1.7-5.4 2.4-9.3.7-4 .2-2.7.5-7 .2-4.2.2-3.8-.3-6.4-.5-2.7-1.1-3.4-2.1-6.4-1-3-2.5-5.2-3-6.2-.3-.7-1-1.7-2.7-4.5a10.6 10.6 0 0 0-4.5-4.4c-2-1-6.3-1.8-9.1-1.7" fill="#8776B5"/>
    <path d="M72 80c-.5-.6-3.5-2.1-8.3-2.4-5-.2-7.2 0-9.7.6-3.6.8-3.6 2.4 1 1.6 4.6-.7 2.2-.5 8.3-.4 6.3.2 6.3 1.6 7.9 1.4 1.6-.2 1-.6.7-.9" fill="#CE7046"/>
  </g>
</svg>
