<svg width="290" height="132" xmlns="http://www.w3.org/2000/svg" xmlns:xlink="http://www.w3.org/1999/xlink">
  <defs>
    <path id="a" d="M0 .5h5.8v5H0v-5z"/>
    <path id="c" d="M8.5 16.6H.3V.3h8.2v16.3z"/>
  </defs>
  <g fill="none" fill-rule="evenodd">
    <path d="M72.5 77.5s-2.2-4.8-2.7-5.2c-.5-.4-1.4-1-2.1-1.2-.7-.1 0 .7 0 .7l-2-.6.2.6-4.2-1.8.8 1-2.9-.8-.5-.2-1.4.4-.2.8s-1.8-.6-3-.5c-1 .2-.7.8-.7.8l-3-.2.4.6-3.4-.2.8.8s-1.9-.7-2.5-.4l-.7.3H44c-.7 0-1.5 0-2.4.2l-1 .3-4.9 1a18.8 18.8 0 0 0-10 3.4 16.1 16.1 0 0 0-2.1 2.2c-.6.7-1.1 1.4-1 1.7v1c0 .9 0 1.8.5 2.2.7.7 5 0 5 0S27.6 86 25 86c-2.5 0-2.7.3-3.8-.9C18.9 82.7 9 77.6 7.8 77c-1.5-.9-3.6 1-3.6 1s-.6 2.3-1.5 3.8C2 83.2.2 86 1.4 87.7a6.6 6.6 0 0 1 1.3 3.4s.6 1 0 3.4c-.7 2.2-2 3-2.1 4 0 1 .9 4.5.9 4.5l2 1.5s1.2.1 4.4-1.7l5-3c1.8-1.1 5.2-3.5 6.8-3.4 1.6 0 6 1 6 1s-4 0-5 .2c-1.4.2-2.3.7-3 1.5-.7.9-1.2 1.2-.1 2.4 1 1.2 2.4 1.8 2.4 1.8s9.8-2.8 10.3-2.6c.4.2 13.2-19.5 14.7-19.3 1.5.2 22.9-.2 22.9-.2l4.6-3.7z" fill="#FCC06D"/>
    <path d="M73.3 78.3s-.8-.6-1-.6c-2.2-.4-15-2.6-18-2-3.3.7-9.6 1.5-12.8 3.2-3.3 1.7-9.5 3.3-9.8 7.4-.4 5.4-6.3 4-3.6 12.6.5 1.7 1.8 1.5 1.1 2-1 .7-5.2 1.4-5.7 1.6l-3.9 1.2 2 1.4c1.1.7 1.8.6 2.8 1.4 1 .8 1 .1 2.3 1 1.4.8 1.9 1 3.3 1.5s2.8 0 4 .8c1.2.8 2.4.9 2.8 1.2.4.3 6.3-3 6.8-3.6.5-.6 11 3.5 12.6 4.2 1.7.8-11-3.7-12-1.5s-3 2.1-2.2 4.5c.8 2.3.9 3.2 3.4 5 2.5 1.6 2.8 3 4.6 2.5 2-.6 4.2-1.8 5.7-3 1.6-1.2 2.6-2.8 3.8-3.6 1.3-.9 3-2.4 3-2.4l-2.7-.7-2-.3S53 110 53 109c.2-1 8.4-8.3 10.4-9.7 2-1.5 5.2-4.2 5.4-5.4.1-.6 1.6-3.7 2.5-7 1.2-4.1 1.9-8.6 1.9-8.6" fill="#1E1854"/>
    <path d="M77.4 81.1s1.9 1.6 2.6 2.6c.8 1.1 3.8 4 5.2 6.2 1.4 2.3 2.5 5.3 3.3 7.6 1 3 .3 4.6.3 4.6s.9.7-1 2.4a32.4 32.4 0 0 1-6.7 4.7c-2.2 1-5.2 1.7-6.3 2-1 .4-6.8 2.2-8.4 2.2-1.5 0-4-.1-5.2-.3-1.3-.2-5.4-1.6-5.4-1.6s-5-8.8-3.8-9.2c1-.3 12.6-3.6 15.2-7 1-1.2 2-3.5 2.6-6.3.7-2.4 1.6-5 1.8-7.4a6.4 6.4 0 0 1 1.1-3.6l2.2 1.5 2.5 1.6z" fill="#CE7046"/>
    <path d="M86 94c-.3-.4-2-1.7-3-1.5-1.1.2-2.7 1.6-2.8 2.5-.2.9-.7 1.5.3 2.3.9 1 1.6 1.6 2.4 1.6.8 0 2.4-.5 2.7-1 .3-.4.7-1 .9-1.7.1-.6 0-1.8-.4-2.2" fill="#1E1854"/>
    <path d="M78.1 81.7s-.3 2.2.9 4.8c1.7 4 .6 6.8.3 9.4-.3 2.6.3 5.4-.4 7.3-.7 1.8-1 3.1-2 4.4a9 9 0 0 1-2 2.3c-.5.4-.1 1.7-1.6.7a5.1 5.1 0 0 1-2.3-4.5c.1-1.7-.2-7.1-.1-9.4V84c0-2 1.7-6 1.7-6l.5.2a32 32 0 0 1 5 3.4" fill="#8776B5"/>
    <path d="M80.2 84c.2.4-1 .2-.8 2.1.2 2.4 1.5 2.3 1.3 3.6l-.1 5.1-.1 3s-.6 1.6-.6 2.2c0 .5 0 2.3-.3 3.5-.4 1.2-.4 2.5-1.4 3.7-.9 1.1-1.5 2.2-2.2 2.8l-1.5 1.6-.8.2c-.7-.1-2-1.9-2.4-2.9-.4-1-.5-3-.4-3.9v-7.6-6.1-4.2c.2-.8 0-3.1.3-4.5l.9-3 .4-1.6.6.4-.8 2.2c-.5 1.3-.7 3.5-.8 4.6 0 1-.2 1.9 0 3.1.2 1.3.1 2.3.3 3.4.2 1-.6 1-.2 3.4.4 2.3.4 2.2.3 3.4-.2 1.2 0 2.8 0 3.7l-.1 3c-.1.6-.4 2-.2 2.6.2.7.8 2 1.4 2.6.6.5 1.2.4 1.7 0 .6-.3 1.9-1.7 2.4-2.5.6-.8 1.4-2.4 1.7-3.4a24.7 24.7 0 0 0 .6-7.6c0-.6 0-2.5.3-3.4.2-.9 0-1.5.2-2.3.1-.7.3-.9 0-2.1-.4-1.3-.8-1.6-1.2-3.1-.5-1.5-.7-1.8-.7-3v-1.4c0-.2 2 2 2.2 2.4" fill="#1E1854"/>
    <path d="M67.5 102.5l-5-10.3c-.4-.4-.5-1.4-1.7-2.3-1.2-1-2.7-2-3.6-2-1-.1-2-.4-3 0s-3 1-3.7 1.6c-.6.6-1 .8-1.2 1.2L48 91.8s-.5.7-.6 1.4c0 .7-.9 1.7-.9 1.7s-.6 1-.6 1.6l-.2 1c-.3.6-.5 1.4-.3 2 .2.4-.3 1.3-.2 2 0 .8-.5.9.5 1.6 1 .8 1.1 1.4 1.2 1.8.1.3-.1 1.1.9 2 1 .7 1.3 1 2 1.7.8.8.8 1 1.8 1.5 1 .4 1.6 1.1 2.5 1.4 1 .4 2.7.2 3 0 .4 0 .3.6 1.1 0 1.5-1.4 5-3.3 5-3.3.5-.7 0-2.2.7-3.3.5-.8 3.5-2.4 3.5-2.4" fill="#CE7046"/>
    <path d="M67.5 103S62.4 91.2 62 90.7c-.4-.4-1.7-1.6-1.8-1.5-.3.2 6.7 13 6.8 13.2.2.3.6.4.6.4" fill="#FCC06D"/>
    <path d="M67.5 102.8l-8-14.4s-1.5-1-1.9-.7c-.4.2 9.3 15 9.5 15.2.2.1.4-.1.4-.1M65.9 102.7l-9.7-15s-1.8-.2-1.9.2c-.1.5 11.1 15 11.3 15 .1.1.3-.2.3-.2M65.9 103.5c-.1-.1-12-15-12.2-15-.2-.1-1.8.4-1.9.8 0 .3 13.8 14.4 13.8 14.4s.3 0 .3-.2M65 103.7v-.1l-.1-.2-14.3-14.1s-1.4 1-1.2 1.2c0 .2 15.5 13.2 15.5 13.2z" fill="#FCC06D"/>
    <path d="M65 103.7s.1 0 0 0L49 90.8s-1.8 1-1.2 1.6l16.7 11 .5.2z" fill="#FCC06D"/>
    <path d="M65 103.6L47.9 93.3s-1.5 1.1-1 1.5l18 9s.3-.1 0-.2M64.2 104.3l-17.9-8.6s-.5 1-.2 1.3c.3.4 17.4 7.4 17.8 7.5.4.1.3-.2.3-.2M63.3 104.3l-17.6-7s-.8 1.3-.3 1.8c.5.4 4.5.9 6.6 1.9 2.2 1 5.1 1.6 7 2.2 2 .6 4.1 1.4 4.3 1.3.1 0 0-.1 0-.2M63.2 106l-17.7-5.5s-.5 1.9-.2 2c.4.2 18 3.6 18 3.6s.2-.1 0-.2" fill="#FCC06D"/>
    <path d="M62.5 105.3v-.1L46 102.9s.5 1.2 1 1.4c.5.2 15.4 1 15.5 1M62.5 106.1l-12.3 2.1s.7 1.2 1 1.2c.4 0 11.2-3 11.3-3.1.1 0 0-.2 0-.2M62.5 107s-11 3-10.7 3.2c.3 0 .9.9 1.2.7l9.5-3.8c.1 0 0-.2 0-.2" fill="#FCC06D"/>
    <path d="M62.4 107l-9 3.5s.7.6 1.1.4l8-3.8c.1 0 0-.2 0-.2M63.3 107.7s-7.6 3.6-7.3 3.9c.2.2 1 .2 1.4 0l.6-.4a151 151 0 0 1 5.3-3.5" fill="#FCC06D"/>
    <path d="M63.4 108c-.1 0-4.8 3.7-5 3.7-.1.1-.8.1-.8-.3l5.6-3.6.2.2M63.4 106.2H47.7s0 .4.5.5l15.2-.4" fill="#FCC06D"/>
    <path d="M62.5 106.1l-14 .8s.8 1 1 .8l13-1.4c.1 0 0-.1 0-.2" fill="#FCC06D"/>
    <path d="M71.2 76.3l-4-4.6c-.6-.7-.5-.9-.5-.9s.6 0 1.2.7c.5.5 1.8 2 3.7 5 0 0-.3 0-.4-.2M69.2 76.3c0-.2-2.7-4.3-3-4.7-.4-.4-1-1-1.2-.8 0 .2 1.4 2.8 2 3.6.8.9 1.5 1.8 1.5 2l.7-.1M66.7 75.4s-3.7-3.9-4-4.4l-.9-1s-.2.2.3.8l4 4.8c.1 0 .6 0 .6-.2M64.2 75.6l-3.9-5.2c-.3-.6-1.1-.4-1-.3l4.3 5.4c.2.2.6 0 .6 0M61.7 75.6L58 70.8c-.3 0-.4.8-.4.8l2 2.2c.8.7 1.5 1.7 1.6 1.8h.5M58.4 74.8c-2.3-2.6-2.4-3-4-4-.2-.1-1.4.4-.7.8.7.3 4 3.2 4.1 3.2h.6M56 75.5a56 56 0 0 0-3.8-3.7c-.7-.4-1.8-.3-.8.6l4 3.2h.6" fill="#CE7046"/>
    <path d="M54.3 74.7a35 35 0 0 0-4.2-3c-.6-.2-.8 0-.8 0l4.5 3c.2.2.5 0 .5 0M50.2 75.5s-3-2.8-3.5-3H46c1 .5 3.4 3 3.4 3 1 .3.7 0 .8 0M48.5 75.5s-2.5-2.8-3-3c-.7-.2-1.1 0-1.1 0l2 1.4 1.7 1.7h.4M45.2 76.3s-3.2-3.7-3.5-3.8c-.3-.2-.6 0-.6 0s.4.2 1.2 1l2.3 3s.6 0 .6-.2M43.6 77c-.3-.2-3.6-3.8-4.1-3.8-.6 0-.9.2-.9.2l4.3 3.7c.2.3.7 0 .7 0M41.9 78L37 74s-.5-.1-.9.2c-.1.2 5.4 3.8 5.4 3.8h.4M41 77.8s-6-3.6-6.4-3.7c-.2-.1-.5-.1-1 .1 0 0 2 1 3 1.7l4 2.1s.5 0 .5-.2M38.6 79.4s-6-4.6-6.4-4.6l-1 .3a66 66 0 0 0 6.9 4.5s.6 0 .5-.2M37 80.1s-7.2-4.6-7.4-4.5c-.3.1-1 .3-1 .5l3.2 1.5 4 2.5.8.3.3-.3z" fill="#CE7046"/>
    <path d="M36.1 80.2c-.1 0-8-3.8-8.3-3.8-.3 0-.8.5-.8.5a50 50 0 0 0 7.7 3.2l1 .3.4-.2zM34.5 81L26 77.2s-.8.6-.7.7l4.9 1.7 3.6 1.6.6-.2zM31.2 81.7c-.4-.3-7.7-2-7.8-2l-.5.6 8 1.7.3-.3z" fill="#CE7046"/>
    <path d="M32.8 81.8l-8.4-3-.7.7 8.7 2.5.4-.2zM29.5 82.6l-7.3-1.4c-.1 0-.2.8 0 .8l7 .8.3-.2zM29.5 83.3c-.5 0-6.4-.5-6.5-.4-.1 0-.2.4 0 .5l6.1.2.4-.3zM47.8 71.6l4 3.1c0 .2-.4.1-.4.1s-3.7-2.8-3.7-3l.1-.2" fill="#CE7046"/>
    <path d="M82.5 95.3c-.6.3-.5.6-.6.7 0 .4.2.9.4 1.1.3.3 1.5.9 2 .8.6-.1.8-.1 1-.5.2-.3 0-.8-.2-1a3.1 3.1 0 0 0-1.6-1.1c-.4-.2-.7-.2-.8-.1h-.2zm-.4 2H82c-.4-.4-.5-1-.4-1.4 0-.2.2-.5.9-.9.5-.3 1.6.1 2 .4.3.2 1.5 1.3 1.1 2-.3.5-.7.6-1.3.7-.5.1-1.7-.4-2.2-.7z" fill="#FCC06D"/>
    <path d="M20.4 86.5c-.2-.1-15.1-9.3-15.4-9.3-.2 0-.7 0-1.1.8-.1.3 16.2 8.8 16.3 8.8 0 .1.3-.2.2-.3M21 85.3c-.1-.1-14.8-8.5-14.6-8.7.3-.3.8-.1.8-.1l14 8.5c.2.1-.2.3-.2.3M20.4 87.2L4.3 78.8s-.5.9-.4 1l16.3 7.9c.1 0 .3-.4.2-.5M19.6 88.1L3.4 80.4s-.4.8-.3 1l16.2 7c0 .1.4-.2.3-.3M19.5 88.8L3 82s-.7.4-.7 1.3c0 .4 13.4 4.2 17.2 6 .2 0 .3-.4.1-.5M18.7 89.8a354 354 0 0 0-16.9-5.3c-.3.3-.4 1.2-.4 1.2a250.2 250.2 0 0 0 17.2 4.4c0-.1.3-.2.1-.3" fill="#CE7046"/>
    <path d="M18.7 89.8A675 675 0 0 0 1.4 87s-.1.8.6 1.3c.3.2 9.8.8 13.6 1.5 2.3.4 2.9.3 3 .3.2 0 .2-.3 0-.3M17.8 91c-.2 0-15.4-1.2-15.5-.9-.2.6.4 2 .5 2.3 0 .3 14.8-1.2 15-1.2.2 0 .2-.2 0-.3M18.7 91.7h-.2c-2 .2-15.1 1.4-15.2 1.7-.1.3-.3 1.1-.2 1.5 0 .3 11.7-2.3 15.5-2.9.3 0 .1-.3.1-.3" fill="#CE7046"/>
    <path d="M17.9 91.7c-.3 0-15.5 3-15.7 3.4l-.8 1.4c-.2.2 16.2-4.4 16.3-4.5.2 0 .4-.3.2-.3M17.8 93.3L1.2 98s-.8.6-.5 1.6a101.6 101.6 0 0 0 17.1-6.3M17 94L.6 101l.2 1.1c0 .3 16-7.6 16.1-7.6.2 0 .3-.3.1-.4M17.7 94.9l-16.2 7.8s-.3.6.4 1c.8.4 15.7-8 16-8.3.1-.2 0-.5-.2-.5M18.6 95.7L3 104s.3.6.7.5c.4 0 14.7-8.1 15-8.4.1-.3-.2-.4-.2-.4" fill="#CE7046"/>
    <path d="M42.7 107.2c-.5.9-6.6 3.8-6.7 3.8-.2 0-.9-.2-.7-.3.3 0 6.6-3.2 6.9-3.7 0-.1.6 0 .5.2M42 106.5c-1.1.6-7.2 3.8-7.3 3.7l-1-.6s7-2.7 7.2-3.4c.1-.2 1 .3 1 .3M39.4 105l-7.4 3.5-1.7-.1s7.9-3.1 8.3-3.8c.2-.3.8.3.8.3M37.8 104.2a301 301 0 0 0-8.3 4.3l-.8-.3s7.7-3.8 8.2-4.4c.2-.3.9.4.9.4" fill="#6557A4"/>
    <path d="M37 104s-8.8 4.6-9 4.5c-.4 0-1-.4-1-.5.3-.2 8.5-3.4 9.2-4.3l.7.4M35.3 103.2c-.1 0-8.7 3.8-8.9 3.7l-1-.3s9-3.3 9.1-3.6c.1-.2.8.2.8.2M34.5 102.3s-9.8 3.9-10 3.8c-.2 0-.9-.5-.8-.5.2 0 9.8-3 10-3.5l.8.2" fill="#6557A4"/>
    <path d="M32.8 102.4c-.1 0-9.5 3.8-9.7 3.7-.3 0-1-.4-1-.4s9.4-3.1 10.2-3.6c.2 0 .5.3.5.3M31.2 101.6c-.5.2-9.8 3.8-10 3.7-.2 0-.8-.5-.8-.5.4-.1 8.6-2.6 10.2-3.5l.6.3M30.3 100.8l-10 3.7-.7-.6 10-3.4.7.3" fill="#6557A4"/>
    <path d="M26.8 98.1l-8 .3-.9.5 9.1-.7h-.2M26.8 99c-.1 0-9 .8-9.2 1-.2 0-.5.4-.5.5l10-1.5h-.3" fill="#CE7046"/>
    <path d="M27.6 99L17 100.6s.1.4.4.6c.2.2 10.3-2.1 10.4-2.2l-.3-.2M18 102.3s.6.7.8.6l9.9-3-.2-.2-10.6 2.6z" fill="#CE7046"/>
    <path d="M50.7 111.8l-3.4-1.6c-1-.4-1.2-.8-2.2-.8-.9-.1-1.5 1.5-1.5 1.5l5.4 2c2 .6 3.5.5 4.6.4l6.5-.6s-5.2.2-9.4-1" fill="#6557A4"/>
    <path d="M50.2 113.5c-3.3-.3-6.6-2-7.4-1.7-.9.4-.9 1.1-.9 1.1s9.2 2 14.1 1c4.3-1 4-1.2 4-1.2s-5 1.4-9.8.8" fill="#6557A4"/>
    <path d="M61 113.4c-.5.2-5 3.4-18.5 3.2-.6 0-.6-1.4-.6-1.4h11.8c2.6-.2 7.2-1.8 7.2-1.8" fill="#6557A4"/>
    <path d="M61 113.4s-5 2.5-8.3 3.2c-3.2.7-9 1.5-9.1 1.4-.2-.2.8 1 1.1 1 .6 0 5-.6 6.8-1 2-.6 4.4-1.6 5.3-2 1-.4 4.1-2.6 4.1-2.6" fill="#6557A4"/>
    <path d="M61 113.4c-.2 0-3 2.2-6.4 4.2-2.2 1.3-3.4 1.2-5.5 1.9-1 .3-3.2.7-3 .8 0 0 .8 1.2 1.1 1 .4 0 4.8-1.3 6.5-2.2 1.6-1 4-3 4.1-3l3.1-2.7" fill="#6557A4"/>
    <path d="M46.9 76.3c0-.1-3.2-3.7-3.5-3.8-.3-.2-.7 0-.7 0s.5.2 1.2 1l2.3 3s.7 0 .7-.2" fill="#CE7046"/>
    <g>
      <path d="M183.6 6.8s-2.9-4.1-3.4-4.4c-.6-.3-1.6-.7-2.3-.7-.6 0 .1.6.1.6l-1.9-.2.3.5-4.2-1 1 .9-2.8-.3h-.6l-1.2.5v.8s-1.8-.2-2.8 0c-1 .4-.6 1-.6 1l-2.7.2.4.6-3.1.4.8.6s-1.9-.3-2.4 0l-.6.5-1.3.1c-.6.1-1.4.4-2.2.8l-.8.3-4.4 1.8a63 63 0 0 0-4.6 1.9 17.1 17.1 0 0 0-4 3 15.6 15.6 0 0 0-1.5 2.5c-.5.8-.8 1.6-.7 1.8l.2 1c.2.8.5 1.6 1 2 .7.5 4.5-.9 4.5-.9s-.2 1.5-2.6 1.9c-2.3.4-2.4.9-3.6-.1-6.9-5.2-12.3-5.2-13.5-5.6-1.6-.6-3.5 2-3.5 2-.4.7-.4 2.3-.7 3.6-.4 1.7-2 4.5.2 7 1.4 1.6 1.5 1.9 1.5 1.9s.8 1 .6 3.2c-.2 2.2-1.3 3.2-1.2 4.1.2 1 1 3.2 1.5 4.3.6 1 2.3 1 2.3 1s1.1-.2 3.8-2.5c2.5-2 2.9-2.7 4.6-3.8 2.5-1.5 3.6-4 5.1-4.3 1-.2 3.2-.2 4.6 0 .7 0 1.5.5 1.5.5s-3.8.7-4.7 1.1a6.2 6.2 0 0 0-2.7 2.4c-.4.9-.2 1.4 1 2.4s1.3.7 1.3.7 9-5 9.5-4.9c.5.1 8.7-20.6 10.1-20.7 1.5-.1 21-4.1 21-4.1l3.7-4.4z" fill="#FCC06D"/>
      <path d="M182.8 6.8h-.3c-2 0-14.1.1-16.7 1.2-2.8 1.3-8.5 3-11 5.2-2.7 2.2-8.7 4.7-6.7 8 4.3 7.4-11.6 4.7-2 13.4 1.3 1.1 2 1 1.5 1.7-.8.8-4.5 2.2-5 2.5-.6.5-3.3 1.9-3.3 1.9l2 1c1.2.4 1.8.2 3 .8 1 .5.8 0 2.2.5 1.4.5 1.8.6 3.2.8 1.4.2 2.6-.3 3.8.1 1.3.5 2.3.4 2.7.6.4.2 5.2-3.9 5.6-4.5.3-.7 10.7 1.3 12.3 1.7 1.6.5-10.7-1.6-11.2.7s-2.3 2.5-1.2 4.6c1 2.1 1.3 3 4 4.1 2.5 1.2 3 2.5 4.6 1.6 1.6-.8 3.4-2.4 4.7-3.8 1.2-1.4 1.8-3.1 2.8-4.1 1-1 2.2-2.7 2.2-2.7l-2.5-.3-2 .1s-4.7-1.2-4.7-2.1c0-.9 6.1-9.3 7.7-11 1.5-1.8 4-5 4-6.1-.1-1.2.3-15.9.3-15.9" fill="#1E1854"/>
      <path d="M189.1 9.6s2 1.1 3 2c.8.9 4.1 3 5.9 5 1.7 1.9 3.3 4.5 4.4 6.6 1.5 2.6 1.1 4.3 1.1 4.3s1 .5-.4 2.4c-1 1.5-3.5 4.3-5.4 5.7-2 1.4-4.6 2.6-5.6 3.1-1 .6-6 3.3-7.4 3.5l-5 .7c-1.2 0-5.3-.5-5.3-.5s-6.2-7.6-5.2-8.1 10.3-10.7 10.9-11c4.9-1.8 4-15.9 4-15.9l2.3 1 2.7 1.2z" fill="#CE7046"/>
      <path d="M199.5 20c-.4-.3-2.2-1.3-3-.9-1 .4-2.1 2-2 3 0 .9-.3 1.6.7 2.3 1 .7 1.7 1.2 2.4 1.1.7-.1 2-.9 2.2-1.4.2-.5.4-1.2.4-1.9s-.3-1.8-.7-2.1" fill="#1E1854"/>
      <path d="M189.8 10s0 2.1 1.6 4.4c2.3 3.4 1.8 6.4 2 9 .3 2.4 1.3 5 1 6.9-.3 1.9-.4 3.2-1 4.6-.6 1.4-1 2-1.4 2.5-.5.4.2 1.6-1.4 1a5 5 0 0 1-2.9-4c-.1-1.6-1.4-6.7-1.8-8.9-.3-2.2-1.9-10-2.2-12-.4-1.8.4-6 .4-6l.5.1c1.3.5 4.7 1.8 5.2 2.4" fill="#8776B5"/>
      <path d="M192.2 11c.2.2-1 .3-.4 2 .7 2.2 1.8 2 1.9 3.1.1 1.3.8 4.8.8 4.8l.4 2.7s-.2 1.7-.1 2.2c0 .5.5 2.2.3 3.4 0 1.1.1 2.3-.5 3.6-.7 1.2-1 2.3-1.6 3l-1.1 1.7s-.4.3-.7.3c-.7 0-2.2-1.3-2.8-2.2-.5-.9-1-2.8-1-3.6-.1-.7-2.7-4.9-3-6.6-.3-1.7.3-5 0-5.6-.7-1.3-.5-4.8-.5-5.6 0-.7-.3-1.7-.3-3l.2-3 .1-1.5.6.3s0 .9-.3 2.1c-.3 1.3 0 3.4.1 4.4.2 1 .1 1.8.6 3 .4 1.1.3 2.6.6 3.5.4 1 .7 4.7.8 5.9 0 1 1.9 5.6 1.9 6.2 0 .6 0 1.9.3 2.4a7 7 0 0 0 1.8 2.1c.6.4 1.2.3 1.6-.2.4-.4 1.4-2 1.8-2.7.3-.9.8-2.5.9-3.5a23.3 23.3 0 0 0-.8-7.1c-.2-.6-.4-2.3-.4-3.2l-.2-2.2c0-.7.1-.9-.4-2-.6-1-1-1.3-1.7-2.7-.7-1.3-1-1.5-1.2-2.6l-.2-1.3c-.1-.2 2.2 1.5 2.5 1.8" fill="#1E1854"/>
      <g transform="translate(177 1)">
        <mask id="b" fill="#fff">
          <use xlink:href="#a"/>
        </mask>
        <path d="M5.3 5.4l-4.5-4C0 .6 0 .3 0 .3s.5 0 1.2.5c.6.5 2.1 1.8 4.5 4.5h-.5" fill="#CE7046" mask="url(#b)"/>
      </g>
      <path d="M180.6 5.8l-3.8-3.6c-.4-.3-1.1-.7-1.2-.5 0 .2 1.8 2.2 2.7 2.8L180 6c.1 0 .7 0 .6-.2M178.5 6.4s-4.3-3.3-4.8-3.9c-.5-.5-.8-.8-1-.8 0-.1-.1.2.5.8l4.8 4.2s.5-.1.5-.3M175.6 5.9l-4.7-4c-.5-.5-1.2-.1-1.1 0 .3.2 5 4 5.2 4 .2.2.6 0 .6 0M172.7 6.7L168.5 3c-.2 0-.2.7-.2.7l2.2 1.6 1.7 1.3h.5M169.8 6.6c-2.6-1.8-2.8-2.1-4.3-2.8-.3 0-1.2.5-.6.8.7.2 4.3 2.1 4.4 2.1h.5M166.9 7.3c-.2-.2-3.5-2.5-4-2.6-.7-.3-1.7 0-.7.6l4.2 2.1.5-.1M166.2 8c-.7-.6-3.8-2.5-4.4-2.7-.6-.1-.7.1-.7.1l4.6 2.8.5-.2M162.5 8.8s-3.2-2.6-3.7-2.8c-.3 0-.7.1-.6.2.9.4 3.6 2.6 3.6 2.6 1 .2.7 0 .7 0M160.3 9.4s-2.8-2.6-3.4-2.7c-.6 0-1 .2-1 .2a67.9 67.9 0 0 0 4 2.7s.5 0 .4-.2M158.2 11a44 44 0 0 0-3.9-2.8c-.3-.1-.5.2-.5.2s.4 0 1.2.6l2.7 2h.5M156.7 11.6c-.2-.2-3.8-2.8-4.3-2.7-.5 0-.8.3-.8.3l4.6 2.5c.1.2.5-.1.5-.1M156 12.3l-5.7-2.7s-.5 0-.8.3c-.2.2 6 2.6 6 2.6s.6 0 .5-.2" fill="#CE7046"/>
      <path d="M155.3 12.2l-7-2.6c-.4 0-.6 0-1 .3l3.2 1.2 4.3 1.4.5-.3M153 13.7s-6.6-2.7-7-2.6l-.9.3a73.5 73.5 0 0 0 7.5 2.6s.6-.2.5-.3M151.6 14.4s-7.6-2.7-7.9-2.6l-.8.5 3.4.8 4.3 1.4.8.2.2-.3zM149.5 16.5c-.2 0-7.9-2.6-8-2.5-.4 0-.7.6-.7.6a37.3 37.3 0 0 0 7.3 2c.7.1 1 .3 1 .3l.4-.4zM148 17.3l-8.2-1.9-.5.7 4.7.7 3.6.8.4-.3zM147.3 18c-.4-.2-8.2-.4-8.3-.4-.2 0-.5.6-.4.6l8.4.1.3-.3z" fill="#CE7046"/>
      <path d="M147.3 17.3l-8.3-1.2-.4.7 8.4.8.3-.3zM145.8 19h-7.2s0 .8.2.7l6.8-.4.2-.3zM145.1 20.5l-6.5.6s0 .7.2.8c.3.1 6-1 6-1l.3-.4zM159.7 5.3c.2 0 3.6 2.6 3.5 2.7 0 .2-.2.2-.2.2l-3.4-2.6v-.3" fill="#CE7046"/>
      <path d="M195.7 21c-.4.4-.2.6-.2.7 0 .4.2.8.5 1 .3.3 1.4.6 1.8.4.4-.2.6-.3.7-.7.1-.3-.1-.7-.3-1a2.7 2.7 0 0 0-1.6-.7l-.7.1-.2.1zm.2 2h-.2c-.3-.3-.5-.8-.5-1.3 0-.2 0-.5.5-1 .3-.4 1.4-.2 1.7 0 .2 0 1.6.6 1.4 1.7-.2.5-.5.6-1 .9-.4.2-1.4 0-2-.3z" fill="#FCC06D"/>
      <path d="M137.8 24.4c-.1 0-12.4-5.8-15.7-6.1-.3 0-1 1-.9 1a156 156 0 0 1 16.5 5.5s.3-.3 0-.4" fill="#CE7046"/>
      <path d="M137 24c-.2 0-9.7-4.4-15-6-.1 0-.3-.6.9-.4 5.3.9 14 6 14.2 6.2.2 0-.1.3-.1.3M137 25.8l-16.3-5.3s-.4 1-.2 1c.1.2 16.3 4.7 16.5 4.8 0 0 .2-.4 0-.5" fill="#CE7046"/>
      <path d="M136.4 26l-16.5-4s-.3.6-.2.7l16.5 3.6.2-.4M136.3 27.3L120 24s-.5.4-.3 1.2c0 .3 12.8 1.5 16.5 2.4.2 0 .1-.4 0-.4M136.3 28c-.1 0-17-2-17.1-1.7-.3.3-.2 1.2-.2 1.2s14.2.4 16 .8c.6.2 1.2.1 1.3 0 0 0 .2-.2 0-.2M135.5 28.5s-15.4-.2-16 0c-.4.2-.5.1-.5.1s-.2 1.5.6 2c.3.2 9.4-1.3 13-1.4 2.4 0 2.8-.3 3-.3.2 0 0-.3 0-.4M135.5 29.1c-.2 0-14.2 1.8-14.3 2-.1.5.9 1.4 1 1.7 0 .2 13.2-3.4 13.4-3.4.2 0 .1-.3 0-.3M135.6 29.9h-.2c-1.8.5-13.4 4-13.5 4.2a6 6 0 0 0 0 1.5c.1.3 10.3-4.2 13.6-5.4.3-.1.1-.3.1-.3M136.3 30.6c-.2 0-13.8 5.3-14 5.7 0 .5-.3 1.3-.4 1.5-.1.3 14.2-6.8 14.3-6.9.2 0 .3-.3.1-.3M135.6 32L121.2 40s-.2.5.3 1.5a87.6 87.6 0 0 0 14-9.4" fill="#CE7046"/>
      <path d="M136.3 32c-.2 0-9.4 6-14.4 9.2 0 0-.1.7.4 1 .6.2 13.9-9.7 14-9.8 0 0 .2-.3 0-.4M136 32.8l-14 10.5s-.3.8.5 1c.8.3 13.7-10.7 13.9-11 .1-.3 0-.6-.3-.5M136.2 34.2l-12.8 10s.4.2.8 0c.3 0 12-9.3 12.2-9.6.1-.4-.2-.4-.2-.4" fill="#CE7046"/>
      <path d="M162.5 41c-.3.7-5.7 4-5.8 4h-.7c.2-.1 5.8-3.7 6-4.2 0-.1.6 0 .5.1M161 40.2c-.8.7-6 5-6.1 4.9l-1-.3s6-4 6.2-4.7c0-.3 1 .1 1 .1M158.9 39.6l-6.3 4.6-1.7.1s6.9-4.2 7.1-4.9c.2-.4.9.2.9.2" fill="#6557A4"/>
      <path d="M158.2 38.9a293 293 0 0 0-7.2 5.4l-.8-.1s6.7-5 7-5.6c.2-.2 1 .3 1 .3M156.7 38.7s-7.4 5.7-7.7 5.6c-.4 0-1-.2-1-.3.3-.2 7.4-4.5 8-5.4l.7.1M154.5 38.7c0 .1-7.4 5.6-7.6 5.6l-1-.1s7.8-5.2 7.9-5.6c0-.2.7.1.7.1M153 37.9s-7.6 5.7-7.8 5.7c-.2 0-.9-.3-.8-.4.1 0 7.9-5 8-5.3h.7" fill="#6557A4"/>
      <path d="M152.4 38c-.1 0-7.6 5-7.8 4.9l-1-.2s7.6-4.3 8.3-4.9l.5.2M151 38c-.5.2-8.5 5-8.7 4.9a3 3 0 0 1-.8-.3c.3-.2 7.5-3.7 8.9-4.7.1-.2.5 0 .5 0M148.7 37.2l-7.9 5-.8-.5 8-4.6.7.1" fill="#6557A4"/>
      <path d="M145.4 35l-6.3 1.5s-1 .8-1.2 1.3c-.1.2 8-2.6 8-2.6l-.5-.3" fill="#CE7046"/>
      <path d="M145.5 35.7s-8.1 2.1-8.3 2.3v.6l8.6-2.8s-.2-.2-.3-.1M147 36.4L137 40s.3.6.7.7c.2.2 9.5-4 9.5-4.1l-.3-.2M138.6 40.8s1 .7 1.1.6a592.6 592.6 0 0 0 8.1-5l-9.2 4.4z" fill="#CE7046"/>
      <path d="M170.6 44.3c-.6 0-2-.5-3.4-1-.9-.2-1.2-.5-2-.4-1 .1-1.2 1.9-1.2 1.9l5.3.9c1.9.3 3.2-.1 4.2-.4l5.7-1.9s-4.6 1.3-8.6.9" fill="#6557A4"/>
      <path d="M170.6 46.3c-3.2.2-6.7-1-7.5-.5-.7.6-.6 1.4-.6 1.4s9.2.4 13.8-1.7c3.9-1.8 3.6-1.9 3.6-1.9s-4.5 2.4-9.3 2.7" fill="#6557A4"/>
      <path d="M180.7 43.6c-.4.4-4 4.3-16.6 6.5-.6.1-.9-1.3-.9-1.3l11-2c2.5-.7 6.5-3.2 6.5-3.2" fill="#6557A4"/>
      <path d="M180.7 43.6s-4 3.4-7 4.8c-3 1.3-8 3.2-8.2 3-.3 0 .8 1 1.2.9a35.8 35.8 0 0 0 10.7-5.3c.8-.6 3.3-3.4 3.3-3.4" fill="#6557A4"/>
      <path d="M180.7 43.6c-.1 0-2.4 2.5-5.3 4.8-2 1.5-3.1 1.6-5 2.6-1 .5-3 1.2-2.8 1.3.1 0 1 .9 1.4.7.3-.2 4.3-2 5.7-3.1 1.5-1.1 3.4-3.3 3.5-3.4l2.5-2.9" fill="#6557A4"/>
      <path d="M159.6 10.1L156 7.5c-.3-.1-.6.2-.6.2s.4 0 1.2.6l2.5 2s.7 0 .6-.2M182.8 35l-2.3 10.7c-.2.4 0 1.3-1 2.4-.9 1.2-2 2.5-2.8 2.8-.9.3-1.7.8-2.8.6-1 0-3-.2-3.6-.7l-1.5-.8-1.3-.8s-.5-.5-.8-1.2c-.2-.6-1.2-1.3-1.2-1.3s-.8-1-.9-1.4c-.1-.5-.1-.5-.5-1-.4-.4-.7-1-.7-1.6 0-.5-.5-1.2-.6-2-.1-.7-.6-.6.1-1.6.7-.9.7-1.5.7-1.8 0-.4-.4-1.1.4-2 .7-1 1-1.3 1.4-2.2.5-.9.5-1.1 1.3-1.7.8-.7 1.2-1.5 2-2s2.4-.7 2.8-.7c.3 0 0-.6 1 0 1.6.8 5.1 1.8 5.2 1.8.7.6.5 2.1 1.4 3 .6.6 3.7 1.4 3.7 1.4" fill="#CE7046"/>
      <path d="M182.8 35s-2 12-2.4 12.6c-.2.4-1 1.8-1.2 1.8-.3-.1 3.1-13.7 3.2-14 0-.2.4-.5.4-.5M182.1 35l-3.7 14.8s-1 1.2-1.3 1c-.4 0 4.5-15.6 4.7-15.8 0-.2.3 0 .3 0M181.4 35.1l-5.5 16s-1.6.7-1.8.4c-.2-.4 6.8-16.4 7-16.5 0-.2.3.1.3.1M180.7 34.3L173 50.8c-.1.1-1.7 0-1.9-.3-.1-.3 9.2-16.3 9.2-16.3l.3.1M179.9 34.2V34.5l-9.4 16.3s-1.5-.6-1.4-.8c0-.3 10.7-15.8 10.7-15.8z" fill="#FCC06D"/>
      <path d="M180.6 34.2s.1 0 0 .1A2371 2371 0 0 0 169 49.4s-1.7-.6-1.3-1.2l12.6-13.6.3-.4zM179.9 34.4L166.7 48s-1.6-.8-1.2-1.3l14.2-12.5s.3 0 .2.2M179.2 33.7l-14 12s-.7-.7-.5-1.1a471 471 0 0 1 14.2-11c.4-.3.3.1.3.1M178.4 33L164 43.6s-1-1-.7-1.6c.3-.6 4-2 5.6-3.3 1.8-1.5 4.3-2.7 5.9-3.7 1.6-1 3.4-2.2 3.6-2.2.1 0 .1.1 0 .2M177.7 33L163 41.4s-.8-1.4-.5-1.6c.2-.3 15-7 15-7 .1 0 .3 0 0 .2M177.7 32v.2l-14.5 6.4s.2-1.4.6-1.8c.4-.4 13.8-4.7 13.9-4.8" fill="#FCC06D"/>
      <path d="M177.7 32.4l-12.3 1s.5-1.3.8-1.4l11.5.3c.1 0 0 .1 0 .1M177.7 32s-11-.3-10.8-.5c.2-.2.6-1 1-.9l9.8 1.3c.1 0 0 .1 0 .1" fill="#FCC06D"/>
      <path d="M177.7 32l-9.4-2s.5-1 .9-.8l8.5 2.6c.1 0 0 .2 0 .2M178.4 31.3s-8-2-7.9-2.4c.2-.4.9-.6 1.3-.4a141.8 141.8 0 0 0 6.6 2.8M178.4 30.4l-5.7-2.7c-.2 0-.9.1-.7.5l6.4 2.4s.1-.2 0-.2M177.7 32.1l-14.4 3.6s-.2-.6.3-.8l14.1-2.9v.1" fill="#FCC06D"/>
      <path d="M178.5 32.2l-13.8 2.7s.5-1.3.8-1.3l13-1.6v.2M260.5 68.5s-4.6-3-5.3-3.1c-.6-.1-1.9-.1-2.5.1-.7.3.3.6.3.6l-2 .6.5.4-4.6.8 1.3.4-3 .8-.5.2-1 1 .3.9s-1.8.5-2.7 1.2c-1 .8-.3 1.1-.3 1.1l-2.6 1.4.6.4-3 1.7 1.2.3s-2 .4-2.4 1l-.4.7-1.2.7c-.6.3-1.3.9-2 1.6l-.6.7-3.7 3.6a68 68 0 0 0-3.8 3.8 18.4 18.4 0 0 0-2.7 4.6 17 17 0 0 0-.6 3.3c0 1-.1 1.8.1 2l.7 1c.5.6 1 1.4 1.7 1.6 1 .1 4.2-2.8 4.2-2.8s.4 1.6-1.8 3c-2.1 1.4-2 1.8-3.7 1.4-3.3-.8-14.8.1-16.1.2-1.9 0-2.5 2.9-2.5 2.9s.7 2.3.9 4.1c.1 1.8.3 5.3 2.4 6.1 2 .9 3 2.2 3 2.2s1.1.6 2 3c.7 2.4 0 3.8.5 4.7.5 1 3.3 3.5 3.3 3.5l2.6.2s1.1-.6 2.8-4l2.6-5.3c.8-2 2.4-6 3.8-6.9 1.4-.8 5.7-2.3 5.7-2.3s-3.4 2.2-4.2 3c-1 .9-1.6 1.7-1.7 2.9 0 1.1-.3 1.7 1.3 2.1 1.6.5 3 .3 3 .3s6.9-7.9 7.4-8c.5 0 0-24.4 1.5-25.1 1.3-.7 19.4-12.8 19.4-12.8l1.8-5.8z" fill="#FCC06D"/>
      <path d="M262 68.2h-1.4c-2 .9-14.5 6-16.7 8.3-2.4 2.4-7.5 6.5-9.3 9.8-1.8 3.3-6.1 8.2-4 11.9 2.7 5-3.2 7 4.1 13 1.5 1.2 2.5.3 2.2 1.1-.4 1.2-3.7 4.2-4 4.7l-2.7 3.2h2.4c1.6 0 2-.4 3.4-.3 1.3.2.9-.4 2.6-.4 1.6 0 2.1-.1 3.7-.5 1.5-.3 2.4-1.4 4-1.4 1.5 0 2.5-.6 3-.6s3.7-6 3.8-6.8c0-.8 11.6-3.1 13.5-3.3 1.8-.3-11.8 2.8-11.3 5.3.4 2.5-1.4 3.4.7 5.1 2 1.7 2.6 2.4 5.7 2.5 3.2.1 4.3 1.2 5.6-.3 1.3-1.6 2.5-4 3.2-5.8.7-2 .5-3.9 1.1-5.3.7-1.4 1.2-3.6 1.2-3.6l-2.7.8-2 .8s-5.4.7-5.8-.1c-.4-.9 2.5-12 3.4-14.3.8-2.4 2-6.5 1.5-7.7-.2-.6-.8-4-2-7.5-1.3-4.3-3.3-8.6-3.3-8.6" fill="#1E1854"/>
      <path d="M267.3 68.2s2.5.4 3.7.9c1.3.5 5.4 1.3 7.9 2.5 2.4 1.2 5 3.1 7 4.7 2.5 2 2.8 3.8 2.8 3.8s1.2.1.6 2.6a33 33 0 0 1-3 7.8c-1.4 2.1-3.6 4.4-4.3 5.3a50 50 0 0 1-6 6.4c-1.3.9-3.4 2.2-4.5 2.7-1.2.5-5.5 1.6-5.5 1.6s-9.1-4.9-8.4-5.8c.7-1 8.7-10 9-14.5.1-1.5-.4-4.1-1.3-6.9-.8-2.4-1.5-5.2-2.7-7.3-1.2-2.3-1-3.8-1-3.8h5.7z" fill="#CE7046"/>
      <path d="M281.7 74.9c-.6-.2-2.8-.4-3.6.3-.7.8-1.2 2.9-.8 3.7.4.9.3 1.7 1.6 2 1.4.3 2.3.5 3 .1.8-.4 1.8-1.7 1.8-2.3 0-.6 0-1.3-.4-2a3.8 3.8 0 0 0-1.6-1.8" fill="#1E1854"/>
      <path d="M268.6 68.4s1 2.1 3.4 3.8c3.7 2.5 4.3 5.6 5.6 8 1.2 2.4 3.3 4.6 3.8 6.6.4 2 .8 3.4.8 5s-.2 2.4-.4 3c-.2.7.8 1.6-1 1.6a5.4 5.4 0 0 1-4.4-2.7c-.9-1.5-4.2-6-5.4-8.2l-7.1-11c-1.2-1.7-2-6.2-2-6.2h.6c1.4 0 5.4-.2 6.1.1" fill="#8776B5"/>
      <path d="M271.3 69.2c.4.2-.8.7.5 2.3 1.5 2 2.6 1.2 3.2 2.4.6 1.2 2.8 4.5 2.8 4.5l1.6 2.6s.5 1.8.8 2.3c.3.5 1.4 2 1.8 3.3.3 1.3 1 2.4 1 4l-.3 3.7-.5 2.2-.5.6c-.7.3-2.8-.5-3.8-1.2-.9-.6-2.1-2.4-2.6-3.2-.4-.8-3.4-5-4.4-6.6l-3.4-5.4-2.4-3.6c-.3-.8-1.8-2.8-2.4-4.1l-1-3.2-.5-1.6h.6s.4 1 .7 2.4c.2 1.4 1.4 3.5 2 4.4.5 1 .8 1.8 1.7 2.8 1 1 1.4 2 2.2 2.7.8.9.1 1.4 1.8 3.2 1.7 1.7 1.7 1.7 2.2 2.8.6 1.1 1.7 2.3 2.2 3.1l1.6 2.8c.3.6.8 2 1.3 2.4.6.5 2 1.3 2.7 1.4.9.2 1.4-.2 1.6-.8.2-.7.6-2.6.6-3.6s-.2-2.9-.6-3.9a26.3 26.3 0 0 0-3.8-7 16 16 0 0 1-1.7-3c-.3-1-.9-1.5-1.1-2.2-.3-.7-.3-1-1.4-1.9-1-.9-1.5-1-2.8-2-1.2-1.1-1.6-1.2-2.2-2.2l-.8-1.3c-.2 0 2.8.6 3.3.9" fill="#1E1854"/>
      <path d="M271.3 92.3L261 86c-.5-.2-1.2-1-2.7-1.1-1.6-.2-3.5-.3-4.4.2-.9.5-2 .8-2.6 1.7-.7 1-2.1 2.6-2.3 3.5-.1 1-.4 1.3-.4 1.8s-.4 1.7-.4 1.7 0 .8.4 1.5c.3.7.1 2 .1 2s.2 1.3.4 1.7c.3.5.3.5.4 1.1.1.7.4 1.5.9 1.8.4.4.5 1.4 1 2 .5.7.1 1 1.4 1.1 1.3.2 1.8.6 2 .9.4.3.6 1.1 2 1.2l2.8.4c1 .3 1.3.5 2.4.3h3c1-.3 2.5-1.5 2.8-1.8.2-.2.4.4.7-.7.6-2 2.5-5.6 2.5-5.6 0-1-1.2-2-1.3-3.4 0-1 1.7-4.1 1.7-4.1" fill="#CE7046"/>
      <path d="M271.3 92.7s-11.3-7.4-12-7.5c-.6-.2-2.4-.4-2.5-.3-.2.4 13.5 7.7 13.8 7.9h.7M270.6 93.2l-14.8-8.4s-1.7 0-1.9.4c-.2.4 16.2 8.3 16.4 8.3.3 0 .3-.3.3-.3M269.9 93.8l-17.3-8.2s-1.7.8-1.6 1.3c.2.5 18.6 7.3 18.7 7.4.2 0 .2-.5.2-.5M269.1 94.7l-18.4-6.2c-.2 0-1.2 1.3-1.1 1.6.1.4 19.4 4.9 19.4 4.9s.3-.2.1-.3" fill="#FCC06D"/>
      <path d="M268.4 95v-.2h-.2l-19.6-4.2s-.7 1.6-.4 1.7l20.2 2.7zM269.1 96.4s.1 0 0-.1l-20.6-2.8s-.8 2.4 0 2.5l20 .4h.6z" fill="#FCC06D"/>
      <path d="M268.3 95.7l-20 .3s-.5 1.9.1 1.9l20-2s.2-.2 0-.2" fill="#FCC06D"/>
      <path d="M268.3 95.7l-19.5 2.4s.2 1 .6 1.2c.4.1 18.4-3.1 18.8-3.2.4-.2.1-.4.1-.4M269 97.1l-19.4 3.3s.1 1.6.8 1.8c.7.2 4.5-1.6 6.9-2 2.4-.2 5.3-1.3 7.3-1.7l4.5-1.1V97M269 97.9l-18 5.4s.6 1.8 1 1.8c.3 0 17-7 17.1-7 0 0 .1-.3-.1-.2M268.4 98.7v-.1l-16 7.1s1.2 1 1.8.8c.6 0 14.1-7.7 14.2-7.8M268.3 99.3l-9.3 8.3s1.2.6 1.5.3l8-8.5h-.2M269.7 99.3s-8.1 8.6-7.8 8.6c.4 0 1.3.3 1.6 0l6.4-8.5s-.1-.1-.2 0M269.7 100l-5.6 8.7s.9.2 1.1-.2l4.7-8.3-.2-.2" fill="#FCC06D"/>
      <path d="M269.7 100s-3.7 7.8-3.4 8c.3.1.9-.3 1-.8l.3-.7a171.2 171.2 0 0 1 2-6.5M270.6 100.2l-2 6.7c0 .2-.7.6-.9.2l2.7-7c0-.1.2 0 .2 0M269.1 98.6l-13.7 8.3s.3.5.8.3 13-8.5 13-8.5l-.1-.1" fill="#FCC06D"/>
      <path d="M269 98.6l-11.5 8.4s1.3.4 1.5.2l10.1-8.5v-.1" fill="#FCC06D"/>
      <path d="M260 68.2l-6.4-2.2c-1-.3-1.1-.5-1.1-.5s.5-.3 1.5 0c.8.1 2.9.9 6.5 2.6 0 0-.3.2-.6 0M257.5 68.5l-5.7-2.3c-.6-.2-1.5-.2-1.5 0s3 1.6 4.1 1.9l2.6.8s.7-.2.5-.4M254.6 69.9c-.1-.1-5.8-1.6-6.5-2l-1.4-.4c-.1 0 0 .3.8.6l6.7 2.3c.1 0 .5-.4.4-.5M253.2 71.5l-6.8-2.4c-.7-.5-1.3.3-1.2.3l7.4 2.4c.3 0 .6-.3.6-.3M249.6 73c-.2 0-5.5-2.7-5.8-2.6-.2 0 .2 1 .2 1l2.9 1 2.3.9.4-.3M247.4 73.6c-3.6-1.3-4-1.7-6-1.8-.3 0-1 1.3-.1 1.3.8 0 5.5.9 5.6.9l.5-.4M244.5 75c-.2 0-4.3-1-4.8-1-.8 0-1.6.8-.4 1l4.8.4.4-.3M243 76.6c-.8-.1-4.5-.5-5.1-.4-.6 0-.7.3-.7.3l5.5.4c.2 0 .3-.3.3-.3M240.8 78.7s-4-1.2-4.5-1c-.3 0-.6.3-.5.3 1 0 4.4 1 4.4 1 .9-.1.6-.2.6-.3M239.4 79.5s-4.1-1.3-4.8-1.1c-.7.1-1 .5-1 .5a88 88 0 0 0 5.5.9l.3-.3M236.5 82.9l-5.3-1.7c-.4 0-.5.6-.5.6s.5-.2 1.6.2l3.7 1.4s.6-.4.5-.5M236.5 84.3a25 25 0 0 0-5.9-1.6c-.4.4-.6.9-.6.9s5.8 1 6 1.2c.3.2.5-.5.5-.5" fill="#CE7046"/>
      <path d="M235 84.6L228 84s-.6.2-.8.6l7.6.1s.5-.2.3-.2M234.3 86.4s-7.6-.2-8 0c-.2 0-.4.1-.7.6h3.7l4.7-.1.3-.5M232.9 88c-.1 0-7.7-.4-8-.2a5 5 0 0 0-.7.7l4.2-.2h4.1l.4-.3M231.4 89.2s-8.7.2-8.8.4l-.6 1 3.6-.5 4.9-.3.8-.1.1-.5zM230.7 90.6l-9 1.3c-.2.2-.4.9-.4.9l3.6-.8a59.2 59.2 0 0 0 5.5-.9l.3-.5zM229.3 92.8l-9.2 1.8s-.4 1-.2 1.1l5-1.5 4-.8.4-.6zM228.5 95c-.5 0-8.4 2.1-8.5 2.2-.2 0-.2.7-.1.7l8.5-2.6.1-.3zM228.5 94.3l-8.5 2-.1.8 8.4-2.5.2-.3zM227 96.4l-7.2 3s.3.7.5.6l6.6-3.2.2-.4zM227 97.9l-5.7 3s.2.6.5.6c.2 0 5.1-3.2 5.1-3.2l.2-.4zM235.8 76.9c.3 0 5 .9 5 1.1 0 .2-.2.3-.2.3l-4.8-1v-.4" fill="#CE7046"/>
      <path d="M279.7 78.5c-.3.6 0 .8 0 .9.2.4.6.7 1 .8.5 0 1.8 0 2.1-.3.5-.4.7-.6.6-1 0-.3-.4-.6-.8-.8a3.5 3.5 0 0 0-2-.1c-.4 0-.7.2-.8.3v.2zm1 2h-.2c-.5-.1-1-.6-1.1-1-.1-.2-.2-.6.1-1.2.3-.5 1.5-.7 2-.7.4 0 2 .4 2.2 1.2 0 .5-.3.8-.7 1.2-.4.4-1.7.5-2.3.5z" fill="#FCC06D"/>
      <path d="M221.9 105.1c-.2 0-18.8.3-19 .5-.2.2-.6.5-.5 1.6 0 .4 19.3-1.6 19.5-1.6.1 0 .2-.4 0-.5M221.2 104.8c-.2 0-18.1.5-18 .2 0-.5.6-.5.6-.5l17.4-.1c.2 0 0 .4 0 .4M221.1 105.8l-18.7 1.7s.1 1.2.3 1.2l18.5-2.3c.1 0 .1-.6-.1-.6" fill="#CE7046"/>
      <path d="M221.2 106.6l-18 2 .1.8 17.8-2.5c.2 0 .3-.4 0-.3M221 107.3l-17.7 3.6s-.4.7.1 1.4c.2.4 13.7-4 17.8-4.6.2 0 0-.4-.2-.4M221.9 108c-.2 0-18 4.9-18 5.2-.1.4.3 1.3.3 1.3s14.5-5.4 16.5-5.7c.7 0 1.2-.4 1.2-.5 0 0 .2-.3 0-.3" fill="#CE7046"/>
      <path d="M221 108.7a610 610 0 0 0-15.9 7.1l-.5.6s.4 1 1.3 1c.4 0 8.9-5.2 12.5-6.8 2.3-1 2.7-1.5 2.8-1.6.2-.1 0-.3-.1-.3M221.8 110.2c-.2 0-14.3 7.7-14.3 8 0 .5 1.4 1.2 1.6 1.4.2.1 12.6-9.1 12.8-9.2.2-.1 0-.3-.1-.2M222.6 110.9h-.2c-1.6 1.3-12 9.9-12 10.2l.6 1.4c.2.2 8.7-8.6 11.6-11.3.3-.2 0-.3 0-.3M222.6 111.6c-.2.1-11.5 11.5-11.5 12s.3 1.4.2 1.8c0 .3 11.3-13.3 11.4-13.4 0 0 0-.5-.1-.4" fill="#CE7046"/>
      <path d="M222.6 111.6c-.2 0-7.7 9-11.4 13.4 0 0-.3 1 .5 1.8.9.7 10.8-14.6 11-14.9.1-.3 0-.3-.1-.3M223.3 113c-.3.1-7 9.9-10.7 15.1l.8.9c.2.2 10-15.5 10-15.6 0 0 0-.4-.1-.3M223.7 113.8l-9.7 16s.1.7 1 .6c1-.1 9.1-15.8 9.2-16.2 0-.3-.3-.5-.5-.4" fill="#CE7046"/>
      <g transform="translate(216.2 114.5)">
        <mask id="d" fill="#fff">
          <use xlink:href="#c"/>
        </mask>
        <path d="M8.2.3l-8 16.1s.7.4 1 .1C1.4 16.2 8.5 1 8.5.6c0-.4-.3-.3-.3-.3" fill="#CE7046" mask="url(#d)"/>
      </g>
      <path d="M251.7 111c0 1-3.5 6.8-3.6 6.9-.2 0-.8.4-.7.2a56 56 0 0 0 3.8-7c0-.2.5-.3.5-.1" fill="#6557A4"/>
      <path d="M251.7 110.9c-.6 1.1-4.3 7.8-4.5 7.8l-1.3.1s4.8-6.8 4.7-7.6c0-.3 1.1-.3 1.1-.3M248.8 111l-4.2 7.7c0 .2-1.6.9-1.6.9s5-7.6 5-8.4c0-.5.8-.2.8-.2M246.7 111a318.3 318.3 0 0 0-5 8.4l-.8.2s4.7-7.8 4.8-8.5c0-.3 1-.2 1-.2" fill="#6557A4"/>
      <path d="M246 111.6s-5.2 8.5-5.5 8.6h-1c0-.3 5.4-7.4 5.6-8.4 0-.2.8-.2.8-.2M243.8 111.6c0 .2-5.3 8.4-5.4 8.4l-1.2.3s5.8-8.1 5.8-8.5c0-.2.8-.2.8-.2M243 111.6s-6 8.6-6.2 8.7h-1c.1-.2 6.5-8 6.4-8.4l.8-.3M240.9 111.6c-.1.1-6 8.4-6.2 8.5l-1 .2 6.6-8.6h.6M239.4 111.6c-.3.5-6.7 8.6-7 8.7h-1c.3-.4 6.4-7 7.4-8.5.1-.2.6-.2.6-.2M238 111.6l-7 8.7-1-.1s6.7-8.1 7.1-8.4l.9-.2" fill="#6557A4"/>
      <path d="M233.4 111.6c-.2 0-6.7 4.8-6.7 4.8l-.3 1c0 .2 7.2-5.8 7.2-5.8h-.2M234 111.6l-7.6 6.4v.8l8-7.2h-.4M234.7 111.6l-8.3 7.6s.3.3.7.4c.3 0 8-7.9 8-8h-.4M228.5 120.1s1 .3 1.2.2l6.8-8.6h-.3l-7.7 8.4z" fill="#CE7046"/>
      <path d="M261.8 110.4c-.7.3-2.2.4-3.7.6-1 .2-1.4 0-2.2.5-.8.5-.5 2.3-.5 2.3l5.5-1.5c2-.5 3.2-1.5 4-2.1l5-4.4s-4 3.2-8.1 4.6" fill="#6557A4"/>
      <path d="M262.4 112c-3 1.4-7 1.6-7.5 2.4-.5.8 0 1.6 0 1.6s9.2-3.2 12.9-7c3-3.2 2.8-3.2 2.8-3.2s-3.5 4-8.2 6.2" fill="#6557A4"/>
      <path d="M271.3 105.8c-.2.5-2.1 6-13.9 13.7-.5.3-1.3-1-1.3-1s8.6-5.5 10.1-6.8c2.2-1.7 5.1-5.9 5.1-5.9" fill="#6557A4"/>
      <path d="M272 105.8s-2.9 5-5.5 7.7a67 67 0 0 1-7.5 6.5c-.2 0 1.4.5 1.7.2a41.2 41.2 0 0 0 9.2-9.7c.6-.9 2.2-4.7 2.2-4.7" fill="#6557A4"/>
      <path d="M271.3 105.8c0 .1-1.2 3.5-3 7-1.1 2.4-2.2 3-3.6 4.8-.6.8-2.2 2.4-2 2.4 0 0 1.3.5 1.5.2.2-.3 3.2-3.8 4.1-5.5a33 33 0 0 0 1.9-4.9l1.1-4" fill="#6557A4"/>
      <path d="M238 81.3l-5.3-1.5c-.3 0-.5.6-.5.6s.4-.2 1.5.2l3.7 1.4.6-.7" fill="#CE7046"/>
    </g>
  </g>
</svg>
