<?xml version="1.0" encoding="UTF-8"?>
<svg width="285px" height="169px" viewBox="0 0 285 169" version="1.1" xmlns="http://www.w3.org/2000/svg" xmlns:xlink="http://www.w3.org/1999/xlink">
    <!-- Generator: Sketch 47.1 (45422) - http://www.bohemiancoding.com/sketch -->
    <title>communityLoneFishPlant@3x</title>
    <desc>Created with Sketch.</desc>
    <defs>
        <polygon id="path-1" points="55.9417915 0.078841494 55.9417915 97.9387725 0.0870515446 97.9387725 0.0870515446 0.078841494"></polygon>
        <polygon id="path-3" points="35.937301 56 0.144376071 56 0.144376071 0.0669741025 35.937301 0.0669741025 35.937301 56"></polygon>
    </defs>
    <g id="Symbols" stroke="none" stroke-width="1" fill="none" fill-rule="evenodd">
        <g id="communityLoneFishPlant">
            <g>
                <path d="M100.820418,59.295111 C100.820418,56.3441662 93.7594659,41.0835658 92.9121517,38.7081469 C92.0648375,36.3327279 95.1716563,35.2769862 94.3243421,29.734342 C93.4770279,24.1916978 93.1945898,20.2326662 87.2633904,18.9129891 C81.332191,17.5933119 75.6490663,16.8582517 72.0117347,22.8720206 C68.3400398,28.9425357 70.5995444,33.6933736 71.7292966,36.3327279 C72.8590489,38.9720823 75.4009915,40.2917595 76.2483057,42.1393076 C77.0956199,43.9868556 80.4848768,57.9754338 81.614629,62.7262717 C82.7443813,67.4771095 86.1336381,80.9378169 89.5228949,88.3280091 C92.9121517,95.7182013 102.515046,110.498586 105.339427,116.04123 C108.163807,121.583874 116.354511,131.613421 121.720835,135.308517 C127.087158,139.003613 137.537366,145.338064 142.056376,146.393805 C146.575385,147.449547 158.437783,152.200385 162.956793,152.200385 C167.475802,152.200385 179.3382,154.311868 181.315267,151.672514 C183.292333,149.03316 189.788409,143.22658 187.528904,137.947871 C185.2694,132.669163 186.399152,126.598648 181.032829,126.598648 C175.666506,126.598648 163.239231,126.598648 159.00266,126.070777 C154.766089,125.542906 136.690052,118.94452 131.888605,114.721553 C127.087158,110.498586 118.861777,96.7089857 116.354511,92.0231052 C111.835502,83.5771712 100.820418,60.8787236 100.820418,59.295111" id="Fill-1" fill="#526A32"></path>
                <path d="M100.820418,59.295111 C100.820418,56.3441662 93.7594659,41.0835658 92.9121517,38.7081469 C92.0648375,36.3327279 95.1716563,35.2769862 94.3243421,29.734342 C93.4770279,24.1916978 93.1945898,20.2326662 87.2633904,18.9129891 C81.332191,17.5933119 75.6490663,16.8582517 72.0117347,22.8720206 C68.3400398,28.9425357 70.5995444,33.6933736 71.7292966,36.3327279 C72.8590489,38.9720823 75.4009915,40.2917595 76.2483057,42.1393076 C77.0956199,43.9868556 80.4848768,57.9754338 81.614629,62.7262717 C82.7443813,67.4771095 86.1336381,80.9378169 89.5228949,88.3280091 C92.9121517,95.7182013 102.515046,110.498586 105.339427,116.04123 C108.163807,121.583874 116.354511,131.613421 121.720835,135.308517 C127.087158,139.003613 137.537366,145.338064 142.056376,146.393805 C146.575385,147.449547 158.437783,152.200385 162.956793,152.200385 C167.475802,152.200385 179.3382,154.311868 181.315267,151.672514 C183.292333,149.03316 189.788409,143.22658 187.528904,137.947871 C185.2694,132.669163 186.399152,126.598648 181.032829,126.598648 C175.666506,126.598648 163.239231,126.598648 159.00266,126.070777 C154.766089,125.542906 136.690052,118.94452 131.888605,114.721553 C127.087158,110.498586 118.861777,96.7089857 116.354511,92.0231052 C111.835502,83.5771712 100.820418,60.8787236 100.820418,59.295111 Z" id="Stroke-3" stroke="#688538"></path>
                <path d="M90.7700333,33.7264167 C92.1897848,31.3578477 92.1897848,23.5284113 88.2144805,21.686191 C84.2391761,19.8439706 79.1990581,18.988654 76.0756047,21.8835717 C72.9521512,24.7784894 71.7947382,26.8444079 72.0293127,29.7788017 C72.313263,33.3316552 75.7206668,35.7660178 76.5725177,36.5555408 C77.4243686,37.3450638 78.1342444,38.6609355 79.553996,43.9244222 C80.9737475,49.1879089 85.942878,67.8732866 87.0786792,73.1367733 C88.2144805,78.40026 91.3379339,85.2427927 93.6095364,89.9799307 C95.8811389,94.7170687 100.140394,103.138647 102.411996,106.296739 C104.108441,108.655074 109.794704,117.613236 111.498406,119.981805 C113.202108,122.350374 119.023089,129.456081 122.288518,132.087824 C125.553946,134.719568 136.202083,140.509403 138.189735,141.298926 C140.177387,142.088449 148.979847,145.246541 152.387251,146.036064 C155.794655,146.825587 167.152667,149.45733 171.979822,148.930982 C176.806978,148.404633 182.769934,142.614798 181.918083,138.667183 C181.066232,134.719568 182.202034,130.771952 179.36253,130.245604 C176.523027,129.719255 162.893412,129.587668 160.90576,129.456081 C158.918108,129.324494 143.726766,124.85053 138.757636,122.613548 C133.788505,120.376566 128.535425,115.507841 126.263822,112.876098 C123.99222,110.244354 116.325561,98.927858 113.770009,95.2434174 C111.214456,91.5589767 106.671251,81.2951777 104.683599,77.0843883 C102.695946,72.873599 98.7916296,60.5044053 97.0879277,55.5040929 C95.3842258,50.5037806 92.1897848,44.7139452 91.3379339,40.7663302 C90.486083,36.8187152 90.4616317,34.2409226 90.7700333,33.7264167" id="Fill-5" fill="#475727"></path>
                <path d="M202.742495,128.316169 C206.830798,129.106863 208.62786,131.263261 213.278948,130.077367 C217.930037,128.891619 230.191971,122.962585 230.614882,116.638352 C231.037794,110.314118 232.628099,106.308374 231.35952,105.12248 C230.091098,103.936732 227.117402,100.483303 230.936608,94.3163291 C232.487285,91.812465 236.558201,89.4862141 241.368587,90.0992947 C247.571135,90.8899887 248.675718,94.0545216 248.6989,94.1845468 C249.403753,98.1380166 251.2359,101.828654 248.6989,105.781391 C246.1619,109.734129 249.967635,117.115404 249.544723,121.068141 C249.121968,125.020879 244.991061,135.215999 240.762727,139.563791 C236.534393,143.911875 229.769215,150.236109 223.426793,152.212405 C217.084371,154.1887 211.16486,154.1887 206.513614,153.7935 C201.862682,153.398153 195.129615,146.369615 193.015526,142.812225 C190.901437,139.254834 188.754925,138.378042 190.869014,133.239557 C192.983259,128.101071 198.654349,127.525475 202.742495,128.316169" id="Fill-7" fill="#688538"></path>
                <path d="M246.121386,94.7976332 C247.550097,96.5888333 248.121581,101.54908 247.97871,102.651357 C247.835839,103.753634 246.835741,105.958188 246.121386,106.92268 C245.40703,107.887173 240.978025,109.127234 239.120701,108.98945 C237.263376,108.851665 234.834567,106.647111 233.834469,105.958188 C232.834372,105.269265 231.40566,102.926926 232.262887,99.6200951 C233.086618,96.4427816 233.120114,94.9354178 235.977536,94.1087101 C238.834959,93.2820023 241.263768,92.5930792 243.263963,93.2820023 C245.264159,93.9709254 246.121386,94.7976332 246.121386,94.7976332" id="Fill-9" fill="#475727"></path>
                <path d="M196.164964,132.211703 C191.163432,129.846813 192.413892,129.846813 190.746715,125.117177 C189.079538,120.387396 190.329998,111.716277 193.247481,106.986642 C196.164964,102.25686 199.082447,101.074488 200.332907,97.9213007 C201.583367,94.7681133 204.500696,93.9798164 204.500696,90.0384781 C204.500696,86.0969938 204.500696,81.7614341 208.251922,79.790765 C212.002993,77.8200958 216.587654,75.0609838 220.338725,79.0024681 C224.089797,82.9438064 225.340257,84.5204001 224.923385,88.8561059 C224.506514,93.1915196 222.839491,93.1915196 220.338725,96.344707 C217.837959,99.4978945 216.170782,101.468564 216.170782,106.59242 C216.170782,111.716277 217.421242,124.722956 214.086888,128.270219 C210.752533,131.817628 208.668639,133 204.083979,133 C199.499318,133 196.164964,132.211703 196.164964,132.211703" id="Fill-11" fill="#526A32"></path>
                <path d="M209.994695,83.4123525 C210.675695,81.9756513 214.994518,78.3177944 218.937053,80.8973193 C222.696006,83.3568016 225.073136,85.1272477 223.515597,89.7442734 C222.213532,93.6046932 220.613205,94.1634266 214.949999,93.9655541 C208.147074,93.7278139 208.269619,87.0523276 209.994695,83.4123525" id="Fill-13" fill="#475727"></path>
                <path d="M183.186246,107.660248 C183.186246,107.660248 174.422708,99.267499 170.649841,94.8240214 C166.876819,90.3805438 161.922184,86.82398 161.491447,82.1104706 C161.060866,77.3971072 162.711893,74.9403866 166.908817,68.8606531 C171.648938,61.9941907 176.464396,56.8165594 176.414534,48.5003369 C176.362653,39.839601 174.334945,39.5647497 169.158495,38.2018846 C163.410889,36.6884501 157.173675,44.0775973 157.043196,47.2537213 C156.912561,50.4298454 158.763191,52.2585848 156.543802,55.6035336 C154.324259,58.9483362 148.847397,68.0958305 146.699772,72.2263398 C144.552147,76.3567031 143.742555,85.9185189 148.530674,92.2584994 C153.318637,98.598334 159.862633,110.335885 162.620713,112.883006 C165.378483,115.42998 170.620328,122.128787 172.888646,123.924082 C175.156964,125.719232 181.270067,132.743274 184.302309,133.685538 C187.334241,134.627509 193.577979,138.475719 196.071684,133.525914 C198.565389,128.576254 201.907364,128.306222 198.646938,120.260178 C195.386357,112.214279 191.757018,109.341923 188.342969,108.826394 C184.929075,108.310865 183.186246,107.660248 183.186246,107.660248" id="Fill-15" fill="#688538"></path>
                <path d="M159.271036,46.7607762 C160.294767,44.4736677 161.207543,41.6477821 163.490764,40.7829923 C165.803041,39.9072763 167.568977,39.7141493 169.582716,40.4696776 C171.752875,41.2836756 173.706546,41.5425072 173.950133,44.3232117 C174.193721,47.1037686 173.547717,52.9121972 171.950245,54.0957647 C169.698789,55.7639217 168.039291,56.0260016 165.996647,55.9980956 C163.954153,55.9701896 162.484347,55.493721 161.824492,54.9490378 C161.164938,54.4045022 160.452843,53.263901 160.452843,53.263901 C160.452843,53.263901 158.247455,49.0480323 159.271036,46.7607762" id="Fill-17" fill="#475727"></path>
                <path d="M189.479366,55.5592039 C189.479366,55.5592039 193.516164,40.9185717 194.153661,35.7744945 C194.608139,32.1062036 194.683676,25.8450657 194.117309,16.3493899 C193.550628,6.85371417 191.851056,2.63341383 199.78255,0.523263659 C208.238865,-1.72668396 217.344637,3.68848891 217.911319,8.96386433 C218.477685,14.2392398 216.211589,18.4595401 214.512017,20.5696903 C212.812445,22.6798404 212.812445,32.1755162 212.246078,37.9784292 C211.679397,43.7813421 212.812445,58.0248558 209.979825,66.992994 C207.147205,75.9611322 197.516296,107.085847 194.683676,115.526448 C191.851056,123.967049 192.594933,145.579822 186.929693,151.910419 C181.264453,158.240723 170.852528,158.306958 166.320335,154.086658 C156.083718,144.554348 160.442491,137.928476 164.40816,130.542951 C168.373828,123.157425 173.722287,101.282934 175.988383,95.4800212 C178.254636,89.6771083 189.479366,55.5592039 189.479366,55.5592039" id="Fill-19" fill="#688538"></path>
                <path d="M203.485688,4 C206.23712,4.19824018 209.835051,4.19824018 211.951453,6.97389632 C214.068012,9.74955247 214.735021,12.0266713 213.042025,15.7271546 C211.349029,19.4276378 209.656032,21.0135592 209.0917,24.185402 C208.527368,27.3572449 207.398704,41.101897 207.398704,45.3310208 C207.398704,49.5601445 205.141532,65.4193585 204.012711,69.6484823 C202.884047,73.877606 190.344588,106.111752 189.904409,110.353798 C189.567534,113.601266 189.026873,120.350243 185.954084,135.728541 C185.53883,137.806979 189.904409,148.944552 180.310763,150.530474 C170.717118,152.116395 165.638285,149.473193 165.073797,145.77271 C164.509465,142.072226 167.331125,133.613979 168.459946,128.327574 C169.588453,123.04117 186.518416,79.6926512 187.647081,72.8203251 C188.775745,65.947999 196.746936,39.9123091 196.501294,40.8763438 C196.25581,41.8403784 200.522474,25.7421014 198.829478,22.0416181 C197.136482,18.3411348 197.163601,13.4575248 197.240726,9.91210941 C197.347949,4.99120088 203.485688,4 203.485688,4" id="Fill-21" fill="#526A32"></path>
                <path d="M30.5796472,64.3599921 C28.4438436,57.9112549 19.6544319,42.7875459 15.2357662,39.6797756 C10.8172577,36.5718584 -1.81358396,31.2929221 0.219781534,21.6883948 C2.25298992,12.0840144 12.0526427,9.5828782 18.7208623,14.352835 C25.0757972,18.8985531 23.8372699,22.5827067 27.4625114,29.3558339 C31.0875958,36.129108 43.6315535,48.3507823 45.7175521,53.5467488 C47.8033936,58.7428621 52.1257486,76.2800382 56.4466895,87.0432059 C60.7676305,97.8065205 65.2367296,105.553992 70.9463986,110.749371 C76.6560675,115.944751 85.9901924,124.526473 96.6637116,129.674567 C107.337388,134.82266 120.19463,137.511323 119.997767,146.048256 C119.80106,154.585336 106.449067,159.691431 100.243233,155.516801 C94.037399,151.342318 62.5112783,128.10328 58.3408523,124.485061 C54.1702691,120.866843 43.8431857,110.939835 40.9623489,102.635364 C38.0815121,94.3308929 32.5671355,73.8245721 32.0203798,70.2057664 C31.4736241,66.5868139 30.5796472,64.3599921 30.5796472,64.3599921" id="Fill-23" fill="#688538"></path>
                <path d="M29.2728491,54.5315935 C27.8363871,52.2739238 25.5034699,47.4429069 24.280218,45.9086587 C23.0569661,44.3742649 18.1639586,38.2372724 16.5111487,37.1326196 C14.8583389,36.0281125 8.56573794,33.3589111 5.83369893,29.3700408 C2.89111688,25.0740878 1.9654806,24.2762263 4.37731222,19.7951205 C6.17147773,16.4614959 11.8126817,13.5637307 15.1184584,15.772745 C18.4240781,17.9819049 20.2420905,18.7487377 21.3666601,22.277858 C22.4910729,25.8069783 21.4334942,26.1755358 23.0536715,28.6917785 C24.6736919,31.2080211 27.1534558,35.1052619 29.0047283,36.7008392 C30.8560009,38.2962708 35.5505457,43.9424845 37.6666444,47.6861839 C39.782743,51.4298834 43.1881432,56.1249857 43.8826842,57.8433669 C44.5770683,59.5618937 47.0245134,67.1112045 48.5463222,73.8627994 C50.068131,80.6142487 53.7055678,88.8692086 55.5905712,93.5337192 C57.4754176,98.1982297 59.1619583,102.371816 63.1953792,107.127956 C67.2286432,111.884242 76.5182661,120.690435 81.6751584,124.495027 C86.8320507,128.299764 96.5175008,133.607429 98.9635339,134.435591 C101.409567,135.263753 110.234803,136.950086 112.218489,139.619724 C114.202174,142.289363 117.078707,147.168598 112.71645,149.80881 C108.354036,152.448876 100.851204,152.542254 98.9999318,150.946677 C97.1488162,149.351099 89.7769861,143.797681 85.1820648,140.637409 C80.5871436,137.477138 69.4136155,128.487102 65.2815124,125.725689 C61.1494092,122.964421 47.8930426,111.059139 45.8097334,105.903558 C43.7262674,100.747978 38.865108,88.7184351 36.8800104,79.3276479 C34.8949128,69.9368606 31.752613,58.4286886 29.2728491,54.5315935" id="Fill-25" fill="#475727"></path>
                <path d="M141.746598,156.552111 C140.633423,157.192741 133.919248,158.67068 126.569063,157.651562 C119.219035,156.632299 106.462449,154.429898 102.593385,150.930346 C98.7243223,147.43094 93.3889542,140.95787 91.375235,136.39065 C89.3615158,131.823576 87.1009819,120.718116 86.8010095,115.641775 C86.501194,110.565434 84.4219293,105.05462 88.4594034,100.772141 C92.5940981,96.3867301 97.121595,94.9105411 100.443087,96.8163922 C103.764579,98.7223892 106.944788,101.186786 106.926755,105.014526 C106.908722,108.842266 103.251192,109.515554 103.975328,112.916256 C104.699307,116.316812 106.447395,128.194411 108.973717,131.989493 C111.499883,135.784574 112.082579,139.743823 118.460872,140.845023 C124.839165,141.946224 137.931633,141.569486 140.387706,140.633181 C142.843779,139.697168 149.699393,137.660537 151.76627,140.76571 C153.833304,143.870737 156.925073,145.431633 153.390951,149.374115 C149.856828,153.316451 141.746598,156.552111 141.746598,156.552111" id="Fill-27" fill="#688538"></path>
                <path d="M97.893962,112.936955 C99.6703297,112.383428 102.689023,111.553066 103.943795,108.790064 C105.198729,106.026917 105.655348,104.088922 103.493965,101.457319 C100.879521,98.2740712 98.6176015,97.4966738 95.7219119,98.2860824 C92.9364574,99.0452459 89.4976745,101.576273 88.6245227,103.953037 C87.8599895,106.034297 87.4416783,107.469704 89.5356587,109.756167 C91.6294774,112.042485 92.9687844,112.401228 94.4480671,112.778494 C95.9271883,113.155616 97.893962,112.936955 97.893962,112.936955" id="Fill-29" fill="#475727"></path>
                <path d="M85.8443197,152.131282 C85.3347654,147.21997 83.4581911,145.62708 82.1732554,143.256674 C80.8883198,140.886267 81.0523306,133.187692 80.4005494,123.516932 C79.7486103,113.846173 70.4274598,97.9360571 71.6116843,89.024033 C72.7957509,80.1118622 68.595874,65.4957494 71.0031551,54.4369338 C73.2074354,44.3113144 71.4947141,35.0198492 62.0496478,35.0000408 C55.3136805,34.9859548 49.5440984,38.6207248 49.0744813,41.9011444 C48.605022,45.1814172 50.420033,51.0408918 52.6839823,55.0421908 C54.9479316,59.043343 54.5191987,63.1580635 54.3962301,68.0124447 C54.2732614,72.8666792 50.253023,88.1687498 52.0882394,96.2847693 C53.923298,104.400789 59.4500998,119.969172 59.7351851,125.809426 C60.0201124,131.649825 55.4293878,138.949885 55.7757206,144.202342 C56.1218955,149.454946 58.6298878,162.140839 62.240336,164.245959 C65.850942,166.35108 69.3388951,169.631793 74.9695652,167.053471 C80.6002353,164.47515 85.6597878,161.252101 85.904778,158.90077 C86.1499261,156.549438 85.8443197,152.131282 85.8443197,152.131282" id="Fill-31" fill="#688538"></path>
                <path d="M81.7317028,147.959727 C79.9743254,143.067719 79.323485,140.839906 78.4573512,137.662528 C77.8234057,135.337022 77.218755,129.200017 76.6410741,120.448398 C76.0635483,111.69678 68.6834309,97.6219211 69.7327734,89.5569493 C70.782116,81.4918305 66.6261306,66.7197318 68.7595354,56.7120812 C70.7128314,47.5489456 70.6708267,38.018137 62.3008865,38.0000402 C56.3315691,37.9873872 53.4611445,40.9636407 53.0449725,43.9320965 C52.6289555,46.9008465 55.1844222,52.2059901 57.1905729,55.8268116 C59.1968786,59.4477803 57.5035157,64.6792128 57.3947065,69.0721624 C57.2857423,73.465112 53.7230927,87.312805 55.3493411,94.6574378 C56.9755895,102.001923 62.8660124,117.757573 63.1186606,123.042854 C63.3711538,128.328136 58.8430161,140.594496 59.149914,145.347763 C59.4568118,150.101176 60.6665781,157.094614 63.0248863,159.895197 C66.3688324,163.866183 70.1398005,166.48521 75.4798224,164.074958 C80.4081673,161.850529 82.7607405,158.14555 82.9780489,156.017784 C83.1950474,153.889871 81.7317028,147.959727 81.7317028,147.959727" id="Fill-33" fill="#475727"></path>
                <g id="Group-37" transform="translate(229.000000, 66.000000)">
                    <mask id="mask-2" fill="white">
                        <use xlink:href="#path-1"></use>
                    </mask>
                    <g id="Clip-36"></g>
                    <path d="M17.1622806,69.6395 C17.1622806,69.6395 26.0618637,61.25875 29.8933679,56.821625 C33.7250299,52.3845 38.7566693,48.8330208 39.1941003,44.1263958 C39.6315313,39.419625 37.9546862,36.9664167 33.6925341,30.895375 C28.8787425,24.0387292 23.9884439,18.8685 24.0390806,10.5641667 C24.0917679,1.9158125 26.1509904,1.64135417 31.4078918,0.2804375 C37.244827,-1.23083333 43.5789792,6.14775 43.7116439,9.31933333 C43.844151,12.4909167 41.9647594,14.3171875 44.2187989,17.6572083 C46.4726806,20.9972292 52.0345059,30.1317917 54.2156665,34.25625 C56.3966693,38.3807083 57.2188439,47.9288542 52.3563087,54.2597708 C47.4937735,60.5905417 40.8482299,72.3114583 38.0474411,74.8547917 C35.2466524,77.398125 29.9233397,84.0875 27.6199256,85.8800833 C25.3161961,87.6726667 19.1080834,94.6868125 16.0287144,95.6275833 C12.9496608,96.5682083 6.60888338,100.410917 4.07642141,95.4683333 C1.54395944,90.5256042 -1.84995606,90.2559583 1.46114254,82.2214167 C4.77239887,74.1870208 8.45814535,71.3187708 11.9252552,70.8039792 C15.3922073,70.2891875 17.1622806,69.6395 17.1622806,69.6395" id="Fill-35" fill="#688538" mask="url(#mask-2)"></path>
                </g>
                <path d="M269.728909,75.7607762 C268.705332,73.4736677 267.792558,70.6477821 265.509345,69.7829923 C263.197075,68.9072763 261.431145,68.7141493 259.417413,69.4696776 C257.247261,70.2836756 255.293446,70.5426549 255.049859,73.3232117 C254.806272,76.1037686 255.452425,81.9123449 257.049741,83.0957647 C259.301189,84.7639217 260.960832,85.0260016 263.00332,84.9980956 C265.045957,84.9701896 266.515609,84.493721 267.175461,83.9491855 C267.835164,83.4045022 268.547106,82.263901 268.547106,82.263901 C268.547106,82.263901 270.752637,78.0480323 269.728909,75.7607762" id="Fill-38" fill="#475727"></path>
                <g id="Group-42" transform="translate(142.000000, 113.000000)">
                    <mask id="mask-4" fill="white">
                        <use xlink:href="#path-3"></use>
                    </mask>
                    <g id="Clip-41"></g>
                    <path d="M29.6325158,55.2126896 C34.7473579,52.8506271 33.4687263,52.8506271 35.1736737,48.1266479 C36.8786211,43.4025229 35.5998316,34.7417729 32.6160947,30.0176479 C29.6325158,25.2936687 26.6489368,24.1127104 25.3703053,20.9632937 C24.0915158,17.8138771 21.1079368,17.0265229 21.1079368,13.0898979 C21.1079368,9.15312708 21.1079368,4.82275208 17.2718842,2.85443958 C13.4358316,0.88598125 8.74730526,-1.86968542 4.91125263,2.06708542 C1.0752,6.00371042 -0.203589474,7.57841875 0.222726316,11.9087937 C0.648884211,16.2391687 2.35383158,16.2391687 4.91125263,19.3885854 C7.46851579,22.5380021 9.17346316,24.5063146 9.17346316,29.6240437 C9.17346316,34.7417729 7.89483158,47.7328979 11.3045684,51.2759187 C14.7144632,54.8189396 16.8457263,56.0000437 21.5342526,56.0000437 C26.2226211,56.0000437 29.6325158,55.2126896 29.6325158,55.2126896" id="Fill-40" fill="#688538" mask="url(#mask-4)"></path>
                </g>
                <path d="M158.005202,119.412352 C157.324361,117.975651 153.005392,114.317794 149.063026,116.897319 C145.303927,119.356802 142.926961,121.127248 144.484338,125.744273 C145.786557,129.604693 147.386722,130.163427 153.049911,129.965554 C159.852975,129.727814 159.73043,123.052328 158.005202,119.412352" id="Fill-43" fill="#526A32"></path>
            </g>
        </g>
    </g>
</svg>