<?xml version="1.0" encoding="UTF-8"?>
<svg width="569px" height="201px" viewBox="0 0 569 201" version="1.1" xmlns="http://www.w3.org/2000/svg" xmlns:xlink="http://www.w3.org/1999/xlink">
    <!-- Generator: Sketch 47.1 (45422) - http://www.bohemiancoding.com/sketch -->
    <title>expressionFooterMotif</title>
    <desc>Created with Sketch.</desc>
    <defs>
        <polygon id="path-1" points="0.484817644 0.77 25.7439394 0.77 25.7439394 32.5050163 0.484817644 32.5050163 0.484817644 0.77"></polygon>
        <polygon id="path-3" points="36.2279464 0.342229446 36.2279464 69.6521272 0.328044184 69.6521272 0.328044184 0.342229446 36.2279464 0.342229446"></polygon>
        <polygon id="path-5" points="36.2279464 0.342229446 36.2279464 69.6521272 0.328044184 69.6521272 0.328044184 0.342229446 36.2279464 0.342229446"></polygon>
        <polygon id="path-7" points="4.06575815e-20 39.0626503 4.06575815e-20 0.0736322418 185.989359 0.0736322418 185.989359 168 4.06575815e-20 168 4.06575815e-20 39.0626503 -6.48338903e-05 168.00002 185.989106 168.00002 185.989106 39.0626503"></polygon>
    </defs>
    <g id="Symbols" stroke="none" stroke-width="1" fill="none" fill-rule="evenodd">
        <g id="expressionFooterMotif">
            <path d="M96.8172855,133.093254 L98.3172855,134.593254" id="Line-2" stroke="#979797" stroke-linecap="square"></path>
            <g id="expressionFlower5" transform="translate(305.302582, 62.218187) rotate(70.000000) translate(-305.302582, -62.218187) translate(287.302582, 26.218187)">
                <path d="M15.4121367,0.379659361 C15.4121367,0.379659361 18.3604538,0.352336595 18.4919843,3.55354807 C18.6235148,6.75412414 18.9456693,14.020709 18.526932,15.5240965 C18.1094656,17.027484 20.7102116,23.3574699 20.4261819,25.5451974 C20.1408814,27.7341957 19.3485212,32.6465748 19.3485212,32.6465748 C19.3485212,32.6465748 21.1499175,32.3504723 22.1767452,33.4077998 C23.2035728,34.4663981 23.1876875,35.5084757 23.3802177,37.0569775 C23.5727479,38.6054794 23.3331971,40.1838457 25.4643728,37.0881128 C27.2911857,34.4352629 33.8314933,37.6453701 34.9167789,39.5668595 C36.0020646,41.4883489 36.6851338,43.8711482 34.4522919,44.1971152 C32.2181793,44.5230821 30.6684066,47.231213 30.2954191,48.1246039 C29.9224315,49.0179948 27.6279546,50.9960359 29.0569988,51.5926889 C30.486043,52.1893418 36.127241,54.7545048 35.3494953,58.6248063 C34.572385,62.4957432 31.8420147,69.536121 28.1953786,68.2233574 C24.5487425,66.9099584 22.0032774,66.4759712 21.6029671,64.4216805 C21.2020214,62.3667544 20.5189523,59.983955 19.4768747,59.9680697 C18.4347971,59.9521844 17.3927195,59.936299 17.8381441,61.3812286 C18.2842042,62.8255227 20.4134737,62.2466613 20.217131,65.7306316 C20.0207883,69.2146019 20.6593786,72.2073979 17.2656369,70.791062 C13.8718952,69.3734552 8.76635052,67.0319578 8.18748914,64.9026883 C7.60862775,62.7727834 8.68184057,60.7045135 8.6684969,59.230355 C8.65451781,57.7568319 7.95429251,58.9317108 6.18339604,57.1442936 C4.41249958,55.356241 2.62889485,52.0946653 3.65699334,50.6357567 C4.68509182,49.1774835 4.29876062,48.5967159 5.78816906,47.5406592 C7.27821291,46.4846025 4.03569958,42.1942929 4.03569958,42.1942929 C4.03569958,42.1942929 0.333782531,34.9855307 0.364917775,32.9007401 C0.39605302,30.8159495 -1.26428156,21.7327185 2.25082402,19.844906 C5.7659296,17.9564581 9.45958627,16.1429889 11.5456477,13.6572527 C13.6323445,11.1727872 13.8121664,8.73152988 13.3222628,7.89723241 C12.8310885,7.06293493 9.85354243,6.65881217 10.5702885,4.44122025 C11.2863991,2.22235751 11.1682123,0.495939968 12.5387984,0.229066443 C13.9087492,-0.0384424959 15.4121367,0.379659361 15.4121367,0.379659361" id="Fill-1" fill="#8776B5"></path>
                <path d="M25.814549,47.3021886 C24.5812121,45.6043647 23.1216681,44.709703 21.7078738,43.0709724 C20.2947149,41.4322419 16.1867689,39.7166264 15.710209,40.3564874 C15.2330137,40.9963485 15.9904262,43.2005967 16.4358509,44.6448908 C16.8812755,46.0898203 17.1036701,48.0704031 17.0585557,48.6803998 C17.0134414,49.2910318 18.6051514,51.0041057 17.6965106,51.6738312 C16.7878697,52.3429212 15.5964701,52.6847735 15.1802745,51.6719249 C14.7640788,50.6590763 15.3448465,50.2727451 15.6136262,49.1258244 C15.8830414,47.9795391 13.6095331,41.3674298 13.6095331,41.3674298 C13.6095331,41.3674298 10.1103129,42.2131647 9.73732536,43.1065556 C9.36433784,43.9999465 11.6105233,47.6637387 11.4745449,49.4949994 C11.3392019,51.3262602 11.3671601,54.2745772 11.0685159,54.989417 C10.7698717,55.7036214 9.07204779,56.2532538 9.1451203,58.5909388 C9.21819282,60.9279884 11.0017975,64.1901995 12.9823804,63.9684403 C14.9629632,63.7466811 17.4048559,63.9271384 17.8223224,62.4237509 C18.2404242,60.9203634 16.8584006,57.1968423 18.0205713,56.4229091 C19.1821065,55.6502467 19.7044161,54.3997536 20.7903372,56.321243 C21.8756229,58.2427324 22.8865652,60.3427728 24.6587325,59.6145894 C26.4308998,58.8857705 28.5900337,58.73899 28.9782711,56.8035216 C29.367144,54.8686885 28.6014711,51.8079033 27.5530394,51.1750318 C26.7740229,50.7041907 27.0472506,49.0000126 25.814549,47.3021886" id="Fill-4" fill="#6557A4"></path>
                <path d="M10.4039373,4.53837492 C10.4039373,4.53837492 10.2215737,0.733520947 11.5845349,0.370064622 C12.9481316,0.00724370998 16.8616412,-0.358118855 17.6991157,0.68586496 C18.3732891,1.52715198 19.0201397,4.22066835 18.6948082,5.66941034 C18.483851,6.60855099 19.120535,11.9072613 18.9013174,12.6545072 C18.6820999,13.4023884 18.5353195,15.205691 18.5086321,15.9395932 C18.4813093,16.6747662 19.5443556,20.3817666 19.768021,21.4073234 C19.9923218,22.4328802 21.1093782,24.6708054 20.3456115,27.6146745 C19.5824803,30.5591791 19.5462618,32.5842408 19.3486483,32.6465113 C19.1510348,32.7094172 17.6095225,32.1591494 16.9410679,31.9736088 C16.2726132,31.7874327 13.3783063,26.663461 14.4718523,24.0436526 C15.5660338,21.4238441 15.3385559,16.3875595 15.8157512,15.4681166 C16.2929464,14.5486738 17.5593249,11.0685159 16.6926213,10.241208 C15.8265532,9.41326466 15.1320466,8.84329905 14.5824142,9.26648422 C14.0327818,9.68966938 13.4882328,9.71826297 13.4933161,9.69729434 C13.7989498,8.51987376 11.8819083,7.08765251 11.0374442,6.48146835 C10.1046577,5.8123783 10.4039373,4.53837492 10.4039373,4.53837492" id="Fill-6" fill="#6557A4"></path>
            </g>
            <g id="expressionFlower4" transform="translate(483.317286, 96.195514) rotate(180.000000) translate(-483.317286, -96.195514) translate(444.317286, 76.695514)">
                <path d="M56.5554113,27.57145 C56.5554113,27.57145 59.9710598,24.5071609 61.036798,22.4339852 C62.1025363,20.3608094 63.2864309,16.2323367 63.2864309,16.2323367 C63.2864309,16.2323367 52.9889582,6.16573516 51.4047316,5.88045 C49.8205051,5.59516484 41.5254699,1.17363359 40.2599543,1.03993047 C38.9936613,0.906227344 30.1552629,1.07491094 29.217009,1.56696953 C28.2787551,2.05825078 27.4586574,1.12621562 23.9170793,3.08900859 C20.3755012,5.05102422 18.9203137,8.07877812 17.9999387,9.51686406 C17.080341,10.9557273 16.2470285,16.9715906 16.2470285,16.9715906 L20.9934895,17.4341102 C20.9934895,17.4341102 24.1277395,16.1895828 27.2876418,16.2875281 C30.4467668,16.3846961 40.8919348,17.6074578 43.5986457,18.8185594 C46.306134,20.0304383 48.1849738,19.2048992 50.4252785,20.7409305 C52.6648059,22.2769617 55.2144934,23.49195 55.8822316,25.3738992 C56.5491926,27.2558484 56.5554113,27.57145 56.5554113,27.57145" id="Fill-1" fill="#8776B5"></path>
                <path d="M4.19322539,5.8331875 C2.8181043,4.51092578 -1.1618957,6.567 0.986682422,11.5793125 C3.13526055,16.5908477 8.67461211,17.2749102 8.67461211,17.2749102 C8.67461211,17.2749102 12.6538348,18.9353164 15.9653191,18.7137734 C19.2768035,18.4930078 20.9916238,17.3549766 23.3508621,16.8364883 C25.709323,16.318 26.3195379,15.200957 24.4072723,14.2899102 C22.4950066,13.3788633 19.5201121,14.698793 19.1687527,12.8114023 C18.816616,10.9232344 18.8749168,7.76333203 19.4944598,7.12046875 C20.1132254,6.47682813 16.1246746,10.5003594 14.5513309,10.8462773 C12.9795418,11.1921953 12.2107488,12.3123477 10.7633348,10.9185703 C9.3159207,9.52479297 9.77766289,8.88503906 8.6512918,7.80064453 C7.52569805,6.71780469 4.35413555,5.98787891 4.19322539,5.8331875" id="Fill-3" fill="#6557A4"></path>
                <path d="M70.1468004,10.259616 C70.1468004,10.259616 70.9770035,9.66494805 73.4170855,9.24984648 C75.9115816,8.8254168 77.6637145,8.37922148 77.680816,9.32680352 C77.6994723,10.2736082 76.5334566,15.3488855 74.2014254,17.2875809 C71.8701715,19.2270535 71.7030426,18.7567605 70.643523,21.1447605 C69.5832262,23.5335379 72.6949332,21.1058934 73.6697223,22.5082215 C74.643734,23.911327 75.6418434,26.5760613 75.044066,28.3243074 C74.4455113,30.0725535 71.340023,32.816577 70.0830582,33.1554988 C68.8268707,33.4959754 66.9114957,32.4271277 66.9114957,32.4271277 C66.9114957,32.4271277 66.3595816,28.3320809 64.7753551,28.0467957 C63.1911285,27.7615105 62.0530973,26.0459129 63.0512066,28.7106473 C64.049316,31.376159 64.8810738,33.5706004 64.5981207,35.3126277 C64.3151676,37.0554324 64.5095035,38.9459324 62.7705855,38.8215574 C61.0308902,38.6971824 59.9107379,37.9291668 58.305523,36.5384988 C56.6995309,35.1486082 56.7119684,35.779034 54.9847105,36.2858621 C53.2574527,36.7926902 49.990277,38.5113973 48.9657379,35.2955262 C48.1821754,32.8367879 48.4674605,31.2525613 49.0838941,30.4511199 C49.7003277,29.6496785 51.2293629,21.5147762 51.6879957,20.7172215 C52.1466285,19.9188895 59.2764254,21.2038387 60.0475504,20.2422645 C60.8186754,19.2799129 61.4786402,12.4781551 62.8895191,11.9767684 C64.3011754,11.476159 70.1468004,10.259616 70.1468004,10.259616" id="Fill-5" fill="#8776B5"></path>
                <path d="M27.863498,0.961107812 C29.4547207,0.530459375 38.7276543,-0.667427344 46.6697754,1.86515859 C54.6134512,4.39774453 65.9043691,8.60395156 68.129127,9.35097891 C70.3538848,10.0980062 71.765541,9.59661953 71.765541,9.59661953 C71.765541,9.59661953 69.7374512,10.8986703 67.7008105,11.7273187 C65.6641699,12.5559672 62.8859434,15.9241977 62.8859434,15.9241977 C62.8859434,15.9241977 55.1809121,9.28179531 54.0599824,8.51377969 C52.9406074,7.74576406 43.082334,4.14433047 41.0363652,4.49957656 C38.9903965,4.85404531 35.8429316,5.38730312 33.6360527,5.58708047 C31.4291738,5.78763516 30.3121309,5.17742031 32.510459,4.50424062 C34.7080098,3.83028359 35.8032871,3.33589297 38.0039473,2.82051406 C40.2046074,2.30435781 39.2337051,1.05983047 36.3964004,1.27126797 C33.557541,1.48426016 28.2000879,2.05949453 27.0985918,2.23906094 C25.9970957,2.41707266 23.8010996,3.24883047 23.1768926,3.57609219 C22.5511309,3.90413125 25.9784395,1.47026797 27.863498,0.961107812" id="Fill-7" fill="#6557A4"></path>
                <path d="M51.0646437,21.1500465 C51.0646437,21.1500465 49.7563742,27.0695191 49.3125109,28.6568551 C48.869425,30.244191 48.2677609,31.8346363 48.6113469,33.249402 C48.9533781,34.6641676 50.4901867,32.4246402 50.6238898,31.1583473 C50.757593,29.8928316 52.603007,27.331484 53.2318781,27.1612457 C53.8607492,26.9917848 55.0943937,28.5612418 56.5550227,27.5716832 C59.6729484,25.4596402 62.6548391,19.4577691 62.5429016,18.6151285 C62.4364055,17.8175738 61.4849367,19.7523824 58.2939406,23.5123941 C57.1356984,24.8766324 51.0646437,21.1500465 51.0646437,21.1500465" id="Fill-9" fill="#6557A4"></path>
            </g>
            <g id="expressionFlower3" transform="translate(444.346692, 98.426594)">
                <path d="M52.1842903,0.372776549 C51.178512,0.768266561 49.3200718,2.15574712 48.6705974,4.81169839 C48.0218486,7.46764967 48.0312823,9.45743611 47.1517706,10.3456559 C46.2729845,11.235327 37.2572636,20.3446593 36.3712208,20.1284097 C35.4859037,19.9121602 32.3880196,19.2648627 31.0716547,21.2611802 C29.7567411,23.2574977 27.9657882,19.0667549 26.1937026,18.1923229 C24.4201658,17.3171651 21.0893416,14.4602034 17.1264591,17.5755036 C13.1643023,20.6908038 13.1918778,25.9961753 13.1969575,27.1013703 C13.2027628,28.2065654 12.9959469,30.8603396 14.1062216,31.9597293 C15.2179477,33.059119 18.1003079,34.8130628 15.2266557,34.8275761 C12.3530035,34.8428152 11.0155942,32.6389562 7.92569241,33.5395123 C4.83579063,34.4393428 -0.0247453384,34.9073998 -7.25669746e-05,39.7701128 C0.0253258742,44.6328258 0.272053588,49.4948131 4.47948678,51.0201709 C8.68764565,52.5455287 11.1164623,52.0912594 14.6511996,51.6304591 C18.1852113,51.1703845 18.4087176,51.6108661 17.3071509,52.2799336 C16.2055842,52.9490011 13.7796703,54.0665325 11.8007689,56.0664783 C9.82114179,58.0664241 8.06356966,60.0649186 9.62230828,62.2673263 C11.1810469,64.469734 12.0765234,66.67577 15.1700535,66.438476 C18.2635836,66.201182 19.3557166,63.5430537 20.6778869,62.8732605 C22.0007828,62.2027417 24.2249606,64.8441796 25.7612035,62.6250815 C27.2967206,60.4067091 25.0609322,55.5556068 28.6000235,55.9793979 C32.1391149,56.4031891 32.5962868,59.2739386 35.4605053,57.490968 C38.3247238,55.7072718 42.7273621,52.1478617 42.0481353,49.0565085 C41.3689084,45.9651554 40.9189931,44.4202045 40.9153648,43.7569424 C40.9124621,43.0944059 49.7213672,36.8587258 50.5943479,34.6439817 C51.4673286,32.4292376 54.7705773,30.2007058 54.2872812,22.2459141 C53.8039852,14.2903966 52.6820997,10.9806169 53.5572575,9.20780572 C54.4324152,7.43426886 55.7640192,8.53293286 57.5237683,6.97637125 C59.2842431,5.41980964 61.9220526,2.53309539 58.5999365,1.22326149 C55.2770948,-0.0858467311 53.1907942,-0.0234391328 52.1842903,0.372776549" id="Fill-11" fill="#8776B5"></path>
                <path d="M18.778664,37.6831592 C18.778664,37.6831592 21.1878876,33.4699206 23.17332,32.5758955 C25.1580268,31.6811447 26.0426182,31.6767907 28.6971181,32.1049358 C31.3516181,32.533081 34.234704,34.2862991 34.234704,34.2862991 L29.1840425,40.7229897 C29.1840425,40.7229897 26.7465178,39.6315824 26.7530489,40.9573811 C26.7603056,42.2839054 26.3249037,43.611881 27.8713059,43.3825694 C29.4177082,43.1539834 30.3030253,43.370233 30.5207262,42.7062452 C30.7377015,42.0422573 30.5170978,42.042983 30.9546767,41.1562146 C31.3922556,40.2694461 35.7861859,35.1629081 35.7861859,35.1629081 C35.7861859,35.1629081 39.1046736,35.5874249 39.110479,36.6933456 C39.1155587,37.797815 39.3484987,40.0074794 38.4682613,40.6750955 C37.5872982,41.3434374 35.1555789,41.3557738 33.8384883,43.130762 C32.5213977,44.9064758 31.4365214,48.8904027 29.6731439,49.7844279 C27.9090408,50.6777273 25.9301394,52.6769475 24.8205903,51.7988871 C23.7103156,50.920101 22.155931,49.6022848 22.5906072,48.0522542 C23.0245577,46.5029493 24.5687829,46.053034 23.4585082,44.9536444 C22.3475078,43.8542547 22.1312582,44.7395718 20.1451002,45.4122676 C18.1589421,46.0864148 13.7497727,48.3193007 13.738162,46.1089106 C13.7265512,43.8985206 12.6184535,43.2410638 14.1612274,42.3492156 C15.7040013,41.4566419 17.4717328,41.4472081 17.6872567,40.3412875 C17.9027806,39.2353668 18.778664,37.6831592 18.778664,37.6831592" id="Fill-14" fill="#6557A4"></path>
                <path d="M56.6198015,0.813620921 C56.6198015,0.813620921 58.8788114,0.704044789 59.5711004,1.58428219 C60.2633893,2.4645196 60.8540845,2.65827342 59.7822702,4.43253595 C58.7111817,6.20679848 58.6197473,7.58266832 57.1473634,7.78658152 C55.6742538,7.99122039 55.0973464,8.10442487 54.2773395,8.6363408 C53.2033483,9.33443509 53.212782,11.0513697 53.3383229,12.129715 C53.4667664,13.2341843 53.5821479,14.2283519 53.5458644,14.1920684 C52.7280346,13.3829466 50.9719138,10.4722853 51.8405405,7.51953505 C52.7091672,4.56751052 52.6961052,2.01315301 56.6198015,0.813620921" id="Fill-16" fill="#6557A4"></path>
            </g>
            <g id="expressionFlower3" transform="translate(218.945735, 32.000000) rotate(-30.000000) translate(-218.945735, -32.000000) translate(187.445735, 14.000000)">
                <path d="M1.13177285,6.10901511 C1.13177285,6.10901511 -0.225798417,5.66409212 0.892626748,3.62523252 C2.01160807,1.58637292 2.22683956,-0.44803745 8.10315995,0.0864262907 C13.9794803,0.620333878 16.4777229,3.20533645 16.8186452,3.65526482 C17.1595674,4.10519319 20.0009568,7.47937792 20.4553344,7.92819398 C20.909712,8.37812235 29.1736004,12.0620847 31.3259154,13.2934091 C33.4782303,14.5247335 35.8557876,15.528591 38.9007293,14.6092688 C41.945671,13.6899467 42.2904863,14.9307257 43.5206984,12.5526123 C44.7509104,10.1744989 44.2926398,9.04661915 45.3037273,7.91206552 C46.3142586,6.7775119 46.6596301,8.01829089 48.0066344,6.42991581 C49.3541949,4.84154074 49.7946687,2.69311886 50.0299217,4.49895004 C50.2651747,6.30533738 50.1867571,4.82263151 50.0443817,7.32309872 C49.8069041,11.5009256 51.083833,11.7228309 49.5126987,13.6510159 C47.9415644,15.5786448 45.2353203,16.4968546 48.3970543,16.3672708 C51.5593445,16.2382431 52.3446336,15.2171449 54.3823809,16.1103278 C56.4201282,17.0035107 57.4367772,17.1108483 58.3544308,19.7036371 C59.2709722,22.2969819 56.003569,23.7824686 56.3467159,24.6839938 C56.6904189,25.5860751 58.6097054,25.3502659 57.8249725,26.4837073 C57.0396834,27.6171486 56.2510574,27.9602954 55.0113907,28.5309092 C53.7717241,29.1026352 54.7978277,30.9045733 56.4952089,31.4601709 C58.1925901,32.0163246 59.0896661,30.769428 60.225332,32.0052016 C61.360998,33.2420875 63.1779522,35.1530317 61.2592218,35.3882847 C59.3404914,35.6246501 57.9868132,35.8576785 56.0597405,34.6246857 C54.133224,33.3928051 53.7928579,33.055776 50.6188885,30.9262633 C47.4454753,28.7967507 45.1713627,25.8719382 40.5374897,25.3313567 C35.9036168,24.7907753 31.2741931,25.0404883 27.2037039,24.1578723 C23.1332147,23.2752564 18.4948925,21.9443805 17.1278666,19.692514 C15.7608408,17.4406475 12.6708506,9.66339364 12.3226983,7.85811861 C11.97399,6.05228743 12.8705098,4.69249154 9.7110004,5.16077299 C6.55037871,5.62905443 6.78396328,7.09563184 4.75066522,6.9938557 C2.71736716,6.89096726 1.13177285,6.10901511 1.13177285,6.10901511" id="Fill-18" fill="#8776B5"></path>
                <path d="M2.16204765,1.51045793 C3.17591591,1.05329956 3.63029352,1.54049024 4.42225644,1.87473863 C5.21477551,2.20954318 6.11741303,1.97929553 7.24473665,1.52158101 C8.37150413,1.06386648 12.1010711,1.49655409 13.0076017,2.05604475 C13.9141323,2.61609156 16.2922456,3.84630363 16.749404,4.86017189 C17.2065624,5.87459631 18.1208791,7.90288899 18.1208791,7.90288899 C18.1208791,7.90288899 18.3539075,9.37002254 17.6742877,8.92176263 C16.9941117,8.47405887 15.7461027,7.35062833 15.4101858,7.91734898 C15.074269,8.48351349 16.7816609,11.0724091 18.149243,13.4371748 C19.5173812,15.8019405 24.6206479,19.728942 27.3352342,20.5053327 C30.0503768,21.2817233 36.7153232,21.5864955 38.0695575,21.3534671 C39.4237919,21.1204387 45.7389176,19.280126 46.7516735,18.48427 C47.7638733,17.688414 51.3772041,17.4437063 51.8454856,20.6037719 C52.313767,23.7643936 54.4738681,26.4634076 52.8966162,27.2626006 C51.3199203,28.0612373 47.4807911,28.4199565 46.4613613,27.8604658 C45.4419315,27.3009752 42.3853105,25.961757 40.1251017,25.6347386 C37.8643368,25.307164 33.0052216,24.8805941 30.8595805,24.8922733 C28.7133832,24.9033964 23.4883188,23.6442644 22.3799045,23.2416091 C15.6276419,20.792308 16.7076925,18.52765 15.9118365,17.514894 C15.1159805,16.5026942 12.5993848,10.4167039 12.3658003,8.94957032 C12.1322157,7.48243676 10.9909882,5.22945797 9.74909693,5.23557566 C8.50609333,5.24224951 7.68687888,6.94074302 5.88049154,7.06309684 C4.0741042,7.18545067 3.523512,7.00247609 2.64089602,6.77890228 C1.62313468,6.5202908 0.644304104,6.56311463 0.375681849,5.58539636 C-0.0692411402,3.96643284 2.16204765,1.51045793 2.16204765,1.51045793" id="Fill-21" fill="#6557A4"></path>
            </g>
            <g id="expressionFlower5" transform="translate(155.651231, 57.888735) rotate(70.000000) translate(-155.651231, -57.888735) translate(137.651231, 21.888735)">
                <path d="M15.4121367,0.379659361 C15.4121367,0.379659361 18.3604538,0.352336595 18.4919843,3.55354807 C18.6235148,6.75412414 18.9456693,14.020709 18.526932,15.5240965 C18.1094656,17.027484 20.7102116,23.3574699 20.4261819,25.5451974 C20.1408814,27.7341957 19.3485212,32.6465748 19.3485212,32.6465748 C19.3485212,32.6465748 21.1499175,32.3504723 22.1767452,33.4077998 C23.2035728,34.4663981 23.1876875,35.5084757 23.3802177,37.0569775 C23.5727479,38.6054794 23.3331971,40.1838457 25.4643728,37.0881128 C27.2911857,34.4352629 33.8314933,37.6453701 34.9167789,39.5668595 C36.0020646,41.4883489 36.6851338,43.8711482 34.4522919,44.1971152 C32.2181793,44.5230821 30.6684066,47.231213 30.2954191,48.1246039 C29.9224315,49.0179948 27.6279546,50.9960359 29.0569988,51.5926889 C30.486043,52.1893418 36.127241,54.7545048 35.3494953,58.6248063 C34.572385,62.4957432 31.8420147,69.536121 28.1953786,68.2233574 C24.5487425,66.9099584 22.0032774,66.4759712 21.6029671,64.4216805 C21.2020214,62.3667544 20.5189523,59.983955 19.4768747,59.9680697 C18.4347971,59.9521844 17.3927195,59.936299 17.8381441,61.3812286 C18.2842042,62.8255227 20.4134737,62.2466613 20.217131,65.7306316 C20.0207883,69.2146019 20.6593786,72.2073979 17.2656369,70.791062 C13.8718952,69.3734552 8.76635052,67.0319578 8.18748914,64.9026883 C7.60862775,62.7727834 8.68184057,60.7045135 8.6684969,59.230355 C8.65451781,57.7568319 7.95429251,58.9317108 6.18339604,57.1442936 C4.41249958,55.356241 2.62889485,52.0946653 3.65699334,50.6357567 C4.68509182,49.1774835 4.29876062,48.5967159 5.78816906,47.5406592 C7.27821291,46.4846025 4.03569958,42.1942929 4.03569958,42.1942929 C4.03569958,42.1942929 0.333782531,34.9855307 0.364917775,32.9007401 C0.39605302,30.8159495 -1.26428156,21.7327185 2.25082402,19.844906 C5.7659296,17.9564581 9.45958627,16.1429889 11.5456477,13.6572527 C13.6323445,11.1727872 13.8121664,8.73152988 13.3222628,7.89723241 C12.8310885,7.06293493 9.85354243,6.65881217 10.5702885,4.44122025 C11.2863991,2.22235751 11.1682123,0.495939968 12.5387984,0.229066443 C13.9087492,-0.0384424959 15.4121367,0.379659361 15.4121367,0.379659361" id="Fill-1" fill="#8776B5"></path>
                <path d="M25.814549,47.3021886 C24.5812121,45.6043647 23.1216681,44.709703 21.7078738,43.0709724 C20.2947149,41.4322419 16.1867689,39.7166264 15.710209,40.3564874 C15.2330137,40.9963485 15.9904262,43.2005967 16.4358509,44.6448908 C16.8812755,46.0898203 17.1036701,48.0704031 17.0585557,48.6803998 C17.0134414,49.2910318 18.6051514,51.0041057 17.6965106,51.6738312 C16.7878697,52.3429212 15.5964701,52.6847735 15.1802745,51.6719249 C14.7640788,50.6590763 15.3448465,50.2727451 15.6136262,49.1258244 C15.8830414,47.9795391 13.6095331,41.3674298 13.6095331,41.3674298 C13.6095331,41.3674298 10.1103129,42.2131647 9.73732536,43.1065556 C9.36433784,43.9999465 11.6105233,47.6637387 11.4745449,49.4949994 C11.3392019,51.3262602 11.3671601,54.2745772 11.0685159,54.989417 C10.7698717,55.7036214 9.07204779,56.2532538 9.1451203,58.5909388 C9.21819282,60.9279884 11.0017975,64.1901995 12.9823804,63.9684403 C14.9629632,63.7466811 17.4048559,63.9271384 17.8223224,62.4237509 C18.2404242,60.9203634 16.8584006,57.1968423 18.0205713,56.4229091 C19.1821065,55.6502467 19.7044161,54.3997536 20.7903372,56.321243 C21.8756229,58.2427324 22.8865652,60.3427728 24.6587325,59.6145894 C26.4308998,58.8857705 28.5900337,58.73899 28.9782711,56.8035216 C29.367144,54.8686885 28.6014711,51.8079033 27.5530394,51.1750318 C26.7740229,50.7041907 27.0472506,49.0000126 25.814549,47.3021886" id="Fill-4" fill="#6557A4"></path>
                <path d="M10.4039373,4.53837492 C10.4039373,4.53837492 10.2215737,0.733520947 11.5845349,0.370064622 C12.9481316,0.00724370998 16.8616412,-0.358118855 17.6991157,0.68586496 C18.3732891,1.52715198 19.0201397,4.22066835 18.6948082,5.66941034 C18.483851,6.60855099 19.120535,11.9072613 18.9013174,12.6545072 C18.6820999,13.4023884 18.5353195,15.205691 18.5086321,15.9395932 C18.4813093,16.6747662 19.5443556,20.3817666 19.768021,21.4073234 C19.9923218,22.4328802 21.1093782,24.6708054 20.3456115,27.6146745 C19.5824803,30.5591791 19.5462618,32.5842408 19.3486483,32.6465113 C19.1510348,32.7094172 17.6095225,32.1591494 16.9410679,31.9736088 C16.2726132,31.7874327 13.3783063,26.663461 14.4718523,24.0436526 C15.5660338,21.4238441 15.3385559,16.3875595 15.8157512,15.4681166 C16.2929464,14.5486738 17.5593249,11.0685159 16.6926213,10.241208 C15.8265532,9.41326466 15.1320466,8.84329905 14.5824142,9.26648422 C14.0327818,9.68966938 13.4882328,9.71826297 13.4933161,9.69729434 C13.7989498,8.51987376 11.8819083,7.08765251 11.0374442,6.48146835 C10.1046577,5.8123783 10.4039373,4.53837492 10.4039373,4.53837492" id="Fill-6" fill="#6557A4"></path>
            </g>
            <g id="expressionFlower4" transform="translate(217.983340, 60.324334) rotate(20.000000) translate(-217.983340, -60.324334) translate(178.983340, 40.824334)">
                <path d="M56.729311,27.6562282 C56.729311,27.6562282 60.1554621,24.5825169 61.2244773,22.5029664 C62.2934926,20.4234159 63.4810275,16.2822488 63.4810275,16.2822488 C63.4810275,16.2822488 53.1518916,6.1846939 51.5627937,5.89853153 C49.9736959,5.61236916 41.6531547,1.17724235 40.3837478,1.0431281 C39.1135612,0.909013861 30.2479859,1.07821613 29.306847,1.57178774 C28.3657081,2.0645796 27.5430888,1.12967857 23.9906208,3.09850685 C20.4381529,5.06655539 18.9784909,8.1036192 18.0552859,9.54612704 C17.1328606,10.9894146 16.2969858,17.0237758 16.2969858,17.0237758 L21.0580414,17.4877175 C21.0580414,17.4877175 24.2019288,16.2393634 27.3715473,16.3376099 C30.5403862,16.4350767 41.0176715,17.6615982 43.7327052,18.8764237 C46.4485186,20.092029 48.3331356,19.2639515 50.5803289,20.8047058 C52.8267425,22.3454601 55.3842699,23.5641843 56.0540614,25.4519203 C56.7230731,27.3396562 56.729311,27.6562282 56.729311,27.6562282" id="Fill-1" fill="#8776B5"></path>
                <path d="M4.20611895,5.85112371 C2.82676956,4.52479622 -1.16546836,6.58719257 0.989716327,11.6149172 C3.14490102,16.6418621 8.70128528,17.328028 8.70128528,17.328028 C8.70128528,17.328028 12.6927435,18.9935398 16.0144102,18.7713156 C19.3360769,18.5498711 21.05617,17.4083406 23.4226626,16.888258 C25.7883755,16.3681755 26.4004667,15.2476978 24.4823211,14.3338496 C22.5641755,13.4200013 19.5801336,14.7439896 19.2276939,12.8507955 C18.8744744,10.9568217 18.9329544,7.78720315 19.5544024,7.14236316 C20.1750706,6.49674343 16.1742556,10.5326465 14.5960741,10.8796281 C13.019452,11.2266097 12.2482951,12.3502063 10.7964305,10.9521433 C9.34456581,9.55408033 9.80772779,8.91235927 8.67789326,7.82463038 C7.54883848,6.73846096 4.36752388,6.00629077 4.20611895,5.85112371" id="Fill-3" fill="#6557A4"></path>
                <path d="M70.3624916,10.2911628 C70.3624916,10.2911628 71.1952475,9.69466636 73.6428324,9.27828842 C76.1449987,8.85255367 77.9025191,8.40498637 77.9196733,9.35548208 C77.9383869,10.3051981 76.7687859,15.3960811 74.429584,17.3407377 C72.0911618,19.2861739 71.923519,18.8144349 70.8607416,21.2097776 C69.7971845,23.6059001 72.9184596,21.1707909 73.896246,22.577431 C74.8732526,23.9848508 75.8744311,26.6577789 75.2748156,28.4114006 C74.6744205,30.1650223 71.5593833,32.9174832 70.2985534,33.2574472 C69.0385033,33.5989707 67.1172388,32.5268364 67.1172388,32.5268364 C67.1172388,32.5268364 66.5636277,28.4191979 64.9745299,28.1330355 C63.3854321,27.8468732 62.2439015,26.1260003 63.24508,28.7989283 C64.2462584,31.4726361 65.0805737,33.6738251 64.7967506,35.4212089 C64.5129274,37.1693725 64.7078609,39.0656855 62.963596,38.9409281 C61.2185514,38.8161706 60.0949547,38.0457935 58.4848041,36.6508494 C56.8738737,35.2566851 56.8863494,35.8890493 55.1537806,36.3974359 C53.4212117,36.9058224 50.1439898,38.6298142 49.1163004,35.4040548 C48.3303286,32.9377562 48.616491,31.3486584 49.23482,30.5447527 C49.853149,29.740847 51.3868857,21.580931 51.8469288,20.7809239 C52.3069718,19.9801371 59.4586918,21.2690374 60.2321879,20.3045065 C61.005684,19.3391958 61.6676781,12.5165236 63.0828953,12.0135952 C64.4988922,11.5114465 70.3624916,10.2911628 70.3624916,10.2911628" id="Fill-5" fill="#8776B5"></path>
                <path d="M27.9491743,0.96406308 C29.5452897,0.532090461 38.8467362,-0.669479586 46.8132782,1.87089369 C54.7813796,4.41126696 66.1070155,8.63040747 68.3386141,9.37973181 C70.5702128,10.1290562 71.9862096,9.62612774 71.9862096,9.62612774 C71.9862096,9.62612774 69.9518837,10.9321821 67.9089807,11.7633786 C65.8660777,12.594575 63.0793085,15.9731623 63.0793085,15.9731623 C63.0793085,15.9731623 55.3505854,9.31033549 54.226209,8.53995832 C53.1033921,7.76958116 43.2148059,4.15707368 41.1625461,4.51341211 C39.1102863,4.8689708 35.9531435,5.4038683 33.7394787,5.60425993 C31.525814,5.80543129 30.4053363,5.19334013 32.6104239,4.51809051 C34.8147319,3.84206116 35.913377,3.34615036 38.1208039,2.82918673 C40.3282308,2.31144338 39.354343,1.06308929 36.508314,1.27517693 C33.6607256,1.48882404 28.2867991,2.06582718 27.181916,2.24594572 C26.077033,2.4245048 23.8742845,3.25882015 23.2481582,3.58708815 C22.6204723,3.91613589 26.0583194,1.47478883 27.9491743,0.96406308" id="Fill-7" fill="#6557A4"></path>
                <path d="M51.2216601,21.2150798 C51.2216601,21.2150798 49.9093678,27.152754 49.4641398,28.7449707 C49.0196914,30.3371875 48.4161773,31.9325232 48.7608197,33.351639 C49.1039027,34.7707549 50.6454367,32.5243413 50.779551,31.2541547 C50.9136652,29.9847478 52.7647536,27.4155243 53.3955584,27.2447626 C54.0263632,27.0747806 55.263801,28.6490635 56.7289211,27.6564621 C59.8564341,25.5379249 62.8474936,19.517599 62.7352119,18.6723673 C62.6283884,17.8723603 61.673994,19.8131181 58.473186,23.5846913 C57.3113824,24.9531245 51.2216601,21.2150798 51.2216601,21.2150798" id="Fill-9" fill="#6557A4"></path>
            </g>
            <g id="expressionFlower3" transform="translate(45.933445, 96.838457) rotate(50.000000) translate(-45.933445, -96.838457) translate(15.433445, 63.338457)">
                <path d="M52.1842903,0.372776549 C51.178512,0.768266561 49.3200718,2.15574712 48.6705974,4.81169839 C48.0218486,7.46764967 48.0312823,9.45743611 47.1517706,10.3456559 C46.2729845,11.235327 37.2572636,20.3446593 36.3712208,20.1284097 C35.4859037,19.9121602 32.3880196,19.2648627 31.0716547,21.2611802 C29.7567411,23.2574977 27.9657882,19.0667549 26.1937026,18.1923229 C24.4201658,17.3171651 21.0893416,14.4602034 17.1264591,17.5755036 C13.1643023,20.6908038 13.1918778,25.9961753 13.1969575,27.1013703 C13.2027628,28.2065654 12.9959469,30.8603396 14.1062216,31.9597293 C15.2179477,33.059119 18.1003079,34.8130628 15.2266557,34.8275761 C12.3530035,34.8428152 11.0155942,32.6389562 7.92569241,33.5395123 C4.83579063,34.4393428 -0.0247453384,34.9073998 -7.25669746e-05,39.7701128 C0.0253258742,44.6328258 0.272053588,49.4948131 4.47948678,51.0201709 C8.68764565,52.5455287 11.1164623,52.0912594 14.6511996,51.6304591 C18.1852113,51.1703845 18.4087176,51.6108661 17.3071509,52.2799336 C16.2055842,52.9490011 13.7796703,54.0665325 11.8007689,56.0664783 C9.82114179,58.0664241 8.06356966,60.0649186 9.62230828,62.2673263 C11.1810469,64.469734 12.0765234,66.67577 15.1700535,66.438476 C18.2635836,66.201182 19.3557166,63.5430537 20.6778869,62.8732605 C22.0007828,62.2027417 24.2249606,64.8441796 25.7612035,62.6250815 C27.2967206,60.4067091 25.0609322,55.5556068 28.6000235,55.9793979 C32.1391149,56.4031891 32.5962868,59.2739386 35.4605053,57.490968 C38.3247238,55.7072718 42.7273621,52.1478617 42.0481353,49.0565085 C41.3689084,45.9651554 40.9189931,44.4202045 40.9153648,43.7569424 C40.9124621,43.0944059 49.7213672,36.8587258 50.5943479,34.6439817 C51.4673286,32.4292376 54.7705773,30.2007058 54.2872812,22.2459141 C53.8039852,14.2903966 52.6820997,10.9806169 53.5572575,9.20780572 C54.4324152,7.43426886 55.7640192,8.53293286 57.5237683,6.97637125 C59.2842431,5.41980964 61.9220526,2.53309539 58.5999365,1.22326149 C55.2770948,-0.0858467311 53.1907942,-0.0234391328 52.1842903,0.372776549" id="Fill-11" fill="#8776B5"></path>
                <path d="M18.778664,37.6831592 C18.778664,37.6831592 21.1878876,33.4699206 23.17332,32.5758955 C25.1580268,31.6811447 26.0426182,31.6767907 28.6971181,32.1049358 C31.3516181,32.533081 34.234704,34.2862991 34.234704,34.2862991 L29.1840425,40.7229897 C29.1840425,40.7229897 26.7465178,39.6315824 26.7530489,40.9573811 C26.7603056,42.2839054 26.3249037,43.611881 27.8713059,43.3825694 C29.4177082,43.1539834 30.3030253,43.370233 30.5207262,42.7062452 C30.7377015,42.0422573 30.5170978,42.042983 30.9546767,41.1562146 C31.3922556,40.2694461 35.7861859,35.1629081 35.7861859,35.1629081 C35.7861859,35.1629081 39.1046736,35.5874249 39.110479,36.6933456 C39.1155587,37.797815 39.3484987,40.0074794 38.4682613,40.6750955 C37.5872982,41.3434374 35.1555789,41.3557738 33.8384883,43.130762 C32.5213977,44.9064758 31.4365214,48.8904027 29.6731439,49.7844279 C27.9090408,50.6777273 25.9301394,52.6769475 24.8205903,51.7988871 C23.7103156,50.920101 22.155931,49.6022848 22.5906072,48.0522542 C23.0245577,46.5029493 24.5687829,46.053034 23.4585082,44.9536444 C22.3475078,43.8542547 22.1312582,44.7395718 20.1451002,45.4122676 C18.1589421,46.0864148 13.7497727,48.3193007 13.738162,46.1089106 C13.7265512,43.8985206 12.6184535,43.2410638 14.1612274,42.3492156 C15.7040013,41.4566419 17.4717328,41.4472081 17.6872567,40.3412875 C17.9027806,39.2353668 18.778664,37.6831592 18.778664,37.6831592" id="Fill-14" fill="#6557A4"></path>
                <path d="M56.6198015,0.813620921 C56.6198015,0.813620921 58.8788114,0.704044789 59.5711004,1.58428219 C60.2633893,2.4645196 60.8540845,2.65827342 59.7822702,4.43253595 C58.7111817,6.20679848 58.6197473,7.58266832 57.1473634,7.78658152 C55.6742538,7.99122039 55.0973464,8.10442487 54.2773395,8.6363408 C53.2033483,9.33443509 53.212782,11.0513697 53.3383229,12.129715 C53.4667664,13.2341843 53.5821479,14.2283519 53.5458644,14.1920684 C52.7280346,13.3829466 50.9719138,10.4722853 51.8405405,7.51953505 C52.7091672,4.56751052 52.6961052,2.01315301 56.6198015,0.813620921" id="Fill-16" fill="#6557A4"></path>
            </g>
            <g id="expressionFlower2" transform="translate(61.665935, 90.940717)">
                <g id="Group-3" transform="translate(0.000000, 1.000000)" fill="#8776B5">
                    <path d="M27.5561217,0.90675 C24.7003826,1.8662 25.0768174,2.860525 25.5706435,6.163575 C26.0644696,9.466625 25.9267304,11.473875 24.9805565,12.895225 C24.0343826,14.316575 16.4282087,18.605425 14.0631652,22.1588 C11.6981217,25.712175 10.0663826,32.80265 10.3105565,33.9822 C10.555513,35.160975 4.3509913,34.012425 2.45942609,36.855125 C0.567078261,39.697825 -0.84866087,42.5382 0.588991304,43.94715 C2.02664348,45.3561 7.53229565,49.577525 8.72264348,49.33495 C9.91377391,49.09315 12.3101217,51.4414 14.4427304,49.0699 C16.5761217,46.697625 17.2804696,44.569475 17.5285565,46.4566 C17.7766435,48.3445 16.3522957,49.5318 15.6463826,51.187975 C14.939687,52.844925 16.8703826,57.319775 19.9789043,59.192175 C23.0882087,61.06535 31.2046435,63.14855 33.101687,61.2498 C34.9987304,59.35105 34.9948174,58.6427 33.3137739,56.29135 C31.6327304,53.939225 29.4774261,52.0614 30.6669913,51.583225 C31.8565565,51.104275 32.8152522,52.043575 33.7762957,53.455625 C34.7373391,54.8669 36.6578609,57.454625 41.1852522,56.958625 C45.7118609,56.4634 47.8632522,57.6321 49.9880348,53.6083 C52.1120348,49.5845 55.4608174,51.69095 53.2929913,47.45325 C51.1251652,43.214775 51.1267304,43.45115 48.2600348,42.28555 C45.3925565,41.11995 43.0079478,40.895975 42.9930783,38.062575 C42.9782087,35.22995 41.0623826,33.587725 43.6692522,30.74115 C46.2769043,27.894575 49.3822957,29.0594 48.6442957,24.81395 C47.9070783,20.567725 47.8922087,17.7351 42.6479478,17.762225 C37.403687,17.788575 37.1837739,21.3311 35.7453391,19.92215 C34.307687,18.5132 31.2062087,14.97455 31.4237739,10.960825 C31.6405565,6.946325 34.9611652,6.7053 33.037513,3.646375 C31.1146435,0.58745 28.969513,0.599075 28.969513,0.599075 L27.5561217,0.90675 Z" id="Fill-1"></path>
                </g>
                <path d="M15.5014385,32.1663516 C16.3568438,30.2802372 20.3084447,31.2364246 21.2514052,31.2858559 C23.7587347,31.4179303 25.0371938,33.148027 25.0371938,33.148027 C25.0371938,33.148027 24.8434878,41.1489521 24.6110407,41.8564381 C24.3785936,42.5631517 22.0231296,43.5162497 23.678153,43.9781237 C25.3324016,44.4407701 26.2776865,44.6701624 26.9804516,43.7263328 C27.6839915,42.7809586 26.9750278,42.5492492 26.7340577,41.6100538 C26.4930875,40.670086 25.985578,33.8501065 26.9293132,33.8446999 C27.8730485,33.8400657 31.7184985,33.9644164 32.8419929,36.1672003 C33.4928448,37.4423743 35.9335395,40.6206547 36.6456025,41.3227342 C37.3568906,42.025586 39.4752586,40.8384615 40.4329407,43.4204765 C41.3906228,46.0040361 41.1674736,48.5937747 39.5170991,48.8370695 C37.8659498,49.0803644 34.7976479,49.0965841 33.615267,48.6323929 C32.432886,48.1682018 31.4868263,47.9380371 30.309869,48.4138137 C29.132137,48.8903627 28.6548456,47.9519397 27.9582791,50.0736253 C27.2609378,52.1945385 25.1518677,55.0291167 23.7285165,53.6241855 C22.3043906,52.2200266 20.8973107,53.8744316 20.4130459,51.5241261 C19.9280063,49.1745929 20.8624437,47.2869337 20.8554702,45.8750512 C20.847722,44.4639411 20.1286856,42.3499791 18.716182,43.0628716 C17.3044532,43.7757642 15.8904,44.2538579 15.6471053,42.8435201 C15.4038107,41.4331823 15.1442447,36.9642806 15.1442447,36.9642806 C15.1442447,36.9642806 14.6460331,34.0532383 15.5014385,32.1663516" id="Fill-4" fill="#6557A4"></path>
                <g id="Group-8" transform="translate(10.000000, 0.000000)">
                    <mask id="mask-2" fill="white">
                        <use xlink:href="#path-1"></use>
                    </mask>
                    <g id="Clip-7"></g>
                    <path d="M25.7439394,20.9834429 C24.5455758,21.2285857 24.0854545,25.0605143 21.9093333,21.9608714 C19.7332121,18.8604429 15.8655152,15.7293714 14.9113939,16.9315143 C13.9580606,18.1328714 12.538303,19.8551571 11.3470303,21.5365857 C10.1557576,23.2188 6.604,24.4476571 5.89254545,26.1267286 C5.18109091,27.8058 5.15272727,30.4245857 3.95830303,31.3878714 C2.76309091,32.3519429 0.445151515,32.6654429 0.485333333,32.4305143 C1.20939394,28.1719429 3.67309091,22.7733 5.34575758,21.3283714 C7.01763636,19.8842286 11.8087273,15.1118 12.7652121,14.3889429 C13.721697,13.6660857 15.3667879,10.0274429 15.1217576,9.07122857 C14.8767273,8.11501429 13.8871515,2.37615714 15.3242424,1.8898 C16.7621212,1.40422857 19.1541212,-0.0446285714 21.0820606,1.38144286 C23.0092121,2.80751429 24.6826667,1.60222857 24.4604848,4.95487143 C24.2375152,8.30594286 22.0487879,9.84672857 21.8147879,11.0449429 C21.5815758,12.2423714 22.8547879,16.1190857 23.3409091,17.3125857 C23.8270303,18.5076571 25.7439394,20.9834429 25.7439394,20.9834429" id="Fill-6" fill="#6557A4" mask="url(#mask-2)"></path>
                </g>
            </g>
            <g id="Page-1" transform="translate(219.317286, 85.388735) rotate(-90.000000) translate(-219.317286, -85.388735) translate(173.317286, 26.388735)">
                <path d="M16.2031652,31.5489217 C17.4518858,30.0620725 17.4518858,27.5829964 22.4467681,27.5829964 C27.4412749,27.5829964 29.688972,25.1046658 29.688972,29.0705912 C29.688972,33.0361437 32.0831355,34.8584566 31.5836473,38.8243819 C31.0845346,42.7903073 28.4402514,43.1988274 31.936669,43.4466977 C35.4330867,43.6945681 38.180272,40.7197513 39.6787367,45.9250283 C41.1772014,51.1303053 43.674267,54.3529924 39.6787367,55.5919713 C35.6828308,56.831323 32.1864132,59.3100263 30.1884602,57.0791933 C28.1905073,54.8483603 27.691019,52.6175273 25.9431858,54.105122 C24.1949769,55.5919713 23.1960005,57.3270636 25.1935779,57.574934 C27.1915308,57.8228043 29.9387161,58.5664153 28.9401152,61.2929889 C27.9407632,64.0191899 25.6934416,67.4897473 23.4457446,66.2503956 C21.1980475,65.0106712 15.4539328,64.7628009 14.2052122,62.7802109 C12.9564916,60.7972483 12.7067475,56.5834526 10.459426,56.087712 C8.21172895,55.5919713 10.459426,57.574934 6.96263281,57.574934 C3.46659071,57.574934 5.46454365,57.0791933 2.21787012,56.5834526 C-1.02880341,56.087712 -0.0298269399,56.087712 0.969149532,52.6175273 C1.968126,49.1477154 4.46556718,47.412623 4.46556718,45.9250283 C4.46556718,44.4381791 1.71838189,46.420769 0.969149532,44.6860494 C0.219917178,42.9509571 -0.0298269399,42.4552164 1.71838189,41.2158647 C3.46659071,39.9765131 4.21582306,40.2243834 4.21582306,36.5063284 C4.21582306,32.7882734 -0.0298269399,31.7967921 5.71428777,31.3014241 C11.4580269,30.8056835 13.2062358,29.5663318 13.9554681,30.8056835 C14.7047005,32.0446624 16.2031652,31.5489217 16.2031652,31.5489217" id="Fill-1" fill="#6556A4"></path>
                <g id="Group-5" transform="translate(54.709091, 8.045455)">
                    <mask id="mask-4" fill="white">
                        <use xlink:href="#path-3"></use>
                    </mask>
                    <g id="Clip-4"></g>
                    <path d="M4.94908589,38.6168963 C4.94908589,38.6168963 1.66052431,28.8687204 2.43434774,24.3845747 C3.20817117,19.9004289 9.01147089,15.6114437 9.20511475,14.4416171 C9.39838261,13.2717906 11.1392973,11.127298 11.3329412,8.39808157 C11.526209,5.66848622 8.62455918,2.74410924 10.9460295,1.76944323 C13.2674998,0.794398271 16.942597,-2.5199209 16.942597,6.25358898 C16.942597,15.0267199 15.2020583,14.8315593 16.5560613,17.3663731 C17.9100643,19.9004289 20.6184463,23.0203454 21.0053581,26.3346646 C21.3918938,29.6486048 21.5855376,32.1830396 21.3918938,32.962924 C21.1986259,33.7431873 22.359361,33.1580845 26.4217461,32.7681423 C30.4841311,32.3782001 31.0643106,31.7934763 31.6448662,35.4977377 C32.2250458,39.2019991 30.4841311,43.101042 28.7432163,45.2455346 C27.0019256,47.3900272 28.5495725,47.5851878 31.2579545,48.5598538 C33.9659605,49.5348988 35.5136073,49.924841 36.0941629,52.8492179 C36.6743425,55.7735949 35.3199635,58.3080297 32.9988692,59.8677985 C30.6773989,61.4271883 27.5824812,63.1821176 25.2610109,62.0122911 C22.9395406,60.8424645 20.4248025,58.5031903 19.0707995,59.088293 C17.7167965,59.6726379 17.5231526,58.1128691 19.2640673,61.6223489 C21.0053581,65.1318286 20.8117142,68.83609 17.9100643,69.0308716 C15.0084145,69.2256532 12.4936763,70.2006982 10.5591178,69.2256532 C8.62455918,68.2509872 10.172206,66.6915974 9.01147089,65.1318286 C7.85073575,63.5720598 7.07691231,65.1318286 4.75581803,63.5720598 C2.43434774,62.0122911 2.6279916,61.8175094 4.17526246,59.2826957 C5.72290932,56.7486399 6.88364446,55.3836527 3.78872675,55.3836527 C0.693433027,55.3836527 -0.467302118,48.5598538 0.886700881,46.8053034 C2.24070388,45.050753 5.72290932,41.9312155 5.52926545,40.7613889 C5.3359976,39.5915623 4.94908589,38.6168963 4.94908589,38.6168963" id="Fill-3" fill="#8775B5" mask="url(#mask-4)"></path>
                </g>
                <path d="M70.0878906,53.7946163 C69.8915781,52.4073227 69.1055643,46.0331672 69.3018768,46.06706 C70.2708355,46.2319022 73.8212651,45.8687102 78.144341,50.6240998 C82.4670349,55.3794893 85.0213888,54.9831748 84.8246944,57.5590269 C84.6283819,60.1352641 86.2004095,63.1074307 84.4320694,64.0980245 C82.6633474,65.0886184 79.3229798,67.8628203 76.9653203,64.8910388 C74.6072789,61.918487 76.1793065,60.1352641 74.0179595,59.1446702 C71.8562306,58.1536913 70.4808974,57.1630974 71.0702168,60.7295433 C71.6599181,64.2963744 72.052925,67.2681559 70.4808974,67.2681559 C68.9088699,67.2681559 62.6711744,68.6284892 62.2281345,65.6832828 C61.7912056,62.7773611 61.6388151,60.9278932 62.6211414,59.9369142 C63.6034677,58.9463204 66.0218542,54.7570945 65.3718078,53.3979165 C64.1404625,50.8224496 62.667737,51.0084748 60.655725,51.9447632 C58.3851458,53.001602 55.3396288,60.1398858 54.979086,58.990227 C53.5701429,54.4990471 58.1342172,51.7467984 58.1342172,51.7467984 C58.1342172,51.7467984 59.0512333,50.8879243 60.5575688,48.576282 C62.0914033,46.2226588 67.3693064,45.04681 68.0246998,45.8348174 C68.8764057,46.8585337 69.5310353,53.3979165 69.2690307,53.8604761 C68.5548199,55.1210568 69.361076,55.6321447 69.6620376,55.6109617 C71.0377527,55.5115942 70.0878906,53.7946163 70.0878906,53.7946163" id="Fill-6" fill="#6556A4"></path>
                <path d="M67.6706144,8.70416205 C68.184359,8.70416205 69.3402842,8.05738929 69.5971565,9.7380185 C69.8540287,11.4186477 70.8815178,14.2631664 69.7255926,16.0730747 C68.5696674,17.8829831 67.9274867,17.8829831 67.4137422,20.3389104 C66.8999976,22.7955916 66.6431254,21.8902605 65.4872002,26.6739667 C64.331275,31.456919 64.2028388,33.784321 64.4597111,35.8524108 C64.7165834,37.9212544 63.8175304,41.1532337 63.5606582,38.9554878 C63.3037859,36.7577419 62.7900413,32.8793668 63.1753497,31.3276399 C63.5606582,29.7762898 64.9734556,25.7686356 63.9459666,25.6397333 C62.9184775,25.5104541 61.3772439,27.0618042 60.2213187,29.5181084 C59.0653935,31.9740357 57.9094682,34.3014377 57.652596,35.206015 C57.3957237,36.1113461 56.4966708,33.2672043 57.0104153,31.5865751 C57.5241598,29.9059459 60.9919355,24.7344022 61.7625523,24.2172855 C62.5331691,23.7005458 65.4872002,19.9514498 65.7440724,17.4947687 C66.0009447,15.0388414 65.2303279,13.4871144 65.1018918,12.8410955 C64.9734556,12.1946996 64.101363,10.8027813 65.8219579,9.55974139 C67.5421783,8.31632454 67.6706144,8.70416205 67.6706144,8.70416205" id="Fill-8" fill="#6556A4"></path>
                <path d="M60.6382454,45.90402 C60.6382454,45.90402 62.9997551,44.5239973 64.4429,42.5157935 C65.8860449,40.5079556 65.8860449,38.1236481 69.2971146,38.1236481 C72.7081842,38.1236481 74.1513291,37.7471785 74.938499,39.253057 C75.725669,40.7589354 76.1192539,42.3903037 74.5449141,42.3903037 C72.9705742,42.3903037 73.1017692,41.6377303 70.0842845,41.7632202 C67.0667998,41.8883442 65.6236549,41.5118746 64.4429,43.2690986 C63.2621451,45.0259568 62.4749752,46.7824491 61.4254153,46.657325 C60.3758554,46.5318352 60.6382454,45.90402 60.6382454,45.90402" id="Fill-10" fill="#6556A4"></path>
                <path d="M51.6487512,69.3074158 C51.6487512,69.3074158 46.8125279,76.0821638 46.425615,76.8564853 C46.0390781,77.6308067 45.8454337,78.9860573 45.2648763,78.9860573 C44.684695,78.9860573 41.7830362,77.8245752 40.8155659,78.9860573 C39.8484717,80.1475394 38.1075516,83.2444488 38.4944645,85.3736446 C38.8813774,87.5028404 39.8484717,88.858091 38.8813774,91.180679 C37.9142832,93.5036433 34.8189799,95.4390706 33.8515097,95.6328391 C32.8844154,95.8262313 28.435105,95.8262313 29.0156624,101.052713 C29.5958437,106.279194 32.304234,108.214998 35.3991613,108.602158 C38.4944645,108.989319 40.429029,108.602158 42.1699491,107.053516 C43.9108692,105.504873 46.0390781,106.085802 44.2977821,107.634069 C42.556862,109.182711 41.2028548,110.731354 41.0092104,112.473766 C40.8155659,114.215424 38.8813774,116.538389 42.1699491,117.118942 C45.4585208,117.699871 50.681657,118.667584 52.80949,117.31271 C54.9373229,115.957836 56.2917061,117.118942 56.678243,115.183514 C57.0651559,113.247711 56.2917061,111.505676 57.0651559,109.763264 C57.8389817,108.021606 58.2258946,108.602158 60.547372,109.182711 C62.8688495,109.763264 67.1245154,109.182711 68.0916097,107.247284 C69.0590799,105.311104 70.8,103.569445 70.8,101.439873 C70.8,99.3106777 70.0261742,96.6005527 67.3177839,97.7620348 C64.6097695,98.923517 62.675205,99.1172854 63.8359437,97.3752504 C64.9966824,95.6328391 68.4785226,92.9230903 68.4785226,92.9230903 C68.4785226,92.9230903 69.2523484,93.6970355 68.4785226,89.0514832 C67.7050728,84.405931 67.8923251,79.6407314 62.675205,79.1790733 C58.1051958,78.7749813 59.4524348,74.3382475 59.3866333,74.3401288 C59.3866333,74.3401288 58.4195391,66.5972908 58.6128075,64.468095 C58.806452,62.3388993 64.0292122,61.1774171 60.7410165,59.6283981 C57.4524448,58.0801315 56.2917061,57.8867392 55.5178803,60.2093272 C54.7440545,62.5322915 55.9044172,61.3708094 55.1309674,63.8875421 C54.3571416,66.4035223 51.6487512,69.3074158 51.6487512,69.3074158" id="Fill-12" fill="#8775B5"></path>
                <path d="M44.2037323,90.3967651 C44.978387,89.4214123 50.4005936,88.0554634 51.7560511,88.6409784 C53.1118851,89.2261142 51.7560511,92.9329857 51.7560511,92.9329857 C51.7560511,92.9329857 51.949903,96.4445591 51.1752483,96.8351553 C50.4005936,97.2253722 48.8512841,98.200725 49.8194143,98.5905627 C50.7879209,98.9811589 53.1118851,99.9565117 53.1118851,98.9811589 C53.1118851,98.0054269 52.5307058,98.3960231 52.5307058,97.0300741 C52.5307058,95.6645044 52.5307058,89.6163312 53.3053605,89.8116293 C54.0800152,90.0065481 57.5659614,90.5920632 59.1148945,91.762714 C60.6642039,92.9329857 63.5689708,95.6645044 63.5689708,96.6398572 C63.5689708,97.61521 64.1501501,98.7858608 63.5689708,99.9565117 C62.988168,101.127163 61.8261859,102.883328 59.6960737,102.492732 C57.5659614,102.102515 57.9529124,99.9565117 56.016652,100.931864 C54.0800152,101.907596 54.85467,102.297813 54.0800152,105.029332 C53.3053605,107.760472 53.6926879,109.906475 50.4005936,109.321339 C47.1084992,108.735824 44.978387,110.297071 44.7845351,107.565174 C44.5910596,104.834034 47.4958266,102.883328 46.3338445,101.322461 C45.1718625,99.7612136 45.7530417,101.322461 42.6544229,101.51738 C39.555804,101.712678 37.8130191,102.102515 37.8130191,99.566674 C37.8130191,97.0300741 36.6514135,94.2985554 39.1688531,93.1279046 C41.6862927,91.9576329 44.2037323,90.3967651 44.2037323,90.3967651" id="Fill-14" fill="#6556A4"></path>
                <path d="M57.966109,80.1929524 C57.966109,80.1929524 55.0393293,81.7741005 53.8685415,82.3673672 C52.6977538,82.9602497 48.9904489,83.7514001 47.6247195,82.3673672 C46.2586108,80.9837186 44.8780901,79.9831573 45.0730318,79.1923911 C45.2683527,78.401625 47.1039901,75.7123284 48.8459493,72.6026732 C50.58715,69.4930179 52.8134293,67.1991044 53.2036919,66.6062219 C53.5939544,66.0133394 54.9600631,64.2339234 54.9600631,63.2456579 C54.9600631,62.2566238 54.7647422,62.0591244 55.1550048,60.4775921 C55.5452673,58.8960598 54.2588041,58.4476515 56.6000003,57.6572696 C58.9415758,56.8665035 60.5026261,55.0870875 60.8928887,57.6572696 C61.2831513,60.2270675 62.453939,60.0291839 60.8928887,61.8082156 C59.3318384,63.5876316 58.5513132,62.7968654 58.5513132,64.7737808 C58.5513132,66.7506962 58.9415758,70.7041427 59.1368967,71.890292 C59.3318384,73.0764412 59.2146458,74.767482 59.3178056,76.1611209 C59.4338604,77.7307417 61.5402922,78.7190073 60.6839143,79.1923911 C59.9682433,79.5877742 57.966109,80.1929524 57.966109,80.1929524" id="Fill-16" fill="#6556A4"></path>
                <path d="M47.9423568,6.22888754 C47.9423568,3.98468665 48.7429078,-1.21890416 51.0945266,0.26060328 C53.4461453,1.73973569 54.6970064,1.73973569 53.6963176,4.23408397 C52.6956287,6.72768219 49.1932178,10.2196198 48.6928734,10.9674367 C48.192529,11.7156287 49.9437344,11.4662314 50.9444233,16.4541779 C51.9451121,21.4417494 49.9437344,30.6694504 49.9437344,30.6694504 C49.9437344,30.6694504 54.9471786,32.1658343 56.4482118,33.9116156 C57.9492451,35.6573969 60.2004187,37.4031782 59.4499021,39.6473791 C58.6997617,41.89233 54.196662,41.144138 54.6970064,43.1393166 C55.1973508,45.1341202 55.1973508,44.8847229 56.698384,45.1341202 C58.1994173,45.3835175 60.8463521,44.8760971 61.2740901,46.8757761 C61.701452,48.8750801 61.9516242,51.3690533 61.2014838,52.8654373 C60.450591,54.3618213 58.6997617,57.3542141 57.6990729,58.1024061 C56.698384,58.8505981 56.8936312,61.1499289 53.9190272,60.1253372 C50.9444233,59.1003704 48.4427012,55.8582052 46.941668,55.8582052 C45.4406347,55.8582052 46.1911513,56.1076025 45.9409791,58.6012007 C45.6908069,61.095549 44.9406665,63.8385446 43.439257,64.0879419 C41.9386,64.3373392 41.9386,65.8340982 39.1867057,65.3353036 C36.4348114,64.8361339 33.6829172,66.0834955 31.9317117,61.843366 C30.1805063,57.6036114 29.930334,54.3618213 31.1811951,53.364232 C32.4320561,52.3666427 33.6829172,52.3666427 33.4327449,51.119656 C33.1825727,49.8726694 34.4334338,48.8750801 31.1811951,49.6232721 C27.9289564,50.371464 23.6764051,48.6256828 24.1767495,46.1317095 C24.6767177,43.6377363 24.9268899,42.1417273 26.4282993,41.144138 C27.9289564,40.1461737 30.6808507,39.1485844 30.6808507,38.4007675 C30.6808507,37.6525755 27.428612,28.6746468 30.4306785,22.1903164 C33.4327449,15.7059859 40.4375668,10.7184144 43.9396015,9.72082513 C47.4420124,8.72286079 47.9423568,6.22888754 47.9423568,6.22888754" id="Fill-18" fill="#8775B5"></path>
                <path d="M35.8608406,35.4922411 C37.855249,34.9870517 40.8468617,33.2192688 41.5947648,33.9770528 C42.342668,34.7344571 42.8412701,44.0800805 42.8412701,44.0800805 C42.8412701,44.0800805 40.0989585,44.3326752 40.8468617,45.8486232 C41.5947648,47.3641913 43.5891733,48.6267849 44.3370764,47.616786 C45.0846047,46.6064072 44.3370764,44.5852699 44.3370764,44.5852699 C44.3370764,44.5852699 42.342668,34.9870517 43.8384743,34.9870517 C45.3342807,34.9870517 47.8269163,34.7344571 49.0737965,37.0078092 C50.3199269,39.2811614 52.5636364,40.0389454 52.5636364,43.0700816 C52.5636364,46.1012179 52.5636364,50.142353 51.3171311,50.6475423 C50.0706258,51.1527317 46.830087,52.416085 46.0821838,51.1527317 C45.3342807,49.8897583 42.5919691,48.6267849 41.8440659,49.8897583 C41.0961627,51.1527317 41.8440659,55.1942466 38.6031522,53.9312732 C35.3622385,52.6686796 34.8636364,53.1734892 34.8636364,50.3949476 C34.8636364,47.616786 36.3594427,45.5960285 36.6087437,42.0597029 C36.8580448,38.5233773 35.8608406,35.4922411 35.8608406,35.4922411" id="Fill-20" fill="#6556A4"></path>
            </g>
            <g id="Page-1" transform="translate(476.317286, 54.593254)">
                <path d="M16.2031652,31.5489217 C17.4518858,30.0620725 17.4518858,27.5829964 22.4467681,27.5829964 C27.4412749,27.5829964 29.688972,25.1046658 29.688972,29.0705912 C29.688972,33.0361437 32.0831355,34.8584566 31.5836473,38.8243819 C31.0845346,42.7903073 28.4402514,43.1988274 31.936669,43.4466977 C35.4330867,43.6945681 38.180272,40.7197513 39.6787367,45.9250283 C41.1772014,51.1303053 43.674267,54.3529924 39.6787367,55.5919713 C35.6828308,56.831323 32.1864132,59.3100263 30.1884602,57.0791933 C28.1905073,54.8483603 27.691019,52.6175273 25.9431858,54.105122 C24.1949769,55.5919713 23.1960005,57.3270636 25.1935779,57.574934 C27.1915308,57.8228043 29.9387161,58.5664153 28.9401152,61.2929889 C27.9407632,64.0191899 25.6934416,67.4897473 23.4457446,66.2503956 C21.1980475,65.0106712 15.4539328,64.7628009 14.2052122,62.7802109 C12.9564916,60.7972483 12.7067475,56.5834526 10.459426,56.087712 C8.21172895,55.5919713 10.459426,57.574934 6.96263281,57.574934 C3.46659071,57.574934 5.46454365,57.0791933 2.21787012,56.5834526 C-1.02880341,56.087712 -0.0298269399,56.087712 0.969149532,52.6175273 C1.968126,49.1477154 4.46556718,47.412623 4.46556718,45.9250283 C4.46556718,44.4381791 1.71838189,46.420769 0.969149532,44.6860494 C0.219917178,42.9509571 -0.0298269399,42.4552164 1.71838189,41.2158647 C3.46659071,39.9765131 4.21582306,40.2243834 4.21582306,36.5063284 C4.21582306,32.7882734 -0.0298269399,31.7967921 5.71428777,31.3014241 C11.4580269,30.8056835 13.2062358,29.5663318 13.9554681,30.8056835 C14.7047005,32.0446624 16.2031652,31.5489217 16.2031652,31.5489217" id="Fill-1" fill="#6556A4"></path>
                <g id="Group-5" transform="translate(54.709091, 8.045455)">
                    <mask id="mask-6" fill="white">
                        <use xlink:href="#path-5"></use>
                    </mask>
                    <g id="Clip-4"></g>
                    <path d="M4.94908589,38.6168963 C4.94908589,38.6168963 1.66052431,28.8687204 2.43434774,24.3845747 C3.20817117,19.9004289 9.01147089,15.6114437 9.20511475,14.4416171 C9.39838261,13.2717906 11.1392973,11.127298 11.3329412,8.39808157 C11.526209,5.66848622 8.62455918,2.74410924 10.9460295,1.76944323 C13.2674998,0.794398271 16.942597,-2.5199209 16.942597,6.25358898 C16.942597,15.0267199 15.2020583,14.8315593 16.5560613,17.3663731 C17.9100643,19.9004289 20.6184463,23.0203454 21.0053581,26.3346646 C21.3918938,29.6486048 21.5855376,32.1830396 21.3918938,32.962924 C21.1986259,33.7431873 22.359361,33.1580845 26.4217461,32.7681423 C30.4841311,32.3782001 31.0643106,31.7934763 31.6448662,35.4977377 C32.2250458,39.2019991 30.4841311,43.101042 28.7432163,45.2455346 C27.0019256,47.3900272 28.5495725,47.5851878 31.2579545,48.5598538 C33.9659605,49.5348988 35.5136073,49.924841 36.0941629,52.8492179 C36.6743425,55.7735949 35.3199635,58.3080297 32.9988692,59.8677985 C30.6773989,61.4271883 27.5824812,63.1821176 25.2610109,62.0122911 C22.9395406,60.8424645 20.4248025,58.5031903 19.0707995,59.088293 C17.7167965,59.6726379 17.5231526,58.1128691 19.2640673,61.6223489 C21.0053581,65.1318286 20.8117142,68.83609 17.9100643,69.0308716 C15.0084145,69.2256532 12.4936763,70.2006982 10.5591178,69.2256532 C8.62455918,68.2509872 10.172206,66.6915974 9.01147089,65.1318286 C7.85073575,63.5720598 7.07691231,65.1318286 4.75581803,63.5720598 C2.43434774,62.0122911 2.6279916,61.8175094 4.17526246,59.2826957 C5.72290932,56.7486399 6.88364446,55.3836527 3.78872675,55.3836527 C0.693433027,55.3836527 -0.467302118,48.5598538 0.886700881,46.8053034 C2.24070388,45.050753 5.72290932,41.9312155 5.52926545,40.7613889 C5.3359976,39.5915623 4.94908589,38.6168963 4.94908589,38.6168963" id="Fill-3" fill="#8775B5" mask="url(#mask-6)"></path>
                </g>
                <path d="M70.0878906,53.7946163 C69.8915781,52.4073227 69.1055643,46.0331672 69.3018768,46.06706 C70.2708355,46.2319022 73.8212651,45.8687102 78.144341,50.6240998 C82.4670349,55.3794893 85.0213888,54.9831748 84.8246944,57.5590269 C84.6283819,60.1352641 86.2004095,63.1074307 84.4320694,64.0980245 C82.6633474,65.0886184 79.3229798,67.8628203 76.9653203,64.8910388 C74.6072789,61.918487 76.1793065,60.1352641 74.0179595,59.1446702 C71.8562306,58.1536913 70.4808974,57.1630974 71.0702168,60.7295433 C71.6599181,64.2963744 72.052925,67.2681559 70.4808974,67.2681559 C68.9088699,67.2681559 62.6711744,68.6284892 62.2281345,65.6832828 C61.7912056,62.7773611 61.6388151,60.9278932 62.6211414,59.9369142 C63.6034677,58.9463204 66.0218542,54.7570945 65.3718078,53.3979165 C64.1404625,50.8224496 62.667737,51.0084748 60.655725,51.9447632 C58.3851458,53.001602 55.3396288,60.1398858 54.979086,58.990227 C53.5701429,54.4990471 58.1342172,51.7467984 58.1342172,51.7467984 C58.1342172,51.7467984 59.0512333,50.8879243 60.5575688,48.576282 C62.0914033,46.2226588 67.3693064,45.04681 68.0246998,45.8348174 C68.8764057,46.8585337 69.5310353,53.3979165 69.2690307,53.8604761 C68.5548199,55.1210568 69.361076,55.6321447 69.6620376,55.6109617 C71.0377527,55.5115942 70.0878906,53.7946163 70.0878906,53.7946163" id="Fill-6" fill="#6556A4"></path>
                <path d="M67.6706144,8.70416205 C68.184359,8.70416205 69.3402842,8.05738929 69.5971565,9.7380185 C69.8540287,11.4186477 70.8815178,14.2631664 69.7255926,16.0730747 C68.5696674,17.8829831 67.9274867,17.8829831 67.4137422,20.3389104 C66.8999976,22.7955916 66.6431254,21.8902605 65.4872002,26.6739667 C64.331275,31.456919 64.2028388,33.784321 64.4597111,35.8524108 C64.7165834,37.9212544 63.8175304,41.1532337 63.5606582,38.9554878 C63.3037859,36.7577419 62.7900413,32.8793668 63.1753497,31.3276399 C63.5606582,29.7762898 64.9734556,25.7686356 63.9459666,25.6397333 C62.9184775,25.5104541 61.3772439,27.0618042 60.2213187,29.5181084 C59.0653935,31.9740357 57.9094682,34.3014377 57.652596,35.206015 C57.3957237,36.1113461 56.4966708,33.2672043 57.0104153,31.5865751 C57.5241598,29.9059459 60.9919355,24.7344022 61.7625523,24.2172855 C62.5331691,23.7005458 65.4872002,19.9514498 65.7440724,17.4947687 C66.0009447,15.0388414 65.2303279,13.4871144 65.1018918,12.8410955 C64.9734556,12.1946996 64.101363,10.8027813 65.8219579,9.55974139 C67.5421783,8.31632454 67.6706144,8.70416205 67.6706144,8.70416205" id="Fill-8" fill="#6556A4"></path>
                <path d="M60.6382454,45.90402 C60.6382454,45.90402 62.9997551,44.5239973 64.4429,42.5157935 C65.8860449,40.5079556 65.8860449,38.1236481 69.2971146,38.1236481 C72.7081842,38.1236481 74.1513291,37.7471785 74.938499,39.253057 C75.725669,40.7589354 76.1192539,42.3903037 74.5449141,42.3903037 C72.9705742,42.3903037 73.1017692,41.6377303 70.0842845,41.7632202 C67.0667998,41.8883442 65.6236549,41.5118746 64.4429,43.2690986 C63.2621451,45.0259568 62.4749752,46.7824491 61.4254153,46.657325 C60.3758554,46.5318352 60.6382454,45.90402 60.6382454,45.90402" id="Fill-10" fill="#6556A4"></path>
                <path d="M51.6487512,69.3074158 C51.6487512,69.3074158 46.8125279,76.0821638 46.425615,76.8564853 C46.0390781,77.6308067 45.8454337,78.9860573 45.2648763,78.9860573 C44.684695,78.9860573 41.7830362,77.8245752 40.8155659,78.9860573 C39.8484717,80.1475394 38.1075516,83.2444488 38.4944645,85.3736446 C38.8813774,87.5028404 39.8484717,88.858091 38.8813774,91.180679 C37.9142832,93.5036433 34.8189799,95.4390706 33.8515097,95.6328391 C32.8844154,95.8262313 28.435105,95.8262313 29.0156624,101.052713 C29.5958437,106.279194 32.304234,108.214998 35.3991613,108.602158 C38.4944645,108.989319 40.429029,108.602158 42.1699491,107.053516 C43.9108692,105.504873 46.0390781,106.085802 44.2977821,107.634069 C42.556862,109.182711 41.2028548,110.731354 41.0092104,112.473766 C40.8155659,114.215424 38.8813774,116.538389 42.1699491,117.118942 C45.4585208,117.699871 50.681657,118.667584 52.80949,117.31271 C54.9373229,115.957836 56.2917061,117.118942 56.678243,115.183514 C57.0651559,113.247711 56.2917061,111.505676 57.0651559,109.763264 C57.8389817,108.021606 58.2258946,108.602158 60.547372,109.182711 C62.8688495,109.763264 67.1245154,109.182711 68.0916097,107.247284 C69.0590799,105.311104 70.8,103.569445 70.8,101.439873 C70.8,99.3106777 70.0261742,96.6005527 67.3177839,97.7620348 C64.6097695,98.923517 62.675205,99.1172854 63.8359437,97.3752504 C64.9966824,95.6328391 68.4785226,92.9230903 68.4785226,92.9230903 C68.4785226,92.9230903 69.2523484,93.6970355 68.4785226,89.0514832 C67.7050728,84.405931 67.8923251,79.6407314 62.675205,79.1790733 C58.1051958,78.7749813 59.4524348,74.3382475 59.3866333,74.3401288 C59.3866333,74.3401288 58.4195391,66.5972908 58.6128075,64.468095 C58.806452,62.3388993 64.0292122,61.1774171 60.7410165,59.6283981 C57.4524448,58.0801315 56.2917061,57.8867392 55.5178803,60.2093272 C54.7440545,62.5322915 55.9044172,61.3708094 55.1309674,63.8875421 C54.3571416,66.4035223 51.6487512,69.3074158 51.6487512,69.3074158" id="Fill-12" fill="#8775B5"></path>
                <path d="M44.2037323,90.3967651 C44.978387,89.4214123 50.4005936,88.0554634 51.7560511,88.6409784 C53.1118851,89.2261142 51.7560511,92.9329857 51.7560511,92.9329857 C51.7560511,92.9329857 51.949903,96.4445591 51.1752483,96.8351553 C50.4005936,97.2253722 48.8512841,98.200725 49.8194143,98.5905627 C50.7879209,98.9811589 53.1118851,99.9565117 53.1118851,98.9811589 C53.1118851,98.0054269 52.5307058,98.3960231 52.5307058,97.0300741 C52.5307058,95.6645044 52.5307058,89.6163312 53.3053605,89.8116293 C54.0800152,90.0065481 57.5659614,90.5920632 59.1148945,91.762714 C60.6642039,92.9329857 63.5689708,95.6645044 63.5689708,96.6398572 C63.5689708,97.61521 64.1501501,98.7858608 63.5689708,99.9565117 C62.988168,101.127163 61.8261859,102.883328 59.6960737,102.492732 C57.5659614,102.102515 57.9529124,99.9565117 56.016652,100.931864 C54.0800152,101.907596 54.85467,102.297813 54.0800152,105.029332 C53.3053605,107.760472 53.6926879,109.906475 50.4005936,109.321339 C47.1084992,108.735824 44.978387,110.297071 44.7845351,107.565174 C44.5910596,104.834034 47.4958266,102.883328 46.3338445,101.322461 C45.1718625,99.7612136 45.7530417,101.322461 42.6544229,101.51738 C39.555804,101.712678 37.8130191,102.102515 37.8130191,99.566674 C37.8130191,97.0300741 36.6514135,94.2985554 39.1688531,93.1279046 C41.6862927,91.9576329 44.2037323,90.3967651 44.2037323,90.3967651" id="Fill-14" fill="#6556A4"></path>
                <path d="M57.966109,80.1929524 C57.966109,80.1929524 55.0393293,81.7741005 53.8685415,82.3673672 C52.6977538,82.9602497 48.9904489,83.7514001 47.6247195,82.3673672 C46.2586108,80.9837186 44.8780901,79.9831573 45.0730318,79.1923911 C45.2683527,78.401625 47.1039901,75.7123284 48.8459493,72.6026732 C50.58715,69.4930179 52.8134293,67.1991044 53.2036919,66.6062219 C53.5939544,66.0133394 54.9600631,64.2339234 54.9600631,63.2456579 C54.9600631,62.2566238 54.7647422,62.0591244 55.1550048,60.4775921 C55.5452673,58.8960598 54.2588041,58.4476515 56.6000003,57.6572696 C58.9415758,56.8665035 60.5026261,55.0870875 60.8928887,57.6572696 C61.2831513,60.2270675 62.453939,60.0291839 60.8928887,61.8082156 C59.3318384,63.5876316 58.5513132,62.7968654 58.5513132,64.7737808 C58.5513132,66.7506962 58.9415758,70.7041427 59.1368967,71.890292 C59.3318384,73.0764412 59.2146458,74.767482 59.3178056,76.1611209 C59.4338604,77.7307417 61.5402922,78.7190073 60.6839143,79.1923911 C59.9682433,79.5877742 57.966109,80.1929524 57.966109,80.1929524" id="Fill-16" fill="#6556A4"></path>
                <path d="M47.9423568,6.22888754 C47.9423568,3.98468665 48.7429078,-1.21890416 51.0945266,0.26060328 C53.4461453,1.73973569 54.6970064,1.73973569 53.6963176,4.23408397 C52.6956287,6.72768219 49.1932178,10.2196198 48.6928734,10.9674367 C48.192529,11.7156287 49.9437344,11.4662314 50.9444233,16.4541779 C51.9451121,21.4417494 49.9437344,30.6694504 49.9437344,30.6694504 C49.9437344,30.6694504 54.9471786,32.1658343 56.4482118,33.9116156 C57.9492451,35.6573969 60.2004187,37.4031782 59.4499021,39.6473791 C58.6997617,41.89233 54.196662,41.144138 54.6970064,43.1393166 C55.1973508,45.1341202 55.1973508,44.8847229 56.698384,45.1341202 C58.1994173,45.3835175 60.8463521,44.8760971 61.2740901,46.8757761 C61.701452,48.8750801 61.9516242,51.3690533 61.2014838,52.8654373 C60.450591,54.3618213 58.6997617,57.3542141 57.6990729,58.1024061 C56.698384,58.8505981 56.8936312,61.1499289 53.9190272,60.1253372 C50.9444233,59.1003704 48.4427012,55.8582052 46.941668,55.8582052 C45.4406347,55.8582052 46.1911513,56.1076025 45.9409791,58.6012007 C45.6908069,61.095549 44.9406665,63.8385446 43.439257,64.0879419 C41.9386,64.3373392 41.9386,65.8340982 39.1867057,65.3353036 C36.4348114,64.8361339 33.6829172,66.0834955 31.9317117,61.843366 C30.1805063,57.6036114 29.930334,54.3618213 31.1811951,53.364232 C32.4320561,52.3666427 33.6829172,52.3666427 33.4327449,51.119656 C33.1825727,49.8726694 34.4334338,48.8750801 31.1811951,49.6232721 C27.9289564,50.371464 23.6764051,48.6256828 24.1767495,46.1317095 C24.6767177,43.6377363 24.9268899,42.1417273 26.4282993,41.144138 C27.9289564,40.1461737 30.6808507,39.1485844 30.6808507,38.4007675 C30.6808507,37.6525755 27.428612,28.6746468 30.4306785,22.1903164 C33.4327449,15.7059859 40.4375668,10.7184144 43.9396015,9.72082513 C47.4420124,8.72286079 47.9423568,6.22888754 47.9423568,6.22888754" id="Fill-18" fill="#8775B5"></path>
                <path d="M35.8608406,35.4922411 C37.855249,34.9870517 40.8468617,33.2192688 41.5947648,33.9770528 C42.342668,34.7344571 42.8412701,44.0800805 42.8412701,44.0800805 C42.8412701,44.0800805 40.0989585,44.3326752 40.8468617,45.8486232 C41.5947648,47.3641913 43.5891733,48.6267849 44.3370764,47.616786 C45.0846047,46.6064072 44.3370764,44.5852699 44.3370764,44.5852699 C44.3370764,44.5852699 42.342668,34.9870517 43.8384743,34.9870517 C45.3342807,34.9870517 47.8269163,34.7344571 49.0737965,37.0078092 C50.3199269,39.2811614 52.5636364,40.0389454 52.5636364,43.0700816 C52.5636364,46.1012179 52.5636364,50.142353 51.3171311,50.6475423 C50.0706258,51.1527317 46.830087,52.416085 46.0821838,51.1527317 C45.3342807,49.8897583 42.5919691,48.6267849 41.8440659,49.8897583 C41.0961627,51.1527317 41.8440659,55.1942466 38.6031522,53.9312732 C35.3622385,52.6686796 34.8636364,53.1734892 34.8636364,50.3949476 C34.8636364,47.616786 36.3594427,45.5960285 36.6087437,42.0597029 C36.8580448,38.5233773 35.8608406,35.4922411 35.8608406,35.4922411" id="Fill-20" fill="#6556A4"></path>
            </g>
            <g id="expressionFlowerClumpFooter" transform="translate(240.317286, 32.990995)">
                <g id="Group-3">
                    <mask id="mask-8" fill="white">
                        <use xlink:href="#path-7"></use>
                    </mask>
                    <g id="Clip-2"></g>
                    <path d="M20.5511698,77.5193048 C19.383243,77.2285844 16.7554078,76.6484131 14.4195542,76.9387103 C12.0837007,77.2285844 10.9157739,77.2285844 9.74784714,80.1319798 C8.57992037,83.0349521 9.45586545,85.3569068 9.45586545,87.0991134 C9.45586545,88.8408967 7.99595698,91.1632746 5.36812174,90.8729773 C2.7402865,90.5826801 2.15632311,89.7117884 0.988396339,93.1953552 C-0.179530435,96.6789219 -0.471512128,99.0012997 0.988396339,99.5818942 C2.44830481,100.162489 3.03226819,100.743083 2.44830481,102.775164 C1.86434142,104.807244 1.28037803,107.710217 3.61623158,109.16128 C5.95208513,110.613189 8.87190206,112.064675 10.3318105,111.774378 C11.791719,111.484081 12.6676641,111.484081 14.7115359,108.581108 C16.7554078,105.678136 19.0912613,106.549028 18.7992796,108.000514 C18.5072979,109.452 16.4634261,110.032594 16.1714444,112.064675 C15.8794627,114.096756 16.1714444,116.419134 20.5511698,118.160917 C24.9308952,119.9027 26.6827854,122.515375 30.1865657,119.322106 C33.690346,116.128836 35.1502545,114.967647 35.1502545,113.515738 C35.1502545,112.064675 32.2304375,106.839325 32.2304375,106.839325 C32.2304375,106.839325 32.2304375,108.581108 35.4422362,108.871406 C38.6540348,109.16128 41.8658334,109.452 43.6177236,108.290811 C45.3696137,107.129622 46.5375405,104.22665 46.5375405,104.22665 C46.5375405,104.22665 48.2894307,105.678136 49.4573574,107.710217 C50.6252842,109.742297 54.4210462,112.064675 54.4210462,112.064675 C54.4210462,112.064675 53.2531195,111.774378 52.6691561,115.257945 C52.0851927,118.741511 52.3771744,123.09597 53.5451011,125.12805 C54.7130279,127.160131 57.6328449,129.192212 59.6767167,128.031023 C61.7205886,126.869834 63.4724787,121.354186 63.4724787,119.322106 C63.4724787,117.289602 60.5526618,111.774378 63.180497,114.096756 C65.8083323,116.419134 67.2682407,120.483295 70.4800394,121.64406 C73.691838,122.805673 77.1956183,122.515375 77.1956183,122.515375 C77.1956183,122.515375 75.1517465,125.417924 76.0276915,126.869834 C76.9036366,128.32132 76.0276915,130.063103 80.1154352,130.353401 C84.2031789,130.643698 91.2107396,129.192212 91.794703,127.450428 C92.3786664,125.708645 93.8385748,122.805673 93.8385748,120.773592 C93.8385748,118.741511 93.2546114,114.096756 93.2546114,114.096756 C93.2546114,114.096756 97.0503735,116.419134 98.8022636,116.709431 C100.554154,116.999728 104.641897,115.257945 104.641897,115.257945 C104.641897,115.257945 104.057934,118.741511 106.101806,120.192997 C108.145678,121.64406 111.357476,121.934781 111.357476,121.934781 C111.357476,121.934781 109.313605,130.063103 110.773513,130.643698 C112.233422,131.224292 116.321165,133.836967 118.073055,132.966076 C119.824946,132.095184 122.452781,129.772383 122.452781,129.772383 C122.452781,129.772383 129.752323,130.353401 130.92025,131.514589 C132.088177,132.675778 131.796195,134.127264 128.876378,134.998156 C125.956561,135.869048 123.036744,138.481723 123.620708,139.933209 C124.204671,141.384695 123.912689,143.126479 126.540524,143.416776 C129.16836,143.707073 131.504213,143.126479 131.504213,143.126479 C131.504213,143.126479 130.92025,144.577965 130.044305,145.158559 C129.16836,145.739154 128.292415,145.739154 128.000433,147.480937 C127.708451,149.22272 128.876378,152.41599 131.212232,151.545098 C133.548085,150.674207 133.840067,152.125693 133.840067,152.125693 C133.840067,152.125693 130.336286,152.41599 129.752323,155.899557 C129.16836,159.383123 127.41647,162.86669 129.460341,164.318176 C131.504213,165.769662 132.67214,168.09204 136.759884,167.801743 C140.847627,167.511446 145.811316,162.286096 146.103298,160.544312 C146.39528,158.802529 146.39528,155.899557 146.687261,155.028665 C146.979243,154.157773 150.483023,153.286882 150.483023,154.448071 C150.483023,155.609259 149.315097,154.448071 149.023115,158.802529 C148.731133,163.156987 146.687261,165.769662 149.89906,166.640554 C153.110859,167.511446 159.826438,168.672635 162.162291,167.511446 C164.498145,166.350257 166.833998,164.318176 167.417962,161.415204 C168.001925,158.512232 169.461833,159.963718 173.841559,159.383123 C178.221284,158.802529 181.725065,159.963718 182.017046,155.899557 C182.309028,151.835395 179.681193,146.900343 178.513266,144.577965 C177.345339,142.255587 179.389211,141.96529 178.513266,137.900705 C177.637321,133.836967 177.053357,136.449642 176.469394,126.869834 C175.885431,117.289602 176.469394,112.935567 171.213724,107.419919 C165.958053,101.904272 164.790126,101.323678 163.330218,102.194569 C161.870309,103.065461 165.082108,100.743083 168.87787,99.0012997 C172.673632,97.2590932 172.673632,95.2274358 172.965614,93.4852292 C173.257595,91.743869 182.309028,93.1953552 183.184973,89.7117884 C184.060918,86.2282217 186.688753,83.6155466 185.812808,78.9707909 C184.936863,74.3260353 183.476955,72.8741259 183.184973,68.2297935 C182.892991,63.5850378 183.184973,60.3917683 179.973174,60.3917683 C176.761376,60.3917683 172.673632,61.8432544 172.089669,62.7141461 C171.505705,63.5850378 174.425522,58.6499849 167.12598,57.7790932 C159.826438,56.9082015 157.782566,55.1664181 156.906621,59.2305793 C156.030676,63.2947406 153.110859,65.3268212 154.862749,68.5200907 C156.614639,71.7133602 158.074547,72.8741259 156.030676,73.1648463 C153.986804,73.4551436 151.942932,73.1648463 149.023115,72.0036574 C146.103298,70.8424685 144.059426,68.8103879 145.519335,66.1977128 C146.979243,63.5850378 149.315097,59.5208766 149.315097,59.5208766 C149.315097,59.5208766 147.855188,57.7790932 149.89906,54.2955264 C151.942932,50.8119597 153.110859,45.2963123 149.607078,47.0380957 C146.103298,48.7798791 146.979243,50.8119597 145.519335,54.0052292 C144.059426,57.1984987 142.599518,58.9402821 141.431591,59.5208766 C140.263664,60.101471 142.015554,53.714932 140.263664,51.6828514 C138.511774,49.6507708 137.927811,43.8448262 135.299975,43.554529 C132.67214,43.2642317 132.67214,42.1030428 128.292415,42.3933401 C123.912689,42.6836373 119.240982,44.7152947 119.532964,46.167204 C119.824946,47.6186902 120.116927,52.2634458 120.116927,52.2634458 C120.116927,52.2634458 118.365037,56.0373098 117.19711,54.2955264 C116.029184,52.5537431 115.737202,51.6828514 115.153238,47.9089874 C114.569275,44.1351234 112.233422,39.4903678 108.729641,39.2000705 C105.225861,38.9097733 100.262172,38.9097733 98.5102819,40.9414307 C96.7583918,42.9739345 95.590465,46.4575013 95.590465,46.4575013 C95.590465,46.4575013 93.8687945,48.368131 92.6859707,50.316 C91.5027213,52.2634458 89.4588494,50.2313652 79.2394902,49.0697531 C69.0201309,47.9089874 65.8083323,45.5866096 61.7205886,48.4895819 C57.6328449,51.3925542 59.6767167,51.9731486 55.588973,53.714932 C51.5012293,55.4567154 47.4134856,55.1664181 47.1215039,56.9082015 C46.8295222,58.6499849 45.9535771,61.5529572 45.9535771,61.5529572 C45.9535771,61.5529572 43.9097053,59.5208766 43.0337602,57.488796 C42.1578151,55.4567154 44.201687,53.4246348 38.6540348,52.5537431 C33.1063826,51.6828514 28.1426938,49.3604736 26.6827854,52.5537431 C25.2228769,55.7470126 23.179005,58.9402821 24.6389135,60.9719395 C26.098822,63.0044433 27.2667487,64.7458035 28.1426938,65.6171184 C29.0186389,66.4880101 29.894584,68.5200907 28.4346755,67.9394962 C26.974767,67.3589018 27.8507121,65.9074156 24.9308952,65.6171184 C22.0110783,65.3268212 17.3393712,64.4559295 17.3393712,67.9394962 C17.3393712,71.423063 18.5072979,75.196927 18.5072979,75.196927 L20.5511698,77.5193048 Z" id="Fill-1" fill="#6556A4" mask="url(#mask-8)"></path>
                </g>
                <path d="M72.0740974,14.151283 C72.0740974,14.151283 66.621974,21.7533366 66.1857872,22.6217447 C65.7496004,23.4909971 65.5317189,25.011239 64.8772267,25.011239 C64.2231584,25.011239 60.9519691,23.7079936 59.8612901,25.011239 C58.771035,26.3144843 56.8084062,29.7893831 57.244593,32.1788774 C57.680356,34.5679495 58.771035,36.0881913 57.680356,38.6946821 C56.5901009,41.3011728 53.1010301,43.4728263 52.0103511,43.6902449 C50.920096,43.9072414 45.9041594,43.9072414 46.5586516,49.7716345 C47.2127199,55.6360276 50.2660277,57.807681 53.7550984,58.2420961 C57.244593,58.6769334 59.4255272,58.2420961 61.388156,56.5048578 C63.3507848,54.7671973 65.7496004,55.4186089 63.7869716,57.1562694 C61.8243428,58.8939299 60.297477,60.6315904 60.0795955,62.5866695 C59.8612901,64.5409043 57.680356,67.1473951 61.388156,67.7988067 C65.0955321,68.4506404 70.9838423,69.5364672 73.3826579,68.0162253 C75.7814735,66.4955613 77.3079155,67.7988067 77.7441023,65.6271532 C78.1802891,63.4550776 77.3079155,61.4999985 78.1802891,59.5453415 C79.0526628,57.5911067 79.4888496,58.2420961 82.1059706,58.8939299 C84.7226677,59.5453415 89.5207228,58.8939299 90.6109779,56.7218543 C91.7016569,54.5497787 93.6642857,52.5955439 93.6642857,50.2060496 C93.6642857,47.8169775 92.7919121,44.7760716 89.7386043,46.079317 C86.6857203,47.3825624 84.5047862,47.5995589 85.8133467,45.6449019 C87.1219072,43.6902449 91.0471647,40.6497612 91.0471647,40.6497612 C91.0471647,40.6497612 91.9195384,41.5181693 91.0471647,36.30561 C90.1747911,31.0926285 90.3863141,25.7462406 84.5047862,25.2282354 C79.3527797,24.7748226 80.8711676,19.7965688 80.7974101,19.7986796 C80.7974101,19.7986796 79.7067311,11.1107994 79.9250365,8.72172726 C80.1433418,6.332233 86.0312282,5.0294098 82.3238521,3.29132713 C78.616476,1.55408881 77.3079155,1.33667016 76.4359657,3.9431609 C75.5631682,6.54965165 76.8717287,5.24640628 75.999355,8.06989349 C75.1274052,10.8933807 72.0740974,14.151283 72.0740974,14.151283" id="Fill-4" fill="#8775B5"></path>
                <path d="M64.0373296,37.8158834 C64.9184124,36.7364836 71.085564,35.2248201 72.6272448,35.8723761 C74.1693538,36.5203518 72.6272448,40.6222392 72.6272448,40.6222392 C72.6272448,40.6222392 72.8477296,44.5088342 71.9666468,44.9410978 C71.085564,45.372522 69.3238265,46.4523416 70.4249659,46.8837658 C71.5261054,47.3160293 74.1693538,48.3954292 74.1693538,47.3160293 C74.1693538,46.2362098 73.5087558,46.6680537 73.5087558,45.1568099 C73.5087558,43.6455661 73.5087558,36.951776 74.3898386,37.1679078 C75.2704933,37.3840396 79.235366,38.0320152 80.9975316,39.3271272 C82.7592691,40.6222392 86.0635437,43.6455661 86.0635437,44.724966 C86.0635437,45.8043659 86.7241418,47.0998976 86.0635437,48.3954292 C85.4025175,49.6909609 84.0808933,51.6340486 81.6581296,51.2022047 C79.235366,50.7703608 79.6759074,48.3954292 77.4732003,49.4748291 C75.2704933,50.5546487 76.1515761,50.9864926 75.2704933,54.0089801 C74.3898386,57.0318873 74.8299519,59.4068189 71.085564,58.7588432 C67.3411761,58.1112872 64.9184124,59.8390825 64.6979276,56.8157556 C64.477871,53.793268 67.7817175,51.6340486 66.4600933,49.9070927 C65.1388972,48.1792974 65.7994952,49.9070927 62.2751639,50.1228048 C58.7512608,50.3385169 56.7686104,50.7703608 56.7686104,47.9635853 C56.7686104,45.1568099 55.4474143,42.1339027 58.3107194,40.838371 C61.1740245,39.5428393 64.0373296,37.8158834 64.0373296,37.8158834" id="Fill-6" fill="#6556A4"></path>
                <path d="M79.5433651,26.4972388 C79.5433651,26.4972388 76.2692782,28.2520644 74.9595586,28.9104971 C73.649839,29.5685034 69.5026057,30.4461294 67.9748116,28.9104971 C66.4470176,27.3748648 64.9022527,26.2643993 65.1207515,25.3867733 C65.3392502,24.5091472 67.392714,21.5244512 69.3409591,18.0732231 C71.2892041,14.6219951 73.7796654,12.076112 74.2158144,11.4181058 C74.6523876,10.759673 76.1806059,8.78480127 76.1806059,7.68798197 C76.1806059,6.59073623 75.9625315,6.37154295 76.3986804,4.61586448 C76.8352536,2.8610389 75.3961318,2.36337633 78.015571,1.48617676 C80.6350103,0.608550749 82.3808788,-1.36632101 82.817452,1.48617676 C83.2540252,4.33824808 84.5637448,4.11862836 82.817452,6.09307367 C81.0715835,8.06794542 80.1980128,7.19031941 80.1980128,9.383958 C80.1980128,11.5784495 80.6350103,15.9661531 80.8530847,17.2825921 C81.0715835,18.5990311 80.9400599,20.4753939 81.0554612,22.0225402 C81.1852877,23.764146 83.5416798,24.8613917 82.5836796,25.3867733 C81.7830832,25.8255863 79.5433651,26.4972388 79.5433651,26.4972388" id="Fill-8" fill="#6556A4"></path>
                <path d="M140.221968,0.239306066 C139.224348,0.625610099 137.376731,1.99001212 136.720301,4.61670936 C136.063447,7.24340661 136.063447,9.21321682 135.187924,10.0887826 C134.312401,10.9643483 125.338929,19.9386845 124.463406,19.7195804 C123.587883,19.5004762 120.523553,18.8435892 119.210268,20.8138248 C117.89741,22.783635 116.146364,18.6253359 114.395318,17.7493447 C112.644272,16.8742044 109.361274,14.028403 105.421846,17.0928831 C101.481993,20.1569378 101.481993,25.4103323 101.481993,26.5045767 C101.481993,27.5992466 101.263325,30.2255184 102.357516,31.3201883 C103.451707,32.4144328 106.297369,34.1655643 103.451707,34.1655643 C100.60647,34.1655643 99.2931856,31.9770754 96.2292808,32.8522157 C93.1649506,33.7277814 88.35,34.1655643 88.35,38.9811759 C88.35,43.7963621 88.568668,48.6115483 92.7271892,50.144001 C96.8857103,51.6760284 99.2931856,51.2382455 102.795277,50.8004626 C106.297369,50.3626798 106.516037,50.8004626 105.421846,51.4573497 C104.32723,52.1138113 101.919754,53.2080557 99.9500405,55.1782914 C97.9803267,57.1481016 96.2292808,59.1183372 97.7612332,61.3068262 C99.2931856,63.4957405 100.168709,65.6842295 103.233039,65.4651253 C106.297369,65.246872 107.39156,62.6201748 108.704844,61.9632878 C110.017703,61.3068262 112.206511,63.9335234 113.738888,61.7441836 C115.270841,59.5556947 113.082033,54.7405085 116.584125,55.1782914 C120.085791,55.6156488 120.523553,58.4614502 123.369215,56.7103187 C126.214452,54.9591872 130.591641,51.4573497 129.935211,48.3928695 C129.278357,45.3283894 128.841021,43.7963621 128.841021,43.1399005 C128.841021,42.4830135 137.595399,36.3544787 138.470922,34.1655643 C139.346445,31.9770754 142.629443,29.788161 142.191682,21.9084947 C141.754345,14.028403 140.659729,10.7452442 141.535252,8.99411266 C142.410775,7.24340661 143.724059,8.33765107 145.475105,6.80562373 C147.225726,5.27317095 149.852294,2.42822044 146.569296,1.11487181 C143.286298,-0.198476808 141.220013,-0.147423412 140.221968,0.239306066" id="Fill-10" fill="#8775B5"></path>
                <path d="M107.119056,36.8048171 C107.119056,36.8048171 109.557979,32.6762288 111.553853,31.8070078 C113.549296,30.9373645 114.436255,30.9373645 117.096702,31.3723974 C119.75758,31.8070078 122.639983,33.5450274 122.639983,33.5450274 L117.540613,39.846668 C117.540613,39.846668 115.101259,38.760353 115.101259,40.0641844 C115.101259,41.3680158 114.65778,42.6718472 116.210174,42.4543308 C117.762137,42.2368144 118.649097,42.4543308 118.870621,41.8026263 C119.092576,41.1504994 118.870621,41.1504994 119.314101,40.2812785 C119.75758,39.4120575 124.192377,34.4146707 124.192377,34.4146707 C124.192377,34.4146707 127.518259,34.8488588 127.518259,35.9351738 C127.518259,37.0219111 127.739784,39.1949635 126.853255,39.846668 C125.965865,40.4987949 123.526942,40.4987949 122.196503,42.2368144 C120.866064,43.9756787 119.75758,47.8867505 117.983662,48.7559715 C116.210174,49.6251924 114.2143,51.580306 113.105816,50.7115074 C111.997332,49.8422865 110.444938,48.5384551 110.888418,47.0175296 C111.331897,45.4961818 112.883861,45.0619937 111.775377,43.9756787 C110.666893,42.8889413 110.444938,43.7581622 108.449495,44.4098668 C106.454052,45.0619937 102.019255,47.2346236 102.019255,45.0619937 C102.019255,42.8889413 100.910771,42.2368144 102.462735,41.3680158 C104.014698,40.4987949 105.789048,40.4987949 106.010572,39.4120575 C106.232097,38.3257425 107.119056,36.8048171 107.119056,36.8048171" id="Fill-12" fill="#6556A4"></path>
                <path d="M144.464905,0.664644077 C144.464905,0.664644077 146.683207,0.56726711 147.357976,1.44238414 C148.033166,2.3179264 148.61178,2.5122551 147.550706,4.26248916 C146.490054,6.01272322 146.3939,7.37387464 144.947364,7.56820335 C143.500407,7.76253206 142.934023,7.87224061 142.126409,8.39484451 C141.068288,9.07945987 141.068709,10.7790919 141.186372,11.8468368 C141.306565,12.9405204 141.415372,13.925346 141.379103,13.8887765 C140.581189,13.0838219 138.871916,10.1935544 139.739415,7.2769229 C140.607758,4.35944091 140.607758,1.83146678 144.464905,0.664644077" id="Fill-14" fill="#6556A4"></path>
                <path d="M105.164122,68.172587 C104.505842,70.1372247 103.188855,73.6302912 101.432873,75.8134578 C99.6768906,77.9962 97.7016238,81.9258998 92.2143925,83.2357997 C86.7271611,84.5456997 83.4349077,85.4189663 80.1426542,86.7284419 C76.8504007,88.0383418 71.5828805,91.7495128 69.8268982,93.496046 C68.0709159,95.2425793 64.3396669,98.9537502 62.144689,99.1722791 C59.9501378,99.3899592 58.633151,98.7352214 59.2914311,96.9886882 C59.9501378,95.2425793 62.5836846,95.6792126 63.4616757,93.9326793 C64.3396669,92.1861461 65.875938,93.9326793 63.2423912,91.3128795 C60.6084178,88.6930796 59.7304267,89.1301372 59.9501378,85.6370708 C60.1694222,82.1444286 59.07172,80.1793665 61.4864089,79.5246287 C63.9006713,78.8694666 63.4616757,78.2147288 64.1199558,76.4681956 C64.7786624,74.7220867 66.0956491,72.9751291 68.7296226,73.1936579 C71.3631694,73.4121867 68.0709159,70.7923869 67.1929248,67.9540582 C66.3149336,65.1161538 65.217658,62.4967783 67.6319203,61.8416162 C70.0461827,61.1868784 72.0214494,59.8769784 73.3384361,62.060145 C74.6554228,64.2428872 75.533414,63.5881494 75.3141295,67.2993204 C75.0944184,71.0104914 74.8751339,71.883758 77.5086808,73.8483957 C80.1426542,75.8134578 84.9711788,75.8134578 87.8248634,75.8134578 C90.6781213,75.8134578 96.8236327,75.1582956 98.3599038,73.1936579 C99.8966017,71.2285958 98.799326,73.6302912 100.335597,68.6092203 C101.871868,63.5881494 101.652584,62.7148828 103.40814,63.5881494 C105.164122,64.461416 106.481109,63.8066782 106.261824,65.771316 C106.042113,67.7359537 105.164122,68.172587 105.164122,68.172587" id="Fill-16" fill="#8775B5"></path>
                <path d="M123.048764,57.8758456 C124.221669,57.582923 126.567479,56.7058608 126.567479,59.9233188 C126.567479,63.1407768 127.447158,63.1407768 130.086194,61.0933035 C132.72523,59.0454039 130.965872,56.7058608 135.657492,58.4608379 C140.349111,60.2153886 142.988147,63.1407768 142.988147,65.772816 C142.988147,68.4052817 137.123623,70.7456775 137.416849,73.9627091 C137.710075,77.1801671 140.349111,76.0101823 143.281374,79.2280667 C146.213636,82.4455247 148.559446,81.27554 145.040731,85.6629827 C141.522016,90.0504253 139.176207,93.5599531 135.950718,92.682891 C132.72523,91.804976 132.72523,92.0978986 129.206515,90.6354177 C125.6878,89.1725104 124.514896,90.3424951 125.981027,91.804976 C127.447158,93.2678833 132.432003,93.5599531 126.567479,96.4853413 C120.702955,99.4103031 116.891014,99.4103031 114.251978,95.3153566 C111.612942,91.2204101 113.079073,91.5129062 111.906168,88.8804406 C110.733263,86.247975 106.041644,85.6629827 105.748417,82.4455247 C105.455191,79.2280667 102.816155,75.1331202 105.455191,73.6706393 C108.094227,72.207732 111.906168,72.7927244 112.785847,71.9156622 C113.665525,71.0381737 109.853584,72.5006546 109.267132,70.1606851 C108.68068,67.8202893 108.387453,64.8957539 111.026489,62.2632883 C113.665525,59.6303963 116.597788,58.7533341 118.650371,58.4608379 C120.702955,58.1683417 123.048764,57.8758456 123.048764,57.8758456" id="Fill-18" fill="#8775B5"></path>
                <path d="M112.264286,69.5061572 C113.720412,68.3561482 118.671241,68.9311527 118.671241,68.9311527 C118.671241,68.9311527 119.544917,74.6811973 119.253691,76.1182894 C118.962466,77.5562196 117.215115,79.281233 118.088791,79.5687352 C118.962466,79.8558184 119.544917,81.0058273 120.418592,79.8558184 C121.292268,78.7062285 120.418592,78.4187263 120.418592,77.2682983 C120.418592,76.1182894 121.001043,69.5061572 121.001043,69.5061572 C121.001043,69.5061572 125.951872,70.6561661 126.534322,72.0936772 C127.116773,73.5311884 127.990449,74.3936951 130.029025,77.5562196 C132.067602,80.7187442 133.523728,82.1562553 130.320251,82.7312598 C127.116773,83.3062642 127.116773,83.3062642 125.369422,81.8687531 C123.62207,80.4308228 123.03962,79.8558184 122.748394,83.018762 C122.457169,86.1812866 124.495746,89.9188156 120.418592,88.1938022 C116.341439,86.4687888 116.050214,87.6187977 116.341439,84.7433563 C116.632664,81.8687531 116.92389,78.4187263 115.758989,76.1182894 C114.594088,73.8186906 112.264286,69.5061572 112.264286,69.5061572" id="Fill-20" fill="#6556A4"></path>
                <path d="M37.5471798,63.2236801 C39.2879344,60.8916945 42.189192,55.3532289 45.0904496,60.0171999 C47.9917072,64.681171 47.4114557,68.1791494 48.8620845,70.2196367 C50.3127133,72.2601241 50.0225875,71.3856295 53.7942224,71.9686259 C57.5658573,72.5516223 60.7572406,68.1791494 61.0473664,75.175106 C61.3374921,82.1710626 60.7572406,86.2516124 57.855983,86.8346088 C54.9547254,87.4180301 49.1522102,83.3370554 47.9917072,85.3775428 C46.8312041,87.4180301 48.5719587,87.7095283 49.1522102,91.4990048 C49.7324617,95.2884813 52.9238451,98.2030383 48.2818329,99.3690311 C43.6398208,100.535449 38.9978086,100.826947 36.096551,100.243951 C33.1952934,99.6609542 31.7446646,94.7054849 30.5841616,92.9564958 C29.4236585,91.2070817 25.9421494,93.8305654 22.4606403,93.247994 C18.9791312,92.6649976 14.337119,92.9564958 14.6272448,88.5840229 C14.9173705,84.21155 15.7877478,81.5880662 18.1087539,80.4220735 C20.42976,79.2556558 18.9791312,80.4220735 19.8495085,77.2155933 C20.7198857,74.0091132 19.2692569,71.0937064 22.4606403,69.0536439 C25.6520237,67.0131566 29.4236585,65.2641674 28.5532813,67.8876512 C27.682904,70.51071 27.3927782,72.8431205 29.1335328,72.2601241 C30.8742873,71.6771277 32.0347904,71.6771277 32.0347904,69.0536439 C32.0347904,66.4301602 37.5471798,63.2236801 37.5471798,63.2236801" id="Fill-22" fill="#8775B5"></path>
                <path d="M46.9728315,75.6921183 C44.9357143,75.6921183 42.3165637,75.1117865 39.1153795,74.8211976 C35.9141954,74.5314547 33.8770782,75.1117865 33.8770782,75.1117865 C33.8770782,75.1117865 34.168095,77.1429477 35.9141954,78.0130224 C37.6602958,78.8839431 40.5704632,79.173686 39.1153795,80.3347726 C37.6602958,81.4954361 37.0782624,82.0757679 36.2052121,80.9151044 C35.3321619,79.7544408 32.4219945,75.9822842 32.4219945,75.9822842 C32.4219945,75.9822842 28.6387769,77.7232795 26.8926765,78.3036113 C25.1465761,78.8839431 21.6543752,76.562616 22.8184421,79.7544408 C23.9825091,82.9458426 26.6016598,85.5573357 28.0567434,86.1376674 C29.5118271,86.7179992 32.4219945,87.0085881 33.004028,85.8479245 C33.5860615,84.687261 32.1309778,85.2675928 36.4962289,85.2675928 C40.86148,85.2675928 43.1896139,86.4282563 42.6075804,83.8167633 C42.0255469,81.2052702 40.2794465,78.8839431 42.3165637,79.7544408 C44.3536808,80.6249385 46.9728315,83.5261744 48.4279152,81.2052702 C49.8829989,78.8839431 51.3380826,77.4326906 49.8829989,76.8527818 C48.4279152,76.2724501 46.9728315,75.6921183 46.9728315,75.6921183" id="Fill-24" fill="#6556A4"></path>
                <path d="M89.4162909,73.6961556 C86.7747329,74.5713333 87.1170144,75.4945416 87.5572741,78.5561759 C87.9975338,81.6178102 87.8606211,83.4765533 86.9801018,84.7886823 C86.1000103,86.1008112 79.0558555,90.0367731 76.854985,93.316883 C74.6536866,96.597418 73.1129917,103.157638 73.3329076,104.250866 C73.5528235,105.344094 67.8298756,104.250866 66.0688369,106.875124 C64.3077982,109.498957 62.987447,112.123215 64.3077982,113.435344 C65.6285772,114.747473 70.6913495,118.68386 71.7922127,118.464959 C72.8926479,118.246483 75.0939463,120.43294 77.0749009,118.246483 C79.0558555,116.059602 79.7164589,114.091196 79.9363749,115.840701 C80.1562908,117.590206 78.8359396,118.68386 78.175764,120.214039 C77.5151606,121.745069 79.2761993,125.899932 82.1376732,127.649437 C84.9991472,129.398942 92.4831338,131.366923 94.2441725,129.617418 C96.0052112,127.867913 96.0052112,127.212061 94.4640884,125.025179 C92.9233935,122.838297 90.9424389,121.089217 92.0428741,120.651841 C93.1433094,120.214039 94.0242566,121.089217 94.9043481,122.400921 C95.7848674,123.71305 97.5459061,126.118407 101.728159,125.681456 C105.910412,125.243655 107.891367,126.337308 109.872749,122.619822 C111.853704,118.90191 114.935521,120.870316 112.954139,116.934355 C110.973184,112.997968 110.973184,113.216868 108.331626,112.123215 C105.690496,111.029987 103.489198,110.811086 103.489198,108.187253 C103.489198,105.562995 101.728159,104.031965 104.149373,101.408133 C106.571016,98.7838746 109.432489,99.8775279 108.771886,95.941141 C108.11171,92.0047541 108.11171,89.3804961 103.268854,89.3804961 C98.4264255,89.3804961 98.2060817,92.6610311 96.8857305,91.3489021 C95.5649515,90.0367731 92.7180245,86.7443367 92.9383683,83.0268505 C93.1582842,79.3093643 96.2251271,79.1032151 94.4640884,76.2600564 C92.7034776,73.4173228 90.7220951,73.4173228 90.7220951,73.4173228 L89.4162909,73.6961556 Z" id="Fill-26" fill="#8775B5"></path>
                <path d="M78.1978338,101.594333 C78.9954658,99.8646519 82.6334461,100.762691 83.5025521,100.812698 C85.8134013,100.945492 86.9836281,102.542379 86.9836281,102.542379 C86.9836281,102.542379 86.7662459,109.893102 86.5488637,110.541523 C86.3310585,111.190363 84.1551217,112.055203 85.678066,112.487624 C87.2014333,112.919624 88.071808,113.136044 88.7243776,112.271203 C89.3773701,111.406363 88.7243776,111.190363 88.5065725,110.325102 C88.2891902,109.460682 87.8544258,103.190799 88.7243776,103.190799 C89.5947523,103.190799 93.1392667,103.323593 94.1640082,105.35248 C94.7577916,106.527873 96.9925147,109.460682 97.6450843,110.109102 C98.2980768,110.757943 100.256208,109.676682 101.126583,112.055203 C101.996958,114.433304 101.779576,116.811405 100.256208,117.027826 C98.7332641,117.243825 95.9047577,117.243825 94.8165778,116.811405 C93.7288209,116.378985 92.8584461,116.162565 91.7706892,116.594985 C90.6829322,117.027826 90.2477449,116.162565 89.5947523,118.108666 C88.9421827,120.054347 86.9836281,122.648868 85.678066,121.351607 C84.3729268,120.054347 83.0673647,121.567607 82.6321774,119.405926 C82.19699,117.243825 83.0673647,115.514145 83.0673647,114.216884 C83.0673647,112.919624 82.4147952,110.973943 81.1092331,111.622363 C79.8036709,112.271203 78.4981088,112.703624 78.2803037,111.406363 C78.0629215,110.109102 77.8455393,106.001321 77.8455393,106.001321 C77.8455393,106.001321 77.3997788,103.323593 78.1978338,101.594333" id="Fill-28" fill="#6556A4"></path>
                <path d="M96.9857143,91.3799059 C95.8839191,91.6002764 95.4431154,95.1223534 93.4597127,92.2605321 C91.4758816,89.3982829 87.9395989,86.5000897 87.0584198,87.6006585 C86.1768123,88.7016553 84.8642538,90.279337 83.7624586,91.8197911 C82.660235,93.361101 79.3934037,94.4745069 78.7319839,96.0158168 C78.0709925,97.5571267 78.0320099,99.9653699 76.9302147,100.845996 C75.8284195,101.726622 73.6985106,102.004332 73.7362081,101.788668 C74.4220456,97.8750593 76.7095986,92.9212157 78.2526259,91.6002764 C79.7952248,90.279337 84.2173989,85.9130055 85.0990064,85.2527498 C85.9806139,84.5920661 87.5090763,81.2531319 87.2884602,80.3725057 C87.0682725,79.4918795 86.186665,74.2085499 87.5090763,73.7682368 C88.8310591,73.3274957 91.0350779,72.0074122 92.7982929,73.3274957 C94.5615079,74.6484351 96.1041068,73.5478663 95.8839191,76.6300581 C95.663303,79.7118221 93.6460583,81.1187701 93.4254422,82.219339 C93.2048262,83.3199078 94.3558851,86.8916218 94.7966889,87.9921906 C95.2374926,89.0927595 96.9857143,91.3799059 96.9857143,91.3799059" id="Fill-30" fill="#6556A4"></path>
                <path d="M139.885288,78.4880414 C139.885288,75.9458967 140.791777,70.0528784 143.454591,71.7281028 C146.117405,73.4037521 147.533795,73.4037521 146.400683,76.2283572 C145.267571,79.0529624 141.301678,83.0074096 140.735122,83.8547912 C140.168566,84.7021727 142.151512,84.4197122 143.284624,90.0689225 C144.417737,95.7177081 142.151512,106.168747 142.151512,106.168747 C142.151512,106.168747 147.817073,107.863086 149.516316,109.840309 C151.21641,111.817533 153.765487,113.794756 152.915652,116.336901 C152.065818,118.879046 146.967239,118.031664 147.533795,120.291348 C148.100351,122.550608 148.100351,122.268147 149.799594,122.550608 C151.499688,122.833068 154.496898,122.258803 154.981239,124.523159 C155.465155,126.78794 155.748433,129.61212 154.898599,131.307308 C154.049191,133.001647 152.065818,136.391173 150.933132,137.238554 C149.799594,138.085936 150.021104,140.690094 146.652864,139.529245 C143.284624,138.368396 140.451844,134.69641 138.752175,134.69641 C137.052507,134.69641 137.902341,134.97887 137.619063,137.803475 C137.335785,140.628081 136.485951,143.734722 134.786283,144.017182 C133.08704,144.299643 130.25426,143.452261 130.25426,143.452261 C130.25426,143.452261 133.08704,145.99483 129.970982,145.429909 C126.854923,144.864564 123.738864,146.277291 121.755918,141.475462 C119.772971,136.673633 119.489693,133.001647 120.906084,131.872229 C122.322474,130.741963 123.738864,130.741963 123.455586,129.32966 C123.172308,127.917357 124.588698,126.78794 120.906084,127.634897 C117.223469,128.482278 112.407742,126.50548 112.974298,123.68045 C113.540854,120.856269 113.824132,119.161506 115.523801,118.031664 C117.223469,116.901822 120.339528,115.77198 120.339528,114.924598 C120.339528,114.077217 116.656913,103.909063 120.056249,96.5650896 C123.455586,89.221541 131.386946,83.5723306 135.352839,82.4424886 C139.318732,81.3122218 139.885288,78.4880414 139.885288,78.4880414" id="Fill-32" fill="#8775B5"></path>
                <path d="M126.67276,111.672797 C128.918281,111.115405 132.286561,109.164533 133.128209,110.000621 C133.970701,110.836709 134.532082,121.148042 134.532082,121.148042 C134.532082,121.148042 131.444491,121.426738 132.286561,123.098914 C133.128209,124.77109 135.374152,126.16457 136.2158,125.049786 C137.05787,123.935002 136.2158,121.705434 136.2158,121.705434 C136.2158,121.705434 133.970701,111.115405 135.654842,111.115405 C137.338982,111.115405 140.14546,110.836709 141.548911,113.344554 C142.952361,115.853237 145.478571,116.689325 145.478571,120.033258 C145.478571,123.37761 145.478571,127.836327 144.075121,128.393719 C142.671671,128.951531 139.0227,130.345011 138.181052,128.951531 C137.338982,127.557631 134.251392,126.16457 133.408899,127.557631 C132.567251,128.951531 133.408899,133.410248 129.760351,132.017187 C126.11138,130.623707 125.55,131.181099 125.55,128.115023 C125.55,125.049786 127.23414,122.820218 127.51483,118.918474 C127.79552,115.01673 126.67276,111.672797 126.67276,111.672797" id="Fill-34" fill="#6556A4"></path>
            </g>
        </g>
    </g>
</svg>