<svg width="569" height="201" xmlns="http://www.w3.org/2000/svg" xmlns:xlink="http://www.w3.org/1999/xlink">
  <defs>
    <path id="a" d="M.5.8h25.2v31.7H.5V.8z"/>
    <path id="c" d="M36.2.3v69.4H.3V.3h36z"/>
    <path id="e" d="M36.2.3v69.4H.3V.3h36z"/>
    <path id="g" d="M0 39V0h186v168H0V39v129h186V39z"/>
  </defs>
  <g fill="none" fill-rule="evenodd">
    <path d="M96.8 133l1.5 1.6" stroke="#979797" stroke-linecap="square"/>
    <path d="M337.9 47.6s1 2.8-2 4c-2.9 1.2-9.6 4-11.2 4.1-1.5.1-6.6 4.7-8.7 5.2l-7 1.4s.8 1.6.2 3c-.7 1.3-1.7 1.6-3 2.3-1.4.7-3 1 .6 2 3.2.8 2.4 8 1 9.7-1.5 1.7-3.5 3.2-4.6 1.2-1-2-4.1-2.5-5-2.6-1 0-3.7-1.5-3.8 0 0 1.6-.5 7.8-4.4 8.4-4 .6-11.5.4-11.5-3.5s-.5-6.4 1.3-7.5c1.8-1 3.8-2.5 3.5-3.5-.4-1-.7-2-1.9-1-1.2.9 0 2.7-3.3 3.7s-6 2.6-5.7-1c.1-3.7.6-9.3 2.4-10.6 1.8-1.3 4.1-1 5.5-1.5 1.4-.5 0-.8 1-3 1.2-2.3 3.6-5.1 5.3-4.7 1.8.5 2.2 0 3.7 1s4.4-3.5 4.4-3.5 5.5-6 7.5-6.6c2-.7 10-5.4 12.9-2.7 3 2.7 6 5.5 9 6.6 3 1.1 5.4.5 6-.3.6-.7 0-3.7 2.3-3.8 2.3 0 4-.7 4.6.5.8 1.1.9 2.7.9 2.7" fill="#8776B5"/>
    <path d="M297.4 73.4c1.1-1.7 1.5-3.4 2.5-5.3s1.3-6.3.5-6.5c-.7-.3-2.6 1.2-3.8 2.1-1.2 1-3 1.8-3.5 2-.6.1-1.7 2.2-2.6 1.6-1-.6-1.7-1.6-.9-2.4.8-.7 1.4-.3 2.6-.4 1.1-.2 6.6-4.6 6.6-4.6s-2-3-3-3-3.6 3.3-5.4 3.8c-1.8.5-4.5 1.5-5.3 1.5-.8 0-1.9-1.4-4-.6-2.2.9-4.7 3.7-3.8 5.5.9 1.8 1.6 4.1 3.1 4 1.6-.1 4.6-2.7 5.7-1.9 1.1.8 2.5 1 1 2.6-1.4 1.7-3 3.3-1.7 4.8 1.3 1.4 2.2 3.3 4.1 3 2-.2 4.6-2 4.8-3.2.2-1 1.9-1.2 3-3M332.3 44.3s3.5-1.5 4.3-.3c.8 1.2 2.5 4.7 1.8 5.9a8 8 0 0 1-4.4 2.6c-1 .1-5.7 2.5-6.5 2.6-.7 0-2.5.5-3.2.7-.7.3-3.8 2.5-4.7 3-.9.7-2.6 2.5-5.6 2.8-3 .2-5 .9-5 .7-.2-.1-.2-1.8-.3-2.5 0-.6 3.8-5.1 6.6-5 2.9.1 7.5-1.8 8.5-1.7 1 .2 4.8.2 5.3-1 .4-1 .7-1.9.2-2.2-.6-.4-.8-1-.8-1 1.2 0 1.9-2.3 2.2-3.3.3-1.1 1.6-1.3 1.6-1.3" fill="#6557A4"/>
    <path d="M465.8 88.1s-3.5 3-4.5 5.2c-1 2-2.3 6.2-2.3 6.2s10.3 10 12 10.3c1.5.3 9.8 4.7 11 4.9 1.3 0 10.2 0 11.1-.6 1-.5 1.8.5 5.3-1.5s5-5 6-6.4c.8-1.5 1.7-7.5 1.7-7.5l-4.8-.4s-3.1 1.2-6.3 1.1a77.8 77.8 0 0 1-16.3-2.5c-2.7-1.2-4.6-.4-6.8-2-2.2-1.5-4.8-2.7-5.5-4.6l-.6-2.2" fill="#8776B5"/>
    <path d="M518.1 109.9c1.4 1.3 5.4-.8 3.2-5.8-2.1-5-7.7-5.7-7.7-5.7s-4-1.6-7.2-1.4c-3.4.2-5 1.3-7.4 1.9-2.4.5-3 1.6-1 2.5 1.8 1 4.8-.4 5.1 1.5.4 1.9.3 5-.3 5.7-.6.6 3.4-3.4 5-3.8 1.5-.3 2.3-1.4 3.8 0 1.4 1.4 1 2 2 3 1.2 1.2 4.4 2 4.5 2" fill="#6557A4"/>
    <path d="M452.2 105.4s-.9.6-3.3 1c-2.5.5-4.2 1-4.3 0 0-1 1.2-6 3.5-8s2.5-1.5 3.6-3.8c1-2.4-2 0-3-1.4s-2-4-1.4-5.8c.6-1.8 3.7-4.5 5-4.9 1.2-.3 3.1.8 3.1.8s.6 4 2.1 4.3c1.6.3 2.8 2 1.8-.6-1-2.7-1.9-4.9-1.6-6.6.3-1.8.1-3.7 1.8-3.5 1.8.1 3 .9 4.5 2.3 1.6 1.3 1.6.7 3.3.2 1.8-.5 5-2.2 6 1 .8 2.5.5 4 0 4.8-.7.8-2.2 9-2.7 9.8-.4.8-7.6-.5-8.3.5-.8 1-1.5 7.7-2.9 8.2-1.4.5-7.2 1.7-7.2 1.7" fill="#8776B5"/>
    <path d="M494.5 114.7c-1.6.5-11 1.7-18.9-.9-7.9-2.5-19.2-6.7-21.4-7.5-2.2-.7-3.6-.2-3.6-.2s2-1.3 4-2.1c2-.9 4.8-4.2 4.8-4.2s7.7 6.6 8.9 7.4c1 .7 11 4.4 13 4 2-.4 5.2-.9 7.4-1 2.2-.3 3.3.3 1.1 1-2.2.7-3.3 1.2-5.5 1.7s-1.2 1.7 1.6 1.5c2.9-.2 8.2-.8 9.3-1 1.1-.1 3.3-1 4-1.3a17 17 0 0 1-4.7 2.6M471.3 94.5L473 87c.4-1.5 1-3.1.7-4.6-.3-1.4-1.9.9-2 2.1-.1 1.3-2 3.9-2.6 4-.6.2-1.9-1.4-3.3-.4a19.2 19.2 0 0 0-6 9c0 .8 1-1.2 4.2-5 1.2-1.3 7.3 2.4 7.3 2.4" fill="#6557A4"/>
    <path d="M496.5 98.8c-1 .4-2.8 1.8-3.5 4.4-.6 2.7-.6 4.7-1.5 5.6-.9.9-9.9 10-10.8 9.8-.9-.3-4-1-5.3 1-1.3 2-3-2.1-4.9-3-1.7-.9-5-3.7-9-.6s-4 8.4-4 9.5c0 1.1-.2 3.8 1 4.9 1 1 4 2.8 1 2.9-2.8 0-4.1-2.2-7.2-1.3-3.1.9-8 1.3-8 6.2s.3 9.7 4.5 11.2c4.2 1.6 6.7 1.1 10.2.7 3.5-.5 3.8 0 2.7.6-1.1.7-3.6 1.8-5.6 3.8-2 2-3.7 4-2.1 6.2 1.5 2.2 2.4 4.4 5.5 4.2 3.1-.3 4.2-3 5.5-3.6 1.3-.7 3.6 2 5.1-.2 1.5-2.3-.7-7.1 2.8-6.7 3.6.4 4 3.3 7 1.5 2.8-1.8 7.2-5.3 6.5-8.4-.7-3.1-1.1-4.7-1.1-5.3 0-.7 8.8-7 9.6-9.1 1-2.2 4.2-4.5 3.7-12.4-.4-8-1.6-11.3-.7-13 .9-1.8 2.2-.7 4-2.3 1.7-1.6 4.4-4.4 1-5.8-3.3-1.3-5.4-1.2-6.4-.8" fill="#8776B5"/>
    <path d="M463.1 136.1s2.4-4.2 4.4-5.1c2-.9 2.9-.9 5.5-.5 2.7.5 5.6 2.2 5.6 2.2l-5 6.4s-2.5-1-2.5.3-.4 2.6 1.1 2.4c1.6-.2 2.4 0 2.7-.7.2-.6 0-.6.4-1.5s4.8-6 4.8-6 3.4.4 3.4 1.5.2 3.3-.7 4c-.9.7-3.3.7-4.6 2.5-1.3 1.7-2.4 5.7-4.2 6.6-1.7.9-3.7 2.9-4.8 2-1.1-.9-2.7-2.2-2.3-3.7.5-1.6 2-2 1-3.1-1.2-1.1-1.4-.2-3.4.4-2 .7-6.4 3-6.4.7 0-2.2-1.1-2.8.4-3.7 1.6-1 3.3-1 3.5-2 .2-1.1 1.1-2.7 1.1-2.7M501 99.2s2.2 0 3 .8c.6.9 1.2 1 .1 2.9-1 1.7-1.1 3.1-2.6 3.3-1.5.2-2 .3-2.9.9-1 .7-1 2.4-1 3.5l.3 2c-.8-.8-2.6-3.7-1.7-6.7.9-3 .8-5.5 4.8-6.7" fill="#6557A4"/>
    <g>
      <path d="M186.7 36.9s-1.4.3-1.4-2c-.1-2.4-1-4.2 4.4-6.7s8.8-1.5 9.4-1.3l5.2 1.9c.7.2 9.7-.8 12.1-.8 2.5 0 5-.3 7.3-2.6 2.1-2.4 3-1.5 3-4.1-.2-2.7-1.2-3.5-.8-5 .3-1.4 1.2-.5 1.6-2.6.3-2-.4-4.1.7-2.7 1.1 1.5.3.2 1.5 2.5 1.9 3.7 3 3.3 2.7 5.7-.4 2.5-2.3 4.6.4 3 2.6-1.8 2.8-3 5-3.3 2.2-.2 3.2-.6 5.3 1.1 2 1.8 0 4.8.7 5.4.8.6 2.3-.6 2.2.8-.1 1.4-.6 2-1.4 3.2-.8 1 1 2.1 2.7 1.8 1.8-.4 2-2 3.5-1.4 1.6.5 4.2 1.2 2.6 2.4-1.5 1.1-2.6 2-4.9 2l-6.5-.6c-3.8-.2-7.3-1.6-11.6.2-4.2 1.9-8.1 4.4-12.1 5.7-4 1.3-8.6 2.4-11 1.2a70 70 0 0 1-10-7.9c-1.2-1.4-1.1-3-3.6-1s-1.6 3.1-3.4 4c-1.8 1-3.6 1-3.6 1" fill="#8776B5"/>
      <path d="M185.3 32.4c.6-1 1.3-.7 2.1-.8.9-.1 1.6-.8 2.3-1.7a11 11 0 0 1 5.3-2.5c1 0 3.7 0 4.6.6l2.7 2s1 1.1.1 1c-.8 0-2.4-.3-2.4.3 0 .7 2.7 2 5.1 3.4a22 22 0 0 0 11.5 1.6c2.7-.7 8.7-3.8 9.7-4.7 1-.9 5.6-5.6 6.1-6.8.5-1.2 3.5-3.2 5.5-.7s5.2 3.7 4.2 5.2-4.1 3.7-5.3 3.8c-1.1 0-4.4.4-6.6 1.2-2 .8-6.5 3-8.4 4a41 41 0 0 1-8.1 2.8c-7.1 1.3-7.3-1.2-8.5-1.7-1.2-.5-6.4-4.5-7.4-5.7-.9-1.1-3-2.5-4-1.9-1.1.6-1 2.5-2.5 3.5s-2 1.2-3 1.4c-1 .3-1.8.8-2.5.1-1.2-1.2-.5-4.4-.5-4.4" fill="#6557A4"/>
    </g>
    <g>
      <path d="M188.2 43.3s1 2.7-1.9 4c-3 1.2-9.7 4-11.2 4-1.6.2-6.6 4.8-8.8 5.3l-7 1.4s.9 1.6.2 3c-.6 1.3-1.6 1.6-3 2.3-1.4.7-3 1 .7 2 3.1.8 2.3 8 .9 9.7-1.4 1.7-3.5 3.1-4.5 1.2-1-2-4.2-2.6-5.1-2.6-1 0-3.6-1.5-3.7 0 0 1.6-.6 7.7-4.5 8.3-3.9.6-11.4.5-11.4-3.4s-.5-6.4 1.3-7.5c1.8-1 3.8-2.5 3.4-3.5-.3-1-.6-2-1.9-1-1.2.8.1 2.6-3.2 3.6-3.4 1-6 2.7-5.8-1 .2-3.7.6-9.3 2.4-10.5 1.8-1.3 4.1-1 5.5-1.5 1.4-.6 0-.8 1.1-3 1.1-2.4 3.6-5.2 5.3-4.7 1.7.5 2.1 0 3.6 1s4.5-3.5 4.5-3.5 5.5-6 7.4-6.6c2-.7 10-5.4 13-2.7 3 2.6 5.9 5.5 9 6.6 3 1 5.3.4 6-.3.6-.8 0-3.7 2.3-3.8 2.3 0 3.9-.8 4.6.4.7 1.2.8 2.8.8 2.8" fill="#8776B5"/>
      <path d="M147.7 69.1c1.2-1.7 1.5-3.4 2.6-5.3 1-1.9 1.2-6.3.5-6.6-.8-.2-2.6 1.3-3.8 2.2-1.2.9-3 1.8-3.6 2-.6.1-1.6 2.2-2.6 1.6-1-.7-1.6-1.7-.8-2.4s1.3-.3 2.5-.5c1.2-.1 6.6-4.5 6.6-4.5s-2-3-3-3-3.6 3.3-5.4 3.8c-1.7.5-4.5 1.5-5.3 1.5-.7 0-1.8-1.5-4-.6s-4.6 3.7-3.7 5.4c.8 1.8 1.5 4.2 3 4 1.6 0 4.6-2.6 5.8-1.8 1 .8 2.4.9 1 2.6-1.4 1.6-3 3.3-1.8 4.7 1.3 1.4 2.2 3.4 4.2 3.1 2-.3 4.5-2 4.8-3.2.1-1 1.8-1.3 3-3M182.6 40s3.5-1.5 4.3-.3c.8 1.1 2.5 4.7 1.8 5.8a8 8 0 0 1-4.3 2.7c-1 0-5.7 2.5-6.5 2.6-.8 0-2.5.5-3.2.7-.7.2-3.8 2.5-4.7 3-1 .6-2.6 2.4-5.7 2.7-3 .3-5 1-5 .8-.2-.2-.2-1.8-.2-2.5s3.7-5.1 6.6-5c2.8.1 7.5-1.8 8.5-1.7 1 .1 4.7.1 5.2-1 .5-1 .8-1.9.2-2.3-.6-.3-.8-.8-.8-.8 1.2-.2 2-2.4 2.2-3.4.3-1.2 1.6-1.3 1.6-1.3" fill="#6557A4"/>
    </g>
    <g>
      <path d="M231.9 74s4.2-1.7 6-3.3c1.7-1.5 4.2-5 4.2-5s-6.3-13-7.7-13.9c-1.4-.8-7.7-7.8-8.8-8.3-1.2-.6-9.5-3.5-10.6-3.3-1 .1-1.5-1-5.5-.4s-6.4 3-7.8 4c-1.4 1-4.2 6.4-4.2 6.4l4.3 2.1s3.4-.1 6.3 1a78 78 0 0 1 14.5 8c2.2 2.1 4.2 2 5.8 4.2 1.6 2.2 3.6 4.2 3.6 6.3l-.1 2.3" fill="#8776B5"/>
      <path d="M190 35.6c-.9-1.7-5.3-1.1-5 4.3.3 5.5 5.3 8 5.3 8s3.1 3 6.3 3.9c3.2 1 5.2.4 7.6.7 2.4.4 3.4-.5 2-2-1.6-1.5-4.8-1.3-4.5-3.2.3-1.9 1.4-4.8 2.2-5.2.8-.4-4.3 2-5.9 1.8-1.6-.2-2.7.6-3.6-1.3-.9-1.8-.2-2.2-1-3.6-.6-1.4-3.3-3.2-3.4-3.4" fill="#6557A4"/>
      <path d="M250.6 62.4s1-.3 3.4.2c2.5.4 4.3.6 4 1.5-.3.9-3.1 5.3-6 6.3-2.8 1-2.8.5-4.7 2.4-1.8 2 2 .7 2.4 2.4.5 1.6.5 4.5-.7 6-1.1 1.3-5 2.9-6.3 2.8-1.3-.2-2.8-1.8-2.8-1.8s1-4-.5-4.9c-1.4-.8-1.8-2.8-1.8 0 0 3 0 5.3-.8 6.8-.9 1.6-1.4 3.4-3 2.7-1.5-.7-2.3-1.8-3.4-3.7-1-1.9-1.2-1.3-3-1.4-1.8 0-5.5.4-5.3-3 0-2.6.9-4 1.7-4.5.9-.5 5.1-7.7 5.8-8.3.7-.6 7 3 8 2.4 1.1-.6 4-6.8 5.6-6.8 1.5 0 7.4.9 7.4.9" fill="#8776B5"/>
      <path d="M214 39.1c1.6.2 10.7 2.2 17.4 7.3 6.6 5.1 15.8 13 17.6 14.4a6 6 0 0 0 3.4 1.5s-2.4.6-4.6.6c-2.2.1-6 2.3-6 2.3s-5-8.9-5.8-10c-.8-1-8.8-7.9-10.9-8.2l-7.3-1.5c-2.2-.6-3-1.6-.7-1.4 2.3 0 3.5 0 5.8.3 2.2.2 1.7-1.3-1-2l-9.1-2.3c-1.1-.2-3.5-.2-4.2-.1-.7 0 3.4-1 5.3-.9M228.9 66.1l-4.2 6.5c-1 1.3-2.1 2.6-2.3 4-.1 1.5 2 0 2.6-1.2.6-1.1 3.2-3 3.9-2.9.6 0 1.2 2 3 1.6 3.6-1 8.5-5.6 8.7-6.4.1-.8-1.4.7-5.7 3.1-1.6 1-6-4.7-6-4.7" fill="#6557A4"/>
    </g>
    <g>
      <path d="M85.2 92.2c-.9-.6-3.2-1-5.6.1-2.5 1.2-4 2.5-5.2 2.4-1.3 0-14-1.1-14.4-2-.5-.8-2-3.6-4.3-3.3-2.4.3-.3-3.8-.8-5.7-.5-2-.4-6.3-5.4-7.3-4.9-1-9 2.4-9.8 3-.8.8-3 2.3-3.1 3.9-.2 1.5.4 4.9-1.5 2.7s-1-4.6-3.7-6.4c-2.7-1.8-6.2-5.2-9.9-2.1s-7.2 6.5-5.7 10.7c1.5 4.2 3.4 5.7 6 8.2 2.7 2.4 2.5 2.8 1.3 2.4-1.3-.4-3.7-1.6-6.5-1.8-2.8-.2-5.4-.3-6.1 2.3-.7 2.6-1.8 4.8.3 7 2.2 2.2 5 1.3 6.3 1.9 1.4.6.8 4 3.5 3.7 2.7-.2 5-5 6.9-2 2 3 0 5.1 3.2 6.2 3.3 1 8.8 2 10.7-.4 2-2.5 2.9-3.9 3.4-4.3.5-.4 11 2.3 13.2 1.6 2.2-.8 6 .3 11.8-5.2 5.8-5.5 7.6-8.4 9.6-9 1.9-.4 1.9 1.3 4.2 1.7 2.3.3 6.3.5 5.1-2.9-1.1-3.4-2.5-5-3.5-5.4" fill="#8776B5"/>
      <path d="M35.2 90.5s4.8-.8 6.7.1c2 1 2.6 1.7 4 4 1.3 2.3 1.8 5.6 1.8 5.6l-8.1.3s-.8-2.6-1.8-1.7c-1 .8-2.3 1.3-1.1 2.4 1.1 1 1.5 1.8 2.2 1.6.6-.3.5-.5 1.5-.7 1-.2 7.7-.1 7.7-.1s1.8 2.8 1 3.5c-1 .7-2.5 2.3-3.5 2-1.1-.2-2.7-2-4.9-2-2.2.2-6 2-7.8 1.2-1.8-.8-4.6-1-4.6-2.4 0-1.5 0-3.5 1.4-4.2 1.5-.6 2.8.3 3-1.3 0-1.6-.8-1.1-2.5-2.2-1.8-1.1-6.4-3-4.7-4.5 1.7-1.4 1.5-2.7 3.2-2 1.6.5 2.8 1.9 3.8 1.3 1-.5 2.7-.9 2.7-.9M87.8 95.8s1.5 1.7 1.3 2.8c-.3 1 0 1.7-2 2-2.1.3-3.2 1.1-4.3.1-1.1-1-1.6-1.3-2.5-1.6-1.3-.4-2.6.7-3.3 1.5l-1.5 1.5c.1-1.2 1.2-4.4 4-5.6 2.9-1.2 4.8-2.9 8.3-.7" fill="#6557A4"/>
    </g>
    <g>
      <path d="M89.2 92.8c-2.8 1-2.5 2-2 5.3s.4 5.3-.6 6.7c-.9 1.5-8.5 5.7-10.9 9.3-2.3 3.6-4 10.6-3.7 11.8.2 1.2-6 0-7.9 2.9-1.9 2.8-3.3 5.7-1.8 7 1.4 1.5 6.9 5.7 8 5.5 1.3-.3 3.7 2 5.8-.3 2.1-2.4 2.8-4.5 3-2.6.3 1.9-1 3-1.8 4.7-.7 1.7 1.2 6.2 4.3 8 3.2 2 11.3 4 13.2 2 1.9-1.8 1.9-2.5.2-4.9-1.7-2.3-3.9-4.2-2.7-4.7 1.2-.5 2.2.5 3.1 1.9 1 1.4 3 4 7.5 3.5s6.6.7 8.8-3.4c2-4 5.4-1.9 3.3-6.1-2.2-4.2-2.2-4-5-5.2-3-1.1-5.3-1.4-5.3-4.2 0-2.8-2-4.5.6-7.3 2.6-2.9 5.7-1.7 5-6-.7-4.2-.7-7-6-7-5.2 0-5.5 3.6-6.9 2.2-1.4-1.4-4.5-5-4.3-9 .2-4 3.5-4.3 1.6-7.3-2-3-4-3-4-3l-1.5.2z" fill="#8776B5"/>
      <path d="M77.2 123.1c.8-1.9 4.8-1 5.7-.9 2.5.2 3.8 1.9 3.8 1.9s-.2 8-.4 8.7c-.3.7-2.6 1.7-1 2.1 1.7.5 2.6.7 3.3-.2.7-1 0-1.2-.2-2.1-.2-1-.7-7.8.2-7.8 1 0 4.8.1 6 2.3.6 1.3 3 4.5 3.7 5.2.7.7 2.8-.5 3.8 2 1 2.6.7 5.2-1 5.5-1.6.2-4.6.2-5.8-.2-1.2-.5-2.1-.7-3.3-.2-1.2.4-1.7-.5-2.4 1.6s-2.8 5-4.2 3.6c-1.4-1.4-2.8.2-3.3-2.1-.5-2.4.4-4.3.4-5.7 0-1.4-.7-3.5-2.1-2.8-1.4.7-2.8 1.2-3-.2-.3-1.4-.6-5.9-.6-5.9s-.5-3 .4-4.8" fill="#6557A4"/>
      <g transform="translate(71.7 91)">
        <mask id="b" fill="#fff">
          <use xlink:href="#a"/>
        </mask>
        <path d="M25.7 21c-1.2.2-1.6 4-3.8 1-2.2-3.1-6-6.3-7-5l-3.6 4.5c-1.1 1.7-4.7 3-5.4 4.6-.7 1.7-.7 4.3-2 5.3-1.1 1-3.5 1.3-3.4 1 .7-4.2 3.2-9.6 4.8-11 1.7-1.5 6.5-6.3 7.5-7 1-.7 2.6-4.4 2.3-5.3-.2-1-1.2-6.7.2-7.2 1.5-.5 3.9-2 5.8-.5 2 1.4 3.6.2 3.4 3.6-.3 3.3-2.5 4.8-2.7 6-.2 1.2 1 5.1 1.5 6.3.5 1.2 2.4 3.7 2.4 3.7" fill="#6557A4" mask="url(#b)"/>
      </g>
    </g>
    <g>
      <path d="M191.9 115.2c-1.5-1.3-4-1.3-4-6.3s-2.5-7.2 1.5-7.2 5.8-2.4 9.7-1.9c4 .5 4.4 3.1 4.7-.3.2-3.5-2.8-6.3 2.4-7.8 5.2-1.5 8.5-4 9.7 0 1.2 4 3.7 7.5 1.5 9.5s-4.5 2.5-3 4.2c1.5 1.8 3.2 2.8 3.5.8.2-2 1-4.7 3.7-3.8 2.7 1 6.2 3.3 5 5.5-1.3 2.3-1.5 8-3.5 9.3-2 1.2-6.2 1.5-6.7 3.7-.5 2.3 1.5 0 1.5 3.5s-.5 1.5-1 4.8c-.5 3.2-.5 2.2-4 1.2-3.4-1-5.2-3.5-6.7-3.5-1.4 0 .5 2.8-1.2 3.5-1.7.8-2.2 1-3.5-.7-1.2-1.8-1-2.5-4.7-2.5s-4.7 4.2-5.2-1.5c-.5-5.8-1.7-7.5-.5-8.3 1.3-.7.8-2.2.8-2.2" fill="#6556A4"/>
      <g transform="rotate(-90 122.5 -45.8)">
        <mask id="d" fill="#fff">
          <use xlink:href="#c"/>
        </mask>
        <path d="M5 38.6S1.6 29 2.3 24.4c.8-4.5 6.6-8.8 6.8-10 .2-1.1 2-3.3 2.1-6 .2-2.7-2.7-5.7-.4-6.6 2.4-1 6-4.3 6 4.5 0 8.7-1.7 8.5-.3 11 1.3 2.6 4 5.7 4.4 9 .4 3.3.6 5.9.4 6.7-.2.7 1 .2 5-.2s4.7-1 5.2 2.7c.6 3.7-1.1 7.6-2.9 9.7-1.7 2.2-.2 2.4 2.6 3.4 2.7 1 4.2 1.3 4.8 4.2.6 3-.8 5.5-3.1 7-2.3 1.6-5.4 3.4-7.7 2.2-2.4-1.2-4.9-3.5-6.2-3-1.4.7-1.6-.9.2 2.6 1.7 3.5 1.5 7.2-1.4 7.4-2.9.2-5.4 1.2-7.3.2-2-1-.4-2.5-1.6-4-1.1-1.6-2 0-4.2-1.6-2.4-1.6-2.2-1.8-.6-4.3 1.5-2.6 2.7-4-.4-4s-4.3-6.7-3-8.5c1.4-1.7 5-4.9 4.7-6-.2-1.2-.6-2.2-.6-2.2" fill="#8775B5" mask="url(#d)"/>
      </g>
      <path d="M214.1 61.3a80 80 0 0 1-7.7.8c.1-1-.2-4.5 4.5-8.9 4.8-4.3 4.4-6.8 7-6.6 2.6.2 5.5-1.4 6.5.4 1 1.7 3.8 5 .8 7.4-3 2.4-4.7.8-5.7 3-1 2.1-2 3.5 1.5 3 3.6-.7 6.6-1 6.6.5 0 1.6 1.3 7.8-1.6 8.3-3 .4-4.8.5-5.7-.4-1-1-5.2-3.4-6.6-2.8-2.6 1.2-2.4 2.7-1.4 4.7 1 2.3 8.2 5.3 7 5.7-4.5 1.4-7.2-3.1-7.2-3.1s-.9-1-3.2-2.5c-2.4-1.5-3.5-6.8-2.7-7.4 1-.9 7.5-1.5 8-1.3 1.2.7 1.7 0 1.7-.4 0-1.3-1.8-.4-1.8-.4M169 63.7c0-.5-.6-1.7 1-2 1.7-.2 4.6-1.2 6.4 0 1.8 1.1 1.8 1.8 4.3 2.3 2.4.5 1.5.7 6.3 1.9s7.1 1.3 9.2 1c2-.2 5.3.7 3 1-2.1.2-6 .7-7.6.3-1.5-.4-5.5-1.8-5.6-.8-.2 1 1.4 2.6 3.8 3.8 2.5 1.1 4.8 2.3 5.7 2.5 1 .3-2 1.2-3.6.7-1.7-.5-6.8-4-7.4-4.8-.5-.7-4.2-3.7-6.7-4-2.4-.2-4 .6-4.6.7-.7.1-2 1-3.3-.7-1.3-1.8-.9-1.9-.9-1.9" fill="#6556A4"/>
      <path d="M206.2 70.8s-1.4-2.4-3.4-3.9c-2-1.4-4.4-1.4-4.4-4.8s-.3-4.9 1.2-5.6c1.5-.8 3.1-1.2 3.1.3 0 1.6-.7 1.5-.6 4.5.1 3-.3 4.5 1.5 5.6 1.7 1.2 3.5 2 3.4 3-.2 1.1-.8.9-.8.9" fill="#6556A4"/>
      <path d="M229.6 79.7s6.8 4.9 7.6 5.3c.7.3 2.1.5 2.1 1.1 0 .6-1.2 3.5 0 4.5s4.3 2.7 6.4 2.3c2.1-.4 3.5-1.4 5.8-.4 2.3 1 4.3 4 4.5 5 .1 1 .1 5.5 5.4 4.9 5.2-.6 7.1-3.3 7.5-6.4.4-3.1 0-5-1.5-6.8-1.6-1.7-1-3.9.6-2.1 1.5 1.7 3 3 4.8 3.3 1.7.2 4 2.1 4.6-1.2.6-3.3 1.6-8.5.2-10.6-1.3-2.1-.2-3.5-2.1-3.9-2-.4-3.7.4-5.4-.4-1.8-.8-1.2-1.1-.6-3.5.6-2.3 0-6.5-2-7.5-1.9-1-3.6-2.7-5.7-2.7-2.2 0-4.9.8-3.7 3.5 1.1 2.7 1.3 4.6-.4 3.5-1.7-1.2-4.5-4.7-4.5-4.7s.8-.8-3.8 0c-4.7.8-9.4.6-9.9 5.8-.4 4.6-4.8 3.2-4.8 3.3 0 0-7.8 1-10 .8-2-.2-3.2-5.4-4.8-2.2-1.5 3.3-1.7 4.5.6 5.3 2.3.7 1.2-.4 3.7.4a18 18 0 0 1 5.4 3.4" fill="#8775B5"/>
      <path d="M250.7 87.2c-1-.8-2.3-6.2-1.7-7.6.5-1.3 4.3 0 4.3 0s3.5-.2 3.9.6c.3.8 1.3 2.3 1.7 1.4.4-1 1.4-3.3.4-3.3-1 0-.6.6-2 .6-1.3 0-7.4 0-7.2-.8.2-.8.8-4.3 2-5.8 1.2-1.6 3.9-4.5 4.9-4.5 1 0 2.1-.6 3.3 0 1.1.6 2.9 1.8 2.5 3.9-.4 2.1-2.5 1.7-1.6 3.7 1 2 1.4 1.1 4.1 2 2.8.7 5 .3 4.3 3.6-.5 3.3 1 5.4-1.7 5.6-2.7.2-4.7-2.7-6.3-1.5-1.5 1.1 0 .5.2 3.6s.6 4.9-2 4.9c-2.5 0-5.2 1.1-6.4-1.4-1.1-2.5-2.7-5-2.7-5M240.5 73.4l2.2 4.1c.6 1.2 1.4 4.9 0 6.3-1.4 1.3-2.4 2.7-3.2 2.5-.8-.2-3.5-2-6.6-3.8-3-1.7-5.4-4-6-4.3-.6-.4-2.3-1.8-3.3-1.8s-1.2.2-2.8-.2c-1.6-.4-2 1-2.8-1.4-.8-2.4-2.6-4 0-4.3 2.5-.4 2.3-1.6 4.1 0 1.8 1.6 1 2.3 3 2.3s6-.4 7.1-.5c1.2-.2 2.9-.1 4.3-.2 1.5-.1 2.5-2.3 3-1.4.4.7 1 2.7 1 2.7" fill="#6556A4"/>
      <path d="M166.5 83.4c-2.2 0-7.4-.8-6-3.1 1.6-2.4 1.6-3.6 4-2.6 2.5 1 6 4.5 6.8 5 .7.5.5-1.3 5.5-2.3 5-1 14.2 1 14.2 1s1.5-5 3.2-6.5c1.8-1.5 3.5-3.7 5.8-3 2.2.8 1.5 5.3 3.5 4.8s1.7-.5 2-2c.2-1.5-.3-4.2 1.7-4.6 2-.4 4.5-.7 6 0 1.5.8 4.5 2.6 5.2 3.6.8 1 3 .8 2 3.8s-4.2 5.4-4.2 7c0 1.4.2.7 2.7 1 2.5.2 5.3 1 5.5 2.4.3 1.6 1.8 1.6 1.3 4.3-.5 2.8.7 5.5-3.5 7.3-4.3 1.7-7.5 2-8.5.7-1-1.2-1-2.5-2.3-2.2-1.2.2-2.2-1-1.5 2.2.8 3.3-1 7.5-3.5 7-2.4-.5-4-.7-5-2.2-1-1.5-2-4.3-2.7-4.3-.7 0-9.7 3.3-16.2.3S171 91 170 87.4c-1-3.5-3.5-4-3.5-4" fill="#8775B5"/>
      <path d="M195.8 95.5c-.5-2-2.3-5-1.5-5.7.8-.8 10.1-1.3 10.1-1.3s.2 2.8 1.8 2c1.5-.7 2.7-2.7 1.7-3.4-1-.8-3 0-3 0s-9.6 2-9.6.5-.2-4 2-5.3c2.3-1.2 3-3.5 6-3.5 3.1 0 7.2 0 7.7 1.3.5 1.2 1.7 4.5.5 5.2-1.3.8-2.6 3.5-1.3 4.2 1.3.8 5.3 0 4 3.3-1.2 3.2-.7 3.7-3.5 3.7s-4.8-1.5-8.3-1.7c-3.6-.3-6.6.7-6.6.7" fill="#6556A4"/>
    </g>
    <g>
      <path d="M492.5 86.1c1.3-1.4 1.3-4 6.3-4s7.2-2.4 7.2 1.6 2.4 5.8 1.9 9.7c-.5 4-3.1 4.4.4 4.6 3.5.3 6.2-2.7 7.7 2.5s4 8.4 0 9.7c-4 1.2-7.5 3.7-9.5 1.5-2-2.3-2.5-4.5-4.2-3-1.8 1.5-2.8 3.2-.8 3.5 2 .2 4.8 1 3.8 3.7s-3.3 6.2-5.5 5c-2.3-1.3-8-1.5-9.3-3.5-1.2-2-1.5-6.2-3.7-6.7-2.3-.5 0 1.5-3.5 1.5s-1.5-.5-4.8-1c-3.2-.5-2.2-.5-1.2-4 1-3.5 3.5-5.2 3.5-6.7s-2.8.5-3.5-1.2c-.8-1.8-1-2.3.7-3.5 1.8-1.2 2.5-1 2.5-4.7s-4.2-4.7 1.5-5.2c5.8-.5 7.5-1.7 8.3-.5.7 1.2 2.2.7 2.2.7" fill="#6556A4"/>
      <g transform="translate(531 62.6)">
        <mask id="f" fill="#fff">
          <use xlink:href="#e"/>
        </mask>
        <path d="M5 38.6S1.6 29 2.3 24.4c.8-4.5 6.6-8.8 6.8-10 .2-1.1 2-3.3 2.1-6 .2-2.7-2.7-5.7-.4-6.6 2.4-1 6-4.3 6 4.5 0 8.7-1.7 8.5-.3 11 1.3 2.6 4 5.7 4.4 9 .4 3.3.6 5.9.4 6.7-.2.7 1 .2 5-.2s4.7-1 5.2 2.7c.6 3.7-1.1 7.6-2.9 9.7-1.7 2.2-.2 2.4 2.6 3.4 2.7 1 4.2 1.3 4.8 4.2.6 3-.8 5.5-3.1 7-2.3 1.6-5.4 3.4-7.7 2.2-2.4-1.2-4.9-3.5-6.2-3-1.4.7-1.6-.9.2 2.6 1.7 3.5 1.5 7.2-1.4 7.4-2.9.2-5.4 1.2-7.3.2-2-1-.4-2.5-1.6-4-1.1-1.6-2 0-4.2-1.6-2.4-1.6-2.2-1.8-.6-4.3 1.5-2.6 2.7-4-.4-4s-4.3-6.7-3-8.5c1.4-1.7 5-4.9 4.7-6-.2-1.2-.6-2.2-.6-2.2" fill="#8775B5" mask="url(#f)"/>
      </g>
      <path d="M546.4 108.4a80 80 0 0 1-.8-7.7c1 .1 4.5-.2 8.9 4.5 4.3 4.8 6.8 4.4 6.6 7-.2 2.5 1.4 5.5-.4 6.5-1.7 1-5 3.8-7.4.8-2.4-3-.8-4.8-3-5.8-2.1-1-3.5-2-3 1.6.7 3.6 1 6.6-.5 6.6-1.6 0-7.8 1.3-8.3-1.6-.4-3-.5-4.8.4-5.8 1-1 3.4-5.1 2.8-6.5-1.2-2.6-2.7-2.4-4.7-1.5-2.3 1-5.3 8.2-5.7 7-1.4-4.4 3.2-7.2 3.2-7.2s.9-.8 2.4-3.1c1.5-2.4 6.8-3.6 7.4-2.8.9 1 1.5 7.6 1.3 8-.7 1.3 0 1.8.4 1.8 1.4-.1.4-1.8.4-1.8M544 63.3c.5 0 1.7-.6 2 1 .2 1.7 1.2 4.6 0 6.4-1.1 1.8-1.8 1.8-2.3 4.2-.5 2.5-.7 1.6-1.9 6.4a24.6 24.6 0 0 0-1 9.1c.2 2.1-.7 5.3-1 3.1-.2-2.1-.7-6-.3-7.6.4-1.5 1.8-5.5.8-5.7-1-.1-2.6 1.5-3.8 4-1.1 2.4-2.3 4.7-2.5 5.6-.3.9-1.2-2-.7-3.6.5-1.7 4-6.9 4.8-7.4.8-.5 3.7-4.3 4-6.7.2-2.5-.6-4-.7-4.7-.1-.6-1-2 .7-3.2 1.8-1.3 1.9-.9 1.9-.9" fill="#6556A4"/>
      <path d="M537 100.5s2.3-1.4 3.8-3.4c1.4-2 1.4-4.4 4.8-4.4s4.9-.4 5.7 1.1c.7 1.6 1.1 3.2-.4 3.2-1.6 0-1.5-.8-4.5-.6-3 0-4.5-.3-5.6 1.5-1.2 1.7-2 3.5-3 3.4-1.1-.2-.8-.8-.8-.8" fill="#6556A4"/>
      <path d="M528 123.9l-5.3 7.5c-.3.8-.5 2.2-1.1 2.2-.6 0-3.5-1.2-4.5 0-1 1.1-2.7 4.2-2.3 6.4.4 2.1 1.4 3.5.4 5.8-1 2.3-4 4.2-5 4.4-1 .2-5.4.2-4.9 5.4.6 5.3 3.3 7.2 6.4 7.6 3.1.4 5 0 6.8-1.6 1.7-1.5 3.9-1 2.1.6-1.7 1.6-3 3.1-3.3 4.9-.2 1.7-2.1 4 1.2 4.6 3.3.6 8.5 1.6 10.6.2 2.2-1.3 3.5-.2 3.9-2.1.4-2-.4-3.7.4-5.4.8-1.8 1.1-1.2 3.5-.6 2.3.6 6.5 0 7.5-2 1-1.9 2.7-3.6 2.7-5.8 0-2.1-.8-4.8-3.5-3.6-2.7 1.1-4.6 1.3-3.4-.4 1.1-1.8 4.6-4.5 4.6-4.5s.8.8 0-3.9c-.8-4.6-.6-9.4-5.8-9.8-4.6-.4-3.2-4.9-3.3-4.9 0 0-1-7.7-.8-9.8.2-2.2 5.4-3.3 2.2-4.9-3.3-1.5-4.5-1.7-5.3.6-.7 2.3.4 1.2-.4 3.7-.7 2.5-3.4 5.4-3.4 5.4" fill="#8775B5"/>
      <path d="M520.5 145c.8-1 6.2-2.4 7.6-1.8 1.3.6 0 4.3 0 4.3s.2 3.5-.6 4c-.8.3-2.3 1.3-1.4 1.7 1 .4 3.3 1.3 3.3.4 0-1-.6-.6-.6-2 0-1.3 0-7.4.8-7.2.8.2 4.3.8 5.8 2 1.6 1.1 4.5 3.9 4.5 4.8 0 1 .6 2.2 0 3.3-.6 1.2-1.8 3-3.9 2.6-2.1-.4-1.7-2.6-3.7-1.6-1.9 1-1.1 1.4-1.9 4.1-.8 2.8-.4 4.9-3.7 4.3-3.3-.6-5.4 1-5.6-1.7-.2-2.8 2.7-4.7 1.6-6.3-1.2-1.5-.6 0-3.7.2s-4.9.6-4.9-2c0-2.5-1.1-5.2 1.4-6.4 2.5-1.1 5-2.7 5-2.7M534.3 134.8l-4.1 2.2c-1.2.6-4.9 1.3-6.3 0-1.3-1.4-2.7-2.4-2.5-3.2.2-.8 2-3.5 3.8-6.6 1.7-3.1 4-5.4 4.3-6 .4-.6 1.8-2.4 1.8-3.4s-.2-1.1.2-2.7-1-2 1.4-2.8c2.4-.8 4-2.6 4.3 0 .4 2.5 1.6 2.3 0 4.1-1.6 1.8-2.3 1-2.3 3s.4 5.9.6 7l.1 4.4c.2 1.5 2.3 2.5 1.4 3-.7.4-2.7 1-2.7 1" fill="#6556A4"/>
      <path d="M524.3 60.8c0-2.2.8-7.4 3.1-6 2.4 1.5 3.6 1.5 2.6 4s-4.5 6-5 6.8c-.5.7 1.3.5 2.3 5.4 1 5-1 14.3-1 14.3s5 1.5 6.5 3.2c1.5 1.8 3.7 3.5 3 5.7-.8 2.3-5.3 1.5-4.8 3.5s.5 1.8 2 2c1.5.3 4.2-.2 4.6 1.8.4 2 .7 4.5 0 6-.8 1.5-2.6 4.4-3.6 5.2-1 .7-.8 3-3.8 2s-5.4-4.2-7-4.2c-1.4 0-.7.2-1 2.7-.2 2.5-1 5.2-2.4 5.5-1.5.2-1.5 1.7-4.3 1.2-2.7-.5-5.5.8-7.3-3.5-1.7-4.2-2-7.4-.7-8.4 1.2-1 2.5-1 2.3-2.3-.3-1.2 1-2.2-2.3-1.5-3.3.8-7.5-1-7-3.5s.7-4 2.2-5c1.5-1 4.3-2 4.3-2.7 0-.8-3.3-9.7-.3-16.2s10-11.5 13.6-12.5c3.5-1 4-3.5 4-3.5" fill="#8775B5"/>
      <path d="M512.2 90c2-.4 5-2.2 5.7-1.4.8.7 1.3 10 1.3 10s-2.8.3-2 1.8c.7 1.6 2.7 2.8 3.5 1.8.7-1 0-3 0-3s-2-9.6-.5-9.6 4-.3 5.2 2c1.2 2.3 3.5 3 3.5 6s0 7.1-1.3 7.6c-1.2.5-4.5 1.8-5.2.5-.7-1.2-3.5-2.5-4.2-1.2-.8 1.2 0 5.3-3.3 4-3.2-1.2-3.7-.7-3.7-3.5s1.5-4.8 1.7-8.3c.3-3.6-.7-6.6-.7-6.6" fill="#6556A4"/>
    </g>
    <g>
      <g transform="translate(240.3 33)">
        <mask id="h" fill="#fff">
          <use xlink:href="#g"/>
        </mask>
        <path d="M20.6 77.5c-1.2-.3-3.8-.9-6.2-.6-2.3.3-3.5.3-4.7 3.2-1.1 3-.2 5.3-.2 7 0 1.7-1.5 4-4.1 3.8-2.7-.3-3.2-1.2-4.4 2.3-1.2 3.5-1.5 5.8 0 6.4 1.4.6 2 1.1 1.4 3.2-.5 2-1.1 5 1.2 6.4 2.4 1.4 5.3 2.9 6.7 2.6 1.5-.3 2.4-.3 4.4-3.2 2-3 4.4-2 4.1-.6-.3 1.5-2.3 2-2.6 4-.3 2.1 0 4.4 4.4 6.2 4.3 1.7 6 4.3 9.6 1.1 3.5-3.2 5-4.3 5-5.8 0-1.4-3-6.7-3-6.7s0 1.8 3.2 2c3.3.4 6.5.7 8.2-.5 1.8-1.2 3-4 3-4s1.7 1.4 2.9 3.4c1.1 2 5 4.4 5 4.4s-1.2-.3-1.8 3.2c-.6 3.4-.3 7.8.8 9.8 1.2 2 4.1 4 6.2 3 2-1.2 3.8-6.7 3.8-8.8 0-2-3-7.5-.3-5.2 2.6 2.3 4 6.4 7.3 7.5 3.2 1.2 6.7 1 6.7 1s-2 2.8-1.2 4.3c.9 1.4 0 3.2 4.1 3.5 4.1.2 11.1-1.2 11.7-3 .6-1.7 2-4.6 2-6.6s-.5-6.7-.5-6.7 3.8 2.3 5.5 2.6c1.8.3 5.8-1.4 5.8-1.4s-.5 3.4 1.5 4.9c2 1.4 5.3 1.7 5.3 1.7s-2 8.2-.6 8.7c1.4.6 5.5 3.2 7.3 2.4 1.7-.9 4.4-3.2 4.4-3.2s7.3.6 8.4 1.7c1.2 1.2.9 2.6-2 3.5-3 .9-5.9 3.5-5.3 5 .6 1.4.3 3.1 3 3.4 2.6.3 4.9-.3 4.9-.3s-.6 1.5-1.5 2c-.8.6-1.7.6-2 2.4-.3 1.7.9 5 3.2 4 2.3-.8 2.6.6 2.6.6s-3.5.3-4 3.8c-.6 3.5-2.4 7-.3 8.4 2 1.5 3.2 3.8 7.3 3.5 4-.3 9-5.5 9.3-7.3.3-1.7.3-4.6.6-5.5.3-.8 3.8-1.7 3.8-.6 0 1.2-1.2 0-1.5 4.4-.3 4.4-2.3 7 .9 7.8 3.2 1 10 2 12.3 1 2.3-1.2 4.6-3.3 5.2-6.2.6-2.9 2-1.4 6.4-2 4.4-.6 8 .6 8.2-3.5.3-4-2.3-9-3.5-11.3-1.2-2.3.9-2.6 0-6.7-.9-4-1.4-1.5-2-11-.6-9.6 0-14-5.3-19.5-5.2-5.5-6.4-6-7.9-5.2-1.4.9 1.8-1.5 5.6-3.2 3.8-1.7 3.8-3.8 4-5.5.4-1.8 9.4-.3 10.3-3.8.9-3.5 3.5-6 2.6-10.7-.9-4.7-2.3-6.1-2.6-10.8-.3-4.6 0-7.8-3.2-7.8s-7.3 1.4-8 2.3c-.5.9 2.4-4-4.9-5-7.3-.8-9.3-2.5-10.2 1.5-.9 4-3.8 6.1-2 9.3 1.7 3.2 3.2 4.4 1.1 4.7-2 .3-4 0-7-1.2-2.9-1.2-5-3.2-3.5-5.8l3.8-6.7s-1.4-1.7.6-5.2 3.2-9-.3-7.3c-3.5 1.8-2.6 3.8-4 7-1.5 3.2-3 5-4.2 5.5-1.1.6.6-5.8-1.1-7.8-1.8-2-2.4-7.9-5-8.1-2.6-.3-2.6-1.5-7-1.2-4.4.3-9 2.3-8.8 3.8.3 1.4.6 6 .6 6s-1.7 3.8-2.9 2.1c-1.2-1.7-1.5-2.6-2-6.4-.6-3.8-3-8.4-6.5-8.7-3.5-.3-8.4-.3-10.2 1.7-1.7 2-3 5.6-3 5.6s-1.6 1.9-2.8 3.8c-1.2 2-3.2 0-13.5-1.2-10.2-1.2-13.4-3.5-17.5-.6-4 2.9-2 3.5-6.1 5.2-4.1 1.8-8.2 1.5-8.5 3.2L46 61.6s-2-2-3-4.1c-.8-2 1.2-4-4.3-5-5.6-.8-10.6-3.1-12 0-1.5 3.2-3.5 6.4-2 8.5 1.4 2 2.6 3.7 3.4 4.6 1 .9 1.8 3 .3 2.3-1.4-.5-.5-2-3.5-2.3-2.9-.3-7.6-1.1-7.6 2.3 0 3.5 1.2 7.3 1.2 7.3l2 2.3z" fill="#6556A4" mask="url(#h)"/>
      </g>
      <path d="M312.4 47.1s-5.5 7.6-5.9 8.5c-.4.9-.7 2.4-1.3 2.4-.7 0-4-1.3-5 0-1.1 1.3-3 4.8-2.6 7.2.4 2.4 1.5 3.9.4 6.5-1 2.6-4.6 4.8-5.7 5-1 .2-6 .2-5.4 6 .6 6 3.7 8.1 7.2 8.5 3.5.5 5.6 0 7.6-1.7s4.4-1 2.4.6c-2 1.8-3.5 3.5-3.7 5.5-.2 2-2.4 4.5 1.3 5.2 3.7.6 9.6 1.7 12 .2 2.4-1.5 4-.2 4.4-2.4.4-2.2-.5-4.1.4-6 .9-2 1.3-1.4 4-.7 2.5.6 7.3 0 8.4-2.2 1.1-2.2 3-4.1 3-6.5 0-2.4-.8-5.4-3.8-4.1-3.1 1.3-5.3 1.5-4-.5 1.3-2 5.3-5 5.3-5s.8 1 0-4.3c-1-5.2-.7-10.6-6.6-11-5.1-.5-3.6-5.5-3.7-5.5 0 0-1-8.7-.9-11 .3-2.5 6.1-3.8 2.4-5.5-3.7-1.8-5-2-5.8.6-1 2.6.4 1.3-.5 4.2-.9 2.8-4 6-4 6" fill="#8775B5"/>
      <path d="M304.4 70.8c.8-1 7-2.6 8.5-2 1.6.7 0 4.8 0 4.8s.3 3.9-.6 4.3c-.9.5-2.7 1.5-1.6 2 1.1.4 3.8 1.5 3.8.4 0-1-.7-.6-.7-2.2 0-1.5 0-8.2 1-8 .8.3 4.8 1 6.5 2.2 1.8 1.3 5 4.3 5 5.4 0 1.1.7 2.4 0 3.7-.6 1.3-1.9 3.2-4.3 2.8-2.4-.4-2-2.8-4.2-1.7-2.2 1-1.3 1.5-2.2 4.5-.9 3-.5 5.4-4.2 4.7-3.7-.6-6.2 1.1-6.4-1.9-.2-3 3.1-5.2 1.8-6.9-1.3-1.7-.7 0-4.2.2s-5.5.7-5.5-2.1c0-2.9-1.3-5.9 1.5-7.2 2.9-1.3 5.8-3 5.8-3M319.9 59.5l-4.6 2.4c-1.3.7-5.5 1.5-7 0s-3-2.6-2.9-3.5c.3-.9 2.3-3.9 4.3-7.3 2-3.5 4.4-6 4.8-6.7.5-.6 2-2.6 2-3.7s-.2-1.3.2-3c.5-1.8-1-2.3 1.6-3.2 2.7-.9 4.4-2.9 4.8 0 .5 2.8 1.8 2.6 0 4.6-1.7 2-2.6 1-2.6 3.3 0 2.2.5 6.6.7 7.9.2 1.3 0 3.2.2 4.7.1 1.8 2.5 2.9 1.5 3.4-.8.4-3 1-3 1" fill="#6556A4"/>
      <path d="M380.5 33.2c-1 .4-2.8 1.8-3.5 4.4-.6 2.6-.6 4.6-1.5 5.5-.9.9-9.8 9.8-10.7 9.6-.9-.2-4-.9-5.3 1.1-1.3 2-3-2.2-4.8-3-1.7-1-5-3.8-9-.7-3.9 3-3.9 8.3-3.9 9.4 0 1-.2 3.7.9 4.8 1 1.1 4 2.9 1 2.9-2.8 0-4-2.2-7.2-1.4-3 1-7.8 1.4-7.8 6.2 0 4.8.2 9.6 4.3 11.1 4.2 1.6 6.6 1.1 10.1.7 3.5-.4 3.7 0 2.6.6-1 .7-3.5 1.8-5.4 3.8-2 2-3.8 4-2.2 6.1 1.5 2.2 2.4 4.4 5.5 4.2 3-.3 4.1-2.9 5.4-3.5 1.3-.7 3.5 2 5-.3 1.6-2.2-.6-7 2.9-6.5 3.5.4 4 3.3 6.8 1.5 2.8-1.7 7.2-5.3 6.6-8.3-.7-3-1.1-4.6-1.1-5.3 0-.6 8.7-6.8 9.6-9 .9-2.1 4.1-4.3 3.7-12.2-.4-7.9-1.5-11.2-.6-13 .8-1.7 2.1-.6 3.9-2.1 1.7-1.5 4.4-4.4 1-5.7-3.2-1.3-5.3-1.3-6.3-.9" fill="#8775B5"/>
      <path d="M347.4 69.8s2.5-4.1 4.5-5c2-.9 2.9-.9 5.5-.4 2.7.4 5.6 2.1 5.6 2.1l-5.1 6.3s-2.5-1-2.5.3-.4 2.6 1.1 2.3c1.6-.2 2.5 0 2.7-.6.2-.7 0-.7.4-1.5.5-.9 5-5.9 5-5.9s3.2.4 3.2 1.5.3 3.3-.6 4c-1 .6-3.4.6-4.7 2.3-1.3 1.8-2.4 5.7-4.2 6.5-1.8 1-3.8 2.9-4.9 2-1-.9-2.6-2.2-2.2-3.7.4-1.5 2-2 .9-3-1.1-1.1-1.3-.3-3.3.4-2 .7-6.5 2.8-6.5.7 0-2.2-1-2.9.5-3.7 1.5-1 3.3-1 3.5-2 .2-1 1.1-2.6 1.1-2.6M384.8 33.7s2.2-.1 2.9.7c.7 1 1.2 1.1.2 2.9-1 1.7-1.2 3-2.6 3.3-1.5.2-2 .3-2.9.8-1 .7-1 2.4-.9 3.4l.2 2a7.5 7.5 0 0 1-1.6-6.5c.8-3 .8-5.5 4.7-6.6" fill="#6556A4"/>
      <path d="M345.5 101.2c-.7 2-2 5.4-3.7 7.6-1.8 2.2-3.8 6.1-9.3 7.4a85.1 85.1 0 0 0-12 3.5 42 42 0 0 0-10.4 6.8c-1.7 1.7-5.4 5.4-7.6 5.7-2.2.2-3.5-.5-2.9-2.2.7-1.8 3.3-1.3 4.2-3 .9-1.8 2.4 0-.2-2.7-2.7-2.6-3.6-2.2-3.3-5.7.2-3.5-1-5.4 1.5-6 2.4-.7 2-1.4 2.6-3.1.7-1.8 2-3.5 4.6-3.3 2.7.2-.6-2.4-1.5-5.3-.9-2.8-2-5.4.4-6 2.5-.7 4.4-2 5.8.2 1.3 2.1 2.2 1.5 2 5.2-.3 3.7-.5 4.6 2.1 6.5 2.7 2 7.5 2 10.3 2 2.9 0 9-.7 10.6-2.6 1.5-2 .4.4 2-4.6 1.5-5 1.3-5.9 3-5 1.8.9 3.1.2 2.9 2.2-.2 2-1.1 2.4-1.1 2.4M363.4 90.9c1.1-.3 3.5-1.2 3.5 2s.9 3.2 3.5 1.2.9-4.4 5.6-2.6c4.7 1.7 7.3 4.6 7.3 7.3 0 2.6-5.9 5-5.6 8.2.3 3.2 3 2 5.9 5.2 3 3.2 5.3 2 1.8 6.5-3.6 4.3-6 7.9-9.1 7-3.3-.9-3.3-.6-6.8-2-3.5-1.5-4.7-.4-3.2 1.1s6.4 1.8.6 4.7c-5.9 2.9-9.7 2.9-12.3-1.2-2.7-4-1.2-3.8-2.4-6.4-1.1-2.7-5.8-3.2-6.1-6.5-.3-3.2-3-7.3-.3-8.7 2.6-1.5 6.4-1 7.3-1.8.9-.9-3 .6-3.5-1.7-.6-2.4-.9-5.3 1.7-8 2.7-2.6 5.6-3.5 7.7-3.7l4.4-.6" fill="#8775B5"/>
      <path d="M352.6 102.5c1.4-1.2 6.4-.6 6.4-.6s.9 5.8.6 7.2c-.3 1.4-2 3.2-1.2 3.5.9.2 1.5 1.4 2.3.2 1-1.1 0-1.4 0-2.5l.6-7.8s5 1.1 5.6 2.6c.5 1.4 1.4 2.3 3.4 5.4 2 3.2 3.5 4.6.3 5.2-3.2.6-3.2.6-5-.8-1.7-1.5-2.2-2-2.5 1.1-.3 3.2 1.7 7-2.4 5.2-4-1.7-4.3-.6-4-3.5.2-2.8.5-6.3-.6-8.6l-3.5-6.6" fill="#6556A4"/>
      <path d="M277.9 96.2c1.7-2.3 4.6-7.9 7.5-3.2 3 4.7 2.3 8.2 3.8 10.2 1.4 2 1.1 1.2 5 1.8 3.7.5 6.9-3.8 7.2 3.2.3 7-.3 11-3.2 11.6-3 .6-8.7-3.5-9.9-1.4-1.2 2 .6 2.3 1.2 6 .5 3.9 3.7 6.8-.9 8a30.6 30.6 0 0 1-12.2.8c-2.9-.5-4.3-5.5-5.5-7.3-1.2-1.7-4.6 1-8.1.3-3.5-.5-8.1-.3-7.9-4.6.3-4.4 1.2-7 3.5-8.2 2.3-1.2.9 0 1.8-3.2.8-3.2-.6-6.1 2.6-8.2 3.2-2 7-3.7 6-1.1-.8 2.6-1 5 .7 4.4 1.7-.6 2.9-.6 2.9-3.3 0-2.6 5.5-5.8 5.5-5.8" fill="#8775B5"/>
      <path d="M287.3 108.7c-2 0-4.7-.6-7.9-.9-3.2-.3-5.2.3-5.2.3s.3 2 2 2.9c1.8.9 4.7 1.2 3.2 2.3-1.4 1.2-2 1.8-2.9.6l-3.8-5s-3.7 1.8-5.5 2.4c-1.7.6-5.2-1.7-4 1.4 1.1 3.2 3.7 5.8 5.2 6.4 1.4.6 4.3.9 5-.3.5-1.1-1-.5 3.4-.5s6.7 1.1 6.1-1.5c-.6-2.6-2.3-5-.3-4 2 .8 4.7 3.7 6.1 1.4 1.5-2.3 3-3.8 1.5-4.4l-3-1.1" fill="#6556A4"/>
      <path d="M329.7 106.7c-2.6.9-2.3 1.8-1.8 4.8.4 3.1.3 5-.6 6.3-.9 1.3-8 5.2-10.1 8.5a26.3 26.3 0 0 0-3.5 11c.2 1-5.6 0-7.3 2.6-1.8 2.6-3.1 5.2-1.8 6.5 1.3 1.3 6.4 5.3 7.5 5 1.1-.2 3.3 2 5.3-.2 2-2.1 2.6-4.1 2.9-2.4.2 1.8-1.1 2.9-1.8 4.4-.7 1.5 1 5.7 4 7.4 2.8 1.8 10.3 3.8 12 2 1.8-1.7 1.8-2.4.3-4.6-1.6-2.2-3.5-4-2.4-4.4 1-.4 2 .5 2.8 1.8a6.7 6.7 0 0 0 6.8 3.3c4.2-.5 6.2.6 8.2-3 2-3.8 5-1.8 3-5.8s-2-3.7-4.6-4.8c-2.6-1-4.8-1.3-4.8-4 0-2.5-1.8-4 .7-6.7 2.4-2.6 5.2-1.5 4.6-5.5-.7-3.9-.7-6.5-5.5-6.5-4.9 0-5 3.3-6.4 2-1.3-1.4-4.2-4.7-4-8.4.3-3.7 3.3-4 1.6-6.7-1.8-2.9-3.8-2.9-3.8-2.9l-1.3.3z" fill="#8775B5"/>
      <path d="M318.5 134.6c.8-1.7 4.5-.8 5.3-.8 2.3.1 3.5 1.7 3.5 1.7s-.2 7.4-.4 8c-.3.7-2.4 1.5-.9 2 1.5.4 2.4.6 3-.2.7-.9 0-1.1-.2-2-.2-.8-.6-7.1.2-7.1 1 0 4.5.1 5.5 2.1.6 1.2 2.8 4.2 3.5 4.8.6.6 2.6-.4 3.4 2 1 2.3.7 4.7-.8 5a15 15 0 0 1-5.5-.3c-1-.4-2-.6-3-.2-1.1.4-1.5-.4-2.2 1.5-.6 2-2.6 4.5-3.9 3.2-1.3-1.3-2.6.3-3-1.9-.5-2.2.4-3.9.4-5.2 0-1.3-.7-3.2-2-2.6-1.3.7-2.6 1-2.8-.2-.2-1.3-.4-5.4-.4-5.4s-.5-2.7.3-4.4M337.3 124.4c-1.1.2-1.5 3.7-3.5.9-2-3-5.5-5.8-6.4-4.7-1 1-2.2 2.7-3.3 4.2-1.1 1.6-4.4 2.7-5 4.2-.7 1.5-.8 4-1.9 4.8-1 1-3.2 1.2-3.1 1 .6-4 3-8.9 4.5-10.2l6.8-6.4c.9-.6 2.4-4 2.2-4.8-.2-1-1.1-6.2.2-6.6 1.3-.5 3.6-1.8 5.3-.5 1.8 1.3 3.3.2 3.1 3.3-.2 3.1-2.2 4.5-2.5 5.6-.2 1.1 1 4.7 1.4 5.8.5 1 2.2 3.4 2.2 3.4" fill="#6556A4"/>
      <path d="M380.2 111.5c0-2.6 1-8.5 3.6-6.8 2.6 1.7 4 1.7 3 4.5-1.2 2.8-5.2 6.8-5.7 7.6-.6.9 1.4.6 2.5 6.3 1.1 5.6-1.1 16-1.1 16s5.6 1.8 7.3 3.7c1.7 2 4.3 4 3.4 6.5-.8 2.6-6 1.7-5.3 4 .5 2.2.5 2 2.2 2.2 1.7.3 4.7-.3 5.2 2s.8 5.1 0 6.8a24 24 0 0 1-4 6c-1.2.8-1 3.4-4.3 2.2-3.4-1.1-6.2-4.8-8-4.8-1.6 0-.8.3-1 3-.3 3-1.2 6-2.9 6.3-1.7.3-4.5-.6-4.5-.6s2.8 2.6-.3 2c-3.1-.5-6.2.9-8.2-4-2-4.7-2.3-8.4-.9-9.5 1.4-1.2 2.9-1.2 2.6-2.6-.3-1.4 1.1-2.5-2.6-1.7-3.7.9-8.5-1.1-8-4 .7-2.8 1-4.4 2.6-5.6 1.7-1.1 4.9-2.2 4.9-3 0-1-3.7-11.1-.3-18.4 3.4-7.4 11.3-13 15.3-14.2 4-1.1 4.5-4 4.5-4" fill="#8775B5"/>
      <path d="M367 144.7c2.2-.6 5.6-2.5 6.4-1.7.9.8 1.4 11.1 1.4 11.1s-3 .3-2.2 2c.8 1.7 3 3 4 2 .8-1.2 0-3.4 0-3.4s-2.3-10.6-.6-10.6c1.7 0 4.5-.3 5.9 2.2 1.4 2.5 3.9 3.4 3.9 6.7 0 3.4 0 7.8-1.4 8.4-1.4.5-5 2-5.9.5-.8-1.4-4-2.7-4.8-1.4-.8 1.4 0 5.9-3.6 4.5-3.7-1.4-4.2-.8-4.2-3.9 0-3 1.7-5.3 2-9.2.2-3.9-1-7.2-1-7.2" fill="#6556A4"/>
    </g>
  </g>
</svg>
