<?xml version="1.0" encoding="UTF-8"?>
<svg width="280px" height="254px" viewBox="0 0 280 254" version="1.1" xmlns="http://www.w3.org/2000/svg" xmlns:xlink="http://www.w3.org/1999/xlink">
    <!-- Generator: Sketch 47.1 (45422) - http://www.bohemiancoding.com/sketch -->
    <title>expressionFlowerClumpFooter</title>
    <desc>Created with Sketch.</desc>
    <defs>
        <polygon id="path-1" points="4.06575815e-20 59.0590069 4.06575815e-20 0.111324937 279.983982 0.111324937 279.983982 254 4.06575815e-20 254 4.06575815e-20 59.0590069 -9.75994048e-05 254.000031 279.9836 254.000031 279.9836 59.0590069"></polygon>
    </defs>
    <g id="Symbols" stroke="none" stroke-width="1" fill="none" fill-rule="evenodd">
        <g id="expressionFlowerClumpFooter">
            <g id="Page-1">
                <g id="Group-3">
                    <mask id="mask-2" fill="white">
                        <use xlink:href="#path-1"></use>
                    </mask>
                    <g id="Clip-2"></g>
                    <path d="M30.9372449,117.201806 C29.1790755,116.762264 25.2231945,115.885101 21.7068558,116.324003 C18.1905172,116.762264 16.4323478,116.762264 14.6741785,121.151922 C12.9160092,125.54094 14.2346362,129.051514 14.2346362,131.685564 C14.2346362,134.318975 12.0369245,137.830189 8.08104348,137.391287 C4.12516247,136.952385 3.2460778,135.63568 1.48790847,140.902501 C-0.27026087,146.169322 -0.709803204,149.680537 1.48790847,150.55834 C3.68562014,151.436144 4.56470481,152.313947 3.68562014,155.386259 C2.80653547,158.458572 1.9274508,162.847589 5.44378947,165.041458 C8.96012815,167.236607 13.3555515,169.431116 15.5532632,168.992214 C17.7509748,168.553312 19.0696018,168.553312 22.1463982,164.164295 C25.2231945,159.775277 28.7395332,161.091982 28.2999908,163.286491 C27.8604485,165.481 24.7836522,166.358804 24.3441098,169.431116 C23.9045675,172.503428 24.3441098,176.014642 30.9372449,178.648053 C37.5303799,181.281463 40.1676339,185.231579 45.4421419,180.40366 C50.7166499,175.575741 52.9143616,173.820134 52.9143616,171.624985 C52.9143616,169.431116 48.5189382,161.530884 48.5189382,161.530884 C48.5189382,161.530884 48.5189382,164.164295 53.3539039,164.603196 C58.1888696,165.041458 63.0238352,165.481 65.6610892,163.725393 C68.2983432,161.969786 70.0565126,157.580768 70.0565126,157.580768 C70.0565126,157.580768 72.6937666,159.775277 74.4519359,162.847589 C76.2101053,165.919902 81.9241556,169.431116 81.9241556,169.431116 C81.9241556,169.431116 80.1659863,168.992214 79.2869016,174.259035 C78.4078169,179.525856 78.8473593,186.109383 80.6055286,189.181695 C82.3636979,192.254008 86.7591213,195.32632 89.8359176,193.570713 C92.912714,191.815106 95.549968,183.475972 95.549968,180.40366 C95.549968,177.330708 91.1545446,168.992214 95.1104256,172.503428 C99.0663066,176.014642 101.264018,182.159267 106.098984,183.914234 C110.93395,185.670481 116.208458,185.231579 116.208458,185.231579 C116.208458,185.231579 113.131661,189.619957 114.450288,191.815106 C115.768915,194.009615 114.450288,196.643025 120.603881,197.081927 C126.757474,197.520829 137.30649,195.32632 138.185574,192.692909 C139.064659,190.059499 141.262371,185.670481 141.262371,182.598169 C141.262371,179.525856 140.383286,172.503428 140.383286,172.503428 C140.383286,172.503428 146.097336,176.014642 148.73459,176.453544 C151.371844,176.892446 157.525437,174.259035 157.525437,174.259035 C157.525437,174.259035 156.646352,179.525856 159.723149,181.720365 C162.799945,183.914234 167.634911,184.353776 167.634911,184.353776 C167.634911,184.353776 164.558114,196.643025 166.755826,197.520829 C168.953538,198.398632 175.10713,202.348748 177.744384,201.032043 C180.381638,199.715338 184.337519,196.203484 184.337519,196.203484 C184.337519,196.203484 195.326078,197.081927 197.084247,198.837534 C198.842416,200.593141 198.402874,202.78765 194.007451,204.104355 C189.612027,205.42106 185.216604,209.371176 186.095689,211.565685 C186.974773,213.760194 186.535231,216.393605 190.491112,216.832506 C194.446993,217.271408 197.963332,216.393605 197.963332,216.393605 C197.963332,216.393605 197.084247,218.588113 195.76562,219.465917 C194.446993,220.34372 193.128366,220.34372 192.688824,222.977131 C192.249281,225.610542 194.007451,230.438461 197.523789,229.121756 C201.040128,227.80505 201.47967,229.999559 201.47967,229.999559 C201.47967,229.999559 196.205162,230.438461 195.326078,235.705282 C194.446993,240.972103 191.809739,246.238924 194.886535,248.433433 C197.963332,250.627942 199.721501,254.139156 205.875094,253.700254 C212.028686,253.261353 219.500906,245.361121 219.940449,242.72771 C220.379991,240.0943 220.379991,235.705282 220.819533,234.388577 C221.259076,233.071872 226.533584,231.755166 226.533584,233.510773 C226.533584,235.26638 224.775414,233.510773 224.335872,240.0943 C223.89633,246.677826 220.819533,250.627942 225.654499,251.944647 C230.489465,253.261353 240.598938,255.01696 244.115277,253.261353 C247.631616,251.505746 251.147954,248.433433 252.027039,244.044416 C252.906124,239.655398 255.103835,241.849907 261.69697,240.972103 C268.290105,240.0943 273.564613,241.849907 274.004156,235.705282 C274.443698,229.560657 270.487817,222.099327 268.729648,218.588113 C266.971478,215.076899 270.048275,214.637997 268.729648,208.492733 C267.411021,202.348748 266.531936,206.298864 265.652851,191.815106 C264.773767,177.330708 265.652851,170.747821 257.741089,162.408688 C249.829327,154.069554 248.071158,153.191751 245.873446,154.508456 C243.675735,155.825161 248.5107,152.313947 254.224751,149.680537 C259.938801,147.046486 259.938801,143.974814 260.378343,141.340763 C260.817886,138.707992 274.443698,140.902501 275.762325,135.63568 C277.080952,130.368859 281.036833,126.418743 279.718206,119.396315 C278.399579,112.373887 276.201867,110.178738 275.762325,103.15695 C275.322783,96.1345214 275.762325,91.306602 270.927359,91.306602 C266.092394,91.306602 259.938801,93.5011108 259.059716,94.8178161 C258.180632,96.1345214 262.576055,88.6731914 251.587497,87.3564861 C240.598938,86.0397809 237.522142,83.4063703 236.203515,89.550995 C234.884888,95.6956196 230.489465,98.767932 233.126719,103.595851 C235.763973,108.423771 237.961684,110.178738 234.884888,110.61828 C231.808092,111.057181 228.731295,110.61828 224.335872,108.862673 C219.940449,107.107065 216.863652,104.034753 219.061364,100.084637 C221.259076,96.1345214 224.775414,89.9898967 224.775414,89.9898967 C224.775414,89.9898967 222.577703,87.3564861 225.654499,82.089665 C228.731295,76.8228438 230.489465,68.4837103 225.214957,71.1171209 C219.940449,73.7505315 221.259076,76.8228438 219.061364,81.6507632 C216.863652,86.4786826 214.665941,89.1120932 212.907771,89.9898967 C211.149602,90.8677003 213.786856,81.2118615 211.149602,78.1395491 C208.512348,75.0672368 207.633263,66.2892015 203.677382,65.8502997 C199.721501,65.411398 199.721501,63.6557909 193.128366,64.0946927 C186.535231,64.5335945 179.502554,67.605267 179.942096,69.8004156 C180.381638,71.9949244 180.821181,79.0173526 180.821181,79.0173526 C180.821181,79.0173526 178.183927,84.7230756 176.425757,82.089665 C174.667588,79.4562544 174.228046,78.1395491 173.348961,72.4338262 C172.469876,66.7281033 168.953538,59.7056751 163.67903,59.2667733 C158.404522,58.8278715 150.932302,58.8278715 148.295048,61.8995441 C145.657794,64.9724962 143.899625,70.2393174 143.899625,70.2393174 C143.899625,70.2393174 141.307863,73.1280076 139.527268,76.073 C137.746032,79.0173526 134.669236,75.9450403 119.285254,74.1887935 C103.901272,72.4338262 99.0663066,68.9226121 92.912714,73.3116297 C86.7591213,77.7006474 89.8359176,78.5784509 83.6823249,81.2118615 C77.5287323,83.845272 71.3751396,83.4063703 70.9355973,86.0397809 C70.4960549,88.6731914 69.1774279,93.0622091 69.1774279,93.0622091 C69.1774279,93.0622091 66.1006316,89.9898967 64.7820046,86.9175844 C63.4633776,83.845272 66.5401739,80.7729597 58.1888696,79.4562544 C49.8375652,78.1395491 42.3653455,74.628335 40.1676339,79.4562544 C37.9699222,84.2841738 34.8931259,89.1120932 37.0908375,92.1837657 C39.2885492,95.2567179 41.0467185,97.8894887 42.3653455,99.2068338 C43.6839725,100.523539 45.0025995,103.595851 42.8048879,102.718048 C40.6071762,101.840244 41.9258032,99.6457355 37.5303799,99.2068338 C33.1349565,98.767932 26.1022792,97.4512267 26.1022792,102.718048 C26.1022792,107.984869 27.8604485,113.690592 27.8604485,113.690592 L30.9372449,117.201806 Z" id="Fill-1" fill="#6556A4" mask="url(#mask-2)"></path>
                </g>
                <path d="M108.498641,21.3953922 C108.498641,21.3953922 100.291144,32.8889732 99.6345184,34.2019235 C98.977893,35.5161504 98.6498994,37.8146113 97.6646424,37.8146113 C96.6800234,37.8146113 91.7556525,35.8442284 90.1137701,37.8146113 C88.4725258,39.7849942 85.5180309,45.0387102 86.1746562,48.651398 C86.8306434,52.2634475 88.4725258,54.5619083 86.8306434,58.5026741 C85.1893991,62.4434399 79.9370346,65.726773 78.2951522,66.0554893 C76.6539079,66.3835673 69.1030356,66.3835673 70.0882927,75.2499712 C71.0729116,84.116375 75.669289,87.3997082 80.9216535,88.0565025 C86.1746562,88.713935 89.4577829,88.0565025 92.4122778,85.4299636 C95.3667727,82.8027864 98.977893,83.7876587 96.0233981,86.4148359 C93.0689031,89.042013 90.7703954,91.6691902 90.4424018,94.6250837 C90.1137701,97.5797006 86.8306434,101.520466 92.4122778,102.505339 C97.9932741,103.490849 106.857397,105.132516 110.468517,102.834055 C114.079638,100.534956 116.377507,102.505339 117.034133,99.2220055 C117.690758,95.938034 116.377507,92.9821405 117.690758,90.0268853 C119.004009,87.0722684 119.660634,88.0565025 123.600386,89.042013 C127.5395,90.0268853 134.762378,89.042013 136.403623,85.7580416 C138.045505,82.4740701 141,79.5194532 141,75.9067655 C141,72.294716 139.686749,67.6971559 135.090372,69.6675388 C130.494633,71.6379217 127.211506,71.9659997 129.181382,69.0107445 C131.151258,66.0554893 137.060248,61.4585676 137.060248,61.4585676 C137.060248,61.4585676 138.373499,62.7715179 137.060248,54.8906246 C135.746997,47.0090931 136.065419,38.9258638 127.211506,38.1426893 C119.455797,37.4571722 121.741543,29.9305266 121.63051,29.933718 C121.63051,29.933718 119.988627,16.7984705 120.317259,13.186421 C120.645891,9.57373322 129.509376,7.60398863 123.928379,4.97617317 C118.347383,2.34963428 116.377507,2.02091799 115.064895,5.96168375 C113.751006,9.90244951 115.720882,7.93206663 114.407631,12.2009104 C113.095019,16.4697542 108.498641,21.3953922 108.498641,21.3953922" id="Fill-4" fill="#8775B5"></path>
                <path d="M96.4002811,57.1740143 C97.7266423,55.5420644 107.010526,53.2565733 109.331336,54.2356162 C111.652791,55.2152938 109.331336,61.4169569 109.331336,61.4169569 C109.331336,61.4169569 109.663249,67.2931184 108.336888,67.9466597 C107.010526,68.5989321 104.358448,70.2315164 106.016078,70.8837887 C107.673707,71.5373301 111.652791,73.1692799 111.652791,71.5373301 C111.652791,69.9047457 110.658342,70.5576526 110.658342,68.2727959 C110.658342,65.9879392 110.658342,55.8675661 111.984703,56.1943367 C113.31042,56.5211074 119.279046,57.5007849 121.931768,59.4588709 C124.583846,61.4169569 129.558023,65.9879392 129.558023,67.6198891 C129.558023,69.2518389 130.552471,71.2105594 129.558023,73.1692799 C128.56293,75.1280004 126.573388,78.0657639 122.926217,77.4128571 C119.279046,76.7599502 119.942226,73.1692799 116.626323,74.8012297 C113.31042,76.4338141 114.636781,77.0867209 113.31042,81.6564342 C111.984703,86.2267821 112.647239,89.8174524 107.010526,88.8377749 C101.373813,87.8587319 97.7266423,90.4709937 97.3947297,85.9000114 C97.0634617,81.3302981 102.036994,78.0657639 100.047452,75.4547711 C98.0585549,72.8425092 99.0530035,75.4547711 93.7475586,75.7809072 C88.4427582,76.1070434 85.4581232,76.7599502 85.4581232,72.5163731 C85.4581232,68.2727959 83.4692258,63.7024481 87.7795776,61.7437276 C92.0899293,59.7850071 96.4002811,57.1740143 96.4002811,57.1740143" id="Fill-6" fill="#6556A4"></path>
                <path d="M119.7427,40.0613016 C119.7427,40.0613016 114.813967,42.7144307 112.842346,43.7099183 C110.870725,44.7047611 104.627579,46.0316481 102.327673,43.7099183 C100.027768,41.3881885 97.7023159,39.7092703 98.0312388,38.3823834 C98.3601616,37.0554964 101.451397,32.5429203 104.384239,27.3249921 C107.317081,22.107064 111.066163,18.2579313 111.722731,17.2630885 C112.379938,16.2676009 114.680482,13.2817829 114.680482,11.6234966 C114.680482,9.96456549 114.352198,9.63316613 115.008766,6.97874748 C115.665973,4.32561833 113.499553,3.57319993 117.442795,2.24695772 C121.386037,0.920070775 124.014226,-2.06574724 124.671433,2.24695772 C125.32864,6.55901794 127.300261,6.22697383 124.671433,9.21214709 C122.043244,12.1979651 120.728191,10.8710782 120.728191,14.1876508 C120.728191,17.5055129 121.386037,24.1393029 121.714321,26.1296333 C122.043244,28.1199638 121.845252,30.9568455 122.018974,33.2959834 C122.214412,35.9291254 125.761669,37.5880565 124.319518,38.3823834 C123.114319,39.0458268 119.7427,40.0613016 119.7427,40.0613016" id="Fill-8" fill="#6556A4"></path>
                <path d="M211.086833,0.361807981 C209.58504,0.945862888 206.803681,3.0087088 205.815507,6.98002487 C204.826694,10.9513409 204.826694,13.9295064 203.508702,15.2532784 C202.190711,16.5770504 188.682259,30.1453921 187.364267,29.8141274 C186.046276,29.4828628 181.433305,28.4897122 179.456318,31.4685209 C177.479971,34.4466863 174.843988,28.159734 172.208005,26.8353188 C169.572022,25.51219 164.629874,21.2096093 158.699553,25.8428114 C152.768592,30.4753702 152.768592,38.4180024 152.768592,40.0723958 C152.768592,41.7274324 152.439414,45.6981053 154.086583,47.3531419 C155.733752,49.0075353 160.017545,51.6550794 155.733752,51.6550794 C151.4506,51.6550794 149.473613,48.3462925 144.861283,49.6694213 C140.248313,50.9931934 133,51.6550794 133,58.9358255 C133,66.2159284 133.329178,73.4960313 139.589317,75.812954 C145.849456,78.1292334 149.473613,77.4673474 154.745579,76.8054614 C160.017545,76.1435754 160.346722,76.8054614 158.699553,77.798612 C157.051744,78.7911194 153.427587,80.4455128 150.462427,83.4243215 C147.497266,86.4024869 144.861283,89.3812956 147.167448,92.6900824 C149.473613,95.9995125 150.791604,99.3082993 155.404574,98.9770347 C160.017545,98.6470565 161.664714,94.6757405 163.641701,93.6825898 C165.618048,92.6900824 168.913027,96.6613985 171.219832,93.3513252 C173.525997,90.0425384 170.231018,82.7624355 175.502984,83.4243215 C180.77431,84.0855643 181.433305,88.388145 185.717098,85.7406009 C190.00025,83.0930569 196.589567,77.798612 195.601394,73.1654099 C194.61258,68.5322078 193.954225,66.2159284 193.954225,65.223421 C193.954225,64.2302704 207.132859,54.9645094 208.45085,51.6550794 C209.768842,48.3462925 214.710989,45.0368625 214.051994,33.1235575 C213.393638,21.2096093 211.745829,16.2457858 213.06382,13.5982418 C214.381812,10.9513409 216.358799,12.6057344 218.994782,10.2894549 C221.630125,7.97253227 225.584099,3.67123804 220.641951,1.68558 C215.699803,-0.300078031 212.589266,-0.222890158 211.086833,0.361807981" id="Fill-10" fill="#8775B5"></path>
                <path d="M161.254493,55.6453782 C161.254493,55.6453782 164.925989,49.4033459 167.930531,48.0891666 C170.934424,46.7743488 172.269631,46.7743488 176.274606,47.432077 C180.280229,48.0891666 184.619329,50.7168866 184.619329,50.7168866 L176.942858,60.2443671 C176.942858,60.2443671 173.270713,58.6019623 173.270713,60.5732312 C173.270713,62.5445001 172.603109,64.515769 174.940047,64.1869049 C177.276336,63.8580408 178.611543,64.1869049 178.945021,63.2015898 C179.279147,62.215636 178.945021,62.215636 179.612625,60.9014567 C180.280229,59.5872775 186.956267,52.0317044 186.956267,52.0317044 C186.956267,52.0317044 191.962971,52.6881555 191.962971,54.3305603 C191.962971,55.9736037 192.296448,59.2590519 190.96189,60.2443671 C189.626033,61.2303208 185.954537,61.2303208 183.951725,63.8580408 C181.948914,66.487038 180.280229,72.4002062 177.609813,73.7143854 C174.940047,75.0285647 171.935505,77.9845103 170.26682,76.6709695 C168.598135,75.3567903 166.261197,73.3855213 166.928801,71.0860269 C167.596405,68.7858939 169.932694,68.1294428 168.264009,66.487038 C166.595323,64.8439946 166.261197,66.1581739 163.257304,67.143489 C160.253411,68.1294428 153.577373,71.4142524 153.577373,68.1294428 C153.577373,64.8439946 151.908688,63.8580408 154.244977,62.5445001 C156.581266,61.2303208 159.25233,61.2303208 159.585808,59.5872775 C159.919285,57.9448726 161.254493,55.6453782 161.254493,55.6453782" id="Fill-12" fill="#6556A4"></path>
                <path d="M217.47405,1.00487855 C217.47405,1.00487855 220.81343,0.857653844 221.82921,2.18074745 C222.845626,3.50448396 223.716658,3.79829046 222.119343,6.44447767 C220.522662,9.09066487 220.377914,11.1485962 218.200333,11.4424027 C216.022118,11.7362092 215.169497,11.9020781 213.953735,12.6922054 C212.360863,13.7272786 212.361498,16.2969604 212.538625,17.9112889 C212.719561,19.5648345 212.883355,21.0537969 212.828757,20.9985073 C211.627596,19.7814926 209.054496,15.4116835 210.36041,11.0020144 C211.667593,6.59105946 211.667593,2.76900335 217.47405,1.00487855" id="Fill-14" fill="#6556A4"></path>
                <path d="M158.311581,103.070459 C157.320622,106.040804 155.338061,111.321988 152.694647,114.622728 C150.051233,117.922826 147.077713,123.864158 138.817365,125.844602 C130.557017,127.825046 125.600936,129.145342 120.644856,131.125144 C115.688775,133.105588 107.759175,138.716525 105.115761,141.357117 C102.472347,143.997709 96.8554125,149.608646 93.5511447,149.939041 C90.2475192,150.268153 88.2649586,149.278251 89.2559178,146.63766 C90.2475192,143.997709 94.2119983,144.657857 95.5337054,142.017265 C96.8554125,139.376673 99.1680788,142.017265 95.2035997,138.056377 C91.2384784,134.095489 89.9167713,134.756279 90.2475192,129.475095 C90.5776249,124.194553 88.9251699,121.223566 92.5601855,120.233665 C96.1945589,119.243122 95.5337054,118.253221 96.5246646,115.612629 C97.516266,112.972679 99.4988267,110.331445 103.463948,110.66184 C107.428427,110.992235 102.472347,107.031347 101.150639,102.740064 C99.8289323,98.4494231 98.1771196,94.4891767 101.811493,93.498634 C105.445866,92.5087328 108.419386,90.5282888 110.401947,93.8290287 C112.384508,97.1291271 113.706215,96.1392259 113.376109,101.750163 C113.045361,107.3611 112.715255,108.681396 116.679734,111.651741 C120.644856,114.622728 127.913603,114.622728 132.209472,114.622728 C136.504699,114.622728 145.756006,113.632185 148.068672,110.66184 C150.381981,107.690853 148.730168,111.321988 151.042835,103.730607 C153.355501,96.1392259 153.025395,94.8189299 155.668167,96.1392259 C158.311581,97.4595219 160.294142,96.4696207 159.964036,99.4399658 C159.633288,102.410311 158.311581,103.070459 158.311581,103.070459" id="Fill-16" fill="#8775B5"></path>
                <path d="M185.234699,87.5027665 C187.000362,87.0598955 190.531689,85.733861 190.531689,90.5983511 C190.531689,95.4628411 191.855936,95.4628411 195.828679,92.3672566 C199.801421,89.2710273 197.152926,85.733861 204.215579,88.3872192 C211.278232,91.0399328 215.250975,95.4628411 215.250975,99.4422338 C215.250975,103.422271 206.422658,106.960727 206.864074,111.824572 C207.30549,116.689062 211.278232,114.920157 215.692391,119.785291 C220.106549,124.649781 223.637875,122.880876 218.340885,129.514271 C213.043896,136.147667 209.512569,141.453739 204.656995,140.127704 C199.801421,138.80038 199.801421,139.243251 194.504431,137.03212 C189.207441,134.820343 187.441778,136.589249 189.648857,138.80038 C191.855936,141.012157 199.360005,141.453739 190.531689,145.876647 C181.703373,150.298911 175.964967,150.298911 171.992225,144.107742 C168.019482,137.916572 170.226561,138.358799 168.460898,134.378761 C166.695235,130.398724 159.632582,129.514271 159.191166,124.649781 C158.74975,119.785291 154.777008,113.594122 158.74975,111.38299 C162.722492,109.171214 168.460898,110.055667 169.785145,108.729632 C171.109393,107.402953 165.370987,109.614085 164.488156,106.076274 C163.605324,102.537818 163.163908,98.1161993 167.136651,94.136162 C171.109393,90.1554801 175.523551,88.8294456 178.613462,88.3872192 C181.703373,87.9449929 185.234699,87.5027665 185.234699,87.5027665" id="Fill-18" fill="#8775B5"></path>
                <path d="M169,105.08669 C171.192018,103.347986 178.644879,104.217338 178.644879,104.217338 C178.644879,104.217338 179.96009,112.910858 179.521686,115.083604 C179.083283,117.257618 176.452861,119.865674 177.768072,120.30035 C179.083283,120.734392 179.96009,122.473096 181.2753,120.734392 C182.590511,118.996322 181.2753,118.561646 181.2753,116.822308 C181.2753,115.083604 182.152108,105.08669 182.152108,105.08669 C182.152108,105.08669 189.604969,106.825394 190.481776,108.998774 C191.358583,111.172154 192.673794,112.476182 195.742619,117.257618 C198.811444,122.039054 201.003462,124.212434 196.181022,125.081786 C191.358583,125.951138 191.358583,125.951138 188.728161,123.777758 C186.09774,121.603744 185.220933,120.734392 184.782529,125.516462 C184.344126,130.297898 187.412951,135.948685 181.2753,133.340629 C175.13765,130.732574 174.699247,132.471277 175.13765,128.123884 C175.576054,123.777758 176.014457,118.561646 174.260843,115.083604 C172.507229,111.60683 169,105.08669 169,105.08669" id="Fill-20" fill="#6556A4"></path>
                <path d="M56.5226363,95.588183 C59.143127,92.0624429 63.5106116,83.6888103 67.8780961,90.7402904 C72.2455807,97.7917705 71.3720838,103.080381 73.5558261,106.165403 C75.7395684,109.250426 75.3028199,107.928273 80.9805498,108.809708 C86.6582798,109.691143 91.4625128,103.080381 91.8992612,113.657601 C92.3360097,124.234821 91.4625128,130.404224 87.0950282,131.285659 C82.7275437,132.167736 73.9925745,125.997691 72.2455807,129.082713 C70.4985869,132.167736 73.1190776,132.608454 73.9925745,138.337781 C74.8660714,144.067109 79.6703045,148.473641 72.6823292,150.236511 C65.6943539,152.000024 58.7063786,152.440741 54.338894,151.559306 C49.9714095,150.677871 47.7876672,143.185674 46.0406733,140.541369 C44.2936795,137.896421 39.0526981,141.862879 33.8117166,140.982086 C28.5707351,140.100651 21.5827598,140.541369 22.0195083,133.930606 C22.4562567,127.319843 23.7665021,123.353386 27.2604897,121.590516 C30.7544774,119.827003 28.5707351,121.590516 29.8809805,116.742623 C31.1912258,111.894731 29.0074836,107.486913 33.8117166,104.402533 C38.6159496,101.317511 44.2936795,98.6732055 42.9834342,102.639663 C41.6731888,106.605478 41.2364403,110.131861 43.8569311,109.250426 C46.4774218,108.368991 48.2244156,108.368991 48.2244156,104.402533 C48.2244156,100.436076 56.5226363,95.588183 56.5226363,95.588183" id="Fill-22" fill="#8775B5"></path>
                <path d="M70.7117893,114.439274 C67.6451613,114.439274 63.7023539,113.561868 58.883367,113.122525 C54.0643802,112.684461 50.9977522,113.561868 50.9977522,113.561868 C50.9977522,113.561868 51.4358419,116.63279 54.0643802,117.94826 C56.6929185,119.265009 61.0738156,119.703073 58.883367,121.458525 C56.6929185,123.213338 55.816739,124.090744 54.5024699,122.335932 C53.1882008,120.581119 48.8073036,114.877977 48.8073036,114.877977 C48.8073036,114.877977 43.1121373,117.510196 40.483599,118.387603 C37.8550607,119.265009 32.5979842,115.755384 34.350343,120.581119 C36.1027019,125.406214 40.0455093,129.354543 42.2359579,130.23195 C44.4264065,131.109356 48.8073036,131.548699 49.683483,129.793886 C50.5596625,128.039073 48.3692139,128.91648 54.9405596,128.91648 C61.5119053,128.91648 65.0166231,130.671292 64.1404436,126.722964 C63.2642642,122.774635 60.6357259,119.265009 63.7023539,120.581119 C66.7689819,121.897228 70.7117893,126.283621 72.9022379,122.774635 C75.0926865,119.265009 77.2831351,117.070854 75.0926865,116.194087 C72.9022379,115.31668 70.7117893,114.439274 70.7117893,114.439274" id="Fill-24" fill="#6556A4"></path>
                <path d="M134.605169,111.421569 C130.62863,112.744754 131.143893,114.140557 131.806649,118.769456 C132.469406,123.398356 132.263301,126.208598 130.937788,128.192412 C129.612919,130.176227 119.008815,136.127026 115.695676,141.08624 C112.381894,146.046096 110.062568,155.964524 110.393624,157.617381 C110.724681,159.270238 102.10949,157.617381 99.4584641,161.585009 C96.8074381,165.551994 94.8198127,169.519623 96.8074381,171.503437 C98.7957076,173.487251 106.417085,179.438693 108.074299,179.107736 C109.730868,178.777421 113.04465,182.083136 116.026733,178.777421 C119.008815,175.471065 120.003272,172.495022 120.334328,175.140108 C120.665384,177.785193 118.677759,179.438693 117.683946,181.752179 C116.689489,184.06695 119.340515,190.348706 123.64811,192.993792 C127.955705,195.638877 139.221922,198.614277 141.872948,195.969191 C144.523974,193.324106 144.523974,192.33252 142.204004,189.026163 C139.884678,185.719807 136.902596,183.075364 138.559165,182.414093 C140.215735,181.752179 141.541892,183.075364 142.866761,185.058535 C144.192274,187.042349 146.8433,190.67902 153.139164,190.018392 C159.435029,189.356478 162.417111,191.009977 165.399837,185.389492 C168.38192,179.768365 173.021215,182.744407 170.038489,176.793607 C167.056407,170.842165 167.056407,171.173122 163.079868,169.519623 C159.103973,167.866766 155.79019,167.535809 155.79019,163.568823 C155.79019,159.601195 153.139164,157.286424 156.784003,153.319438 C160.429486,149.35181 164.737081,151.00531 163.742624,145.053868 C162.748811,139.102426 162.748811,135.134798 155.45849,135.134798 C148.168813,135.134798 147.837112,140.094654 145.849487,138.11084 C143.861217,136.127026 139.575521,131.149176 139.907221,125.528691 C140.238277,119.908205 144.85503,119.596528 142.204004,115.297942 C139.553622,111 136.570896,111 136.570896,111 L134.605169,111.421569 Z" id="Fill-26" fill="#8775B5"></path>
                <path d="M117.717169,153.600955 C118.917906,150.985843 124.394435,152.343592 125.702767,152.419199 C129.181464,152.61997 130.943096,155.034311 130.943096,155.034311 C130.943096,155.034311 130.615854,166.147905 130.288612,167.128254 C129.960733,168.109239 126.685129,169.416796 128.977734,170.070574 C131.270975,170.723717 132.581216,171.050923 133.563579,169.743367 C134.546579,168.435811 133.563579,168.109239 133.2357,166.801048 C132.908458,165.494127 132.253974,156.014661 133.563579,156.014661 C134.873821,156.014661 140.209649,156.215433 141.75227,159.282916 C142.646138,161.059999 146.010237,165.494127 146.9926,166.474476 C147.975599,167.455461 150.923325,165.820698 152.233566,169.416796 C153.543808,173.012258 153.216566,176.60772 150.923325,176.934927 C148.63072,177.261498 144.372754,177.261498 142.734633,176.60772 C141.09715,175.953942 139.786908,175.626735 138.149425,176.280513 C136.511941,176.934927 135.85682,175.626735 134.873821,178.569054 C133.891458,181.510738 130.943096,185.433407 128.977734,183.472073 C127.013008,181.510738 125.047646,183.798644 124.392525,180.530389 C123.737404,177.261498 125.047646,174.646385 125.047646,172.685051 C125.047646,170.723717 124.065283,167.782032 122.099921,168.762382 C120.134558,169.743367 118.169196,170.397145 117.841317,168.435811 C117.514075,166.474476 117.186833,160.263901 117.186833,160.263901 C117.186833,160.263901 116.515796,156.215433 117.717169,153.600955" id="Fill-28" fill="#6556A4"></path>
                <path d="M146,138.157715 C144.341384,138.490894 143.677808,143.815939 140.692041,139.489138 C137.705628,135.16169 132.382192,130.779897 131.055686,132.443853 C129.728535,134.108455 127.75264,136.49376 126.094024,138.822779 C124.434762,141.153093 119.516952,142.836457 118.521266,145.166771 C117.526225,147.497084 117.467542,151.138119 115.808925,152.469542 C114.150309,153.800965 110.943994,154.220835 111.000743,153.894773 C112.033187,147.977768 115.476815,140.488029 117.799652,138.490894 C120.121844,136.49376 126.77888,129.892282 128.106031,128.894038 C129.433182,127.895148 131.734093,122.846997 131.401983,121.515574 C131.070518,120.184151 129.743367,112.19626 131.734093,111.530548 C133.724175,110.86419 137.042053,108.868349 139.696355,110.86419 C142.350657,112.861325 144.672849,111.197369 144.341384,115.85735 C144.009273,120.516683 140.972561,122.643855 140.640451,124.30781 C140.30834,125.971765 142.041117,131.371857 142.704693,133.035812 C143.368268,134.699767 146,138.157715 146,138.157715" id="Fill-30" fill="#6556A4"></path>
                <path d="M210.580003,118.666443 C210.580003,114.822963 211.944611,105.91328 215.953148,108.44606 C219.961685,110.979482 222.093885,110.979482 220.388125,115.250016 C218.682365,119.52055 212.712203,125.499298 211.859323,126.780458 C211.006443,128.061618 213.991524,127.634565 215.697284,136.175633 C217.403044,144.716059 213.991524,160.517034 213.991524,160.517034 C213.991524,160.517034 222.520325,163.078713 225.078325,166.068086 C227.637607,169.05746 231.474926,172.046834 230.195606,175.890315 C228.916286,179.733795 221.241005,178.452635 222.093885,181.869062 C222.946766,185.284847 222.946766,184.857794 225.504765,185.284847 C228.064047,185.711901 232.575975,184.843666 233.305092,188.267157 C234.033567,191.69129 234.460007,195.961182 233.180686,198.524145 C231.902007,201.085823 228.916286,206.210464 227.211166,207.491624 C225.504765,208.772784 225.838222,212.710024 220.767753,210.954931 C215.697284,209.199838 211.432883,203.648143 208.874243,203.648143 C206.315602,203.648143 207.594922,204.075197 207.168482,208.345731 C206.742042,212.616265 205.462722,217.31321 202.904081,217.740263 C200.346082,218.167317 196.081681,216.886157 196.081681,216.886157 C196.081681,216.886157 200.346082,220.730279 195.655241,219.876172 C190.9644,219.021424 186.273559,221.157333 183.288478,213.897425 C180.303398,206.637517 179.876958,201.085823 182.009158,199.378252 C184.141359,197.669396 186.273559,197.669396 185.847119,195.534129 C185.420679,193.398862 187.552879,191.69129 182.009158,192.971808 C176.465437,194.252969 169.215955,191.264237 170.068836,186.993061 C170.921716,182.723169 171.348156,180.160849 173.906796,178.452635 C176.465437,176.744421 181.156278,175.036208 181.156278,173.755048 C181.156278,172.473887 175.612557,157.100607 180.729838,145.997219 C185.847119,134.894473 197.7868,126.353405 203.756962,124.645191 C209.727123,122.936335 210.580003,118.666443 210.580003,118.666443" id="Fill-32" fill="#8775B5"></path>
                <path d="M190.690177,168.838634 C194.07053,167.99591 199.14106,165.046377 200.408057,166.310463 C201.676325,167.574548 202.521413,183.164302 202.521413,183.164302 C202.521413,183.164302 197.873427,183.585664 199.14106,186.113835 C200.408057,188.642006 203.789046,190.748815 205.056043,189.063368 C206.323675,187.37792 205.056043,184.007026 205.056043,184.007026 C205.056043,184.007026 201.676325,167.99591 204.21159,167.99591 C206.746855,167.99591 210.971661,167.574548 213.084382,171.366171 C215.197103,175.159061 219,176.423147 219,181.478855 C219,186.535197 219,193.276352 216.887279,194.119076 C214.774558,194.962433 209.281484,197.069242 208.014487,194.962433 C206.746855,192.85499 202.098869,190.748815 200.830601,192.85499 C199.563604,194.962433 200.830601,201.703589 195.338162,199.597413 C189.845088,197.490604 189,198.333328 189,193.697714 C189,189.063368 191.535265,185.692473 191.957809,179.793408 C192.380353,173.894342 190.690177,168.838634 190.690177,168.838634" id="Fill-34" fill="#6556A4"></path>
            </g>
        </g>
    </g>
</svg>