<svg width="525" height="592" xmlns="http://www.w3.org/2000/svg"><path d="M490 140.2l-9.4 1.9c1-.2 3.8-6.5 3.8-6.5l5.6 4.6zm-50 90.3l-1.5-.8-6.1-1.8s3.8-2.5 4.7-4.2c.8-1.8.4-4.9-.1-7.6-.6-2.7-3-5.4-3-5.4s-2.7 1.6-4.6 3.4c-2 1.7-2.3 3-2.6 4.9-.5 2 .8 6.6.8 6.6l-4.7-2s1.8-5.3 1.8-8.3c.1-2.9-2.4-6-2.4-7 0-1.1-2.8-1.6-4.3-.7-1.5.8-2.8 3.1-3.6 7a8.3 8.3 0 0 0 1.2 6.5l-6-2.6s.8-2.8 1.5-3.8c.8-1 .8-5 1.2-8 .4-3-1.3-6.8-1.3-6.8s-3 .7-5.7 2.3c-2.6 1.7-2.2 4-3 8-.8 3.9.8 5.2.8 5.2l-5-2.7s1.3-2.6 2.5-4.4a14 14 0 0 0 1.1-7c0-1.4-1.2-5.7-2.2-7.5-1-1.8-3.5.5-5.8 2-2.4 1.6-2.3 3.8-3 6.9-.8 3.1 1.4 7.1 1.4 7.1l-7.5-3.9s1-1 1.8-2.8c.9-1.8 1.1-6.2.5-11-.6-4.9-2.1-10.2-4.6-9-2.4 1.3-3.3 3.8-6 9.8-2.5 6 .5 8.5.5 8.5l-5.7-3.8s2.6-6 2.3-8l-1.5-9.3c-.3-3.1-2.8-5.9-5-3.3a17 17 0 0 0-4.4 9.5c-.6 4.2 0 6.2 0 6.2l-4.9-3.7s2.1-4.4 3.3-6.3c1.1-1.8 0-6.1-.4-9.2-.4-3.2-2.5-9.3-4.9-7.7-2.3 1.5-3.6 5.2-4.9 9.7-1.3 4.4.1 8.6.1 8.6l-4.8-4.5s1.1-4 2.4-6.6c1.2-2.6 0-7.2-.3-11.1-.3-3.9-3.5-7.8-6.1-6.2-2.7 1.7-3.3 6.2-4.2 8.7-1 2.5-.2 7.7-.2 7.7l-6.9-5.2s3.2-6.2 3.7-9c.5-2.6-.5-7.7-2.1-12.2-1.6-4.5-2.2-2.1-4.8-.1-2.5 2-2.9 5-2.9 5v-8c0-1 0-2.3-.4-3.5 1.8 1 5.2 1.7 10.5.2 7.6-2 12.4-10 12.4-10l10 6.2-3.6-1c-1.8-.6-4.5.8-7.2 1.6-2.8.8-5.4 3.6-8.4 5-3 1.5-3.4 6.4-1.2 6.7 2.2.3 6.9 2.3 14.3-1.2 7.4-3.4 9-8.8 9-8.8l11 5.9s-6.7-.3-8.6 0c-1.8.4-4 2.7-6.6 4-2.5 1.2-2.7 3-3.9 4.2-1.1 1.1-2.7 4.8-1.1 5.7 1.6 1 4.7.8 8.4.7 3.6-.2 9.4-5.7 11.4-7.5 2-1.8 3.2-5 3.2-5l9.7 5s-9 1.5-12 2.4c-3 1-4.6 4.6-6.6 6.2-2 1.6-3.2 6.2-1 7.7s6.6-1.6 10.2-1.4c3.5.2 8.7-6.5 11-8.2 2.3-1.7.8-4.7.8-4.7l10.3 4.6s-1.1.5-2.6.4c-1.5 0-3.3-.3-6 .7-2.6 1-3.5 2.1-6.1 4.3-2.6 2.2-2.9 5.2-4.4 7.7-1.6 2.5-1 2.7.3 3.5 1.3.8 3.9.4 7.4 0 3.6-.3 7.1-4.1 10.3-8.6 3.2-4.5 3-6 3-6l10.5 4.3s-3.9.3-5.8 1c-2 .7-3.9 2.5-6.4 5-2.5 2.3-3.9 5.3-5.7 8.5-1.8 3.2.4 3.6 1.6 3.8 1.3.2 4.1.2 8.8-1.9 4.7-2 7.5-7.2 8.8-9.8 1.2-2.7 2.3-4.6 2.3-4.6s9 4.3 8.8 5c-.2.7-5.5.5-7.6 1-2 .4-6 4.4-8.2 7-2.1 2.5-5.8 8.3-4.2 8.7 1.6.3 8.2.2 10.1-1 2-1.4 8.3-6.3 10.4-8 2-1.5 3.6-5.8 3.6-5.8l5.6 2-3.6 1.4a26 26 0 0 0-10.2 8.2c-4 5.2-5.2 7.3-4.4 7.7.8.5 7.8.7 10.8-.2 3-1 7.8-6.6 10.1-9.5 2.3-2.8.1-6 .1-6s11.3 3.1 8.7 3.6c-2.6.5-6.8 4.6-10.4 7.8-3.5 3.2-4.6 11.3-2.2 11.5 2.4.2 10.7-6 9.5-2.8-1.3 3.2-.1 8.4 2.4 8.2 2.5 0 10.3-6.3 9.6-4.8-.7 1.5.6 6.9.6 6.9s3.3-.3 6.4-1.5c3-1.3 6.5-8.8 8.5-13.2 1.4-3 1-3.8.7-4 1.7.3 8.1 1.8 5.8 2.7-2.6 1-5 5.2-6.6 8.5-1.4 3.3-.6 7.2-.6 7.2s6.8-1.7 11.2-6.2c4.3-4.5 1.2-7.2 1.2-8.4 0-1 9 2.2 11.3 3.7l-.3.2c-4.6 3.4-28.4 20.2-49.4 35zM308.4 149s2.2-1.9 4-4.3c1.6-2.4 1.4-7 1-11.5l-.5-2.8c2.5 1 8.8.5 13.3-2 4.7-2.7 6.5-7 7.4-8.7 1-1.6 8.7 6.5 8.7 6.5s-2.5-.4-4.2-.4c-1.7 0-4.5 2-7.2 3.3-2.7 1.4-4.1 2.1-6.3 3.5a5 5 0 0 0-2.2 2.8c-.5-.4-1-.5-1.5-.2-2.1 1.1-5 7.5-5.8 10.3-.8 2.9-1.2 7.7-1.2 7.7l-5.5-4.2zM431 171.7l-5-2s3.4-5 3.9-6.4c.5-1.3 1 8.4 1 8.4zm9.6 4.3l-4.6-2.3 3.5-3.2 1 5.5zm11.5 4.6l-4.5-2 2.5-3 2 5zm-6.2 6l.2-5.3 4.5 2.6-4.7 2.7zm16.7.1l-7 3.8c.4-1-.4-5.5-.4-5.5l7.4 1.7zM600.9 91c1.3.3 7.9-1.4 7.9-1.4l1.3 3c2 1.6-10.5-1.8-9.2-1.6zm-2.2-6.3c-1-1 6.4-.7 6.4-.7l1.6 3s-7-1.3-8-2.3zm-2.5 97.2c1 .2-5.6 1-5.6 1.7l-1.4-6.2s6.1 4.2 7 4.5zM454.4 362.7c.9.3-5.6.8-5.7 1.6l-1.2-6.3s6 4.4 7 4.7zM394.6 276s-2.3-1.5-4.8-2.4c-2.6-.9-6.1 2-8.9 3.4-2.7 1.4-1.2 4.4-1.2 4.4s2.4 2.6 5.5 2.7c3.1 0 9-4.5 9-4.5l-1.8 8.4s-4.3-2.3-8.7-1.6c-4.4.7-5.5 2-11 4.8s-1.8 5.7-.2 6.2c1.5.5 8.1 1 12.5.1 4.3-1 7.4-5.5 7.4-5.5l-.6 9.9s-4-1.7-7.2-2.6c-3.1-.9-5.7 1-11.5 4.2-5.9 3.3-4 8.4-4 8.4s5.7.6 11.7 1c6 .2 10.9-5.2 10.9-5.2l-.8 6.8s-4.6-1-7.2-.5c-2.5.5-5.8 2-10.3 3.8-4.5 1.9-6 8-3.9 9.4 2.2 1.3 10.5-.2 15.2-2.2 4.7-2 6.5-7 6.5-7v10.2s-4-.6-6.9.6c-2.8 1.2-7.6 5-11.4 8.6-3.8 3.5-3.3 10-2 11.1 1.3 1.1 8.8-2.8 13.5-5.3 4.8-2.6 6.8-9.8 6.8-9.8l.3 14.9s-3.2-1.7-5.9-.9c-2.7.8-3.2 1.6-7.8 4.4a11 11 0 0 0-4 3.8c-1.2-1.6-2.7-3.2-3.9-3.4-2.4-.4-7.2-2-8.7-1.6-1.5.3-5.3 2.5-5.3 2.5l-.8-9.2s2 2.8 5.8 4c3.8 1.2 6.1 0 6.1 0s-1-5.7-4.2-8.2c-3.3-2.6-8.3-2.7-8.3-2.7V331s.7 2.8 4 4c3.1 1.1 4.4 2.3 7 1.2 2.6-1 4-3.9 3.5-4.5-.6-.6-3.6-4.6-6.7-6.6-3-2.1-6-3.7-7.2-3.4-1 .1-1-2.7-1-4.2.3.6 1 1.5 3.6 2.3 4.4 1.4 8 .2 10.3-1.2 2.1-1.5.5-5.5-3-6.6-3.5-1-9.6-1-10.8.6-1.2 1.5.4-18 .7-22a3161 3161 0 0 1 40-25.3l-.3 10.6zm-22.8 84.6c-.8 1.6-1.6 4.6 3.1 3.7a61.7 61.7 0 0 0 17.6-10.3l.2 9s-7.5 2.9-12.8 6c-1.4.7-2.5 1.9-3.3 3.1a5 5 0 0 0-1.5-1.2c-2-1.1-5.7-6-9.8-5.7-4 .3-7.5 2-7.5 2l-.7-8.5s1.2 1.6 5.6 2.3c2.6.4 6.3 0 9.1-.4zm-5.6 16.2c2.6.6 6.1 1 8.8 1 .2 1.6 1 2.8 2.4 2.7 4-.3 16.7-8 17.5-8.7.9-.6 1 7.1 0 7.3-1 .1-8.6 3.5-11.8 5.7-.7.4-1.5 1.3-2.3 2.4-2-2.5-5.2-5-6.7-5.4-2.8-.8-9.3-3-10.7-2.5-1.4.6-4 .3-4 .3l-1-6.8s3.2 2.8 7.8 4zm11.5 16.6c-.8 2.6-.9 4.8.7 5 3.8.3 10.5-3.6 15.5-7 3.7-2.6 4-4 3.8-4.6.6 1.4 2.8 7.7 2 8-1 .4-9.4 6.1-13.7 8.4-1 .5-1.7 1-2.3 1.7-1.8-2-4.2-3.9-6.3-4.5a95.4 95.4 0 0 0-13.6-2.7c-.8 0-3.5-11-3-10.4.6.6 1.8 2 6.3 3.8 3.2 1.2 7.1 2.3 10.6 2.3zm30.9 8.1c1.4.4-3.2 1.3-3.2 1.3l-1.8-5.8s3.6 4.2 5 4.5zm-3.8 13l-5 1.3c-6 1.7-8.2 7-10.6 9.1-1 .9-1.7 2.3-2.2 3.7a11.7 11.7 0 0 0-5.3-2.2c-3.4-.3-9.4.5-9.4.5l-2-7.2s3.2 4.2 6.4 4c3.3-.2 7.9 1 10 .6 2-.3 1-4.9 1-4.9l-1.8-1.7 2.8-1.2c1.8-.4 6.4-5.4 8.5-7.6a29 29 0 0 0 4-8.6l.8 5.5c.3 2 2.8 8.8 2.8 8.8zm3.5-6.3c1.6 3.2 9.3 5.8 8.2 5.7l-7 .4-3-7.9s.2-1.4 1.8 1.8zm.2 18.7s-3 1-5.3 2-5.2 6.8-7.6 9.7c-1.2 1.5-2.7 4-3.6 6.2l-1.3-.8c-2-.8-7.3-3.6-9.2-3.4-1.8.2-5.2 1.6-5.2 1.6l-3.2-8.7s3.6 3.5 7.6 4.4c4 .8 6.7.8 9.1 0 2.5-.7 4.3-1.7 4.3-1.7s.5-2.7-2.3-4.3l-.6-.3c.8-.2 1.7-.2 2.6-.2 3.3 0 12.6-11 12.6-11l2.1 6.5zm6 17c-.8.3-4.6 1.8-8 4.4-2 1.5-7 8.4-7.8 12.2-.3-1.6-1.3-3.5-2.7-4.3-2.5-1.4-10.4-3-12.2-2.7-1.9.2-3.3 1.4-3.3 1.4s-3-7.7-2.4-7.1c.6.6 4.4 2.6 7.6 3 3.2.3 9.6 1 11.1 0 .6-.3.1-1.3-.8-2.4 3.5-1.3 8.2-3.8 11-6.2 2.1-1.7 3.7-7.3 4.2-8 .5-.8 4 9.4 3.2 9.7zm-38.6-32.3c-3.4-.3-7.4.2-7.4.2l-2.6-7s5.5 4.7 10.1 5l4.3.6-.3 2.7a10 10 0 0 0-4.1-1.5zm-164-27.3l-11.5-4.8s.5-4 .4-5.9c-.1-1.9-2.3-5.7-2.8-8.2-.6-2.5-3.2-2-4-.3a16 16 0 0 0 0 11.7l-5.6-2.7s-.3-5-.7-7.2c-.5-2.2-2.6-6.5-4-8.8-1.3-2.2-2.9-1.3-3.6 1-.7 2.4-.8 3.4.1 8.6l.6 3-5-2.5s1-3 1-4.7c-.1-1.7-1.7-7-2.8-9.8-1-2.7-3-4.4-4-2.5-.9 1.8-1 3.6-.7 8.7.4 5.1 1 5.9 1 5.9l-5.3-3.5s-.4-3.2-.2-4.6c.1-1.4-2.5-6.9-2.8-9-.3-2-2.7-4.6-4.4-3-1.6 1.6-.9 3.4-.9 7.2 0 3.8 1 5.8 1 5.8l-4-2.8s.6-2 .9-5c.3-2.9-1-5.8-2.3-10.5-1.3-4.6-2.3-4-2.3-4s-1.9 1-3 3.2c-1 2.2-.2 5 .4 9 .5 4.1.9 4.4.9 4.4l-4.3-2.3.5-2.5c.4-1.4.8-3.7.7-7-.1-3.3-2.8-6.4-4.2-9.1-1.4-2.7-2.2-2.5-3.2-.6-1 1.8-.6 7.7-.5 11.3.1 3.6.9 4.2.9 4.2l-3.4-2.4s.8-2.6 1-4.7c.3-2.1-.5-5.3-1.3-8.8-.8-3.5-4.5-5.8-4.5-5.8s-1.4 1-1.7 5.4a39 39 0 0 0 1.1 10s-3.2-2.3-2.7-3.6c.5-1.3.5-6.4.5-6.4l-3-9.6c-1.2-4.2-3.4-3.7-4.3-1.7-1 2-.1 6.7.3 11.3.4 4 .5 4.4.6 4.4l-4.3-2.3s1.8-4.4 1.6-7.1c-.1-2.5-1.1-7-1.8-9.3 3 .9 7.6.8 10.8-.8 1.5-.8 6.4-6 6.4-6l7.6 2s-14.9 7.1-15.9 11.4c-1 4.3 13.1-3.2 16.2-5 3.1-1.9 4.7-4.7 4.7-4.7l3.8 2.2s-11.6 7-13.4 10.6c-1.9 3.6 6.3 1.9 9.6.5s9.5-8 9.5-8l4.2 2.3s-10.5 8-11.4 11.1c-1 3.2 6.1 1.6 7.8.4 1.7-1.3 7.4-5.2 8.4-8 .7-1.8 5.9 1 5.9 1s-9.3 7-11.1 10.7c-2.8 5.5 5.5 4.9 8.3 2.6 3.5-2.8 10.2-10.3 10.2-10.3s4.7 1 3.4 2c-6.6 6-9 11.4-8 13.4l.1.1.6.6c9.8-.4 15.5-12 17-11 1.6 1 5.9 2 5.9 2s-8 9-8.4 14.6c-.6 7.9 4.3 3.8 7.9 1.7 3.6-2 7.4-14.8 7.4-14.8s9.3 3 7.8 3.5c-1.4.6-12.7 10.8-10.7 15.6 2 4.7 8.1 2.1 10.4-.4 2.2-2.6 7.6-13.7 7.6-13.7l9.7 2s-7.8 4.8-9 8.7c-1.2 3.4-2.3 7.5-.2 10.7.9 1.2 7-.7 9.6-5 2.6-4.5 4.4-10.8 3.8-12.2-.3-.8 2.8-.1 5.4.6.9.2 1 1.3.4 1.9-.8.5-1.5 1.3-2 2.6-1.7 4-5.7 8.9-3.6 12.5 2 3.6 9-1.2 11.1-4.3 2-3 2.1-11.6 2.1-11.6l10 4a1500 1500 0 0 0-37 26.6l-7.3 5.8zm-78.2 66.4h-.1l.2-.2-.1.2zm45.6 16.8c.8.4-3 .9-3 .9l-.5-3.9s2.7 2.7 3.5 3zm1.9 39.5s-3.6.3-3.7 0c0 0 .7-3 1.4-3.6.7-.6 2.3 3.6 2.3 3.6zm134.5-402.6s2-4 2.3-3.4c.3.7 1.3 6 1.3 6l-3.6-2.6zm87.7-74.3c1 3.6 2 5.5 5 13.7s10 12.6 10 12.6-5.3-1.2-7-1.3c-1.8 0-6.7-.3-9.3.8-2.6 1.1 2.5 4.5 7.5 7.4 5 3 14.4 1.5 14.4 1.5s5.8 6 5 5.7l-13.3-3.7c-3.3-.8-7.7-.4-8.7 2.2-1 2.5 4.5 4 9.8 7 5.4 3 15.7.6 15.7.6l7 7.4-6-2.8c-3.7-1.8-10.1-1-13.5-.9-3.5.2-6.5.7-6.4 3.5.1 2.7 8 4.2 12 6 4.2 1.7 15-2.1 15-2.1s6.9 6.5 5.4 6c-1.4-.4-11.6-1.5-15.1-1.7-3.5 0-9 2.5-12.5 3.8-3.6 1.3 3 4 11.2 7.2 8 3.2 20.6-5.1 20.6-5.1s4.8 6.5 2.9 5c-2-1.4-11 .5-14.1.6-3.1.2-11.4.2-8.4 5.6 3 5.4 11.4 4.3 16.8 3.8 5.5-.6 10-4.1 10-4.1l6 4.9s-5.5-.1-8-.4c-2.4-.3-8.9 2.5-12.9 3.5s-4 2.7.6 5.8c4.7 3 8 .4 12.9.3 4.8-.1 9.9-5 10.8-6 .9-.8 6 7 6 7s-3.3-.8-5.5-1.8c-2.3-1-7.7 1.6-13.6 3.6-6 2-5.2 8.5-5.2 8.5s3.8 2.1 8.4 2.4c4.5.3 8.5-2.8 12.4-4.1 4-1.4 6.8-5 6.8-5s6 5.3 4.3 4.9c-1.8-.4-11.8 2-14.7 3-3 1.3-7.9 7-7.3 8.2.5 1.3 4.2 2.4 8 2.8 4 .5 11-.4 7.5 1.2-3.5 1.7-3 5.4.7 6.5 3.7 1.1 8.5-1 13-2.5 4.7-1.4 7.8-5.7 7.9-7.1.1-1.4 7.7 4.6 6.3 4.5-1.4-.2-7.5 3-12.1 4.4-4.6 1.4-9.5 7.4-7.5 9.2 2 1.7 13.5-2.3 18.8-3.8 5.2-1.6 5-6.7 5-6.7s8 3.5 6.6 3.7c-1.4.3-11 6.4-14.2 8.3-3.2 1.9-5.1 4.6-1.7 6.5 3.4 1.8 10.3-2.4 16.2-4.4 5.9-2 3.8-8.3 4.7-7.4.6.7 8 5.8 11.5 8.1a787.4 787.4 0 0 0-36.7 26.4c-1.7-.7-12.2-4.9-10.7-5.6 1.6-.8 1.8-4.4 2.9-8 1-3.7-.2-6-.2-6s-3.4 0-5.4.7a14 14 0 0 0-4.9 2.8c-1.6 1.4-1.2 2.6-.8 6.4.5 3.8-.4 3.1-.4 3.1l-7.4-1.1s4-3.5 5.2-6.1c1.3-2.6.1-5.5 0-7.2 0-1.7-3.8-6-4.6-5.4-.8.7-1.3 1.5-2.9 3.4-1.6 2-1.2 4.4-1.7 6.4-.4 1.9 0 6.6 0 6.6l-2.7-.7 2.8-9.7s.1-7.2-.5-9a2.7 2.7 0 0 0-4-1.3c-1.6 1-3.5 4-3.5 4l-1.8 4.4s-.1-5.4-.5-7.8c-.4-2.4-4-5.5-4.7-5.4-.8.1-2.5 1.8-3.7 3-1.1 1.1-1.3 4.1-1.3 4.1s-1.4-3.3-1.8-5.1c-.3-1.9-3.3-7.2-3.3-7.2s-2.2.8-3.4 1.7c-1.3.9-2 4.1-2 4.1v-5.7c.1-1.5-4-6.3-4-6.3s-3 1.8-5.5 4c-2.4 2-2.3 4.5-3.3 8.2-1 3.6 1.8 8 1.8 8l-7-4s3.3-4.5 4.5-7.7c1.3-3.2-.7-8.2-.6-10.9.1-2.6-2.6-4.7-4-4.6-1.4.2-4.8 5.3-5.7 7-1 1.5-1.7 5.1-1.6 7 .1 2 1.6 6.7 1.6 6.7l-6.5-2.7s1.4-2.5 2.4-3.3c1-.8.9-5 1.7-8 .8-3 .4-7 .5-9.2.1-2-2.4-4.2-3.2-4-.8 0-1.8.3-3.3 1.3-1.5 1-2.2 2.5-3.3 5.4-1.1 2.9-1.2 5-1.3 8.1-.2 3.3 2 6.5 2 6.5l-8.1-3.7s4.1-3.8 5.3-6.4c1.3-2.7 1-10 .6-12-.5-2.1-4.4-6.4-5.2-6.3-.8 0-3.9 3.6-5.3 6.4-1.5 2.8-2 4.7-2.5 7.6-.6 2.8 2 7.3 2 7.3l-7.6-4.2s3.2-4.5 3.7-7.4c.6-2.8.7-7.8.7-10 0-2.3-4.3-8-6.1-7-1.9.9-3.2 3.9-4.5 5.4-1.2 1.5-1 6.5-1.4 9-.5 2.6 2.4 7.1 2.4 7.1l-8.7-4.8s3.9-4.2 5.2-6.6c1.4-2.4-.5-7.8-.7-11.1-.2-3.4-3.1-9-4.5-8.4-1.4.7-3.6 4.7-5.3 7-1.8 2.3-1.3 5.5-1.4 8.2-.1 2.6 1.9 7.6 1.9 7.6l-7.4-5.4s3-3.8 4.1-7.3c1.2-3.4 0-7.4-1-11-.9-3.5-3.4-6.3-3.4-6.3s-2 2.8-3.9 4.3c-1.8 1.5-2.7 7.1-3.1 9-.5 2 .9 8.2.9 8.2l-5.5-5.3 3.2-5c.8-1.3 1.6-4.8 1.9-8.2.3-3.3-4.7-10.5-4.7-10.5l-4.3 4.1c-1.1 1.2-2.6 6.2-3.8 8.3-1.3 2-.6 7.5-.6 7.5l-2.8-2.9s2.5-6.4 2.1-10c-.4-3.5-2-5.8-3.3-8.3-1.3-2.5-3.6-3.7-5-2.6-1.6 1-2.5 7.2-2.6 5.2-.1-2-3.8-8-4.8-9s-4.6-4-5.6-2c-1 1.9-.4 9.6-.8 7.5-.5-2-4.9-9.6-6.1-12.1-1.3-2.5-6.3-4-6.3-4s-1.2 2.3-1.2 3.4c0 1.2.6 4 0 3.2-.8-.8-5.2-4-8.8-5.9-3.5-2-5.4-1-5.8-.2-.5.8 3.9 9.5 5.2 12.6 1.2 3 5.4 6.7 7.9 7.8 2.5 1 10.4 3 12.2 3.2 1.9.3-.7.7-.7.7s-5.5 1-9.7 2.6c-4 1.5-3.4 2.8-3.4 2.8l2.4 3.1s7 2 11.4 1.5c4.3-.5 8.9-5.6 8.9-5.6l6.7 3.7s-9.1 1.2-11.8 2.6l-6.4 3.2c-2.1 1-1.2 4 .3 5.3 1.5 1.2 6.9.5 11 .2 4.1-.4 11.3-7.2 11.3-7.2s6.7 3.6 6.3 4c-.3.5-7.3.8-10.2 2-2.8 1.1-4 4.6-6.1 6a5 5 0 0 0-1.6 1.6c-.9-1.7-2-2.6-3.5-1.6-2.8 2.1-3.4 8.8-4 12.3-.6 3.5 1 8 1 8l-8-6.3s1.2-1.8 2.4-4.4c1.3-2.6.8-7.2-1-12.3-1.8-5.2-4-4.4-5.6-2.4-1.4 2-2 5.4-2.3 8.8-.3 3.3.1 6.4.1 6.4l-3.4-2.4 1.4-7.4c.8-3.9-1.8-4-4-8.3-2.2-4.3-5.3-3.6-5.3-3.6l-.4 7c0 1.9 2 6.6.3 3.9a79.4 79.4 0 0 0-13.8-12.5c-5.7-4.4-12.7-3.2-12.7-3.2s1.1 4.5 7 9.8c6 5.4 9 6.7 7.4 6.5-1.5-.2-5 1.4-4 2.1 1 .8 6.7 4.6 9.1 5.2 2.4.6 11 1.2 9.1 1.1-1.8 0-5.7 1.3-7.7 1.7-2 .3-5.6 1.6-5.6 1.6s3.6 3 5.3 3.9c1.8.8 5.1 1 9.4 1 4.3 0 6.6-3 6.6-3l7.3 4.3s-3.8-.5-6.4-.6c-2.6-.2-5 1.3-8.3 3.2-3.3 2-5.3 4.4-5.3 4.4s2.7 1.6 4.7 2c2 .4 8.8.5 12-.6 3.3-1.1 8-4.2 8-4.2s7 5.8 5 4.7c-2.3-1-5 .3-8 .3-2.9 0-4.7 2-7.9 4.2s-3.7 2.8-2 4.4c1.6 1.6 5.1 1.4 8.8 1.5 3.7.2 6.5-1.1 10-2.4 3.5-1.2 3.4-4.8 3.4-4.8l10.1 7.3s-7.9-.8-10-.8c-2.2 0-4.5 1.6-8 3.1-3.4 1.6-5.5 4.9-5.5 4.9s3.3 2 6.2 3.2c3 1.2 9.4 0 13-1.3 3.5-1.2 7.4-4.4 7.4-4.4l8.1 5.5-5.4-1c-2-.4-4 .7-7.2 1-3.1.5-4.3 2.3-7.8 3.6-3.6 1.2-2.9 5.3-2.9 5.3l6.3 1.4c3.2.7 7.1-.3 10.8-1.2 3.6-1 7.2-5.1 8.2-6.5 1-1.5 6.8 4.8 6.1 5-.6.3-5.9.7-8.4.8-2.5.2-7 2.5-10 4.3-3 1.8-3.3 4-3.3 4s1.7 2 5.6 2.8c4 .8 9.4-1.2 13.9-2.7 4.5-1.6 6-6.8 6-6.8l8 6.5s-5.6-.5-8.7-.1c-3.1.3-4.8 3.8-8.7 6.2-3.8 2.5-4.3 5.2-4.3 5.2s2.3 1.4 5.2 1.4c3 0 5.4 0 10-1.6a36.4 36.4 0 0 0 10-7.2l8.4 4.3s-6.7.5-9.9 1.6c-3.2 1.2-3 1.8-6.3 5.9-3.2 4-3.3 4.8-2.1 6.2 1.2 1.3 2.8.8 6 .7 3.3 0 6.3-2.9 9.7-5.5 3.4-2.7 6-6.5 6-6.5l7.6 4.2-7.7.6c-3.6.1-6.8 4.5-9.6 7.7-2.9 3.1-4 4-2 5.4 1.9 1.5 1.7.8 4.8 1.5 3.1.8 7.3-4 12-6s6-6.8 6-6.8l7.5 3.2s-7.2 2.1-10.5 4-3.5 4.5-5.6 6.7c-2.1 2.2-3.5 5.6-3.5 5.6a7 7 0 0 0 4 1.8c2.7.5 8.4-3.7 12.9-6.3 4.5-2.7 5.3-9.5 5.3-9.5l9 4s-4.3.9-8.4 2.7c-4 1.8-3.8 4.6-5.4 8.4-1.5 3.8-4 5-2.5 6.3 1.6 1.3 9.3-1.5 13.3-3.6 4-2 7.2-11.2 7.2-11.2s12.4 4.3 9.5 4.3c-3 0-9.8 5.2-11.9 7.4-2.1 2.2-1.9 8 .5 9.6 2.4 1.7 5.7-1.3 10.4-4.4 4.7-3 5-10.4 5-10.4s12.5 2.5 10.3 3.6c-2.1 1.1-6.5 3-8.6 6.3-2.1 3.3-1.2 7 .9 7.6 2 .8 5.9-2.8 9.1-5.7 3.3-3 1.4-7.4 1.4-7.4s6 2.3 8.4 3.5l-29.4 20.7-8 5.4h-.8c-2.6.8-15-5.2-15-5.2s3.3-4.3 3.4-7a16 16 0 0 0-5.3-9.2c-2-1-3.7 1.9-5.6 5.3-2 3.4 2.8 9.5 2.8 9.5l-5.6-2.8s1.6-5.9 1.2-10.5c-.4-4.6-5.4-8.5-7-8.2-1.8.4-3.1 4.2-4 7.2-1 3 1.3 8.7 1.3 8.7s-5.1-1.6-5-3.1c.1-1.5 1-7.4.4-10.5-.5-3.1-3.6-8.9-5.5-8.1-1.9.8-3.4 5.1-3.3 9.9.1 4.7 1.5 7.1 1.5 7.1l-5.2-1.9.6-4.7a56 56 0 0 0-1.8-13.3c-.7-2.6-3-4.6-5.1-3.4-2 1.2-2.9 8.2-2.3 12.4.6 4.2 2.6 7 2.6 7l-9-4s.5-2 1.7-3.7c1.2-1.6-.7-9-.9-11-.1-2.2-3.5-7.8-4.5-7.4-1 .4-3.7 4.4-4.7 10a11 11 0 0 0 1.8 8.9l-7-3.4s.8-3.6 1.7-5.9c1-2.2-.7-7-1.7-10.4-1-3.2-3.5-6.6-5.1-5.2-1.6 1.4-3 6.4-3 8.6a54.7 54.7 0 0 0 2.4 10.5l-7.3-5.1s1.4-4.7 1.8-7.4c.3-2.8-.3-7.7-.9-10-.6-2.4-3.6-6.3-6-5-2.4 1.4-2.4 9.6-2.4 13.2 0 3.7.9 5.6.9 5.6l-6-4.6s1.6-4.3 2-6c.4-1.6-1.8-9.6-3.2-13-1.5-3.5-3.5-4.9-5.8-2.4-2.3 2.4-1.6 8.7-1.5 11.6.1 3 1.4 6.1 1.4 6.1l-3.9-3.2s1-4 .9-7.7c0-3.7-.9-6.7-1.4-9.8-.6-3-3.7-7-5.3-5.6-1.6 1.5-2 6.8-2.4 10.3-.4 3.5.8 8.2.8 8.2l-5.8-3.2s1.4-3.9 1.9-6.3a29 29 0 0 0-1.5-11.6c-1.2-2.9-3-6.2-4-5.4-1.2.9-3.6 9.3-4 12.8-.4 3.5.3 5.4.3 5.4l-4.7-4.4s2.6-7 3-9.7c.3-2.7-3.1-7.6-5-10.5-2-2.9-2.4 2.5-3.4 6.2-1 3.8-2 8.6-2 8.6l-3-2.8s2.2-8 1.8-13.4c-.3-5.4-3.3-8.2-5.4-7-2.1 1.3-3.2 8.4-3.2 8.4l.6 7.9s-4.3-3.4-4.8-4.7c-.5-1.2-.6-9.4-3.1-14.6-2.5-5.2-5.1-5.3-6.2-3.4-1 2 2.2 9.8 1.2 8.4-1-1.4-2.9-4.3-5.3-8.5-2.5-4.2-7.4-5.4-10-7-2.4-1.6-10.3-6.4-11.1-5.7-.9.7 1.4 5.3 3.1 9.4 1.7 4.1 7.5 10.2 9.2 12.5 1.7 2.2 10.6 6 10.6 6s-5.7.4-10 1.5c-4.4 1-3.6 2.2-3 3.5.5 1.2 2.4 2.3 5.3 4 3 1.8 5-.2 9.5-.2s7.4-2.7 7.4-2.7l6.5 5s-2.7-.3-5.1-.8c-2.4-.4-5.6.9-9.8 2.3-4.2 1.3-6.2 4.7-6.2 4.7s4 2.4 6 3c2.2.7 5.7.3 8.8-.2 3.1-.6 9.6-5.5 9.6-5.5l8.5 5.4s-4.4 0-7.5-.2c-3-.3-5.2 1.7-10.4 5-5.3 3.3-3.8 5.3-3.8 5.3s3.8 1 7.6 1.3c3.8.3 7.4-1.6 10.9-3 3.5-1.5 6.2-5.6 6.2-5.6l7 5.3s-5.7.5-8.5.1c-2.7-.3-6.3 3.4-9.7 5.1-3.3 1.8-4.2 3.3-4.2 3.3s4.2 2 7.4 2.5c3.1.5 6.5-1.2 9.8-2.2 3.2-1 7.9-5.9 7.9-5.9l8.3 4s-6.7 1.6-9.9 3c-3.1 1.3-5.4 3-9 6.6-3.7 3.8-3 4.6-3 4.6s3.5 1.1 6 .9c2.4-.3 7.5-3.2 12.4-5.6 5-2.4 6.1-8.4 6.1-8.4s10.8 7.4 9.4 7.6c-1.4.2-6.8 1.3-11.3 2.8-4.6 1.5-4 3.1-7.4 6.4-3.4 3.3-3.1 3.1-1.8 4.4 1.3 1.4 3 .3 5.6.3 2.6 0 9-2.6 13.5-4 4.5-1.6 4-4.7 6.1-6.7 2.1-2 10 5.5 10 5.5l-8.9 2.6c-2.6.7-4.7 3.8-7 5.1-2.5 1.4-3 8.2-3 8.2s3.6-.3 7-.2c3.3 0 6.4-3 10-5 3.7-1.8 5.1-8.3 5.1-8.3l8 4.8s-5.4 1.5-8 2.5c-2.4 1-4.2 4-6.7 6.9-2.5 2.9-2.2 3.5-3 5-1 1.4 3.9.6 6.5.6S307 239 311 237c4-2 2.6-8.1 2.6-8.1s13.1 6 11.1 6.4c-2 .5-5.4 3-9 4.9-3.7 1.9-3.6 4.8-5.6 7.1-2 2.3-1.5 6.2 1.3 5.8 2.8-.5 7.3-2 11-3.8 3.6-2 7.5-12 7.5-12l11.5 4.5-7.6 3c-2.5 1.1-3.2 4.8-5.9 8-2.7 3.4-2.2 7.3 0 7.4 2.4.2 7-4 10.8-6.2 3.8-2.4 6.6-10.9 6.6-10.9l10.2 3.2s-3 1.6-5.7 2.3c-2.7.8-5 5.8-7.8 8-2.7 2.3-4.6 8.6-3 9 1.7.5 7.1-1.8 12-3.4 4.8-1.6 7.4-14.2 7.4-14.2l9.7 3.8s-3.8 1.6-7.8 3.6-1.8 3.7-4.5 7.8c-2.8 4-.7 7.3 2 7.3 2.5 0 6-3 9.8-6.3 3.8-3.4 4.4-11 4.4-11s8.3 3.2 7.3 3.6c-.9.3-5.6 4.1-7.7 8-2.1 3.8 1 8 2.7 8.4 1.7.5 7-4.7 9.3-7.1 2.3-2.4.3-8.3.3-8.3l11.8 3.2c-13.7 8.6-33.2 20.1-38.8 23.5a318 318 0 0 0-7.1 4.5l-10.3-2.8s2.3-3.2 3.6-5.6c1.2-2.4-1.8-6-2.9-7.7-1-1.7-6.8-1.2-7.8.7-1 2-.6 4-.3 6.4.3 2.5 1.3 4 1.3 4l-4.6-2.2s-.1-8.1-1.1-11.4c-1-3.3-6.1-6.7-7-6-.8.7-.6 3.6-1.7 8.2-1 4.5 3 7.2 3 7.2l-7.4-1.7s1-8.2.8-11.5c-.2-3.2-3.5-6.6-5.8-5a9.5 9.5 0 0 0-3.4 7.8c.3 2.5 3 6.2 3 6.2l-6.5-1.4s.2-3.8 0-7c-.3-3.3-4-10.3-4.9-12.5-.9-2.2-3-1.2-5.1 1.8-2 3.1-1 4.1-.2 7.5.7 3.4 2.7 7.4 2.7 7.4s-5.6-2.8-6.7-2.7c-1 0 .3-2.8.8-5.2.5-2.4-3.7-15.9-4.2-17.1-.5-1.3-3.5-2.3-3.5-2.3s-3.6 4.9-4.2 12.2c-.5 5.3 1 7.2 1.8 7.9l-4.4-2.8.5-7.6c.2-3-.9-8.1-3.6-13.7-2.6-5.5-2.8-3.2-5.8-1.6s-1.9 7-2.3 12c-.5 5.1 2.5 7.2 2.5 7.2l-6-2s.8-2.5 1.6-4.3c.7-1.8.8-10.4-.2-13.7-1-3.2-3.4-6.3-4.7-5.8-1.2.5-5.5 7.9-5.7 12 0 4.2 3 8 3 8l-8-3.3s1.4-4.6 1-7c-.2-2.6-.3-8-2.3-11-1.9-2.8-4.1-6.4-6.2-5.1-2 1.2-1.7 7.4-2 10.4-.1 3 2.8 9.2 2.8 9.2l-7.5-3.9s.3-2 1.2-3.4a40 40 0 0 0-1.5-13.1c-.8-3.7-4.4-6.3-5.9-5.3-1.4 1-1.6 5.9-1.9 9.7a61 61 0 0 0 .2 8.4l-5-3s2.5-4 3.4-6.3c.9-2.2-.5-7.2-.4-9.8 0-2.6-3.7-7.8-3.7-7.8s-2.4 2.2-3.1 4c-.8 1.7-2.3 5-2.4 3.2 0-1.9-3.3-10.5-4.5-10-1.3.5-3.6 7.4-4.2 10.3-.7 2.9.2 6.6.2 6.6l-5.7-4s2.8-3 4.1-5c1.4-2 .8-4.4.6-6.5-.2-2.2-3.1-8.4-4.2-7.5-1.2.8-3.5 5.9-4.7 8.2-1.2 2.4 1.1 8 1.1 8l-5.2-4.4s3.8-7.9 4-10.6c.4-2.7-1.2-10.2-3.4-9.3-2.2 1-5.3 7.8-5.4 12-.1 4 1.4 6 1.4 6l-5.5-3.6 2-5.7c.7-1.8-1.2-7.3-2.5-10.4-1.3-3.2-6.5-5.8-6.5-5.8s-.2 3 0 5.5c.4 2.5-.4 6.9-1.7 3.7a32.5 32.5 0 0 0-6-9c-1.8-1.8-6.3-2.9-6-1.1.3 1.7 3 7.2 1 5.8-2-1.3-10.3-4.2-14.2-5.5-3.9-1.3-8.6-1.2-7.4 1.6 1.2 2.9 13 9 16.4 12.8 3.4 3.7 12.5 2.5 12.5 2.5s6.9 3 5.2 2.6c-1.6-.4-7 .8-9.4.6-2.2-.1-6 2.5-8.8 3.7-2.8 1.2 7.6 3.1 10.6 4.1 3 1 12-4.2 12-4.2l7.4 4.6s-3.8-.3-6.3-1c-2.6-.8-7 1.8-10 2.7-3 .8-5.8 2-5 4 .8 1.8 9 2 12.6 2.8 3.7.7 11.3-5.9 11.3-5.9l6.7 4.6s-6.2-.7-8.9 0c-2.6.8-4.7 2.8-9.8 4.9-5 2-2 4.1 1.6 4.5 3.5.4 6.2 0 10.3-1.7 4.1-1.7 7.7-4.7 8.5-5.4.8-.7 5.8 4.2 5.8 4.2s-7.2.4-11 2c-3.7 1.6-5.4 3-7.8 5.1-2.4 2.2-1 3.8.2 4 1.2.3 7.5.2 12-2 4.7-2.3 8.8-7.4 8.8-7.4l7.1 3.7-7 .7c-2.2.2-7.1 5.2-9.7 7-2.6 1.8-3.4 4.4-2 5a56 56 0 0 0 14-3c3.5-1 7.3-7.9 7.3-7.9s6.2 4.1 4.8 4.3c-1.4.2-3.5 1.5-6.3 2.7-2.8 1.2-4 2.8-7 5.5-2.9 2.7-4 5.4-2 5.6 2 .3 4.3-.3 6.8-.6 2.4-.3 5.6-3.4 8.9-5.2 3.3-1.7 3.5-6.6 3.5-6.6l9.5 4.9s-6 1-8 1.5c-2 .4-6 5-8.5 6.9-2.6 1.8-5 5-3.6 6.3 1.2 1.3 3.9.6 8.7-.3 4.8-1 7.8-4.4 11.2-7.7 3.4-3.3 2.4-5.8 2.4-5.8s10 5.4 8 5.2c-2-.3-6 1.4-8.8 3.6-2.7 2.3-3.3 4.4-5.6 6.9-2.3 2.4-4.4 6.2-4.4 6.2s4-.1 7.8-.7c3.9-.5 9.6-5.4 12.5-7.4 2.9-2 2.1-7.2 2.1-7.2s11.6 4.8 9.5 5c-2.2.1-4.9 1.6-7.5 2.3-2.7.8-6.4 6-8.5 8-2.1 2-4.7 5.7-2 6 2.8.4 8.1-1.1 12.6-3.7 4.4-2.6 10-10.5 10-10.5l11.5 4.4s-6 1.8-8.1 2c-2.2.1-4.5 1.5-8.8 6.2-4.3 4.8-6.2 8.2-5.3 7.8 1-.4 4.2 1.2 6.4 1 2.1-.1 10-5 13.6-7.2 3.5-2.2 4.8-7.9 4.8-7.9a78 78 0 0 0 9.7 3.7c-1 .1-5.4 1.2-8 2-2.7.7-3.5 5-5.9 9-2.4 4-3.6 8.2-1.3 8.4 2.3.1 7.5-3.2 11-5.4a40 40 0 0 0 8.2-11.6s9.3 2.8 7.7 3.5c-1.6.6-4.6 3-7.2 4.8-2.6 1.8-4.8 7.2-6.6 9.8-1.9 2.7-2.7 6-.1 6s13.3-7.8 15.3-10.1 3.2-9.2 3.2-9.2 12.3 2 11 2.2c-1.5.2-6.4 2.6-9.6 5.4-3.3 2.9-3.2 4.7-4 8.3-.7 3.7-3.6 7.1-1.7 7.4 2 .3 12-5.7 14.7-8.3 2.6-2.6 4.2-10.3 4.2-10.3s10.2 3.1 8.1 3.6c-2 .5-5.9 3.6-7.7 5.5-1.8 1.8-1.4 5.4-2 8.2-.7 3-2 7.9 1 6.2 3-1.6 9.8-7.7 11.4-11.7 1.7-4 2.5-8.1 2.5-8.1s7.2 2.1 5.2 2.6-4 2.8-4.6 6.7c-.5 4-2.7 6.7-1.5 7 1.2.2 5.5-2.7 8.7-4.8 3.2-2 2.5-7.3 2.5-7.3l6.9 1.8c-14.9 9.7-38.8 25.6-44.8 29.3l-5.8-1.8c-2-.4-6.1-2.2-5.5-3.5.6-1.3 1.5-7.4 1.9-9.3.4-2-2.4-7.9-4.7-6.4-2.4 1.6-3.1 3.6-4.8 8.2-1.7 4.5 1.3 7.1 1.3 7.1l-7.3-2.5s2.9-3.2 3.6-4.2c.8-1-2.2-7.5-3.3-10.8-1.1-3.2-2-4.7-4.2-2.8-2.3 1.8-2.8 5.6-3 9.3-.2 3.6 1.5 6.3 1.5 6.3l-4.8-3.4s1.4-5.5 1.3-7.7c0-2.1-3.6-9.6-5-11.3-1.2-1.7-2.2-2.4-3-.7-.9 1.7-1 4.6-1.6 9.2-.6 4.5 2.6 8.5 1 8.3-1.5-.2-5-2.2-5.4-4.3-.3-2-1.5-6.7-3-9.8-1.4-3.1-4.7-8.5-6-5.1-1.4 3.3-.8 6.3-.5 9.2.2 2.8 1.4 4.2 1.4 4.2l-5-2s2-3.5 2.6-6.2c.5-2.7-3.1-7-4-8.8-1-1.8-3.8-5.5-4.5-3.5a39 39 0 0 0-.1 15.6l-6.9-3.1s2.8-1.3 3.1-3.6c.3-2.3-2.4-8.2-4.3-11.5-1.8-3.4-4.9-9.2-6-7-1 2.2-1.3 6.6.1 11.9 1.5 5.3.7 8 .7 8l-2.9-.8s.8-4.2.8-7.1c.1-3-2.2-8.6-4.2-13.4-2-4.7-2.5-5.2-4.2-1.8-1.7 3.5-1.2 8-.3 12.8.9 4.7 2.8 6.2 2.8 6.2l-7.9-3s1.3-3.7 1.7-6.8c.4-3-1.9-6.5-3.2-10.4-1.3-3.9-5.1-4.4-6-2.7-.8 1.8.3 7.1.2 10 0 3 2.6 7.5 2.6 7.5l-6.1-4s.2-8.8-1.4-13.7c-1.7-4.8-4.7-5.2-4.7-5.2s-1.4 3.3-1.2 6.9c.1 3.6 1.3 9.3 1.3 9.3l-3.5-2s.8-4 1-6.5c.2-2.6-2-7-3.5-10.4-1.6-3.4-3.9-4.8-4.5-3.5-.6 1.3-1.7 5.6-1.2 9 .4 3.5 1.7 8.2 1.7 8.2l-6.3-3.7s2.5-4 3-6.8c.6-2.7-.3-6.4-.9-9-.5-2.8-3.2-6.2-4.8-4.6-1.6 1.7-2.6 8.2-1.4 12.8 1.2 4.6.2 4.6.2 4.6l-4.3-2.9s1.4-2.2 2-3.9c.5-1.6-3.2-15.5-4.3-14.4l-3.5 15-2.5-2.1s2-5.7 1.7-8.5c-.2-2.9-4.5-8.2-5.4-9.7-.9-1.5-2.2 0-1.6 1.6.5 1.6 1.1 6.5 1.3 8.2.3 1.7-1.8 0-2-2.9-.3-2.8-4-6.2-5.3-8-1.3-1.7-2-.4-1.5 3 .5 3.5.8 7.7.8 7.7s-2.7-5.9-5.1-8.7c-2.4-2.8-9.7-4.2-14.4-6.2-4.7-2-6.5-3.2-4 1.7 2.3 5 7.4 10.4 10.7 13.7 3.3 3.2 10.3 4.7 10.3 4.7s-2.8 1.4-6.3 1.8c-3.4.5-5.7 1.2-3.6 3 2 1.9 4.6 2.8 8.2 3 3.7.2 11.4-2.4 11.4-2.4s7.8 2.7 5.4 2.9c-2.5 0-7.9 2.3-12 4-4 1.8-4.2 3.6-1.8 5.3 2.4 1.8 7.8-.4 12.6-2.1 4.9-1.7 6.5-5.4 6.5-5.4s6.8 4.1 5.7 4.1c-1 0-4.3 1.1-6 1.4-1.7.2-6 2.4-8.5 3.6-2.5 1.2-4 4-3 5s5.2.4 10-.5c4.7-1 11.4-7.6 11.4-7.6s8.9 5 6.3 4.7c-2.6-.2-11.6 4-14 5.2-2.6 1.2-4 4.3-2.3 5.1 1.7.9 5.5.3 8.4-.7 3-1 13.3-7.4 13.3-7.4l6.5 3.2s-4-.4-7.9.1c-3.7.6-4.9 2.4-6.6 4.8-1.7 2.4-3.9 2.4-5.3 4.7-1.3 2.3 1.8.9 4.2 1.5 2.3.6 9.7-2.2 13.4-3.9 3.8-1.6 5.8-5.2 5.8-5.2s7.6 4.3 6.2 4.4c-1.4 0-6 2.4-8.6 3.3-2.6.9-3.3 3-5 4.5-1.6 1.7-3.2 3.7-3.5 5.6-.2 1.9 1.6 1.3 3.7 1.2 2.2 0 9-3.4 12.4-4.9 3.4-1.5 5.6-6.6 5.6-7.7 0-1 11.3 4.4 11.3 4.4s-7.1 1.4-9 2c-2 .7-3 3.2-7.1 9-4.2 5.7 0 5 2.3 4.6 2.4-.5 10.2-5 12.6-7.6 2.3-2.6 5.6-5.5 6-5.3.5.2 9.8 3.2 8.7 3.2-1 0-8.4 2.9-10.8 4-2.5 1.3-3.5 3.8-5.4 5.5-2 1.7-4.6 6.6-.6 6.7 4 0 6.6-1.9 10-3.4 3.5-1.6 5.3-4.7 8.2-6.8 2.9-2 3-3.6 3-3.6s6.3 3.3 4.1 3.4c-2.2 0-6.3 2.5-7.7 3.7-1.4 1.2-3.1 4.7-5.2 7.2-2 2.5-1.8 3.1-.6 3.4 1.2.3 3.3 0 7.6-1.1s4.5-3.7 7.6-6.2c3-2.5 3.2-5.5 3.2-5.5s8.8 2.8 8.3 3.3c-.5.6-4 1.8-7.2 4.3-3.1 2.5-2.7 3.8-4.8 6-2.1 2.2-2.2 4-1.4 5.5 1 1.5 2.2 1 4.9.5 2.7-.6 7.8-5.6 10.7-8.7 3-3.2 2.2-6.2 2.2-6.2l12 4.2-7.8 2.7c-2 .7-4.2 6.8-5.3 9.8-1.2 2.9-.8 3 1.2 3.5 2 .4 9-3.4 12.2-6.3 3.4-3 3.2-7.6 3.2-7.6l9.6 4.7-7.3 3.1c-1.8 1-2.4 2.3-3.6 4.2-1.2 1.8-1.9 3.9 0 7.2 1.8 3.3 6-3.2 10-5.6 3.8-2.4 4-8.2 4-8.2l4.9 1.6s-2 1.4-3.7 2c-1.6.5-2.9 6.3-2.2 7.2.6.9 3.1-.4 7.3-2.9 4.2-2.5 2.1-5.4 2.1-5.4l7.5 2.4c-6.8 4.5-23.2 15.8-39.5 27.3-3.7-1.4-8.6-3.7-8.6-3.7s-1.3-14.2-4.7-15.9c-2.6-1.2-4.5 10.5-1.6 14.9 1.3 1.9-7.6-1.7-7.6-1.7s-3.3-18.6-7.3-17.5c-4 1 3 15.3.1 14.9l-3-.4s-7-19-9.5-18.2c-2.4.8-3.5 5 1 16 .3.5-3.7-1-3.7-1s-5-17-8.5-16.1c-3.5.9-1.7 11.4 2.8 15a37 37 0 0 1-5.9-2.2s-.3-11.8-3.6-14.4c-3.2-2.5-3.6 9.9-3 11.3.5 1.4-3.5-.3-3.5-.3s-2.5-15.5-7-17-2 12.5-.6 14.7c1.4 2.1-5.4-2.3-5.4-2.3s-4.1-15.4-7.2-17.5c-3-2-1 14.2-1 14.2l-2.5-1.1s-8.8-24-11.4-22.4c-2.7 1.6 2.2 18.7 2.2 18.7L155 314s-2.8-14.3-5-14.5c-2.3-.1-1.6 12.3-1.6 12.3s-4.7-18-7.2-18.7c-2.5-.6-1.2 13.3-.4 15.2.8 1.9-4.3-1-4.3-1s-3-16.5-6.5-17.3c-3.7-.7 2.7 15.5 1.9 14.7-1-.7-6-3-6-3s-3.5-18-8-18.3c-4.6-.3-1 11-1.7 9.5-.6-1.4-8-12.7-11.3-12.5-3.2.2-1 4.3-1 4.3s-17.1-6.7-20.5-4.2c-3.4 2.5 26 18.6 28.7 18.6 2.8 0-5.7 3.8-8.2 5.6-2.6 2 8.5 4.5 11 3.8 6.4-2 8.4-5.2 8.4-5.2s8.2 2.7 5.6 3.2c-2.1.4-11 3.3-14 5.9-.9-1.6-2-2.8-3-1.4-1.5 2.3-1 1.5-1.3 3.5a38 38 0 0 0-.2 8c.2 2.5 1 6.6 1 6.6l-2.1-1s-.5-5.1-1-6.8c-.3-1.7-3.8-9.7-4.6-12-.8-2.3-3-3.7-3.8-3.6-.8.1-1 2.9-.5 6.8.6 3.9 1.4 5.1.6 4-.8-1-3.5-7-5.3-8.4a84.8 84.8 0 0 0-13.6-7.7c-2.3-.5-3.8-1.7-2.8 2.3 1.1 4 9.6 12.5 11 14 1.5 1.6 6.5 4.5 6.5 4.5s-7 1.1-8.6 1.5c-1.5.4.7 2.7 1.6 3.2 1 .6 4.8 3.5 8.1 5s9.5-2.1 9.5-2.1l2 1.4s-7.2 2-10 3c-2.8 1.1-5.3 2.9-4.4 4.6 1 1.8 11 2.4 14.2 1.4 3.1-.9 6.2-5 6.2-5l5.8 3.6-7.6 1.2c-2.5.3-4.5 3.7-6.9 6.2-2.4 2.6-2.8 4.7-2.8 4.7s2.1.6 4.7.6 11.7-3.6 13.8-5.3c2-1.6 2.4-3.9 2.4-3.9l5.4 3.6s-3.3.8-4.8 1c-1.5.2-4.7 2.7-7.8 4.6-3.2 2-3.3 4.2-3.3 4.2s2.6 1.3 5.7 1.4c3.1 0 8-2.1 10.8-4 2.9-2 3-4 3-5 0-.8 7.6 3.9 6.9 4-.7 0-6 1.6-9.6 3.1-3.5 1.5-3.5 3.4-5.5 5-2 1.4-2.2 4.3-1 5 1 .8 5.2.4 8.3-.7 3.1-1.1 7.5-4.3 9-6l3-3.9s6.7 3.4 7.2 3.9c.4.5-3-.1-4.5 0-1.5.3-2.6.4-6 2-3.3 1.7-2.6 3.2-4.5 5.8-1.9 2.7-3.2 4.4-2.6 5.2.6.8 2.3 0 4.5 0 2.2.1 7.8-2.1 11.3-5.7 3.5-3.6 4.4-5.4 4.4-5.4l7.2 3.7c-1.3-.7-4.6.2-7 .6-2.3.3-4.5 3.5-6.9 6a23.7 23.7 0 0 0-3.9 5.9s1.9 1 4 .9c2-.1 10.6-3.7 13.1-5.8 2.5-2 4-5.1 4-5.1l7.5 3.5c.7.2-2.7.5-5.4.8-2.7.4-3.8 2.4-6.5 6.4-2.8 4-2.8 6.8-1.2 8 1.5 1.1 9.4-3.2 13.8-7.2 4.5-4 2.8-6.4 2.8-6.4s6.3 3.6 7.4 4c1 .3-3.3 1-6.6 2.4-3.2 1.3-2.8 2-4.9 5.6a7 7 0 0 0 .2 7.6c.6 1.1 3.1-.6 5.8-1.1 2.7-.6 4.9-5.1 7-8.4 2.2-3.2 1.4-5.1 1.4-5.1l8.6 4s-2.2.3-4.7 1.1c-2.4.9-3.2 1.8-5 5.2-1.7 3.3-3.6 7.5.2 7.5 3.8 0 9.3-4 11.3-7s.6-5.7.6-5.7l12.3 6-34.4 27.5-12.2-1.3s-.4-4.4-2.3-7.9c-2-3.4-4.3-4-4.3-4s-2.3 2.3-1.6 4.6c.8 2.3 3.8 7 3.8 7l-7.3-1.3s-1.3-5.2-2.6-7.2a17 17 0 0 0-5.7-5.1c-1.2-.4-1.3 3.5-.2 5.7 1 2.1 2.8 6.4 3.9 6.7 1 .3-5.7-.8-5.7-.8s0-1.2-1.1-4.6c-1.2-3.3-3.2-7.5-4.7-8.6-1.5-1-3.6.6-3 2.6.6 2 2.4 5.8 3 7.2.6 1.5 1.5 2.8 1.5 2.8l-6.4-1.7s-1.2-4.6-2.7-7.4c-1.5-2.7-3.2-5.8-4.3-6.5-1.2-.6-2.4.6-2.1 2.2.3 1.5.2 5 1 6.8.7 1.7 3.9 5 3.9 5l-4-.7s-2.6-4.1-3.5-6.3c-1-2.2-2.9-5.1-3.8-5.9-.8-.7-2.6-1.1-2.6-1.1s.3 6.1 1.4 8c1 1.7 3.4 4.6 2.9 4.3a125 125 0 0 0-2.7-1.7s-.3-1-2.5-5c-2.2-4.1-2.5-5.3-4-5.8s-3.4-.3-3.4-.3-.5 2.5 0 4.1c.5 1.6-1.7-2.8-2.5-3.8s-3.8-4.7-4.8-4.8c-1-.2-1.1 3-.9 4 .2 1 1.7 5.4 1.7 5.4l3.3 4-3-1.6s-2.8-3.4-3.4-5.9c-.7-2.5-3-5.2-3.8-6.5-1-1.3-2.5-2.5-3.5-1.7-1.5 1.1.4 5.9.7 7 .3 1.2-2.4-4.3-4.4-6.5-1.7-1.9-1.3 2.6-1.8 4-.5 1-1.2-3.8-2.3-5-1-1.3-1.3-2.6-2.6-1.9-1.4.7-.2 4.3.3 5.6l1 3.1s-3.7-3.3-5.6-4.7c-1.9-1.5-4.4-4-3.7-2 .6 2 1.4 3.9 1.4 3.9s-3-2.1-4.6-3c-1.6-.8-5.2-1.9-7-2l-6.4-.5c-1 0 2.8 4 4.3 5s8.6 4.6 10.4 5.1c2 .6 4.1.6 4.1.6s-1.1 1.2-2.7 1.3c-1.7.1-2.7 1.1-1.8 1.6 1 .6 4.8 2.1 7.4 2.2 2.6 0 6.4.3 5.5.5-.8.1-3.8 2.3-4.7 2.8-.9.6-2.2.6-2 1.8.1 1.4 1.4 1.6 3.2 1.6 1.9 0 4.4-.1 6.3-.5 1.8-.4 4.5-2.5 5.3-3.2l3.4-2.5 1.8.4s-2.4 2.6-4.6 3.5c-2.2 1-4 2.2-4.8 3.5-1 1.3-1.5 2-1 2.9.3 1 2.5 1.3 4.1 1.2 1.6-.1 5.1-2.3 6.4-3.4a34 34 0 0 0 3.7-6.1l3.6 1s-2.9 1.6-4.3 3.1a12.2 12.2 0 0 0-3 4.6c-.7 2-1.7 3.3-.9 5.2.8 1.9 3.3 1.2 3.3 1.2l4-5c1-1.1 3.8-3.2 4.2-4.1l1-3 4.6.5s-2.3 1.1-4.6 3c-2.4 1.9-3.7 2.3-4.3 4.5-.5 2.3-1 1.7-.4 3.7.4 2 3.1 1.5 4 1 1-.3 3.4-3 4.5-4 1-1 3.3-4.5 3.8-5 .5-.6.5-2 .5-2l5 1s-4 3.3-6 5.8c-1.8 2.4-3.4 3.2-3 6 .5 2.8 2 3.3 3.3 2.6a21 21 0 0 0 5.4-4.3c1.8-2 4.3-6.2 4.6-7.3.3-1 3.6-1 3.6-1l-3.7 5.3c-2 2.8-3.4 3.8-2.9 5.8s.2 4.4 1.3 4.5c1.1 0 1.6.4 4-1.2 2.2-1.7 5.3-6.5 5.6-8.7l.5-5 5.6.1-2.7 3.3c-1.7 2.2-3.1 4.6-3.2 6.2-.1 1.5-.4 2.7.3 3.5.7.8 3 2 4 1.1 1-.7 2.9-2.4 3.7-3.9 1-1.5 3.3-4.1 3.1-5.5-.2-1.4 0-3 0-3l6.8.7s-2.7 1.9-4 3.5c-1.4 1.7-3 5.5-2.9 6.6 0 1-1.5 4 .8 3.2 2.3-.8 5-1.5 6-2.3 1.2-.9 2.3-1.7 2.8-3.8.4-2 .6-6.3.6-6.3l6.2.3c-.2 0-1 .2-2.7 2.7a14 14 0 0 0-2.8 6.5c-.2 1.5-1.5 3.6 1.3 2.8 2.8-.8 3-.5 6-3.4 3-3 4.3-4.6 4.4-5.9v-2.4l9.2.8a4869 4869 0 0 0-37 30c-1.6-.3-4.9-1-5.2-1.3-.3-.4-.8-3.9-1.6-5.8s-2.8-4.6-2.8-4.6-.9.6-1.8 1.5c-1 1-.5 2.4-.2 5.3a7.1 7.1 0 0 0 1.5 4.2l-2-.9-3.8-7.5c-1.4-2.3-3-3.4-4.3-4.5-1.4-1-2 .5-1.9 2.1.1 1.6.3 2.5 2 6.4.8 2.2 1.3 3 1.6 3.2l-2.1-.6s-2.2-5.2-2.8-7.2c-.6-2-2.4-4.9-4.1-7-1.8-2-2-1.1-2.5 0-.4 1-.3 2.7-.2 4.7 0 2 .7 3.6 1.7 6.1 1 2.5 1.6 3.4 1.6 3.4l-2-.6-1.3-5.2c-.5-2-3.3-5.9-5-9.3-1.5-3.4-2-1.1-2.5-.4-.4.8-1 2.5-1 3.8 0 1.3.3 3.4 1.4 6.2 1.2 2.8 1.4 3.9 1.4 3.9l-1.6-.5s-1.7-3.5-2.3-5.1c-.7-1.6-3.4-4.5-4.2-5.7-.8-1.1-1.9.8-2.1 2.6-.2 1.7.7 2 1 4.3.4 2.3 1.6 3.7 1.6 3.7h-2.3l-1.4-5.4c-.2-.8-3.2-5-4-6.3-.7-1.4-2.3-.5-2.6.7-.2 1.2.4 2.8 1.5 5.9l1.4 3.7-1.2-.1s-.4-2-1.3-4c-.8-2.1-3-4.7-4.6-6.3-1.6-1.6-3.6-2-3.9-.4-.2 1.5 1.5 4.5 2.4 6.6.8 2 1.7 2.8 1.7 2.8h-3.3l-.4-3.1c-.2-1.4-3.4-6-4.5-7.4-1.1-1.4-3.6-3.3-3.8-2-.1 1.4.3 3.4.6 4.6l1 4.8s-1.7-2.6-2.7-4.5c-1-1.8-4-5.3-4-5.3s-3.3-3-4.5-2.4c-1.2.7 0 1.8.8 4.3.8 2.4 5 7.5 4 6.6-.9-.9-12-5.2-20.5-5-2 0-3.2-.3-3.7 1.2s.5 1.8 5.2 4.1c3.2 1.6 7.7 3.5 10.9 4 3.1.6 7.5 1.7 7.5 1.7l-3.6 1.7c-1.6.8-1 2.3.8 2.8 2 .5 3.9-1.4 3.4-.5l-2.5 4.8c-.5.7 3.3 0 5-.7a8.7 8.7 0 0 0 4.2-3.7c1.4-2 4.7-3.8 4.7-3.8l6.8.3s-1 .6-2.6.9c-1.5.3-2.8 1.7-4.3 2.4-1.6.6-2.5 3-4 4.4-1.4 1.3-1.1 3.8-.3 4.4.8.6 1.4 0 2.8-.7 1.5-.6 5.5-3.3 7.3-5.2 1.8-1.8 4-4.8 4-4.8l4.9.4c.5 0-3.9 2.3-5.2 3-1.4.8-3.4 4.4-4.7 6-1.4 1.7 1.2 2.5 2.6 2.3 1.4-.2 3.2-.6 4.8-1.6 1.6-1 3-2.7 1.7 0-1.3 2.8-1.1 3.1-1 3.8 0 .7 2-.8 3.2-.8 1.1.1 5.2-3.4 6.7-6 1.6-2.4 4-4.8 4-4.8l3.1.1s-2 1.4-3.2 2c-1.2.8-2.7 4.7-4 6.5-1.3 1.9-.7 4.4.4 4.9 1 .4 1.9-.8 3.4-1.6s3.4-3.4 4.5-5.6c1.1-2.1 3.7-5.8 3.7-5.8s4.2-.2 3.1 0c-1 .3-3.8 4.2-6 7.2-2.3 3-1.8 3.7-1.6 7.3.2 3.6 1 0 3-.7 2-.6 3.8-3.3 5.2-5 1.3-1.6 4.2-7 4.2-7s3.9-.5 5.2.4c1.3 1-3.5 4.2-5.2 7.1-1.7 3-3.4 5.5-1.6 5.5 1.8 0 7.8-4.9 9-6.5 1.1-1.6 1.8-4.8 3.1-5.2 1-.2 5.1.1 7.2.4l-3.7 3c-9 7.5-10.2 9.1-9.3 9l-5 4.7c-2 2-10.3 10.5-14 14l-5.8-.7s0-1.2-.3-2.2c-.2-1-1-4.3-1.8-6.8-.7-2.4-1.7-4.3-1.7-4.3s-1.7 1-2.5 3.3c-.7 2.3-.5 3.4-.1 6 .4 2.5.3 2.9.3 2.9l-2-1-.4-2.7c0-1-1.4-3.5-2.2-6.3-.8-2.8-1.8-.2-2.5.5s-1.2 1-1.2 3.6.7 3 .7 3l-2.4-.4-.6-4.4c-.1-1.5-1-3.8-1.7-6.4-.7-2.7-2.1-2.6-2.1-2.6s-1.3 1.5-1.6 3.3a26 26 0 0 0-.5 5c0 1.8-1.2 2.2-1.4 1.7 0-.5-1-5.2-2-7.6-1.1-2.3-3-4-3-4s-1.4 2-1.5 4.5L63 468s-.8-3.3-1.3-4.5c-.4-1.1-3.4-4-4.2-5-.7-1-2.3-1-2.2 1v4s-1.6-2.5-2-3.8c-.5-1.3-2.3-3-2.8-2.3-.6.6.2 3.4.2 3.4l-2.8-2.4c-2-1.6-11-5-16.7-3-4.3 1.4 3.7 3.4 5.2 4.6 1.5 1.3 4.5 3 6.7 4.4 2.2 1.4 6.4 2.4 6.4 2.4l-4.7 1.4c-1.5.3.8 1.6 2.5 2.6 1.6 1 3-.1 5.5-.1 2.4 0 5.5-2 5.5-2s1.8 1 1.2 1.2l-7.6 3.8c-1.8.9-2.6 2.4-1.8 3.8s2 .1 3.6-.2c1.7-.4 5-1 7.9-2.2 2.9-1.2 2.8-2.4 2.8-2.4l5 2s-3.2 0-5.9 1.2c-2.7 1.1-1.9 1.6-4 3.5-2 1.8-1.8 2-1 3 .7 1 2.7-.2 4.2-.7 1.4-.5 4.6-.5 3.4.5-1.2 1-1 2.4-.3 3.3.7 1 3-.4 5.4-1.3 2.5-.9 3.3-2 4.4-3.2 1.1-1.3 2.4-3.5 2.4-3.5s2.3.2 3 .4c.8.2-2.9 2.6-4.6 3.5-1.8.9-2.5 3.3-3.5 4.9-1 1.6-.7 1.9.6 2 1.2 0 2.5-.6 4.7-1 2.1-.5 4-3.7 5-4.8 1-1 2.3-3.4 2.3-3.4s5.4.7 5 1c-.6.3-5.2 2.3-6.7 3.2-1.6.8-1.8 2.3-1.1 3.2.7.9 4.5-1.2 6.8-1.8 2.3-.7 3.3-3.3 3.8-3.3H98a332.4 332.4 0 0 0-18.5 20.8c-2.3-.7-10.1-3-12.8-3-3 0-10-1.1-14.1-.7-3 .3-6.4.3-8.1.6-2 .3-5.9 1-5.4 2 .4 1.1 3 3.4 6.8 3.6 3.8.3 10 1.6 13.5 1.7 3.3.1 1.2-.3 5.8 0 4 .2 10-2 10-2l2.5-.1-5 5.6c-.6.9-4 4.9-6.8 8.2a9 9 0 0 0-.7-1.5c-.5-1-2.5-1.2-5-2.4s-8-1.5-12.1-1.1c-4.1.4-6.6.5-4.8 2.7 1.8 2.2 6.2 3.4 11.7 5.2 5.2 1.6 8-.1 8.9-.4l-1.8 2.2-4.1 5.4a9.7 9.7 0 0 0-6.6-2.2c-4 .3-7.5 2.3-8 3-.5.5.3 2 2.7 2.6 2.5.7 4.2.7 6 .3 1.1-.2 2.7-.6 3.8-1l-.4.6c-1.5.8-12.1 13.5-14.8 16.4C38 551 30.1 564 29 566.2c-1 2.3-4.7 7.3-4.4 8.5.3 1.1.4 3 5-1.6 4.7-4.5 9.6-8.6 14.4-15 4.7-6.3 10-14.6 10.6-16.2l2.7-7.2s.2 1.6 1.6 5c1.4 3.6 2.2 5.8 3.4 6 1.2.3 2.7.8 2.7-3.3 0-4-1.6-7.3-2.3-8.5l-2.5-4.4 5-6.6s.2 4 1.7 7.7c1.5 3.6 2 4 4.4 7.2 2.4 3 4.9 6.3 6.2 6.5 1.4.1 1.6-3.3 1-6.3a48 48 0 0 0-7.6-17.8l-1.6-1.6 6.9-8.9 2.5-2.5s-1.4 5.7-.5 10c.8 4.3 1.3 9.8 3.4 14.5 2 4.7 7 15.2 8 15.5 1 .3 2.1-7 1.9-10.3-.3-3.4-1.8-13.3-2.8-16.5-.9-3.1-4.2-9.7-4.7-11.9-.5-2.2-1.7-5-1.7-5s2.1-3.8 4.3-6c2.2-2.3 5.5-6 6-6.7.4-.8 7.4-8.3 8-8.7.5-.4 1 5 1 5s-2.8 0-4.5 1.2a12 12 0 0 0-4.3 5.3c-.5 1.9-.5 3 1.8 2 2.2-.9 4.7-1.9 5.6-2.8l2.1-2.4.2 5s-2.7-1-4.6-.2c-2 .8-5 1.9-6 3.4s-2.8 3.2-2.2 4.4c.5 1.3 2 2 3.6 1.1 1.5-.8 3.7-1.5 4.9-2.4l3.8-2.8c1-.8.5 2.7 0 2.9-.4.2-5 1.5-7 2.8-2.2 1.2-2.4 1.9-3.5 3.4-1 1.5-1.8 2.6-1.3 3.5.6.9 1.8 1.7 4.2.3 2.4-1.4 4-1.5 5.5-2.7 1.6-1.2 3.1-4.6 3.1-4.6l.6 2.8s-3 2.5-4.8 3.2c-1.7.7-4.3 2-5.6 3.7-1.4 1.6-2 4.9-1.4 5.7.7.8 1.5 1.4 3.5.2 1.9-1.1 4-2 4.7-2.8.7-1 2.7-2.8 3.3-3.6.6-.8 1.3-2.6 1.3-2.6l-.1 5.4s-2.5 1.2-4.2 3c-1.6 1.8-3 5.1-3.3 6.2-.3 1-.7 2.9-.5 4 .1 1.3 2.1.3 3-.4l3.5-3.7c1.2-1.2 2.6-5.3 2.6-5.3l.2 3.8s-1.5.6-2.5 4.7c-1 4.2-2.2 6.5-1 11.5 1.2 5 1.5 7.2 2.6 9.9 1.1 2.6 2.2 5.9 2.7 5.1.9-1.5 2-3.8 2.6-5.3.5-1.5 1.7-10.5.8-13.6-1-3.2-2.9-8.3-3-8.6-.1-.3 2.1 2.4 2.9 2.9.7.4 1.7 1.1 2.4.8.6-.2.4-3-.4-4.8-.8-1.9-2.6-4.1-2.6-4.1s2.3 2 3.3 2.2c1 .1 1.5 0 2.1-.2.7-.3.8-1.6 0-3.1-.8-1.6-2.6-4.3-3.4-5.6-.7-1.4-3.5-.8-4.3-1.4-.8-.6-1.5-2.9-1.5-2.9s1.4 1.6 2.3 2c.9.4 2.3 1.1 3.6 1.1 1.3 0 2.6-.3 2.6-.3s-1-1.8-2-3.2c-1-1.5-3.6-4.1-3.6-4.1s1.5 1.2 2.7 1.6c1.3.4 2.8 1 2.8 0s-.8-3.4-1.8-4.3c-.9-.9-5.3-2.6-6-3-.8-.4-1.7-.6-1.7-.6l-.6-2.6s.6 1.5 3 2.2c2.3.7 2.9 1.2 4.6.8 1.7-.3 3.1-1.3 3.1-1.3s-.2-2.3-1.6-3.4c-1.4-1-2.8-1.8-4-2.4-1.1-.6-5.2-.6-5.2-.6l-.7-2.9a15.8 15.8 0 0 0 7.5 1c2-.2 2.8-2 .7-3.6-2-1.6-4.4-3.2-5.6-2.9l-3 .9-.2-4.6s2.4-4 4-5.9c1.7-1.8 12.5-12.3 14.2-13.6 1.6-1.2 10.8-10.4 12-11l-.3.5.8 2 1 6.2-1.5-1.3c-.4-.3-1.9.5-4 1.2-2.2.7-2.5 2.6-3.1 4.2-.7 1.6 2.8 1.1 2.8 1.1s2.8 0 4-1c1.2-.9 1.8-2 1.8-2l-.2 4.9s-2-.4-3.6-.5c-1.6 0-3.3.8-5 1.3-1.6.6-3.7 3-5.3 4-1.6 1-2 3.6-1.3 4.3.8.7 2.8.7 4.9.5a21.2 21.2 0 0 0 10.5-4.6l.8 4.7s-3.4-.8-5.6-.5c-2.2.3-2 .4-4.6 1.3-2.6 1-3 1.9-5.3 3.2-2.2 1.3-3.2 3.6-2.2 4.2 1 .7 2 .4 3.8.8 1.8.3 7.2-1.3 10.1-2.6 3-1.4 3.9-4.3 3.9-4.3l.4 6.7s-4-.2-5.1 0c-1.3.4-4.4 2-6.6 3.4-2.2 1.3-2 3-2.8 4.7-.8 1.7 1.6 1.3 3.3 1.5 1.7.2 5-.3 6.5-1.3 1.7-1 5.5-3.8 5.5-3.8l-.4 2.2.1 4.3s-1.5-.9-2.2-1c-.7-.2-2.2.3-4.6 1.3-2.4 1-3.1 3.4-5.4 5.2-2.4 1.7-1 2.7-.7 3.3.4.6 1.8.3 3.4.2 1.5 0 4-1.4 5.9-2.7 1.8-1.3 4.2-2.3 4.2-2.3l.6 4.4s-2-1.2-3.1-.9c-1.2.3-4.4 2-6.6 3.3-2.2 1.3-2.5 2.8-3.6 4.3-1.1 1.4-1.2 2-.3 3 1 .8 2.7.5 5.4-.4a28.7 28.7 0 0 0 8.9-4.7s.4 3.1-.7 3.2c-1.1 0-4.4.6-5.6 1.3-1.2.7-2.9 3-4.8 5.2-2 2.1-.9 3.9-.2 4.7.6.8 2.5-.5 4-1.2 1.6-.7 4-2.6 5.5-4.2 1.4-1.6 2.6-2.6 2.6-2.6s-.4 3.4-1.4 3.7c-1 .2-2.8 2-4.1 2.8-1.3.7-2.4 3.6-4.3 5.8-1.8 2.3-1.2 3.7 0 5.4 1.2 1.7 2-.7 3.7-1.8 1.8-1 2.6-2 4.2-4 1.5-2.1 2.6-4 2.6-4s.5 3-.9 3.6c-1.4.6-2 1.8-3.3 3-1.2 1.4-1 4.4-1.3 7-.3 2.5 1.5 3.9 2.7 3.6 1.2-.4 2.6-2.7 3.4-5.4.8-2.7 1-4.4.9-4.9l1 3.4s-1 2.1-1.9 3.3c-.9 1 .6 5 .8 6.6.2 1.7 2.3 8 3.4 10.8 1 2.7 3.2 4.8 4 3.4.7-1.5.7-3 1.3-4.8.6-1.7 0-3.7-.2-7.4s-1.6-6-2.8-7.9a70 70 0 0 1-2-3c.6 1 2.6 2 4 2.4 1.4.4 2.1-.6 1.4-3.2-.7-2.5-.5-1.5-3-4.5-2.6-3-2.6-3.4-2.6-3.4l2.9 2.6c1.3 1.2 3.8 1.1 4 0 .1-1-.7-2.4-1.3-3.8-.6-1.4-3.4-4.1-2-3.5 1.3.6 3.4.5 3.3-1-.1-1.6-.7-2-1.7-4s-2.4-2-4.2-3c-1.8-1.1 2.8 0 4.1.3 1.4.2 2.6-.1 3.1-1.2.5-1.1-1.5-2.3-3.6-4.8-2.1-2.6-4.3-2.6-6.6-3.5-2.3-.8-2.3-.2-3-.2-.5 0-.4-4.1 0-3.4.5.7 2.7 1.8 3.5 2.5.8.7 2.2 1 3 1.4.9.5 3.8-.3 5.6-1 1.8-.6-.4-2.3-1.6-4-1.1-1.6-1.9-2.2-4.8-3.8-3-1.7-5.7-2.2-5.7-2.2s0-3 .8-1.5 2.9 2 4.6 2.9c1.8 1 4.7.2 6.3-.4 1.7-.6.2-2.5-.8-3.7-.9-1.2-2.4-2.5-4.7-4-2.2-1.4-3.7-1-5.6-1.2-2-.2-1.8-.3-2.1-1.5-.3-1.2-.6-4.6-.1-3.1.5 1.4 2.5 1.8 3.9 3.2 1.4 1.4 2.5 1.5 4.5 1.7 2.1.1 3.8-1 4-2.4.2-1.3-1.5-2.5-3.4-4.5-2-2-2.1-1.1-6-2.2-4-1-3 0-3.3-.4-.4-.4-.8-5.3-.5-5.3.2 0 1 2 1.7 2.6.6.6 4.8 1.7 5.9 2.3 1 .5 4 0 5-1s-1.6-3-3-4.8c-1.2-1.9-3.2-2.6-5.3-3.2-2.1-.5-2.7-.4-4.1.4-1.5 1-.3-1.8-.5-2.8-.3-1-.5-3.5-.2-3a13 13 0 0 0 5.4 2.8c2 .4 4.5 0 4.3-1.5-.3-1.4-4.5-4.5-6.9-5.6-2.4-1.2-2.5-.2-3.3.1-.8.3.2-8.8.2-8.8l-.4-.3 35.1-27.7c0 2.7-.6 5.8-.4 6.4.3.9-3-.5-5 1.1s-4.4 3.8-5 5.3c-.5 1.4.8 1.9 2.6 1.5 1.7-.3 3.3-.2 4.8-1.5l3-2.9-.8 5.6s-4.9-.4-6.5.1c-1.7.5-6 2-7.4 4.3-1.5 2.3-3.7 4.4-3.7 5.9s3.6.6 4.8 1c1.1.4 3 .7 4.8 0 1.7-.7 3.8-1.6 5-2.6 1.2-1 3.8-5.2 3.8-5.2s-.7 3.6-.3 5.7l.6 4.5s-2.6-2-5-.9c-2.6 1.2-5.2 2-7.1 3.1-1.9 1.2-3 3.7-3.9 5.1-.8 1.4-1.7 3.8-1.7 3.8s1.7 1 5 .5c3.4-.6 5.3-.7 7.2-1.8 1.9-1.2 3.2-2.3 4-3.5.7-1.1 2.3-2.5 2.3-2.5s-.2 4.3-.1 5.3c0 .9.4 3 .4 3s-1.5-2.1-5-.3c-3.4 1.8-5.9 2-7.3 3.6a21 21 0 0 0-3 4.9c-.6 1.2-1.7 2-.8 3 1 1.1 2 1 3.5.8 1.4-.2 3.7-.6 5-1.3 1.4-.7 3-1.1 4.3-2.6 1.3-1.5 4-5.3 4-5.3s-.2 1.2-.1 3v4.3s-3.1-.1-4.5.4c-1.5.6-6.2 1.9-7.7 3.8-1.5 2-2.6 3.1-3 4.9-.5 1.7-1.4 3.4-1 4.1.4.8.6.7 2.4.1 1.8-.5 2.7 0 5.1-.9 2.4-.9 5-3 6-3.7 1-.7 2.8-1.8 3.2-3.4l.3-1.5.5 4.2c.2 1.4-.1 3.1-.1 3.1s-.7-1.3-4.3.5c-3.7 2-5.7 2.8-7.4 4.8a14 14 0 0 0-3 5.4c-.3 1.5-1.7 2.9-.4 3.5 1.3.7 3.1-.2 4.7-1.3 1.6-1 3-2.2 4.8-3 1.6-.9 3.4-1.4 4.3-2.5.8-1 2-3 2-3s.6 2.6 0 2.8c-.7.2-1.4 0-4.1 2.5-2.7 2.6-4.5 2.5-5.7 5.8-1.1 3.3-2.1 4.4-2.2 6-.2 1.6.4 4.6.4 4.6s1.8-1.1 2.6-1.4c.8-.2 3.1-3.1 3.1-3.1s-1.9 2.9-2.2 5.2a16 16 0 0 0-.3 5.5c.4 1 0 2.4.8 2.3 1-.1 1.3-1.3 2.3-2l2.8-2a13 13 0 0 0-2.3 4.5c-.5 2-.8 3.6-.6 4.7.2 1-.2 3.8 1.2 3 1.3-.7 3-2.7 4.4-4 1.5-1.3 3.8-3.9 4.4-5 .6-1 2-5.4 2-5.9.2-.4.7 2.8 1 3.6.2.8 1 2.6 1 2.6s-1-.8-2.4 1a29.6 29.6 0 0 0-2.7 5.3s-.3 4 .2 5.8c.5 1.7 1.5 5.6 2.1 6 .9.5 2.3-2.7 3-4 .6-1.3 2-3.8 2.2-5.6.2-1.8.7-3.6.7-3.6l1.4 3.1s-.7.7-1.3 3c-1.4 5.1-.2 6 1 8.6 1 2.5 2.5 5 3.3 6.5l4 6.4c.7.8 2.6 3.3 3 2.3.8-1.7 1.2-5.9.8-7.8-.4-1.9-1.1-4.4-2.8-8.5a78 78 0 0 0-5.4-10.2c-.3-.3 2 1 3.5 1.5 1.5.6 3 .5 3.5.1 1.4-.7.2-2.2-1.7-4.8-2-2.7-4.2-4.8-5.7-5l-3.7-.5-2-4.6s2.1 1.8 4 2.5c2 .8 3.8 1.4 5.6 1.2 1.8-.2 4.3 0 4.8-.8s0-.7-1.6-2.6a22.5 22.5 0 0 0-7.3-5.6c-1.5-.2-3-1.4-4-1.2-1.1.2-3.1 0-3.1 0s-2.2-3-2.3-3.6c0-.5.3.6 2.2 1.2 1.8.6 4.2 1.8 6 2 1.9.2 4 1.4 5.5 1 1.6-.4 3.2-.6 2.8-1.2-.3-.6-1.6-4.2-3.6-5.2-2.1-1-5.2-3-7.2-3l-6-.4-1.1-3.5-.4-1.5s1 .5 2.3 1.7c1.4 1.2 2 1.6 3.9 2.2 1.8.6 3.6 1.8 6 1.5 2.3-.3 4.5-.4 5-1 .4-.7.5-1.3-1.7-3.2-2.1-2-5-3.5-6.9-4.1-1.8-.6-5.2-2.3-6.2-2.4-1 0-2.8-.6-2.8-.6s-1-3.8-.6-3.2c.5.5.8 1.7 3.4 2.8 2.7 1.1 4 2.6 5.8 2.2 1.8-.3 3-.2 4.1-1 1.1-.7 1-2.2.1-3.5-.9-1.3-2.6-3-4.3-3.5-1.8-.4-3.9-1.5-5.3-1.7a122 122 0 0 0-4.3-.4s-2.1-5.7-1-4.7c1 1 1.7 2.4 3.3 3.1 1.5.7 4 1.8 5.4 1.6 1.5-.2 2.7 0 3.8-.2 1-.2 2.3.7 2.6-.4.4-1.2-.5-2.5-2-3.8-1.4-1.4-3.9-2-4.8-2.7-1-.7.1-.5 1.4-.7a2.9 2.9 0 0 0 1.8-1.3s-1.6-3.8-2-3c-.4.7-3.9-3.8-5.8-4.2-1.9-.3-4.4 0-4.9-.5-.4-.5-1.3-5.1-.5-6.1.9-1 1 1.6 3.6 2.4 2.5.8 4.5 1.3 6.5.6 2-.6 5-.6 4.8-2-.1-1.5-1.1-4.5-3.6-5.3-2.6-.8-5.5-2-7.8-2s-3.9.3-3.9.3-.8-7.6-.5-8c.4-.4.9 1.7 2.8 2.8 2 1.1 3.6 2.4 5.3 2.3 1.6-.1 5 0 4.8-1.4 0-1.3-.2-3-2.3-4.4-2-1.4-3.9-2.7-5.7-2.8-1.7 0-3.5 1-4.4.4-.8-.5-1.3-3-1.3-4.3 0-1.4.4-3.5.4-3.5s.1.7 1.3 2.2c1.2 1.5 2 3 3.8 3.2 1.8.2 4.4 1.4 4.7-.1.4-1.5-.3-4.7-2-5.5a40.6 40.6 0 0 0-7.7-2.5l.1-8.2 40.7-32-.6 10.9s-1.5-3-5.6-1.4c-4 1.7-11 6.3-10.6 7.8.3 1.5 5.2.6 7 .4 2-.3 4.9-1.9 6.2-2.6 1.3-.6 3.3-2.1 3.3-2.1l-1 7.6s-4.5-1.5-7.3-.3a22.3 22.3 0 0 0-9 5.9c-1 1.5-1.5 2.8-1.9 4-.3 1.3 1.7 2.7 4.9 1.7 3.1-1 5.4-1.7 7.5-3.1 2.6-1.8 5.7-5.7 5.7-5.7s-.7 3-.6 5.8l-.2 7.6s-1.2-1-4.8-.3c-3.6.7-7 2.4-8.9 4.8-1.7 2.4-4.5 5.1-4.4 5.4.2.3 1.3 1.1 4.9 1 3.6 0 6.5-1 8.5-2 2-1.2 5-6.3 5-6.3l-.2 5c0 2.6.7 7.8.7 7.8s-1.6-2.6-4.8-1a36.9 36.9 0 0 0-9 6.5c-1.5 1.7-4.8 5.8-4.4 6.8.4.9 2.9 1.5 5.6.7 2.7-.8 5.2-1.6 7.8-2.6 2.6-1.1 4.7-6 5.1-6.3.4-.5.3 3 .4 4.2l.4 5.1s-4-1-6.4.5c-2.4 1.5-5.7 1.8-7.6 4.5-1.9 2.7-4.4 7.4-3.8 8.8.6 1.4 2.3.1 5.3-.6s6.6-3.5 8.2-4.2c1.7-.7 4.8-5.1 4.8-5.1s.5 2.6.4 3.5c-.1.8-3.8 1-6.3 3.7-2.4 2.7-5.2 3.3-7 6.5-1.7 3.2-3 5.4-3.1 7.1-.1 1.8 2.8.8 5.7-.1 3-1 5-2.3 7-3.8 2.2-1.4 4.9-4.4 4.9-4.4l.8 4.6s-4.7 1.4-8.3 4.8c-3.5 3.4-3.9 4.7-5 7.4-1 2.6-2.4 6.2-1.6 6.7.8.5 6-2.2 7.2-2.7 1.2-.5 3.7-1.8 5.3-3.3 1.6-1.5 3.9-3.2 3.9-3.2l.3 4s-4.6 1.6-6.7 2.7a8.6 8.6 0 0 0-4.4 4.7c-1.4 2.7-2.6 6.5-2.1 8.3.4 1.8 3.2-.2 4.4-.7 1.2-.5 5.4-3.6 6.8-4.5 1.3-.8 4.3-4.2 4.3-4.2l.2 3.8s-4 1.3-5.8 3.4a23.4 23.4 0 0 0-5.4 8.4c-.5 2.7.3 5.4.3 5.4s3.6-1.2 6.5-3.8c2.8-2.5 5.7-6.8 6.1-7.8.5-1 1 3.7.3 4-.7.3-2.6 1.7-4.3 4.3-1.7 2.7-3.3 5.5-3.3 7.5s-.6 6.6 1.5 5.5c2-1.1 2.9-2.3 4.1-3.4 1.2-1 4-6.6 4-6.6s-.5 5.7-.2 7.8c.3 2 1.4 6.6 2.4 8.4 1 1.8 1.7 10.2 4 12.5 2.4 2.4 4.6 11.7 5 4.6.4-7 .6-10 0-15.3-.5-5.3-1-10-2.3-11.7-1.3-1.7-3-4.6-3-4.6l5.1 3.1c1.5.8 2.8 1.4 3.7.7.8-.6-.4-4.8-2.5-7.3a70.2 70.2 0 0 0-8.5-7.8c-1.1-.7-2.2-1.9-2.2-1.9l-.7-2.5s4 2.9 4.5 3.5c.5.6 3.7 3.7 6.3 4 2.6.3 5.2 3.1 6 .9.7-2.3-1-2.7-3.4-6.1a23.2 23.2 0 0 0-8.8-6.6c-2-.9-6.1-1.4-6.1-1.4l-1-4.5s2.6 3 4.2 3.7c1.7.7 5.2 2.6 6.7 2.8 1.5.2 4.6 1.1 6.2.8 1.5-.4 1-2.7-1.5-5a38.6 38.6 0 0 0-9.1-5.9c-2-.6-6.7-.8-6.7-.8l-1.5-4.1s1.4 1.9 3.6 2.6c2.3.8 5.8 1.8 7.1 1.8 1.4 0 4.5 2.9 6.8 1.6 2.3-1.2 1.4-3.3-1.6-6-3-2.6-7-5.6-9.6-5.7l-8-.3-1.5-6.6s1.9 4 4 4.2c2 .3 4.1 2.2 6.2 1.9 2.1-.4 5.6-.1 7.7-1 2.1-.9 2.2-4-1.3-5.8a49.3 49.3 0 0 0-9.7-4c-1.5-.3-7.4-.6-7.4-.6l-1.7-7.6s3.7 5.1 6 5.9c2.2.7 3.8 1.4 6.1 1.5 2.6.2 4.6-.4 5.4-1 1-.9-2-3.9-3.7-5.5a14.7 14.7 0 0 0-7-3.5c-2.3-.3-7-.4-7-.4l-.5-8.4c0-1.7.5 2.3 2.7 3.9 2.4 1.5 3.8 2.5 6.2 2.8 2.6.3 4.3.2 6.8-.3 2.6-.5 4.4-1 1.7-3.3-2-1.6-5.3-4.2-8-5a72 72 0 0 0-9.2-1.8s-1.1-6.7-1-8.2c.3-1.5 2 4 4.7 5 2.6 1.2 4.5 1.8 6.7 1.7 2.2 0 6.9.5 5.8-2.1-1-2.6-3.9-5.3-6.7-7-2.9-1.5-5-2-7.1-1.7l-3.7.4-.2-8.2c0-.3 1.7 4.5 4.5 5.3 2.8.8 3.3 1.4 5.9 1.5 2.5 0 5-1.3 5.6-1.8.6-.5-.4-3.7-3.5-5.2s-6.6-4-8.3-3.8c-1.6.1-4 .8-4 .8l1-8.1.4-3.8s1.7 4.8 4 6.4c2.3 1.5 4.6 2.3 6.6 1.7 2-.5 3.5-.9 2.2-3.2-1.2-2.2-3.4-5.7-5.3-6-1.8-.4-6.8-2-6.8-2v-4.7s1.3 2 3.3 2c2 0 2.8-1.2 3.8-1.6.9-.4 3-2.6 3.2-3.5.2-1.5-.6-4.2-2.6-3.7-2 .6-3.4.2-5.4 1.7l-2.5 2.1 1.6-10.3-1.6 1 5.4-4.1c3-2.3 25-17.7 38.1-26.8l-1.2 12.8c-.1.2-2.8-2.2-4.7-2.3-1.9-.1-6.7.2-9 1.6a25.5 25.5 0 0 0-6 6.4c-.2.9 2.5 2.1 4.4 2.6 2.5.7 3.5 1.2 7 .5 2.4-.5 5.9-3.7 6.4-4 .5-.1 2-2.2 2-2.2s-2 6.5-1.7 9c.3 2.4 0 4.6 0 5.2 0 .5-3.6-2-5.9-1.7-2.3.2-6.5.7-10 3-3.4 2.4-6 4.2-6 5.9-.1 1.7 2.4 3.2 5 3.2s2.8 1 6.6-.5c3.8-1.4 7.2-3.1 8-4l2.5-3s-1 7.3-.8 8.6l.2 2.7s-3-3-5.7-2.5c-2.7.6-6.3.8-8.2 2.3-2 1.5-4 4.6-5.2 6.2-1 1.3-1.5 1.9-.6 3.2 1 1.3 2 .7 4 .7 2.1.1 4.5 0 7.7-1 3.2-1.2 6.3-2.7 6.9-3.1.5-.4 1.6-2.3 1.6-2.3s-.3 3.6-.1 5.5l.5 5.2s-2.4-1.6-5.7-.8a23 23 0 0 0-10 5c-1.4 2-5.6 6-5.8 7.6-.3 1.6 3.8 1.6 6.5.7 2.7-1 6.2-.7 8.5-1.9 2.3-1.1 4.5-2.8 5-4.1.6-1.4 1.6-3 1.6-3s-.5 4.6 0 6l.8 4s-4.4-.4-7.3 1.3c-3 1.8-8.1 4.7-9.7 7.5a22.5 22.5 0 0 0-2.5 6c-.3 1.5 1.8 1.3 4.4.5 2.6-1 4.6-1 7.4-2.3 2.8-1.4 4.3-2.6 5.5-3.8 1.1-1.2 2.5-4 2.5-4s-.5 3.7-.2 4.9c.3 1.2.3 2.5.3 2.5s-3.7.4-7.7 2.6c-4.1 2.2-7 4.2-8.4 7-1.4 2.8-2.8 5.8-2.4 7.6.4 1.9 3.5 1 6-.2 2.4-1.2 5.9-2 7.8-3.5 2-1.5 4.4-5.5 4.8-6.7l.8-2.6a89.6 89.6 0 0 0 2 10s-2.8-1-6 1c-3.3 1.8-7 3-9 6.6-2 3.6-4.7 6.3-3 8.4 1.6 2.2 3.7 1 6.3-.2 2.6-1.2 6.7-3.1 8-4.8 1.4-1.6 4.3-7 4.3-7s2.8 7.2 1.9 7.6c-1 .4-4.7.8-7.8 3-3.2 2.3-6.2 4.5-7.3 7.5-1.1 3-1.8 5.4-1.5 7.5.3 2 5.4.5 7.7-.6s7-5.1 7.9-7.2l2.5-5.6 2.2 6.7s-2 .4-5.1 2.4a19 19 0 0 0-6.3 7.4c-1.1 2.3-3.9 7.4-3.3 9.2.6 1.8 3.4 2.3 6 .2 2.7-2 7.1-6 8.2-8.7 1.1-2.7 1.8-7.8 1.8-7.8s2.8 7.7 2.9 8.3c0 .5-3.5.9-5.5 3.3-2 2.5-5.3 5.5-6.6 7.6-1.4 2-3 5-2 7.3.9 2.2 6-.5 8.1-2.3 2-1.7 5.2-3.8 5.9-5 .6-1.2 1.8-8 1.8-8l1.8 5.6s-1.2.7-4.6 4.5c-3.4 3.8-5.8 6.1-5.7 10.3 0 2.3.5 4.4 2.4 6 1.3 1 4.5-2.6 5-3.2.5-.5 2.1-6 2.1-6s-1.1 5.6.2 8.4c1.3 2.8 2.1 6.5 3.8 7.1 1.8.6 3.6-6.2 3.6-6.2s-.3 1.2 2.8 4.1c3 3 9 11.8 11 14 2 2 4 4 4.7 2.3 1.6-3.8-.3-9-2.7-13.3a181.3 181.3 0 0 0-13.3-17c-.7-.5.6 0 4 1.4 3.3 1.4 5.7 2.5 7.5 1.9 1.8-.6-1-7-3.6-8.8-2.6-2-7.3-3.5-7.3-3.5s-4.8.9-5.5.8c-.6-.1-2-4.2-2-4.2s1.4 2 4.5 2 5.7 1.4 9.2.5c3.5-.9 7.3-.2 6.3-1.9-1-1.6-4.6-7-8.2-7.7a34 34 0 0 0-10.7-.9l-2.8 1.3-2.5-5s.4 1 3.8 1 4 .5 7.4 0c3.3-.4 6.3-.7 7.5-1.4 1.2-.7-.5-3.8-2.1-4.8-1.7-1-7.7-2.5-10-3-2.3-.6-8.5.8-9 1.4-.5.6-3.5-8-3.5-8s1 1.2 3.2 2.4a15 15 0 0 0 8.5 2 62 62 0 0 0 10.1-1.7c1.1-.5-1.4-3.5-3.9-5a28 28 0 0 0-10.4-2c-2 0-7.6 1.2-8.2 1.3a49 49 0 0 1-2.5-9c.2.5 1.3 2.3 4 3.4 2.6 1.1 3.2 2.5 7.8 2.5s7.5.2 8.5-1c1-1-1.7-5.3-5.2-7-3.5-1.7-10.3-4-12-3.4-1.9.6-3.7 2-4 1.3-.2-.6-2.4-10.3-1.6-8.8.8 1.5 3.6 3.7 4.8 4.3 1.1.7 6.7 3.9 8.7 3.7 1.9-.3 6.7.1 7.4-.3.7-.5 1.8-4.3-3.5-8a65 65 0 0 0-17.3-7.1c-1-.1-1-6-1-6s2.3 3.3 4.2 4.3c1.9 1 4 3.1 6.6 3.2 2.6 0 6.6 1.1 8.2.5 1.6-.7-.7-7-3-8.4a36.5 36.5 0 0 0-8.4-4c-2-.5-7.5-.3-7.7-.8-.2-.5-1.2-7.6-1-7.2.2.5 4.9 6 6.5 6.4 1.7.4 3.8 2 6 2s5 .9 4.4-1.1c-.6-2-2.6-7.2-3.8-8.2-1.1-1-2.6-3.6-6.6-4.3-4-.8-6.2-.8-6.2-.8l-.8-7.8a9 9 0 0 0 3 5c2.5 2 3.6 2.6 6.5 2.7 2.8.2 5.6.7 6.4 0 .8-.7-.5-6.5-2-8a35 35 0 0 0-9.8-5.8c-2.4-.5-3.9 0-3.9 0s0-7.7.3-8.3c.3-.7.7 2.5 2.3 3.8 1.7 1.4 4.8 3.6 7 3.6 2.3 0 5.6-.3 6.5-1 .8-.7-1.6-5.6-3.9-7.5-2.2-1.8-5-3.8-6.9-3.8-1.8 0-4 .4-4 .4s-.8-8.5-.4-9.6c.5-1.2.7.2 3.4 2.3 2.7 2 8.6 2.9 9.8 2.4 1.3-.6-.6-5.7-2-7.3-1.5-1.6-5.2-5-6.8-4.6-1.5.2-3.2 1.5-3.4 1a95.9 95.9 0 0 1 2.4-16.5l4.5-3c1.8-1.1 16.2-11.1 31.2-21.5-.1 2.9-.5 8.3-.8 8.6-.4.3-4.6-.6-7 .2-2.2.7-3.7 2.3-5.1 3.7-1.4 1.5-2 3.7-.7 5.1 1.3 1.5 5.3 1.2 8.2.5 3-.7 4.2-5 4.8-5.8.5-.8-.4 9.7-.4 9.7s-4-2.1-7.4-1.5c-3.2.7-6 2-9.1 5-3 3-2.3 5.7-1.5 7.8.9 2 4 .1 6.2.1 2.3 0 5.4-1.3 7.3-2.5 2-1.1 4.6-5.7 4.6-5.7s-.5 9.6-.8 10.6c-.3.9-2.8-1.7-5.3-1.8-2.5-.1-4.1 1.3-6.3 2.6-2.3 1.3-5 3.4-5.4 3.8-.4.4-3.6 5-2.5 5.6 1 .6 5.7 3 11.4 2.3 5.8-.7 8.9-9.3 8.9-9.3s.6 3.5.3 4.8c-.3 1.3 1 10.1 1 10.1l-2.6-.4a27 27 0 0 0-7.5 2.2c-2.2 1-7 4.8-9 7.6-2 2.7-1.5 5.7-.4 6.1 1.1.4 3.7-.5 6.3-.4 2.5 0 8.3-3.6 10.4-4.7 2.1-1 3.5-7 3.2-5.4-.3 1.7 1.3 11 1.3 11s-2-1-4.6-.8c-2.5.3-5.8 3.1-8 4.4-2 1.2-4.9 5.7-5.8 6.5-1 .9-1.3 5.4 0 5.4 1.3-.1 5-.3 7.6-1 2.5-.6 5.8-2.7 8.7-4.3 2.8-1.6 2.9-6.4 3.2-5.4.3 1 1.1 11 1.1 11s-1.8 0-2.8.2c-1 .1-3.6.8-6.4 2.2-2.7 1.3-5 5-7 7.8-1.7 2.8-.4 7.1.6 7.6 1 .4 3.8-1 5.6-1.5 1.8-.5 5.1-2.3 7.7-4.8 2.6-2.4 3.3-4.5 3.6-5.8.3-1.3 2.6 9 2.6 9s-1.6 0-3.5.3c-2 .2-4.3 1.7-7 3.1-2.8 1.4-4.3 4.6-6.4 7.2-2.1 2.6-2.5 5.4-1.4 6.4 1 1 1.8.4 3.2.3 1.5-.2 9.6-2.5 12-3.7 2.5-1.2 3.3-6.2 3.8-7.8.6-1.6 2.2 8.6 2.2 8.6s-1.6.1-3.1.6c-1.5.6-5 2-7.3 3.5-2.2 1.5-4.8 4-7.1 7s-2.2 4.8-1.4 6.8c.7 1.9 3.2.3 5 0 1.7-.3 9.6-4.8 11.7-6.3 2.1-1.4 3.4-8.5 3.1-6.7-.2 1.9 4 14.7 3.3 14.2-.6-.4-6.5 0-8.6 1a25 25 0 0 0-5.4 4.9c-3.2 3.3-2.6 5.4-2.3 8.8.2 3.1 1.2 1.8 3 1.3 1.7-.4 8-3.6 10-4.6 2-1 4.4-7.3 4.4-7.3l2 8-2.8-.4c-1.4 0-3.3 1-5.9 2.8-2.6 1.6-3.2 3.5-5 6.7-1.9 3.2-1.6 8.2-.5 9 1.1.7 3.9-1.4 6.1-2.7a33 33 0 0 0 7.2-5.9c1.7-2 1.7-5.6 1.7-5.6l2.3 8-3.4 1.2c-1.2.3-3 1.4-5.3 3.2-2.3 1.7-1.8 4.3-3.2 7.7-1.4 3.3-.3 7 1.2 7s7.4-4.6 9.7-6.6c2.3-1.9 2.7-6.8 3.2-8.2.4-1.4 2.4 6.8 2.4 6.8s-.8.4-1.2 1c-.5.6-3.6.8-6.4 3.6-2.9 2.7-2.7 5-3.7 6.8-1 1.8-.4 5.7 2.2 9s2.7-1.2 3.6-1.8c1-.7 3.7-6 4.9-8.7 1.1-2.7 1.3-6.6 1.3-6.2 0 .4 2.6 5.3 1.7 5.8-.9.4-2.6 2.4-3.8 3.8-1.2 1.4-.7 6.6-1 8.9-.2 2.2.9 6.2 1.4 9.4.4 2.3 3.6 10.4 4.8 10.2 2-.3 3.2-3.6 3.9-7.2 1-4.4.8-8.2.9-9.3 0-2-1.2-8.8-.3-7.5.8 1.3 7.4 5.7 7.8 5 .3-.8 0-6-1.6-9.4-1.7-3.4-3.5-5-2.2-3.9 1.3 1 8.1 1.7 8.4 0 .3-1.7-2.8-5.3-4.5-6.9-.8-.7-2.3-1.4-3.7-2-1 0-1.9 0-2.3-.3-.7-.6.7-.3 2.3.3 2.5 0 5.9-1 6.3-1.5.5-.9-3-5.6-5.6-8.2-2.6-2.5-4.3-2.2-7.7-3.2-3.4-1-7-1.6-7-1.6l-2.8-7.3s1.8 2.9 3.4 4.5c2.8 2.8 5.7 3.4 9 4 3.8.7 7.7.8 8.5-.3.7-1.2-2-3.8-4.5-6.7-2.6-3-9.1-4.1-11.5-4.7-2.3-.5-5.2 0-5.2 0s-3.1-10.3-2.4-8.4c.8 2 5.3 5.5 7.3 6.5 3.1 1.6 6.8 2 10 2.5 3 .5 3.6-.7 3-2.7-.6-2-2-4.1-5-6.5-2.8-2.3-6.6-2.6-9.6-3-3-.4-6.1-.4-6.1-.4l-2.7-7.7c-.1-.2 0-.1 0 0 .4 1 4.9 5.3 6.2 6.1 1.4.9 6.2 2.1 9 2.3 2.7.1 7.6-.4 6.6-2.4s-6.4-4.4-7.8-5.3a143 143 0 0 0-10.5-4.6c-2.1-.9-3.8 0-3.8 0s-1.9-7.3-1.4-6.2c.6 1 3.6 3.3 5.2 4.6 1.6 1.3 7.7 4 10.6 4.9 3 .8 6-.2 5.7-1.3-.4-1.2-4.5-7.4-6.6-9-2.1-1.6-8.4-3.4-11.2-4.5-2.8-1-3.7 1.4-4.2 1.1-.5-.3-2.7-8.5-1.8-6.7.9 1.8 9.9 6.1 11.7 7.1 1.9 1 7.4 1.5 8.3 1.4 1 0-.3-2.5-1-3.6a16 16 0 0 0-6.2-4.4c-2.3-.8-5.6-4-5.1-3.8.5.2 4.8 1.7 7.9 2 3 .4 0-2.1-.7-4.2-.6-2.2-4.6-5.5-7.3-7.5-2.6-1.9-9-2.9-10.7-3.2-1.7-.3-1.6-7.8-1.6-7.8s2 3 3.7 5.2c1.7 2.2 7 2.5 9.5 3.3 2.5.9 7.2 1.2 7.8.1.6-1-2.8-5.3-5.6-8.6-2.8-3.4-7.8-4.5-10.5-5.3-2.6-.8-5.2.1-5.7-.8-.4-1-2.4-10.2-1.4-7.9 1 2.4 9.4 6.8 11.3 7.4 1.8.6 9.4 1.4 9.1 0-.3-1.4-3.2-5.4-7.4-9.6-4.2-4.2-7.1-3.6-9.6-4.2-2.4-.7-3.9-.6-3.9-.6s-1.6-8.3-1.3-7.3c.3 1 3.6 4.5 6.7 6.6 3.1 2 4.7.7 8.4.7 3.6.1 4.8-2.5 4-3.9a34.2 34.2 0 0 0-15.2-8.3c-2.8-.6-2.9.9-3.5.8-.6 0-1.2-10-1.2-10s.6 3 1.4 4.6c.8 1.7 4.9 2.5 6.8 3.3 1.9.8 6.2.2 6.7-1.4.5-1.6-1.7-3.2-3.2-5.7-1.4-2.5-3.7-2.4-6.4-3.7-2.7-1.3-4.7-.5-4.8-1.6-.2-1-.5-14-.4-13.5 0 .5 3 3.3 4.3 4.9 1.4 1.6 5.9 1.5 7.8 1.5 1.9 0 3-1.6 2.4-4-.6-2.3-4.3-4.4-7-5.8-2.8-1.3-6.6.3-7.2.7-.5.5.4-3.4.4-5-.1-1.4.2-10.3.4-14.3a1277.5 1277.5 0 0 1 47-31.2 147 147 0 0 0-1.3 19.3c.6 2.2-3.4-3.3-8-1.7-4.5 1.6-12.7 6-12.5 11.3.1 2.4 3.2 4.2 7.5 3.8 4.2-.4 8-2 9.5-3.7a46 46 0 0 0 4-6.6l.4 13.2s-3.7-3.5-7.8-1.3c-4 2.2-8.2 2-10.3 5.1-2 3-5.3 5.3-3.8 8.8.5 1.2 5.1 1.8 8.4 1.8 3.1 0 5-1.3 7.3-2.5s6-8.3 6-8.3 3 14.8.5 13.4a12 12 0 0 0-10.5 0c-3.7 1.7-6.2 5-7.1 6.7-1 1.8-3.2 5.2-2.6 6.6.6 1.5.4 4.3 4.3 2.4 4-1.9 7.7-2.9 9.7-4 2-1.1 7.5-8.6 7.5-8.6l1.5 13c.2 1.8-5.6-3-10-.7a40.6 40.6 0 0 0-10 10c-.8 1.2-1.9 4.7-.4 4.9 1.5.2 5 1.3 8.9-.6 3.9-2 6-3.4 7.7-4.9 1.6-1.5 4.5-6.3 4.5-6.3l.7 10.3s-2-.6-6.9 1.4c-4.5 1.9-5.6.4-9.4 6.1-3.4 5.3-5.8 10.7-3.6 10.7 2.2-.1 4.1 0 8.5-2.2 4.4-2 7.8-4.6 9.2-6 1.3-1.4 2.7-6 2.7-6s2 11 2.6 12.2c.5 1.1-3.9 1.3-6.9 2.8-3 1.5-6.6 4.1-8.9 9.2-2.3 5.1-2 8.6-1.4 9.5.7.8 5.4-3.1 8.3-4.8a26 26 0 0 0 7.9-7.7c1.4-2.6 2.4-5.5 2.4-5.5l2.2 9.1s-4.4-.4-7.4 1.7c-3 2-6.5 4.9-8.2 7-1.6 2-3.7 7.6-3.8 8.8-.1 1 4.5.3 7.4-.9 2.8-1.2 6.6-2.2 8-3.9 1.6-1.7 3.5-3.6 3.7-4.5.2-1 1.3-4.2 1.3-4.2s2 8.3 1.4 8.6c-.7.3-5.1 1-9.4 4.1-4.2 3.2-9.6 11-9.7 14-.1 3.1 3.5 2.5 6.7.9s7.2-4.1 8.4-5.2c1.2-1 4.5-6 5-7.5.4-1.6.3-3.8.3-3.8s4 11.7 2.7 12c-1.3.2-9.1.6-12.3 5.6-3.3 5-6.4 11.5-4.6 13 1.7 1.5 5.3.8 7.6-1s6.1-3.9 7.4-5.5c1.3-1.7 3.7-7.1 3.7-7.1l2.4 8.4s-1.6-2.4-6 2.5c-4.3 4.8-5 4.9-7.1 10.7-1.9 5.4-2.8 8.6-1.5 9.8 1.3 1.1 5.1-2.4 7.5-4.5 2.5-2.2 5.3-4.1 6.1-6.1.8-2 2.8-8.1 2.7-9 0-.7 1.8 6.5 2.1 7.2.3.8.7 3 .7 3s-2.3.5-7.8 5.3c-5.5 4.7-7.6 7-8.1 10.5s1.4 4.1 5.6 1.6c4.2-2.6 6-2.2 8.8-5.6 2.8-3.4 3.3-7.5 3.3-7.5l2.5 6.8s-2.7.2-7.2 4.6c-4.6 4.4-6.8 7-7.8 10.7-1 3.7-2 7 1 6.3a19 19 0 0 0 7.6-4.3c1.8-1.6 5.7-3.7 7.5-7.3.9-1.6 1.2-5.2 1.2-5.2l3 7.1s-3.7.7-5.5 3.7c-1.8 3-3.9 4.6-4 8.3-.2 3.7.4 5.6.8 6.8.5 1.2 4.7-1.1 6-1.8 3.3-2 3.9-5.8 4.1-7.3.2-1.5 1.2-5.2 1.2-5.2l2.1 5.8s-4 6.6-3.3 10.2c.7 3.6 3 7.9 4.2 9.4 1.2 1.4 3.3-12.2 3.6-11.5.3.7 7.5 12.1 9 14a66.3 66.3 0 0 0 11.1 10.7c1.4 0-3.6-18.2-10.3-27.7-1.7-2.3-8.4-4.8-9.4-5.2-1-.5-2.2-2.7-2.2-2.7s3.2 2.3 6 3c2.8.8 6.3.5 7.5 0 1.1-.5-5.9-10-9.5-10.8-3.6-.7-7.7-1.8-7.7-1.8l-2.6-3s2.8 2.1 6.4 2.8c3.7.7 6.2 1 7.5.6 3.8-1.4 2.6-5.8-.1-7-2.7-1-9.6-7-11.7-6.8-2 .4-5.5.7-5.5.7L382 460s4.8 3 7.4 3.3c2.6.3 6.4.7 8.3 0 .4-.2.7-.6.8-1 .4 1 1.7 1.2 4.5-.2 10.7-5 13.9-14 13.9-14l3.2 7-1.5-.2s-3.4 3-5.7 4.8c-2.4 1.8-1.5 5.3-1.7 10.7-.3 5.4 3.8 6 5 4.6 1-1.3 5.8-9.3 5.8-9.3l1.2 2.3s-3.1 6-3.2 9.6c-.2 3.7 4 10.3 5.4 8.5 1.5-1.7 2.1-5.5 2.1-5.5s.2 1 7.4 9.7 11.6 9.3 11.6 9.3-1.1-4-2.3-7.6c-1.3-3.7-5.7-11-5.7-11l4-.5s-1.7-4-3-6.5c-1.3-2.6-3.4-3.6-5.9-4.8-2.4-1.2-5.8-.7-5.8-.7l-2.5-6.7s4.4 3.2 7.8 4.8c3.5 1.6 10.8-1.4 10.2-2.8-.6-1.4-6.1-6.9-10.2-9.4-4-2.4-10.3.7-10.3.7l-3.2-7.8c.9 2 9 4.5 12 5 3 .4 9.4-.9 10.5-2.2 1.1-1.3-3.6-4-6.6-5.8-3-1.9-7.6-1.8-10.8-2.2-3.2-.3-7 .4-7 .4s-3-7.7-1.8-5.6c1 2 7.8 2.8 11.2 3 3.4.3 10 .7 11.4-.5 1.5-1.1-2.2-4-4.5-7-2.3-2.9-9-3-13.2-5-4.2-2.2-7.2 2-7.2 2l-3.2-8.5s5.2 3.3 7.6 4.3c2.3 1 8.6.9 10.8.2 2.3-.6 4.3-1.7 2.7-5-1.2-2.4-6.7-4.3-8.8-4.8 2 .1 6.7-.5 6.7-1.5.1-1.2-3.4-5-6.7-8.3-1.7-1.7-4.8-.8-4.8-.8l4-3.3s-2.4-4.9-5.5-8.3c-3-3.4-7.2-2.8-11.3-3.4-3-.3-3.1 1.2-3 2l-3.1-11.4s3.8 4 5.7 5.7c1.8 1.8 4.2 2.2 7 2.1 2.7 0 6.3 1.3 7.8 1 1.5-.4-3.7-6.9-6-9.8-2.3-2.9-8.2-3.8-11.6-4.6-3.4-.8-3.3 1.4-3.3 1.4l-2.1-11c.8 2 4.5 5.3 8.1 7.4 4 2.2 10.1 1.6 11.1 1.5 1-.2-.3-5.4-2.8-7.7-2.8-2.4-6.6-5-9.8-6.2-3.3-1.2-7-1.3-7-1.3l-1.4-9.7s1 2.6 2 4.4c1.1 1.8 5.6 3.3 8.6 4 3 .7 8.7 1.1 9.5.2 1.8-1.8-2-4.7-3.5-7.1-1.5-2.4-9.2-5-11.4-6.4-2.2-1.3-5.2-.3-5.2-.3l-.7-12.5s1.7 3.5 2.5 4.8c.9 1.3 4.2 3.3 7.6 5.5 3.4 2.2 9.3-.9 9.3-.9s.4-1-2-4.1c-1.8-2.3-8-7.5-12-9.5-3.8-2-5.2.5-5.2.5s-.8-11.3-.6-10c.3 1.3 5.1 5.7 7.7 7.3 2.7 1.7 15.1 3 13.1-1.8-2-4.7-10-9.7-13-11-3-1.2-7.3 0-7.3 0s-.2-9.9.4-7.6c.7 2.2 7.3 5.5 10.2 5.8 2.8.2 7.2-1.4 6.4-4-.9-2.8-6.5-6.3-9.3-8.4-2.8-2.2-6.9 1.4-7-.2-.1-1.6.3-12.6.7-11 .3 1.4 5.9 6.9 10.5 7.2 2.4.2 5.3-2.5 5-3.7a17 17 0 0 0-8.8-8c-2.4-1-5.1 1-5.2.2l2.2-20 5-3c2.8-1 21.5-14.5 39-27.1l-2.6 13.2c-.1.5-4.4-1.5-10 .6a30 30 0 0 0-12 8.1c-.7 1.5 1.6 3.8 6.7 3.2 5.1-.6 11.9-4 13-5.5 1.3-1.4 2.5-3.8 2.5-3.8l-2 11.1c-.2 1.2-4.8-1-9.8 0-5 1.2-14.2 6.4-14.7 9.2-.6 2.8 3.9 4.5 6.7 4 2.7-.5 5.2-.4 8.9-2.2 3.7-1.8 7.8-5.3 9-6.2 1-.8-1.1 8.8-1.1 8.8s-6.9-.8-11.4 1c-4.6 1.8-12.3 8.2-12.9 10.2-.5 2 5.3 3.6 10 2.3a125 125 0 0 0 9.7-3.2l4.9-6.4s-1.5 11-1.5 12.1c0 1-8.4.2-12.8 2.5s-10 10.2-9.4 11.4c.6 1.1 2.7 3.7 8.1 2.2a31.7 31.7 0 0 0 12-5.9c1.1-1.4 3.1-5.7 3.1-5.7s-1.2 9.1-.7 10c.6 1-5.8 1.1-10.1 2.6-4.4 1.5-9.2 2.5-11.3 7.1-2.2 4.6-2.6 7-2 7.4.7.4-1 1.4 5.6.1 6.6-1.3 10.6-3 13-4.7 2.5-1.7 5.6-7.6 5.6-7.6s-.2 10.7 0 11.7c.4 1-6.3-.1-9.2 1.7-3 2-7.1 4.1-9.3 7.7a24 24 0 0 0-3 7.7s-1.7 1.5 5.8-.3 12.5-3.7 14.3-5.8c1.8-2.1 3-6.7 3-6.7l1 9.8s-4.2-1.2-7.3 1c-3.2 2.2-8.7 5.3-10.1 8.6-1.5 3.4-2.2 5.7-1.8 8 .3 2.3 5.4.4 9.4-2.4 4-2.7 8.3-4.6 9-6.7.8-2 2-5.6 1.9-4.8 0 .8 1.6 7.8.2 8.5-1.4.6-4.3.6-7.4 2.8-3.1 2.2-9.8 7-9.4 9.3.4 2.3 5.1.4 8-.1 2.7-.5 6.3-1.8 7.7-3.5 1.4-1.7 2.8-6.3 2.8-6.3l.8 7.7s-1.6 0-6.7 2.7c-5 2.7-9.6 3.7-11.4 7.6-1.8 4-2.6 6.9-2.2 8.6.5 1.7 5-.3 7.3-1.5 2.4-1.1 9.5-4.2 11-7 1.7-2.9 3-7 3-7l1.8 9.7s-4.1-.5-8.6 3.4c-4.5 4-9 6.8-10.1 10.5-1 3.8-4.6 6.6-1 6.1 3.6-.4 6.8-1.3 11.6-5 4.9-3.8 8.3-13.2 8.7-12.8.4.4 2.5 10.7 2.4 11.3-.2.6-4.3-1-7.6 2.4-3.4 3.3-7.6 5.2-8.6 8.2-1 3-5.5 7-2.3 8s4.6.4 7.7-1c3-1.4 7.4-6.6 8.4-8l3.4-4s2 6 1.2 6.5c-.6.5-4 1.4-6.2 4.4-2 3-9.6 8.3-8.1 11.8 1.5 3.6 5.1 2.3 7.8.5a27 27 0 0 0 6.9-7l1.8-5 1.8 7.8s-3.2 1.7-5.2 6.2c-1.9 4.5-5.4 10.3-4.2 13.4 1.1 3.1 3 3.2 6.1-.9 3.1-4 5.3-9.7 5.6-10.3.4-.7 2 4.2 2 4.2s-4.3 2.8-3.5 6.6c.8 3.7 1.3 10.5 2.9 12.2 1.5 1.7 3.8-2.4 3.8-2.4s2.7 11.8 4.3 15.6c1.6 3.8 3.9 10 6.4 12.6 2.6 2.4 4.8 1 3.7-3-1-3.9-2.6-11.4-4-17.4-1.4-6-5.9-14.6-6.2-15.6-.2-1 1.3.7 5 1.3 3.5.6 3.4-3.6 1.8-5.6l-6.3-7.3s3.3 1.3 5.6 2c2.3.6 4.3 0 4.3 0s-2-6-6-8.3c-4.1-2.4-12.1-3.3-12.1-3.3l-2.2-6s1.8 1.6 6 3c4 1.6 10.3 2 12.5 1.4 2.2-.6-1.2-8.2-4.6-9.1-3.5-1-7-4.2-9.8-3.7-2.8.5-5.7 1.6-5.7 1.6l-1.7-6.2s.5 1.7 4.2 2.8c3.8 1.1 7.5 1.1 10.1 1 2.6-.2 4.4-1.3 4.4-1.3s-.2-3.6-3-6c-2.8-2.5-6-7.2-9.5-6.7-3.6.4-8.3 1.7-8.3 1.7s-4.1-12.1-2.3-9.4c1.8 2.7 3.6 4.6 6 5.5 2.4 1 11 1.2 12.6.5 1.7-.7-.6-5.1-2.2-6-1.6-1-8.6-6.2-8.6-6.2s4 1.6 6.9.8c3-.8 1.8-5-.4-6-2.1-1-4.5-3.8-7.7-5-3.3-1.3-9.2-.7-9.8-1.9-.6-1-2.3-8-2.5-9 .1.5.9 2.5 4.6 4.2 4.3 2 7.4 2.7 10 2.6l5.7-.6s1.2-1.4-1.3-5.5a17.4 17.4 0 0 0-8.5-7.7c-3-1-10.4-2.2-11.1-2-.8.2-1.3-9.4-1.3-9.4s1.2 3.3 4.3 5.1c3.2 1.8 5.8 3.7 8.2 3.9 2.5 0 6 2 6.9.7 1-1.3-.6-7-3.4-9.4-2.8-2.4-6.5-5.4-9-5.5-2.4-.1-7.3.4-7.3.4l-.7-11.2s.9 3.2 3.7 4.8c2.9 1.6 6 4.2 8.6 4 2.6-.1 5 .2 6-1.1s1-4.5-.2-5.5c-1-1-4.8-5-7.8-6.1-3-1-5.8-3-7.3-2.5-1.5.4-3.6 1.3-3.6 1.3v-9.4s.5 2.6 3.2 3.7 5 3.4 7.8 3.2c2.8-.3 5-.4 6-1.4 1-1.1-.3-5.8-1.6-6.8-1.4-1-5.4-5.1-8.2-4.6-2.8.5-7.3.7-7.3.7s.4-11 .6-10.3c.2.7-.8 2.9 3.5 4.9 4.3 2 7.2 2 10.2 1.4 3-.6 6.2.2 5.3-2.2-1-2.4-3-6.1-6-7-2.8-.7-7-4-9.4-3.4-2.5.7-3.6.4-3.6.4l1.2-6.9c0 .7.6 1.8 2.8 3.2 3.9 2.4 7.2 3 9.9 3.1 2.7 0 3.3-2.5 2.6-4-.6-1.3-4.4-6.4-6-6.5-1.6 0-8.4-1.4-8.9-1.3-.5.2.7-6 .7-6s2.3 1.5 3.5 2c1.2.4 4.4-.5 5-1.2 2.3-2.7.3-8-1.8-7.4-1.8.4-5.4 1.7-6 2.4-.5.6 2.3-16.4 3-21a545.5 545.5 0 0 1 27.2-18.8c2.2-1.3 8-5.2 15.6-10.5l-1 1-1 14.3c.1.8-3.8-1.2-6.2-.4-2.5.7-9.3 3-10.3 5.3-1 2.4-2.6 3.6-1.7 4.6 1 1 2.5 3.4 5.6 2.7 3-.7 8.3-2.6 9.7-4 1.3-1.4 3.4-5 3.4-5s-1 7.4-.8 8.6c.2 1.3-5.5 1-7.8 1.9-2.4 1-10 3.9-12 5.4-1.7 1.6-5.7 4.1-2.6 6.2 3 2 5.2 3.3 10.4 1.2 5.2-2.2 8-3.6 9.4-5.5 1.4-2 3.3-5.3 3.3-5.3s-.5 6.8-.3 8.5c0 1.6-2.2 0-8.2 3.6-6 3.6-10.5 4-12.2 8.7-1.7 4.5 0 6.9 5.6 4.8 5.5-2 9.7-3.2 11.1-4.5 1.4-1.4 3.7-5.7 3.7-5.7l.8 8s-2.5-1-7.4 1.4a34.5 34.5 0 0 0-11.4 7.2c-1.8 2.4-6.4 7.3-4 8 2.6.6 7.5 1 11.3-1l9.6-5.7 3.6-4 .2 6s-6.3.7-9.9 3.5c-3.5 2.9-8.3 4-9.4 8.7-1.1 4.6-1.5 8.3-1.5 8.3s1.2 1.7 7.2-1.3 11.1-6.5 12-8.3c1-1.8 3-7 2.8-6.1-.2.9 1 9.6 1 9.6s-8.5 3.7-11.3 7.1c-2.7 3.4-6.6 7.5-6.7 10.5 0 3.1-1.6 8.8 1.2 7 3-1.7 7.6-5 8.8-5.5 1.2-.5 8.7-10.6 9-14 .2-3.4 1.4 7.7 1.4 7.7s-4.9 2.9-6.9 5.4c-2 2.5-5.7 5.6-7.4 8-1.8 2.4-6.7 4.7-4.5 7.4s3.7 3 7.7.5 6.8-4.3 8.6-7.2c1.9-3 3.8-9.6 3.8-9.6l1.5 12.1s-5.8 3-8.6 4.7c-3 1.7-6.1 3.3-7.7 7.6-1.6 4.2-5 8.1-2.3 9.2 2.7 1.2 4.9 1 8.3-1.4 3.4-2.5 8.4-6.5 9.2-8 .7-1.4 2.3-8.4 2.3-8.4l1.8 7.8s-4.7 3.3-6.3 5.4c-1.7 2-5.6 4-7 7.9-1.4 3.9-3 9-2 10.5.9 1.6 4.6 1.7 6.7-1.1 2.2-2.8 8.5-9.6 9.3-12.4.8-2.8.7-7 .7-7s4.3 10.4 3 10.7a17 17 0 0 0-6.8 5.6c-2 2.7-6.9 8.1-7.7 11.5-.8 3.4-2.7 7-.9 9.2 1.8 2.3 9.3-5 11-6.2a58.4 58.4 0 0 0 7-14c0-1 3 7.4 3.1 9 .1 1.6-5.7 3.5-8 6.9-2.1 3.4-6.4 3.8-6.4 10.4 0 6.7-.4 9 1 10.4 1.4 1.4 9.2-7.7 10.8-10.5a66.5 66.5 0 0 0 4.3-12.4c.1-1.1 2.7 6.4 2.7 6.4s-4.8 7.8-6.2 13.1c-1.4 5.3-2.4 9.6-1.5 13.1.9 3.5 1 7.3 2.8 7.7 1.9.4 3.5-1.7 4.6-3.8 1-2.1 3.5-8.1 3.8-10.2.3-2-.2-4.4-.5-7.8l-.7-8.6 4.7 17.5s-2.7 4.1-3.2 8.5c-.4 4.3-1 9.3-.2 11.4.9 2.2 1.4 7.5 3 5.4 1.7-2 3.6-5.6 3.6-5.6l1-8s2.3 8.9 3 10.5c.7 1.7 3 6.8 5.5 11.3 2.5 4.6 3.4 6.7 5.5 10 2.3 3.4 10.7 15.2 7 4.2-3.6-10.9-5.8-19.4-7.6-23.1-1.8-3.7-3.4-10.3-4.8-13-1.4-2.8 0 0 2.2 0 2.2-.2 9.9 3 6.9-2.1-3-5.2-5.6-7.4-7.2-8.1-1.7-.7-9.5-2.2-9.5-2.2L525 376l-1.6-4.6s2.5 3.4 5.3 5c3 1.5 6.7 2.7 8.3 2.6 1.7 0 4.6 1 6 .3 1.4-.5 2.2-2.5.4-4.3-1.8-1.7-6.6-6.7-8.8-7.2-2.1-.5-11.7-1.5-12.7-2-1-.3-3.4-7.6-3.2-7 .3.8 2 2 4.4 2.4 2.3.5 8.5.7 12.4-.7 3.9-1.3 4.7-2.7 4.7-2.7s-4.3-4.4-8-6.5c-3.6-2-3.6-2.9-9.8-2.3-5.7.6-7.5 2-7.6 1-.2-1-3-7.4-3-7.4s2.2 2.7 7.6 3.2a42 42 0 0 0 14.3-1.7c1.4-.6-4.9-7.7-8.1-8.9-3.3-1.1-9.7-4-12-3-2.4 1-4.4 3.5-4.5 2.7 0-.8-3.3-11.4-3.3-11.4s6 5 9 5.1c3.1.1 9.3-.2 11.7-1.2 2.4-1-3.6-8.8-7.3-10.3-3.7-1.5-13.7.4-14.1 2-.4 1.4-2.9-8-3.4-10 .2.5 1 1.8 4.2 2.7 4.4 1.2 15.1 4.3 16.6 2 1.6-2.3.4-5.7-3.7-8.4-4.2-2.8-8.5-5.1-12.1-4.5-3.6.7-5.7 3-5.7 3s-2.6-12.3-2.5-14.8c0-2.6 2.4 3.7 6 4.7 3.8 1 7.7 1.5 10.1.8 2.5-.7 5-2 5-2s1.5-2.4-4.7-5.3c-6.2-3-12.2-5.5-14.4-4.9-2.3.7-2.4 3-2.8 2-.4-.8-1.2-5.1-1.4-6.5.2.7 1.2 2 5.1 2.2 5.4.3 9.3 2.3 12.6.9 3.3-1.4 4.1-4.8-.4-7-4.6-2.3-10.1-5-13.4-4.2-3.3.8-4.8 1.7-4.8 1.7l-.7-6.4s.5 4 6 3.1c5.4-.9 9.8-1 11.8-2.1s-.7-4.4-4-7a20 20 0 0 0-11.2-3.6c-2 .3-3.4 2.5-3.7 1.8l-1.5-8.6c.3 1.2 1.5 3.3 5.7 3.8 5.8.6 11.7.2 13.5-.9 1.8-1-1.6-6.5-5.6-8-3.9-1.4-13.4-1.6-14-1.3-.8.3-1.6-9.7-.2-9.1 1.3.6 1.5 5.7 6 6.4 4.4.7 10.5.9 11.8-.7 1.3-1.7 0-6.7-4-9.2-4.1-2.5-9.2-4-11.5-3-2.4 1-2 3.3-2.4 1-.4-2.3-1.3-11.1-.1-9.7 1.1 1.5 1.9 4 5.3 3.6 3.5-.3 7.5 0 8-1.6.4-1.5-.9-5.4-3.6-6.5-2.7-1.2-8.2-1.1-9.1-.7a60 60 0 0 1 0-13.7c11.9-8.2 27.7-19.5 42.2-29.6 0 4 .2 9.8.5 10.4.4 1-2.5-3.1-6.6-1-4 2-8.8 7.5-9.5 8.4-.7 1 3.5 4 6.7 3s10.3-8 10.3-8 .2 8.5 0 9.4c0 1-1.7-3.7-7-.5s-9 6.8-10 9c-1.2 2.4-1.8 5.8-1.8 5.8s4.1 1.4 8.1-.3 7-2.7 8.3-4.2c1.2-1.4 3.3-7 3.3-7s1.3 10 1 10.6c-.2.7-8.1-.2-11.6 3-3.6 3.2-6.3 8-6.6 11-.2 3 5.3 4.2 7.8 3 2.5-1.3 6.2-2.6 7.8-4 1.6-1.3 3.8-8.4 3.8-8.4l1.6 9s-5.3 1.4-8.7 4.3c-3.4 2.8-9.3 8.3-9 11.7.2 3.3 3.7 3.5 6.7 2.6 3-1 8.1-3.8 9.5-6.8 1.4-3 3.2-7.9 3.2-7.9l1.3 7.7s-4.6 2.9-7.7 5.8c-3 3-6 6.2-7.8 10.2-3.3 7.7 0 8.4 0 8.4l7.1-5s6.5-3 8-7.7a95 95 0 0 0 2-9.4l2.6 11.3c.4 1.3-2.5.1-6.3 4-3.8 4-7 5-8.2 10.5-1.3 5.5-2.5 8.1-1.4 9.2 1.2 1.2 9.2-1.7 10.9-4 1.7-2.3 4.4-4.8 5.6-6.5a29 29 0 0 0 2-7.6s2.8 10.4 3.4 12c.5 1.8-2.8.3-5.5 3.4-2.8 3-5.7 6.3-6.8 9.4-1 3-2.2 8.6-.5 10.3 1.7 1.7 3.4-.6 7-3.2 3.5-2.6 6-6.8 6.8-8 .8-1.3 1.1-7.5 1.1-7.5l3 7.5s-3 4.9-6.4 10.9c-2.2 3.9-3.3 8.2-2.3 12 1 3.8 3 9.4 6.1 7 3.1-2.4 7-9 6.8-12.3l-1.4-12.5 3.8 9.3s-.3 8.1-2.8 12.3a31 31 0 0 0-4.8 13.8c0 4.4.7 6.6 1.7 7.5 1 .9 4.5-2 6.8-3.7 2.3-1.7 5-5.6 5.1-9.2a30 30 0 0 0-.4-10c-.8-1.6-2.2-7.3-2.2-7.3l4.8 12.5s-3.4 10.3-3.6 12.8c-.3 2.4-.6 6.1-.5 8.2.4 6.4 2.5 6.2 2.5 6.2s3.5-3.7 4-5.7a40 40 0 0 0-.2-13.6l2.7 7.7s.2 4.3 0 8.6a38.1 38.1 0 0 0 2.6 13.6c1.2 2.6 2.8 5.2 4.1 6 1.3.8 2.7-4.2 2.5-6.4-.2-2.2-1.8-8.8-1.8-8.8l2.5 4.4s3.7 12 4.7 13.4a50 50 0 0 0 8.7 10c2.3 1.1 7 4.8 8.1 3.7 1.2-1.2 1-2-1.1-5.2-2.2-3.2-6.2-9-7.5-10.3l-4.3-5.3s2.4.3 3.5-.3c1.2-.6 1.2-1.7-.3-3l-5.5-4.7-3.2-.1s-1.2.6-1.5-.1l-3-6s1.7 0 3.6 1.4c1.8 1.4 5.5 3 8.1 3.1 2.6.1 6.4-.3 6.4-.3s-.7-3.8-2.5-5.7c-4-4-8.3-6.1-10.9-6.3-2.6 0-7 2.4-7 2.4l-4.4-8s2.6 1.7 5.1 2.2c2.5.5 5 1.5 8.6 0 3.5-1.5 5-2.5 2.9-4.6-2.2-2-5.9-6-10.1-5.8h-9.8l-1.4-5.9-3.1-6.7s3.4 4.6 5.3 6.2a31 31 0 0 0 7.6 4.2c1 .1 3.5.8 5 .1 1.3-.7-1.7-6-1.7-6s-3.7-6.2-6.2-7.3c-2.5-1-6.4-4.2-8.3-4.7l-6.7-1.2-2.7-6.1s2.2 3.2 4.2 3.9c2 .7 5.7 2.3 7.6 2l4.6-1.2-4-6.3s-2.5-2.5-5-3.8c-2.7-1.3-6-2-7.3-1.8-1.4 0-3.6-.3-3.6-.3l-1.7-4.5s3 3 5.5 3.5 7.3 2.7 9.8 2.3c2.4-.3 7.6 1.6 7.5-.3-.1-2-10.5-10.2-12.6-11-2-.6-6.3-1.6-7.9-1.4-1.6.2-3.8 2.2-4.1 1.5l-3.4-6.3s1.8 3.6 6.4 3.6c4.5 0 9.5.2 11.8-1 2.2-1.1-.4-6.4-3.4-7.2-3-.8-7.4-1.7-10-1.6-2.4.1-5 1.1-5 1.1l-2.7-5.7c.2.4 1.2 1.9 4.6 2.2 3.9.3 6 1 8.9.1 3-1 6.2-1.4 6.2-1.4s-2.5-3.9-5.2-4.6c-2.6-.6-8.3-3.5-8.3-3.5s3.7.7 5.7-.6c2-1.2 1.6-3 .3-3.9-1.2-.8-3.6-3.9-6.7-4.9-3.1-1-9.5-.7-10.1-.1-.5.5-2-5-2.2-6.1.2.7 1.2 3.3 5.3 3.7 4.8.4 7.2.7 9.6-.2 2.4-1 5.4-2.5 5.4-2.5s-3-4.8-7-6.5c-4-1.7-12.5-2-14-1s-3-7.3-2.5-6.8c.6.6 1.8 5.4 7.3 3.8 5.5-1.6 12.7-4.3 12.7-4.3s-5.1-6.3-10.2-6.7a31 31 0 0 0-10.4 1.5l-.9-7.6s1.4 2.2 5.3 2.6c5 .4 10.2-1.4 11.3-3.7 1.1-2.3-3.7-5-5.8-6a18 18 0 0 0-7.8-.7c-2.2.3-4.6 1.2-4.6 1.2l-.5-5s.3 2.2 5.7.4c5.3-1.8 7.7-2.7 8.2-4.1.4-1.4-1.5-3-3.8-3s-6-.1-7.2.5c-1.1.5-2.9.5-2.9.5l-1-10.9a350.8 350.8 0 0 1 45.8-29c-.4 5-.3 11.4-.2 15.4h-1s-4.4-1-7.4 1.2c-3 2.3-8.4 5.7-9.8 9-1.3 3.4-2 5.8-1.5 8 .5 2.3 5.4.2 9.4-2.7 4-2.8 8-5 8.7-7 .7-2 1.7-5.4 1.7-5v.1l.2 1.2.7 3.6c.2 1.7.3 3.4-.3 3.7-1.4.7-4.3.8-7.4 3.1-3 2.3-9.5 7.3-9 9.6.4 2.3 5.2.2 8-.4 2.7-.6 6.3-2 7.6-3.7 1.3-1.8 2.5-6.5 2.5-6.5l1.1 7.7s-1.6 0-6.6 3c-5 2.8-9.5 4-11.1 8-1.7 4-2.4 7-1.9 8.6.6 1.7 5-.4 7.3-1.7 2.3-1.3 9.3-4.6 10.8-7.4 1.5-3 2.6-7 2.6-7l2.2 9.5s-4.1-.3-8.5 3.7c-4.3 4-8.8 7-9.7 10.9-1 3.8-4.3 6.7-.8 6.1 3.6-.6 6.8-1.6 11.5-5.5 4.6-3.9 7.8-13.5 8.2-13 .4.4 2.8 10.6 2.7 11.2 0 .5-4.3-.8-7.5 2.6-3.2 3.4-7.3 5.6-8.3 8.5-1 3-5.2 7.3-2 8.2 3.3.9 4.7.2 7.7-1.3s7.2-6.9 8.1-8.2l3.2-4.3s2.2 6 1.5 6.5c-.6.5-4 1.6-6 4.6-2 3-9.4 8.6-7.7 12.1 1.6 3.5 5.2 2.1 7.8.2 2.6-1.9 6.2-6 6.6-7.2l1.6-5 2.2 7.6s-3.2 1.8-5 6.4c-1.8 4.6-5 10.5-3.8 13.6 1.3 3 3.2 3 6.1-1.1 3-4.2 5-10 5.3-10.6.3-.6 2.1 4.2 2.1 4.2s-4.2 3-3.2 6.7c.9 3.7 1.7 10.4 3.3 12 1.5 1.7 3.7-2.4 3.7-2.4s3.2 11.6 4.9 15.3c1.7 3.8 4.2 10 6.8 12.4 2.7 2.4 4.9.9 3.6-3-1.2-4-3-11.4-4.6-17.4-1.6-5.9-6.4-14.3-6.8-15.3-.3-1 1.3.7 5 1.1 3.6.5 3.3-3.7 1.7-5.6l-6.6-7 5.7 1.6c2.3.6 4.3 0 4.3 0s-2.2-6-6.4-8.2c-4.2-2.2-12.2-2.9-12.2-2.9l-2.4-6s1.9 1.7 6 3a27.7 27.7 0 0 0 12.7.9c2.2-.7-1.5-8.2-5-9-3.5-.7-7.1-3.9-9.9-3.3-2.8.6-5.6 1.8-5.6 1.8l-2-6s.6 1.6 4.4 2.6c3.8 1 7.5.8 10 .5 2.7-.2 4.5-1.3 4.5-1.3s-.4-3.7-3.2-6c-3-2.3-6.2-7-9.8-6.3-3.6.6-8.2 2-8.2 2s-4.6-12-2.7-9.3c1.9 2.6 3.8 4.4 6.2 5.3 2.4.8 11 .8 12.6 0 1.7-.8-.8-5.1-2.4-6-1.6-.8-8.8-5.8-8.8-5.8s4 1.5 6.9.5c3-.9 1.6-5-.6-6-2.1-.9-4.6-3.6-8-4.7-3.2-1.1-9.1-.3-9.8-1.5-.5-1-2.5-7.9-2.8-8.9.2.5 1 2.4 4.8 4 4.3 1.9 7.5 2.5 10 2.2l5.7-.7s1.2-1.4-1.4-5.5c-2.6-4-5.8-6.4-8.8-7.4-2.7-.8-9.2-1.6-10.9-1.6 0-9 .8-14.7 2-18.2 8.9-5.8 20.3-13.6 30.4-20.3l-4 9c-1.8 4-2.5 8.5-1.1 12.1 1.4 3.7 3.9 9.1 6.7 6.4 2.9-2.7 6-9.6 5.5-12.8-.5-3.3-2.5-12.3-2.5-12.3l4.6 8.8s.6 8.1-1.5 12.5a31 31 0 0 0-3.5 14.3c.4 4.3 1.4 6.4 2.5 7.2 1 .8 4.2-2.4 6.3-4.3 2.2-2 4.4-6 4.3-9.6a30 30 0 0 0-1.5-10c-1-1.5-2.8-7-2.8-7l6 12s-2.4 10.6-2.4 13c0 2.4 0 6.2.3 8.2 1 6.4 3.1 6 3.1 6s3.1-4 3.4-6.1c.8-5-1.2-12.9-1.5-13.5l3.5 7.4s.5 4.2.8 8.6c.3 4.3 2.4 10.9 3.9 13.3 1.5 2.4 3.3 4.8 4.6 5.5 1.4.7 2.4-4.5 2-6.6-.5-2.2-2.8-8.6-2.8-8.6l3 4.2s4.8 11.5 6 12.9c1.1 1.4 7.2 8.1 9.6 9 2.4 1 7.4 4.2 8.4 3 1-1.3.9-2.1-1.6-5.1a160.9 160.9 0 0 0-13.3-14.4s2.4 0 3.5-.7c1.1-.6 1-1.8-.6-2.9l-6-4.1-3.1.2s-1.1.6-1.5 0l-3.6-5.6s1.7-.2 3.7 1 5.8 2.4 8.4 2.3c2.6-.2 6.3-1 6.3-1s-1-3.7-3-5.3c-4.4-3.6-8.8-5.4-11.4-5.3-2.7.2-6.9 3.1-6.9 3.1l-5.1-7.6s2.8 1.5 5.4 1.7c2.5.2 5.1 1 8.5-.8 3.4-1.8 4.8-3 2.4-4.8-2.4-1.9-6.4-5.4-10.6-4.9-4.2.6-9.7 1-9.7 1l-2-5.7-3.8-6.4s3.9 4.2 6 5.6c2 1.4 7 3.5 8 3.5.8 0 3.5.4 4.8-.4 1.3-.8-2.2-5.9-2.2-5.9s-4.2-5.8-6.8-6.5c-2.6-.8-6.8-3.6-8.8-4l-6.7-.5-3.3-5.8s2.4 3 4.6 3.5c2 .5 5.9 1.7 7.7 1.2 1.8-.5 4.4-1.6 4.4-1.6l-4.6-5.9s-2.6-2.3-5.4-3.3a17.8 17.8 0 0 0-8.8-1c8.3-5.3 15-9.4 18.2-10.5 10.3-3.5 46.5-25 49-26.1 2.5-1-2.3-7.2-2.3-7.2s-7.4 1.6-35 18.9l-30.7 19.5-.6-.5-4-5.8s1-.3 3-1.9c2-1.5 3.3-3 4.6-5.4 1.2-2.3-.1-5.1-2.4-4.3-2.3.8-3.5 2.3-5.5 5.2-2 2.8-2.6 2.8-2.6 2.8l-3.4-5.8s3.8-1 6.9-3c3-1.8 3-3.3 5.3-5.9 2.2-2.6 2-3.6.4-3.8-1.5-.3-4.3.5-6.4.8-2 .3-3.5 2.1-5.5 3.7s-2.5 4.1-2.5 4.1l-1.1-4.3s5-3.4 7.3-6c2.2-2.6 1.5-4.4 2.4-8.2 1-4-.4-6.7-.4-6.7s-2.3-.2-4 .8c-1.8 1-5 5.2-4.3 4a42.9 42.9 0 0 0 3.8-19s-2.3 1.2-3.3 2.3c-1 1-2.8 3.1-2.8 2.3 0-.7 0-9.5-.5-11.5s-3.1-7.4-4.2-9.4l-2.6-5s-2.3 5-3 7.6c-.7 2.6-2.2 7.3-2.4 9.3-.2 2 .6 8.2-.4 7.4-1-.7-3.9-3.7-3.9-3.7s-.2 1.5 0 4.8a17 17 0 0 0 3.8 10c3.2 4.5 7.3 5.5 7.3 5.5s.6 3.3-.7 1.5c-1.4-1.7-6-5.3-8.6-7.3-2.6-2-5-2.2-5-2.2s.4 3.6 1.8 8.2c1.3 4.6 3.9 5 7 7 3 2 6.7 1.7 6.7 1.7s1 3.6-.2 3.1c-1.3-.5-6.2-2.7-10.3-3.4-4.1-.7-7.2 1.9-7.2 1.9s1.4 3.8 3.5 5.8l6.7 7s-4.9-1.1-4.6.7c.3 1.8 5.5 7.3 8.4 8.8 2.8 1.5 6.6 1 6.6 1s1.6 2.2 4 3c2.2.7 6.3-2.7 6.8-2l4 6.1-37.5 24.2-1-.8-4.9-3.6s2.8-1.5 4.3-2c1.4-.7 3-2.9 3.9-5.7.9-2.9.7-5.8.7-5.8l-4.2 1c-2 .5-2.6 2.5-4.7 5.9-2 3.4-2.1 4.2-2.1 4.2l-7-6s3-.7 5.6-1.8c2.7-1.2 3.7-5.7 5.3-7.9 1.5-2.2.5-4.6-1.1-4.5-1.5.1-4 1-6.5 1.6-2.5.6-3 2.8-4.5 5.3a20 20 0 0 0-2 3.9l-5.3-4.8s2.9 0 5.2-2.3c2.4-2.4 1.2-3.7 1.8-6 .5-2.2-.6-7-.6-7l-5 1c-2.3.5-3.3 4.2-4 5.4-.8 1.3-1.2 3-1.2 3l-1.5-2s3.1-4.5 4.6-7c1.6-2.5 0-6 0-6s-1.8-.7-4.4-.6c-2.6.1-3.3 2.7-5.4 5-2 2.3-2 3.6-2 3.6s-2.5-1.5-1.6-2.2c.9-.7 3.6-4.8 5.7-8.2 2-3.4-.4-9.1-.4-9.1s-3.3.2-6 1.4c-2.6 1.1-3.5 4-4.8 6.1-1.3 2.2-2.7 4.1-2.7 4.1l-1.3-2s3-3.7 4.4-4.8c1.3-1.1 1.9-4.4 3.4-6.9 1.5-2.4-.6-8-.6-8s-2 .3-5 1.2c-3 1-5 4.6-6.7 7.4-1.7 2.8-2 6.8-2 6.8l-4.2-3.2s3.2-1.8 5.1-5c2-3 2.5-7.4 3-10.6.5-3.3-2-8.3-4.2-7.7-2.2.5-6.4 5-7.8 8.1-1.3 3.2-2 5.8-2 5.8l-1.6-1.2s0-4 2-7c1.9-3.2 3-7.1 2.8-10.2-.2-3.1-5.5-8.7-7-8.4-1.5.4-2.6 2.2-3.6 3.5-1 1.3-2.2 9.8-2.4 7.7-.2-2-3.8-11.5-5.4-15-1.6-3.6-8.1-8.6-10.8-11.2-2.7-2.5-6.8-7.6-6.7-3.9 0 3.7 1.6 12.5 2.6 17.6 1 5 7.5 8.2 7.2 8.2-.2.1-10.1-.5-10.8 0-.7.4 2.6 4.4 5 6.7a51.5 51.5 0 0 0 12.9 5.4s-8.7 0-11.2.5c-2.5.6-5.1.7-5.5 2.4-.4 1.6 6.2 5 10.6 5.9 4.4.8 17.1-2.3 17.1-2.3s3.9 4.1 3 4c-.7 0-14.8.7-17.6 1-2.8.5-4.3 1.7-3.3 3.8 1 2.1 4.5 4.7 8.1 6.5a9 9 0 0 0 4.6.6c-1.9.8-3.8 2-6 3.2-3.4 1.5 3.6 3.3 6.8 4.6 3.3 1.4 9.4.5 12.5-.6 3.2-1 8.5-2 8.5-2l6 4.4s-5.6-.5-8.7-1.4c-3.1-.8-6 1.7-9.5 2.3-3.5.6-5 2.2-6.3 4.4-1.3 2.1 3 1.6 5.7 2.8 2.6 1.3 6.7.8 11.7-.6 4.9-1.5 7.8-3.7 8.7-4.2 1-.5 6.8 4.4 6.8 4.4s-5.8-1.2-8-1.5c-2.1-.3-4.7 2.2-11.1 5-6.4 2.9-3.2 4.5-3.2 4.5s3.6.4 7.3 1.7c3.7 1.2 8.6-1.6 13-3.1 4.3-1.6 4.9-3.6 4.9-3.6l3.9 3.3s-2.5.6-5.9.6c-3.4 0-7.2 3-14 5-7 1.9-4.2 1.5-2.5 3.2 1.7 1.7 7.3 2 10.6 2.2 3.2.3 9.3-2.7 12-4.7 2.7-2 1.7-4.9 1.7-4.9l3.9 3 5.8 4.5s-5-.7-8-.5c-3.1.2-7.5 3.9-11.3 4.8-3.7.8-3.5 2.9-1.2 4.7 2.3 1.9 5 .7 6.6 1.1 1.7.4 6.6-.8 10.7-2.3 4.2-1.5 6-4.8 6-4.8l5.5 4.2s-4.6.6-6.9 1.1c-2.2.5-4.8 3-6.2 3.6-1.4.6-2.5 3-1.7 4 .8 1.2 8.8.6 12.7-.8 3.9-1.5 4-5.5 4-5.5l6.4 5.6a11502.3 11502.3 0 0 0-46.4 30.3c-2.5-1.1-6.6-3-8-3.8-1.9-1.1-5-3.7-5-3.7s2-4.1 4-9.3c1.9-5.2.1-15.6-5-7.1-1.4 2.2-6.2 12.7-6.2 12.7s-6.8-3-5.7-3.2c1-.1 7.7-9.6 7.9-10.6.2-1-.2-9.3-.2-9.3l-9.5 7.4c-3.3 2.6-4 9.3-4 9.3l-3.4-4s3-2.5 5-5c2.1-2.3 3.2-8.4 4.9-12.8 1.7-4.5-1-4-5.3-3-4.4 1.1-4 2.8-7.5 7.2-3.4 4.3-3.4 8.8-3.4 8.8s-7.9-3.9-4.5-4.4c4.5-.8 5.9-10.4 6.7-14 .8-3.5-1.2-7-3.2-6.7-2 .3-5 6-7.9 9-3 2.8-1.8 7.8-1.8 7.8s-4-4.9-3-5.7a33 33 0 0 0 7.4-12c1-4.6-.6-9.9-2.7-9.9-2 0-6.7 5.6-9.8 7.8-3 2.3-2.3 9-2.3 9s-5.6-4.5-3.9-6.6c1.8-2 5.4-9.5 6.1-15.5.8-6-3-7.8-3-7.8s-4.8 2.5-8.5 7c-3.8 4.3-2.3 11.4-2.3 11.4l-4.5-8.3s4-5.8 5.7-12c1.7-6.2-3.3-11.2-3.3-11.2s-5 4.6-7.4 9.2c-2.4 4.5-1 8.8-1 8.8s-5-6.8-4.3-7a31 31 0 0 0 7.3-14.6c.7-6.4-1.4-8.5-2.8-8.6-1.4-.1-5.7 5.1-8.6 8.4-3 3.2-2.3 7.2-2.3 7.2s-4-3.4-2.7-4a26 26 0 0 0 6.7-11.8c.6-4.3-2.6-9.3-2.6-9.3s-3.3 1.2-5.8 2.7c-2.5 1.4-5.2 8.4-5.2 8.4l-1-2.2s1.9-11.7 1-15c-1-3.4-4.3-9-5.6-8.5-1.3.6-2.4 12.9-2.4 12.9s-1.6-8-3.4-12.6c-1.8-4.6-12.2-10.9-15.4-13.8-3.3-3 .2 1 1.1 4.7z" fill="#688438" fill-rule="evenodd"/></svg>