<svg width="338" height="122" xmlns="http://www.w3.org/2000/svg" xmlns:xlink="http://www.w3.org/1999/xlink">
  <defs>
    <path id="a" d="M.5.8h25.2v31.7H.5V.8z"/>
  </defs>
  <g fill="none" fill-rule="evenodd">
    <path d="M300 99s5.4-2.3 7.6-4.3c2.2-2 5.5-6.5 5.5-6.5s-8-16.7-9.8-17.8c-1.8-1-10-10-11.4-10.7a82 82 0 0 0-13.6-4.2c-1.3.1-1.9-1.3-7-.5-5.2.8-8.3 3.8-10 5.1a43.5 43.5 0 0 0-5.4 8.3l5.5 2.6s4.4-.1 8.1 1.4c3.8 1.5 15.9 7.6 18.6 10.2 2.8 2.7 5.4 2.5 7.4 5.4 2 2.8 4.6 5.4 4.6 8 0 2.5-.2 3-.2 3" fill="#8776B5"/>
    <path d="M246.2 49.6c-1-2.2-6.8-1.5-6.4 5.5.4 7 6.8 10.3 6.8 10.3s4 3.8 8.2 5c4 1.1 6.7.5 9.7 1 3.1.3 4.3-.7 2.4-2.7s-6-1.6-5.7-4c.5-2.5 2-6.3 3-6.8s-5.6 2.6-7.7 2.3c-2-.2-3.4.8-4.6-1.6-1.1-2.3-.3-2.8-1.2-4.7-.8-1.8-4.4-4-4.5-4.3" fill="#6557A4"/>
    <path d="M324 84s1.3-.4 4.4.2c3.2.6 5.5.8 5.1 2-.4 1.1-4 6.7-7.7 8-3.7 1.4-3.7.7-6 3.2-2.3 2.4 2.5.8 3 3 .6 2 .7 5.7-.8 7.6a14.3 14.3 0 0 1-8.2 3.6c-1.6-.1-3.5-2.2-3.5-2.2s1.2-5.2-.6-6.3c-1.8-1-2.4-3.6-2.4 0 0 3.7 0 6.7-1 8.7-1.1 2-1.7 4.4-3.8 3.5-2-1-3-2.4-4.4-4.8-1.3-2.4-1.6-1.6-3.9-1.7-2.3-.2-7 .5-6.8-3.9.1-3.3 1.1-5 2.2-5.8 1.1-.7 6.6-9.8 7.5-10.6.9-.8 9 4 10.3 3.1 1.3-.8 5.1-8.8 7-8.7 2 0 9.6 1 9.6 1" fill="#8776B5"/>
    <path d="M277 54.1c2 .2 13.8 2.8 22.3 9.4 8.5 6.6 20.3 16.6 22.7 18.5a7.7 7.7 0 0 0 4.2 1.9s-3 .7-5.8.8c-2.8 0-7.7 3-7.7 3s-6.4-11.5-7.4-13a59.4 59.4 0 0 0-14-10.5 136 136 0 0 1-9.4-2c-2.7-.7-3.8-1.9-.9-1.7 3 .1 4.5 0 7.4.3 2.9.4 2.3-1.5-1.3-2.5l-11.6-3c-1.4-.2-4.4-.2-5.3 0A22 22 0 0 1 277 54M296.1 88.7l-5.4 8.3c-1.2 1.8-2.6 3.4-2.9 5.3-.2 1.9 2.7-.2 3.4-1.6.7-1.5 4-3.8 5-3.7.7 0 1.5 2.5 3.7 2 4.7-1.3 11-7.2 11.2-8.3.2-1-1.8 1-7.3 4-2 1.2-7.7-6-7.7-6" fill="#6557A4"/>
    <g>
      <path d="M146.6 40.8c-1-.5-3.2-1-5.6.2-2.5 1.2-4 2.5-5.2 2.4-1.3-.1-14-1.2-14.5-2-.4-.8-1.9-3.6-4.2-3.3-2.4.2-.4-3.8-.8-5.7-.5-2-.4-6.3-5.4-7.4-5-1-9 2.4-9.8 3.1-.8.7-3 2.3-3.1 3.9-.2 1.5.3 4.8-1.5 2.7-1.9-2.2-1-4.7-3.7-6.5-2.7-1.8-6.2-5.2-9.9-2-3.7 3.1-7.3 6.4-5.7 10.6 1.5 4.2 3.4 5.8 6 8.2 2.7 2.4 2.5 2.9 1.3 2.5-1.3-.4-3.7-1.6-6.5-1.8-2.8-.2-5.5-.3-6.1 2.3-.7 2.6-1.8 4.7.3 7 2.2 2.1 5 1.3 6.3 1.9 1.4.5.8 4 3.5 3.7 2.6-.3 5-5 6.9-2.1 2 3 0 5.2 3.2 6.2s8.8 2.2 10.7-.4c2-2.5 2.8-3.8 3.4-4.2.5-.5 10.9 2.3 13.2 1.5 2.2-.7 6 .4 11.8-5.1 5.8-5.5 7.6-8.5 9.5-9 2-.4 2 1.3 4.3 1.7 2.3.3 6.2.5 5.1-3-1.1-3.3-2.5-4.9-3.5-5.4" fill="#8776B5"/>
      <path d="M96.6 39.2s4.8-.9 6.7 0c2 1 2.5 1.7 4 4 1.3 2.3 1.8 5.7 1.8 5.7l-8.2.2s-.7-2.5-1.7-1.7c-1 .9-2.3 1.4-1.1 2.4 1.1 1 1.5 1.9 2.2 1.6.6-.2.5-.4 1.4-.6 1-.3 7.7-.2 7.7-.2s1.8 2.8 1 3.5c-.8.8-2.4 2.4-3.5 2.1-1-.2-2.6-2-4.8-2-2.2.2-6 2-7.8 1.1-1.8-.7-4.6-1-4.7-2.4 0-1.4 0-3.4 1.5-4.1 1.5-.7 2.8.2 3-1.3 0-1.6-.8-1.2-2.6-2.3-1.8-1-6.3-3-4.6-4.4 1.7-1.5 1.5-2.7 3.1-2.1 1.7.6 2.9 2 3.8 1.4 1-.6 2.8-.9 2.8-.9M149.1 44.5s1.6 1.7 1.4 2.8c-.3 1 0 1.6-2 2-2.1.3-3.3 1-4.4 0-1-1-1.5-1.3-2.5-1.6-1.2-.3-2.5.8-3.2 1.6l-1.5 1.4c.1-1.1 1.2-4.3 4-5.6 2.9-1.2 4.8-2.8 8.2-.6" fill="#6557A4"/>
    </g>
    <g>
      <path d="M120.3 66.6s-1.4.3-1.4-2-.9-4.2 4.5-6.7c5.3-2.5 8.8-1.5 9.3-1.2l5.3 1.8c.6.2 9.6-.7 12-.8 2.6 0 5.1-.3 7.3-2.6 2.2-2.3 3-1.4 3-4-.2-2.8-1.1-3.5-.8-5 .3-1.5 1.2-.6 1.6-2.6.4-2-.3-4.2.8-2.7 1 1.4.3.2 1.4 2.4 1.9 3.8 3.1 3.3 2.7 5.8-.4 2.4-2.3 4.6.4 2.9 2.7-1.7 2.8-3 5-3.2 2.3-.3 3.2-.7 5.3 1 2 1.9 0 4.8.7 5.4.8.6 2.3-.6 2.2.8 0 1.4-.6 2-1.4 3.2-.8 1.1 1 2.2 2.8 1.8 1.7-.4 1.9-1.9 3.5-1.4s4.1 1.3 2.6 2.4c-1.6 1.2-2.6 2-5 2l-6.5-.5c-3.8-.3-7.2-1.7-11.5.2-4.3 1.8-8.2 4.3-12.2 5.6-4 1.3-8.6 2.5-11 1.2a70 70 0 0 1-10-7.9c-1.2-1.3-1.1-3-3.6-1s-1.6 3.2-3.4 4c-1.8 1-3.6 1.1-3.6 1.1" fill="#8776B5"/>
      <path d="M119 62.1c.6-.9 1.2-.7 2-.8 1-.1 1.6-.7 2.3-1.7a11 11 0 0 1 5.3-2.4c1 0 3.7-.1 4.6.5l2.7 2s1 1.1.2 1c-.8 0-2.5-.3-2.5.3 0 .7 2.8 2.1 5.1 3.5a22 22 0 0 0 11.5 1.5c2.8-.7 8.7-3.8 9.8-4.6 1-1 5.6-5.7 6-6.9.5-1.2 3.5-3.2 5.5-.7s5.2 3.8 4.2 5.3c-1 1.4-4 3.7-5.2 3.7-1.2 0-4.5.4-6.6 1.2-2.1.9-6.6 3-8.4 4a41 41 0 0 1-8.2 2.8c-7 1.3-7.3-1.2-8.5-1.7-1.2-.5-6.4-4.5-7.3-5.6-1-1.2-3-2.6-4.1-2-1.1.7-1 2.6-2.5 3.6s-2 1.1-3 1.3c-1 .3-1.8.9-2.5.1-1.2-1.1-.5-4.4-.5-4.4" fill="#6557A4"/>
    </g>
    <g>
      <path d="M243.8 60.8c-2.8 1-2.5 2-2 5.3s.4 5.3-.5 6.7c-1 1.4-8.6 5.7-11 9.3-2.3 3.5-4 10.6-3.7 11.8.2 1.2-6 0-7.9 2.9-1.9 2.8-3.3 5.6-1.8 7 1.4 1.5 6.9 5.7 8 5.4 1.3-.2 3.7 2.1 5.8-.2 2.1-2.4 2.9-4.5 3.1-2.6.2 1.8-1.2 3-1.9 4.7-.7 1.6 1.2 6.1 4.3 8 3.2 1.9 11.3 4 13.2 2 1.9-1.9 1.9-2.6.2-5-1.7-2.3-3.9-4.1-2.7-4.6 1.2-.5 2.2.4 3.1 1.9 1 1.4 3 4 7.5 3.5s6.6.6 8.8-3.4c2-4 5.4-2 3.3-6.1-2.2-4.3-2.2-4-5-5.2-3-1.2-5.3-1.4-5.3-4.2 0-2.9-2-4.5.6-7.4 2.6-2.8 5.8-1.6 5-5.9-.7-4.2-.7-7-6-7-5.2 0-5.4 3.5-6.9 2.1-1.4-1.4-4.5-5-4.3-9 .2-4 3.5-4.2 1.6-7.3-2-3-4-3-4-3l-1.5.3z" fill="#8776B5"/>
      <path d="M231.8 91c.8-1.8 4.8-.9 5.7-.8 2.5.1 3.8 1.8 3.8 1.8s-.2 8-.4 8.8c-.3.7-2.6 1.6-1 2 1.7.5 2.6.8 3.3-.2.8-1 0-1.2-.2-2-.2-1-.7-7.9.2-7.9 1 0 4.8.2 6 2.4.6 1.2 3 4.4 3.7 5.1.7.7 2.8-.5 3.8 2.1s.7 5.2-1 5.4c-1.6.3-4.6.3-5.8-.2-1.2-.4-2.1-.7-3.3-.2-1.2.5-1.7-.5-2.4 1.7-.7 2-2.8 5-4.2 3.5-1.4-1.4-2.8.3-3.3-2-.5-2.4.4-4.3.4-5.7 0-1.4-.7-3.6-2.1-2.8-1.4.7-2.8 1.2-3-.3-.3-1.4-.6-5.8-.6-5.8s-.5-3 .4-4.8" fill="#6557A4"/>
      <g transform="translate(226.3 58.9)">
        <mask id="b" fill="#fff">
          <use xlink:href="#a"/>
        </mask>
        <path d="M25.7 21c-1.2.2-1.6 4-3.8 1-2.2-3.1-6-6.3-7-5l-3.6 4.5c-1.1 1.7-4.7 3-5.4 4.6-.7 1.7-.7 4.3-2 5.3-1.1 1-3.5 1.3-3.4 1 .7-4.2 3.2-9.6 4.8-11 1.7-1.5 6.5-6.3 7.5-7 1-.7 2.6-4.4 2.3-5.3-.2-1-1.2-6.7.2-7.2 1.5-.5 3.9-2 5.8-.5 2 1.4 3.6.2 3.4 3.6-.3 3.3-2.5 4.8-2.7 6-.2 1.2 1 5.1 1.5 6.3.5 1.2 2.4 3.7 2.4 3.7" fill="#6557A4" mask="url(#b)"/>
      </g>
    </g>
    <g>
      <path d="M73.2 35.8s1 2.7-2 4c-3 1.2-9.6 4-11.2 4-1.5.2-6.6 4.8-8.8 5.3l-7 1.4s.9 1.6.3 3c-.7 1.3-1.7 1.6-3 2.3-1.4.7-3 1 .6 2 3.1.8 2.4 8 1 9.7-1.5 1.7-3.5 3.1-4.6 1.2-1-2-4.1-2.6-5-2.6-1 0-3.7-1.5-3.8 0 0 1.6-.5 7.7-4.4 8.3-4 .6-11.5.5-11.5-3.4s-.5-6.4 1.3-7.5c1.8-1 3.8-2.5 3.5-3.5-.4-1-.7-2-2-1-1.1.8.2 2.6-3.2 3.6-3.3 1-6 2.7-5.7-1 .1-3.7.6-9.3 2.4-10.5 1.8-1.3 4-1 5.5-1.5 1.4-.5 0-.8 1-3 1.2-2.4 3.6-5.1 5.3-4.7 1.8.5 2.2 0 3.7 1s4.4-3.5 4.4-3.5 5.5-6 7.5-6.6c2-.7 10-5.4 12.9-2.7 3 2.6 6 5.5 9 6.6 3 1.1 5.4.4 6-.3.6-.8 0-3.7 2.3-3.8 2.3 0 4-.8 4.6.4.8 1.2.9 2.8.9 2.8" fill="#8776B5"/>
      <path d="M32.6 61.6c1.2-1.7 1.6-3.4 2.6-5.3s1.3-6.3.5-6.6C35 49.5 33.1 51 32 52c-1.2.9-3 1.8-3.5 2-.6.1-1.7 2.2-2.6 1.6-1-.7-1.7-1.7-.9-2.4.8-.7 1.4-.3 2.5-.5 1.2 0 6.6-4.5 6.6-4.5s-2-3-3-3c-.9 0-3.6 3.3-5.3 3.8-1.8.5-4.5 1.5-5.3 1.5-.8 0-1.9-1.5-4-.6-2.2.9-4.7 3.7-3.8 5.4.9 1.8 1.5 4.2 3.1 4 1.6 0 4.6-2.6 5.7-1.8 1.1.8 2.5.9 1 2.6-1.4 1.6-3 3.3-1.7 4.7 1.3 1.4 2.1 3.4 4.1 3.1 2-.3 4.6-2 4.8-3.2.2-1 1.9-1.3 3-3M67.6 32.5s3.5-1.5 4.3-.3c.8 1.1 2.5 4.7 1.8 5.8a8 8 0 0 1-4.4 2.7c-1 .1-5.7 2.5-6.5 2.6-.7 0-2.5.5-3.2.7-.7.2-3.8 2.5-4.7 3-.9.6-2.6 2.4-5.6 2.7-3 .3-5 1-5 .8-.2-.1-.2-1.8-.3-2.5 0-.7 3.8-5.1 6.6-5 2.9.1 7.5-1.8 8.5-1.7 1 .2 4.8.2 5.3-1 .4-1 .7-1.9.1-2.3-.5-.3-.8-.8-.7-.8 1.2-.1 1.9-2.4 2.2-3.4.3-1.1 1.6-1.3 1.6-1.3" fill="#6557A4"/>
    </g>
  </g>
</svg>
