<svg id="headings" xmlns="http://www.w3.org/2000/svg">
  <defs>
    <style>
      .cls-1 {
        fill: #1e1854;
      }
    </style>
  </defs>
    <symbol id="headingWellbeing" class="heading" viewBox="0 0 777.2 236.4">
        <title>Wellbeing</title>
<desc>Wellbeing written in a cursive script</desc>
  <path class="cls-1" d="M531.4,24.1a11.2,11.2,0,0,1,1.8-8.7,11,11,0,0,1,7.5-5,10.5,10.5,0,0,1,8.6,1.7h.1a11.1,11.1,0,0,1,4.9,7.4,11.9,11.9,0,0,1-1.7,8.8,11.1,11.1,0,0,1-7.4,4.9,9.9,9.9,0,0,1-2.4.3,11.2,11.2,0,0,1-6.5-2.1,11.5,11.5,0,0,1-4.9-7.4M777.2,127.3a23.1,23.1,0,0,1-3.6,12.1h-.1a36.9,36.9,0,0,1-12.3,11.7,67.1,67.1,0,0,1-18.1,7.2c-9.6,2.3-16.4,2.8-29.1,1.9a208.9,208.9,0,0,1-33.8-5.4,74.5,74.5,0,0,0-3,9.1,55.3,55.3,0,0,0-1.6,10.7c-.1,2.9.3,4,.5,4.4a7,7,0,0,0,1.4,2.1h.1a13.3,13.3,0,0,1,1.4,1.9h0c2,3.3,2.3,6.1.8,8.3a5.7,5.7,0,0,1-4.9,2.8h-1.2c-1.8-.4-4.1-1.7-5-6.3h0a20.2,20.2,0,0,1-.3-3.3v-.9a78,78,0,0,1,.5-16.7,66.4,66.4,0,0,1,3.3-14l-9.6-2.7c-8.8,7.8-16.7,13.1-24.7,16.7-16.9,7.7-31.1,9.6-47.2,10.1-13.8.5-25.9-.9-34.2-4s-12.1-6.6-15.5-10.6-5.2-9.5-4.1-14.8a22.7,22.7,0,0,1,9.4-14.1c6-4.3,11.9-6.7,20.4-8.3a92,92,0,0,1,25.8-.9,177.7,177.7,0,0,1,22.2,4.2l1.6.3c8.2,2,17.5,4.1,35,9.7h.1l2.7.9a141.3,141.3,0,0,0,9-13c2.6-4.3,4.1-8.8,5.9-14.2,1-3.2,1.9-6.5,2.7-10.3v-.3q.3-1.3.6-3c.2-1.3.5-2.7.7-4.2s.4-2,.6-3.3.3-1.9.5-2.8l-.3.3c-2.5,3-5,4.8-7.6,5.3a16.1,16.1,0,0,1-9-.8,16.3,16.3,0,0,1-7.5-6.2,29.2,29.2,0,0,1-4-9.4,72.8,72.8,0,0,1-9.5,16,23.3,23.3,0,0,1-8.8,7.3,16.4,16.4,0,0,1-11.8.4c-4.2-1.2-7.5-4.1-9.7-8.6S603.2,82.4,604,75h0c3.3-20,3.7-22.6,3.8-23h0a14.9,14.9,0,0,1,.4-1.8c.3-1.5.6-3.3.9-5.2s.4-3.1-.1-3.9a1.7,1.7,0,0,0-.8-.6h-.1a1.3,1.3,0,0,0-1.1,0c-1.7.4-3.1,2.2-5.2,5.6a70.8,70.8,0,0,0-6.4,14.7c-2,6-3.8,12.2-5.4,18.7s-2.9,12.4-4,17.6-2.1,9.1-2.8,11.6l-.3,1.3-22.8,4.5,1.9-12.2a60,60,0,0,1-4.8,6.9,23,23,0,0,1-8.8,7.2,16.6,16.6,0,0,1-11.9.5c-4.2-1.2-7.4-4.1-9.6-8.6a16.3,16.3,0,0,1-1.5-4.4,66.8,66.8,0,0,1-8.6,13.2h-.1a30,30,0,0,1-10.8,7.2,41.2,41.2,0,0,1-13.8,3,20.6,20.6,0,0,1-12.8-3.8c-3.9-2.9-6.6-7.7-8-14.2h-.1a50.4,50.4,0,0,1-.7-5.6,65.5,65.5,0,0,1-4.9,5.8,46.8,46.8,0,0,1-12.2,9.1,7.8,7.8,0,0,1-.5,1.4h0a45.1,45.1,0,0,1-4.7,8.7,26.4,26.4,0,0,1-6.5,6.8,20.1,20.1,0,0,1-8.6,3.7,30,30,0,0,1-10.4.7,17,17,0,0,1-7-2.4,5,5,0,0,1-1.2-.8l-1.1,6.4-23,4.5,3.4-21.3-.2.4c-3.9,5.7-8.2,11.6-13.3,16.4s-7.5,5.9-11,6.9-7.2,1.7-11.8.3-7.5-4.2-9.7-8.8a25.2,25.2,0,0,1-2.1-8.6l-1.1,2.3c-3.1,6.9-7.5,11.8-11.8,16a27.3,27.3,0,0,1-10.4,6.8,20.8,20.8,0,0,1-12.5.4c-4.3-1.2-7.6-4.2-9.8-8.8a20.9,20.9,0,0,1-1.3-4,63.2,63.2,0,0,1-8.3,12.5h0a32.2,32.2,0,0,1-10.8,7.1,42.2,42.2,0,0,1-13.8,3,20.7,20.7,0,0,1-12.9-3.8c-3.9-2.9-6.6-7.7-8-14.2h0a77.8,77.8,0,0,1-.8-21.2,80.7,80.7,0,0,1,4.4-20.4,46.7,46.7,0,0,1,4.7-9.2,32.9,32.9,0,0,1,6.7-7.2,21.5,21.5,0,0,1,9-3.9,27.3,27.3,0,0,1,11.7-.2,15.5,15.5,0,0,1,8.4,4.9,19.6,19.6,0,0,1,4.6,12.8,29.6,29.6,0,0,1-3.5,12.8,30.4,30.4,0,0,1-8.1,9.9,18.1,18.1,0,0,1-10.1,4.6,9.1,9.1,0,0,1-5.9-1.3c-.2,1.3-.3,2.8-.4,4.3a45.4,45.4,0,0,0,.4,9.8,11.7,11.7,0,0,0,3,6.3,8.2,8.2,0,0,0,7.6,1.6,14.5,14.5,0,0,0,7.9-5.3,69.2,69.2,0,0,0,6.4-10.2c1.7-3.5,3.1-6.5,4-8.8a11.6,11.6,0,0,1,.6-1.5c2.1-5.2,4.1-10.1,5.8-14.7.1-.1.1-.2.1-.4l5.8-34.8.3-1.8c1.9-11,6.3-34.3,7.8-39.3A57.4,57.4,0,0,1,321,23.5,31.7,31.7,0,0,1,331.9,12c7-4.4,12.3-5,17.8-2.1a15,15,0,0,1,7,9.6c1,5.1.2,15.2-4.2,25h0c-5.6,12.1-9.3,16.4-18.3,26.7L332.1,74l-2.3,2.8-9.4,57.8c0,.4-.1.8-.1,1.2-.4,3.4-.7,5.4-.3,7.1s.5,1,.7,1.1a2.3,2.3,0,0,0,1.9.1c2.1-1.1,3.8-3.7,6.3-8l.2-.3c8.9-15.1,15.1-26.6,18.4-34.1l3.5-8.1v-.4l3.8-23.1.4-1.9c1.9-11,6.3-34.3,7.8-39.3a53.5,53.5,0,0,1,5.6-13.5A30.9,30.9,0,0,1,379.6,3.9c6.9-4.4,12.2-5,17.8-2.1,3.1,1.6,5.8,5.5,6.6,9.4s.1,15.2-4.2,25h0c-5.6,12.1-9.3,16.4-18.3,26.7l-2.1,2.5-2,2.5-9.3,58.3c-.5,4.5-.6,7.2-.2,9a1.4,1.4,0,0,0,.7.9c.3.2.6.4,1.7.1,3.1-1.1,6.6-5.9,9.4-9.8l.2-.3a102.6,102.6,0,0,0,6.7-11.5c.8-1.7,1.7-3.4,2.7-5.2,3-5.6,8.9-18.9,9.9-21.2h0l.7-1.5.4-1a.7.7,0,0,0,.1-.5l10.7-66L434,14.7,425.8,66c1.1-1,2.1-1.9,3.3-2.8a21.5,21.5,0,0,1,10.8-4.7h.1c5.5-.4,9.8,1,12.8,4.2a23.5,23.5,0,0,1,5.6,12.1,58.2,58.2,0,0,1,.7,15.2,90.4,90.4,0,0,1-1.2,10.6,29.8,29.8,0,0,0,6.8-6.5,76.2,76.2,0,0,0,6-9.4,1.4,1.4,0,0,0,.2-.6,77.7,77.7,0,0,1,4-16.6,45,45,0,0,1,4.7-9.3,28.4,28.4,0,0,1,6.7-7.1,21.8,21.8,0,0,1,8.9-4c4.6-.8,8.5-.9,11.8-.1a15,15,0,0,1,8.3,4.9,18.6,18.6,0,0,1,4.6,12.8,28.7,28.7,0,0,1-3.4,12.7,33.6,33.6,0,0,1-8.1,10A19.1,19.1,0,0,1,498.2,92a9,9,0,0,1-5.8-1.4c-.2,1.4-.3,2.9-.4,4.4a40.1,40.1,0,0,0,.4,9.8,10.9,10.9,0,0,0,2.9,6.3,8.4,8.4,0,0,0,7.7,1.6,14.8,14.8,0,0,0,7.8-5.3,55.8,55.8,0,0,0,6.4-10.2,95.3,95.3,0,0,0,4-8.8l.6-1.6c2.4-5.6,4.6-11.1,6.4-16.1.1-.1.1-.2.1-.4l4.9-30.2,23-4.5-9.7,57.5c-.5,4.4-.5,6.5.3,8.7s.3.9.7,1.1a2.1,2.1,0,0,0,1.6.1c1.9-1,3.3-3.5,5.5-7.2l.5-.9a100.4,100.4,0,0,0,6-13.1l1.2-2.7q3.2-7.6,5.7-14.4v-.3l5.2-32.1,23.1-4.5-1.6,9.6a33.6,33.6,0,0,1,4.6-5.6,23.1,23.1,0,0,1,6.2-4.8,19.7,19.7,0,0,1,5.1-2.1c4.1-.7,7.5-.7,10.2.2a12.7,12.7,0,0,1,6.4,4.9,19.8,19.8,0,0,1,2.8,7.5,40.2,40.2,0,0,1,.5,8.6,76.6,76.6,0,0,1-.8,8.5q-.6,4.2-1.2,7.5c-.2,1.1-.4,2.1-.5,3.1l-2,12.3c-.5,4-.5,7,.1,8.9s.3.7.4.7h.4c1.9-.9,4.4-3.9,6.7-7.9a115.1,115.1,0,0,0,7.6-15.7c1.1-2.6,2.2-5.1,3.2-7.7a4.3,4.3,0,0,0,.1-.5c.1-.8.1-1.6.2-2.4A79.9,79.9,0,0,1,647,40.2a54.3,54.3,0,0,1,4.5-11.9,32.7,32.7,0,0,1,7.2-9.5,20.8,20.8,0,0,1,10.6-5.2c4.4-.9,8.2-.9,11.3.1a17.5,17.5,0,0,1,5,2.3l.9-5.6,23-4.5L698.1,77.5c-.3,1.9-.7,3.8-1,5.6l-.4,2.3a125.5,125.5,0,0,1-11.5,34.9,91.4,91.4,0,0,1-16.4,23.5l6.4,1.8a100.4,100.4,0,0,1,13.2-20.7c6.7-8.1,13.5-14.2,20.7-18.6s10.5-5.8,18.3-7.6a54.9,54.9,0,0,1,15.2-1,65.4,65.4,0,0,1,12.8,2.2,32.2,32.2,0,0,1,11.8,6,26.5,26.5,0,0,1,7.3,9.4,27.4,27.4,0,0,1,2.7,12m-35.3,22.6c6.3-1.7,10.5-3.7,13.2-6.2a16.1,16.1,0,0,0,5.2-9h0a18.7,18.7,0,0,0-1.1-10.1,26.8,26.8,0,0,0-18.4-15.2c-5.9-1.4-10.7-2-16.1-.9a43.1,43.1,0,0,0-17.2,8.6,88.9,88.9,0,0,0-15.2,16.1,87.6,87.6,0,0,0-9,14.6,200.2,200.2,0,0,0,31.3,4.8c11.8.8,18.2-.2,27.3-2.6M681.6,39.6v-.5a18.2,18.2,0,0,0,.4-3,25.4,25.4,0,0,0,0-3.9,14.6,14.6,0,0,0-1.4-5.9c-.6-1-1.1-1.4-2.2-1.2s-3.4,2.3-5,5.5a63.9,63.9,0,0,0-4.9,13.9A106,106,0,0,0,666,61.1a85,85,0,0,0-.1,13.3,2.7,2.7,0,0,0,1.2,2.1,2.8,2.8,0,0,0,2.3,0c1.3-.8,3.2-3.6,4.2-5.9s2.4-6.6,3.8-11.9c.3-1.2.7-2.8,1.1-4.6l1.6-6.7a71,71,0,0,0,1.6-7.7ZM495.2,83.2a6.7,6.7,0,0,0,4.6-.7,12.6,12.6,0,0,0,5.2-4.4,25.6,25.6,0,0,0,4-9.6,14.4,14.4,0,0,0-.3-7.3,4.8,4.8,0,0,0-2.4-3c-1.1-.3-2.5.6-3.5,1.4a16.1,16.1,0,0,0-3.8,5.5,67.8,67.8,0,0,0-3.1,8.3,61,61,0,0,0-2,7.9h0v.2c.1,1.2.6,1.5,1.3,1.7m-66.9,24.7a7.5,7.5,0,0,1,5.9-2.2c.9-4,1.7-7.7,2.2-11.1q.5-2.7.9-5.1c.3-2,.6-3.7.7-4.6s.1-1.7.2-2.5c.3-3.6.5-5.4-.1-6.9s-1.3-2-2.6-1.7h0c-1.8.3-3.4,1.8-5.5,5.1a62.3,62.3,0,0,0-5.7,12.4,106.9,106.9,0,0,0-4.2,13.8c-1.1,4.4-1.8,7.6-2.1,9.7v.3c-.5,3.9-.4,7.1.4,9.5s1.7,3.3,2.9,3.8,2.7,0,4-1.4a20.4,20.4,0,0,0,3.6-5.3,5.9,5.9,0,0,1-2.9-2.7,8,8,0,0,1-.5-5.9,10.4,10.4,0,0,1,2.9-5.2m-42-64.2A51.8,51.8,0,0,0,394,26.6c1.4-6,1.6-8.2,1.4-12s-.5-4.2-1.3-5.3a1.8,1.8,0,0,0-2.3-.6c-1,.4-2,2.5-2.9,4.6-3.7,9.4-6.9,27.1-8.9,38.9a103.7,103.7,0,0,0,6.3-8.5m-47.6,8.1a52.3,52.3,0,0,0,7.6-17.1l.3-1.1c1.2-5.3,1.7-7.4,1.5-10.9s-.5-4.1-1.3-5.1a2.3,2.3,0,0,0-2.4-1c-.2.1-1.3.5-3.2,4.7-3.6,9.5-6.9,27.2-8.8,39,2.2-2.7,4.3-5.6,6.3-8.5m-69.8,72.5a6.6,6.6,0,0,0,4.6-.7,12,12,0,0,0,5.2-4.4,23.7,23.7,0,0,0,4-9.5,14.9,14.9,0,0,0-.3-7.4c-.6-1.6-1.4-2.6-2.4-2.9s-2.5.5-3.5,1.3a17,17,0,0,0-3.7,5.5,54.9,54.9,0,0,0-3.2,8.3c-.9,2.9-1.5,5.5-2,7.9v.3c.2,1.1.6,1.4,1.3,1.6m365.3,17.6c-5.6-1.5-23.4-5.9-30.8-7.2a125.6,125.6,0,0,0-20.1-1.8l-5.8.2c-7.6.9-12.6,2.4-16.9,5s-6.4,5.2-7.1,8.5-1.1,6.9,2,10.9c1.6,2.1,6.9,5.1,14.5,6.6a101.3,101.3,0,0,0,27.4,1.3c10.9-.9,26.6-3.9,34.4-7.7A61.9,61.9,0,0,0,648.7,146l-14.5-4.1M248.3,55.4a152.3,152.3,0,0,1,6.4-16.3,66.1,66.1,0,0,1,8.6-14.5,24.4,24.4,0,0,1,10.4-8c4.4-1.7,6.6-.9,8.4,0a15.7,15.7,0,0,1,5.4,4.7,3.5,3.5,0,0,0,.6.9,4.3,4.3,0,0,0,3,1.3,4.1,4.1,0,0,0,3-1.4,4.2,4.2,0,0,0,1-3.2,4,4,0,0,0-.9-2h0a6,6,0,0,0-1.1-1.2h0l-.4-.3c-6.4-6.5-12.3-8.7-21.6-8.4a31.8,31.8,0,0,0-17.5,6,62.2,62.2,0,0,0-14.2,14.3,114.4,114.4,0,0,0-10.8,18,119.4,119.4,0,0,0-6.9,17.3h0c-2.7,9.9-6.2,24.3-10.3,42.8-.9,3.9-1.8,7.9-2.7,12.1l-4.8,21.3c-1.2,5-2.3,10-3.4,14.8h0c-1.2,5.7-2.4,11.2-3.6,15.7-2.2,8.8-4.4,17.2-5.2,20.3S189,199,188,201.8s-1.2,3.2-1.8,4.4c-.2-2.3-.3-5.3-.4-7.3h0v-2c-.2-3.5-.3-6.5-.4-9.2-.2-5.5-.4-9.8-.5-14.9s-.3-7.6-.6-11.8-.5-7.9-.7-13.1c-.3-6.7-.9-19.6-1.4-25.4a178.5,178.5,0,0,1-.5-22.3,42.3,42.3,0,0,1,4.2-16.6c2.5-4.1,3-4.9,4.5-6.3h.1a3.1,3.1,0,0,0,.8-2.4,3.6,3.6,0,0,0-1.2-2.7,4.2,4.2,0,0,0-4.8-.5h-.1c-7,4.3-9.2,7.1-13.3,12.6l-.4.5a76.1,76.1,0,0,0-10.7,19.6,112.2,112.2,0,0,0-3.5,11c-.4,1.6-1.8,7.5-3.4,14.4s-3.1,13.6-4.3,19c-2.7,11.1-4.3,19-6.3,28.1h0c-1.5,7.2-4.2,16.6-5.4,21.1h-.1c-.1.6-.3,1.2-.4,1.6-.9,3.3-2.7,9.4-3.7,12.3s-1.3,3.4-1.8,4.5c-.2-1.9-.4-5.1-.4-9.4,0-2.2-.1-4.3-.1-6.2,0-7.9,0-13.6-.2-20-.1-8-.5-19.9-.9-30.5-.6-13.2-2.5-28.5-4-38.8a144,144,0,0,0-8.7-33.9c-4.3-10.9-10.1-19.5-17-24.8A56.9,56.9,0,0,0,79.3,42.3h0a50.2,50.2,0,0,0-26.1.3A64.1,64.1,0,0,0,30.1,55,83.9,83.9,0,0,0,1.8,102.2a85.1,85.1,0,0,0-1.1,28,90.3,90.3,0,0,0,7.2,26,74.1,74.1,0,0,0,14.2,20.9,49.1,49.1,0,0,0,19.8,12.7,42,42,0,0,0,23.9.6h.1a41.1,41.1,0,0,0,19-10.8,44.9,44.9,0,0,0,10.5-17.7,52.8,52.8,0,0,0-3.8-40.7,44.7,44.7,0,0,0-14.3-15.7c-6.1-4.1-13.7-6.6-22.5-7.3h-.1a7.6,7.6,0,0,0-4.4.7,4.9,4.9,0,0,0-2.7,3.1,9.3,9.3,0,0,0-.4,3.6,4.8,4.8,0,0,0,1.8,3.5,6.4,6.4,0,0,0,4.8,1.3h.1a26,26,0,0,1,12.2,2,35,35,0,0,1,10.9,7,28.1,28.1,0,0,1,7.1,10.2,52.3,52.3,0,0,1,3.6,17.8,40.5,40.5,0,0,1-3.1,16.1,29.8,29.8,0,0,1-9.1,11.8A27.4,27.4,0,0,1,61,180.7a22.4,22.4,0,0,1-14.7-3.9,36.7,36.7,0,0,1-11.1-13,78.6,78.6,0,0,1-6.9-19.5,108.5,108.5,0,0,1-2.2-23.1A102.2,102.2,0,0,1,29,97.7a87.5,87.5,0,0,1,7.8-21.2A59,59,0,0,1,48.7,60.8a29.4,29.4,0,0,1,14.2-7.3,34,34,0,0,1,16.9.7c6.6,2.1,11.2,5.2,17.4,12s9.3,17.5,12,27.2a192.2,192.2,0,0,1,5.4,31.7c1.3,11.9,2.1,20.2,2.7,27.5s1.7,34.2,2,46.7c.2,6.8.6,15,1,23s1.8,11,4.3,12.7a8.2,8.2,0,0,0,4.5,1.4,11.4,11.4,0,0,0,4.2-.9c2.9-1.2,4.2-2.5,6.6-5.4a68.8,68.8,0,0,0,8.7-14.4c5-11.5,7.7-19.5,11.6-34.6,3.5-13.5,5.1-20,7.8-31.6.6-2.6,1.8-8.3,3-14.4l.6,7.3c.6,7,1.8,34.8,2.2,47.4.1,1.4.1,3.2.2,5.1.1,5.9.4,13.2.7,19s1.7,9.3,4.2,11,5.4,1.6,8.7.3,4.4-2.3,6.9-5.3A112.2,112.2,0,0,0,204,206c5.7-10.4,8.9-18,14-33.9,1.7-5.3,4.4-15.5,8.1-31.1,2.7-10.7,5.1-20.4,7.2-29.6,3.8-16.4,7.4-30.6,10.8-42.3,1.1-3.8,2.5-8.4,4.2-13.7"/>
    </symbol>
    
    <symbol id="headingHome" viewBox="0 0 469.1 247.4">
      <title>Home</title>
        <desc>Home written in a cursive script</desc>
  <path class="cls-1" d="M183.5,197.6a52.9,52.9,0,0,1-8.8-17.8,120.7,120.7,0,0,1-4.2-23.2,167.1,167.1,0,0,1-.3-22.3,41,41,0,0,0,13.6-9.5,25.5,25.5,0,0,0,6.5-16.9l.2-5.2-3.9,3.5a50.8,50.8,0,0,1-14.4,8.8c1.2-8.5,2.9-17.7,5.1-27.2a287.2,287.2,0,0,1,9.5-32.5A168.3,168.3,0,0,1,200.4,26,76.1,76.1,0,0,1,218,4.9L224,0l-7.7.9a50,50,0,0,0-15.1,4.2,47.2,47.2,0,0,0-14.7,10.6c-4.7,4.8-9.6,11.5-14.5,20.1h0c-6.4,11.5-11.8,25.5-16.2,41.6a308,308,0,0,0-8.9,45.4l-9.3,2.1-6.7,1.7-2.8.6c2.7-18.4,2.5-35.8-.5-51.6h0c-2.7-12.8-7-22.8-12.6-29.7S102.3,34.3,94.5,32.4a51.6,51.6,0,0,0-24.1,0,85.5,85.5,0,0,0-24.1,9.8,111.4,111.4,0,0,0-21,16.1A81.8,81.8,0,0,0,10.7,77.6,90.4,90.4,0,0,0,1.2,105a69.4,69.4,0,0,0-.1,25.3c1.5,7.8,4.4,14.4,8.7,19.5a27.1,27.1,0,0,0,17.3,9.6c7,1,15.2-.7,24.4-5.1a51.7,51.7,0,0,0,16.8-13.1,46.6,46.6,0,0,0,10-19.2,36.3,36.3,0,0,0-1.6-22v-.3c-1.5-2.9-3.6-3.5-5-3.5A6.3,6.3,0,0,0,67,98.7a6.5,6.5,0,0,0-1,5.6h.1a28.4,28.4,0,0,1,1.5,15.9,33.8,33.8,0,0,1-6.4,14.3,33.2,33.2,0,0,1-11.8,9.7c-4.6,2.4-8.5,3.1-11.6,2.1a12.8,12.8,0,0,1-7.4-6.6c-2.1-3.6-3.4-8.2-4.2-13.6a80.3,80.3,0,0,1-.3-17.8,87.3,87.3,0,0,1,6.5-27.2,80.5,80.5,0,0,1,14.9-23,62.4,62.4,0,0,1,22.1-15q8.5-3.3,15.9-1.8a22.7,22.7,0,0,1,12.8,8.1c3.8,4.6,6.7,11.3,8.7,19.9a124.3,124.3,0,0,1,2.4,30.7,202.1,202.1,0,0,1-4.3,33.6,126.7,126.7,0,0,0-30.1,15.1A134,134,0,0,0,55.3,165a80.4,80.4,0,0,0-15.2,20.3h0a63.7,63.7,0,0,0-5.5,17.2,41.6,41.6,0,0,0,.3,15.8,20.1,20.1,0,0,0,7,11.6,17.3,17.3,0,0,0,10.6,3.2l3.8-.3h.2a65.5,65.5,0,0,0,24.6-11.6,91.7,91.7,0,0,0,19.7-20.9,143.6,143.6,0,0,0,14.8-27.1A189,189,0,0,0,125,144l12.6-2,7.7-1.3a166.5,166.5,0,0,0,.5,20,101.4,101.4,0,0,0,4.3,21.4,54.6,54.6,0,0,0,9.3,17.4,33.5,33.5,0,0,0,15.5,10.6c6.2,2,13.6,2.1,22.1.2l11.2-2.4-11.3-2a21.2,21.2,0,0,1-13.4-8.3M100.6,150a213.8,213.8,0,0,1-12,31.2,175.8,175.8,0,0,1-18.8,31.2c-3.6,4.2-7.3,7.3-10.9,8.9s-6.4,2-7.5,1.6-4.2-3.2-5-6.9-.6-9.3,1-15.3,4.8-12.5,9.3-19.2a78.8,78.8,0,0,1,18.7-18.7A96,96,0,0,1,100.6,150M468,100.4a14.1,14.1,0,0,0-7.9-8.5,18.3,18.3,0,0,0-16.4.7c-8,4.1-10.9,6.9-16.3,12l-.8.8c-4.8,4.5-12.7,12.8-15.9,16.3l-.6.5c-2,1.9-5.5,5.3-7.5,7.4-7.6-1.9-9.5-4.2-11.3-7.3s-2.5-6.4-3.2-12.4a71.9,71.9,0,0,1,.3-13.9,9.1,9.1,0,0,0,5.9,1.3,18.8,18.8,0,0,0,10.1-4.6,35.8,35.8,0,0,0,8.1-9.9A28.8,28.8,0,0,0,416,70.1a19.2,19.2,0,0,0-4.6-12.8h0a15,15,0,0,0-8.3-4.9c-3.3-.8-7.2-.7-11.8.1a22,22,0,0,0-9.9,4.6,32,32,0,0,0-7,8.4,50.9,50.9,0,0,0-4.7,10.6,54.3,54.3,0,0,0-2.4,10.7,72,72,0,0,0-1.1,10.7v.8a2.4,2.4,0,0,1-.2.8l-1.2,2.9a164.7,164.7,0,0,1-7.7,15.7c-2.5,4.2-4.7,6.7-6.9,7.8h-.4a2.3,2.3,0,0,1-.3-.7,25.2,25.2,0,0,1-.1-8.9l2.1-12.4h0c.1-.8.3-1.7.5-2.8h.1c.3-2.2.8-4.7,1.2-7.5a78.9,78.9,0,0,0,.8-8.5,48.2,48.2,0,0,0-.4-8.6,19.8,19.8,0,0,0-2.8-7.5,12.6,12.6,0,0,0-6.4-4.9c-2.7-.9-6-1-10.1-.3a21.7,21.7,0,0,0-5.2,2,31,31,0,0,0-6.3,4.8,43.8,43.8,0,0,0-6.2,8.2q-1.1,1.8-2.1,3.9a16.7,16.7,0,0,0-2.3-6,12.6,12.6,0,0,0-6.4-5.2c-2.7-1-6.2-1.1-10.4-.3a20.2,20.2,0,0,0-5.1,2,31,31,0,0,0-6.3,4.8,44.3,44.3,0,0,0-4.5,5.5l1.6-9.6-23,4.4L253,108.7l-.2.6c-.9,1.6-1.9,3.5-3.1,5.4a20.9,20.9,0,0,1-5.5,6.2,21.1,21.1,0,0,1-3.1,2.1,62.4,62.4,0,0,0,.3-8.6,67.6,67.6,0,0,0-1-10.9,25.8,25.8,0,0,0-2.7-7.8,19.7,19.7,0,0,0-5.1-6.3,17.7,17.7,0,0,0-7.7-3.6,24,24,0,0,0-10,0,21.2,21.2,0,0,0-10,4.8,31.9,31.9,0,0,0-7.5,8.7,45.3,45.3,0,0,0-5,11.4,75.5,75.5,0,0,0-2.8,12.7,69.7,69.7,0,0,0-.3,12.9,48.4,48.4,0,0,0,2.3,11.8,32.3,32.3,0,0,0,5,9.8,19.9,19.9,0,0,0,8.2,6.2,21.1,21.1,0,0,0,11.3.8,23.4,23.4,0,0,0,8.7-3.7,30,30,0,0,0,6.6-6.7,37,37,0,0,0,4.7-8.8,60.5,60.5,0,0,0,2.9-8.8,42.1,42.1,0,0,0,10.5-7.5l-5,30.2,22.9-4.4.4-1.3c.7-2.5,1.6-6.4,2.8-11.7s2.4-11,4-17.4,3.5-12.8,5.5-18.7a72.9,72.9,0,0,1,6.6-14.7c2-3.2,3.5-5.3,4.8-5.7h0a1.7,1.7,0,0,1,1.8.5c.6,1.1.5,1.5.3,4s-.6,4.9-1,7.2a1.3,1.3,0,0,0-.1.6l-3.7,22.4a19.2,19.2,0,0,0-.3,2.2l-4.9,29.5,21.2-4,1.8-.4.8-4.5c.6-2.3,1.2-5,2-8.3,1.1-5.2,2.5-11.1,4.1-17.5s3.4-12.7,5.4-18.7A72.9,72.9,0,0,1,325.5,84l.2-.4c2.1-3.4,3.2-5,5-5.3s1.4-.1,1.8.4.4,1.4.2,3.2c0,.3-.1.7-.1,1.2-.2,2.6-4.3,30.7-4.3,30.9h0c-.9,7.3-.6,11.9.9,16.4s5.1,8.5,9.3,9.8a16.4,16.4,0,0,0,11.8-.4c4-1.8,7.5-5.8,9.3-8a75.9,75.9,0,0,0,9-14.7,37.5,37.5,0,0,0,8.8,14c4.8,4.6,9.4,6.7,15.5,8.4l-.4.4c-11.6,11.1-21.7,21.1-33.7,33-18.7,18.6-32.2,31-40.2,36.9A184.1,184.1,0,0,1,280.7,232c-7.8,3.1-14.9,4.4-21.2,3.7a32.6,32.6,0,0,1-16.1-6,33.7,33.7,0,0,1-13.5-28.4,31.1,31.1,0,0,1,5.1-15.7c3.2-5,8.2-9.3,14.8-12.9a77.3,77.3,0,0,1,14.4-5.3,43.4,43.4,0,0,1,14.6-1.4,25.7,25.7,0,0,1,12.6,4.3,27.4,27.4,0,0,1,3.1,2.9,17.2,17.2,0,0,1,2.4,3.3,21.1,21.1,0,0,1,1.5,6h0a17.5,17.5,0,0,0,1.5,6c.7,1.3,2.5,3.3,6.9,2.2a5.9,5.9,0,0,0,4.2-4.2c.6-2,.2-4.4-1.2-7.4a35.8,35.8,0,0,0-23.1-19h0c-9.6-2.3-20-1.5-30.9,2.4a66.8,66.8,0,0,0-8.8,3.8c-11.6,5.9-20.5,12.7-26.5,20.2s-9.5,15.1-10.4,22.6a32.1,32.1,0,0,0,2.7,18,32.9,32.9,0,0,0,12.1,13.6c6.6,4.3,15,6.6,25,6.7h.9c10.1,0,23.2-2.9,35-7.8h0c12.2-5.3,21.9-11.6,34.5-20.5,10.9-7.7,19.1-15.6,28.6-24.8h.1l3.8-3.7c11.4-11,21.4-20.8,33.4-33,2.2-2,4.7-4.6,7.1-7.1s4.7-4.9,6.7-6.7h0l.9-.9h0a5.7,5.7,0,0,0,1.1-1.1c10.8,1.6,19.2.7,28.4-1s14.7-4.1,22.4-8.4h.1a31.8,31.8,0,0,0,11.6-10.5,25,25,0,0,0,4.4-12.1,21.5,21.5,0,0,0-.9-9.1m-9.7,10.8v.2c-.9,3-2.5,8.1-10.2,12.2a64.8,64.8,0,0,1-24.3,7.9,51.7,51.7,0,0,1-11.8-.1l1.5-1.5h.1l3-3a15.3,15.3,0,0,1,1.8-1.8c2.3-2.4,3.9-4,7.5-7.4s6.9-6.5,10.7-9.7c5.6-4.7,10.7-7.1,14.6-6.9s5.1.9,6.2,2.6a9.6,9.6,0,0,1,.9,7.6M389.8,86.8a16.4,16.4,0,0,1,.5-3h0c.4-1.5.9-3.1,1.4-4.9a84.9,84.9,0,0,1,3.5-8.8,19.4,19.4,0,0,1,3.6-5.2c2.1-1.8,3.1-1.4,3.4-1.3a4.6,4.6,0,0,1,2.5,3,17.1,17.1,0,0,1,.3,7.3,26,26,0,0,1-4.1,9.6,12,12,0,0,1-5.1,4.3,7.5,7.5,0,0,1-4.7.7,1.7,1.7,0,0,1-1.3-1.7M223.6,105c0,2.5-.1,5.4-.3,8.5v1.8c-.2,2.9-.4,5.9-.7,8.9a17,17,0,0,1-5.8-3.7,8.7,8.7,0,0,1-2.5-6.6v-.4a21,21,0,0,0,.6-2.4c.6-2.2,1.1-4.2,1.7-6l.2-.4a24.4,24.4,0,0,1,2.6-5.8c.8-1.2,1.4-1.4,2-1.4h.1a1.5,1.5,0,0,1,1.5.8c.6,1.1.6,3,.6,5.3V105m-11.9,45.9c-.5-.6-.6-1.5-.7-3.3v-.4c-.1-2.2-.1-4.3-.1-6.7v-.9c0-1.4.1-2.9.2-4.4a21.5,21.5,0,0,0,8.8,4.4c-.6,1.9-1.1,3.7-1.7,5.3a34.1,34.1,0,0,1-2.6,5.4,3.2,3.2,0,0,1-2.1,1.3,1.8,1.8,0,0,1-1.7-.7"/>
    </symbol>
    
<symbol id="headingExpression" viewBox="0 0 789.2 262.6">
    <title>Expression</title>
    <desc>Expression written in a cursive script</desc>
  <path  class="cls-1" d="M538.5,21.3a11.5,11.5,0,0,1-4.9-7.4,11.3,11.3,0,0,1,1.8-8.7A11.5,11.5,0,0,1,551.5,2a11.1,11.1,0,0,1,4.9,7.5,11.2,11.2,0,0,1-1.7,8.7,11.2,11.2,0,0,1-7.4,4.9,9.9,9.9,0,0,1-2.4.3,10.9,10.9,0,0,1-6.4-2.1M786.8,88.2a17.6,17.6,0,0,1,1.4,14.8c-1.5,5.2-5.5,10.2-11.7,14.9s-14.9,8.2-26,10.9a84.2,84.2,0,0,1-28.4,1.9,70.8,70.8,0,0,1-23.3-6.8l-6.1,5.1a69.9,69.9,0,0,1,7.7,11.5,85.7,85.7,0,0,1,6.6,14.9h.1v.2c0,.1.1.1.1.2v.2l1,2.9v.3c.7,3.5.1,6-1.9,7.4a4.9,4.9,0,0,1-2.8.9,5.4,5.4,0,0,1-3.5-1.3c-1.8-1.5-2.6-4-2.3-7.5v-.2a10.8,10.8,0,0,1,.5-2.1,8.8,8.8,0,0,0,.3-2.4,13.3,13.3,0,0,0-1.2-4.2,56.2,56.2,0,0,0-5.3-9.2,59.4,59.4,0,0,0-5.4-7,147.1,147.1,0,0,1-24.5,15.5,116.4,116.4,0,0,1-29.4,10.1,67.3,67.3,0,0,1-19.9,1,41,41,0,0,1-17.9-6.4h-.1a25.2,25.2,0,0,1-8.4-10.4,28.3,28.3,0,0,1-2.2-12,29.3,29.3,0,0,1,3.8-13.3,41.4,41.4,0,0,1,9.5-10.7,43.9,43.9,0,0,1,10.7-6.6,52.5,52.5,0,0,1,13.5-3.5A63.6,63.6,0,0,1,646.7,99a90.8,90.8,0,0,1,23,10.2h.1a94.6,94.6,0,0,1,17.7,14.1l4.4-3.6A56,56,0,0,1,675.7,103a68,68,0,0,1-9.6-24,78.7,78.7,0,0,1-.8-26.1h0c.5-3.5,1.1-7.1,1.7-10.6.2-1.7.7-4.3,1.1-7,.9-4.9,1.8-10.3,2-12.1s.2-4-.2-4.4a2.1,2.1,0,0,0-1.8-.6c-1.8.4-2.8,1.9-5,5.5H663a77.1,77.1,0,0,0-6.4,14.8c-2,5.9-3.8,12.2-5.3,18.6s-3,12.3-4.1,17.6-2.1,9.1-2.8,11.6l-.3,1.3-22.9,4.5L626,62.1a41.4,41.4,0,0,1-10.4,7.6,82.1,82.1,0,0,1-2.8,8.8,41,41,0,0,1-4.7,8.8,31.9,31.9,0,0,1-6.5,6.7,22.5,22.5,0,0,1-8.8,3.8,20.9,20.9,0,0,1-11.2-.7,19.6,19.6,0,0,1-8.3-6.2,34.3,34.3,0,0,1-5.1-9.7c-.1-.5-.3-1-.4-1.5a25.5,25.5,0,0,0-1.3,2.9,77.4,77.4,0,0,1-9.8,16.5,25.1,25.1,0,0,1-8.8,7.3,17.2,17.2,0,0,1-11.9.4,17.7,17.7,0,0,1-8.1-4.8,37.6,37.6,0,0,1,.4,7.6,30.9,30.9,0,0,1-8,19.8c-5,5.6-12.3,9.4-21.5,11.4h0c-7.9,1.4-14.6,1-19.9-1.2a25.9,25.9,0,0,1-7.1-4.1,39,39,0,0,1-3.1,4c-5,5.6-12.2,9.4-21.4,11.4h-.1c-7.9,1.4-14.6,1-19.9-1.2a25.5,25.5,0,0,1-12.3-9.9,28.5,28.5,0,0,1-4.2-10.4,35.4,35.4,0,0,1-8.6,5,41.2,41.2,0,0,1-13.8,3,20.6,20.6,0,0,1-12.8-3.8c-3.8-2.8-6.5-7.4-7.9-13.7-.2.6-.5,1.2-.7,1.7a78.2,78.2,0,0,1-9.8,16.6,24.1,24.1,0,0,1-8.9,7.2,16.1,16.1,0,0,1-11.7.5,15.9,15.9,0,0,1-9.7-8.7c-2.1-4.3-2.7-10.2-1.9-17.6h.1L328.7,97c.4-3.4.1-5.9-1.1-7.2a6.5,6.5,0,0,0-5-2.2,12.2,12.2,0,0,0-5.1.7h-.1c-.5,3.5-1.3,7.4-2.3,11.6,0,.3-.1.7-.1,1h0a69.1,69.1,0,0,1-6.1,17.5,56.8,56.8,0,0,1-8.9,12.7,46.7,46.7,0,0,1-11.5,8.9,11.8,11.8,0,0,1-.7,2h0a59.8,59.8,0,0,1-4.6,8.7,28,28,0,0,1-6.6,6.7,20.2,20.2,0,0,1-8.7,3.8,31.5,31.5,0,0,1-10.3.6,19.8,19.8,0,0,1-7.1-2.3l-1.1-.8-3.2,19.5a12.2,12.2,0,0,0,7.5-2.8,14.6,14.6,0,0,0,4.8-7.5,4.1,4.1,0,0,1,3.8-3.1,4,4,0,0,1,2.8,1.2,3.9,3.9,0,0,1,1.1,2.7c0,.2-.1.6-.1.9a31.1,31.1,0,0,1-4.2,10.3,24.4,24.4,0,0,1-9.2,8.5h0a51.9,51.9,0,0,1-8.5,3.4c-2.1,14.4-4.7,31.9-5.4,35.4a84.2,84.2,0,0,1-5.4,16.3,30.6,30.6,0,0,1-8.9,11.6c-4.3,3.6-9.9,5.9-16.6,6.9h-.1a33.1,33.1,0,0,1-4.4.2,23.9,23.9,0,0,1-12.7-3.2,21,21,0,0,1-8.8-11.2,23.2,23.2,0,0,1-.5-13.8,19,19,0,0,1,8.1-11,16.4,16.4,0,0,1,5.1-2.2,9.5,9.5,0,0,1,5.8.3,7.6,7.6,0,0,1,3.1,1.8,7.7,7.7,0,0,1,2.2,4.2,8.3,8.3,0,0,1-1.4,6.5,8,8,0,0,1-5.5,3.6,8.6,8.6,0,0,1-6.1-.9l-1.4-1a16.1,16.1,0,0,0-1,5.3,16.6,16.6,0,0,0,1.8,8.3,10.7,10.7,0,0,0,5.2,4.9,10.4,10.4,0,0,0,7.9-.4c1.8-.8,2.5-1.9,3.9-4.2l.3-.6a41.4,41.4,0,0,0,4-9,94.3,94.3,0,0,0,2.5-10.5l2.1-13.4h-.1l4.2-26.1a26.8,26.8,0,0,1-5.2-3.6,60.4,60.4,0,0,1-11.8-14,133.9,133.9,0,0,1-6.9-12.3l-7.8,16.6-23,4.5,20.7-43.3-8.3-18c-.4,2-.8,4-1.3,6.2v.4h0q-.9,4.2-2.4,10.2h0a170.1,170.1,0,0,1-8.7,23.4A164.7,164.7,0,0,1,154,183.8a123.6,123.6,0,0,1-17.8,20.9,80.3,80.3,0,0,1-22,14.6,55.3,55.3,0,0,1-25.6,4.5h0a42.3,42.3,0,0,1-21.4-7.1,43.3,43.3,0,0,1-17-22.1,50.4,50.4,0,0,1-2.8-14.7,57,57,0,0,1,1.7-16.1,74.8,74.8,0,0,1,11-23.2c5.4-8,12.9-15.5,22.3-22.4a107.5,107.5,0,0,1,22.3-12.3,22.4,22.4,0,0,1-4.8-1.3,20.7,20.7,0,0,1-11.1-9.3,25.3,25.3,0,0,1-2.9-12.7,56.8,56.8,0,0,1-6.5-3.4,69.9,69.9,0,0,1-7-4.5,71,71,0,0,0-14.8-8,32.4,32.4,0,0,0-15.3-2.3c-5,.4-10.2,2.6-15.2,6.4A28.9,28.9,0,0,0,19.8,79a33.9,33.9,0,0,0-4.3,13.7,42,42,0,0,0,1.1,15A31,31,0,0,0,23.1,120a19.8,19.8,0,0,0,11.5,6.2h.2a23.4,23.4,0,0,0,13.1-.5c5.4-1.7,9.4-4.2,11.8-7.6A18.7,18.7,0,0,0,63.1,107a25.1,25.1,0,0,0-3-11.7,23.7,23.7,0,0,0-8-8.6,14.3,14.3,0,0,0-6.7-2.1A24.4,24.4,0,0,0,38.1,86a4.4,4.4,0,0,0-1.9,1.2,9.5,9.5,0,0,0-1.5,2,8.9,8.9,0,0,1-2.5,2.9c-1.3,1-3,1.1-5.1.4H27a3.9,3.9,0,0,1-2.7-3.4,5.9,5.9,0,0,1,1.3-3.6,10.8,10.8,0,0,1,3.7-3.2A30.9,30.9,0,0,1,33.7,80a40.5,40.5,0,0,1,8.5-2.7A35.1,35.1,0,0,1,53,76.8a28.4,28.4,0,0,1,11.6,3.6,26.6,26.6,0,0,1,9.9,9.2,24.5,24.5,0,0,1,3.8,12.7A27.7,27.7,0,0,1,75,115.7,37,37,0,0,1,64.2,128a41.9,41.9,0,0,1-13.6,7h0c-9,2.5-17.1,2.8-24.3.8A36,36,0,0,1,8.6,124.9,35.3,35.3,0,0,1,.3,106.5C-.7,99.6.6,92.3,3.9,85s9.2-14.2,17.6-20.5h.1A47.2,47.2,0,0,1,40.8,57a45.6,45.6,0,0,1,19.1,1.3A61.2,61.2,0,0,1,78,66.9a47.7,47.7,0,0,0,9.4,5.2,53.8,53.8,0,0,1,6.8-14.7,61.6,61.6,0,0,1,14.1-15.3A59.5,59.5,0,0,1,128.6,32h0a46.6,46.6,0,0,1,13.1-1.7,26.8,26.8,0,0,1,9.7,2.1,16.3,16.3,0,0,1,8.7,9,22.8,22.8,0,0,1,.7,13.7,32.5,32.5,0,0,1-10.4,17.4A49.8,49.8,0,0,1,133.2,82,93.8,93.8,0,0,1,114,86a41.2,41.2,0,0,1-5.9.7,14.4,14.4,0,0,0,5.3,8q4.9,3.8,15.3,2.4h.1a3,3,0,0,1,2.4.8,3.2,3.2,0,0,1,.9,2.4h0a5.1,5.1,0,0,1-.7,3,5.3,5.3,0,0,1-2.9,2.4c-12.4,4.4-22.6,9.9-30.4,16.5a70.5,70.5,0,0,0-17.7,21.2A59.4,59.4,0,0,0,73.6,166a50.3,50.3,0,0,0,2.3,20.4,34.9,34.9,0,0,0,9.6,14.7,23.7,23.7,0,0,0,14.9,5.9c5.8.3,12.3-1.7,19.3-5.9s14.9-11.7,22.7-21.9,16-24.4,24-41.9l1.8-4.7a101.8,101.8,0,0,0,2.3-10.5,114,114,0,0,0,1.7-19.1,3.4,3.4,0,0,1,.4-1.6,2.7,2.7,0,0,1,1.5-1.1h.1l1.6-.3,17.5-3.4,6.9,15.9,9.1-19.1,23-4.5-22.2,46.3c.7,1.5,1.3,3.1,2,4.7,1.7,4.2,3.7,8.6,5.8,13a93.1,93.1,0,0,0,7.1,12.4l.8,1.2,12.7-78.7,23.1-4.5-.9,5.3c1-1,2.1-1.9,3.2-2.8,3.2-2.6,5.9-4.1,8.2-4.5,4.1-.8,7.6-.7,10.4.4a15.2,15.2,0,0,1,7,5.5,24.7,24.7,0,0,1,3.5,8.6,46.8,46.8,0,0,1,1.2,10.2,102.4,102.4,0,0,1-.5,11c-.2,1.8-.5,3.6-.7,5.4a37.3,37.3,0,0,0,5.7-5.6c3.2-3.7,4-5.2,6-9.7.6-1.9,1.1-4.2,1.7-6.9s1.2-6.4,1.7-10.1a11.5,11.5,0,0,1-3.7-1.2h-.1a12.9,12.9,0,0,1-4.1-3.7,11.9,11.9,0,0,1-2.3-5h0a11.8,11.8,0,0,1,2.2-9.1h.1a16.1,16.1,0,0,1,5-4,12.7,12.7,0,0,1,5.9-1.2,6.7,6.7,0,0,1,5.2,3.2h0a10,10,0,0,1,1.1,3.9c.1,1.2.2,2.2.2,3s.2.3.6.3a13.9,13.9,0,0,0,4.2-.5l6-1.8,3.7-1.2h0q8.7-2.5,13.2.9c2.9,2.1,4.7,5.4,5.4,9.8a52.6,52.6,0,0,1,.2,12.6c-.5,4.3-1,8.3-1.7,11.8-.1.6-.1,1.3-.2,1.9v.2l-2.7,12.2c-.8,4.5-.8,6.4-.3,8.1a2.3,2.3,0,0,0,1.4,1.7,2.2,2.2,0,0,0,1.8-.1c1.5-.7,2.4-2.4,3.7-4.9.5-.9,1-1.9,1.7-3a126.4,126.4,0,0,0,7.6-15.6c1.7-4,3.2-7.9,4.7-11.6a4.3,4.3,0,0,0,.1-.5,81.5,81.5,0,0,1,4.2-18.4,50.6,50.6,0,0,1,4.7-9.3,28.4,28.4,0,0,1,6.7-7.1,20.3,20.3,0,0,1,9-3.9,27.3,27.3,0,0,1,11.7-.2,14.3,14.3,0,0,1,8.3,4.9A19.2,19.2,0,0,1,416.3,75a28.8,28.8,0,0,1-3.5,12.7,30.8,30.8,0,0,1-8.1,10,18.8,18.8,0,0,1-10.1,4.6,9.7,9.7,0,0,1-5.9-1.3c-.2,1.3-.3,2.8-.4,4.3a45.4,45.4,0,0,0,.4,9.8,12.3,12.3,0,0,0,2.9,6.3,8.4,8.4,0,0,0,7.7,1.6,15.1,15.1,0,0,0,7.9-5.3,69.2,69.2,0,0,0,6.4-10.2c1.7-3.5,3-6.5,4-8.8.2-.6.3-1.1.5-1.6q3.8-8.7,6.6-16.5c.4-1,.7-1.9,1.1-2.8l-.5-1.1a20.3,20.3,0,0,1-2-10.2h0a21.5,21.5,0,0,1,3.7-10,20.3,20.3,0,0,1,8.6-7l1.7-.8,8.8,13.1H444l-1.1.2c-.6.2-1,1.1-1.1,1.7a3.9,3.9,0,0,0,.6,2.4,17.7,17.7,0,0,0,2.9,3.9c1.3,1.5,2.9,3,4.5,4.6l5,5h0c.6.6,1.1,1.2,1.8,1.8h0l6.1,6.7q3,3.5,6,7.5a20.9,20.9,0,0,1,6.3-4.6,24.3,24.3,0,0,1,13.3-2.8h.1a14.7,14.7,0,0,1,8.9,3.8,16.8,16.8,0,0,1,5.2,17.6h0a15.9,15.9,0,0,1-3.5,5.6,10.4,10.4,0,0,1-5.9,3.5,8.9,8.9,0,0,1-6.3-.8,7.6,7.6,0,0,1-3.6-5.3,8.1,8.1,0,0,1,1.4-6.4,8.5,8.5,0,0,1,5.5-3.7h.9a5.6,5.6,0,0,0-1.8-3.2,8.7,8.7,0,0,0-5.8-1.7,11.6,11.6,0,0,0-6.3,2.1,16.9,16.9,0,0,0-3.7,3.9,36.9,36.9,0,0,1,3.4,16,37.2,37.2,0,0,1-.8,5.7,27.2,27.2,0,0,0,6.3,4.7c4.1,2.2,9.2,2.8,15.1,1.8a17.5,17.5,0,0,0,9.9-5.7,20.5,20.5,0,0,0,4.8-10.7,17.9,17.9,0,0,0-1.9-11.8h0c-1.4-2.9-3.8-5.5-6.1-7.9l-1.4-1.5a93.9,93.9,0,0,0-7.9-7.6l-.6-.6c-3.2-2.7-10.8-9.7-13.3-12.7a27.6,27.6,0,0,1-4-6.7,20.3,20.3,0,0,1-2-10.2h0a20.6,20.6,0,0,1,12.3-17l1.7-.8,8.9,13.3-2.2-.2-1.2.2a2.4,2.4,0,0,0-1.1,1.7,3.9,3.9,0,0,0,.6,2.4,21.7,21.7,0,0,0,2.9,3.9c1.4,1.5,3,3.1,4.6,4.6s3.3,3.3,5,5h0l1.7,1.8h0c1.8,1.8,3.8,4.1,6.2,6.7a99.2,99.2,0,0,1,7.1,9.1h0a42.5,42.5,0,0,1,2.5,3.9,65,65,0,0,1,.7-10.6h0l8.1-50.2,22.9-4.5-9.1,57.4c-.2,1.3-.4,2.5-.5,3.5a16.3,16.3,0,0,0-.4,5.1c.2,1.1.6,1.3,1.2,1.4a3.1,3.1,0,0,0,2.5-.7c1.3-1,1.8-2,2.8-4s1.1-2.1,2-3.5a128.2,128.2,0,0,0,7.6-15.7c1.5-3.5,2.9-7,4.1-10.2.1-.2.1-.4.2-.5a13.6,13.6,0,0,1,.2-2.1,77.3,77.3,0,0,1,2.6-12.7,56.2,56.2,0,0,1,5-11.4,35.6,35.6,0,0,1,7.4-8.8,22,22,0,0,1,10-4.7,24.3,24.3,0,0,1,10-.2,20.2,20.2,0,0,1,7.7,3.6,21.4,21.4,0,0,1,5.2,6.3,29.3,29.3,0,0,1,2.7,7.7,69.2,69.2,0,0,1,1.1,10.9,85.5,85.5,0,0,1-.2,8.7,28.2,28.2,0,0,0,3.1-2.1,24.2,24.2,0,0,0,5.4-6.3c1.2-1.9,2.2-3.7,3-5.3a1.3,1.3,0,0,0,.1-.6l5.1-31.3,23.1-4.5-1.6,9.6a39.2,39.2,0,0,1,4.5-5.6,27.7,27.7,0,0,1,6.3-4.8,16,16,0,0,1,5.1-2c4.1-.8,7.5-.8,10.1.2a12.7,12.7,0,0,1,6.5,4.8,19.8,19.8,0,0,1,2.8,7.5,40.2,40.2,0,0,1,.5,8.6,80.8,80.8,0,0,1-.8,8.6q-.6,4.2-1.2,7.5c-.2,1-.4,2.1-.5,3l-.6,3a136.7,136.7,0,0,0-1.8,14.5,89.1,89.1,0,0,0,3.3,30.5,52.1,52.1,0,0,0,11.4,20.4,15.9,15.9,0,0,1,1.3-1.3c4.8-4.1,9.9-8.4,15.3-12.7A121.2,121.2,0,0,1,735,85.8a68.2,68.2,0,0,1,18.5-7.4h0q12.2-2.6,20.7.3c5.8,2,10,5.2,12.6,9.5m-14.2,15.9a11.3,11.3,0,0,0-2.1-8.7,15.8,15.8,0,0,0-8.4-6.1c-3.9-1.3-8.5-1.4-13.8-.2s-11.4,4-17.7,8.6c-4.5,3.2-8.8,6.6-12.9,10l-10.5,8.9a31.2,31.2,0,0,0,4.9,3.1,44.9,44.9,0,0,0,17.9,4.2,66.7,66.7,0,0,0,20.4-2.3,40.4,40.4,0,0,0,16.2-8c3.5-3.1,5.5-6.3,6-9.5M594.1,36c-.2.7-.5,1.5-.8,2.3a74.6,74.6,0,0,0-2.5,8.3,8,8,0,0,0,2.5,6.8,17,17,0,0,0,5.8,3.7c.3-3.1.5-6,.6-8.9h0c.2-4.4.2-7.5.1-10.2a14.8,14.8,0,0,0-.1-2.1,25.4,25.4,0,0,0-.3-4.3,1.6,1.6,0,0,0-1.5-1.2c-.6,0-1.5.2-2.3,1.8s-1,2.4-1.5,3.9m2.3,36.5a22.1,22.1,0,0,1-8.8-4.4c-.1,1.5-.2,3-.2,4.4a54.7,54.7,0,0,0,.3,7.3c.2,1.9.4,3.3,1,4.1a1.7,1.7,0,0,0,1.5.6,3.4,3.4,0,0,0,2-1.5,24.1,24.1,0,0,0,2.5-5.3,53,53,0,0,0,1.7-5.2M616.1,151c4,1.6,9.1,1.8,15.3.8a110,110,0,0,0,27.4-9.5,143.9,143.9,0,0,0,22.7-14.2A112.6,112.6,0,0,0,669,117.8a82.8,82.8,0,0,0-17.9-9.5,47.7,47.7,0,0,0-18.6-3.6,29.7,29.7,0,0,0-16.8,5.6,29.3,29.3,0,0,0-8.6,10.3,28.3,28.3,0,0,0-3,12.5,21.2,21.2,0,0,0,3.1,10.8,17.2,17.2,0,0,0,8.9,7.1M431.8,107.8a11.3,11.3,0,0,0-6.2,2.1,19.5,19.5,0,0,0-3.8,3.8l-1.8,3.4a13.1,13.1,0,0,0-.6,2.7,18,18,0,0,0,2.1,11.5,21.7,21.7,0,0,0,9.3,8.9q6.1,3.3,15,1.8a17.2,17.2,0,0,0,9.9-5.7,20.6,20.6,0,0,0,4.9-10.7c.5-3.6.3-9.1-2-12.9a48.5,48.5,0,0,0-7.5-9.3c-2.8-2.8-16.4-14.6-16.5-14.7h-.1c-.5-.6-1.2-1.1-1.8-1.7l-1.1-.9c-.5,2-1.1,4.1-1.7,6.4s-1.4,4.7-2.2,7a25,25,0,0,1,9-1.1h.1a16.5,16.5,0,0,1,9.1,4.2,15.6,15.6,0,0,1,4.9,8,17.1,17.1,0,0,1-.3,9.5h-.1a14,14,0,0,1-2.9,5.3,10.4,10.4,0,0,1-6,3.5,8.9,8.9,0,0,1-6.3-.8,7.6,7.6,0,0,1-3.6-5.3,8.1,8.1,0,0,1,1.4-6.4,8.4,8.4,0,0,1,5.6-3.7h.8a4.9,4.9,0,0,0-1.8-3.2,8.7,8.7,0,0,0-5.8-1.7m-41.6-16c.1,1.2.6,1.5,1.3,1.7a6.6,6.6,0,0,0,4.6-.7,12,12,0,0,0,5.2-4.4,25.6,25.6,0,0,0,4-9.6,14.4,14.4,0,0,0-.3-7.3,4.8,4.8,0,0,0-2.4-3c-.9-.3-2.1.2-3.5,1.4a17.6,17.6,0,0,0-3.8,5.5,67.8,67.8,0,0,0-3.1,8.3c-.9,2.9-1.5,5.5-2,7.9v.2M262.1,130.6a7.6,7.6,0,0,1,6-2.4h.9c1-4.1,1.8-7.9,2.3-11.4s.9-6.9,1-8.5,0-3.3.1-4.7a28.1,28.1,0,0,0-.2-6.2,2.2,2.2,0,0,0-1.9-1.6h0c-2.7,0-3.4,1.2-5,3.8l-.7,1.1c-2,3.3-3.6,7.5-5.4,12.7s-3.1,9.5-4.2,13.8-1.7,7.3-2.1,9.4v.5c-.5,4-.4,7.2.4,9.6s1.6,3.3,2.8,3.8,2.7.1,4-1.3a17.6,17.6,0,0,0,3.5-4.9,6.8,6.8,0,0,1-3.3-2.4,8,8,0,0,1-1-6.1,10.2,10.2,0,0,1,2.9-5.4ZM107.5,77.1h4.4A51.8,51.8,0,0,0,126.5,74a30.9,30.9,0,0,0,10-6.5,27.3,27.3,0,0,0,6.2-9,30.3,30.3,0,0,0,2.9-10.1,14.1,14.1,0,0,0-1.1-7.7,4.8,4.8,0,0,0-4.3-2.8,20.6,20.6,0,0,0-11.9,3.4,40.8,40.8,0,0,0-10.5,9.9,52.3,52.3,0,0,0-7.5,13.7,47.5,47.5,0,0,0-2.8,12.2"/>
    </symbol>
    
    <symbol id="headingPlay" viewBox="0 0 369.4 256.5">
   <title>Play</title>
    <desc>Play written in a cursive script</desc>
  <path class="cls-1" d="M132.8,130.8c-12.1,4.8-23.2,7.3-40.6,9.2-.3,2-.8,5.1-1.3,9v.2c-2.9,19.1-8.2,54.7-9.5,60A118.4,118.4,0,0,1,75.2,228a41.9,41.9,0,0,1-10.8,15.3,48.7,48.7,0,0,1-14.5,9.2,51.5,51.5,0,0,1-12.6,3.4h0l-2.4.3-3.3.2A23.1,23.1,0,0,1,17.4,252a22.9,22.9,0,0,1-9.1-14.5h0a47.5,47.5,0,0,1-.4-5.1v-.6c.9-3.6,3.1-4.2,4.4-4.3a4.2,4.2,0,0,1,3.7,1.1,4.3,4.3,0,0,1,1.3,3.7,9.9,9.9,0,0,0,.4,3.3,10.7,10.7,0,0,0,5.6,6.4,16.6,16.6,0,0,0,10,1.4,19.1,19.1,0,0,0,10.3-5.7c3.8-4.2,7-9.9,9.5-17a169.6,169.6,0,0,0,6.4-24.9c1.8-9.4,8.3-50.3,9.8-60.5s3.1-20.8,5-31.1c.6-3.1,1.1-6.5,1.7-10.1h0c1.5-8.5,3-17.4,4.7-24.1l.6-2.7c2.1-8.2,3.4-13.1,7.5-20.3S99,33,106,28.7a59.4,59.4,0,0,1,24.8-8.6l8-1-6.3,5A64.3,64.3,0,0,0,115,44.4c-3.8,6.7-5.1,11-7,17.6-.5,1.8-1.1,3.9-1.8,6.2-2.6,8.5-4.7,20-6.6,30.2L98.4,105l-1.2,6.6h0c-1.4,7.3-2.7,14.1-3.5,18.6a64.7,64.7,0,0,0,21.3-5.3c10.3-4.4,16.6-8.5,24-15.6s10.4-13.4,15.3-24.4c2.9-6.4,4.7-11.6,6.6-22.3a57.6,57.6,0,0,0-.2-20.7,48.1,48.1,0,0,0-7.1-17.7,28.3,28.3,0,0,0-12.7-10.7,63.9,63.9,0,0,0-30.4-3.3,84.3,84.3,0,0,0-29.2,9A102.1,102.1,0,0,0,56,37.8,139.2,139.2,0,0,0,35.7,64,164.3,164.3,0,0,0,22.1,93.3,123.5,123.5,0,0,0,15.9,121c-.8,8.5-.2,15.7,1.7,21.4s4.9,9,9.4,10.7,10.6.9,18.3-2.6c5.5-2.7,9.6-6.3,12.1-10.8a28.9,28.9,0,0,0,3.9-14.4A25.8,25.8,0,0,0,58,112.2a15,15,0,0,0-9.2-7c-3.9-1.1-8.8-.1-14.6,3-2.9,1.6-5.2,2-7,1.3a4.2,4.2,0,0,1-3-4.8c.3-1.9,1.7-3.5,4.3-4.8h0c8.1-4,15.1-5.4,20.9-4.4a21.2,21.2,0,0,1,13.9,8.7,32.6,32.6,0,0,1,5.5,16,42.4,42.4,0,0,1-2.6,18.2h0a39.8,39.8,0,0,1-11.3,16.2,34.8,34.8,0,0,1-16.2,8,30,30,0,0,1-17.5-1.7c-5.6-2.4-10.4-6.8-14.2-13.1S.9,133.1.1,122.7A103.6,103.6,0,0,1,3.6,91.3a126.8,126.8,0,0,1,14-32.9A121.1,121.1,0,0,1,79.1,7.2h0A123,123,0,0,1,122.6,0c13.1.2,24.3,2.9,33.4,7.9a54.5,54.5,0,0,1,21.2,20.3,62.2,62.2,0,0,1,8.3,28c.7,9.8-.9,21-4.4,32.3-3,9.6-11.6,19.7-18.7,25.8-9.4,8.3-15.5,10.9-29.6,16.5M369.4,38.9l-10.8,66.8c-.1.4-.1.8-.2,1.2-1.3,8-2.6,15.9-4.1,23.4a233.7,233.7,0,0,1-6,23.6,224.1,224.1,0,0,1-12.1,30A139.5,139.5,0,0,1,319,211.1,80.4,80.4,0,0,1,296.3,231a55.9,55.9,0,0,1-28.5,7.5h-.1a47.1,47.1,0,0,1-18-3.8,50.6,50.6,0,0,1-14.9-10,49.9,49.9,0,0,1-11.6-16.5,48.2,48.2,0,0,1-4.1-16.6l-16-2.4h0c-10-1.7-36.4-5.4-49.3-6.4-10.6-.8-18.3-.8-25,.2s-13.2,3.6-17.9,7.8a27.8,27.8,0,0,0-4.9,5.9,16.1,16.1,0,0,0-2.8,7.3,11,11,0,0,0,.2,2.6,3.8,3.8,0,0,0,.9,1.5h.6a15.5,15.5,0,0,1,2.7,2.4,4.2,4.2,0,0,1,.4,4.8h-.2c-1.5,2.1-3.9,2.6-6.4,1.2a10.6,10.6,0,0,1-4.5-5h-.1a21.6,21.6,0,0,1-1.5-9,26.5,26.5,0,0,1,1.5-8.1,23.9,23.9,0,0,1,3.2-6.2h0a34.2,34.2,0,0,1,15.2-11.7,59.9,59.9,0,0,1,20.1-4,175.4,175.4,0,0,1,23.4,1.1c13.3,1.3,36.6,4.5,45.8,6.1l15,2.2a44.2,44.2,0,0,1,7-18.7,47.4,47.4,0,0,1,14.8-14.1A58.3,58.3,0,0,1,260,142a60.4,60.4,0,0,1,19.3-1.1,41.1,41.1,0,0,1,16.5,5.3,23.8,23.8,0,0,1,10.5,11.7h.1c1.9,5.1,1.9,9.8,0,13.8a25.1,25.1,0,0,1-9,9.7,60.2,60.2,0,0,1-13.3,6.2,101.6,101.6,0,0,1-14.1,3.7,113.5,113.5,0,0,1-11.4,1.7h0c-5.3.3-10.5.5-15.7.4a139,139,0,0,1-14.4-.8,38.9,38.9,0,0,0,3.1,11.7c3.6,8,8,14.1,13.2,17.9a31,31,0,0,0,16.7,6.3,38.5,38.5,0,0,0,18-3.6,54,54,0,0,0,17.3-12.4,99.7,99.7,0,0,0,13.6-18.7,168.9,168.9,0,0,0,10.3-22.4c2.8-7.8,5.3-15.6,7.3-23.2s3.3-13.9,4.5-20.1c.6-3.5,1.2-7.2,1.9-11-.6,1-1.3,1.8-1.9,2.7h0a25.7,25.7,0,0,1-8.9,7.1,16.9,16.9,0,0,1-11.8.6h0c-4.3-1.3-7.5-4.2-9.7-8.7a29.7,29.7,0,0,1-1.5-4.5,74,74,0,0,1-8.2,13.2,23.6,23.6,0,0,1-8.9,7.3,16.4,16.4,0,0,1-11.8.4,14.9,14.9,0,0,1-7.5-5,17.1,17.1,0,0,1-2.1-3.5l-1.8,3.7a42.6,42.6,0,0,1-5.5,7.6c-2.2,2.2-4.3,3.6-6.5,4a16.1,16.1,0,0,1-9-.7,16.3,16.3,0,0,1-7.5-6.2,28.7,28.7,0,0,1-4.3-11l-.9,1.9a74.7,74.7,0,0,1-10,16.6,24.4,24.4,0,0,1-8.9,7.3c-3.5,1.6-7.5,1.7-11.9.3s-7.6-4.2-9.7-8.7-2.7-10.4-1.8-17.8h0l8.9-53.5.4-1.8c1.9-11.1,6.3-34.4,7.7-39.4a56.6,56.6,0,0,1,5.6-13.4A31.4,31.4,0,0,1,217.9,4c6.9-4.4,13.2-5.2,18.6-2.3,2.8,1.5,5.1,5.2,6,9.6s1.2,15.1-3.5,25.8h0c-4.7,10.1-9,15-15.6,22.4l-4.2,4.7v.2l-2.9,3.2-9.8,58.8c-.5,4.1-.5,7.2,0,9.1a4.1,4.1,0,0,0,.4.9h.3c2.2-1.1,4.5-3.8,7-8a138.6,138.6,0,0,0,7.9-15.9c1.7-4,3.3-8,4.8-11.8,0-.2.1-.4.1-.6a91.2,91.2,0,0,1,2.2-11.6,58.5,58.5,0,0,1,4.5-11.9,32.7,32.7,0,0,1,7.2-9.5,21.6,21.6,0,0,1,10.6-5.2,23,23,0,0,1,11.1,0,16.7,16.7,0,0,1,4.9,2.2l.9-5.3,23-4.6-9.1,57.4v.6c-.5,3.7-.8,6-.5,8.2a1.2,1.2,0,0,0,.9,1,1.7,1.7,0,0,0,1.8-.2h0c1.8-1.3,2.6-2.8,4.3-5.7l1.2-2.1a133.8,133.8,0,0,0,7.6-15.6c2-5,4-9.9,5.7-14.4a.7.7,0,0,0,.1-.5l5.2-32,22.9-4.5L322,103.8c-.2.8-.3,1.4-.4,1.9a16.4,16.4,0,0,0-.2,4.9,1.9,1.9,0,0,0,3.1,1.6c1.5-1.4,2.4-3.1,3.9-6.2l1.5-3a128.2,128.2,0,0,0,7.8-19.7,240.4,240.4,0,0,0,6.2-25c1.6-10.1,2-12.7,2-13.2V43.5l1.8-.4ZM263.7,76.6a4.9,4.9,0,0,0-1.8-2.8,2.2,2.2,0,0,0-1.8-.3c-1.5.4-2.7,1.8-4.5,5.4a65.9,65.9,0,0,0-4.9,13.9,119.5,119.5,0,0,0-2.7,16.6h0a80.9,80.9,0,0,0-.4,13.4,3.3,3.3,0,0,0,.5,1.6,1.6,1.6,0,0,0,.9.6,1.9,1.9,0,0,0,1.8-.5,20.9,20.9,0,0,0,2.7-4.7c.9-2.1,1.8-4.2,2.7-6.5l.7-1.6c1.2-3.1,2.3-6.2,3.3-9.4s1.9-6.3,2.6-9.1c.8-5.3,1.3-9,1.4-11a17.2,17.2,0,0,0-.5-5.6M227.1,13.4c-3.6,9.4-6.9,27.1-8.8,39a105.2,105.2,0,0,0,6.3-8.6,51.8,51.8,0,0,0,7.7-17.1c1.3-6,1.6-8.2,1.4-12s-.6-4.1-1.5-5.2a2.2,2.2,0,0,0-2.5-.5c-.8.4-1.4,1.7-2.4,4.1Zm39.7,137a44.9,44.9,0,0,0-17.1,4.8,43.3,43.3,0,0,0-14.3,12,35.1,35.1,0,0,0-6.7,16.2,138.6,138.6,0,0,0,14.3.8,148.3,148.3,0,0,0,14.9-.4h.1a90.7,90.7,0,0,0,10.5-1.5,65.6,65.6,0,0,0,12.1-3.9,21,21,0,0,0,8.5-6.4c1.8-2.4,2.2-5.3,1.2-8.9a16.6,16.6,0,0,0-8.5-10,30.3,30.3,0,0,0-15-2.7"/> 
        </symbol>
    
  <symbol id="headingCommunity" viewBox="0 0 766.1 302.7">
    <title>Community</title>
      <desc>Community written in a cursive script</desc>
  <path class="cls-1" d="M765.6,4.3h0A5,5,0,0,0,763.4.7a5.5,5.5,0,0,0-3-.7,4.4,4.4,0,0,0-3,1.5,5,5,0,0,0-1,4.2h0c1,6.3.4,9.2-.7,14.1-2.5,10.4-10.5,18.2-21.5,21A135,135,0,0,1,703.9,45c-10.3.4-15.7.3-22,.3h-6.8l-5.4-.2h-4.3l.5-6,1-5.9h-.1l3-19.8-23,4.5L643,43l-5.1-.3-6.8-.4-7.5-.2h0c-6.1-.2-11.7-.4-18.9-.1h-3.5A161.7,161.7,0,0,0,579.6,44c-7.8,1.2-14,3.1-23.1,6.9-7.5,3.2-13.4,7.5-17.6,12.9s-6.3,12.2-5.8,20.3c.2,3.2.8,4.1,1,4.4a4.2,4.2,0,0,0,4.3,1.7,4.1,4.1,0,0,0,3.1-2.5,3.2,3.2,0,0,0,.2-2.4.4.4,0,0,0-.1-.3c0-.1-.1-.4-.1-.6a4.2,4.2,0,0,1-.1-1.3,16.1,16.1,0,0,1,4.8-11.6,39.7,39.7,0,0,1,14.1-9A98.2,98.2,0,0,1,580.5,57c8.5-1.5,16.6-1.5,27.1-1.3,7.2.1,17.7,1.3,25.4,2.2l7.5.9-3.3,20.3-1,5.6L634.6,95l-3.5,21.1a.8.8,0,0,1-.1.4c-1.6,4.2-3.4,8.8-5.4,13.5a144.2,144.2,0,0,1-7.6,15.7l-1.2,2c-1.7,3-2.5,4.5-4.3,5.6h0a2.2,2.2,0,0,1-1.6.1,1.4,1.4,0,0,1-1-.9,25.8,25.8,0,0,1,.3-7.1,11.1,11.1,0,0,1,.2-1.7l9.2-57.3-23,4.5-5,30.6c0,.2,0,.3-.1.4-1.8,5-4,10.3-6.3,15.9a119.2,119.2,0,0,1-7.5,15.8l-.4.7c-2.2,3.9-3.2,5.4-5.1,6.8a1.4,1.4,0,0,1-1.6.2,1.6,1.6,0,0,1-1.1-1c-.4-1.8,0-4.3.4-8v-.7l2-12.3c.1-.9.3-1.9.5-3s.8-4.8,1.2-7.5a80.8,80.8,0,0,0,.8-8.6,39.3,39.3,0,0,0-.5-8.5,19.2,19.2,0,0,0-2.8-7.5,12.5,12.5,0,0,0-6.5-4.9c-2.6-.9-6-1-10.1-.2a18.9,18.9,0,0,0-5.1,2,28.1,28.1,0,0,0-6.2,4.8,33.6,33.6,0,0,0-4.6,5.6l1.6-9.6-23.1,4.5-5.1,31.9c0,.2-.1.3-.1.4-1.7,4.6-3.7,9.5-5.8,14.6a127.7,127.7,0,0,1-7.7,15.7,19.6,19.6,0,0,1-1.2,2.1c-1.6,2.9-2.5,4.5-4.2,5.5a2.8,2.8,0,0,1-1.8.1,1.4,1.4,0,0,1-.8-.9c-.5-1.8-.1-4.5.4-8.2v-.5l9.2-57.3-21.3,4.2-1.8.3-2.6,16.7a218.7,218.7,0,0,1-6.2,24.2,132,132,0,0,1-7.6,18.9c-.8,1.5-1.3,2.8-1.9,3.9-1.2,2.6-1.9,4.2-3.5,5.2a2.1,2.1,0,0,1-1.7.2,1.4,1.4,0,0,1-1.1-1c-.4-1.3-.2-3.1.1-6l.3-1.9,9.5-57.3-23,4.5-5.2,32.4a.8.8,0,0,0-.1.4c-1.7,4.4-3.6,9.1-5.7,14a128.2,128.2,0,0,1-7.6,15.7l-1.3,2.4c-1.6,2.9-2.5,4.6-4.3,5.4a2.2,2.2,0,0,1-1.4,0,2.2,2.2,0,0,1-.9-.7c-.6-1.7-.1-5.6.3-8.9l2-12.4h0c.1-.8.3-1.7.5-2.8h0c.4-2.1.8-4.5,1.2-7.5a78.4,78.4,0,0,0,.8-8.6,47.4,47.4,0,0,0-.5-8.5,19.8,19.8,0,0,0-2.8-7.5,12.6,12.6,0,0,0-6.4-4.9,19.9,19.9,0,0,0-10.1-.2,18.8,18.8,0,0,0-5.2,2.1,25.1,25.1,0,0,0-6.3,4.8,40.7,40.7,0,0,0-6.2,8.2,35.5,35.5,0,0,0-2,3.9,18.9,18.9,0,0,0-2.4-6,12.3,12.3,0,0,0-6.5-5.1c-2.6-1-6.1-1.1-10.3-.3a24.9,24.9,0,0,0-5.1,2,30.6,30.6,0,0,0-6.2,4.8,44.4,44.4,0,0,0-4.6,5.6l1.6-9.6-23,4.5-5.2,32.4-.2.5c-1.6,4.3-3.5,9-5.6,14a144.2,144.2,0,0,1-7.6,15.7,4.1,4.1,0,0,0-.5.9c-2.2,3.7-3.3,5.8-5.6,6.8h-1.1c-.8-.3-1-.6-1-.9-.5-1.9-.2-4.3.5-8.5l2.1-12.5h0a15.1,15.1,0,0,1,.5-2.8h0c.3-2.1.7-4.5,1.2-7.5a80.8,80.8,0,0,0,.8-8.6,46.8,46.8,0,0,0-.5-8.5,19.2,19.2,0,0,0-2.8-7.5,12.9,12.9,0,0,0-6.5-4.9c-2.6-.9-6-1-10.1-.2a18.9,18.9,0,0,0-5.1,2,31,31,0,0,0-6.3,4.8,41.6,41.6,0,0,0-6.2,8.3,35.5,35.5,0,0,0-2,3.9,19.4,19.4,0,0,0-2.4-6.1,12.3,12.3,0,0,0-6.5-5.1c-2.6-.9-6.1-1-10.3-.2a18.9,18.9,0,0,0-5.1,2,28.1,28.1,0,0,0-6.2,4.8,33.6,33.6,0,0,0-4.6,5.6l1.6-9.6-23,4.5-5,30.9c0,.2-.1.3-.2.5a42.1,42.1,0,0,1-3.2,5.7,22.4,22.4,0,0,1-5.4,6.3,21.1,21.1,0,0,1-3.1,2.1,85.5,85.5,0,0,0,.2-8.7,67.4,67.4,0,0,0-1-10.8,29,29,0,0,0-2.8-7.8,19.7,19.7,0,0,0-5.1-6.3,20.2,20.2,0,0,0-7.7-3.6,24.7,24.7,0,0,0-10.1.2,21.3,21.3,0,0,0-9.9,4.8,33.1,33.1,0,0,0-7.4,8.7,46.9,46.9,0,0,0-5,11.4c-.5,1.7-1,3.5-1.4,5.3v.3l-.2.5h0a169.4,169.4,0,0,1-12,25.9,171.2,171.2,0,0,1-17,25.2,118.1,118.1,0,0,1-20,20,53.6,53.6,0,0,1-21,10.4c-8,1.5-14.8,1.2-20-1.2a27.4,27.4,0,0,1-12.6-11,54.5,54.5,0,0,1-6.6-17.9,92.6,92.6,0,0,1-1.5-21.2,118.3,118.3,0,0,1,2.6-20.5c4.1-17.5,9.4-32.7,15.9-45.4s13.6-23.2,20.9-31.5,14.2-14.6,20.7-18.7,11.5-6.5,15.4-7h0a14.9,14.9,0,0,1,6.8.3,9.1,9.1,0,0,1,2.2,1.1,137.7,137.7,0,0,0-19.2,16.2,171.3,171.3,0,0,0-19.8,23.4,128.8,128.8,0,0,0-14.4,26h0c-3.1,8.3-4.1,15.5-2.7,21.3s4.2,10.7,8.7,13.8a25.8,25.8,0,0,0,15.8,4.6,36.5,36.5,0,0,0,18-5.1,47.6,47.6,0,0,0,16.1-15.1h0a106.9,106.9,0,0,0,13.4-30.1,121.9,121.9,0,0,0,4.6-31.6c0-9.5-1.6-17.1-4.8-22.5a97.4,97.4,0,0,1,28.6-12.9c7.1-1.8,13.1-2.2,17.9-1.2s8.4,2.8,11,5.4a20.9,20.9,0,0,1,5.3,9,18.5,18.5,0,0,1,.4,9.3,10.1,10.1,0,0,1-3.5,6.1c-2.8,1.8-5.3,2.3-7.8,1.6s-3.9-2.6-4.8-5.8-.5-2.5-.3-2.9.1-.3,1.3-.7h.2a5.8,5.8,0,0,0,3.1-2.5,4.5,4.5,0,0,0,.4-3,3.6,3.6,0,0,0-2.7-2.9,6.8,6.8,0,0,0-4.7.6h-.1a10,10,0,0,0-5.2,6,14,14,0,0,0,0,8.1,15.2,15.2,0,0,0,4.8,7.5h.1a17.6,17.6,0,0,0,11.4,3.8h.1a27.1,27.1,0,0,0,12.6-3.2,19.9,19.9,0,0,0,9.2-9.6h0a22.4,22.4,0,0,0,1.7-9.6,22.1,22.1,0,0,0-2.8-9.9h-.1a30.9,30.9,0,0,0-13.5-12.9A39.9,39.9,0,0,0,171,93.7a79.6,79.6,0,0,0-19,2.9,150.6,150.6,0,0,0-18.2,6.5q-7.7,3.5-13.8,6.9a23.3,23.3,0,0,0-7.3-4,28.2,28.2,0,0,0-12.6-1h0a87.9,87.9,0,0,0-34.4,13.1,127.8,127.8,0,0,0-29.4,26.3,164.8,164.8,0,0,0-22.1,34.7A155,155,0,0,0,1.8,217.7a107.3,107.3,0,0,0-.2,37.9,83.5,83.5,0,0,0,8.1,24,46.1,46.1,0,0,0,14.1,15.8,42.4,42.4,0,0,0,20,7,57.4,57.4,0,0,0,6,.3,87,87,0,0,0,19.4-2.4,67.7,67.7,0,0,0,25.5-12.9A127.3,127.3,0,0,0,116.9,265a172.7,172.7,0,0,0,17-26.9l2.3-4.7a30.5,30.5,0,0,0,1.4,5.4,29.9,29.9,0,0,0,5.1,9.7,19.1,19.1,0,0,0,8.2,6.2,20.2,20.2,0,0,0,11.3.7,22,22,0,0,0,8.7-3.8,28,28,0,0,0,6.6-6.7,42.4,42.4,0,0,0,4.6-8.7,54.1,54.1,0,0,0,2.8-8.9,39.4,39.4,0,0,0,10.6-7.7l-4.9,30.3,22.9-4.5.4-1.3c.7-2.5,1.6-6.3,2.8-11.7s2.3-10.9,3.9-17.5,3.4-12.7,5.4-18.7a67.9,67.9,0,0,1,6.5-14.7l.3-.5c2-3.4,3.1-5,4.7-5.3h0a2.5,2.5,0,0,1,1.2.2,1.1,1.1,0,0,1,.6.6c.3.5.2,1.3.1,2.9a5.3,5.3,0,0,0-.1,1.3c-.3,2.7-.5,5-.9,6.8a1.3,1.3,0,0,0-.1.6l-3.6,22.4a18,18,0,0,0-.2,2.2l-4.7,29.6,21.1-4.2,1.8-.4.8-4.5c.5-2.3,1.2-5,1.9-8.3,1.1-5.3,2.5-11.2,4.1-17.6s3.3-12.7,5.3-18.7a73.3,73.3,0,0,1,6.4-14.7h.1c2.2-3.6,3.2-5.2,5-5.7a2.2,2.2,0,0,1,1.1.1,1.6,1.6,0,0,1,.6.6,5.4,5.4,0,0,1,.1,2.9c0,.4-.1.9-.1,1.4a48.8,48.8,0,0,1-.9,6.9v.4h.1l-3.6,22.4h-.1c-.8,7.4-.2,13.3,1.9,17.6s5.5,7.4,9.7,8.6a15.9,15.9,0,0,0,11.8-.4,23.8,23.8,0,0,0,8.8-7.2,68,68,0,0,0,4.7-6.8l-1.9,12.1,22.9-4.5.3-1.4c.7-2.4,1.6-6.2,2.8-11.6s2.4-11.1,3.9-17.5,3.4-12.8,5.4-18.7a65.7,65.7,0,0,1,6.5-14.7l.4-.6c1.9-3.2,2.6-4.4,4.3-5.3a3.4,3.4,0,0,1,1.7-.1,1.6,1.6,0,0,1,.8.8c.4.9.2,1.9-.2,4.3l-.3,2.4c-.3,1.7-.5,3.2-.8,4.4s-.1.5-.1.7l-3.6,22.3c-.1.9-.2,1.6-.2,2.2l-4.7,29.6,21.1-4.1,1.9-.4.7-4.6c.6-2.2,1.2-5,1.9-8.3,1.2-5.2,2.5-11.1,4.1-17.5s3.3-12.7,5.3-18.7a70.8,70.8,0,0,1,6.4-14.7h.1c2.2-3.7,3.3-5.3,5.2-5.7a1.8,1.8,0,0,1,1.1.1,1.2,1.2,0,0,1,.7.6c.4.8.4,1.2.1,3.1a3.8,3.8,0,0,1-.1,1,66.6,66.6,0,0,1-1.2,7v.4h0l-3.6,22.4h0c-.9,7.4-.2,13.4,1.9,17.7s5.4,7.4,9.6,8.6a16.9,16.9,0,0,0,11.8-.4,24.4,24.4,0,0,0,8.9-7.3,78.9,78.9,0,0,0,8.1-13.1,24.1,24.1,0,0,0,1.5,4.3q3.3,6.8,9.6,8.7a16.6,16.6,0,0,0,11.9-.5,23,23,0,0,0,8.8-7.2,70.5,70.5,0,0,0,6.6-10.8,22.6,22.6,0,0,0,2.2,4.7,14.8,14.8,0,0,0,8.4,6.4c4.4,1.2,8.4,1.1,11.8-.5a22.3,22.3,0,0,0,8.8-7.2,53.5,53.5,0,0,0,4.9-7.2l-2,12.4,22.9-4.4.3-1.4c.7-2.4,1.6-6.3,2.8-11.6s2.5-11,4-17.6,3.4-12.7,5.4-18.7a75.9,75.9,0,0,1,6.4-14.7c2.2-3.6,3.3-5.3,5.2-5.7a2,2,0,0,1,1.8.7c.5.9.6,2,.3,4.2s-.7,3.9-1,5.5l-.3,1.3c0,.2-.1.4-.1.6L548,149.1h0c-.8,7.4-.2,13.3,1.9,17.6a15.9,15.9,0,0,0,9.7,8.7,16.4,16.4,0,0,0,11.8-.5,23,23,0,0,0,8.8-7.2,76.9,76.9,0,0,0,8.5-13.8,16.6,16.6,0,0,0,1.6,4.9q3.3,6.8,9.6,8.7a16.6,16.6,0,0,0,11.9-.5,23.8,23.8,0,0,0,8.8-7.2,71.8,71.8,0,0,0,8.1-13,20.5,20.5,0,0,0,1.5,4.2q3.3,6.8,9.6,8.7h.1a17.5,17.5,0,0,0,9.3.4l2.5-.9a23.7,23.7,0,0,0,7.7-5.9l.2-.2.9-1h0l.7-.9a81.6,81.6,0,0,0,7.9-13,18.3,18.3,0,0,0,1.6,5c2.2,4.5,5.4,7.4,9.7,8.7h0c4.3,1.2,8.3,1.1,11.8-.5a24.6,24.6,0,0,0,8.8-7.2h.1l2.1-2.9c-.4,2-.8,3.9-1.1,5.9s-.7,3.5-1.1,5.3c-1.1,6.3-2.6,13-4.4,20.1l-.9,3.3c-1.7,6.7-3.7,14.3-5.9,21.5s-5.1,15.3-10.1,23.7c-7.5,13-12.2,18.2-18.6,23.7-12.7,10.9-25.2,18.1-41.7,24-9.7,3.5-17.2,3.7-28.5,3.1-6.1-.4-13.5-3-20.9-7.4a40.4,40.4,0,0,1-15.6-16.9,37.6,37.6,0,0,1-3.2-13.1,159.5,159.5,0,0,0,16.9.9c5.9.1,11.9,0,17.8-.4h.1a134,134,0,0,0,28.9-6.1,61.9,61.9,0,0,0,15.1-7.1,27.4,27.4,0,0,0,10.2-11c2.1-4.4,2.1-9.6,0-15.4h-.1A28.1,28.1,0,0,0,628.3,182a48.3,48.3,0,0,0-18.8-5.9,68.1,68.1,0,0,0-21.9,1.2,66,66,0,0,0-21.2,8.5,54.5,54.5,0,0,0-16.8,16,51.4,51.4,0,0,0-8,21.5l-3.7-.5-13.7-2c-27.3-4.5-86.4-9.9-134.9-1.9-9.1,1.5-18,3-26.1,5.4a67.2,67.2,0,0,0-21,10.1,39.1,39.1,0,0,0-13.4,17.1h0a30.7,30.7,0,0,0-1.6,7.6,33.4,33.4,0,0,0,.5,9.4,23.9,23.9,0,0,0,4.3,9.3h.1a11.9,11.9,0,0,0,6.2,4.2,5.8,5.8,0,0,0,1.8.2,4.7,4.7,0,0,0,4.6-3.1v-.2h.1a4.7,4.7,0,0,0-1.8-4.9,13.1,13.1,0,0,0-3.5-1.9h-.7a2.6,2.6,0,0,1-1.6-1.5,17.2,17.2,0,0,1-1.1-2.9,20.6,20.6,0,0,1,1-9.1,39.8,39.8,0,0,1,3.9-8q6.2-9,17.7-13.8c7.3-3.1,16.1-5.4,27.6-7.3,13.9-2.4,37-3.8,61.9-3.8h.5c28,0,54.2,1.8,74,5l15.7,2.3,2.8.4a55.7,55.7,0,0,0,4.6,19.2A51.3,51.3,0,0,0,558.4,270c4.2,4.1,9.9,7.6,17.7,11a60.2,60.2,0,0,0,24.9,5,105.9,105.9,0,0,0,39.5-7.6,130.5,130.5,0,0,0,25.3-13.5A104.9,104.9,0,0,0,690,242.1c7.6-9.7,10.9-14.5,16.6-26.3A135.7,135.7,0,0,0,717,185.4c1.2-5.4,2.7-13.6,4-20.7.7-3.8,1.4-7.4,1.9-10,1.5-7.6,2.8-15.4,4.1-23.5a6,6,0,0,1,.2-1.2L738,63.2l-21.6,4.2-1.8.4v1.7c0,.3-.3,2.6-2,13.1a240.4,240.4,0,0,1-6.2,25c-.2.7-.5,1.4-.7,2.1-2.1,6.9-4,12.9-6.4,17.6l-.9,1.7c-2.1,4.1-3.2,6.4-5.1,7.8a2.7,2.7,0,0,1-2,.3,1.4,1.4,0,0,1-.9-.8c-.4-1.3-.2-3.1.2-5.7q.2-1,.3-2.4l9.1-57.5-23,4.5-4.4,27.9-.4,2.3c0,.2-.1.3-.1.4l-2.6,6.7c-1.2,3.2-2.5,6.4-3.9,9.7a128,128,0,0,1-7.3,15.8l-1.2,2.1c-1.6,2.8-2.3,4.1-4.1,5.4a2.1,2.1,0,0,1-1.8.3.9.9,0,0,1-.8-.6,2,2,0,0,1-.4-.8c-.3-2-.1-4.3.4-8.4l7.9-49.2,4.4-27.3h21.2a238.9,238.9,0,0,0,33.9-2.1c10.7-1.7,21.3-4.6,27-7.6,13.9-7.2,18-19.2,19.9-27.6C766,16.2,766.7,12.1,765.6,4.3ZM160.2,204a70.7,70.7,0,0,1,2.5-8.1,5.6,5.6,0,0,1,.4-1.2,44.2,44.2,0,0,1,2.1-5.1c.9-1.5,1.5-1.6,2.2-1.5s.9.4,1,.8a24.1,24.1,0,0,1,.8,6.5c.1,2.8.1,6.4-.1,10.4s-.3,5.9-.7,8.9a15.2,15.2,0,0,1-5.7-3.7,8.7,8.7,0,0,1-2.6-6.6h0A.6.6,0,0,1,160.2,204Zm5.5,26.1c-.5,1.9-1,3.7-1.6,5.3a3.6,3.6,0,0,0-.4,1.1,15.6,15.6,0,0,1-2,4.1c-.8,1.2-1.3,1.5-1.9,1.6a2.5,2.5,0,0,1-1.6-.6c-.5-.7-.7-2-1-3.9h0a54.7,54.7,0,0,1-.4-7.5c0-1.4.1-2.9.1-4.4A21.5,21.5,0,0,0,165.7,230.1ZM71.8,196.8h0c1.6-8.2,5.6-18.4,11.9-30.4a152,152,0,0,1,15-23.8,112.9,112.9,0,0,1,16.4-17.4,37.9,37.9,0,0,1,.4,10.8,119.7,119.7,0,0,1-2.8,17.3q-2.1,8.8-4.5,15.9c-1.6,4.6-2.9,8-3.7,10-4.2,9.3-8.5,16.6-12.8,21.8s-8.2,8.4-11.6,10-5.2,1.4-6.8.3S70.4,204.3,71.8,196.8Zm540.8-7.4a19.7,19.7,0,0,1,9.9,11.6c1.1,4.2.7,7.6-1.5,10.4a25.2,25.2,0,0,1-9.8,7.4,69.5,69.5,0,0,1-13.8,4.5,104.7,104.7,0,0,1-12.1,1.7h-.1a162,162,0,0,1-17.1.5c-5.5-.1-11.1-.4-16.6-1a40,40,0,0,1,7.8-18.9,48.3,48.3,0,0,1,16.4-13.8,50.7,50.7,0,0,1,19.6-5.5A34.6,34.6,0,0,1,612.6,189.4ZM603.5,82.2a11.2,11.2,0,0,0,6.5,2.1h0l2.4-.3a11.5,11.5,0,0,0,7.4-4.9,11.9,11.9,0,0,0,1.7-8.8,11.5,11.5,0,0,0-4.9-7.4,10.9,10.9,0,0,0-8.7-1.9,11.5,11.5,0,0,0-7.6,5,11.9,11.9,0,0,0-1.7,8.8A11.5,11.5,0,0,0,603.5,82.2Z"/>
    </symbol>
    
    <symbol id="headingHope" viewBox="0 0 389 241.9">
    <title>Hope</title>
        <desc>Hope written in a cursive script</desc>
  <path class="cls-1" d="M368.1,184.6a36.6,36.6,0,0,0-13.2-15,66.1,66.1,0,0,0-24.2-10.5c-8.4-1.6-18.6-1.6-30.4-.1a209,209,0,0,0-32.8,7.3l2.3-14.7,1.1.8a18,18,0,0,0,7.2,2.4,31.6,31.6,0,0,0,10.3-.6,21.6,21.6,0,0,0,8.6-3.8,28.5,28.5,0,0,0,6.6-6.8,45.1,45.1,0,0,0,4.7-8.7c.7-1.9,1.5-4.3,2.3-7.1s1.5-5.8,2.1-9.1a89.8,89.8,0,0,0,1.5-10.4,77.2,77.2,0,0,0,.4-10.7,49.4,49.4,0,0,0-1.3-9.9,23.4,23.4,0,0,0-3.7-8.3,15.3,15.3,0,0,0-6.9-5.1,19,19,0,0,0-10.2-.4c-2.3.5-5,2-8.3,4.6l-3.1,2.8.8-5.3-23,4.5-.3,1.6-4.8,30.3c0,.2-.1.4-.1.6s-1.7,3-2.7,4.6a22.6,22.6,0,0,1-5.4,6.3,21.1,21.1,0,0,1-3.1,2.1,82.9,82.9,0,0,0,.2-8.6,57.3,57.3,0,0,0-1.1-10.9,25.8,25.8,0,0,0-2.7-7.8,22.5,22.5,0,0,0-5.2-6.3,17.6,17.6,0,0,0-7.7-3.5,24.1,24.1,0,0,0-10,.1,21.7,21.7,0,0,0-10,4.8,33.9,33.9,0,0,0-7.4,8.8,53.8,53.8,0,0,0-5,11.4,75.2,75.2,0,0,0-2.6,12.7,69.7,69.7,0,0,0-.3,12.9,53.6,53.6,0,0,0,2.4,11.8,30.6,30.6,0,0,0,5,9.7,19.2,19.2,0,0,0,8.3,6.2,20.2,20.2,0,0,0,11.3.7,21.9,21.9,0,0,0,8.7-3.7,26.4,26.4,0,0,0,6.5-6.8,36.3,36.3,0,0,0,4.7-8.7,61.6,61.6,0,0,0,2.8-8.9,38.4,38.4,0,0,0,10.3-7.4c-2.6,16.6-4.4,28.7-6.2,39.5a.9.9,0,0,1-.1.5c-10.1,3.7-18.5,8.2-25,13.5a43.2,43.2,0,0,0-12.1,15.7q-.9,2-1.8,4.2l-9.8-1.6a21.9,21.9,0,0,1-13.3-8.1,54.3,54.3,0,0,1-8.8-17.7,111.9,111.9,0,0,1-4.3-22.9,150.1,150.1,0,0,1-.5-22.1,39.4,39.4,0,0,0,13.5-9.6c4-4.4,6.1-10,6.3-16.7l.2-5.3-3.9,3.6a52,52,0,0,1-14.1,8.8q1.6-12.7,4.8-27A269.1,269.1,0,0,1,184.9,55a172.4,172.4,0,0,1,13.2-29.1c5.1-8.6,10.9-15.7,17.4-21l6-4.9-7.7.9a56.9,56.9,0,0,0-15,4.2,48.7,48.7,0,0,0-14.5,10.7c-4.7,4.8-9.5,11.5-14.3,20h0c-6.2,11.5-11.5,25.4-15.8,41.3a330.5,330.5,0,0,0-8.6,45.1l-9.1,2.1-9.4,2.4c2.5-18.4,2.2-35.6-.9-51.2h0c-2.7-12.7-6.9-22.6-12.6-29.4S101,34.7,93.2,32.9a50.4,50.4,0,0,0-23.8.1,89.3,89.3,0,0,0-23.9,9.8A105.8,105.8,0,0,0,24.8,59,83.2,83.2,0,0,0,10.3,78.1a96.1,96.1,0,0,0-9.2,27.2,70.4,70.4,0,0,0,0,25.1c1.6,7.8,4.5,14.3,8.8,19.4a26.8,26.8,0,0,0,17.2,9.3c7,1,15.1-.7,24.2-5.1a52.7,52.7,0,0,0,16.6-13.2,45.5,45.5,0,0,0,9.8-19A36.8,36.8,0,0,0,76,99.9v-.2c-1.7-3.1-3.8-3.5-5-3.5a6.1,6.1,0,0,0-4.6,2.6,6.5,6.5,0,0,0-.9,5.5h0v.2a29.1,29.1,0,0,1,1.7,15.8,33,33,0,0,1-6.4,14.1,34,34,0,0,1-11.6,9.8c-4.5,2.3-8.4,3-11.5,2.1a12.7,12.7,0,0,1-7.3-6.5,35.8,35.8,0,0,1-4.2-13.4,79.2,79.2,0,0,1-.5-17.7,86.6,86.6,0,0,1,6.4-27A75.4,75.4,0,0,1,46.6,58.9a60,60,0,0,1,21.8-15C74,41.7,79.3,41,84.2,42s9,3.6,12.7,7.9,6.7,11.1,8.7,19.7a121.6,121.6,0,0,1,2.5,30.4,188,188,0,0,1-4.1,33.3,131.9,131.9,0,0,0-48.9,31.2,80,80,0,0,0-15,20.3h0a62.4,62.4,0,0,0-5.3,17.1,40.4,40.4,0,0,0,.3,15.6A19.8,19.8,0,0,0,42.2,229a16.2,16.2,0,0,0,10.2,3.3,32.9,32.9,0,0,0,4.2-.4c8.4-1.7,16.1-5.4,24.4-11.7a92.1,92.1,0,0,0,19.4-20.8,136.4,136.4,0,0,0,14.5-27,184.9,184.9,0,0,0,9.2-29l12.4-2.2,7.7-1.3a164.8,164.8,0,0,0,.6,19.9,94.9,94.9,0,0,0,4.4,21.2,52.7,52.7,0,0,0,9.3,17.2,31.9,31.9,0,0,0,15.4,10.3c6.1,2,13.5,2,21.9.2l9.5-2.2a42.6,42.6,0,0,0-2.3,14.1,23.4,23.4,0,0,0,4.6,13.3,18.9,18.9,0,0,0,11.1,7.4,16.1,16.1,0,0,0,4.4.6,25.3,25.3,0,0,0,10.8-2.7h0a43.9,43.9,0,0,0,14.6-11.4,56.9,56.9,0,0,0,8.8-15.1,148.5,148.5,0,0,0,5.8-19.5l.2-1.1c1-4.6,2.1-9.7,2.8-14.1a275.9,275.9,0,0,1,30-7.9c11.3-2.1,20.5-2.7,27.5-1.8s14.8,3.9,18.6,7.1a25.2,25.2,0,0,1,8,11.7,24.4,24.4,0,0,1,.7,12.8,18.4,18.4,0,0,1-6,10.1c-3.1,2.7-7.3,4-12.4,4a13.2,13.2,0,0,1-7.2-2.1,21.5,21.5,0,0,1-9.3-13.3h0a17.9,17.9,0,0,1-.5-5,6.6,6.6,0,0,1,.1-1.4,10.5,10.5,0,0,0,2.9,2.3,9,9,0,0,0,6.2.8,8.7,8.7,0,0,0,4.9-3.2,7.6,7.6,0,0,0,1.2-6.3,9,9,0,0,0-3.7-6,10.9,10.9,0,0,0-6.3-2.2,11.5,11.5,0,0,0-6.9,1.7,14.1,14.1,0,0,0-5.5,5.8,22.5,22.5,0,0,0-2.1,9.7h0c.2,7.7,3.2,14.8,8.7,21h0a29.4,29.4,0,0,0,15.5,9.1,32.4,32.4,0,0,0,16.6-1,36.5,36.5,0,0,0,14.1-8.6,29.5,29.5,0,0,0,8.3-13.8,25.6,25.6,0,0,0-1.4-16.9ZM99.9,149.4a214.5,214.5,0,0,1-11.7,31,167.2,167.2,0,0,1-18.5,31c-3.6,4.2-7.2,7.3-10.7,8.9s-6.3,2-7.4,1.7-4.2-3.2-5.1-6.9-.6-9.2,1-15.1a64.7,64.7,0,0,1,9.1-19.1A75.2,75.2,0,0,1,75,162.3a97.1,97.1,0,0,1,24.9-12.9m173.4-20c.4-2,1.1-5.2,2.1-9.3s2.5-9.1,4.2-13.9a58.8,58.8,0,0,1,5.7-12.3c1.7-2.6,3-4.2,4.6-4.8h.6a1.6,1.6,0,0,1,1.4.8,2.5,2.5,0,0,1,.4.9c.5,1.4.5,3.7.4,6.8,0,1.1-.1,2.3-.1,3.7s-.3,4-.7,7.6-1.3,7.5-2.3,11.9a127.2,127.2,0,0,1-3.8,12.3,28.9,28.9,0,0,1-4.9,8.7,4.3,4.3,0,0,1-4.5,1.7c-1.2-.5-2.1-1.8-2.8-3.8a21.3,21.3,0,0,1-.3-9.6v-.6Zm-54.4-23.2a20.6,20.6,0,0,1,1.5-3.6,5.8,5.8,0,0,1,1.2-1.4,1.6,1.6,0,0,1,1-.5h.1a1.2,1.2,0,0,1,1,.6l.4.5a16.9,16.9,0,0,1,.6,5.1,4.9,4.9,0,0,0,.1,1.2c.1,3-.1,6.6-.2,10.3s-.4,5.9-.7,8.9a15.2,15.2,0,0,1-5.7-3.7,8.3,8.3,0,0,1-2.6-6.6.8.8,0,0,1,.1-.4,71.2,71.2,0,0,1,2.4-8.1c.3-.8.6-1.6.8-2.3m-5.6,48c-.5-.7-.7-2-.9-4.1a51.7,51.7,0,0,1-.1-5.7v-1.7c0-1.4,0-2.8.1-4.4a20.9,20.9,0,0,0,8.8,4.4,55.2,55.2,0,0,1-1.7,5.3c-.1.4-.3.8-.4,1.2a12.4,12.4,0,0,1-1.9,4,3.6,3.6,0,0,1-2.2,1.6,2.2,2.2,0,0,1-1.7-.6M242.2,185c-.4,2.5-1.1,6.5-2,10.9a198.9,198.9,0,0,1-5.7,20.8c-1.9,5.1-4.1,9.1-6.6,11.8s-4.7,4.1-6.8,4.6a4.4,4.4,0,0,1-4.4-1c-1.2-1.2-1.9-3.3-1.8-6.2s.6-10.7,3.2-16l.6-1.3h0A42.4,42.4,0,0,1,229.1,194a54.6,54.6,0,0,1,13.1-9m143-108.8h-1.4A4,4,0,0,0,382,78h0a.1.1,0,0,0-.1.1l-.3.7c-.7,2.1-1.7,4.8-2.6,7.4s-1,2.6-1.4,3.8c-1.4,3.9-2.9,8-4.8,12.4a8.8,8.8,0,0,0-.5,1.5c-1,2.4-2.3,5.4-4.1,8.9a55.8,55.8,0,0,1-6.4,10.2,15,15,0,0,1-7.8,5.3,8.7,8.7,0,0,1-7.7-1.6,11.6,11.6,0,0,1-2.9-6.4,39,39,0,0,1-.4-9.7c.1-1.6.2-3,.4-4.4a9.1,9.1,0,0,0,5.9,1.4,18.8,18.8,0,0,0,10.1-4.6,32.1,32.1,0,0,0,8.1-10,27.4,27.4,0,0,0,3.4-12.7,18.6,18.6,0,0,0-4.6-12.8,14.3,14.3,0,0,0-8.3-4.9,27.6,27.6,0,0,0-11.8.1,21.8,21.8,0,0,0-8.9,4,28.4,28.4,0,0,0-6.7,7.1,46.8,46.8,0,0,0-4.7,9.2,81.5,81.5,0,0,0-4.4,20.5,74.1,74.1,0,0,0,.8,21.2h0c1.4,6.5,4.1,11.3,8,14.1a19.5,19.5,0,0,0,12.1,3.9h.7a38.7,38.7,0,0,0,13.8-2.9,31.4,31.4,0,0,0,10.9-7.2h0a67.9,67.9,0,0,0,10.1-16.4,146.8,146.8,0,0,0,6.7-18.4c1.5-5.3,2.5-9.3,3.6-13.6a31.1,31.1,0,0,0,.8-4.3,3.8,3.8,0,0,0-3.8-3.7M345,96.1h0c.4-2,.9-3.6,1.6-6l.3-.9a67.8,67.8,0,0,1,3.1-8.3,16.1,16.1,0,0,1,3.8-5.5c1.4-1.2,2.6-1.7,3.5-1.4a4.8,4.8,0,0,1,2.4,3,14.4,14.4,0,0,1,.3,7.3,25.6,25.6,0,0,1-4,9.6,12.6,12.6,0,0,1-5.2,4.4,7.2,7.2,0,0,1-4.6.7c-.8-.2-1.2-.5-1.3-1.7s.1-.9.1-1.1"/>
    </symbol>
</svg>
