<?xml version="1.0" encoding="UTF-8"?>
<svg width="216px" height="232px" viewBox="0 0 216 232" version="1.1" xmlns="http://www.w3.org/2000/svg" xmlns:xlink="http://www.w3.org/1999/xlink">
    <!-- Generator: Sketch 47.1 (45422) - http://www.bohemiancoding.com/sketch -->
    <title>homeHeaderPawPaw</title>
    <desc>Created with Sketch.</desc>
    <defs></defs>
    <g id="Symbols" stroke="none" stroke-width="1" fill="none" fill-rule="evenodd">
        <g id="homeHeaderPawPaw">
            <g id="Page-1" transform="translate(108.000000, 116.000000) scale(-1, 1) translate(-108.000000, -116.000000) ">
                <g id="Group-3" transform="translate(126.000000, 75.125000)" fill="#CE7046">
                    <path d="M15.2209,41.5069 C10.6119,44.0669 5.8819,46.2739 2.6599,50.5979 C-1.4991,56.1819 3.1139,64.5979 4.5859,70.2779 C5.6339,74.3179 5.6049,78.8969 6.2489,83.0299 C7.0529,88.1779 7.5399,93.4309 8.2019,98.6409 C9.3769,107.8979 9.7409,117.3839 11.7259,126.5519 C12.7339,131.2059 13.1469,136.3979 15.2759,140.7029 C16.3029,142.7799 17.9199,144.3239 19.3799,146.1089 C21.1659,148.2909 23.3679,150.2639 26.0179,151.3629 C27.0809,151.8049 28.6179,152.6959 29.7039,153.0769 C30.7669,153.4489 30.9119,153.2899 31.6859,153.8269 C33.7379,155.2509 36.5069,155.2799 38.9099,154.4419 C39.7649,154.1439 40.8219,153.6309 41.5269,153.5199 C42.5659,153.3559 43.1319,153.5329 44.2309,153.1929 C46.7989,152.3969 49.3599,148.7719 50.9279,146.7719 C53.9899,142.8679 57.8859,135.9729 58.7209,131.0909 C61.7599,113.3289 59.1999,95.7949 50.5439,80.0539 C46.8329,73.3049 42.0679,65.6039 37.9819,59.0979 C36.2689,56.3709 36.1869,54.3139 34.7639,51.4009 C33.7519,49.3279 33.2199,47.9019 31.8949,46.0389 C29.4309,42.5749 26.0759,40.9319 16.6909,41.0039 C16.8819,40.5089 16.0689,41.0359 15.2209,41.5069 M21.4839,3.4909 C29.3999,-0.2011 32.8179,-0.3931 36.1249,0.9919 C37.9039,1.7369 38.8589,2.4949 40.4469,3.5029 C42.6789,4.9199 43.4749,6.2779 45.8879,7.4579 C51.6419,10.2689 58.3929,13.6249 63.9169,16.7469 C76.7989,24.0279 85.1579,34.8879 88.8589,48.0749 C89.8759,51.6999 89.0149,57.8739 87.8029,61.7019 C87.1819,63.6619 86.2959,67.1069 84.4039,68.6419 C83.5949,69.2989 83.0529,69.3989 82.2319,69.9129 C81.6739,70.2619 80.9609,71.0179 80.3429,71.5519 C78.6069,73.0509 76.2529,74.1069 74.0139,73.9409 C73.1699,73.8789 73.1029,74.0429 72.0729,74.2029 C71.0189,74.3669 69.4039,74.3609 68.3479,74.4759 C65.7179,74.7609 63.1589,74.2819 60.8759,73.4999 C59.0109,72.8609 57.0969,72.4449 55.4939,71.4399 C52.1729,69.3559 49.9909,66.0059 47.4929,63.2509 C42.5759,57.8239 38.9189,51.5519 34.6559,45.7509 C32.2559,42.4859 29.9889,39.1239 27.4909,35.9559 C25.4849,33.4109 23.8929,30.3039 21.5799,27.9799 C18.3269,24.7119 11.4529,20.8139 12.9999,15.4239 C14.1999,11.2499 17.4219,7.9219 20.4169,4.4019 C20.9689,3.7539 21.4699,3.0829 21.4839,3.4909" id="Fill-1"></path>
                </g>
                <path d="M145.8577,78.0489 C145.2637,77.8349 144.7857,77.7329 144.3637,77.7179 C140.8047,74.0499 137.5837,67.1109 135.0697,64.4269 C130.1257,59.1489 125.0187,54.9699 118.3507,52.1769 C114.8357,50.7049 112.2217,49.9029 108.9547,52.6299 C109.5597,53.4999 110.6967,54.1779 111.9867,54.7539 C113.1157,58.1489 117.3587,62.4609 118.7957,64.6939 C121.9137,69.5349 124.9207,74.8829 126.7117,80.0909 C128.3797,84.9459 129.4157,90.0759 130.8007,94.9129 C132.1937,99.7739 134.2127,104.6049 134.7397,109.6939 C134.8427,110.6919 134.7827,112.1179 134.8827,113.5139 C133.8897,114.1429 133.1267,116.2949 133.6097,117.9079 C134.2377,120.0069 135.4287,121.3879 137.5067,121.7289 C139.8117,122.1079 141.9577,121.9189 143.2837,119.7459 C144.4167,117.8899 142.7027,116.1799 141.4227,114.5629 C141.1477,114.2129 140.8907,113.9409 140.6447,113.7199 C139.5057,110.9099 137.6637,108.1739 137.0687,105.1299 C135.8797,99.0499 134.7007,92.2359 132.7047,86.3959 C129.6397,77.4299 125.8557,68.1269 120.6697,60.1409 C120.1967,59.4139 119.6767,58.5589 119.1057,57.6789 C122.0417,59.2119 124.4917,60.9859 127.1817,63.0929 C132.5227,67.2779 138.2317,72.1839 141.2377,78.2959 C141.3257,78.4739 141.4347,78.6729 141.5597,78.8819 C141.2807,79.0629 140.9817,79.2519 140.6337,79.4549 C139.3337,79.6439 139.1767,82.1899 140.4277,83.3439 C141.7017,84.5189 143.1957,84.9899 145.0757,84.4139 C147.1587,83.7759 148.9077,82.8149 149.2617,80.8309 C149.5657,79.1359 147.5107,78.6459 145.8577,78.0489" id="Fill-4" fill="#475727"></path>
                <path d="M64.1145,123.3502 C63.9165,123.4282 63.7025,123.4942 63.4695,123.5462 C63.6875,123.4832 63.9025,123.4172 64.1145,123.3502" id="Fill-6" fill="#526A32"></path>
                <path d="M117.1936,93.6514 C114.2976,89.4274 111.6216,84.7594 107.2046,81.9864 C107.1726,81.9764 107.1126,81.9404 107.0126,81.8654 C107.0776,81.9054 107.1406,81.9464 107.2046,81.9864 C107.3356,82.0264 107.0016,81.6214 106.8316,81.4034 C108.6726,80.0594 108.5076,77.8194 109.8626,76.1404 C113.9196,71.1094 115.0016,78.9444 114.8056,82.0344 C114.6636,84.2814 113.9556,85.8334 114.6126,88.1434 C115.1596,90.0654 116.6036,91.7554 117.1936,93.6514 L117.1936,93.6514 Z M128.6216,68.2204 C128.4646,68.1344 128.3186,68.0434 128.1796,67.9504 C126.9506,67.9694 124.3846,67.2404 123.6786,66.7714 C121.3456,65.2234 123.2436,64.3684 124.7926,63.1744 C125.9406,64.8594 126.3306,66.7094 128.1796,67.9504 C128.3346,67.9474 128.4686,67.9344 128.5746,67.9064 L128.6216,68.2204 Z M100.6466,76.8604 L101.3226,77.0824 C97.4946,76.3664 97.5706,69.7444 101.5126,72.2334 C101.1946,73.6544 101.3526,76.8664 100.6466,76.8604 L100.6466,76.8604 Z M124.1806,43.6434 L124.4026,42.9674 C123.2866,44.8904 123.0216,43.4584 121.7576,43.5054 C120.6526,43.5454 120.0176,44.0514 118.7306,43.7974 C117.1556,43.4854 117.2006,43.7304 117.2926,42.1714 C117.3546,41.1104 117.8256,40.1184 118.9526,39.8114 C120.6036,41.1794 122.6096,41.8954 124.5276,42.8164 C124.5886,43.2304 124.3846,43.3204 124.1806,43.6434 L124.1806,43.6434 Z M79.6296,79.2384 C78.6456,79.7734 75.3286,81.2764 75.1256,81.4414 C74.9316,78.4434 75.3536,74.1124 78.2206,73.0354 C79.8086,72.4394 81.9086,73.6394 82.2766,75.4004 C82.6246,77.0664 80.8646,78.5674 79.6296,79.2384 L79.6296,79.2384 Z M76.5026,69.0224 L76.2336,69.3824 C76.2676,68.0564 76.0456,62.4224 78.6196,63.3354 C81.4296,64.3324 77.0916,68.5274 76.5026,69.0224 L76.5026,69.0224 Z M65.4666,52.9734 C65.4706,53.0764 65.4786,53.1814 65.4946,53.2914 L65.0876,52.7094 C65.2146,52.8154 65.3406,52.9024 65.4666,52.9734 C65.3906,50.8004 68.1026,50.2914 69.8026,50.1464 C68.8046,51.5694 67.2476,53.9794 65.4666,52.9734 L65.4666,52.9734 Z M58.5026,61.9734 C56.3976,64.3564 54.0406,63.0744 51.2446,63.4374 C53.5396,62.4264 54.3526,59.7254 54.8316,57.7544 C55.1546,56.4244 57.2976,50.8824 59.3306,53.2394 C58.6066,54.1484 56.5476,54.2534 57.4476,55.7684 C56.9446,56.7824 56.0336,57.4784 55.3586,58.3264 C56.5896,59.1004 57.4796,57.8034 58.6736,58.8014 C59.9796,59.8924 59.3446,61.0204 58.5026,61.9734 L58.5026,61.9734 Z M37.1576,69.1454 C36.4946,69.9274 33.2796,68.7214 32.0906,68.7014 C32.0926,68.7444 32.0986,68.7904 32.1136,68.8394 L31.9326,68.7054 C31.9796,68.7004 32.0336,68.7004 32.0906,68.7014 C32.0816,68.4734 32.1966,68.3204 31.8946,68.0684 C32.8466,66.6214 33.9626,64.7724 35.6576,64.4434 C35.9926,65.2414 37.7266,68.4754 37.1576,69.1454 L37.1576,69.1454 Z M174.6196,136.0394 C174.1666,133.7754 172.5396,131.7924 171.8876,129.5314 C170.9666,126.3374 170.6526,122.9734 171.1626,119.7454 C171.7086,116.2904 172.3256,112.9194 168.9366,111.0264 C166.3946,109.6054 163.9286,109.1064 161.5856,107.2104 C161.8876,104.8044 162.7936,106.3904 163.7866,106.3874 C165.5146,106.3824 166.5036,105.8024 168.1336,105.5444 C171.3646,105.0344 173.1066,107.6414 174.3056,110.0444 C177.0446,107.7354 172.7856,99.5474 171.2806,97.3494 C169.6456,94.9604 167.1086,92.8684 164.6456,91.3414 C162.4726,89.9944 161.8386,90.6174 159.6066,90.8114 C157.9096,90.9584 157.4176,90.0374 155.9696,89.8364 C154.3636,89.6134 152.4166,90.4114 150.7396,90.5074 C147.8836,90.6714 141.3566,89.2644 145.2336,85.4164 C144.0136,85.1024 143.6676,84.5004 144.5126,83.7314 C145.5746,82.7674 147.8696,83.9944 148.8406,84.3444 C150.6006,84.9784 155.3856,86.3374 156.1316,83.6474 C157.4686,84.1874 158.7526,84.0624 160.1546,84.2824 C162.2356,84.6094 163.8236,85.5874 165.6006,86.6644 C166.5946,85.0354 161.9296,81.5004 160.8976,80.2114 C158.0146,76.6084 154.6446,73.6324 150.2196,71.9224 C148.8726,71.4014 146.8946,70.7614 145.4746,70.7754 C144.1556,70.7884 142.6546,71.8924 141.2746,71.2544 C139.6936,70.5214 140.3076,68.2954 140.0896,66.3704 C139.7136,63.0484 141.3916,62.4374 143.9826,64.5024 C145.1396,65.4244 146.6556,69.3054 147.9226,69.4724 C148.6206,69.5654 149.3606,68.2764 150.1366,68.0104 C150.9856,67.7194 151.8196,67.9424 152.6766,68.1524 C155.7506,68.9094 158.3266,70.7734 161.5166,71.0814 C166.8826,71.6004 172.1586,71.4404 177.4226,73.0014 C176.5806,71.0934 174.6106,69.3264 173.4256,67.4514 C171.6156,64.5864 170.0606,61.8024 167.7866,59.1974 C165.8856,57.0204 164.0236,55.9724 163.4956,53.2204 C163.0526,50.9204 163.3736,48.3554 166.4896,48.4094 C163.7346,46.5294 161.7946,45.8404 158.3226,45.9044 C154.4726,45.9754 152.0476,47.3084 149.0936,49.6084 C147.1996,51.0824 143.4096,52.7764 140.9386,52.6644 C133.8746,52.3434 139.6496,45.6474 137.5726,42.3074 C140.9766,43.7804 144.5786,39.9244 147.8036,39.8944 C148.8526,39.8844 149.7046,40.4134 150.7316,40.4094 C151.5986,40.4054 152.2696,39.9624 153.2526,40.0164 C155.1456,40.1194 159.5866,40.7614 161.1916,41.6624 C161.9566,39.4254 160.2566,37.2624 158.3586,36.0964 C156.8196,35.1514 155.5456,34.9844 154.2506,33.7264 C153.2386,32.7424 152.7126,31.2504 151.7166,30.3144 C149.4076,28.1394 145.5496,27.5054 142.6916,28.2364 C139.3506,29.0914 137.1896,29.3114 133.6256,28.3034 C134.4066,28.4194 135.1926,28.5894 135.9356,28.8034 C136.2376,28.2614 136.8326,27.6074 137.0466,27.0334 C137.2616,26.4574 136.7116,25.7794 136.9606,25.2754 C137.6386,23.8994 139.0466,23.5714 140.3186,22.8784 C137.9706,22.3764 135.5176,21.6234 133.1296,21.3714 C129.1476,20.9534 122.8656,22.2784 119.6446,24.9374 C117.6166,26.6114 116.2616,28.4894 113.7586,29.6184 C111.7266,30.5344 109.6466,31.0414 107.7456,32.2004 C108.9876,30.6524 109.0856,29.6254 109.4446,27.7494 C108.5056,28.1644 107.5756,28.3654 106.6716,28.6974 C108.3876,27.6324 109.7166,25.8674 111.9846,25.3434 C114.1346,24.8464 117.1806,25.1534 119.0096,23.8494 C120.0956,23.0754 120.4886,21.6214 121.5276,20.8124 C122.4486,20.0934 123.6966,19.9184 124.4176,19.1754 C126.0356,17.5094 126.4786,14.5354 127.9376,12.5474 C129.6406,10.2284 131.2366,9.7144 133.3136,8.1714 C130.7426,7.5894 128.2566,8.2174 125.6226,8.0284 C122.9066,7.8344 121.4036,8.3144 118.7656,9.1634 C116.4906,9.8974 114.8836,11.5394 112.7376,12.0404 C109.6006,12.7734 107.9536,13.0134 105.3366,15.3744 C103.4196,17.1044 101.1576,18.9514 99.4466,20.7694 C97.8526,18.9454 98.0566,17.1054 97.6756,14.7444 C97.2276,11.9684 96.0286,12.6004 94.0906,14.0914 C92.3046,15.4664 91.7406,17.0394 90.6036,18.7154 C89.5586,20.2554 87.5766,21.3774 87.6376,23.4094 C86.3676,20.4854 85.4616,17.7954 84.2016,14.8724 C82.8606,11.7614 80.6656,9.8574 78.6316,7.3524 C77.2826,9.4654 79.1416,11.9124 79.6436,13.8724 C80.3716,16.7164 78.0966,17.1064 77.6926,19.5014 C77.5256,19.6534 77.7316,19.4864 77.5516,19.6334 C75.5156,18.6414 75.6056,15.5594 75.0476,13.6324 C74.4406,11.5424 73.2536,8.7904 71.0596,7.8474 C69.2876,7.0864 67.1406,7.3774 65.2186,6.3494 C60.3206,3.7294 55.6986,1.2524 50.1916,0.0004 C50.3716,2.1314 53.8816,4.3974 54.9426,6.4204 C56.2396,8.8934 56.8756,11.7424 58.5146,14.0254 C60.2806,16.4824 62.7246,16.9574 65.1556,18.3144 C68.6976,20.2914 70.5206,26.4814 74.2546,27.0014 C71.5426,28.9074 69.4296,24.8954 67.4576,23.1044 C66.3586,22.1074 65.1126,20.7024 63.7076,20.0314 C62.3506,19.3844 61.0876,19.5594 59.7696,18.5054 C60.5106,19.5854 60.5846,20.8724 60.7296,22.1754 C60.9206,23.8854 61.6406,24.2494 59.5076,24.2364 C57.1296,24.2224 54.9416,21.0354 52.8246,19.8054 C49.9436,18.1314 45.7946,16.8424 42.3136,17.0534 C39.1566,17.2444 33.5306,17.4014 30.8666,18.9434 C32.9996,19.5644 35.2256,19.7314 36.6456,21.5604 C35.6366,22.8314 33.0836,21.3654 31.5146,21.3524 C28.8326,21.3304 26.8826,22.4344 24.5496,23.6594 C18.9906,26.5784 13.3966,28.2654 7.6886,30.7524 C11.4926,29.3834 15.5906,31.6864 19.3356,32.1314 C22.0016,32.4484 24.3416,33.7294 27.1406,34.4164 C29.1706,34.9134 30.3196,35.1054 32.4116,34.6804 C34.2766,34.3004 34.2976,33.9684 36.0346,35.0674 C38.9396,36.9034 40.3036,38.5724 43.8566,38.4914 C47.0896,38.4184 49.6776,38.3024 52.4296,36.6364 C53.7986,37.9754 54.7976,39.2334 56.4676,40.4114 C54.9236,42.0514 50.9676,40.6304 48.9416,40.3164 C44.0166,39.5524 36.5206,40.8834 31.8706,42.7564 C29.0426,43.8964 26.0286,45.2134 23.3166,46.6444 C20.0006,48.3934 14.3666,50.4484 12.1896,53.4074 C15.3286,51.0774 18.3356,52.6024 21.5926,51.7914 C24.1826,51.1474 27.1896,48.8734 30.0046,49.4154 C33.6966,50.1254 33.4576,53.8844 29.9526,54.2924 C27.7206,54.5524 25.6586,53.6414 23.5266,53.2254 C21.3786,52.8074 19.3156,54.7414 17.2376,53.0874 C16.6336,53.9974 17.4346,55.3454 16.6456,56.1034 C15.8776,56.8424 14.2786,55.9564 13.1206,56.2624 C11.1446,56.7854 9.4686,59.7834 6.9646,58.6304 C6.7346,59.9194 8.4446,61.5154 8.7416,62.9754 C9.1896,65.1754 7.9926,67.0524 6.8976,68.8574 C5.7336,70.7774 4.3786,72.6424 3.4716,74.6054 C2.4076,76.9104 2.3206,76.7654 0.0006,77.4464 C0.9106,77.9744 2.2426,78.5154 3.2926,78.8084 C4.5616,79.1634 5.2716,78.7494 6.4666,78.8514 C7.6946,78.9564 8.6666,79.6834 9.7146,80.1554 C10.4926,80.5054 12.5236,81.6834 12.1656,81.7564 C14.3036,81.6224 17.5956,80.1344 18.1946,83.1394 C15.1276,84.1554 12.7976,87.3864 9.8416,88.7944 C11.3086,88.5194 12.8156,88.7264 14.2986,88.8314 C16.8476,89.0114 19.0376,88.0494 21.3966,88.1704 C23.6246,88.2834 25.9596,88.8074 28.2076,88.1664 C31.4226,87.2484 31.7916,84.6084 33.8166,82.4474 C34.3496,82.8194 34.9716,83.4934 35.5696,83.7264 C36.1186,83.9404 37.3576,84.0354 37.6566,84.1884 C39.2956,85.0284 40.0356,86.5904 39.3516,88.5044 C37.3996,93.9674 32.2836,89.5694 28.7306,90.5184 C26.6416,91.0764 25.8826,92.5824 23.6116,92.7634 C22.7056,92.8364 22.2516,92.1944 21.3276,92.7584 C20.8986,93.0204 20.7006,94.3924 20.0016,94.8824 C18.3166,96.0644 16.6476,95.8654 14.9466,97.7044 C13.5626,99.1994 11.2486,102.0584 10.9636,104.0334 C12.7026,102.7844 15.2596,101.0614 17.4866,102.5064 C18.3076,103.0394 18.0296,103.7034 18.6456,104.3374 C19.1786,104.8864 19.9796,105.0684 20.4446,105.5334 C21.5866,106.6724 22.2506,106.9214 20.9106,108.2554 C20.0686,109.0934 18.3506,109.2144 17.3376,110.6154 C15.6146,112.9954 15.8496,114.8184 15.8616,117.5144 C15.8796,121.8324 15.9486,125.7794 15.4596,130.0524 C16.8376,129.1454 17.7286,127.6374 19.2436,126.7404 C20.5656,125.9564 21.8916,125.6244 23.2626,125.1384 C26.4066,124.0264 29.4756,124.0744 31.4846,121.0554 C32.8566,122.0954 34.4036,121.9784 35.7016,123.5514 C38.3246,121.4144 42.0466,121.0284 43.5106,117.8954 C45.9226,112.7384 42.7206,107.2524 44.4086,102.0694 C46.5106,95.6094 48.5776,103.7024 49.4316,106.0484 C50.4486,108.8404 52.1356,110.8974 53.1836,113.5994 C54.4366,116.8304 54.7786,120.2374 55.9386,123.4014 C56.1726,119.9264 59.8946,115.7274 60.9306,112.2164 C61.6456,109.7934 61.0626,107.0034 61.9066,104.6204 C62.5066,102.9234 63.2426,102.0194 63.6216,100.2214 C64.5156,95.9844 65.6316,90.2814 65.2876,85.9354 C64.9546,81.7324 61.4216,76.9404 66.4766,73.9264 C67.7676,75.1644 67.3336,77.8814 67.7766,79.5714 C68.3956,81.9274 69.8816,83.0714 71.0866,84.9394 C69.9696,85.9184 68.5576,87.0634 67.6746,88.4434 C66.4486,90.3594 66.7536,92.5734 66.0106,94.6644 C65.0906,97.2564 65.3766,98.9254 65.4226,101.6824 C65.4556,103.6144 65.0896,105.5774 63.1146,106.3504 C66.3716,105.3224 69.0186,103.8794 71.8786,101.6994 C73.7716,100.2564 75.3626,98.7374 77.0936,97.1834 C79.1536,95.3354 80.9386,92.5554 83.2596,91.2124 C83.3646,92.7724 84.6126,93.4344 84.7506,94.8824 C84.9286,96.7624 83.2616,97.5994 83.0046,99.3544 C82.7206,101.2844 83.6396,102.2554 81.9356,103.7404 C80.7276,104.7934 78.9786,104.7424 77.7666,105.2684 C74.1016,106.8594 76.3186,109.5704 74.0336,111.6994 C72.8356,112.8144 71.9756,112.1554 71.6066,114.1124 C71.2396,116.0584 71.8006,115.2394 72.8276,116.4194 C77.3546,121.6264 66.3816,122.7224 64.4716,127.0184 C64.0396,127.9904 63.3546,130.1784 63.8046,131.1814 C64.2676,132.2144 65.4296,132.0784 66.1046,132.9894 C67.9016,135.4164 66.5486,139.9174 67.2596,142.6044 C67.9846,145.3434 70.2736,146.6024 71.3706,148.9414 C72.7606,151.9064 71.2176,155.2444 72.2556,158.1804 C72.4226,153.4014 75.6216,149.4614 78.2466,145.9234 C79.9966,143.5654 81.0236,141.2384 81.6166,138.3444 C82.1396,135.7894 81.7066,132.2954 82.7976,130.0214 C84.8646,130.8894 84.5886,134.0974 82.3606,134.3724 C84.5346,134.5434 91.0906,128.3414 90.4596,133.1464 C89.9876,136.7404 85.4406,138.0024 83.3396,140.1744 C80.5536,143.0544 79.1146,147.4684 80.0866,151.3514 C80.3186,152.2794 80.7626,152.5584 80.7966,153.4094 C80.8236,154.1194 80.2606,155.1434 80.2806,155.9824 C80.3276,158.0354 81.3406,160.4224 82.3926,162.1614 C83.4376,163.8914 84.5086,165.3454 85.1896,167.3104 C85.7516,168.9284 85.9996,171.0464 87.1316,172.3584 C88.3686,169.8364 87.3956,166.3494 90.1056,163.9664 C91.3926,162.8354 92.7326,162.4974 93.9596,160.9524 C95.1316,159.4774 96.1086,157.8084 97.4996,156.6154 C98.7746,157.6484 97.6436,158.7634 97.0156,159.8534 C96.2486,161.1834 96.1856,161.6054 95.7366,163.0964 C95.3296,164.4504 94.5226,164.8634 94.9176,166.3614 C95.1386,167.2024 96.2486,169.1004 96.6116,169.9224 C97.9066,172.8524 99.5676,171.4644 102.2776,172.1944 C108.5306,173.8814 111.0096,179.5394 116.0206,182.8794 C116.3626,181.3344 115.7496,179.6044 115.7056,177.9864 C115.6636,176.4644 115.8396,174.9714 115.8126,173.3874 C115.7526,169.8514 117.3906,163.5724 114.4746,161.2884 C115.1876,160.2104 116.4516,159.1974 115.9506,157.9354 C115.5516,156.9304 112.6386,155.4774 111.7536,154.8444 C114.3816,155.3624 118.4346,158.1744 121.0216,158.0694 C123.9536,157.9504 124.8396,161.0304 125.4396,163.0114 C129.2566,157.3814 125.1346,144.4704 120.4726,140.3504 C118.4506,138.5634 115.2486,136.5584 112.6606,135.6714 C110.0476,134.7764 107.5106,135.0334 105.5996,132.6584 C101.5286,127.5984 111.4126,130.0444 113.1656,129.0134 C110.7976,128.4684 109.0356,128.6384 107.6496,126.2594 C109.4086,122.4804 113.9486,129.1564 115.5106,129.9724 C117.3886,130.9514 119.3976,130.2374 121.5046,129.1944 C123.5526,128.1794 125.0266,127.1684 123.5486,124.9904 C122.7246,123.7754 118.2606,123.3184 119.3976,121.0264 C120.3836,119.0384 122.4946,122.0664 123.2426,118.8114 C123.9486,115.7354 120.2476,112.4924 117.7856,111.4504 C115.9476,110.6724 109.1856,112.7224 108.7016,110.5304 C108.2056,108.2894 113.2536,108.9434 114.1926,109.8264 C113.9386,107.0954 112.6466,105.0154 110.5736,103.1554 C109.2076,101.9294 107.9926,100.9774 106.1486,100.7444 C104.6796,100.5584 103.5556,101.1364 102.2146,100.4174 C100.1296,99.2984 101.0726,97.1404 100.7336,95.1284 C100.2946,92.5154 100.7436,92.2394 103.2696,93.4744 C105.7976,94.7104 108.0586,96.3734 110.6686,97.5224 C112.3996,98.2844 114.9906,98.7594 116.4346,99.7124 C118.2656,100.9194 117.6726,102.8974 117.9946,105.1294 C118.3886,107.8574 118.7666,110.4884 120.4566,112.7814 C122.0846,114.9924 124.2226,117.0684 126.0436,119.0764 C127.2596,120.4194 129.5846,124.5144 131.4946,124.4184 C131.4426,122.6464 130.6316,120.8564 130.6926,119.0694 C130.7566,117.1314 131.6646,116.8454 132.5936,115.2984 C135.1596,111.0344 131.6436,102.3314 136.1686,99.5604 C138.7446,101.1394 138.7296,103.5254 138.1106,106.2004 C137.2586,109.8714 136.9706,112.3044 138.1046,116.1584 C139.2606,120.0924 142.0546,123.4744 144.6556,126.6114 C145.9976,128.2324 147.3906,130.4664 149.5886,130.8674 C150.6496,129.0384 147.7126,123.0394 151.8446,122.9264 C153.7896,122.8744 156.5346,126.2574 158.5436,126.9224 C161.2866,127.8294 162.9296,128.1284 165.4106,129.9684 C167.8876,131.8074 171.5316,135.4924 174.6196,136.0394 L174.6196,136.0394 Z" id="Fill-8" fill="#526A32"></path>
                <path d="M171.9026,103.9424 C168.1736,99.4384 161.4336,96.6424 155.8146,95.5854 C153.1626,95.0854 150.6706,95.8484 148.0156,95.7654 C146.5166,95.7184 145.0266,95.4564 143.6056,94.9754 C142.3876,94.5634 140.3846,92.7934 139.1406,92.8354 C132.7326,86.5124 126.1006,80.4214 119.6446,74.1484 C122.6546,75.0924 125.7206,74.4434 128.7846,74.7434 C132.5216,75.1084 135.6816,76.8174 139.2026,77.9834 C143.1976,79.3054 147.0876,79.6484 151.2646,79.8284 C152.0486,79.8624 159.7296,81.8334 158.9906,82.3144 C159.3736,82.0694 156.3546,80.2234 155.9726,80.0784 C153.6296,79.1924 150.8406,79.5394 148.3846,79.3254 C142.2236,78.7894 137.2416,75.7564 131.3666,74.4114 C126.9496,73.4004 122.2516,74.8414 118.1956,72.3634 C113.4646,69.4724 109.3286,63.8594 105.7176,59.6804 C107.0776,59.9774 124.0226,62.2434 123.8256,60.8104 C123.8596,61.0644 113.3176,60.3914 112.2516,60.2284 C108.3936,59.6384 105.5566,59.2384 102.9666,56.4044 C98.4036,51.4124 95.0016,45.3374 91.5736,39.5534 C93.8066,40.5944 97.8836,42.4054 105.3996,45.1364 C105.1606,45.2434 113.5776,55.2004 112.2936,55.5504 C114.3396,55.0044 106.7276,46.2524 106.3476,45.4784 C111.8816,47.4704 117.4666,49.3254 122.9316,51.5044 C122.5306,51.5264 124.5856,56.7804 125.0416,56.3494 C125.0786,56.3174 123.8246,52.3884 123.8416,51.8734 C131.4196,54.9534 138.6536,58.1564 146.5266,60.4914 C148.0236,60.9354 169.2186,67.7014 168.8676,68.3774 C169.4076,67.3684 147.2136,59.8224 145.5536,59.2844 C136.2756,56.2764 127.6846,51.8514 118.5736,48.4334 C119.3616,48.2574 134.9356,45.7174 134.5086,45.0304 C134.9366,45.7764 117.5226,46.9004 117.0276,47.8594 C108.8146,44.8404 100.6706,42.0434 92.8696,38.0444 C100.4976,38.4754 107.3456,34.0514 114.8676,34.1114 C118.7996,34.1434 120.4396,36.7374 123.6396,38.9034 C124.3266,39.3674 131.7596,43.1294 131.8586,42.3794 C131.6846,43.5504 119.5606,34.7994 118.7566,34.0644 C126.0276,34.2444 133.3646,34.4544 140.6126,35.0654 C141.6746,35.1544 156.6996,37.7644 156.3926,38.4574 C156.8566,37.3814 141.8136,34.4294 141.1316,34.3474 C133.3616,33.4134 125.3546,32.9204 117.5306,32.7704 C117.3686,32.5584 117.2506,32.3844 117.1596,32.2494 C118.0926,31.6004 129.1696,25.4844 129.3156,25.9234 C129.0466,25.1284 115.8516,31.4344 114.7826,32.7964 C107.2266,33.1294 100.1396,37.3294 92.4716,36.1344 C97.4966,31.3584 102.0106,26.2774 107.5586,22.0504 C108.9696,20.9754 126.1736,10.1984 126.4706,10.9024 C125.9056,9.5704 108.5016,19.9334 107.2896,20.7924 C101.2966,25.0414 96.5776,30.6054 90.8116,35.0934 C93.1366,31.6294 94.1206,29.2014 94.6366,25.0154 C94.8706,23.1204 94.8146,20.8674 95.4296,19.0434 C95.5306,18.7444 97.0796,15.9134 97.2046,16.1584 C96.5846,14.9824 94.0926,24.6764 94.0896,24.6994 C93.4316,28.8814 92.5486,31.5014 89.8846,34.8274 C87.3606,31.4284 85.2876,27.5504 83.9546,23.5334 C83.7126,22.8054 81.1546,11.4334 80.9566,11.5324 C80.8766,11.5714 83.0846,22.7924 83.2706,23.4364 C84.2246,26.7414 86.3886,33.4524 89.2526,35.6724 C89.2316,35.7044 89.2066,35.7384 89.1886,35.7674 C85.3376,32.8774 81.6566,29.6494 78.2566,26.2424 C78.3066,26.1674 79.1026,24.3034 78.7606,24.3424 C78.4556,24.8314 78.1126,25.2924 77.7306,25.7244 C74.6346,22.5184 72.5626,18.5294 69.5046,15.2894 C68.7546,14.4954 57.2216,4.7374 56.7686,5.4084 C57.4916,4.3374 71.5976,19.6494 72.5106,20.9924 C76.5666,26.9594 81.8976,31.4964 87.1026,36.4374 C83.3576,35.0524 79.5446,33.8554 75.7176,32.7174 C73.5346,32.0674 71.8876,31.8264 70.3706,30.2994 C70.0736,30.0004 66.7016,24.3304 66.2736,24.7594 C66.1936,24.8374 69.5996,30.4534 69.8296,31.0154 C64.3046,29.4384 57.7846,28.5144 52.7516,25.6994 C51.6846,25.1034 36.7076,17.1224 36.5106,19.0434 C36.6706,17.6294 51.2776,25.6294 52.1806,26.2074 C49.6316,25.7034 18.4576,26.6724 19.0316,28.5504 C18.8666,28.0024 35.7926,26.6234 36.6936,26.5984 C44.0236,26.4004 50.6846,26.7634 57.7446,28.8644 C56.5596,29.7984 42.5876,37.2354 42.4236,36.8424 C42.5346,37.1104 59.2466,30.7154 58.6836,29.1434 C63.0896,30.4554 67.5076,31.7264 71.9196,33.0194 C71.3146,34.0374 65.0306,35.5964 65.0816,34.9844 C64.9396,36.3394 71.8336,34.6094 72.8726,33.3014 C77.6406,34.7274 82.2046,36.4994 86.7986,38.3924 C81.5826,40.4884 75.8386,41.0524 70.4126,42.4794 C70.3086,42.7094 55.1156,35.6344 55.6766,35.2734 C54.6086,35.9214 61.3976,39.4124 61.4546,39.4354 C64.0876,40.4574 66.6776,41.2934 69.0746,42.8274 C60.6946,45.0044 55.1326,45.8704 46.5746,45.4164 C41.9056,45.1694 37.2646,44.8644 32.6616,45.9004 C31.4746,46.1664 20.0066,50.2084 20.2276,50.6754 C19.9396,50.0544 34.6196,46.0814 35.7436,45.9664 C41.9476,45.3354 48.4216,46.2054 54.6186,46.6594 C46.4626,49.1234 39.0766,53.8784 32.0196,58.5494 C30.4586,57.2624 12.1336,59.8144 12.0856,59.5424 C12.2196,60.2974 29.4096,58.5124 31.0286,59.2234 C29.6356,60.1684 11.2806,74.5094 11.3196,74.5724 C11.6546,75.1204 24.9406,64.6134 26.0796,63.7434 C26.7276,64.5314 25.0096,70.5374 25.0906,70.5574 C25.8706,70.7514 27.4316,64.1034 26.8816,63.1454 C35.1926,56.9274 45.0296,50.7744 55.0436,47.8624 C54.0416,50.7034 52.3246,53.3384 50.6826,55.8404 C50.3756,56.3094 45.3856,62.7264 45.2906,62.4844 C45.3946,62.8484 51.3866,55.9374 51.9466,55.1044 C52.7496,53.9104 56.7286,49.0174 56.1576,47.5484 C61.7446,46.0064 67.3886,44.5844 73.0236,43.2234 C77.2006,42.2154 81.6006,42.0224 85.6966,40.7564 C82.0746,46.1074 77.8586,51.1004 73.5366,55.8934 C73.6186,55.2384 61.6066,56.1564 61.4646,57.0254 C61.5476,56.5004 71.5706,56.4414 72.7726,56.7384 C69.7676,60.0684 66.8486,64.5784 62.5046,66.0634 C58.4016,67.4644 54.0596,68.0984 49.9376,69.4914 C45.5576,70.9724 41.3846,73.3124 36.6046,72.1444 C37.0756,72.2594 30.5036,69.2974 31.3396,68.7004 C31.0036,68.9244 33.5216,71.2364 33.6106,71.3014 C35.6866,72.8234 38.4366,73.2044 40.9446,73.0434 C39.1586,73.8484 18.1556,84.7254 18.4676,85.2544 C18.1376,84.6894 48.6046,69.9294 48.8526,70.6124 C53.7336,68.9234 58.8396,68.2214 63.7146,66.6154 C61.3756,69.1634 59.0446,71.7214 56.7576,74.3184 C55.0326,76.2774 52.8856,80.0944 50.7146,81.4544 C49.4596,82.2414 40.2536,83.2174 39.8396,82.1704 C40.0426,83.2754 48.6756,82.9274 49.6786,82.7464 C47.3126,85.6954 45.0376,88.7424 42.9586,91.9014 C43.3396,92.2604 17.5446,100.3734 17.9656,97.6304 C17.7986,98.7264 28.5376,97.5844 29.4126,97.3574 C33.2646,96.3574 38.0096,95.5124 41.6296,93.9444 C37.6816,100.0624 33.7326,105.5144 28.8016,110.8854 C28.2666,110.7594 19.9856,111.5174 20.7396,112.7964 C20.6526,112.6494 26.8456,111.1744 28.0376,111.7284 C27.4866,112.3334 19.0136,122.9914 19.7726,123.3534 C19.3466,123.1554 27.0096,113.5774 27.6916,112.8454 C31.9076,108.3214 36.2946,104.0694 39.6386,98.8234 C40.2676,102.9494 40.0376,107.7374 39.0596,111.7574 C38.9836,112.0734 36.3056,120.7334 36.9636,120.5604 C36.8806,120.5644 40.0036,110.3674 40.1746,109.3104 C40.5586,106.9464 41.8876,99.7434 40.4166,97.5884 C42.5306,94.2134 44.7526,90.8814 47.1976,87.7344 C47.2056,88.0284 48.1946,95.8354 49.1516,95.1834 C48.5026,95.5884 47.8696,86.8544 47.8806,86.8574 C52.1476,81.3674 56.7596,76.1834 61.4386,71.0424 C59.0696,78.1404 58.2906,85.5324 58.0016,92.9764 C57.9316,94.7834 57.1516,114.9554 56.9036,114.9194 C57.4086,114.9884 59.0376,86.6304 59.3146,84.2784 C59.8196,79.9944 60.5906,75.6034 62.2656,71.6014 C64.0856,67.2554 67.9536,64.0114 71.1456,60.5384 C70.7796,63.3684 70.2506,66.0884 70.4726,68.9614 C70.5096,69.4344 71.6906,77.6754 71.2986,77.5924 C71.9396,77.7324 71.1946,70.4164 71.1516,69.8664 C70.9996,67.9424 71.0616,66.0564 71.3406,64.1454 C71.4966,63.0824 72.6266,60.3174 72.2696,59.3154 C77.5666,53.5414 83.2036,47.7574 87.6836,41.3024 C87.1466,48.7094 88.3586,56.1684 89.1256,63.5174 C88.3586,64.3554 77.9086,72.2654 77.5506,71.5094 C78.1326,72.7444 88.4196,65.3374 89.2526,64.7444 C89.6056,68.1564 89.9446,71.5704 90.2816,74.9844 C86.3236,79.4414 81.8926,83.4414 77.7536,87.7224 C76.8296,88.6794 66.2986,101.4644 67.3526,101.9464 C66.7376,101.6594 75.9696,90.4414 76.6616,89.7254 C81.1066,85.1254 85.8336,80.7974 90.4196,76.3404 C90.9936,82.0474 93.4076,88.1654 90.8096,93.2824 C88.1076,98.6044 86.4026,104.3464 84.4276,109.9584 C82.2486,116.1534 78.8906,121.7404 76.5436,127.8424 C76.0056,129.2404 72.1546,144.7874 73.1816,144.9114 C73.1136,144.9044 75.3956,133.9784 75.6596,133.0634 C77.1656,127.8364 79.8786,123.3284 82.2676,118.4894 C86.3156,110.2944 87.9486,101.0284 92.9196,93.2814 C94.9626,105.1624 94.8716,117.2584 96.7196,129.1654 C95.2086,128.1614 82.0626,166.6094 84.7676,166.9004 C84.2376,166.8434 89.2126,148.2024 89.6866,146.8354 C91.6606,141.1484 94.2236,135.9264 96.9316,130.5804 C97.0946,131.5684 97.2786,132.5404 97.4586,133.5144 C95.7686,134.5844 102.8586,154.4134 103.5996,156.5024 C102.1676,157.3604 97.6086,167.3944 98.6886,167.6834 C98.4716,167.6254 102.3396,158.3484 103.9486,157.4914 C104.6326,159.3784 113.3056,179.8304 114.0116,179.4434 C113.5906,179.6764 105.2276,159.3454 104.5916,157.4964 C105.4356,157.5854 111.1356,161.3144 110.7336,161.6414 C111.6226,160.9324 104.8536,155.4554 104.3356,156.7354 C101.9556,149.6964 100.0646,142.5024 98.7146,135.1954 C102.9646,139.0794 108.4386,141.4684 113.0216,144.9324 C113.6846,145.4344 123.0486,154.4104 122.3206,154.8194 C122.9406,154.4744 116.9816,147.6344 116.5896,147.2574 C112.4726,143.2914 107.5666,140.6784 102.9306,137.4344 C98.8316,134.5664 98.1726,132.5134 97.4906,127.5334 C97.1926,125.3544 96.9336,123.1574 96.7486,120.9644 C97.4386,120.9464 104.6416,127.7504 104.6756,127.5074 C104.5516,128.0914 101.0976,123.8224 100.8986,123.5704 C99.9016,122.3084 98.6226,119.8864 96.6646,119.9454 C96.0626,112.6764 95.8866,105.3734 94.9546,98.1334 C97.6376,103.8034 101.0116,109.0944 105.4706,113.5424 C107.7286,115.7954 110.2546,117.6524 112.7986,119.5604 C113.3426,119.9684 119.5906,125.8854 118.6566,126.1834 C119.5636,125.8964 114.2956,120.2454 113.7856,119.8184 C111.0226,117.5074 108.1836,115.4714 105.6766,112.8534 C102.7746,109.8214 100.2146,106.4144 98.1866,102.7364 C97.7836,102.0054 95.3206,95.5024 94.6026,95.5794 C93.5926,88.8894 92.3546,82.2674 91.6916,75.5254 C95.8596,80.1634 99.9586,84.8254 104.6026,89.0044 C105.5026,89.8144 115.8976,99.1444 115.5826,99.2814 C116.0616,99.0774 104.2666,87.8744 103.4356,87.0664 C102.4636,86.1224 92.5966,73.8644 91.5576,74.1704 C91.2046,70.5384 90.8966,67.2554 90.6226,64.2964 C93.1236,64.2224 104.7046,71.0324 104.0936,71.8194 C104.4856,71.3124 91.9556,60.6974 90.5386,63.3934 C90.2216,59.9184 89.8846,56.4444 89.6256,52.9644 C90.8516,53.7964 99.1006,63.0694 99.5606,62.1144 C98.8286,63.6474 93.1866,54.9324 92.6186,54.3054 C90.4196,51.8794 89.4596,51.9414 89.3906,48.2044 C89.3416,45.5494 89.4786,42.9334 89.7386,40.2934 C93.9266,47.5214 99.0746,54.2954 104.6356,60.5184 C104.8736,60.4784 105.8686,68.5324 106.0126,68.5114 C106.4996,68.4414 105.7746,62.2434 105.7326,61.7504 C109.3676,65.8384 114.4446,69.5424 117.5316,73.9774 C120.2386,77.8654 121.1556,84.4854 121.9756,89.0264 C123.1126,95.3184 123.1086,101.7734 124.4426,108.0294 C124.6266,108.8884 129.1206,122.7034 129.9736,122.2044 C128.5246,123.0444 124.0796,101.7514 123.9956,100.8244 C123.2166,92.1644 122.0716,83.8374 119.2486,75.5744 C124.1636,80.2734 129.1846,84.8584 134.1346,89.5184 C137.2986,92.4964 141.8176,95.2894 142.4656,99.5854 C143.2716,104.9384 142.2166,110.2574 143.4446,115.6534 C143.5906,116.2934 147.6506,128.3594 147.9266,128.1264 C147.8776,128.1654 143.8766,114.9014 143.7236,113.9784 C142.8786,108.8424 143.3486,103.6924 143.4366,98.5244 C148.5686,103.6884 153.5656,109.0614 157.9376,114.8944 C157.9016,115.0454 156.2436,119.8894 156.7976,119.8124 C156.9676,119.7994 158.1126,116.2254 158.5626,115.7284 C159.4956,116.9984 168.3326,130.3694 167.9176,130.5724 C168.7936,130.1294 158.5636,114.7554 157.7666,113.6874 C158.8146,113.1324 164.0796,114.7704 163.8226,115.0904 C164.7896,114.1654 157.1306,111.4094 157.2696,113.0314 C152.4216,106.6244 146.9806,100.6964 141.3186,95.0044 C147.1106,97.4634 153.0916,95.3354 158.9926,97.1524 C163.2886,98.4764 169.3696,100.7724 171.9026,103.9424" id="Fill-10" fill="#688538"></path>
            </g>
        </g>
    </g>
</svg>