<svg width="262" height="234" xmlns="http://www.w3.org/2000/svg" xmlns:xlink="http://www.w3.org/1999/xlink"><defs><path id="a" d="M251.6.3H0v231.2h251.6z"/><path id="c" d="M7.6 5h-7V.5h7z"/></defs><g fill="none" fill-rule="evenodd"><path d="M107 81.4" fill="#526A32"/><g transform="translate(9.5 .7)"><mask id="b" fill="#fff"><use xlink:href="#a"/></mask><path d="M157.7 122c-1.7 2.7-1.3 5-1.9 7.9-.8 4-4.9 13.8-8.4 5.9-1.1-2.6-.2-5.5-2-7.8.2-.3.8-.7.6-.7l-.3.1h.3c6.7-2.1 11.7-7.2 17-11.7-1.5 2.3-4 4-5.3 6.3zm11 30.9l-.5-.2c-2.8 1-4 3.2-6 5-1.6-2.1-3.7-3.9-.2-5 1-.4 4.6-.5 6.2 0l.7-.2-.2.4zm-33.4-15c-6 1.9-3.8-6.7 1.4-6.3h-1c1 .3-.3 4.4-.4 6.4zm19.5 46c-2.8.5-5.6.7-8.2 1.9-1.3-.8-1.6-2.2-1.3-3.6.4-2 .3-1.8 2.4-1.6 1.8 0 2.4 1 3.8 1.4 1.6.5 2.5-1.3 3.2 1.6v-1c.1.5.4.7.1 1.2zm-43.2-56.7c-1.1 2.2-4.2 3-6 1.7-3.4-2.4-2.4-8.1-1.2-12 .3.4 4 3.4 5.1 4.5 1.4 1.3 3.1 3.8 2 5.8zm-8.9 14.3c-3.6.3-1.4-6.9-1-8.6l.2.6c.6.8 4.8 7.7.8 8zm-16 14c-2-.8-5.4-2.4-4.5-5.1-.2 0-.4 0-.6.2l.7-.6-.1.4c2.6-.7 3.8 3 4.6 5.1zm-11.3-15c-1.9.9-2.6-1.1-4.4-.5.6 1.3 1.5 2.5 1.8 4-1.7 1.6 1 2.5 1.6 4-3.5 2.2-4.3-5.6-4.3-7.5 0-2.7 0-6.4-2.7-8.5 3.5 1.4 7 .6 8.9 4.4.8 1.5 1.2 3.1-.9 4.1zm-27.7-15.2c-2-1-2.9-3.8-3.6-6 .5-.2.4-.4.5-.7h-.2l.2-.2v.2c1.5.4 6 0 6.6 1.1.5 1.1-2.8 4.7-3.5 5.6zm190-39.8c-4 1.5-6.1 1.4-10 1.6-2.8.1-7.5 3.6-10 2.8-5.3-1.5.6-8.3-.2-11-3-.2-5.5 2.2-7.8 3.8a41.5 41.5 0 0 0-12 11.2 22.7 22.7 0 0 0-3.5 12.9c-.1 3.6-1 6.7-4.8 7.9-4.9-5.2 2.7-15.2.8-21.6-.6-2.3-1.7-3-1.1-5.5.5-2.3 2.2-4.3 2.9-6.6-2.5-.8-6.9 3.7-9 5-3 2-6.4 3.9-9.3 6.2-3 2.4-4.4 5.6-5.8 9-1.2 2.8-1.1 5.5-3.9 6.5-2.2.7-5.7.4-8.2.8-3.7.6-7.2 2-11 2.7-3.6.7-4 .2-2.6-3 1.1-2.5.6-5.6 3.7-6.4 2-.4 3.3.7 5.2 1 2.5.3 4.4-.5 6.6-1.6 3.3-1.7 5.6-4 7-7.4-1.6.9-8.3 0-7-2.8 1.5-2.6 9.5 2.4 12.1 2 3.5-.5 9.4-3.4 9.6-7.6.1-4.5-3.6-1.3-4.2-4.2-.7-3.4 5.2-2.4 6.7-3.7 2.7-2.3 1.1-4.1-1.2-6.1s-4.7-3.7-7.4-3c-2.3.4-10.5 7.5-11.5 2 2.7-2.6 4.9-1.8 8.1-1.7-1.9-1.9-15.5-2.1-8.5-7.3 3.3-2.4 6.5-1.2 10.2-1.4a35 35 0 0 0 11.6-3.4c7.5-3.7 17.2-18.9 14.3-27.5-1.5 2.4-3.7 6-7.4 4.9-3.3-1-9.5 1.2-13.1 1 1.4-.6 5.6-1.4 6.5-2.6 1-1.5-.2-3.2-.8-4.8 4.6-2 4.6-10.6 6-15.2.5-2 .8-4 1.4-6 .6-2 2-4 2-6.1-7.6 2.5-12.7 9-21.3 9-3.8 0-5.5-2.4-8.1 1-.8 1-2.9 3-3.4 4-1 1.8-.2 2.6-.1 4.5 0 2 0 2.6.5 4.6.4 1.6 1.5 3.5-.5 4.3-1.4-2-2-4.5-3-6.8-1.1-2.4-2.7-3.3-4-5.2-2.7-4-.2-8.2-1-11.8-1.8 1.3-2.9 4-4.2 5.8-1.5 2.3-3.4 3.8-5.4 5.7-2 1.9-4 4.6-4.8 7.2-.3 1.1 0 2.6-.2 3.5-.4 1.1-1 1.3-1.7 2.4a16.5 16.5 0 0 0 .4 15.6c2 3.5 7.4 6.7 6.7 11.5-.8 6.4-7.1-3.9-10-4.4 2.8 1.1 2 5.4-1 5.8-.5-3.3 1.2-7.7 1.4-11.2.3-3.9-.3-7.3-1.7-10.9-2.2-5.5-5-11.7-3.5-17.9-2.3 3.5-1.5 8.3-4.3 11.6-2.2 2.7-5.6 3.5-7.5 6.8-1.9 3.2-1.7 9.5-4.8 12-1.2 1-2.7.4-3.6 1.5-1 1.2-.8 4.2-.6 5.6 1 6.2 14.8 11.4 7.1 16.6-1.7 1.1-2.1-.1-2.3 2.5-.2 2.7 1.1 2.1 2.3 4 2.2 3.5-1.6 6.2 2.6 9.6 1.3 1 3.6 1.6 4.8 3.4 1.7 2.5.2 3.4-.1 6-.3 2.3 1.6 4 .7 6.4-.7 1.8-2.5 2.2-3.2 4.2-2.5-2.5-3.9-6.7-5.9-9.8-1.7-2.6-3.2-5.2-5.2-7.7-2.9-3.8-5.8-6.5-9.7-9 2.3 1.7 2.1 4.4 1.4 6.8-1 3.6-2 5.6-1.6 9.3.2 3-1 5.7 0 8.6.6 2 2 4 3.1 5.7-2.2 2-4.5 3-6 5.8-1.2 2-1.6 5.6-3.7 6.8-5.5-5.6.7-10.6 2.6-16 2-5.4 2.5-13.1 2.8-19 .1-2.4-.5-3.8-.7-6.2-.3-3.3 1.4-6.7 1.4-10.1-.2-4.9-3.5-11.6-2.6-16.1-2.6 3.6-4.2 8-7 11.6-2.2 3.2-5.1 5.2-7.4 8.5-2 2.7-7.4 12.4-7.9 3.4-.3-7.3 5.7-13.3 4.3-20.7-.8-4.6-5.4-6.4-8-10-2.3 1.6-4.2.9-6.4 1.7-1.5-4.5-5.5-5.5-9.2-8-1.6-1.2-3.2-2-4.6-3.5-1.6-1.7-2.3-4-3.7-5.6-.9 5.7-2.3 10.8-3.8 16.3-1 3.5-2 5.8-.5 9.4.8 2.2 3 3 3.8 4.3 1.2 2.2.3 2.3-1.6 3.4-.7.4-1.8.4-2.7.9-1 .6-.9 1.5-2.1 2-3.4 1-6.1-2-8-4.3-.2 2.7 1.8 7.2 3 9.6 1.6 3 3.8 3.2 5.6 5.3.7 1 .5 2.8 1 3.2 1 1 1.8.4 3 .8 2.8 1 3.2 3.2 5.7 4.7 4.3 2.4 12.4-1.5 13 6.2.3 2.7-1.2 4.5-3.6 5-.5.1-2.1-.2-2.9-.1-.8 0-1.9.7-2.7 1-1.8-3.4-1.4-7-5.2-9.3-2.7-1.6-6-1.7-8.8-2.3-3.1-.7-5.6-2.7-9-3.3-1.9-.4-4-.6-5.7-1.5 3.3 2.8 5.2 7.8 8.8 10.2-1.8 3.6-5.5.6-8.2-.3.4.2-2.6 1-3.8 1.2-1.5.2-3 .8-4.6.5-1.6-.2-2.3-1-4.1-1-1.5 0-3.4.3-4.7.6 2.7 1.7 2.9 1.6 3.5 4.9.5 2.8 1.6 5.7 2.4 8.6.8 2.7 1.7 5.5.4 8.2-1 1.8-3.7 3.3-3.8 5 3.6-.6 4.7 3.8 7.1 5.2 1.4.8 3.8.2 4.5 1.4.7 1.2-.7 2.7-.3 4 3.3-1.3 5.3 1.9 8.2 2 2.9.3 5.8-.2 8.6 1 4.4 1.7 3.4 6.6-1.6 6.2-3.8-.2-6.9-4.2-10-6-4-2.1-8.3-1.2-11.6-5.3 1.8 4.6 8.4 9.2 12 12.6 3 2.8 6.5 5.5 9.7 8 5.4 4 14.6 8.3 21.2 9 2.7.3 8.3-.2 9.7 2.5-2.5 1-4.2 2.2-6.5 3.4a21 21 0 0 0-10.4-5.3c-4.5-1.3-6.9.3-11.3 1.7-2.6.8-2.5.4-4.8-.7a13.6 13.6 0 0 0-6.9-1.5c-3.8-.1-7.3.7-10.8.2-5-.7-11 .9-15.5-2.2 6.5 5.2 13.1 9.3 19.3 15 2.6 2.3 4.7 4.4 8.2 5.3 2 .6 5.8-.4 6.7 1.5-2.5 2-5.4 1.4-8.4 1.4 3 3 10.1 5 14.1 6.4a27.1 27.1 0 0 0 14.5 0c3.2-.8 7.1-4.1 10.2-3.3 2.7.7 1.7 1 .8 3-.6 1.7-1.1 3.3-2.5 4.5 2.1-1 3.7-.3 5.6-.7 2-.3 4.2-1.7 6-2.6 3.1-1.7 7.2-6.1 10-2.7-5-.6-9.4 6.7-14.7 8-3.6 1-6.9.7-10 3.3-3 2.4-4.7 5.8-7.2 8.6-2.1 2.2-7.4 4-8.4 6.6 7.5.3 14.4-1.3 21.6-3 2.8-.7 5.5.5 8 0 3.2-.4 5.7-3.5 7.2-6 1.4-2.3 2.3-6.3 5.3-6.9l.1.2c-.3 3.3 2.5 4.6.6 8-1.3 2.3-4.6 4.8-3.6 8 3.5-2.5 7-4.2 9.8-7.7 2.6-3.4 4.7-6.5 7.4-9.9-.8 2.6 1.4 4.8 2.2 7.1.9 2.6 1 4.8 2.9 7.2 2 2.6 3.3 3.8 4.8.4 1.3-3 1.7-5.4 4.4-7.2 1.6 3 3.9 6.1 5.7 9 2.6 4 4.6 4.8 8.4 6.9 2.6 1.3 4.1 4 6.8 5.7 3.1 2 4.9 3.2 8.5 3.9 3.4.6 6.4 2.3 10 2.4-2.2-2.7-4.1-3.9-5.5-7.5-1.2-3-.7-7-2.3-9.7-.6-1.2-2.2-1.9-3.1-3.1-1-1.4-1-3.4-2.2-4.8-2-2.3-6-3-8.6-4.4-2.7-1.4-3.8-4.2-5.7-6.1 1.1.7 2.2 1.3 3.3 2.2.2-2.6.4-4-.7-6.4 2 2.2 4.6 3.6 6.9 5.4 2.8 2.4 4 5.2 6 8.1a28.1 28.1 0 0 0 16.1 9.2c3.2.5 6.6.4 9.8.6-1.4-1.3-3-2.3-3.5-4.3-.1-.7.8-1.4.7-2.2 0-.8-.6-1.9-.8-2.7l-3.1-.1c5 0 7.6 1 11.6 3.2 3.5 2 8.7 2.4 12.4.4 1.6-.8 2.8-2.6 4.4-3.5 2.1-1.2 3.8-1 6.2-1.6 2.8-.9 5.7-3.1 5.5-6.2-2.4.6-8.3-.1-10.8-.7-1.3-.2-2-1-3-1.3-1.4-.4-2.7 0-4-.4-4.2-1.1-7.5-7.3-12.4-6.6 3.8-3.6-1.3-14.2 7.9-12.2 3.2.7 7.5 4.2 9.5 6.7 3 4 5.7 6.6 10.6 8 4.4 1.3 7.2 1 11.4-.4-4-1-3.6-4.4-2.2-7.3 1.6-3.3 4.4-4 7.6-6.2 3.8-2.6 6.8-5.6 10.1-8.7 2.2-2 5.3-3.6 7-5.8-7.3.2-14-1.8-21.1-3-4.2-.7-8.2.8-12.4.8-1.2 0-2.3 0-3.3-.7-1-.6-1.5-2.6-2.4-2.7-1.7-.2-5 4.3-6.8 5-4 1.8-6 .5-4.4-3.7 1-2.4 1-5.5 3.2-5.9 2-.3 3.6 1.6 5.3 2 1.8.6 4.6.5 6.5.2a34 34 0 0 0 16.6-7c1.8-1.3 9-4.2 8.3-6.7-2.6.8-5 1.5-7.8 1.2-1.9-.2-3.5-.8-5.4-.5 0-3.8-6.7-3.7-9.2-3.4-1.4 0-4.7.9-5.8-.8-.8-1.2-.1-1.9 1.5-1.9-3.6-6.3 5.3-5.8 8.9-4.6 2.1.7 4.4 2.4 6.5 2.6 2 .3 2.9-.8 5 0 2.8 1 3.4 2 6.7 1 3.7-1 7.7-2.9 10.6-5.4 2.7-2.3 11-11.4 8.3-15.3-2.4 2.7-5.5 5.4-9.5 3.7-2-1-3-2-5.3-2.6-1.3-.4-3 1.4-2.6-1.8 3.7-1.7 7-1.5 10.8-2.4 5-1.3 5.4-5.9 6-10.5.4-4.3 2-8.6 4.2-12.4 1.6-2.7 4.4-4.7 5.8-7.4-4.2-.4-10.2 3.1-14 4.6z" fill="#526A32" mask="url(#b)"/></g><path d="M197.9 4.7l-.2.2-.5.6-1.9 2.1-3 3.5-3.9 4.7a221.8 221.8 0 0 0-20 29.9 202 202 0 0 0-10.8 23l-.3.6-.3.7-.5 1.4-1 2.7-1 2.8-3.8 11.2a293 293 0 0 1-8.4 21.8l-4.6 10-3.9 9.7-6.2 16.6-4.5 12.4a91 91 0 0 0-4.1 15l-.4 2-.1 1-.1.6-.5 1.9c-.3.7-.8.7-1.5.6-.4 0-.6.2-.7-.3 0-.5 0-1.8.4-4.8a65.8 65.8 0 0 1 4.1-14.4l4.7-12.1a2166.6 2166.6 0 0 0 10-26.3l4.6-10.2a209.6 209.6 0 0 0 8.9-21.7l4-11.5A212.8 212.8 0 0 1 177.6 29 211.3 211.3 0 0 1 198 4.7" fill="#688538"/><path d="M250.6 86.3l-.2.2-.4.5-1.5 1.8-1.2 1.3-1.4 1.5a1387.9 1387.9 0 0 1-3.6 3.6l-2.1 2.1-2.5 2.2-1.3 1.1-1.3 1.2-2.9 2.3c-4 3.2-8.6 6.5-13.6 9.9-5 3.3-10.5 6.6-16.1 9.9l-17.3 9.6c-5.9 3.1-11.6 6.3-17.1 9.4-5.6 3-10.8 6.1-15.6 9-4.7 3-8.7 5.8-12.2 8.3l-2.5 1.9-1.1.9-1.1.8-4 3.3-1.7 1.4-.8.7-.7.7-2.6 2.4-1.1 1.1-1 1-1.6 1.6c-3.8 4-4 3.6-5.1 2.6-.7-.6-1.2 0 2.3-3.6l.8-.7.8-.7 2-1.9 2.6-2.3 3.2-2.7c2.3-2 5.2-4.2 8.6-6.7l2.7-1.9 3-2 3.1-2.1 1.7-1.2 1.8-1c4.7-3.1 10-6.2 15.6-9.4l17.4-9.4 17.8-9.5a335.3 335.3 0 0 0 24-14.7l3.5-2.4 3.2-2.4 3-2.4 2.8-2.2 2.5-2.2 2.3-2 2-2 1.8-1.7L247 90l1.2-1.3 1.7-1.8a177 177 0 0 1 .7-.6" fill="#688538"/><path d="M230.3 166.8l-.5.2-1.6.4-2.7.6-3.5.6a382.7 382.7 0 0 1-21 1.7c-4.2.2-8.7.4-13.2.9l-3.4.3-3.4.5-6.8 1a182 182 0 0 1-13.6 2c-4.4.5-8.6.8-12.5 1.1-7.9.6-13.7 1.3-18 2-4.3.7-7.1 1.4-9 1.8-3.7.9-3.7.5-4-1-.3-.8-.8-.7 2.6-1.4 3.4-.6 10.8-1.9 26.5-3 7.9-.7 17.1-1.2 26.4-2.8l7-1 3.5-.5 1.7-.2 1.8-.1c4.6-.4 9.2-.5 13.5-.6l12-.4a150.3 150.3 0 0 0 18.2-2" fill="#688538"/><path d="M204 201.1l-.5.1-1.3.3-2.1.3-1.4.1h-.7l-.8.1a103 103 0 0 1-16.8-1.2l-10.4-2-10.9-2.2c-3.6-.7-7.2-1.4-10.7-2.5a37.9 37.9 0 0 1-9.3-4.2l-7.2-4.1c-2.1-1.1-4-1.9-5.6-2.4-3.2-1.2-5.4-1.3-6.8-1.4a18.6 18.6 0 0 1-1.6-.1 2 2 0 0 1-1-.3c-.3-.3-.3-.7-.4-1.4 0-.5-.2-.7 0-.8a26 26 0 0 1 12 2.6l3.1 1.5 7.2 4.1a55 55 0 0 0 9 4.4c3.3 1.2 6.9 2 10.6 2.8l11 2.5 10.5 2.3a114.7 114.7 0 0 0 17.1 2l3-.1 2-.2a77.2 77.2 0 0 1 2-.2" fill="#688538"/><path d="M155.8 226.3l-1-.6-1.2-.8-1.5-1.1a102 102 0 0 1-26.4-29.3l-2.8-4.7-2.2-3.5-2.8-3.8c-.6-.8-.8-1.2-.7-1.6 0-.4.4-.7 1-1.1l.5-.5a81 81 0 0 1 5.4 8.8l2.7 4.7a117 117 0 0 0 25.5 30.5c.6.5 1 1 1.5 1.3a510.6 510.6 0 0 1 2 1.7M57 44.5l.2.8.2.9.4 1.2A53.4 53.4 0 0 0 63 59.9l3.1 5.7c2.2 4 4.7 8.4 6.6 13.5 1 2.5 1.8 5.2 2.6 7.8l.3 1 .4 1 .6 2 1.5 4.2 1.6 4 1.7 4.1c.3.7.5 1.4.9 2l.9 2 .9 2 1 2 1.9 4 2 4 3.8 7.6a44384.2 44384.2 0 0 1 13.7 26.1l2.4 4.8 2 4.1 1.7 3.6 1.4 3 1.8 4.3c1.8 4.6 1.3 4.7 0 5.2-.8.3-.6.9-2-3.2l-.7-1.8-.8-2.3-2.6-6.2-.8-2a68.2 68.2 0 0 0-3.2-6.8l-2.7-5.5-3.2-6.3-7.6-14.4c-2.6-5-5.3-10.3-7.8-15.8l-1-2c-.3-.8-.6-1.5-1-2.1l-1.8-4.2-3.3-8.4c-1-2.8-2-5.6-2.8-8.4-.9-2.8-1.6-5.5-2.5-8-1.7-5.2-4.1-9.8-6.3-14-2.2-4.1-4.1-7.8-5.5-11L58.6 51 58 49l-.4-1.6-.2-.7v-.6l-.3-.9v-.6c0-.1-.1-.2 0-.2M133.3 35.1v1.6c-.2 1-.3 2.5-.4 4.3-.3 3.6-.8 8.7-.3 14.4.3 2.9.8 5.8 1.5 8.9.7 3 1.5 6 2 9.2 1.3 6.3 1.6 12.6 2 18a120.7 120.7 0 0 0 1.6 12.2l.4 2 .5 1.6.2.6.2.7.3 1c.8 2.4.4 2.5-1 3-.7.4-.6.7-1.3-1.6-.6-2.4-1.9-7.4-2.6-18.2l-.6-8.7c-.2-3-.5-6.2-1-9.4-.5-3.1-1.3-6.3-1.9-9.4a68.6 68.6 0 0 1-1.3-17.6 105.2 105.2 0 0 1 1.7-12.6" fill="#688538"/><path d="M29.3 104.5l.4.4 1.3 1.3a240.5 240.5 0 0 1 10 12.7c2.3 3 4.7 6.3 7.5 9.5 2.9 3.3 6 6.6 9.4 10 3.4 3.3 6.7 6.8 10.3 9.8 3.6 3.1 7.7 5.6 11.6 7.8l11.4 6.4 9.4 5.2c2.8 1.5 5.1 2.5 7.3 3.3 2.2.8 4 1.8 5.3 2.7l3.2 2.1c1.7 1.1 2.4 1.8 2.7 2.3.2.4 0 .8-.4 1.4-.3.4-.3.7-.6.6l-2.4-1.6-2.8-2.1a32.2 32.2 0 0 0-5.3-3.2l-.8-.3a53.4 53.4 0 0 1-5.6-2.7l-9.3-5.3-11.5-6.4c-4-2.3-8.2-4.8-12-8-3.9-3.2-7.3-6.8-10.6-10.2a129 129 0 0 1-17-20.4l-5.8-8.2c-1.7-2.3-3.1-4-4.2-5.2l-1.1-1.4-.4-.5M23.4 166.5l.4.2 1.3.7 4.8 2.3a100 100 0 0 0 16.8 5.8L52 177a97 97 0 0 0 11 2.3 63 63 0 0 0 11.7.1 6530.9 6530.9 0 0 0 31.5-1.1l7.6-1c1.6-.3 2.4-.3 2.8 0 .5.1.5.6.7 1.3.1.8.6.8-2.3 1.1-3 .3-9.3 1-22.6 1.1l-10.7.2-5.7.1h-6a73.2 73.2 0 0 1-12-1.1 78.2 78.2 0 0 1-11-3.2 186.8 186.8 0 0 1-17.1-6.6c-2.1-1-3.7-2-4.9-2.6l-1.2-.8-.4-.3" fill="#688538"/><path d="M64 209.4l1.2-.5 3.1-1.4c2.7-1.1 6.4-2.7 10.4-4.9a54 54 0 0 0 9-6l2.7-2.5a62 62 0 0 1 6-4.7 71 71 0 0 1 6-3.4c15.3-7.8 14.5-8.8 15.8-6.3.8 1.6 1-.4-14.1 7.5a101.5 101.5 0 0 0-9.1 5.3l-3 2.3-2.9 2.5a45.5 45.5 0 0 1-9.5 6.1 95.5 95.5 0 0 1-15.5 6M200.1 39.3l-.1.2-.5.5-.7.7-1 1a39.6 39.6 0 0 1-6.6 4.8 64 64 0 0 1-9.5 4.4c-3.4 1.3-6.8 2.3-9.7 3.2-2.9.9-5 1.7-6.5 2.4s-2.4 1.4-3 1.8l-1 .5c-.3 0-.5-.2-.7-.5-.3-.4-.5-.3.7-1a38 38 0 0 1 9.6-4 88 88 0 0 0 19.5-7.2 41.9 41.9 0 0 0 8-5.5l.8-.7.5-.4.2-.2M187.5 26.5l-.5.6a13.7 13.7 0 0 1-6.4 3.5l-1.7.3-1 .2c-.3 0-.3-.3-.4-1 0-.5 0-.5.3-.4h2.5a17.5 17.5 0 0 0 4.7-1.8c1.5-.7 2.5-1.5 2.5-1.4M155.8 10.8v1l-.3 3a153.2 153.2 0 0 0 1 34.4l.1 1.3.2 1.2.4 2.2.8 3.5.6 2.5.4 1.7c.4 1.7.1 1.7-.6 2-.5 0-.4.3-.7-1.3l-.3-1.6-.4-2.4a129.3 129.3 0 0 1-1.3-46.5v-.7l.1-.3" fill="#688538"/><path d="M174 14.6l.3 1.2.3 3.1.3 4c0 1.3.3 2.6.6 3.7.2 1 .7 1.7 1 2.1l.3.3.2.2.4.4c.3.3.2.4-.2 1-.2.5-.2.6-.6.1l-.4-.4-.5-.7c-.3-.6-.8-1.4-1.1-2.5a16 16 0 0 1-.6-4v-4a227.2 227.2 0 0 1 0-4.5M185.5 75l-.1.2-.4.7c-.4.5-1 1.3-2 2a19 19 0 0 1-3.6 2.5 59 59 0 0 1-7.7 3.4l-2.9 1.3a65 65 0 0 0-20.9 16.6l-.9 1-.6 1c-.5.5-.8 1-1 1.4-1.1 1.4-1.3 1.2-1.9.8-.4-.3-.5-.1.5-1.4l1-1.2.7-.8.4-.5.5-.6 1-1.2 1.4-1.4 3.4-3.4a65 65 0 0 1 21.4-13.2L179 80c1.5-.7 2.8-1.5 3.8-2.3 1-.7 1.6-1.5 2-2l.7-.8M172.3 108.6l-.2.2-.4.5c-.3.5-1 1.1-1.8 1.8l-3.3 2-4.4 2a168.6 168.6 0 0 0-25.1 14.8l-3 2.2c-1.3 1-1.4.8-1.9.2-.3-.4-.4-.3.7-1l3-2 6.2-4a150.3 150.3 0 0 1 19.6-10.6l4.5-2c1.4-.6 2.5-1.2 3.4-1.8 1-.6 1.6-1.2 2-1.6l.5-.5.2-.2M198.7 84l-.2.3-.7.7-2.4 3a66.7 66.7 0 0 0-10.3 17.7c-1 2.5-2 5.1-2.8 7.7A136.5 136.5 0 0 1 176 128a131.3 131.3 0 0 1-8.5 14.2c-1.4 1.9-1.6 1.7-2.2 1.3-.3-.3-.5-.1.8-1.7.6-.8 1.6-2 3-4.1l1.2-1.8 1.3-2a88.3 88.3 0 0 0 6.4-12.3l3-7.7 3-7.9a79 79 0 0 1 7.4-13.5c1.3-1.8 2.5-3.4 3.6-4.6l2.6-3 .8-.6.2-.3" fill="#688538"/><path d="M111 88.5v.3l.3.7.2 1.1.4 1.5.6 1.7.7 2 1 2.3a115.8 115.8 0 0 0 6.4 12.5l5.7 9.6c6.8 11.5 7.2 11 6 11.9-.9.4.3.7-6.5-10.8l-5.7-9.8a108.4 108.4 0 0 1-7.2-15.3l-.7-2.1-.5-1.9-.3-1.5-.3-1.2v-.7l-.1-.3M224 82.6l-.7.6c-.4.4-1 1-1.5 1.8l-4 6.7a74.3 74.3 0 0 0-6.4 13.5l-1.2 4.5c-2.9 11.3-2.2 11.4-3.7 11-1-.2-.3.7 2.6-10.6a91.1 91.1 0 0 1 3-9.4c1.4-3.3 3.2-6.4 5-9a197.8 197.8 0 0 1 6-8.6 5.3 5.3 0 0 1 .8-.5M222.4 145.5l-.2.2-.7.5a6.7 6.7 0 0 1-3.5 1l-.5.1h-1.2c-.8 0-1.7-.2-2.6-.4-1.9-.3-3.9-.9-6-1.2-4.3-.8-9.2-1-14-.5l-7 .9a25.3 25.3 0 0 1-6.7-.5l-5.3-1.4-3.9-.6a12.3 12.3 0 0 0-4.4.6l-1 .4-.6.1c-.2 0-.4-.2-.6-.5-.1-.2-.3-.2-.2-.4a4 4 0 0 1 1.4-.7 13 13 0 0 1 4.7-.7c1.2 0 2.5.3 4 .6l5.2 1.5a25 25 0 0 0 6.5.7c2.3-.1 4.7-.5 7.1-.8a47.4 47.4 0 0 1 14.5.6c2.2.4 4.2 1 6.1 1.5 1.8.4 3.5.6 4.9.5a7 7 0 0 0 3-.9l.8-.5.2-.1M246.7 121.9l-.2.1-.6.4-1 .6-.5.4-.7.3c-2 1-5 2-8.6 2.6a64.5 64.5 0 0 1-8.5.9h-3a13.5 13.5 0 0 1-5.8-1.1c-.8-.4-1.7-.8-2.5-1l-1.2-.5-1.2-.3a19.8 19.8 0 0 0-7.4-.3c-1.8.2-3 .6-3.7.8-.8.2-1.2.3-1.4.2-.2 0-.3-.3-.5-.6-.1-.5-.3-.4 1.1-.8a27.3 27.3 0 0 1 11.4-.4 21.3 21.3 0 0 1 5.2 1.7c.8.4 1.7.8 2.6 1 1 .3 1.9.5 2.9.5h3a190 190 0 0 0 8.6-.6 39.2 39.2 0 0 0 8.8-2.3l1.3-.6 1-.6.7-.3.2-.1M169.6 161h-.5l-1.4-.5a72.3 72.3 0 0 0-23.7-3c-.3 0-.5-.2-.7-.3-.2-.1-.2-.3-.2-.4 0-.3.2-.4.5-.6l.3-.2h.2l.6.2h1.3l4.2.3a60.2 60.2 0 0 1 17.5 3.7l1.4.6.5.3M148 140l-1.4.9-3.6 1.8-4.6 2.2a33.4 33.4 0 0 1-4.8 1.6c-3 .5-4.7.3-5.4.2-.8-.2-.7-.5-.5-1.2.2-.5 0-.5.6-.3l.3.1.3.1.4.2h.5c.8.2 1.9.2 3.3 0 1.4-.3 3-.8 4.7-1.4l4.8-2a370.4 370.4 0 0 1 5.4-2.1M102 68.2v.3l-.1 1c0 .4 0 .9-.2 1.4l-.2 2a127.3 127.3 0 0 1-2 11.4l-3.2 14.5a143.1 143.1 0 0 0-2.7 19.9l.1 4.2c0 1.2.2 2.2.3 3l.2 2c.3 2 0 2-.7 2.2-.4 0-.4.4-.6-1.5a79 79 0 0 1 0-14.7c.4-4.4 1.3-9.4 2.4-14.5 1-5 2.4-10.2 3.5-14.8a197.5 197.5 0 0 0 3.2-16.4M113.7 131.3l1.2.8a45.5 45.5 0 0 1 6.2 5.4l2.9 3.5c3.2 4.3 3.7 3.9 2.5 4.8-.8.6.1.3-3.1-4l-2.8-3.6c-1-1.2-2-2.4-3.1-3.4l-2.7-2.5-1.1-1M78.2 54s-.4 1-.5 2.4V59l.6 3.2a26.8 26.8 0 0 1 .2 7.5c-.3 2.5-.8 5-1.4 7.1a465.7 465.7 0 0 0-2 7.4c-.4 1-.6.9-1.3.6-.4-.2-.5-.1 0-1l.9-2a61.2 61.2 0 0 0 3-19.3c0-1.2-.2-2.3-.3-3.3v-2.8c0-.7.3-1.3.5-1.7 0-.3.2-.4.2-.5l.1-.1M45.8 77h.7a13.7 13.7 0 0 1 2 .3 32.4 32.4 0 0 1 13.8 5.2l3.5 2.4 3.3 1.9c1.1.5 2 1 3 1.3l2.1 1.3c1.2.8 1.9 1.5 2.3 2 .4.5.5.9.4 1 0 .3-.3.4-.6.6-.2 0-.3.2-.4.1l-.1-.2-.3-.4-.2-.4-.3-.4-.5-.6a10.5 10.5 0 0 0-2.5-1.8c-.8-.5-1.7-1-2.8-1.4l-3.5-2c-1.2-.7-2.3-1.6-3.5-2.4A35.2 35.2 0 0 0 45.8 77M53.3 58.1l.8.5 1.7 1.2c.6.5 1.4 1 2.2 1.3l2.2.9 1.7.1.7-.1c.4 0 .4.2.6 1 0 .4.1.4-.3.4a44.6 44.6 0 0 1-2.7-.5c-.8-.1-1.7-.5-2.5-1a23 23 0 0 1-4.3-3.8M42.2 93.2l.3.3.7.7 2.9 2.7 9.7 9c3.8 3.7 8.3 7.5 12.8 11a130.7 130.7 0 0 0 15 10.3l1.6.8 2.6 1.4 4.4 2.3c2.4 1.4 4 2.6 4.8 3.5 1 .9 1.2 1.4 1.3 1.7 0 .4-.1.5-.4.7-.2.2-.3.3-.4.2l-1-1.3c-.8-.7-2-2-4.1-3.4-2.2-1.4-5.5-3-9.8-5.4-4.3-2.5-9.1-5.8-13.8-9.5-4.6-3.7-9.1-7.7-13-11.4a393.5 393.5 0 0 1-12.6-12.5l-.8-.8-.2-.3M69 131.8l.3.2 1 1 1 1.8a71.5 71.5 0 0 1 5 13.4l1.6 6c.1.8-.1.8-.9 1-.4 0-.4.1-.5-.6 0-.8-.1-2.4-1-5.8a99.2 99.2 0 0 0-5.4-15.6c-.6-1-1.2-1.3-1.2-1.4M25.1 124.2l.5.1 1.4.5a75.8 75.8 0 0 0 7.7 2.2l3.2.7 3 1 2.7 1.3c1.6.8 2.9 1.2 3.8 1.2h2c.3-.1.5-.2.7 0l.4.7c0 .2.1.3 0 .4l-.6.2a8 8 0 0 1-2.3 0c-1-.2-2.4-.6-4-1.4-1.7-.8-3.6-2-5.7-2.5l-3.1-.8a56.1 56.1 0 0 1-9.7-3.6" fill="#688538"/><path d="M32.5 138.4l.3.2.6.4 2.2 1.7c2 1.4 4.6 3.5 7.8 5.4a42.2 42.2 0 0 0 17 6.3l5.5 1.2c14 2.9 14 2.2 13.6 3.7-.2 1 .9.3-13-2.6a17482.4 17482.4 0 0 1-11.7-2.7 40.3 40.3 0 0 1-11.4-5.2 85.6 85.6 0 0 1-10-7.7l-.7-.5-.2-.2M42.6 184.8h.7a64 64 0 0 0 7.3 0 44 44 0 0 0 7.1-1.4c2.4-.6 4.7-1.5 6.7-2.1a53.4 53.4 0 0 1 7.4-1.8c1 0 1 .2 1 1 0 .4.2.5-.7.4h-2.3a19.3 19.3 0 0 0-4.6 1.2c-2 .6-4.4 1.5-6.9 2a40 40 0 0 1-15.7.7M120 209.5l-.2-.1-.3-.3c-.3-.3-.6-.7-.9-1.4-.2-.6-.4-1.5-.4-2.4 0-1 0-2 .2-3.2l.7-7.2.3-3.6c0-1.1-.1-2.2-.4-3.1a18 18 0 0 0-.9-2.6l-.8-1.9-1-2.3c-.3-1 0-1 .7-1.3.4-.1.4-.2.6.6 0 .5.3 1.2.6 2.2l.7 2 1 2.6c.2 1 .5 2.2.5 3.4a26 26 0 0 1-.4 3.8l-1 7.3a28.2 28.2 0 0 0-.3 4.5c0 .4 0 .8.2 1 .1.8.4 1.2.7 1.5 0 .2.2.3.2.3l.1.2M56.4 164l.4.1 1.1.8a92.9 92.9 0 0 1 12.4 9.7l4.2 4c.5.6.3.8-.2 1.3-.3.3-.3.4-.7-.2-.5-.6-1.4-1.8-3.8-4.1a162.9 162.9 0 0 0-12-10.5l-1-.9a2 2 0 0 1-.4-.3M73 170.5l.2-.3 1-.8c.7-.7 2-1.3 3.7-1.7 1.6-.4 3.5-.6 5.3-.7a55 55 0 0 0 8.4-1.2l1.7-.6c.8-.2.8 0 1 .8.2.4.3.4-.4.5l-1.7.3-3.5.6a39 39 0 0 1-5.2.5c-1.9 0-3.7 0-5.3.3a13.3 13.3 0 0 0-3.9 1.4c-.9.5-1.3 1-1.4.9" fill="#688538"/><path d="M97.4 209.8s0-.2.4-.6l.4-.6.6-1 1.2-2.6c.4-1 .9-2 1.3-3.3l1.6-3.6a34.6 34.6 0 0 1 4.6-7.1l1.2-1.5 1.3-1.4 3.8-4c.9-1 1.5-1.7 2-2 .8-.8 1-.7 1.5-.1.3.3.4.2-.4.9l-2 1.7a55.7 55.7 0 0 0-11.2 13.5l-1 1.8-.7 1.9-1.5 3.3-1.5 2.6-.6 1a27.8 27.8 0 0 1-1 1.1M164.7 208l-.4-.2-1-.6c-1-.5-2.1-1.3-3.4-2.2a59.3 59.3 0 0 1-7.7-6.8c-2-2.2-3.2-3.2-3.6-3.8-.5-.5-.3-.7.2-1.2.4-.3.3-.4.7.2.4.5 1.1 1.7 3.2 3.9a91.5 91.5 0 0 0 10.7 9.6l1.3 1M178 185.1l-1.5-1a22 22 0 0 0-3.9-2.2l-5.2-2c-1.8-.6-3.6-1.3-5.1-2-6-2.5-6.3-1.8-5.7-3.3.4-.8-.3-.2 5.7 2.3l5.1 2.1 5.3 2.3a25 25 0 0 1 4 2.5 11.7 11.7 0 0 1 1.3 1.3" fill="#688538"/><path d="M173.6 187.6h-1.9a40.2 40.2 0 0 0-10.3 2.6l-5.2 2.5-3.6 1.8c-.8.5-1.2 1-1.5 1.2l-.6.3-.7-.4-.3-.3.5-.5c.3-.3.9-.7 1.8-1.1.8-.5 2-1 3.6-1.7l5.5-2.4c2-.8 4-1.4 5.9-1.8 1.9-.3 3.6-.4 4.9-.4h.8l.6.1.5.1M153 163.9l-.5 1.2-1.5 2.8c-.8 1-1.8 2.1-3 2.9l-2 1-1.5.8c-1 .5-1.6 1.1-2 1.5l-1 1c-.3.4-.5.3-1-.2-.5-.3-.5-.3-.1-.6l1-.9c.6-.4 1.3-1 2.4-1.6.5-.3 1-.6 1.7-.8l1.9-.9a9.2 9.2 0 0 0 3-2.5l1.8-2.6a8 8 0 0 1 .8-1.1M169.7 167.2l-1.1 1.6c-.6.8-1.2 1.9-1.6 2.7-.4.8-.4 1.3-.5 1.4-.1.2-.3.2-1 0-.5-.2-.5-.2-.4-.4.2-.2.5-.5 1-1.4.5-.9 1.3-2 2-2.7a5 5 0 0 1 1.6-1.2M186.5 153.9l-.2.9a6 6 0 0 1-1.3 1.9l-2.2 1.9-2.3 1.6c-2.8 2-2.4 2.4-3.2 1.2-.5-.8-.2 0 2.5-1.9l2.4-1.5 2.3-1.7a7 7 0 0 0 1.5-1.6l.5-.8M68.7 104.6l1.2.2c.7.2 1.7.2 3 .2a20.7 20.7 0 0 1 10.7 3.2c.4.4.3.5-.2 1.2-.2.4-.2.4-.5 0-.2 0-.4-.3-.9-.7l-2.1-1.2a23.7 23.7 0 0 0-7-2c-1.2 0-2.3-.2-3-.4-.8-.2-1.2-.5-1.2-.5M85.2 91l-1.7 2.5a18.5 18.5 0 0 0-2.3 6.6v.9c0 .3-.3.3-1 .3-.5 0-.6 0-.4-.4a18.1 18.1 0 0 0 .8-2.6 15.6 15.6 0 0 1 3.9-6.7l.7-.6M88 144.4H89l2.8 1.1c1.1.6 2.3 1.3 3.5 1.8 1.1.5 2.4.8 3.4 1 1 .3 1.9.4 2.5.4h1.2c.6 0 .6.3.6 1 0 .5 0 .5-.4.4l-1.3-.2-2.6-.5c-1.1-.3-2.4-.7-3.6-1.3-1.3-.6-2.4-1.4-3.5-2a17.5 17.5 0 0 0-2.6-1.3l-1.2-.4M107.7 121.3V123.2c-.2 1.1-.7 2.7-1.4 4.4-.7 1.7-1.6 3.6-2.1 5.5a35.2 35.2 0 0 0-1.4 9.5v2c0 .9-.3.8-1 .8-.5 0-.6.1-.4-.6l.3-2 .4-3.9c.2-1.7.5-3.7 1.2-5.8.6-2 1.6-3.9 2.4-5.6.8-1.7 1.4-3.2 1.7-4.3l.3-1.9M138.8 151l-1.5.5a34 34 0 0 0-3.7 1.4l-2 1.3-.4.4-.4.5-.4.5-.3.5-.7 1c-.3.5-.7.8-1.1 1l-1.1.6-1 .4c-5.5 2.3-5.2 2.9-5.8 1.5-.3-.9-.3 0 5-2.2l1-.5 1.2-.5a3.9 3.9 0 0 0 1.7-1.6l.8-1 1-1c.6-.6 1.4-1 2.2-1.4a19 19 0 0 1 5.5-1.4M168 68.4l-1.2.2a7 7 0 0 0-2.5 1.3 25 25 0 0 0-2.6 2.3 13.7 13.7 0 0 1-4.1 2.9l-1 .3a4 4 0 0 1-1.5 0c-.6 0-.5-.3-.3-1 0-.5 0-.5.4-.3l1 .2c.5 0 1.2-.2 2-.6a15 15 0 0 0 2.8-2c1-.8 2-1.7 3-2.3a6.8 6.8 0 0 1 3.2-1 2.3 2.3 0 0 1 .7 0M53 119l.4-.4.5-.4.6-.5.8-.5 1-.5c.8-.4 1.6-.7 2.6-.8 1.9-.4 4-.2 6.1.3 2.1.4 4 1.3 5.7 2.1a56.2 56.2 0 0 1 5.3 3.3c.7.5.6.7 0 1.3-.2.4-.1.5-.7 0l-1.4-1.4-3.3-2.2c-1.6-.8-3.5-1.7-5.5-2.2-2-.6-4.1-.9-6-.7-1 .1-1.8.3-2.5.6l-.6.2-.5.3-.4.2-.4.2L53 119M149.3 145c.1 0-1 4.8-2.3 7.6-1.1 2.7-.5 3-2 2.3-.8-.3 0 .2 1-2.6 1.3-2.7 3.2-7.4 3.3-7.3M83 187.7l2.1-2 3.6-3.7c1-1 1.4-1.7 1.7-2 .2-.3.4-.1 1 .4.4.3.4.2.1.4l-2 1.8a32.4 32.4 0 0 1-6.5 5.1M99 192.6l-.4-1-.5-1.2c-.1-.4-.4-.4-.4-.5l.8-.7c.4-.2.4-.2.4 0v.8c.3.5.4 1.1.3 1.7 0 .5-.2.9-.3.9M85 174.1h.8a13.3 13.3 0 0 1 4.8 1.1c.9.4 1.7 1 2.2 1.6l.8.8.5.7.3.6.1.3c.2.5 0 .5-.8.7-.4.2-.4.2-.5-.1v-.3-.5c-.2-.4-.4-.9-1-1.4a8.4 8.4 0 0 0-2-1.6 13 13 0 0 0-2.4-1c-1.5-.6-2.8-.8-2.8-.9M45.7 114.5l.4 2.6a52 52 0 0 1 .3 4.9c-.2 1.5-.7 2.4-1 2.7-.3.3-.5 0-1-.5-.3-.4-.3-.4 0-.5 0 0 .2 0 .4-.3s.5-.7.6-1.4v-2.3a5527 5527 0 0 0 .3-5.2M240 104.9s-.9.7-2.2 1.2a8.6 8.6 0 0 1-6.1-.1l-.8-.3c-.3-.2-.2-.4.2-1 .2-.5.2-.5.4-.3 0 0 .2.3.5.4l1.3.6a9.7 9.7 0 0 0 4.3.1c1.3-.2 2.3-.7 2.3-.6M232.5 96.3v1.9a19.9 19.9 0 0 0 .9 4l.2.4c0 .2-.2.3-.9.6-.4.2-.4.2-.4 0l-.2-1.7c-.2-1-.3-2.3-.1-3.3.1-1.1.4-1.9.5-1.9" fill="#688538"/><g><path d="M206.7 161c-1-1.9-3.1-5.6-5.4-6.2l-1 1.4c-.5.4-1.3.3-1.4 1-.3.8 1.9 2.7 2.4 3.3 1 1 2 2 3.1 2.8.9.8 2.1 2.9 2.5 1.2.2-1 .2-3.4-.2-3.5M172 124.6c.9-.7 1.9-2.7 3-2.7 2.4 3 .6 3.4.2 4-1.1 1.3-2.9-1.5-3.8-2.3 1.9-.4 2.5-.9 2-3 .7.4 1.3.6 1.7 1.2" fill="#526A32"/><path d="M148 86.4c4 4.2 5.3 10.3 8.6 15-.7.4-1.9-.6-2.5-.8l-3-.9c-.5 0-1.1-.3-1.6 0-.5.1-.8.7-1 1.2-.4.8-1 2-1.2 2.9-.1 1 0 1.7.6 2.6.7 1 .6 1.8-.1 2.9-1.2 1.7-4.3 2.9-6.3 3-1.7 0-3.5-.6-5.1-.7-1.2 0-1.2-1-.2-1.4 2.8-1.1 6.6-.6 9-2.8 1.3-1.2 1.2-3.4 1.3-5.1.2-1.4 1.3-2.3 1.5-3.6.2-1.5-.5-3-.3-4.5a15 15 0 0 0 0-5.3c-.3-1.2-.7-2-.1-3.2.3.3.2.7.4 1 .3.3.7.4.8.8" fill="#6557A5"/><path d="M138.8 110.2c-2.4-.4-1.3 3.3-3 3.7-.9.2-1-.8-1.5-1.1-.7-.5-1.5-.2-2-.7.1-1 1.6-3.2 2.7-3.4.7 0 3.9 1.4 3.8 1.5" fill="#6557A5"/><path d="M91.7 117.1c-1 .8-2.6 1.6-3.4 1.4-.8-.3-.6-1.3-.2-1.7.7-.6 1.6 0 2-1.2l.1-.3 1.6-.9 4-2.1 3-.6c1.4-.4 2.7-1.3 4.1-1.9 2-.7 3.8-1.3 5.7-2.3 3.8-2 8.2-3 12.4-3.9 1.2-.2 3.9-.5 4.4-2l.7-.1c.8 0 1.3.2 2.3.8 1.5 1 3 1.8 4.9 1.4 1-.2 2-.6 3-.3.7.2 1.3 1 2 1 .8.1 1.8-.4 2.6-.6 2.5-1 4.2-2.6 5.7-4.7.3-.4.8-1.3 1.5-2h.2c.5.9 1.3 1.8 1.9 1.6.2-.2.3-.8.2-1.5.6 1 .3 3.5.5 4.5a29 29 0 0 0 2.5 8c.6 1.2 1.7 3.5-.8 2.7l-1-.5h2.2c.2 0 0 0-.1-.1l-4.4-1c1 .2 1.6.7 2.3 1.1-1.4-.1-2.8-.4-4.2-.8l-3-2.1a9.5 9.5 0 0 0-4.4-2c-1.5-.2-2.9.1-4.1.8-1.2-1.3-7.3-.6-8.4-.5-5 .2-10.6-1.2-15.3.8-1.9.8-3.2 2.7-5 3.8l-1.2.5c-1.8.7-3.7 1-5.5 1.7-1 .4-2 1.3-3.1 1.6-1.4.4-2.7-.9-4.2-.7-.8.1-1.4.4-1.5.8-.4-.2-.9-.3-1.4.1l1.4 1.2" fill="#6557A5"/><path d="M107.5 122c-3.3-.4-6.4-1.4-9.7-2.2-2.4-.7-4.3-1.2-6.1-2.7.2 0 .3-.2.5-.3l.3.2a38.5 38.5 0 0 0 15.7 4.7c2.6.2 5.2.2 7.7-.7 3-1 5.8-3.2 8.9-4 1.4-.5 2.3-.1 3.5.5l1.3.6.3.2h1.1v.2l-2.5-.2c-2.5-.1-4-.1-6.1 1.1a23.8 23.8 0 0 1-14.9 2.6" fill="#8876B6"/><path d="M108.2 121.7a38.5 38.5 0 0 1-15.7-4.7l-.3-.2a8.2 8.2 0 0 0 .7-.6c.4 0 .7-.1 1-.3.7.3 1 1.4 2.2 1.8.4.1.8.2 1.3.1.8 1.4 1.8 1.6 3.4 2a30.7 30.7 0 0 0 16.9.2c1-.4 1.9-.8 2.7-1.6 1-1 2.3-2.1 3.7-2.6 1-.4 2.3-.3 3.3.4.8.6 1.3 1.5 2.2 2l-1.3-.7c-1.2-.6-2-1-3.5-.6-3 1-6 3-9 4.1-2.4 1-5 .9-7.6.7" fill="#8876B6"/><path d="M100.8 119.8c-1.6-.4-2.6-.6-3.4-2 1.7 0 3.7-1.1 4.9-1.7 4.8-2.4 9.4-5 14.7-6.2h.2c1.9-.3 3.7-.4 5.6-.4 2 0 4.1-.4 6.2-.5v.5c-.1 0-.3 0-.4.2-1.8.7-3.7 1.5-5.3 2.5-1.6 1-2.6 2.5-4.2 3.6-.6-1-3 3-4 3.2.1-.7 1.9-2.6 1.6-3.1-.2-.6-1.2.2-1.6.4-1.3.7-1.1.5-2.1 0-1.6-.6-2.2-.2-3.6 1-1.3.8-3 1.5-4 2.6.5.4 2 .1 2.7.2h3a19.6 19.6 0 0 0 6.3-.7l.3.6-1.7.5c-5 1.4-10.2.5-15.2-.7" fill="#6557A5"/><path d="M92.2 116.8c-.2 0-.3.2-.5.3-.5-.3-1-.7-1.4-1.2.5-.4 1-.3 1.4-.1-.1.3 0 .6.5 1M108.1 120c-.7 0-2.2.3-2.8-.1 1.1-1.1 2.8-1.8 4-2.7 1.5-1 2.1-1.5 3.7-.8 1 .4.8.6 2.1 0 .4-.3 1.4-1.1 1.6-.5.3.5-1.5 2.4-1.6 3.1 1-.2 3.4-4.1 4-3.2 1.6-1.1 2.6-2.6 4.2-3.6s3.5-1.8 5.3-2.5c0-.2.3-.2.5-.2.6 0 1.6.3 2.6.6-1.8.3-3.2.6-4.3 2.2-.5.7-.6 1.5-1.5 2-.7.4-1.7.1-2.5.6-1 .5-1.8 1.7-2.7 2.4-1.1.9-2 1.7-3.3 2a19.6 19.6 0 0 1-6.4.8h-2.9M97.4 117.8a3 3 0 0 1-1.3-.1c-1.1-.4-1.5-1.5-2.2-1.8.4-.1.7-.3 1-.2 1.4 0 1.9 1.2 2.5 2.1z" fill="#8876B6"/><path d="M97.4 117.8c-.6-.9-1.1-2.1-2.5-2.1-.3 0-.6 0-1 .2-.3-.1-.6 0-1 .3h-.1c-.4 0-.8-.3-1.1-.4.1-.4.7-.7 1.5-.8 1.5-.2 2.8 1 4.2.7 1-.3 2-1.2 3.1-1.6 1.8-.8 3.7-1 5.5-1.7a54.7 54.7 0 0 0 1-.3c-.4.1-.7.4-1.1.6l-1.4.6c.5 0 1-.3 1.4-.6l5.3-2-.7.5c2.3-.2 4.4-1 6.7-1.3h-.2c-5.3 1.1-9.9 3.8-14.7 6.2-1.2.6-3.2 1.6-5 1.7" fill="#6557A5"/><path d="M92.5 116.5l-.3.3c-.5-.4-.6-.7-.5-1l1.1.4-.3.3M90.2 115.3c-.3.2-.7.2-1.1 0-1-.6-.7-1.6-1-2.5-.5-.8-1.3-1-1.8-1.7.6-2.5 2.1-5.3 4.8-4.6 3.3.9 6.3-.4 9.1-1.4l.5-.2.4.7a40 40 0 0 1-6.9 3c-2 .7-3.6 1.3-4 3-.2-.2-.2-.3-.1.2v-.2l.4.3c-.2 1.1 0 2.6-.3 3.4" fill="#8876B6"/><path d="M94 116l-1.1.2c.4-.4.7-.4 1-.3M91.8 114.4l-1.6 1c.2-.9 0-2.4.3-3.5l.2.1c.4.2 2.3.3 2.9.3a9 9 0 0 0 2.2 0l-4 2.1M117.7 120l-.3-.6c1.3-.4 2.2-1.3 3.3-2 1-.8 1.6-2 2.7-2.5.8-.5 1.8-.2 2.5-.6.9-.5 1-1.3 1.5-2 1-1.6 2.5-1.9 4.3-2.2-1-.3-2-.7-2.6-.6v-.5l2.8-.2c.7 0 1.7.2 2.5 0l-1.8 1.5c-1.4 1.4-1.7 2.4-1.4 4.4 0 .6.3 1.4.4 2 0 .8-.1 1.4-.4 1.6H130.3h-.1a1 1 0 0 1-.3 0l-.3-.1c-1-.5-1.4-1.4-2.2-2-1-.7-2.2-.8-3.3-.4-1.4.5-2.6 1.6-3.7 2.6a8 8 0 0 1-2.7 1.6M91 106.5c-2.6-.7-4.1 2-4.7 4.6a2 2 0 0 1-.4-1c-.2-1.1.4-2.3.9-3.4.3-.7 1.7-2.2 1.5-2.7-.2-.8-1.5-1-2-1.5 4 1.3 7.8 2.4 12.2 2.7l1.7-.1c-2.8 1-5.8 2.3-9.1 1.4" fill="#6557A5"/><path d="M93.6 112.3c-.6 0-2.5 0-3-.3l-.1-.1c.1-.8.4-1.5 1.2-1.6 1-.1 1.3 1.1 2.3.7.8-.4 1-1.7 2.1-1.8.8-.1 1 .4 1.7.4.6 0 1.3-.8 2-1 1.3-.6 3-.4 4.6-.7l-3 1.5-5.6 2.9a9 9 0 0 1-2.2 0" fill="#6557A5"/><path d="M91.7 110.3c-.8.1-1 .8-1.2 1.6l-.4-.3c.5-1.7 2.1-2.3 4.1-3a31 31 0 0 0 7-3c2.3-1.4 4.7-2.9 7.2-3.7 1.4-.5 1.9-1.6 3-2.4 1.5-1 2.4-1.4 2.2-3.2v-1l.4-.5c1.6.7 3 .8 3.6-.9l.6-2.1.6.7c1.1 1.5 1.6 2.6 3.6 3.2l1.1.4h-.4a4 4 0 0 0 1.8.3h.4v.2c-.3-.2-.5-.2-.6 0h2.9l-1.5.6c-2.6 1-5.4 1-8 1.7-2.6.8-5.2 1.9-7.7 3-2.6 1-4.7 2.6-7.1 3.8-1.7.8-4.9 2-5.9 3.5 2-.9 4.3-1.1 6.5-1.4 2.3-.4 3.7-1.3 5.7-2.4.4-.3.8-.4 1.2-.5l-3.2 1.7-3.2 1.3c-1.6.3-3.3 0-4.7.7-.6.2-1.3 1-2 1-.6 0-.8-.5-1.6-.4-1.1.1-1.3 1.4-2.1 1.8-1 .4-1.3-.8-2.3-.7M90.1 111.6v.2c-.1-.5-.1-.4 0-.2" fill="#6557A5"/><path d="M98.7 111.7c-.8.2-1.8.5-2.9.6l5.5-2.9 3-1.5a79.2 79.2 0 0 1 10.3-3.4l10.8-2.9c-.5 1.5-3.2 1.8-4.4 2-4.2 1-8.6 2-12.4 4-1.9.9-3.8 1.5-5.7 2.2-1.4.6-2.7 1.5-4.2 1.9M104.5 113.3l1.4-.6-1.4.6M111.2 110.7l-5.3 2 1-.6.4-.2c1.7-.8 3.6-1.6 5.5-2l-1.6.8z" fill="#6557A5"/><path d="M131 118.5v-.1l.2-.1c.5-.2.5-.8.4-1.5.1-1.7-.2-4.1.2-5 .5-1.3 1.6-1.8 2.8-2.4.4-.2 1.2-.5 1.4-1 2 .2 3.9.5 5.8 1l5.6 1.7 1.9 1.6c-.8-.7-1.6-.7-2.4-.9-1.4-.4-2.7-1-4.2-1.3-1.3-.2-2.6-.1-4 0-.4 0-1.1.3-1.5.1-.5 0-.6-.5-1-.7-3.2-1.4-4.6 4.2-4.4 6.3.1 1.6-.2 2.1-.8 2.3M131 118.4h-.7.7M110.5 111.2l.7-.5 2.5-1-1 .2a16 16 0 0 1 6.5-1.3c2.7.1 5.5-.3 8.3-.6 1.9-.2 6.2-1.5 7.8 0v.1l-.5.3h-3c-4.8 0-9.8.4-14.6 1.5-2.3.2-4.4 1.1-6.7 1.3" fill="#8876B6"/><path d="M107.3 111.9c1.7-1.1 3-3 5-3.8 4.6-2 10.2-.6 15.2-.8 1.1 0 7.2-.8 8.4.5l-.7.3c-1.5-1.6-5.8-.3-7.7 0-2.8.2-5.6.6-8.3.5-2 0-4.5.5-6.4 1.3-1.9.4-3.8 1.2-5.5 2" fill="#6557A5"/><path d="M113.7 109.7l-2.5 1 1.6-.8 1-.2M131.6 116.8c0-.7-.3-1.5-.4-2.1-.3-2 0-3 1.4-4.4l1.8-1.6.6-.3h1c-.2.5-1 .8-1.4 1-1.2.6-2.3 1-2.8 2.4-.4.9 0 3.4-.2 5M97.4 109.2c1-1.6 4.2-2.7 5.9-3.5 2.4-1.2 4.5-2.8 7-3.9l7.8-2.9c2.6-.8 5.4-.8 8-1.7l1.5-.6h.1c-.2 1-1.3 2.5-1.8 3.6l-1-.3a4.6 4.6 0 0 0-3.2 0c-1.3-.3-2.4 1-3.5 1.9l-1.6.7a30 30 0 0 0-5.8 2.4c-.4.1-.8.2-1.2.5-2 1-3.4 2-5.7 2.4-2.2.3-4.6.5-6.5 1.4" fill="#8876B6"/><path d="M105.4 107.7a42 42 0 0 1 0 0" fill="#6557A5"/><path d="M98.5 105.2c-4.4-.3-8.2-1.4-12.3-2.7-.2-.2-.3-.6.3-1.2.5-.6 1.8-.5 2-1.4 0-.4-.8-1-.7-1.5 0-.7 2-2.1 2.8-2.5.5-.2 1 0 1.4 0l.2-.1c3.6.8 7 2 10.7 2.8-2.8-2.3-6.5-2.1-9.6-3.5.6-.7.4-1.7 1.4-2.5l.5-.3a24 24 0 0 0 11.6 2.7c-3-1-6-2.6-9-3.3l.3-.1 1.6-1.4c2 2.7 13 4.7 13.3 5 .7.3.5.4.7 0v1.1c.1 1.8-.8 2.2-2.2 3.2-1.2.8-1.7 2-3.1 2.4-2.5.8-5 2.3-7.3 3.7l-.4-.7-.5.2a5 5 0 0 1-1.7.1M122.8 109.5c-1.9 0-3.7.1-5.6.4a78.4 78.4 0 0 1 17.6-1.5 8 8 0 0 0-.4.3c-.8.3-1.8 0-2.5 0-1 0-2 .2-2.9.3l-6.2.5" fill="#8876B6"/><path d="M107.6 106.6c1-.5 2.1-1 3.2-1.7l3-.4c1.4-.4 2.5-1.4 3.6-2.1l.8-.6c1.2-.7 2.3-1.4 3.5-1.8l.6.3c1.3 1 1.2 1.4 2.9 1.2h.2v.1c-3.6.9-7.1 2-10.7 3-2.5.6-4.8 1.2-7 2" fill="#6557A5"/><path d="M113.9 104.5l-3 .4c1.5-.9 3.3-1.7 5.7-2.4l1.6-.7-.8.6c-1.1.7-2.2 1.7-3.5 2M134.4 108.7l.4-.3h.2l-.6.3M135 108.4h-.2l.4-.3-.2.3" fill="#8876B6"/><path d="M136 108.5l-1-.1.2-.3.7-.3a.6.6 0 0 1 .1.7" fill="#8876B6"/><path d="M136 108.5c0-.1.1-.3 0-.4l-.1-.3c1.2-.7 2.6-1 4-.8 1.7.2 3.2 1 4.5 2l3 2-5.6-1.6c-2-.5-3.8-.8-5.8-1" fill="#8876B6"/><path d="M153.8 112l-2.2-.1c-.7-.4-1.4-.9-2.3-1.1l4.4 1s.3 0 0 .1M102.9 98.6c-3.7-.8-7.1-2-10.7-2.8.6-.2.9-.4 1.1-.7 3.1 1.4 6.8 1.2 9.6 3.5" fill="#6557A5"/><path d="M133.3 103.7c-2 .4-3.4-.4-4.9-1.4-1-.6-1.5-.8-2.3-.8l2.2-.5h.3l2 .5c2.2.6 4.5.4 6.8.5 1 0 2 .3 3-.1s1.9-1.2 3-1.7c1.5-.7 2.3-1.8 3.8-2.7l.8-.5h.1l-1.5 2a12.2 12.2 0 0 1-5.7 4.8c-.8.2-1.8.7-2.6.7-.7-.1-1.3-.9-2-1-1-.4-2 0-3 .2M125.2 101.5c-1.7.3-1.6-.3-2.9-1.2l-.6-.3c1-.4 2-.5 3.2-.1l1 .3-.4 1v.3h-.3" fill="#8876B6"/><path d="M125.4 101.6l.7-.1-.7.1" fill="#6557A5"/><path d="M125.4 101.5l.1-.3.4-1 2.7.8h-.3a65.5 65.5 0 0 0-2.9.5" fill="#8876B6"/><path d="M121.7 100c-1.2.4-2.3 1.1-3.5 1.8 1.1-1 2.2-2.2 3.5-1.8" fill="#6557A5"/><path d="M137.4 102c-2.3 0-4.6.1-6.9-.5l-2-.5c1.6-.4 3.8-1 4.8-2.4a19 19 0 0 0 13.5-2.4l1.2.8-.8.5c-1.5.9-2.3 2-3.9 2.7-1 .5-2 1.3-3 1.7-1 .4-2 .2-2.9.1" fill="#8876B6"/><path d="M128.6 101l-2.7-.8c.5-1.1 1.6-2.6 1.9-3.6 1 .3 1.9.8 2.9 1.2.8.4 1.7.6 2.6.8-1 1.3-3.2 2-4.7 2.4" fill="#8876B6"/><path d="M106.8 95a24 24 0 0 1-11.6-2.7c.9-.4 1.7-.3 2.5-.6 3.2.7 6 2.4 9 3.3M113.7 95.2c-.2.4 0 .3-.7 0-.3-.3-11.3-2.3-13.3-5l.2-.1 1.4 1.1c2.6 1.7 5 .1 7.7 1.1 1.3.5 2 1.3 3.3 1.4l1.5 1-.1.5" fill="#6557A5"/><path d="M113.7 95.2v-.6c.2 0 .2.1.3.2l-.3.4M115.5 94.7v0m2-.8c-.5 1.7-1.9 1.6-3.5.9l.2-.2.5-.7c.3.2.6.4.7.8l-.2-1.6c1-.4 1.9-1 2.7-1.6l.3.3-.6 2.1" fill="#6557A5"/><path d="M114 94.8l-.2-.2c0-.3.1-.7.3-1l.2-.1.4.4c0 .2-.3.5-.5.7l-.2.2" fill="#6557A5"/><path d="M113.8 94.6l-1.5-.9h1c.2 0 .5 0 .8-.2a9 9 0 0 0-.3 1.1M115.5 95v-.3.3M109 92.3c-2.6-1-5.1.6-7.7-1L99.9 90l.5-.4c1.9-1.2 3.6-2.4 5.7-1.2 1.4.8 1.6 1 2.5.5l-.7.7a25 25 0 0 0 4.4 4c-1.2 0-2-.9-3.3-1.4M115.2 93.1l.2 1.6c0-.4-.4-.6-.7-.8l.1-.6.4-.2" fill="#6557A5"/><path d="M113.2 93.7h-.9a25 25 0 0 1-4.4-4l.7-.7.8-.4c1.8-.8 1.3.6 2.8 1.3l.8.1.2.5c.2 1 .4 2 1 2.8l-.1.2-.9.2" fill="#6557A5"/><path d="M133.3 98.6a14 14 0 0 1-2.6-.8c-1-.4-2-1-3-1.2h2.1l4-.2c.2.9 0 1.6-.5 2.2" fill="#8876B6"/><path d="M125.2 96.6h-.5c.1-.2.3-.2.5 0" fill="#6557A5"/><path d="M124.9 96.4a4 4 0 0 1-1.8-.3h.4l1.4.3" fill="#8876B6"/><path d="M125.2 96.6l.1-.1 1.4-.1c.3 0 .6 0 1 .2h-2.5" fill="#6557A5"/><path d="M124.9 96.4c-.5 0-1-.2-1.4-.3h2.1l-.2.3h-.5M125.3 96.5a19.7 19.7 0 0 0 0 0M125.6 96.1h-2l-1.2-.4c-2-.6-2.5-1.7-3.6-3.2l-.6-.7.1-.5c2.1 1.4 4.8 2.2 6.7 3.4l.6-.2 1.3.8-1.3.8" fill="#8876B6"/><path d="M125.3 96.5v-.1h1.4c-.3.2-.8.2-1.4 0M114.7 93.9l-.4-.4.5-.2-.1.6M126.3 96.4h-1l.3-.3h1.3c0 .2-.1.2-.2.3h-.4M99.9 90.1l-.2.1-.2-.5.4.4M114.3 93.5h-.2v-.2l.2.2" fill="#6557A5"/><path d="M99.9 90.1l-.4-.4c-.1-.4 0-.8.4-1.2 1.9-2.1 6.2-1.8 8.7-1.7l2.5-.1c-.7.8-1.7 1.5-2.5 2.3-1 .4-1 .3-2.5-.5-2-1.2-3.8 0-5.7 1.2l-.5.4M114.3 93.5l-.2-.2.5-1 .2 1-.5.2M127 96.1h-1.4l1.3-.8.8.6c.1.1.2.3.1.6h-.1l-1-.1c.1 0 .2-.1.2-.3" fill="#6557A5"/><path d="M127.8 96.6h-.1.1M127.7 96.6h0M127.8 96.6c1.5-.8 3-1.7 4.5-2.1.7.3 1.2.7 1.4 1.4l.2.5-4.2.1h-1.9" fill="#8876B6"/><path d="M114.1 93.3c-.5-.8-.7-1.8-1-2.8V90c.4 0 .8-.2 1.2-.4v.7c-.1.7.1 1.3.3 2l-.5 1" fill="#6557A5"/><path d="M133.3 98.6c.5-.6.7-1.3.6-2.2 1.5-.1 3-.3 4.4-.7 1.7-.3 3.3-.9 5-1.2l.4.3c.6.3 1 .4 1.6.3l1.5 1-.8.5a19 19 0 0 1-12.7 2" fill="#8876B6"/><path d="M115.2 93.1l-.4.2c0-.4 0-.7-.2-1l.4-.8.2 1.6z" fill="#6557A5"/><path d="M99.9 88.5c-.4.4-.5.8-.4 1.2-1-1-1.6-2.4-1-4 .4-1.2 1-2.2 1.5-3.2.6-1.5.4-1-.5-2-1.3-1.5-.1-3.7.2-5.3.5-1.9.6-3 2.1-4.4 1.2-1.1 2.2-2.4 2.6-4 .5-1.6.4-2.4 2-3.6.6-.4 1.2-.6 1.7-1.1.5-.6.5-1.4.8-2 1-1.7 2.7-1.9 4.1-3 1-.7 1.5-1.8 2.8-2.3 1.2-.5 2.6-.5 3.8-1 1-.3 3-1.7 4.7-2.4v.7c-.2 1.5-2.4 2.5-2.3 4 .1 1.3 2.3 1.4 3.2 2.2.6.6 1 1.4 1.2 2.2a9.8 9.8 0 0 0-3 3.8c-2 .1-3.4-3.9-5.1-4.5 1 .9 2.1 2.7 3 3.9a9 9 0 0 1 1.4 2.7l-2 1.3c-1-1.3-2-3.4-2.3-3.7.2 1.3 1.5 2.7 2 4l-.9.6-1.8 1.8-.7-.2c-1.8-.4-1.2.8-.9 2l-1.7 2.6c-2.3 0-6.1-1.9-7.4-1.8 1.4 1.8 3.9 2.4 5 4.4l.8 1.5c-.3 1-.5 2.2-.5 3.3v.5l-.3-.1c-1-.5-1.7-.7-2.5-1.4-1-1-1.8-1.7-3.2-2 1.1 1.2 2.7 2.1 3.9 3.6.6.8 1.2 1.4 2 2v.2a4.5 4.5 0 0 1-1.1 1.7c-.9 0-1.8.2-2.5.1-2.5-.1-6.8-.4-8.7 1.7" fill="#8876B6"/><path d="M115.2 93.1l-.2-1.6c.4-.5.8-.8 1.2-.9h.3c.5.2 1 .5 1.4.9-.8.7-1.7 1.2-2.7 1.6M127.8 96.5l-.1-.6-.8-.6 1.4-.6 1.4-.7c.9 0 1.9.1 2.6.5-1.5.4-3 1.3-4.5 2" fill="#6557A5"/><path d="M126.9 95.3l-1.3-.8a16.2 16.2 0 0 1 4-.5l-1.3.7-1.4.6M125.6 94.5l-.6.2c-2-1.2-4.6-2-6.7-3.4l.1-.3h.1c2.2.6 5 2.2 7.1 3.5" fill="#8876B6"/><path d="M115 91.5l-.4.7c-.2-.6-.4-1.2-.4-1.9l.1-.7.3-.1.1.1.3 2z" fill="#6557A5"/><path d="M133.9 96.4l-.2-.5c-.2-.7-.7-1.1-1.4-1.4l1-.2c1-.2 2 0 3-.2 1.2-.2 2.4-.7 3.6-.8 1.6-.1 2.3.6 3.4 1.2-1.7.3-3.3.9-5 1.2-1.5.4-3 .6-4.4.7" fill="#8876B6"/><path d="M115 91.5l-.3-1.9 1.8 1h-.3c-.4 0-.8.4-1.2 1" fill="#6557A5"/><path d="M118.2 91.8l-.3-.3.3-.3h.1v.6M125.6 94.5c-2-1.3-4.9-2.9-7.1-3.6 1.7-1.5 3.2-3.5 4-5.4.5-.8.8-1.8 1.2-2.7 1 1.5 3.3 2.7 4.7 3.5 2.2 1.3 4.4 2 6.7 3 2.2 1 4.3 2.1 6.3 3.3-2.6 0-5.3-.3-8 .2-1.4.2-2.5.7-3.7 1.2a14.6 14.6 0 0 0-4 .5" fill="#8876B6"/><path d="M118.2 91.2l-.3.3a8 8 0 0 0-1.4-1l1.2.2.5.5" fill="#8876B6"/><path d="M113 90l-.8-.1c-1.5-.7-1-2.1-2.8-1.3l-.8.4c.8-.8 1.8-1.5 2.5-2.3l1-.2.2 1 .7 2.5" fill="#6557A5"/><path d="M118.3 91.3v-.1l.1-.2v.3" fill="#8876B6"/><path d="M150.2 98.7c-.6.2-1.4-.7-1.9-1.5l1.3.8-1.2-1.2c.7-.3 1.4-.4 1.9.2l.1.2c0 .7 0 1.3-.2 1.5" fill="#6557A5"/><path d="M118.4 91l-.2.2-.5-.5.7.2v.1" fill="#8876B6"/><path d="M132.3 94.5c-.7-.4-1.7-.5-2.6-.5 1.2-.5 2.3-1 3.7-1.2 2.7-.5 5.4-.1 8-.2l2.9 1.8h-.6l-.4.1c-1-.6-1.8-1.3-3.4-1.2-1.2 0-2.4.6-3.6.8-1 .1-2 0-3 .2l-1 .2" fill="#6557A5"/><path d="M118.4 91h0M118.5 91c.8-3.4 1.2-6.5 2.2-10 .9-3.3 1-6.8 2.3-9.9 1.2-2.8 2.9-5.7 4.7-8.1-.8.3-1.5.7-2.2 1.2l.5-.8c.3-.4 1.3-1.2.2-1.3-1-.2-1.3 1.2-1.7 1.6-.4.4-.8.5-1.2.6a9 9 0 0 1 3.1-3.8c.4.7.7 1.5 1.3 2 1.5 1.2 3.3.3 4.4-.9l.4-.5c0 1-.1 2.1-.8 3.2-.8 1.2-1.9 2-2.6 3.2l-.5-.2.2.6a22 22 0 0 0-2 5c-.9 3.1-1.8 6.4-3 9.5l-.4-.2.3.6c-.4 1-.7 1.9-1.2 2.7-.8 1.9-2.3 3.9-4 5.4" fill="#8876B6"/><path d="M118.4 91l-.7-.3c-.8-.6-1.4-1.4-2.3-1.4l-.7.1v-.7c.7-2 2.5-3.6 3.3-5.4l1.9-5.3c.6-1.5 1-2.9 1.4-4.5.5-2.1 1.7-3.7 2.7-5.6.6-1.3.8-2.6 1.5-3.7.7-.5 1.4-1 2.2-1.2A41.2 41.2 0 0 0 123 71c-1.3 3-1.4 6.6-2.3 9.8-1 3.6-1.4 6.7-2.3 10" fill="#8876B6"/><path d="M117.7 90.7l-1.2-.1-1.8-1v-.2l.7-.1c.9 0 1.5.8 2.3 1.4" fill="#8876B6"/><path d="M114.3 89.6c-.4.2-.8.4-1.3.4l-.7-2.5a7 7 0 0 1-.1-1l1-.3c-.3 1-.3 2 .7 2.8l.5.4v.2M149.6 98l-1.3-.8-.1-.3h.2l1.2 1.1z" fill="#6557A5"/><path d="M114.6 89.5h-.3v-.1l.3.1" fill="#6557A5"/><path d="M114.7 89.6l-.1-.1h.1v.1zM114.7 89.4l-.1.1-.2-.1.2-.7.1.7zM114.4 89.4a8 8 0 0 1-.5-.4c-1-.7-1-1.7-.7-2.8h.5l-.4-.4.4-1.5.2-.7.7 5.1-.2.7" fill="#8876B6"/><path d="M148.2 97l.1.2-.2-.2" fill="#6557A5"/><path d="M148.2 97h-.2l-1.2-.8 1.5-1.4c.7 0 1.3 0 2 .3v.6c-.5-.3-1.3.3-2 1l-.4-.4.3.6z" fill="#8876B6"/><path d="M148.4 96.8l-.2.1.1-.2.1.1z" fill="#6557A5"/><path d="M148.3 96.7l-.1.2-.3-.6.4.4z" fill="#8876B6"/><path d="M148.4 96.8c.6-.8 1.4-1.4 1.9-1.1l.1 1.5-.1-.2c-.5-.6-1.2-.5-1.9-.2" fill="#6557A5"/><path d="M114.6 88.7l-.7-5c.7.3 1.5.4 2.2-.3-.4-1-1.2-1.8-2-2.6v-.9c0-1.1-.5-2.4-.1-3.5.3-.8 1-1.3 1.6-1.8l.4-.4.3-.4c.5-.8.5-1.7 1.3-2.3l1.2-.8c.4 0 .8 0 1.2-.5a6.9 6.9 0 0 0 2-1.2c.4.1.7-.2.8-1.2v-.6l.1-1 1-.6 1.6-1.4c-.7 1.1-.9 2.4-1.5 3.7-1 2-2.2 3.5-2.7 5.6-.3 1.6-.8 3-1.4 4.5-.7 1.7-1.2 3.5-2 5.3-.7 1.8-2.5 3.5-3.3 5.4M146.8 96.2l-1.5-1c.6-.1 1.1-.3 1.8-.3l1.2-.1c-.4.5-.9 1-1.5 1.4M145.3 95.1c-.5 0-1 0-1.6-.3-.2 0-.3-.2-.4-.3h1l1 .6" fill="#8876B6"/><path d="M145.3 95.1l-1-.7c.9 0 2-.2 2.8-.6l.7.6-.6-.7.4-.6c-.4-.3-1-.5-1.5-.6-3.7-3.9-8.5-6.8-11.6-11.1-1.7-2.3-2.2-4.8-3-7.4-.6-2.1-2-4-2.7-6l.2-.4c2 1.7 2.9 5.4 3.8 7.6a32 32 0 0 0 4.6 7.3c1.6 2 3.8 3.5 5.7 5.1 2.1 1.7 3.8 3.9 5.6 6-3-4.1-5-9.2-6.5-13.9-1.2-3.6-1.3-6.9-1.9-10.5-.2-1.5-.7-2.7-.7-4.1 0-1.6.3-3.2.3-4.9 0-2.2-.4-4.7-1-6.8 2.5 5 1.3 10.9 2.5 16.3 1.1 5.1 1 10.5 3.6 15.2l4 7.2c-.1-1.7-1-3.7-1.5-5.4-.4-1.6-1.1-3-1.6-4.6-.8-3.3-.5-7-.2-10.3.3-3 1.2-6 1.6-9 .2-1.2.1-5 1.6-5.4-.9 1.1-.6 3.2-.8 4.6-.2.9-.2 1.8-.3 2.8 0 1.3-.5 2.4-.6 3.7-.2 1.6 0 3-.4 4.6-.3 1.3-.8 2.5-.9 4 0 1 .1 2.2.4 3.3v.2A18 18 0 0 0 148 87c1.3 2.7 2 5.6.3 7.8a6 6 0 0 0-1.2 0l-1.8.3" fill="#6557A5"/><path d="M144.3 94.4l-2.9-1.8h2l1.6-.2c.7.4 1.4.8 2 1.4-.7.4-1.8.5-2.7.6" fill="#6557A5"/><path d="M150.5 95.8l-.2-.1V95a4 4 0 0 1 2.5 3.1c-.5-.5-2.2-3-2.3-2.4" fill="#8876B6"/><path d="M112.2 86.5l-1.1.2a5.3 5.3 0 0 0 1-1.7v1.5M113.2 86.2l-1 .3a13 13 0 0 1 0-1.6l1 1v.3M150.2 95.1c-.6-.2-1.2-.3-2-.3 1.7-2.2 1.1-5.1-.2-7.8a18 18 0 0 1-1.6-6.4v-.2c.5 2 1.3 4 1.9 5.8.8 2.7 1.4 5.5 1.8 8.3l.1.6" fill="#6557A5"/><path d="M113.7 86.1l-.5.1v-.4l.5.3M147.2 93.7l.6.7-.7-.6v-.1" fill="#8876B6"/><path d="M147.2 93.7h-.1l-2-1.3h1l1 1.3M143.5 92.5l-2 .1a49 49 0 0 0-6.4-3.3c-2.3-1-4.5-1.7-6.7-3-1.4-.8-3.7-2-4.7-3.5l.2-.4c2.4 1.2 4.8 2.8 7.3 4l7.2 3.4c2.1 1 4.5 1.5 6.6 2.6l-1.5.1" fill="#6557A5"/><path d="M147.2 93.7a31 31 0 0 0-1.1-1.2c.6 0 1 .3 1.5.6 0 .3-.2.4-.4.6M113.3 85.8l-1.1-1 .4-1.9 1.3.7-.2.7c0 .5-.3 1-.4 1.5M112.1 85v-.2.2" fill="#6557A5"/><path d="M112.2 84.9v-2.2l.4.2-.4 2" fill="#6557A5"/><path d="M146 92.5h-1c-2-1.2-4.5-1.7-6.6-2.7l-7.2-3.4c-2.5-1.2-4.9-2.8-7.3-4 1.1-3 2-6.4 3-9.4a22 22 0 0 1 2-5c.6 2 2 3.9 2.6 6 .8 2.6 1.3 5.1 3 7.4 3.1 4.3 7.9 7.2 11.6 11" fill="#8876B6"/><path d="M112.2 82.7v2.1a15 15 0 0 1-2-2c-1.2-1.5-2.8-2.4-4-3.7 1.5.4 2.2 1.2 3.3 2.1.8.7 1.5 1 2.5 1.4l.2.1" fill="#6557A5"/><path d="M148.7 93.5c-1.8-2-3.5-4.2-5.6-5.9-1.9-1.6-4-3.2-5.7-5.1a32 32 0 0 1-4.6-7.3c-1-2.2-1.7-6-3.8-7.6.8-1.2 2-2.1 2.7-3.3.7-1.1.9-2.2.8-3.2.8-1 1-2.2 1.1-3.4.7-.3.9-1.4.8-2 0-1-.3-1.8.3-2.2l-.7-3.2c1.6-1.7 2-4.7 4.4-5.5 1.2-.3 2.4 0 3.6-.1 1.7-.3 2-.3 3.3.7.8.7.5.7 1.7.5 1.5-.3 2 0 3 1.3.3.6.5 1.2 1.1 1.7.8.6 2 1 2.7 1.6 1.3 1.1 1.5 2.7 2.3 4 .5.6 1 .6 1 1.6-.1.8-1.1 1.6-1.6 2.2a33.2 33.2 0 0 0-3.5 5.1c-2.7 4.8-6.3 11.2-5.7 17-.3-1-.5-2.2-.4-3.4 0-1.4.6-2.6.9-3.9.4-1.6.2-3 .4-4.6 0-1.3.6-2.4.6-3.7 0-1 .1-1.9.3-2.8.2-1.4 0-3.5.8-4.6-1.5.5-1.4 4.2-1.6 5.4-.4 3-1.3 6-1.6 9-.3 3.3-.6 7 .2 10.3.5 1.5 1.2 3 1.6 4.6.5 1.7 1.4 3.7 1.5 5.4-1.3-2.4-2.6-4.9-4-7.2-2.7-4.7-2.5-10.1-3.6-15.2-1.2-5.4 0-11.2-2.4-16.3.5 2.1.9 4.6.9 6.8 0 1.7-.3 3.3-.3 4.9 0 1.4.5 2.6.7 4 .6 3.7.7 7 1.9 10.6 1.6 4.7 3.6 9.8 6.5 13.8M116 83.4c-.6.7-1.4.6-2 .2l-.1-.1.2-2.7c.8.8 1.6 1.5 2 2.6" fill="#8876B6"/><path d="M114 83.6h-.1v-.1.1z" fill="#8876B6"/><path d="M113.9 83.6l-1.3-.7c.2-.8.4-1.6.9-2.4l.4 3v.1" fill="#6557A5"/><path d="M113.9 83.5l-.4-3c-.5.8-.7 1.6-.9 2.4l-.4-.2v-.5l.6-3.3a6.8 6.8 0 0 0 1.3 1.9c0 .8 0 1.8-.2 2.7M123.9 82.4l-.2.4-.3-.6.5.2" fill="#6557A5"/><path d="M114.1 80.8l-.5-.7c-.4-.4-.6-.8-.8-1.2a18 18 0 0 1 1.6-4c.5 0 .9-.1 1.2-.3-.6.5-1.3 1-1.6 1.8-.4 1 0 2.4.1 3.5v.9" fill="#6557A5"/><path d="M112.8 79l-.8-1.6c-1.1-2-3.6-2.6-5-4.4 1.3-.1 5 1.9 7.4 1.8a18 18 0 0 0-1.6 4.1" fill="#6557A5"/><path d="M115.6 74.6c-.3.2-.7.2-1.2.2l1.7-2.6c.2.4.3.8.2 1.1 0 .4-.1.6-.3.8l-.4.5" fill="#6557A5"/><path d="M116 74.2a1 1 0 0 1-.4.4l.4-.4" fill="#8876B6"/><path d="M116.3 73.8l-.3.3c.2-.2.3-.4.3-.8 0-.3 0-.7-.2-1.1l1.6-1.8 1.1.3-1.2.8c-.8.6-.8 1.5-1.3 2.3" fill="#6557A5"/><path d="M117.7 70.4l-1.6 1.8c-.3-1.2-.9-2.4 1-2l.6.2M118.8 70.7l-1.1-.3a26.4 26.4 0 0 1 2.7-2.4c.2.6.2 1.3-.2 1.9l-.2.3-1.2.5" fill="#6557A5"/><path d="M118.8 70.7l1.2-.5c-.4.4-.8.5-1.2.5" fill="#8876B6"/><path d="M120 70.2l.2-.3c.4-.6.4-1.3.1-2 .2 0 .3 0 .4-.2.4.7.9 1.2 1.3 1.3a5.6 5.6 0 0 1-2 1.2" fill="#6557A5"/><path d="M122.8 67.8c-.1 1-.4 1.3-.8 1.2a3 3 0 0 0 .8-1.8v.6" fill="#8876B6"/><path d="M122 69c-.4-.1-.9-.6-1.3-1.3l2-1.3.1.7a3 3 0 0 1-.8 1.9M120.7 67.7l-.4.3c-.4-1.3-1.7-2.7-1.9-4 .3.3 1.3 2.4 2.3 3.7M122.8 67.1l-.1-.7.2-.1v.8M128.8 68l-.2-.7c.2 0 .3.2.4.3l-.2.3" fill="#6557A5"/><path d="M123 66.3l-.3.1a9 9 0 0 0-1.4-2.7c-.9-1.2-2-3-3-4 1.7.7 3.1 4.7 5 4.6a6.7 6.7 0 0 0-.4 2" fill="#6557A5"/><path d="M123 66.3v-.4c0-.6.2-1.1.3-1.6.4 0 .8-.2 1.2-.6.4-.4.8-1.8 1.7-1.6 1.1.1.1.9-.2 1.3l-.5.8-1.7 1.4-.9.7M132.1 61.6c-1 1.2-3 2.1-4.4 1-.6-.6-1-1.4-1.3-2.1.7-.6 1.4-1.2 1.9-2 .7-1 .9-2.4 1.3-3.7 1.3 2 2.8 4 3 6.3l-.5.5" fill="#8876B6"/><path d="M126.4 60.5c-.3-.8-.6-1.6-1.2-2.2-.9-.8-3-1-3.2-2.2-.1-1.5 2.1-2.5 2.3-4v-.7c.7-.3 1.3-.4 1.8-.3 0 .2.3.4.7.4-.2-.2-.4-.4-.7-.4-.1-.4.3-1 1.2-.3.8.6 1.3 2.6 1.9 3.4l.4.6c-.4 1.3-.6 2.6-1.3 3.8-.5.7-1.2 1.3-1.9 1.9" fill="#6557A5"/><path d="M133.6 57.7c0 1.2-.3 2.4-1 3.4-.2-2.2-1.7-4.3-3-6.3a6.5 6.5 0 0 1 .6-1.2c.5.7 1.2 1.1 1.7 2 .4.7 0 2 1 2.1h.7" fill="#8876B6"/><path d="M133 57.7c-1.1-.2-.7-1.4-1.1-2.2-.5-.8-1.2-1.2-1.7-2 .7-1 1.6-1.5 2.6-2.2.3 2 .9 4.3.8 6.4a1 1 0 0 1-.6 0" fill="#8876B6"/><path d="M133.6 57.7c0-2.1-.5-4.4-.8-6.4a9.5 9.5 0 0 0 1.2-1l.7 3.2c-.6.4-.3 1.1-.3 2.2 0 .6-.1 1.7-.8 2" fill="#8876B6"/><path d="M129.6 54.8l-.4-.6c-.6-.8-1-2.8-1.9-3.4-1-.6-1.3-.1-1.2.3-.5-.1-1.1 0-1.8.3-.1-.6-.5-1.2-1-1.6-.3-.4-1.5-.7-1.6-1.2-.1-.4.3-.4.4-.7.7-1.4 1.4-3.3 2.7-4.1.2-.1.6 0 .8-.2.4-.2.5-.7.8-1 .7-.7.7-.6 1.6-.4 1 .3 1.4.7 1.9.8-.8.9-1.8 1.6-2.3 2.5-.3.6-.6 1-.3 1.7.5 1 1.2.4 1.8.8 1.3.9.6 3 .7 4.3 0 .6.2 1 .4 1.3l-.2.2-.4 1" fill="#6557A5"/><path d="M130.2 53.6l-.4-1.3c0-1.3.6-3.4-.7-4.3-.6-.4-1.3.1-1.8-.8-.3-.6 0-1.1.3-1.7.5-1 1.5-1.6 2.3-2.5.4.1.8 0 1.3-.6l.2.2c-.6 2.4 1 5.2 1.2 7.6l.2 1.1c-1 .7-1.9 1.2-2.6 2.3" fill="#8876B6"/><path d="M126.8 51.5c-.4 0-.6-.2-.7-.4.3 0 .5.2.7.4" fill="#6557A5"/><path d="M133.7 50.5l-1 .8v-1.1c-.3-2.4-1.9-5.2-1.3-7.6l-.2-.2h.1c-.2 0-.2 0 0 0-.6.6-1 .7-1.4.6l.3-.4c.6-.7 1.7-3 2.8-2.5.9.4.6 2.5.6 3.3v4c0 1 .1 2 .4 2.9l-.3.2" fill="#8876B6"/><path d="M131.3 42.3v.1c-.2 0-.2 0 0 0" fill="#8876B6"/><path d="M174.4 122.6c.4-1.8-4.1-4.4-5.5-5.6a17 17 0 0 1-4.1-5.2c-1-2-1.3-4-2.6-5.9-1.4-2-3-3.5-4.8-5.2-.8-.8-3.6-3-3.6-3.9 0 1.4 2 3.6 2.7 4.8-2.6-1.3-5.4-2.1-8-3.6-.2.8 1 1.9 1.2 2.8.2 1.4.5 2.6 1 4 .8 2 1.4 4.3 2.3 6.2-1 .7-3.6-.3-4.8-.3l-5 .3c-1.8.2-5.2-.2-6.5 1.6 3-1.2 6.6 1.7 9.3 2.7 3.4 1.2 7 2.1 10.5 2.8 2 .4 4.1.4 6.1 1 2.8.7 5.3 2.3 7.7 3.9 1.5 1 3.4 2.2 4-.4" fill="#688538"/><path d="M186 137c.8-1-1.1-4.2-1.8-3.7-1.1-.8-1.9-2.2-2.8-3.2l-3-3.4c-.7-.8-3.2-5-3.6-4.3-.2.4-1.2 2-1.7 2.2-1 .3.8 1.7 1.6 2.4 2.4 1.7 4.7 4 6.6 6.2.6.8 3.4 5.1 4.7 3.7" fill="#688538"/><path d="M164.4 115.6c-.4-.7 2.2-4.6 2.7-5.7 1.2-2.1 3.5-5.4 1.8-7.9-.7.9-.9 3.1-1.3 4.3-.4 1.2-.7 2.6-1.5 3.6.3-2.8 1.5-6.7-.5-9.4-.4 3.5-.3 7.5-1.3 10.8-.3-2.6-2.7-4.3-4.4-6 1.4 2.5 2 5.2 3 7.8-2.1.3-4.1-2-6.4-1.9 1.4 1.8 3.3 3 4.6 4.6-2.6 1.4-6.2 0-9 .2 2 1.9 5.3 1 7.3 2.4a10 10 0 0 1-4.7 2.2c-1.7.4-3.6.9-5.2 1.6 1.2 0 2.5-.5 3.7-.7-1.5 1-2.7 2.3-4 3.4 1.3.1 4-1.6 5.5-2.1 2-.7 3.2-1.6 4.8-2.8 2.2-1.5 3.9-2.8 5-4.4M191.7 142.8c-.5-.9-1-1.8-1-2.6.2.9.6 1.7 1 2.6" fill="#526A32"/><path d="M193 150.8c-4.7-2-9.6-2-14.3-3.3.7 0 1.3-.2-.1-.8l.6-.3c-.2-.4-.6-.7-1-1.1.3 0 .5-.4.7-.5-.2-.2-.3-.6-.5-.7.8-.3.5-.7.8-1.2.2-.6 1-.9-.3-1.4.7-.4 1.6-.8.6-1.5 0 0 .9-.3.9-.5.1-.4-.4-.5-.3-.8.1-1.2.3-.6 1.1-1.5 1-1-.5-1 0-2 .2-.5 2.7-1 .9-1.8.7-.4 3.2-.6 2.2-2 .7-.1 1.6.5 2.4 0l-.7-.5c1.1.2 2 1.2 3 1.4 0-.7-.5-1.3-.5-1.9.8 0 1.2.6 1.6 1.1l.4-2.2.9.6.2-1.6c1 1.6.8 3.7 1.6 5.4.5 1.2 1 2 1.2 3.2.3 1.5.4 2.9 1 4.2.8 2.7 1.4 5.3 2.4 8 .3.7.8 2.1 1.5 3.3a16.3 16.3 0 0 1-7-8l-.6-1.6a82 82 0 0 1-1-2.6c0 .8.5 1.7 1 2.6l.7 1.6c.5 1.3.6 2.4-.3 3.3-1 1.1-3.5 0-3.7-1.5-.6-2.2-.8-5-3-6.2 1.5 2.2 2 4.6 2.1 7-.9 0-2.2.3-2.4-.7-.8-2-.9-4.1-2.8-5.7.7 1.7 2.6 4.1 1 5.7-1.2-1.4-1.5-3-3-4 .8 1 2 3.3.2 4.2 7.3 1.2 17.4 2 20.2 10l-1 .8c-.6-3.2-3.7-5.4-6.6-6.5" fill="#526A32"/><path d="M200.7 156.5c1-1.1 1.4-2.6.4-2-.6-.3-1.3-1.1-1.8-2a16.3 16.3 0 0 1-7-8c.6 1.2.7 2.3-.2 3.2-1 1.1-3.5 0-3.7-1.5-.6-2.2-.8-5-3-6.2 1.5 2.2 2 4.6 2.1 7-.9 0-2.2.3-2.4-.7-.8-2-.9-4.1-2.8-5.7.7 1.7 2.6 4.1 1 5.7-1.2-1.4-1.5-3-3-4 .8 1 2 3.3.2 4.2 7.3 1.2 17.4 2 20.2 10m-32.3-7.4c.4 0 .9 0 1.1-.2l-.3-.4 1.3-.2-.4-.4 1.2-.4v-.2c.5 0 1 .3 1.4 0 .6.2 1.3.7 1.8.6l-.3-.2c1 .3 2.6.5 3.4 0l-.3-.2h1.4c4.7 1.3 9.6 1.3 14.4 3.3 3 1.1 6 3.3 6.7 6.5l-1 .2c-.8-.1-1.1-1.2-1.6-1.8a6.8 6.8 0 0 0-2-2c-2.7-1.5-4-2-7.1-1.6-2 .2-3.9.8-6 1-1.8.2-3.4-.2-5.2-.3-1.5-.1-2.8-.2-4.2-.8-1.2-.5-4.3-1.5-4.3-2.9" fill="#475727"/><path d="M209.4 135l1-2-8.3 7 .6-.2c2.6-1.2 5.3-2.2 6.7-4.8m-23.5 60.3a80.5 80.5 0 0 1 1.5-1c.3-.2.6-.5.7-.8-.5.8-1.4 1.2-2.2 1.8m-48.1-54.6c1.3 0 2.6.3 3.7 1 4.7 3.2 9.5 5.8 15 6.8-5.6.2-10.4-3-15.5-5-.3 0-.7-.2-1-.1v1.2c.7 2.1-2.4 4.6-3.1 6.8-1 2.8-1.2 5.2-1.5 8.1-.4 3.2-.7 6.2.8 9.2 1.1 2.4 3.4 3.6 5.6 5.2 3.6 2.7 7 5 11.4 6.8.6-1.5 2.6-2 3.8-2.9l.7-.6.2-.7a9.5 9.5 0 0 1 2.8-4.7c1.1-1 2.6-1.6 4-2 5.7-2.1 11-4.2 15-8.8-1 2-3.2 3-5 4.3l-.9.5c-2.4 2-4.9 3.7-7.8 4.5-2.4.7-4.2 2.6-5.4 4.8 1 .6 2.3 1.1 3.3 1.5 1.8.7 2.4 1.5 3.8 2.6 2.1 1.5 4.3-2.3 5.6-4 1.8-2.4 3.4-4.7 5.5-6.8 1.6-1.8 2.9-5.7 5.1-6.6 1.2-.4 2.8.4 4.1-.2.9-.4 1.4-1.3 1.8-2.3v-.2.2l.8-1.8c0 1.1-.4 2-1 2.9-.6 2-1.8 3.7-3.7 4.9-1.2.7-1.2 2-1.3 3.2 0 .4.3.5.5.7.3.4 1 .6 1.4.5 1.3-.3 2.8-.3 3.6-1.6a20 20 0 0 1-2.5 5c-1.8 2.6-5 3-8 2.2-1-.2-2 0-2.8.6l-1 1c-1 1.2-2.5 2.9-3 4.6-.6 2.5 1 2.2 1.8 3.8.2.4.2.7.2 1 .6-.2 1.3-.5 1.8-1 1.7-1.6 3.7-3.5 6-3.4-2.8.2-4.3 3-6 5.1-1.2 1.6-1.5 3.4-2.6 5-1 1.7-2.3 3.3-4 4.5 4.5-.9 7.8-4 11.3-6.5 1.7-1.3 2.7-3.2 4.4-4.3-3.4 3.6-7.2 7-9.5 11.4-.5 1-1.5 1.9-2.2 3-.1.2-.3.6-.7.6 2.2.2 4.1-1.4 6.1-2.2a36.7 36.7 0 0 0 6.5-3.2c.8-.6 1.7-1 2.2-1.8-.1.3-.4.6-.7.9-1 .8-2.1 1.5-3.3 2-4.1 2.7-8.4 5.2-9.6 10.4-.3 1.3.9 2.3.8 3.7-.1 1.3-1 2.4-.8 3.6.4 2.1 1.6 4.5 3.6 5.2.7.4 2.1.2 2.8-.7 1.2-1.3 1.9-2.7 2.8-4 .8-1.4.7-3 1-4.5.5 3.1-.5 6-1.9 8.8-.3.7 0 1.5.3 2.2.2.4.5.8.8 1 .6.2 1.2.6 1.6 1.2l3 .6c3 .3 6.3-.1 9.3-1 1-.3 1.4-1 2.2-1.5 1.1-.9 1-.5 2.6-1 1.9-.4 4.2-2.2 5.9-3.3 1.7-1.2 2.6-3 4-4.5 1.1-1.2 1.5-1.5 1.8-3.1.2-1.2.2-2.3.7-3.4.6-1.2 1.5-1.6 1.3-3-.1-1-1.2-2.5-1.7-3.4-1.8-3.1-4-6-5.4-9.3-1.4-3.3-2-7-3.2-10.3-1-2.7-3-6.8-2.4-9.6.2-1 1-1.5 1-2.6 0-1.2-1-2.6-1.3-3.8-.3-1.5-1-2.5-1.7-3.8 2 2.3 2.7 5.8 3.7 8.6l.3.8 2.8 3.7c.7.9 1.2 2 1.7 3 .5 1.5 0 3 .2 4.6 0 1 .9 2 2 2.2 1.8.3 1 2.4.9 3.7 0 .2.1.6.2.5.5-.6.5-1.6.5-2.2l.2-6.7c0-.6 0-1.1.2-1.7l.1-2-.1 2v.9c1 5 .1 9.4-.2 14.2 0 .2.5 1 .8.8.9-.2 1.1-1.3 1.4-2 1.1 1.8 1.4 4.2 2.3 6.2.2.3.6.4.8.1a12 12 0 0 0 1.9-6c.2.5 0 1 .2 1.5.6 1.6.7 4 2.8 4 1 .1 1.6.9 2.6 1.1-1.3-3.5-1-7.3-1-11 .4 1.2.9 2.2 1.2 3.4l.7 1.7 1.4 3.2c.7 1.6 1.6 3.1 2.7 4.5.6.9 1.3 2.6 2.6 2.5-.3-.5-.4-1.3 0-1.3 1.7-.2 3 .6 4 1.7.2-.2.4-.4.3-.7a16.5 16.5 0 0 0-1.5-4.3c-.4-.7-.7-1.5-1.2-2.2-.3-.8-.6-1.5-.6-2.3.7 1.4 1.1 3 1.8 4.5a27.2 27.2 0 0 1 .6 1.2c1 1.5 1.9 4.6 3.8 3.5 1-.7 1-2.2 1.7-3.2 1.1-1.3 3-.9 4.4-1.8.4-.3.8-1 .4-1.3-.8-.9-1.6-1.6-2.6-2.2a27 27 0 0 1-5.5-3.6c-1.7-1-3.5-2-4.3-4 .7.8 1.2 1.6 2 2.1l2.3 1.9 2 1.2 3.5 2.4 1.7.6c1.2.4 2.7 1.3 3.6.2.7-1 .3-2-.5-2.8a6 6 0 0 1-.3-.4l-1.4-1.2c-.4-.5-1-.8-1.5-1.3-1.3-1.4-3-2.2-4.2-3.6-.5-.5-.9-1.2-1.3-1.8 1.6 1.2 3 2.7 4.2 4 .9.9 2 1.5 2.9 2.4l1.3 1.5c0 .2.2.3.3.4.9.8 2.1.1 2.8-.4 2.2-1.7 1.8-5.2-.8-6.5-1.1-.6-2-1.3-3-2-2.8-1.8-5.7-3-8.1-5.3 1.7 1 3.7 2 5.5 3.2 2.7 1.8 6 3.8 9.3 3.5l-.2-1.2c0-1 .3-1.8.6-2.9.7-2.8 1-5.9-.2-8.8-1-2.8-3.4-5.5-4.9-8.3-1.8-.6-3.1-2.7-4.7-3.8-2 1.8-5.3 1.8-7.9 1.4h-.6c-1.3-.2-2.3-1.2-3.6-1.4-2.7-.3-5.2-.6-7.9-1.3-1.7-.5-3.2-1.2-5-1.5h-.8c-.8-.3-1.7-.6-2.6-.7-1.1 0-2.6.4-3.2-.4-1.3-1.7-3-2.7-4.7-3.6-.5-.2-.9-.6-1.2-1 1 .2 2.2.4 3 1.3 1.2 1.2 2.8 2.2 4.3 3a126.8 126.8 0 0 1 13.4 2.4c1.3.4 2.7 1 4 1.3 2.3.5 4.5.7 6.8 1 .4.1.8.5 1.2.4 1.8-.6 3.2-2.2 5-2 1.7.4 3 2.4 4.7 2.5 1.7.3 2.7-1.5 3.9-2.7l.6-1.6c-1.2.3-2.4.6-3.5.7h-1.8c-3.1.7-6 .3-8.8-.8 3.5.2 6.8-.2 10.2-.2.3 0 .5-.2.8-.4l.4.1c3.5-.7 3.9-4.3 5.3-7l-10.3 1c2.5-.5 4.8-2 7.4-2.5.7 0 1.3-.6 1.7-1.1l1.4-2 .7-.4c.4-.7.7-1.4 1.3-2-2.2 2.3-5.6 2-8.5 2.4a12.9 12.9 0 0 1 0 0l.3-.1c1.5-.6 2.7-1.5 4.4-1.7 1 0 1.6-1.1 2.5-1.9l.9-.7c.3-.2.6-.7.5-1a7.6 7.6 0 0 1-.3-4.2 20 20 0 0 1-.4-1.9 32 32 0 0 0-3.2-12.3 15 15 0 0 0-8.6-6c-3.4-.8-5-2.5-7.6.4-2.5 2.7-5 5.6-7.3 8.4-1.6 2-3.5 4-6.1 4.6l-7.5 1.6c-1 .1-2 .6-3 .6-.8.1-1.7-.2-2.5 0l-.7.4-3.5 3-1 1.9c-1.3 2.6-4 3.6-6.6 4.8l-.6.3-4.7 4c-.3-1.3 3-3.2 4.7-4l8.2-7c.4-.7.8-1.4 1.4-1.9.6-.5 1.3-.8 2-1.1l.8-.4.2-.1c2.5-1.6 3.6-2.8 4.2-5.6.3-1.5.4-2.8.5-4.3-3.2 2.6-7 4.7-10 7.5L208 129l-.2.3.2-.3c1.8-2.9 2.7-6.1 5.5-8.2 1.5-1.3 3.1-2.2 4.6-3.5l1.3-1c.6-.4 1.2-.8 1.5-1.5l.4-.2h.1c1.2-2.5 2.6-5.1 1.5-7.9-.2-.7-1-.7-1-1.8-.2-1 .4-1.1-.2-2.3-.5-1-1.5-2.3-2.4-3.5-.4-.2-.9-.4-1.2-.8l-.6-1c-.6-.6-1.1.2-1.2.8a37.9 37.9 0 0 1-2.5 9.3l.1-.8c.5-3.8 2.3-7.6 1-11.5-.4-1.3-2.1-.9-3-1.7-1.3-1-.4-3.4-1.9-4.2-1.5 3-1.5 6.8-1.8 10.3 0 1.4-.6 2.8-.9 4.2.2-3.5 0-7 .1-10.5 0-1.2.3-2.3.3-3.4 0-.5.2-.9.3-1.3 0-.5-.1-1.1-.5-1.6l-.5-.5c-1.8-1-3.7-2-5.7-2.6-.3-.1-.7-.2-1.1-.1a7 7 0 0 0-2.4 1 7.7 7.7 0 0 0-2.2 4c0 1.7.2 3.5.7 5.1a7.1 7.1 0 0 1-.7-5.1l-.3-4.3v-.2l-1.5.3c-2.5.2-4.4 1.7-6.8 2-1.6.2-3.2-.1-4.8 0l-2.7.7c-.8.2-1.9 0-2.5.8-.6.8 0 1.7 0 2.6.5 1.4.8 2.9 1.2 4.4.5 1.8 1.8 3.2 2.8 5 .7 1.4 1.9 2.5 2.7 4 .1.2.4.5.2.8a45.8 45.8 0 0 0-9.6-10.6 3 3 0 0 0-.9.2c-1.4 1.1-1.4 5-1 6.7l.5 1.2c1.6 1.6 4 2.9 4.8 5.2-1.4-1.3-2.9-2.7-4.6-3.3-.1 1-.3 1.7 0 2.8.7 2.3 2 5 3.7 6.8 1 1.2 4.1 3 4.5 4.6.3 1.1-.9 1.4-.8 2.2v.3a17 17 0 0 0 5 3.5c2.1 1.1 3.3 3.4 4.3 5.7l.3.7c.6 1.8 1.3 3.4 2 5a53.3 53.3 0 0 0 0 0c-1.3-2.3-3.8-4-6-5.4 0-.1-.4 0-.4.2-1.2 2.1-.8 4.8 1.2 6.4.9.6 1.9.3 2.7.9.4.3.8.7.8 1.1 0 1.9.8 3.3 2 4.7l.2.4.4.2c-.2.4-.7.3-1.4 0l-.7-.3-.6-.8-1.3-1.2-.1.4c-1.1-1.5-3-2.5-4.6-2.1-.6.1.2 1.8 1 2.3-2-1.1-4.6-1.6-5.5-3.8-2.5-6.4-9.6-8.1-15.4-9.7.2.4.4.8.7 1l3.3 4c2.6 2.6 5 5.1 7.2 8-3.3-4.3-8.4-6.5-13-8.8-2-1-3.3-2.8-5.1-4.2-1.6-1.2-3.2-2.3-5.3-2h-.3c-.2.3-.4.4-.6.5-1.3.7-2.8.7-4 1.5-1.5 1-2.6 3-4 4.2l-3.3 3.3c-.9.7-2.8 2.9-2.2 4.1m58.5-46.9c-.5-1.6-.6-3.4-.7-5.1-.4 1.7-.2 3.6.7 5.1m18.1 81c0 .7-.2 1.3-.1 2 0-.7.2-1.3.1-2m-6.6-45.5l.2-.3-.2.3m6 .8l.7-.4c-.3 0-.5.2-.7.4m-28.6 8.4l-.1-.1m5.8 5.6l-.6-.8 1.3 1c-.2 0-.4 0-.7-.2" fill="#8876B6"/><path d="M230.3 166.5c-2.5 1.4-2.8-3.8-3-5.3.5-.4.5-.7 0-.9-.6 2 .6 4.4 1.3 6.4-1.6 0-3.2-1.5-4.6-2.3-.5-.3-1.3-.3-.6-1 1.2 1.4 3.4 1.7 4.6 3-2.2.2-5 0-7-.6l-.2-.3c-.5.4-.4.3-.4.7 2-.7 5 0 7 .9-1.1.2-3.2 1.2-4 1 .6-1 2.3-.4 3.3-.5 1.1-.1 2.5-.4 3.6-1 2.3-1 3.6-3.7 5.6-5 .5.1.9-.2.7-.8-1-.5-1.2 1.6-1.7 2.3-1.1 1.4-3 2-4 3.4-1.3-1.2-1.2-4.1-1.3-5.8.1.2.2.2.4.1v-.7c-1.8.7.3 5.6.5 6.6-1-1.6-3.7-5.3-1.4-7l-.4.2c-.3-.5-.2-.8.3-1l.4.4c-2 .3-.4 6.6.8 7.6-1 .5-2.8-.2-3.8-.4s-2.8-.2-3.5-.8c-.4.4-.7.4-.8-.2.7-.3.7.3 1.4.5l3.1.6a7 7 0 0 1-3-1.4l-.3.1c-.1-.4-.1-.4.3-.8.1.4.3.2.2.7 2 1 4.3 1 6.2 2-.8 0-2.8-.5-3.3-.4-.8.3-.7 1 .3.9l-.1-.4c1-.4 2.7 0 3.8-.2-1.3 0-2.8.5-4-.5 0 0 .2.2.1.3l-.7-.1v-.7c1.4.8 3.3 1 4.8.6-1.3-.4-2.8-.2-4-1-.6-.4-1-1.5.1-1l-.5.3c1.5 1.2 3 1.4 4.7 2-.2-.8-1-1.3-1.5-2l.3.1c0-.2-.1-.4-.4-.7-.2 1 1 1.8 1.7 2.3l-.9.7c-.1-.7 0-2.3-1-2.3.6 0 .4-.3 0-.6-.7.5.2.6.4 1.3.2.7.2 1-.1 1.5a3 3 0 0 1-1-2.4v.5c-.2-.2-.4-.5-.4-.8h.9c-.4-.4-.2-.3-.7-.4-.5 1 .5 2.3 1 3.2-1.2-.5-1.7-2-2.2-3l.6-.2a1 1 0 0 0-.8-.4c.1 1 .6 1.8 1.2 2.6-1.2-1-2.6-4.3-2-5.7-.5-.4-.8-1.4 0-1.5 1.1-.1.3 1 .2 1.3v1.9c.1 1.2 0 2.3.2 3.4l.3 1.9c-.4-.6-1.9-4.3-1-4.5.2-.5 0-.9-.6-1-.6.9.9 4.5 1.3 5.2-.4-1.2-1.6-2.8-1.6-4-.3-.2-.8-1.1-1.1-1.2-1.2-.2-.8 1.6.5 1l.8 1.3a4 4 0 0 0-1.2-.4c0 .3 0 .4.2.7.3-.2.6-.1.9-.4a5 5 0 0 0 1.5 2.9c-.8-.2-1.3-.7-2-.8-1.2-.3-2.5.3-3.6-.1-.6.5-.5 1 .3.8l.1-.5c1.1.3 2.2-.2 3.2-.4-.6.8-2.3 2-3.4 1.5-.2.3-.3.2-.6.4 0-.4 0-.8.4-1 1.4.4 2.4 0 3.7-.8-.8 1-2.3 1.2-2.5 2.6-2.3.4 1.5 2.1 0 0 .8-.8 1.6-1.7 2.2-2.8.4.4.7.8 1.2 1-.7.3-2.4 1.4-2.7 2.1-.4 1 .6 1 .4.3a8 8 0 0 1 1.9-2c.3-.2 1-.1 1.3-.5-.7.7-3.9 2.7-3.4 3.8.5 0 2.9-3 3-3.6.5.4 1 .7 1.6.7-.8 0-2.1 1-2.7 1.5l-.1-.3c-.4.2-.8.6-.8 1l.3.2c1-2.3 5.3-2.9 7.4-3.4-2.3 1-5 2.5-7.1 3.8-.6-.3-1.6.8-1 1 .5 0 1-.9 1.3-1.2 2.1-1.5 5.2-2 7.4-3.4-1.1 1.6-3.6 2.2-5.3 3.2-1.2.7-2.3 1.5-3.2 2.5-.8-.4-1.3.5-.7 1 1 .7.8-.7 1-1 .7-1 1.6-1.5 2.6-2 2-1.2 4-2.4 6-3.4-1 1.4-2.7 2.3-3.9 3.7-1 1.1-1.3 2-1.8 3.5-.2.5-1.1 2.2.4 1.5.8-.3 0-1-.5-1 .9-3.4 3.4-5.4 5.7-7.8-1.1 1.3-4.3 2-6 2.8-.4.2-3 1.7-1.2 1.6-.2-1 .9-1.2 1.6-1.5 2-.8 3.8-2.3 5.8-2.8-1.4.3-6.2 3.4-6.3 4.8-1.2-.8-1.6.9-.2.5.5-.2 1.2-1.2 1.6-1.6 1.3-1 3-1.7 4.2-3-1.6 1.4-3.4 2.3-4.6 4.2-.3.4-1.3 1.5.2 1.2.2-.4.2-.9-.1-1.1 1.5-1.7 3.2-3 4.9-4.6-1.2 1-3.5 3-3.3 4.5l.2-.2c.9.6-1 1.7-.3-.2.5-1.8 2.9-2.7 3.8-4.4l-2.6 4.7-1 1.6c0 .2-1.1 1.3.3 1l.6-2.3c.6-1.3 2.3-3.3 2.4-4.6-1 1.7-1 3-.9 4.8.1.8-.3 3.1.6 3.5.4-.7-.5-1.7-.6-2.5-.3-2.3.7-4.3 1.3-6.5-1.2.9-2.7 4.6-2.3 6-.5.5-.5 1.1.4 1.2.2-.7-.1-1.6 0-2.4.3-1.4.8-3.2 1.8-4.3-.6 1.3-1.4 2.6-1.3 4.1 0 .7.7 3 1.3 2.4 0 .5.3.8.8.8.3-1-.4-.6-.7-1-.8-.6-1.3-1-1.3-2.2 0-1.6 1.6-3 1.5-4.6.4 1.7 1 3.5 1.6 5-.8-.2-1 1-.3 1.3.1-.8 0-1.8.5-2.5.1.6.2 1.3.5 1.8l-.3-.1c-.6.7.2 2 .5.7.1-.5-.3-2.3-.4-2.9.3.6.4 1.4 1 1.8-.2 2.7 2-.5 0 .2-.5-.7-.7-1.4-1-2.2.3.5.7 1.1 1 1-.3.7.4 1 1 1 .2-.6-.8-.7-1.2-1.1-1-1-1.1-3-2-4 .8.7 1.3 3.1 2.4 3 0 0-.3.1-.4 0 .1 2.3 1.8-.5 0 .1-.7-.5-1.4-2.3-2-3.2.7.6 1.7 2.4 2.8 2.2-.4.6.5 1 1 .8-.8-.4-4.5-3-4.2-3.6 1.3.5 2.3 1.4 3.6 2 1.1-1.3 2.4 1.5.2.3-1-.5-3.3-1.4-4-2.1 1.3.1 2.9 1.1 4.2.8v.4c.5.2 1.2.3 1.3-.4-.8-.6-1.7 0-2.6-.1-1 0-2.5-.4-3.2-1.2 1-.6 3.7 1.7 4 .5-1.3-.1-2.6.1-3.9-.4.3-1 1.7-.8 2.4-1.3h.3c.4-.2.6-.5.6-1-1.1.5-2.3 2.3-3.7 2 .8-.7 3.1-1.5 3.2-2.6.5 0 1-.2 1.2-.5-.2-.6-.7-.7-1.2-.6-.3.4-.3.9 0 1.3-.9 1.2-2.5 1.4-3.4 2.7l-.3-.2a5 5 0 0 1 2.5-2.7c.2-.1 1.7-.3 1-1-.6-.7-1.2.3-1.2.8-1 .5-1.6 2-2.6 2.8-1.5-1.5-.6-4-1.5-5.3l.2.4.2-.4c-.7.2-1-.3-.6-1 1.3.5.5 2.3.5 3.1a6.2 6.2 0 0 0 1 3.2c.3-.7.3-1.4.1-2.2-.1-.6-.8-1.4-.4-1.9 1 .3.2 1 0 1.7 0 .6.4 1.8.5 2.4m-27.9-34.5l-.7 1.6.7-1.6m2.3-.9l-1.5 2.5.1-.2c.6-.8 1.3-1.2 1.4-2.3M204.4 131.6c.7-1.3 1.3-2.6 1.6-4l-1.6 4m4.1 11l1.4-.5c-.5 0-1 .1-1.4.4m-29.8 6.2c2.3.5 4.8 1.2 7 2.2-1 1-4.3 1-5.8 1.2-1.7 0-3.7-.3-5.4 0 2.2.4 4.6.5 6.8.4 1.8-.2 3.6-.5 5.3.1-1.5 1.7-5.1 2.3-7 3.5 2.1-.6 4.4-1.8 6.6-1.8-.6 1.4-2.3 2.9-3.3 4 1.3-1.3 3.7-3.7 5.5-4.1.2.5-.2 1.1-.7 1.7.8-.8 1.8-1.6 2.8-1l-.1.5c.4-.7 1.1-.8 1.3-1.7 0-.6-.8-1.1 0-1.5.3 1.3-.4 3-.6 4.4-.2 1 .3 1.2.4 2 0 1.2-1 2.2.5 3.2 0-.2.1-.4.3-.5 0 .2-.2.3-.3.4-.2.7.4 1.5.5 2.2.2 1.2-.4 2.2-.8 3.1 1.3-1.4 2.6-3 2.2 0-.2 1.4.7 3 .3 4.2-.2.7-1 1.2-1 2 1-1 1.2-2.6 1.4-4 0-1-.4-2.3.5-3 1 .9.1 3.4 0 4.5-.2 1.3-.2 2.7-.3 4 .3-1.4.8-2.8 1-4.2.2-1 .3-3.6 1.1-4.2.3 1-.1 2 0 3 .3-.9.4-1.9.6-2.8.6.3.5 1.2.8 1.8 0-1.4-.3-3-.4-4.4a5 5 0 0 1 .6-3c.5-1 0-1.5.2-2.4 0-.3.7-.5.8-.8v-1.4c1 .5 1.4 3 2 4 .6 1 1.7 1.3 2.6 2 1.1.8 1.6.5 2.7.9 1.5.4 2 1.7 2.4 3 .1-1-.7-2-.4-2.8 1.2.5 1.6.6 2.5 1.7.8 1.1 1.6 2.3 2.5 3.3-.7-1.5-3.2-3.5-2.8-5.3a9 9 0 0 0 3.4 1.8c-.6-.7-3.6-3.3-1.6-4 .7-.1 1.3.8 1.8 1 1 .5 2 .4 2.8.9-.5-.5-4.5-1.8-4.5-2.6 0-1 4.5.6 5.2.9-2.6-1.2-6.5-1.8-8-4.6l.6.1c-1.4-.6-2.5-2-3.3-3.4-.8-1.3-1.3-3.3-2.5-4.2 1 .6 2 1.5 3.3 2 1.2.6 1.2.3 2.3.1 1.4-.3 3.2.5 4.5 1.2-.5-.4-3.2-1.4-1.5-2.2.5-.2 1.5.6 2 .7l2.7.7c-.8-.4-5.3-1.2-3.3-2.6.6-.4 1.6-.5 2.5-.4-1.5-.3-2.6-.6-2.7-1.2 0-.4 1.2-.6 2.9-.5-1-.2-2.4-.5-2.8-1 .8-1.2 3.8-.7 5.2-.8 1.1 0 3-.5 4.1-1-2.6.6-4.6.7-7.3.6-.7 0-2.1.2-1-.9.3-.4 1-.6 1.7-.8l-1.8.4c-1 .3-3.2.7-4.2 0l.5-.4c-1.3.4-2.6.5-3.7 0l.2-.4c-1.8.5-3.6.6-4.5-.6.4-.3.7-.6.7-1-.3.2-.7.1-1.1.2v-.5c-1 0-2.5.6-3.7 1.3 0-1.3 2.4-1.3 3.3-1.9.7-.5.8-1.2 1.3-1.9.5-.6 1.2-.9 1.4-1.7-.5 0-.7.4-1.3 0 .2-.2.1-.4.2-.7-.4 0-.8-.2-1.1-.3l1-1.4c-.6.7-1.2 1.3-2 1.5l1-2.3c-.4.7-.8 1.2-1.3 1.3-1.7.5 0-2.8.3-3.6.6-1.3 1-2.9 1.2-4.3.3-1.2 1.2-3.2.7-4.2-1.2 3.8-1.6 7.5-3.6 11.2-1.4-.4 0-6.4 0-7.7.2-1.8 1.4-5.9 0-7.2-.4 1.8-.3 4-.4 6-.1 1.8-.5 3.5-.6 5.3 0 .7 0 5.4-1.2 4.4-.6-.6-.6-4-.7-4.8a25 25 0 0 0-1.3-5.2l-3-8c1.2 6.7 5.5 12 3.6 18.3-.2-.6-.2-1.2-.5-1.7-.3 1 .3 2-.3 3-1.6-2.8-2-6.4-3.7-9.3l2.4 7.2c.4 1.5 1.4 4.5.5 6-.4-.4-.8-1.7-1-2.3.2 1 .9 2.2.2 3.2-1.2-1-1.7 1-2.2 1.7-.2.4-.8.8-.8 1.3 0 .4 1 .5.5 1-.5.7-.8-.4-1.1-.4-.6 0-.5 0-1.2.3-.3.2-.2.5-.4.7l-1 .1c-.3.4-.5.6-.5 1.2-1-.4-1.6-1.4-2.5-2 .6.8 2.2 2.3 2 3.3-1.2-.4-1.8-1.3-2.8-2-.6-.5-1.5-.6-2-1 1 1 2 1.7 3.3 2.4 1.2.6 1.9 1.5 0 1.3-1.7-.2-4.3-1.2-5.9-2.3.7.6 1.5 1.1 2.4 1.5 1.2.6 3 .6 4 1.6-.7 2-11.6-2.3-13.4-3 1 1.4 3.8 2 5.3 2.2m13.3 13l.3-.4c-.2.1-.3.3-.3.4m-9.2-17l.2.2-.2-.2m27.1-2.6l1.2-.1a6 6 0 0 0 2.6-1.4c-.8.3-2.2 1-3.8 1.5m2 .8c.7-.1 1.2-.4 1.8-.6-.6.2-1.2.3-1.7.6m-1.3 13.7l1.1.3c-.3-.2-.7-.3-1-.3m8.6-7.9c1 .2 2 .6 3 .5-.5-.2-1.7-.4-3-.5M186.9 156.8l.8-.9-.8.9m31-8.3h-.5a48.9 48.9 0 0 0 .6 0m-1.5-7.5l-2.8 1.3c1.1-.3 2.2-.5 2.8-1.3m1 1.9c1-.2 2-.4 2.6-.8-.6.3-1.7.5-2.6.8m3.3 4a56.2 56.2 0 0 0-2 0h2m2.2.2a6 6 0 0 0-2.2-.2l2.2.2m-13.6-19.9c3-2.8 6.8-4.9 10-7.5v-.2c.2-1.3 2.2-3 1.5-4l.5-1v.1c0 .1-.4 0-.5.2-.3.7-1 1.1-1.5 1.4l-1.3 1.1c-1.5 1.3-3 2.2-4.6 3.5-2.8 2-3.7 5.3-5.5 8.2l1.4-1.8m-.2 48.9c-2.6 1.2-.3 4.3.6 5.6.4.6.4 1.6.9 2.1.5.7 2 .8 2.1 1.8.2 1.2-.8 1.1-1.2 1.8a7 7 0 0 0-.8 4.6c.6 3.1 3.5 5.6 5.2 8 .9 1.3.2 1 1.6 1.5.7.3 1.7.4 2.4 1 1.4.8 1 1 2.6 1 1-.2 1.8 0 2.8 0 1 0 1.7-.2 2.8 0l1.5.6c1 .1 1.5-.3 2.4-.3 1.4 0 2.3 1.2 3.8 1.5 1.5.3 2.7-.3 4-1l-1.4-2c-.2.2-.4.4-.3.7-.1-.3 0-.5.3-.7-1-1.1-2.3-2-4-1.7-.4 0-.3.8 0 1.3-1.3.1-2-1.6-2.6-2.5-1.1-1.4-2-2.9-2.7-4.5l-1.4-3.2-.7-1.7-1.1-3.4c0 3.7-.4 7.5.9 11-1-.2-1.7-1-2.6-1-2.1 0-2.2-2.5-2.8-4-.2-.5 0-1.1-.2-1.6a12 12 0 0 1-2 6c0 .3-.5.2-.7-.1-1-2-1.2-4.4-2.3-6.2-.3.7-.5 1.8-1.4 2-.3.2-.7-.6-.8-.8.3-4.8 1.2-9.2.2-14.2v-.9l-.2 1.7-.2 6.7c0 .6 0 1.6-.5 2.2l-.2-.5c0-1.3 1-3.4-1-3.7-1-.2-1.9-1.2-1.9-2.2-.1-1.6.3-3.1-.2-4.5-.5-1.1-1-2.2-1.7-3.1-1-1.2-2-2.4-2.8-3.7l1.5 3.2c.5 1 1.9 2 2.1 3.2M248.7 189.9l1.4 1.2-1.3-1.5c-1-1-2-1.5-2.9-2.4-1.2-1.3-2.6-2.8-4.2-4 .4.6.8 1.3 1.3 1.8 1.2 1.4 3 2.2 4.2 3.6.5.5 1.1.8 1.5 1.3m-3 3.6L242 191c-.6-.5-1.2-.8-1.9-1.2a27 27 0 0 0 5.5 3.6m7-36.7c1.1 0 2.3-.4 3.5-.7l.6-2.3c1-3.6 4.1-6.5 5-9.8.8-2.7-.4-6.6-1-9.7-.3 1.4-.2 2.8.3 4.2.1.3-.2.8-.5 1l-1 .7c-.8.8-1.3 1.9-2.4 2-1.7.1-3 1-4.4 1.6l-.3.1c3-.5 6.3-.1 8.5-2.4-.6.6-.9 1.3-1.3 2l-.7.5c-.6.6-.9 1.3-1.4 1.9-.4.5-1 1-1.7 1.1-2.6.6-4.9 2-7.4 2.5l10.3-1c-1.4 2.7-1.8 6.3-5.3 7 0 0-.3-.1-.4 0-.3 0-.5.3-.8.3-3.4 0-6.7.4-10.2.2a14 14 0 0 0 8.8.7h1.8m-1.2 6.1a17 17 0 0 1-.3-.6c2 0 3.4-2.3 4.4-4.5-1.2 1.2-2.2 3-3.9 2.7-1.8-.1-3-2.1-4.7-2.4-1.8-.3-3.2 1.3-5 1.9l-1.2-.3-6.8-1c-1.3-.4-2.7-1-4-1.3-4.3-1.2-8.3-2-12.7-2.6-.2 0-.5-.2-.7.2-1.5-1-3-1.9-4.3-3.1-.8-.9-2-1.1-3-1.3.3.4.7.8 1.2 1 1.8 1 3.4 2 4.7 3.6.6.8 2.1.4 3.2.4.9.1 1.8.4 2.6.6l.8.1c1.8.3 3.3 1 5 1.5 2.7.7 5.2 1 7.9 1.3 1.3.2 2.3 1.2 3.6 1.4h.6c2.6.4 6 .4 7.9-1.4 1.6 1 2.9 3.2 4.7 3.8M152 127.2h.3c2.1-.4 3.7.7 5.3 2 1.8 1.3 3.1 3 5 4 4.7 2.4 9.8 4.6 13.1 8.8-2.1-2.8-4.6-5.3-7.2-8-1.1-1.1-2-2.6-3.3-3.9-.3-.2-.5-.6-.7-1 5.8 1.6 12.9 3.3 15.4 9.7.9 2.2 3.5 2.7 5.5 3.8-.8-.5-1.6-2.2-1-2.3 1.6-.4 3.5.6 4.6 2.1v-.4c-1.2-1.2-2.3-2.5-2.9-2.9a7.4 7.4 0 0 1-1-.7c-1-1-1.6-2.3-2.8-3.6-1.7-1.9-5-3.4-7.3-4.7-2-1.2-3.9-.5-6-1.2-1.2-.3-2-1.2-3.2-1.5-1.1-.3-2.4-.1-3.6-.2-2.5-.3-5.2-1.9-7.8-1.5-1 .2-1.6.9-2.4 1.5m-14.1 13.5c.1.4.5.7 1.2.9l.3-.6c.7.4.7 1.5.7 2.4.3 0 .7 0 1 .2 5.1 1.9 9.9 5 15.5 5a42 42 0 0 1-15-6.8c-1.1-.8-2.4-1-3.7-1m51.8 19.6c-1.5 1.9-4.2 3.4-5.4 5.2-.7 1.1-1.8 3.5-1.1 4.8.8 1.4 2.9 1 1.4 3.3-3.2.5-5.4.2-7.7 2.2.9-.5 1.7-.8 2.8-.6 3 .8 6.2.4 8-2.2a20 20 0 0 0 2.5-5c-.8 1.3-2.3 1.3-3.6 1.6-.5 0-1-.1-1.4-.5-.2-.2-.5-.3-.5-.7 0-1.2.1-2.5 1.3-3.2 1.9-1.2 3-3 3.7-5m-14.8 26c-.4 1-2.7 1-3.6 1.8-1.2 1.2-3 4.6-3.1 6.3-.2 1 .3 1.8 0 2.7-.1.7-1.2 1-1.3 2.3-.2 2 .7 5.5 1.7 7.2 1.7 3.2 3.2 7 5.4 9.9 2.4 3.1 7.3 5.7 11.6 6.8-.4-.6-1-1-1.6-1.3-.3-.1-.6-.5-.8-1-.3-.6-.6-1.4-.3-2 1.4-2.8 2.4-5.8 2-8.9-.4 1.5-.3 3-1.1 4.4-1 1.4-1.6 2.8-2.8 4.1-.7.9-2 1-2.8.7-2-.7-3.2-3-3.6-5.2-.2-1.2.7-2.3.8-3.6 0-1.4-1-2.4-.8-3.7 1.2-5.2 5.5-7.7 9.6-10.3-1.5.8-3 1.4-4.7 2-2 .8-3.9 2.4-6.1 2.2.4 0 .6-.4.7-.6.7-1.1 1.7-2 2.2-3 2.3-4.5 6.1-7.8 9.5-11.4-1.7 1-2.7 3-4.4 4.3-3.5 2.6-6.8 5.6-11.2 6.5 1.6-1.2 2.8-2.8 3.9-4.5 1.1-1.6 1.4-3.4 2.6-5 1.7-2 3.2-4.9 6-5-2.3-.2-4.3 1.7-6 3.3-.5.5-1.2.8-1.8 1m-1.9-84l.2 1.2v.7c1.7.6 3.2 2 4.6 3.3-.8-2.3-3.2-3.6-4.8-5.2m46.4-3.2l-1.1-1.4c-1.1-1.4-1.9-3.5-3.4-4.6-.8-.6-1.6-.7-2.3-1.6-.6-1-.9-2.2-1.4-3.3-2.1-4.2-7.8-5.6-12.2-5-1.3.2-2.4.7-3.6 1v.2l.3 4.3c.3-1.5 1-3 2.2-4 .6-.5 1.5-.7 2.4-1l1 .1c2.1.6 4 1.6 5.8 2.6l.5.5c.4.5.4 1 .5 1.6l-.3 1.3-.3 3.4c-.2 3.5 0 7 0 10.5.2-1.4.7-2.8.8-4.2.3-3.5.3-7.2 1.8-10.3 1.5.8.6 3.2 1.8 4.2 1 .8 2.7.4 3.2 1.7 1.2 3.9-.6 7.7-1 11.5l-.2.8c1.2-3 2.1-6 2.5-9.3 0-.6.6-1.4 1.2-.8l.6 1c.3.4.8.6 1.2.8m-45.9-4.7a3 3 0 0 1 1-.2c3.8 2.9 6.7 6.7 9.5 10.6.2-.3-.1-.6-.2-.8-.8-1.5-2-2.6-2.7-4-1-1.8-2.3-3.2-2.8-5l-1.1-4.4v.3c-.3 2.6-2.2 2.4-3.7 3.5m12 30a17 17 0 0 1-4.8-3.5c.3.8 1.6 1.6 2 2 2.4 2.3 3 2.9 2 6-.6 2.6.4 5.1.4 7.5v2h.2c2 .9 3 1.7 4.5 3.8l.6 1 1.3 1h1c0-.3-.2-.4-.3-.5a7.5 7.5 0 0 1-2-4.7c0-.4-.3-.8-.7-1.1-.8-.6-1.8-.3-2.7-.9-2-1.6-2.4-4.3-1.2-6.4 0-.2.4-.3.4-.2 2.2 1.5 4.7 3 6 5.3-.7-1.5-1.4-3.1-2-4.9l-.3-.7c-1-2.3-2.2-4.6-4.4-5.7m53.1 78l1.5 1.9c1.6-.9 2.2-2.2 3.5-3.2 1.2-1 2.7-1.4 3.9-2.4 1.4-1.2 4-1.5 4.6-3.4-.1-.2-.3-.3-.5-.3.2-.6 1.3-.6 1.8-1.3.5-.7.8-1.8 1-2.7.6-1.6 1.8-3.8 2-5.5.1-.5 0-1-.2-1.5-3.3.3-6.6-1.7-9.3-3.5l-5.5-3.2c2.4 2.2 5.3 3.5 8.1 5.4l3 1.9c2.6 1.3 3 4.8.8 6.5-.7.5-2 1.2-2.7.4.7.9 1.1 1.8.4 2.8-.9 1-2.4.2-3.6-.2l-1.7-.6c1 .6 1.8 1.3 2.6 2.2.4.3 0 1-.4 1.3-1.4 1-3.3.5-4.4 1.8-.7 1-.8 2.5-1.7 3.2-2 1.1-2.9-2-3.8-3.5 0-.2-.2-.4-.3-.5.6 1.1 1 2.3 1.2 3.6.1.3 0 .5-.3.7m-2.4-7.2c.5.7.8 1.5 1.2 2.2-.7-1.5-1-3-1.8-4.5 0 .8.3 1.5.6 2.3m-.3-9.1c.8 2 2.6 2.9 4.3 3.9l-2.3-1.9c-.8-.5-1.3-1.3-2-2m-75.1-14.2c1.1-1 2.6-1.6 4-2 5.7-2.1 11-4.2 15-8.8-1 2-3.2 3-5 4.3l-.9.5c-2.4 2-4.9 3.7-7.8 4.5-2.4.7-4.2 2.6-5.4 4.8l-.5-.4-2.4 2.5.2-.7a9.6 9.6 0 0 1 2.8-4.7" fill="#6557A5"/><path d="M240 164.8c-.4-1.7-2.6-.7-3.3 0-.5.5-.4 1-1 1.3-.5.2-1.1.1-1.6.2 0-.3-.1-.8-.2-.6 0-.8-.2-2 .1-2.7.4-.9 1.4-1.1 1.2-2.3-.6-3.1-3.8.3-1.9 1-.5 1.6-.2 3-1 4.5-.6-.5-1.4-2-1.6-2.7-.3-1 0-1.7-1-2.3-2.6-1.6-3.6 3.5-.2 2.6.5 1 1.6 2 2 3l-1 .6c-1.5-.2-2.8-1-4-1.6A111 111 0 0 1 215 160c-3.2-2-6.4-3.7-9.4-6-1.7-1.3-3.6-2.2-5-3.8l-1-1.5v-.1c-.5-.5-.5-1.2-1-1.7-.1-.3-1.2-1-1.6-1.4l.2-.4a1 1 0 0 1-.4.2c-1.4.2-3.9-3-4.8-1.2l.8-.1c.6 1.5-1.7 0-1.4 1.3.2.6.7.2 1 .5l.4 1.2c.3 1 .5 1.4-.2 2.1-.3.3-.8 0-1.1.8-.2.4-.4.7 0 1.1.3-.5.7-1.1 1.3-1.2.3.8-1.3 2.2-.2 2.7.2-.8 1.3-3.4 2.5-1.7l.1.5c0-1.7 2 1.7 2.5 1.6 1.5-.1-2-2.3-2-2.8 2.2.2 4 3 5.6 4.3 3.2 2.5 7.3 4 10.6 6.3 2.8 2 6.1 3.4 9 5 2 1.2 4 2 6 2.7-.3.6-.3 1.6.4 2 .8.5 1.6-.2 2.2-.6l1-.8c.8 0 1.7-.2 2.3-.7.2.1.3.4.5.8.1.7-.6 1.4-.2 2.3.4.9 1.4 1.4 2.4.9 1.1-.6 1-1.7.2-2.6-.8-.9-1.2-.9-1.5-2.2.7 0 1-.4 1.6-.7.6-.2.8 0 1.5 0 .9 0 3-.5 2.7-2m-39.6-22.4c-1.5-.5-2.6 1.4-3.2 2.7l1.4-1.1c.8-.5 1.4-.7 1.8-1.6m.9 6.7l1-.5c.2-.2.7-.1 1-.3-1-1-3.3-1.4-4.6-1.5l1 1.9c.6.6 1.2.5 1.6.4m-6 3.6l-.1-1.4c0 .6 3.5 3 1.5 3-.7-.1-1.2-1-1.4-1.6" fill="#1E1854"/><path d="M55 174.6c.6 1.1 1.4 2.2 2.2 3-.6-1-1.5-2-2.3-3M93.3 187c4.6.7 9 1.2 13.7 1.2 6 .2 11.6-1.8 16.8-4.7.7-.7 1.3-1.5 1.3-2.5-9.6 5-21 7.5-31.8 6M99 183.8a31 31 0 0 0 21.6-8.2c-.8-1-1-2.2-1.2-3.4-3.6 6.5-13.4 9.3-20.4 11.6M102.9 173.2a44.5 44.5 0 0 1-2.5 1.7l2.5-1.7M97.2 135c-1 6.3-8.9 9.6-11.5 15.8 4.6-4 9-7.3 13-11.7a4 4 0 0 1 2.2-1.4l-1-.5c-.9-.5-2-1-2.5-1.8l-.2-.4M63.4 159.3c.3-6.9-2.3-13.7-2.3-20.6l-.8 2.5c2.5 5.3 1.2 12.4 3.1 18M77.5 197.1a15.9 15.9 0 0 1-3.8-6.1c2.5 10.3 12.7 15.8 16.5 25.4v.7c.6-.2 1.2-.2 2 0 1.4.4 2.1 1.5 3.4 2.3 1.7 1 3.5 1 5.4.8h.7c-10.5-3.4-16.5-14.9-24.2-23.1M74 221.1a25.4 25.4 0 0 1-11.3-12.8c.4 2.5-.4 5.3 1 7.1 2 3.8 5.2 7 7 10.7l.5-1.2c.6-1.5 1.7-1.7 3.1-2l1.3-.2c-.5-.7-.8-1.4-1.5-1.6M43 195.2c-8.7.2-13.6 5.2-16.3 12.7-2.3 5.6-9 .5-13.7 0-2-.1-4.3-.2-6.5.1A7 7 0 0 1 6 210c-.7 1.8-1.2.5-2.7.8-.2.8-.7 2-.7 2.9 1.5-1.2 2.5-3.1 4.5-3.4 1.5.2 3.2-.3 4.2 0 6 1.7 13.2 5.5 17.7-.2 1.6-2.3 1.8-5.6 4.2-7.7 2.5-1.7 5-2 7.5-3.3 2.6-.6 3.6-3.3 5.3-5.6-1.5.3-2 2-3 1.8M27.7 193.2c-5 2.2-9.5 3.7-15 3.9.8.7 1.6 1.4 2.3 1.8a6 6 0 0 0-2.8.2c4.8.6 9.8.2 14.2-3.4 3.9-3.6 9.9-2 15.3-3.6.2-.3 1.5-1.5.6-1.3-4.9.8-10.2.4-14.6 2.4M44.3 167c.7-2.2 1-4.6 1.7-7a10 10 0 0 0-1.6-2.9c.9 3.3.2 6.8-.1 9.9M49.6 166.4l-.5-.4c.7 4.5 2.9 8.7 6.7 11.8-2.8-3-5.4-7.1-6.2-11.4" fill="#6557A5"/><path d="M97.2 135c-.5-1-.4-2.2-1.2-3.2-1.5-1.8-3-1-4.8-.2-1.8-.5-3.6-3.2-5.8-2-1 .5-1 1.3-1.8 1.4-1.5 1.8-2.6 4-3.7 5.8 1.2-2 2.3-4.4 1.8-6.4l-1.8-.9c-1.2-.2-1.7.1-3 .3-.8.2-1.9 0-2.8.3-2 .8-3.7 3-5.8 3.7-1.5.5-2.2.3-3.6 1.4-1.2.8-2.6 1.6-3.3 3l-.3.5c0 6.9 2.6 13.7 2.3 20.6-1.9-5.7-.6-12.8-3.1-18l-.7 1.8c-.9 2-2 3.9-3 5.8-1.7 2.8-2.5 4.1-2.4 7.4.2 3.5-.9 5.7-2 8.8-1 3.1-.5 4.8 1.3 7.5l1.4 2c.8 1 1.7 2 2.3 3-.8-.8-1.6-1.9-2.3-3l-2.2-2.6a7.7 7.7 0 0 1-1.8-3.9c-.3-1.4-.6-1.3-1.3-1.7.8 4.3 3.4 8.3 6.2 11.4-3.8-3-6-7.3-6.7-11.8l-.2-.2c-.5-.6-.8-2-1.4-2.7-.8-1-1.1-2-1.5-3-.8 2.3-1 4.7-1.7 6.9.3-3 1-6.6 0-9.9-1.3-1.6-3.3-2.3-5-3.6a25 25 0 0 0 2 12.7 36.7 36.7 0 0 1-3.1-14l-1.4-2c-1.5-2-2.6-3.3-5.3-2.8l-4.4 1.1c.8 5 4 9.8 6 14.4-3.5-4.2-5.2-10.1-10.1-12.8-.9-.6-1 2-1.3 1.7-1.2-.4-1.9-1.4-2.5-2.5l-2.5 1.3c0 6 5 11 7 16.3-3.6-4.2-8.1-8.4-10-13.8-1.3.4-2-.5-3.2 1.4-.7 1-1.3 2.4-2.3 3.1 3.6 6.5 10.7 11 16 16.5-6.3-4.5-15-8.7-18.8-15.7l-.2.1a9.9 9.9 0 0 0-3.9 7c4 5.2 12.6 8.6 17 12.9-7-1.6-11.8-7-17.2-11 0 .3 0 .5-.2.8-.3.8-1 .6-.9 1.7.1.7 1 1.3 1 2.4.1.4 0 .8-.1 1.3 5 4.4 12 6.7 18.6 8.6 1.3.2 2.6.5 3.8 1l-3.8-1c-3.5-.6-7.3-.2-10.9 0-3 .2-6-1-8.4-2.9.1.8.4 1.5 1 2 1 1.4 2.3 1.2 3 2.9.5 1.5.6 3.2 1.4 4.6.7 1.2 2 2.3 3 3.4 1.1 1.3 2.6 3.3 4.2 4.9 5.4-.2 9.9-1.7 15-3.9 4.3-2 9.6-1.6 14.5-2.4 1-.2-.4 1-.6 1.3-5.4 1.7-11.4 0-15.3 3.6-4.4 3.6-9.4 4-14.2 3.4a4 4 0 0 0-1.1.7c-.6.4-1 1.2-1.7 1.7s-1.3.5-1.8 1.4c-1 1.5-.9 3.4-1.1 5.1 2.2-.3 4.4-.2 6.5 0 4.8.4 11.4 5.5 13.7-.1 2.7-7.5 7.6-12.5 16.3-12.7 1 .3 1.5-1.5 3-1.8-1.7 2.3-2.7 5-5.3 5.6-2.6 1.2-5 1.6-7.5 3.3-2.4 2.1-2.6 5.4-4.2 7.7-4.5 5.7-11.6 2-17.7.2-1-.3-2.7.2-4.2 0-2 .3-3 2.2-4.5 3.4 0 .6.1 1 .5 1.4 1.4 1.3 3.6-.3 5-.2.8 0 1 .5 1.7.6.6.2 1.2-.1 1.7 0 1.4.6 1.7 2.3 3 3 1.5 1 3.3.1 4.9-.3 2.2-.6 4.5 0 6.8-.2 3-.2 5.6-.2 8.6-.6l7.6-1.4c1.5-.3 5.5-2.3 6.7-1.2-.3 2.9-3.8 4.5-4.1 7.3-.1 1.5 1 3.3 1.2 4.7.3 1.4 0 3 .7 4.2 1.2 1.7 3 1.5 4.9 1.6 2.5 0 5.1.2 7.5-.5 1.2-.3 3.6-.7 4.2-2l.2.2c.3-.3.8-.5 1.6-.4 1.5.3 2.9.8 4.3.6.7-.5.7-1.4 1-2.1 0-.7 0-1.4.2-2.2-2-3.7-5-7-7.2-10.7-1.3-1.8-.5-4.6-1-7 2.7 5.2 5.8 10 11.5 12.7.7.2 1 1 1.5 1.6a6 6 0 0 0 1.5-.5l.4-.3a4 4 0 0 1-.4-.8c-.7-5.6-2-10.4-5-14.6 2.8 2 4.1 5 5.4 8 .6 2.3 1.2 4.7 2.2 6.7 1.8.5 2.6 3.1 5 2 2.3-1.3 3-5.4 5.5-6.1v-.7c-3.8-9.6-14-15-16.5-25.4 1 2.3 2 4.4 3.8 6.1 7.7 8.2 13.7 19.7 24.2 23 3 0 7.9-.2 10-2.2 1.2-1 1.6-2.8 2.9-4.1 1-1.1 2-2 2.6-3.5.9-2 .9-4 2-5.9.5-1 1.4-2 1.7-3.2.2-1.2-.5-2.6-.3-3.8-6-2.4-12-3.6-18.5-4.2-8.4-.8-16.8-1.7-22.6-8l.6-.8c3.8 3.1 8 6.2 13 5.8 10.3-.7 19 3.3 28.8 5.2 1.8.4 5.6 2.3 5.8-1 0-.2 0-.5-.2-.7-.8-.4-1.7-.2-2.7-1-2-1.5 1-3.4-.6-4.8-1.4-1.3-3.9.2-2-2.4.4-.7 1-1.3 1.6-2-5.2 2.9-10.7 5-16.8 4.7-4.8 0-9.1-.5-13.7-1.2 10.8 1.5 22.2-1 31.8-6v-.4c-.3-2.5-3.1-3.3-4.5-5a31 31 0 0 1-21.6 8.2c7-2.3 16.8-5.1 20.4-11.6-.2-1-.6-2-1.7-2.7-1-.6-2.3-.4-3.4-.9-.5-.2-.8-.6-1.2-1-11.6 8.2-24.4 20.9-39.1 12.9 8.6 3 17.8.2 25.2-4.7l1.2-.9c1.3-.9 2.6-1.9 3.7-3 .7-1 1.1-2 2.1-2.8 1.6-1.2 3.9-3 4.2-5.2.1-1.2-.6-2.2-.8-3.1-.3-1.4-.1-2.3.1-3.6.4-2 .1-4-1-5.6-.7-1-1.7-1.2-1.8-2.5v-.2c-6.4.4-13 5.5-17.7 9 3.5-7.3 12.6-8 16.7-15v-1.2l-1.2-1.3c-1-1.3-2.4-2-3.8-2.7a4 4 0 0 0-2.2 1.4c-4 4.4-8.4 7.7-13 11.7 2.6-6.2 10.6-9.5 11.5-15.8" fill="#8876B6"/><path d="M39.4 153.5c-.5-.4-.9-.9-1.2-1.4-.1 5 1.4 9.5 3.2 14.1a25 25 0 0 1-2-12.7M27 148.5l-1.4.3c-.1-1-2-1.7-2.8-1.7-1.3.1-2.5 1.6-3.5 2.2.5 1 1.2 2 2.4 2.5.3.2.4-2.3 1.3-1.7 4.9 2.7 6.6 8.6 10 12.8-2-4.6-5.1-9.3-6-14.4M16.6 150.6c-.5.3-1 .5-1.6 1l-.8 1.3-.6.2c2 5.4 6.5 9.6 10.2 13.8-2.1-5.3-7-10.4-7.2-16.3M19.5 182.2l3.8 1c-1.3-.5-2.5-.8-3.8-1M24.2 174.1c-5.3-5.4-12.4-10-16-16.5l-.6.3c-.7.3-1.5 0-2.2.5 3.8 7 12.5 11.2 18.8 15.7M8.6 182.2c3.6-.2 7.4-.6 10.9 0a49.2 49.2 0 0 1-18.6-8.6c-.3 1-.7 2-.8 3v2.7c2.5 2 5.6 3.1 8.5 3M18.2 178.4c-4.3-4.3-13-7.7-16.9-13 0 .7 0 1.4-.2 2 5.4 4 10.2 9.4 17.1 11" fill="#6557A5"/><g transform="translate(63 227.8)"><mask id="d" fill="#fff"><use xlink:href="#c"/></mask><path d="M6.6 2.6c-1.4.3-2.8-.3-4.3-.5C1.5 2 1 2 .7 2.5c1.5 1.4 2.3 3.4 4.9 2 1.9-1 2-2.4 2-4-.3.7-.3 1.6-1 2.1" fill="#6557A5" mask="url(#d)"/></g><path d="M77 221.1l.5.8c.3-.3.6-.7 1.1-.8h1c-1-2-1.5-4.3-2.1-6.5-1.3-3-2.6-6-5.4-8.1 3 4.2 4.3 9 5 14.6M79.9 136.8c1-1.9 2.2-4 3.7-5.8a2 2 0 0 1-.5 0c-.5 0-1-.3-1.4-.6.5 2-.6 4.3-1.8 6.4M89.2 158c4.7-3.6 11.3-8.7 17.7-9.1 0-1.2 1-2.1 1-3.3.1-1.4-1-2.8-2-4v1.3c-4.1 7-13.2 7.7-16.7 15M106 171.8c-2.8 2.4-5.4 3.6-8.6 5.2l1.8-1.2c-7.4 5-16.6 7.7-25.2 4.7 14.7 8 27.5-4.7 39.1-13-.4-.3-.8-.7-1.4-.7-2.4-.4-4.2 3.6-5.8 5M127.7 194.4c-.2 3.3-4 1.4-5.8 1-9.8-1.9-18.5-5.9-28.8-5.2-5 .4-9.2-2.7-13-5.8l-.6.9c5.8 6.2 14.2 7 22.6 8a65.5 65.5 0 0 1 18.6 3.8c1.7 0 5.9 1.6 7.4.8 1.4-.8 1-2.6.1-3.6l-.7-.6.2.7M52 183.6c1-2 0-2.3-1.6-1.9-2 .6-4.2.5-6.1-1 2.6.7 6.4 0 9-1.3-.5-1-2.9-1.6-3.8-2.5 2.6 2.1 6.4 2.2 5.8-2 1.8.4 3.4-.6 5-.8.7-.1 1.3.8 2-.4.7-1.1-.3-3.4 0-4.8 0 1.4-.5 4.2.7 5.3.7.6 3 .6 4 1.1 1.2.6 2 1.6 3 2.5 1 1 2.2 1.4 3.4 2.2-1-.3-1.9-.8-2.8-1 0 1.1 1.9 1.9 2.7 2.6a18 18 0 0 0 4.2 3.1c-2.2-1.1-5.4-1.2-7.1-3.3 1 2.2 1.7 4.9 3.6 6.4-3-1.1-5.4-3.6-8.5-4.6-.5 2.3 2 4.8 3 7 1.2 2.7 3.2 5.4 4.1 8.3a24.3 24.3 0 0 1-6.8-6.5c-1.3 1.6-.2 6.7.7 8.3-1-1.8-2-3.8-2.8-5.7-.5-1.2-1-2.9-2.2-3.5-.1 1-.3 2.2-.7 3.3-1.1-.7-1.7-9.4-4.9-7.1-1.5 1-2 4.2-3.2 5.7-1 1.2-3 3.1-4.6 3.2 1-2 2.5-3.2 3.2-5.5.5-1.5 1-3.3 1-4.8-1.2.8-3.2 2.4-4.9 2 1.1-1.2 5-3.1 4.5-4.3" fill="#6557A5"/><path d="M46.6 219.3c3.5-1.2 6.3-4.8 7.7-8.3 1.5-4 3.5-8.1 4-12.4 1-6.6-.5-13.3-1.3-19.8-.2-2 .2-3.5 2.6-3.2 2 .3 2.2 3 2.4 5.1.6 4.8-.1 9.3-.4 14-.3 4.4-.8 9-2.7 13-1.8 4-6.9 13.9-12.6 11.6.2-.1.4-.3.3 0" fill="#1E1854"/><path d="M48 219c-1-.2-2.3-.2-3.4-.7-.8-.4-1.2-1-1.7-1.7 0-.2-.1-.4-.3-.5-.5-.5-1.5-.2-1.2.6.1.5 1.3 1 1.5.2.2-.6-.8-1-1.2-.7-.1 0-.2.2-.1.3 0 .5.2.6.6.8.6.3.8-.4.3-.7-.6-.4.4 1.3.1.8l.7.6a5.5 5.5 0 0 0 5 1.2l-.2-.2" fill="#6557A5"/><path d="M46.7 219a8.6 8.6 0 0 1-5 4c-.6.3-1.3 1-.7 1.8 1.2 1.3 2.2-1.8.3-1.2l-.1.2v.2c0 .2.1.4.3.5h.2c.6.3.6-.4.1-.6h-.1l.3.4c0-.6-.1-.5.6-.8l.7-.2c.6-.3 1.2-.8 1.7-1.3a8.4 8.4 0 0 0 1.7-3M45.7 219c-2.2 1.2-3.7 2.8-6.2 3.3l.4.3c-.6-1.3-2.2-.1-1.1.6 1 .7 1.7-1 .5-1l-.2.1-.1.2v.3h.1c.3.4 1 .3.5-.1l-.2-.1.4.2a11 11 0 0 0 5.9-3.7" fill="#6557A5"/><path d="M45.7 219.4c-1.7.1-3.7 0-5.3-.6-.6-.2-1-.7-1.6-1 0-.1-.1-.3-.3-.3-.1-.1-.5-.3-.7-.2-.8.3.4 1.6 1.1 1 .2 0 0-.3 0-.4l-.4-.2c-.2-.1-.5 0-.4.2v.2l.4.3h.2c.5 0 .3-.4 0-.5l-.4.2.3.2-.1-.4c-.6.5 2.9 1.6 2.9 1.6 1.4.3 2.9.2 4.3 0" fill="#6557A5"/><path d="M46 219c-3 .4-5.2-2-6.5-4.3h-.4c.4.9 1.7.5 1.1-.3-.5-.8-1.5-.1-1 .6.6.6 1.6-.2.8-.8-.8-.5-1.2.5-.5 1 .2.1.7.1.5-.2-.2-.4-.4-.7-.8-.9h-.4c-.6.7.3 1.2.9 1.2.4 0 0-.6-.2-.6l-.1.3.3-.3h-.2c-.1-.2-.6-.3-.5 0 1.1 2.1 4.2 5.9 7 4.4" fill="#6557A5"/><path d="M39.6 220.6c-.2.1-.5-.2-.3-.4.2 0 .4.2.4.4s-.3.4-.5.3c-.2 0-.3-.4 0-.5 0-.1.4 0 .4.2-.1.1-.4 0-.4-.1.5.1 1 0 1.6 0l4.5-1.2" fill="#1E1854"/><path d="M39.6 220.6h.7c.5 0 1 0 1.5-.2l3.7-.8c.5-.1-.1-.8-.5-.7l-2.8 1c-1 .3-2 .6-3 .4-.1 0-.2 0-.2.2.2.2.4.4.7.2v-.1c-.4-.8-1.2.1-.5.4.6.3.8-.7 0-.8 0 .3.1.5.4.5M47.7 213.5c.1.1.5 0 .5-.2 0-.4-.5-.5-.8-.4h-.1c-.1.4.3.7.6.8.2 0 .4 0 .4-.3-.1-.3-.4-.5-.6-.5-.3 0-.3.2-.2.4v.1l.2-.4s.1.2.1 0v.2h.2c0 .1-.2.3-.3.2M47.7 215.3l-.3.2v.4c.3.2.6.4.8.3.7-.3-.2-1.3-.7-.9-.3.3.4.9.7.5-.1.2-.4-.1-.4-.1v-.2l-.1-.2" fill="#6557A5"/><path d="M51 208.2c-.2.1-.2.4-.1.5 0 .3.4.3.6.2l.1-.2c0-.2-.3-.4-.5-.5-.2 0-.4 0-.3.3a21 21 0 0 1 .3.2l-.1-.2a47.7 47.7 0 0 1 .2-.2s-.2-.3-.3-.1M49.6 212.7c-.3.4.5.8.9.4.4-.5-.9-1.2-1.1-.4l.3.4c.1 0 .5.1.5-.1l-.1-.1-.2-.1v.1l-.1-.2s-.1-.1-.2 0M49.3 220.6c-.2.1-.2.3-.1.5s.4.4.7.3v-.3l-.1-.2c-.1-.2-.3-.3-.5-.2-.2 0-.1.3 0 .4l.2.2v-.4c-.2 0 .1 0 0 0 .1-.2-.1-.3-.2-.3M55.6 217.4c-.1 0-.2.1-.1.3 0 .2.3.3.4.3.2 0 .3-.1.3-.3 0-.2-.2-.4-.4-.4l-.3.1c0 .2.2.3.3.4-.2-.1-.2-.2-.1-.3l.2.1c0-.2-.2-.3-.3-.2M58.6 212.7c-.2 0-.3.1-.3.3 0 .2.2.4.4.5h.4c.2-.4-.4-.9-.8-.7-.4.1.2.8.6.6-.2 0-.4 0-.5-.2l.3-.2s.1 0 0 0v-.2h-.1M58 217.9l-.2.2c0 .3.2.5.4.5.3 0 .4-.3.3-.5-.2-.2-.6-.5-.9-.2-.4.4.6 1 .8.5h-.2-.1a54 54 0 0 0-.3-.2l.3-.1v-.2M52.6 209.5c-.2.1-.3.3-.2.5 0 .2.3.4.5.5.2 0 .4 0 .3-.3 0-.1 0-.2-.2-.3 0-.1-.3-.3-.5-.2-.2 0-.2.2 0 .4 0 0 0 .2.2.2v-.4h.2v-.1c.1-.2-.2-.3-.3-.3M48.9 211.1v.6c.2.2.5.4.8.3.2-.1.2-.3.1-.5a.7.7 0 0 0-.7-.4c-.2 0-.2.3 0 .4a64.8 64.8 0 0 0 .3.2l-.2-.1-.1-.2h.3l.2.2c0-.2 0-.4-.2-.5h-.5M47 217.2c-.2 0-.4.2-.3.4.1.3.6.5.8.3.2-.2 0-.5-.3-.5l-.2-.1c-.2 0-.4 0-.3.2l.6.4-.3-.4h.1l.1-.1c.1 0 0-.2-.2-.2M51.2 219.8c-.2 0-.4.2-.4.4.1.3.4.4.7.4l.2-.1c0-.3-.2-.6-.5-.6-.1-.1-.4-.1-.4.1s.2.4.4.4h-.1l-.1-.2v-.1c.2.1.3.2.3 0 .2 0 0-.3-.1-.3M50.6 213.2l-.2.3.2.4.7.2.3-.1v-.3c0-.3-.2-.5-.4-.6-.2 0-.5 0-.5.2-.1.4.7.8.7.4h-.2-.2v-.2l-.1.1.2-.1h-.2l.2.3c.3-.3-.2-.7-.5-.6M49.3 215.6l.3.6c.1 0 .3.2.5 0 .2 0 .3-.5 0-.7-.2-.3-.7-.3-.9 0 0 .2 0 .4.2.5.1 0 .5.2.5 0 0 0 .1 0 0 0l-.3-.4v.2h.3v-.2c-.1-.1-.6-.3-.6 0M51.5 210.9c-.2 0-.4 0-.6.2-.2.3.2.6.3.6.3.2.5.2.8.1.2 0 .2-.2.1-.4a1 1 0 0 0-.9-.6c-.2 0-.3.2-.3.4a137.3 137.3 0 0 1 .3.3v-.5H51a938.2 938.2 0 0 0 .7.5c.5 0 .1-.6-.2-.6M52.8 212.6c0 .2.3.2.4.2h.2v-.2c0-.2-.2-.4-.3-.4h-.5c-.1.2 0 .5.1.6.2.2.6.3.7 0 .1-.2-.2-.5-.5-.6l.3.2.1.2H53l.1.2v-.3h-.2M53.1 207.7c-.2 0-.3.3-.2.6.1.2.4.4.7.3.2 0 .4-.2.4-.4 0-.3-.1-.6-.3-.7-.3-.2-.7-.3-1 0l.1.7c.2.2.5.4.7.3.3 0 .3-.3.2-.5v.1l-.6-.2c0 .1 0 0 0 0l-.2.1h.6c.2.2 0 .2.2.1 0-.1 0-.3-.2-.4 0 0-.2-.1-.4 0M54.4 210.3l-.1-.1c-.2-.2-.6-.4-.8-.1l.2.4.6.3c.5 0 .5-.5.3-.8-.1-.3-.4-.5-.7-.5-.3 0-.3.3-.2.6h.5l.1.2-.6.1.1.2c.2 0 .4.2.5.1.2 0 .2-.2 0-.4M53.9 205.5c-.2.4.2.7.5.8l.3-.1c.2-.2 0-.5 0-.6-.3-.2-.6-.3-1-.2-.2.1 0 .5.2.6.2.2.5.3.7 0-.2.2-.6 0-.6-.2l.2-.1c-.2 0 0 0 0 0l-.1-.2h-.2M58.3 211.3c0 .4 0 .7.3.9.2.1.5.3.6 0 .3-.3 0-.8-.5-1h-.5c0 .1 0 0 0 0h.3c-.3 0-.5 0-.5.3 0 .2.2.4.4.5.3.1.7.2.7-.2l-.4.2-.2-.1v-.1h.4v-.1l-.1-.2c0-.2-.5-.4-.5-.2M56 211.6v0c0 .3.2.4.4.4s.3 0 .3-.2c0-.5-.7-.7-1-.6-.4.1-.3.5-.1.7l.4.2.4-.1-.3-.1-.1-.2a458.5 458.5 0 0 1 .1 0s0-.1-.1 0M56.5 214.8c.1 0 .3 0 .4-.2.2-.1.1-.4 0-.5-.2-.4-1-.6-1.2-.2-.3.5.8 1.1 1 .6h-.2-.2l-.2-.3v.2c0 .2.2.3.4.4M54.3 213.9c-.2-.3-.6-.5-.8-.2-.2.3.2.6.4.8.3 0 .7 0 .6-.4-.1-.2-.5-.6-.8-.5h.2a63.5 63.5 0 0 0 .4.6h-.1c.2 0 .2-.2.1-.3M53.2 217c-.1.2 0 .3 0 .4l.5.2h.3c.1 0 .2 0 .3-.2.1-.3-.3-.6-.5-.7-.3 0-.6 0-.7.2l.3.6c.2 0 .5.2.6 0h-.2-.3c0-.1 0-.2-.2-.3V217l-.1.2h.6c-.2-.2-.6-.5-.6-.1M52.7 219.9c.1.3.7.6.9.2.1-.4-.2-.7-.5-.8-.3 0-.6 0-.5.4l.2.3a32 32 0 0 1 0-.2l-.1.1M52.1 221.8h.2c0 .1.2.2.4.1v-.3c0-.3-.4-.5-.8-.4l-.2.2c0 .3.2.4.3.6.2 0 .6.2.7-.1 0-.3-.3-.5-.5-.6l.4.3V221.8a13.6 13.6 0 0 1-.2 0 86.8 86.8 0 0 0-.3-.1M48 219l.4.4c.2.1.5.2.6 0 .2-.2 0-.4-.2-.6l-.5-.2c-.3 0-.4.2-.2.4M47.2 214.6c.3 0 .6 0 .7-.2 0-.2-.2-.4-.3-.5-.3-.1-.6 0-.7.2 0 .2.3.5.4.5.3 0 .5 0 .5-.2l-.1.1h-.2l-.4-.4-.1.2.2.3M48.1 211.7v.3l-.1.4.2.3h.4l.2-.4c0-.3-.4-.6-.7-.5-.2.1-.2.3-.3.4l.8.2v-.2c-.1-.2-.4-.3-.6-.3-.2 0-.3.1-.2.3v.2c.2.3.8.6.8 0a147.2 147.2 0 0 0-.6 0h.6l-.2-.2v-.4s-.2-.2-.3 0M48.3 216.5c-.3 0 0 .4.1.5.2.2.6.2.6-.1.2-.7-1.2-1-1.1-.3 0 .4.6.7 1 .4v-.1h-.2l-.4-.1v-.2h.2l-.2-.1M49 213.7c-.3.3 0 .6.2.8v-.7h.1a6686920092303.2 6686920092303.2 0 0 0 0-.1c-.2 0-.6-.1-.6.2-.1.4.7 1 1 .6.2-.1 0-.3 0-.4a.7.7 0 0 0-.5-.3s-.2 0 0 0c0 0-.2-.2-.3-.1M54.3 206.8c0 .2 0 .3.2.5l.5.2c.2 0 .5-.1.5-.4.1-.7-1.4-1-1.3-.2 0 .2.2.4.4.5.2 0 .5 0 .5-.2-.1 0-.2 0-.3-.2-.2 0-.3-.1-.2-.2H54.9v.1l.2.2-.1-.2c-.1-.2-.3-.3-.5-.3 0 0-.3 0-.2.2M59.8 208l-.4.2v.4c0 .3.3.6.6.7.1 0 .5.1.5-.1 0-.4-.2-.7-.5-.9-.1-.1-.5-.2-.6 0-.2.2 0 .5.2.6v-.1l.4-.2c-.1 0 0 0 0 0h.1v-.2c0-.2-.2-.4-.3-.4M60.5 211.5h-.4l-.2.3c-.3.5.8 1.2 1 .6l.1-.1v-.2c0-.3-.3-.5-.5-.6M58.7 215.6c.3.3.7.6 1.1.3.4-.3-.2-.7-.4-.8-.3 0-.6 0-.6.4-.1.4.3.7.6.8.3 0 .6-.1.5-.4 0-.3-.4-.6-.7-.6h.2l.1.1.3.3v.1l-.2.1-.6-.7.2.1h-.5v.3M57.3 215.7c-.3.3 0 .6.3.7h.3c.4-.2 0-.7-.3-.8-.3-.2-.7-.1-.8.3 0 .5 1.1 1 1 .3 0 .1 0 .2-.2.1h-.2l-.2-.2.1-.3h.1l.3.2c0-.1-.3-.4-.4-.3M56.3 219.8l.2.1h.5c.1-.3 0-.5-.2-.6l-.4-.2c-.2-.1-.7-.1-.6.3 0 .3.4.5.7.6h.4l-.6-.9h-.1c-.2 0-.3.1-.3.3 0 .2.2.4.4.4" fill="#1E1854"/><path d="M56.5 211.4c-.1 0-.2 0-.2.2v.2c.1.3.4.5.7.5.1 0 .3 0 .3-.2 0-.3 0-.5-.2-.7-.1-.3-.6-.6-.9-.3-.2.3-.1.6 0 .8.2.2.6.5 1 .3.2-.1 0-.5-.1-.7l.1.3h-.8c0-.2-.1-.2 0-.1l.1-.3a16.2 16.2 0 0 0 .4.1l.1.3c0-.3-.3-.5-.5-.4M55.8 209.4c0 .2.2.3.4.3.3 0 .3-.3.1-.5l-.3-.2h-.3c-.2.1-.3.3-.2.5.1.3.6.7.8.4.3-.3-.2-.7-.4-.7l.3.1v.1l.1.2h-.1-.2 0l-.1-.1v-.1-.1H55.8M58.3 208.5c-.2-.2-.5-.3-.7 0-.2.3.2.6.4.6.3 0 .7-.1.5-.4a.7.7 0 0 0-.6-.4c-.1 0-.3 0-.3.2 0 .3.2.6.5.6.2 0 .5 0 .4-.4v.2l-.1.1H58c0-.2-.2-.2-.2-.3v-.2c0 .1 0 0 0 0h.2l.1.2.1.1h-.1.2v-.3M56.5 207.2c-.2 0-.3.2-.2.4.1.3.6.6.9.3.2-.4-.3-.8-.6-.9-.3 0-.6 0-.6.5 0 .3.4.6.8.6.3 0 .4-.3.2-.6v.3h-.5a32.7 32.7 0 0 1-.2-.3l.2-.2h.1l.2.1c0-.1-.1-.3-.3-.2M50.5 217.8c-.3 0-.3.3-.1.5.2.4.6.6 1 .4.2-.2 0-.5 0-.6-.2-.2-.5-.4-.8-.3 0 0 .2 0 0 0l.3.1.1.1c0-.1-.3-.3-.5-.2M52.2 216.1l.2.2c.2.2.7.4.8 0 0-.4-.3-.8-.6-1h-.7c-.2.2-.3.4-.2.6 0 .3.4.6.8.6l.3-.1c.2-.2 0-.4 0-.5v.1s0 .1 0 0h-.5-.1c0-.1 0-.1 0 0l.6-.2-.3-.1c-.1 0-.4-.1-.4 0-.1.2 0 .3 0 .4M49.3 217.5c-.4 0-.5.3-.3.5.1.2.3.3.6.3.2 0 .4-.2.3-.4-.2-.2-.4-.4-.6-.4M46.3 216.4v.2c.1.3.5.5.7.4.3-.2.4-.5.3-.8-.1-.2-.5-.4-.7-.3l-.3.1c-.3.3.4 1 .7.7l.2-.1-.7-.4v.2l.6.3v-.2c-.1-.3-.8-.5-.8 0M46.3 218.9c.2.3.8.4 1 .1v-.3a.6.6 0 0 0-.4-.3h-.3c-.2 0-.2.3-.2.4.1.2.3.3.5.3h.3l-.6-.5.1.1h-.3c-.2 0-.1.1 0 .2M53.5 219.7c.2 0 .4 0 .5-.2v-.5c0-.3-.3-.5-.6-.5-.1 0-.3 0-.4.3-.1.3.1.5.4.6.3.1.6 0 .5-.3-.2.1-.2.2 0 .1h-.3l-.3-.3v.5s0 .2.2.3" fill="#1E1854"/><path d="M51.2 218.1c.2.3.4.4.7.4.3 0 .5-.2.5-.5s-.2-.7-.5-.8c-.3-.2-.7 0-.7.4 0 .3.3.5.6.5.2 0 .5 0 .4-.3v.2l-.6-.1v-.2s0 .1 0 0l-.1.2h-.3v.2M50.1 219.7h.3l.2-.2c0-.4-.3-.7-.7-.7-.4 0-.4.4-.2.6.2.1.5.3.7.1.1-.1 0-.4-.2-.5l.2.2a10.7 10.7 0 0 1 0 .2h-.2-.1l-.2-.1v-.2l-.2.1v.3l.4.2M51 212.7c.3.2.7.1.6-.2 0-.3-.7-.7-.9-.3 0 .2 0 .3.2.5 0 0 .3.2.5 0h-.1-.2l-.2-.2c0 .1 0 .2.2.2M48.7 209.8v.4c0 .3.3.5.5.5l.5-.1c0-.2 0-.4-.2-.6a.6.6 0 0 0-.5-.1h.3c-.2 0-.4-.2-.5-.1-.2 0-.3.2-.2.3.2.3.5.6 1 .5l-.6-.2-.1-.2v-.2h.2l.2.1v-.1l-.2-.2c-.1-.1-.4-.2-.4 0M46.7 212.2l-.2.2v.2l.3.2h.5c.3-.2.1-.5 0-.7-.2-.1-.5-.3-.6 0-.2 0 0 .3.1.4v-.1h-.1v-.1h-.1l.4.3v-.2c.1-.1-.2-.3-.3-.2M51.9 207.3h-.1.2-.4l-.3.2c-.1.2 0 .4.1.6l.7.2.3-.2c.2-.1 0-.4 0-.5-.2-.2-.5-.3-.7-.3l-.3.2.8.7c0-.2.2-.3.1-.4 0-.1 0-.3-.2-.4l.2.2c0-.2-.3-.4-.4-.3M55.8 205.5h-.2.2l.2.2.2.1.1.3v-.1l-.1-.3c-.1-.2-.5-.4-.7-.3-.3.1-.3.4-.2.6.2.2.4.4.6.4.2 0 .4 0 .4-.3 0-.2 0-.3-.2-.4l-.3-.2M52.5 206.8l.5.2c.2 0 .3-.3.2-.4-.1-.3-.3-.4-.5-.4s-.5 0-.5.2.1.4.3.5h.5c0-.1 0 0 0 0h-.2a31.6 31.6 0 0 0-.3-.2v-.1c-.1-.1-.1 0 0 .2M51.9 210c.1.2.3.2.4.2.3 0 .2-.3.1-.5a.6.6 0 0 0-.5-.2h-.3c-.2.1-.2.3-.1.5s.4.3.6.2h.3l-.7-.6.2-.1c-.1 0-.3 0-.3.2s.2.3.3.4M54.7 208.8c0-.2 0-.3.2-.3 0 0 .1-.1.2 0 0 0 0 .2-.2.2 0 0-.1 0 0 0v.2c0-.2-.3-.4-.5-.4-.3 0-.3.2-.2.4.2.3.6.6 1 .5.4-.1.5-.5.4-.9-.1-.3-.5-.5-.8-.5-.3.1-.5.4-.5.7 0 0 .4.2.4 0M52.1 213.4c-.2 0-.1.4 0 .5.2.3.5.5.8.3.2 0 .1-.3 0-.4 0-.2-.3-.4-.6-.4-.2 0-.4.2-.3.4 0 .2.1.3.3.4 0 0 .3.1.4 0 0 0 .1 0 0 0h-.2l-.2-.2v-.5c-.2.2.1 0 .2.1 0 0 .2.1.1.2.1-.3-.3-.6-.5-.4M58.2 210.4h-.1c-.2.2 0 .5 0 .6.2.1.5.3.7.1.2-.1.3-.4.2-.6a1 1 0 0 0-.8-.6c-.2 0-.5 0-.6.3 0 .3.3.6.5.7.2.2.6.1.7-.1 0-.3-.3-.5-.5-.7l.2.2.2.2v.2h-.2c-.4.1-.5-.5-.5-.2v.3l.7-.2-.2-.1.2.1c-.1-.2-.4-.4-.5-.2M59.4 214.4h.1l-.2-.1.5-.5c-.2 0-.5-.1-.8 0-.2 0-.2.2-.1.4 0 .2.3.4.5.4h.7c.4-.2 0-.7-.3-.8h-.6c-.2.1-.2.3 0 .4l.2.2M55.8 212.8c-.1.1 0 .3.1.4.2.2.4.2.6.1.2 0 .2-.2.1-.4a.7.7 0 0 0-.5-.3h-.3c-.2 0-.3 0-.3.2s.1.3.3.4c.2.2.6.3.9 0l-.8-.5s-.1 0 0 0h.1l.3.2-.2-.2h-.3M53.4 211.8v.3c.1.3.6.6.8.3.2-.3-.1-.7-.4-.8-.2 0-.5-.1-.5.1 0 .3.3.5.5.5h-.2l-.1-.3.6.1-.3-.2c-.1-.1-.4-.2-.4 0M52.2 211h.2c0 .2.3.3.4.2.1-.1 0-.3 0-.4-.2-.1-.4-.2-.6-.1-.2.1-.2.3 0 .5 0 .2.4.4.6.2.2-.2 0-.5-.3-.6l.2.1.1.2-.6-.3v.2" fill="#1E1854"/><path d="M54.9 205.7l.4-.3c0-.3-.2-.5-.4-.6-.2-.1-.6-.1-.7.2 0 .3.4.6.7.7.2 0 .5-.1.4-.4 0-.3-.4-.5-.7-.5h.2l.3.2v.4h-.2-.2l-.1-.2-.1.2c0 .2.2.4.4.3M60.8 206.8c0-.1-.2-.3-.4-.3l-.3.1.1.4c.2.2.6.5.8.2.2-.3 0-.6-.3-.7-.2-.2-.5-.3-.8-.1 0 0-.1.2 0 .2 0 .3.2.5.4.7h.7c.3-.2.1-.5 0-.7-.2-.1-.6-.4-.8-.2h.3l.2.2.1.2v.3c-.3.2-.7-.4-.6-.1l.2-.5h.2l.1.3h-.3c.1 0 .3.2.4 0M57.7 206.2c-.3 0-.4.3-.3.5.1.3.5.5.8.5.2 0 .3-.3.3-.5 0-.4-.4-.6-.7-.6l.5.3c-.2-.3-.5-.4-.8-.4-.2.1-.4.3-.3.5 0 .3.2.5.5.5.2 0 .4-.1.3-.4v.1c0 .1-.5-.2-.3 0l-.1-.2.2.2.2.1s.1 0 0 0h-.2l-.1-.3h.3l.1.2c.1-.1 0-.3 0-.4-.1 0-.3-.1-.4 0M61.5 208.6l-.2.2-.1.3.3.3h.3c.2-.3 0-.5-.2-.7-.2-.2-.6-.2-.7.1 0 .2.3.5.4.6.2 0 .6 0 .5-.3l-.1.2h-.1-.2l-.2-.2v-.1l.3-.1h-.1.2v-.2l-.1-.1M59.6 210.4s-.2.1-.1.3c0 .3.3.5.6.6.2 0 .4 0 .4-.3 0-.4-.5-.8-.9-.8s-.4.5-.2.8c.2.2.5.4.8.3.2-.2.1-.5 0-.7H60l.2.2v.2h-.5c-.1 0-.2 0-.2-.2a63.1 63.1 0 0 1 .4-.3s-.2-.2-.4-.1M58.1 214.5h-.3c-.2.2.1.5.3.5l-.3-.2c0 .2.3.3.5.3.3 0 .4-.2.3-.4-.1-.2-.4-.4-.6-.4-.3 0-.4.2-.3.5 0 .2.3.4.6.4.2 0 .3-.2.2-.4v.2h-.2l-.4-.1-.2-.3.2-.1.4.2-.2-.2M56.4 219c.3.2.6.1.6-.2 0-.4-.5-.6-.8-.6-.5.2 0 1 .5.8h-.2l-.2-.2v-.2c0 .1 0 0 0 0-.3.1 0 .4.1.5M54.3 215.7c.1.3.5.5.9.5l.1-.2c0-.3-.2-.5-.5-.6l-.6.1v.3l.2.3c.1 0 .5.2.6 0-.1 0-.3 0-.4-.2v-.3l.3.1-.3-.2c-.1 0-.3 0-.3.2M52.6 218.5h.1l-.1-.1c.1.1.4.2.5.1.2 0 .1-.2 0-.4a.8.8 0 0 0-.4-.3h-.4v.3c0 .2.3.5.5.4h-.1l-.2-.2v-.3h.1l-.4.1c0 .2.2.3.4.4M48 215c-.2.3.5.8.7.4.2-.1 0-.4-.1-.5-.2-.1-.5-.3-.7-.1-.5.4.6 1 .8.5v.1h-.3l-.4-.3v-.2l.4.1c-.1 0-.3-.2-.4 0M46.8 215.3l-.2-.1v-.2h.2c-.3-.2-.5 0-.3.3 0 .2.5.4.6 0l-.3-.4c-.2 0-.3.1-.2.3l.2.1M47.6 217.8c-.2 0 0 .3 0 .4.2.2.5.2.7 0l-.1-.4-.5-.2c-.2 0-.3.2-.2.4 0 .3.3.5.5.5.3 0 .5 0 .4-.3 0-.3-.4-.5-.7-.4h.4v.1l.2.2c-.3 0-.5-.2-.8-.3 0 .1 0 .1 0 0h.2M51 215.5l-.5.1c-.2.2 0 .4.2.6.2 0 .6.1.6-.2 0-.3-.4-.5-.7-.5-.3 0 0 .4 0 .5l-.1-.2v-.1H50.8l.2.1s.1 0 0-.1v-.2" fill="#1E1854"/><path d="M54 214.8l-.2.2c0 .3.1.5.3.6.3 0 .6 0 .7-.2 0-.4-.3-.6-.5-.8-.2 0-.6 0-.6.3s.4.5.7.6l-.2-.1-.2-.2-.1-.1v-.1l.5.1v.2h.1c.2-.3-.3-.5-.4-.5M55 211.5c-.2 0-.3.3-.3.5 0 .4.5.7.9.7s.3-.6 0-.7l-.3-.2c-.2-.1-.5-.2-.6 0-.2.2 0 .4.2.5l.3.2v-.7c.3.1.3.2.2 0l.2.2s0 .1 0 0l-.1-.3a.5.5 0 0 0-.4-.2M52.2 212c-.4.3.3.8.7.6.2-.2.1-.4 0-.6a.9.9 0 0 0-.7-.3c-.3 0-.4.2-.3.4.1.2.4.4.7.4l-.2-.1-.2-.4c0 .1 0 0 .1 0M50 211.1c.1.1.4.2.5 0 .2 0 .2-.2.2-.4s-.6-.6-.7-.2v.1l-.2.2c-.2 0 0 .3.2.3M47.8 211.4c0 .4.8.5.6 0 0-.2-.2-.3-.4-.3-.1 0-.2.1-.2.3 0-.1 0-.1 0 0h.2s-.2-.1-.2 0M52.1 208.6v.2c0 .1 0 0 0 0a10.2 10.2 0 0 0 .2 0l.4.2c0-.2-.3-.3-.5-.3s-.3.1-.2.3c0 .2.3.4.5.4s.3-.1.3-.3c0-.2-.2-.3-.3-.4 0 0-.3-.1-.4 0M54 207h-.1a40.1 40.1 0 0 0 .3.2v.1l.1.1-.2-.3c-.1-.1-.3-.2-.4-.1-.3.1 0 .5.1.6h.5v-.2c0-.2-.2-.4-.4-.3M55.4 210c-.1 0-.2 0-.3.2l.3.4c.2.2.7.2.7-.2 0-.3-.6-.7-.8-.3h.4l.1.2v.1c.2 0 0-.3 0-.3a.5.5 0 0 0-.4-.2M57 210l.2.1c.2.1 0 0 0 0a8.7 8.7 0 0 1 .1.2v.1h.2-.2c.1 0 .3 0 .3-.2s-.2-.3-.3-.4c-.2-.2-.7-.2-.7.2 0 .3.3.6.6.6l.2-.1v-.4s-.3-.2-.3 0M56.2 208.7l.4.2.2-.2c.1-.6-1-.8-1-.2.1.3.8.7 1 .3h-.2-.3l-.2-.2s0-.2 0 0M58.3 207.5c-.3.2 0 .7.5.7.1 0 .3-.1.3-.3 0-.3-.4-.5-.6-.5-.2 0-.4.1-.3.3.1.2.3.4.6.4l-.3-.1-.2-.3v-.1c0 .1 0 0 0 0h.3c.1.2.2.2.1 0 0-.1-.2-.2-.4-.1M56.5 205.5c-.4.3.2.8.5.6.2-.1.2-.3.1-.4-.1-.3-.4-.5-.7-.3v.3c0 .2.3.3.4.3h-.1l-.2-.2c-.1-.2 0-.2.3-.1 0-.1-.2-.4-.3-.2M56.6 217c-.2.3.1.7.4.8.2.1.5 0 .4-.2a1 1 0 0 0-.5-.7c-.3-.1-.7 0-.5.3l.3.4.2-.4.2.1c0-.2-.3-.4-.5-.2M54.7 218.4l-.2-1.2s-.2-.2-.2 0l.3 1.2M55.7 209.7c-1 .2-2 .2-3-.1h.1c1 .4 2 .4 3 .1M56.5 206.3a4 4 0 0 1-2.3 0v.1a4 4 0 0 0 2.3 0" fill="#1E1854"/><path d="M55.2 212.2c-.5.3 1 2.7 1.3 3 0 .2.1.1.1 0-.1-.2-1.6-2.7-1.3-2.9 0 0 0-.1 0 0M56.9 209.2c.1 1 .5 2 1 2.8h.2c-.7-.8-1-1.8-1.2-2.8M57 206.8c.3.8.7 1.5 1.4 2 .1 0 .2 0 0-.1-.6-.5-1-1.1-1.3-1.9M53 219.7a1.8 1.8 0 0 1-.5-3s0-.1 0 0c-1 .9-.8 2.5.5 3M49.2 213c1.5.7 3.2.5 4.5-.4-1.4.9-3 1-4.5.4M55.7 210.8c-.7.2-1.4.2-2 0-.1 0-.1 0 0 0 .6.3 1.3.3 2 0" fill="#1E1854"/><path d="M56.9 209.5c-1 1-1.5 2.2-1.7 3.5 0 0 0 .2 0 0 .3-1.2.9-2.4 1.7-3.4M59.2 208.1c-.4-.4-.5-1-.4-1.5-.2.6 0 1.2.3 1.6h.1M55.8 212.6c0 .8.4 1.5 1 2 0 .1 0 .1 0 0-.5-.5-.8-1.2-.9-2M54.4 215.9c0 .6.2 1.2.5 1.7 0 0 .1 0 0 0-.3-.6-.5-1.1-.5-1.7M49.6 218.2c0 .3 0 .7.2 1l-.1-1" fill="#1E1854"/><path d="M58.1 215.6c-.8-.8-2.4-1.4-2.3-2.9-.2 1.5 1.4 2 2.3 3v-.1M58.1 218a5.7 5.7 0 0 0 0 0M60 206.6h-1.6H60M54.7 210c-1.4.1-2.7-.2-3.8-.8 0 0-.1 0 0 0 1.1.7 2.4 1 3.8.9M51.9 214c-1.3.5-2.7.4-3.9-.2 1.2.7 2.6.8 4 .2h-.1M53 218.3c-.7.2-1.4.3-2 .2v.1c.7 0 1.3 0 2-.2M53.7 212.8c0 1.3.6 2.5 1.6 3.3 0 0 .1 0 0 0-.9-.9-1.4-2-1.5-3.3M55.5 213.5c-.7.4.6 1.8.9 2.1-.3-.3-1.5-1.7-.8-2 0 0 0-.1 0 0M47.9 218.8c.9-.1 1.7-.6 2.4-1.3 0-.1-.3-.4-.4-.2-.6.6-1.4 1-2.3 1.1-.2 0 0 .4.3.4M52 213.1l-3.4-.2a1964.2 1964.2 0 0 1 3.5.2M54.1 214.2a3 3 0 0 1 0 0" fill="#1E1854"/><path d="M49.3 218c-.3.6-.3 1.3.1 2v-.1c-.3-.6-.4-1.3-.1-2M55 214.5c0 1.4.8 2.7 2 3.2.1 0 .1 0 0 0-1.2-.6-1.9-1.8-2-3.2M59.1 212.5c-1-.1-1.9-.8-2.2-1.8 0 0-.1-.1-.1 0 .3 1 1.3 1.8 2.4 1.9v-.1M55.7 213.4c.5 1 1.4 1.6 2.6 1.7-1.1-.2-2-.8-2.6-1.7M56.6 212a7.1 7.1 0 0 1 0 0M52.2 206.5c.6.9 1.7.8 2.7.6-1 0-2 .3-2.7-.6M53.7 211a7 7 0 0 0 0 0M53.1 213.6H51c-1-.2-2.3-.2-3-1 .4.6 1.1.7 1.8.8a20.4 20.4 0 0 0 3.4.2M55.2 208.8c-1.1.3-2.3.1-3.2-.6-.1 0-.2 0 0 .1 1 .7 2.1 1 3.3.6v-.1" fill="#1E1854"/><path d="M61 211.8c-1.6.1-3.4 0-4.3-1.6.9 1.6 2.7 1.8 4.3 1.7.1 0 0-.1 0-.1M54.3 214.8c.2 1.6 1 3 2.1 4.3a7.6 7.6 0 0 1-2-4.3M52.3 216.5c-1.5.8-3.2.8-4.9.3a6 6 0 0 0 5-.3M49.9 219.2a7.5 7.5 0 0 0 0 0M54 212.9c-1.9 1-3.9 2.4-6 1.9-.1 0 0 0 0 0 2.2.6 4.2-.9 6-1.9M55 212c-.4.7-.6 1.5-.7 2.2l.1.1c.1-.8.3-1.5.7-2.2 0 0-.1-.1-.1 0M56.4 208.8" fill="#1E1854"/></g></g></svg>