<svg width="564" height="351" xmlns="http://www.w3.org/2000/svg" xmlns:xlink="http://www.w3.org/1999/xlink">
  <defs>
    <path id="a" d="M100.1.2v176.7H.1V.2h100z"/>
    <path id="c" d="M0 157.9V.3h125.3v157.6H0z"/>
    <path id="e" d="M147.6.4V69H.3V.4h147.3z"/>
    <path id="g" d="M0 36V.2h165.8V36z"/>
    <path id="i" d="M62.2 232.3H.3V.2h62v232.1z"/>
  </defs>
  <g fill="none" fill-rule="evenodd">
    <g transform="translate(198 64.8)">
      <mask id="b" fill="#fff">
        <use xlink:href="#a"/>
      </mask>
      <path d="M98.3.3c3.9 5.6.5 14-.2 20.3-1 8.5-2.7 15.9-5.9 23.7-3 7.3-4.1 15.7-5.7 23.5-2 9.7-6.3 19.4-11.3 28.1-4.7 8.4-10.7 16-15 24.8-3.3 7-6.8 13.2-11 19.7-3.3 4.9-5.7 10-9.4 14.7-1.7 2.3-3.4 4.2-4.4 6.8-.5 1.4-.4 3.7-1.3 4.9-3 3.8-10.6.6-14.8 2.4-3.6 1.6-4 6-7 7.7-2-3-.6-8-2-11.3-1.7-4-5.9-5.6-8.2-9.2-4.6-7.1 0-14 2.4-21.3 2.3-7.4 4.7-15.5 8-22.6 8.9-18.5 15.6-38 26.2-55.7 4.6-7.7 7.3-16.2 13-23a81.1 81.1 0 0 1 19.7-17.4C77.5 12.6 83.2 9 88.8 4.5 91.8 2.1 95-.3 99 .3c-.2.7-.7.8-.7 0" fill="#485828" mask="url(#b)"/>
    </g>
    <path d="M296.4 66c-1.6-1.2-6.8.8-8.9 1.5-3.9 1.2-6.7 4.1-10 6.6a114.8 114.8 0 0 0-24.1 24.2c-7.9 10.6-16.4 21.4-23.6 32.6-8.3 12.6-12.6 26.2-17.4 40.3-4 11.5-6 26.5-13.7 36.3 4.6-5.7 5.6-12.4 9.3-18.2 3-4.6 5.8-8.4 8.1-13.5 3.2-7 4.5-15.2 8.2-22 4-7.1 8.5-14 12.4-21 3.5-6.7 6.4-13.7 10-20.3 3.6-6.6 7.6-11.2 12.4-16.9 5.5-6.6 12.2-14.8 19.1-19 3.6-2.1 6.7-5.1 10-7.6 3-2.3 5.6-2.7 8.5-3.2-.5-.2-1-.1-.3.2" fill="#698439"/>
    <path d="M271.1 88c-1 4.3-1.9 8.8-2.6 13.2-.3 2-.5 4-.3 6 .2 2.4 1 4.6.6 7-.2 1.4 1 2.3 1.3.7.3-1.7 0-3.3-.3-5-.5-2.7-1-5.1-.7-8 .4-4.6 1.6-9.2 2.1-13.8 0 0 0-.2 0 0M257.7 102.6a73.4 73.4 0 0 0-.3 31.5c.3 1.8 1.8.7 1.5-.8-1.1-5-1.8-10-2-15.1-.3-5.3.3-10.3.8-15.5 0 0 0-.1 0 0M246.6 121.4c-.2 5 .8 10.2 1.4 15.2l2 15.9c.2 2 2.2.7 2-.9l-2.4-15.2c-.7-5-1.1-10.3-2.6-15-.1-.4-.4-.3-.4 0M238.9 133.2c.9 5.4.5 11 1.1 16.6.6 5.1 1.6 10.6 3.5 15.3.7 1.9 1.8-.3 1.4-1.5-1.5-5.3-3-10.3-3.8-15.8-.4-2.7-.7-5.4-.8-8.2-.1-2.3-.2-4.6-1-6.7-.2-.5-.5 0-.4.3M228 152.3c-.2 9.2 4.6 17.2 9.3 24.7 1 1.5 2-1.2 1.3-2.3-4.6-6.8-9.3-13.9-10.1-22.4 0-.4-.4-.4-.4 0M221.9 165.2a33 33 0 0 0 2.5 12.5 52 52 0 0 0 4.2 9c.6 1 2 2.5 2.1 3.7l.3-1.5-.3.5c-.8 1.2.6 3.8 1.5 2.2.8-1.4.6-2.6-.3-3.9-1.5-2.5-3.3-4.8-4.6-7.4-2.5-4.9-3.6-10-5.3-15.2l-.1.1M214.2 180c.4 9.6 5.6 16.4 10.7 24 1 1.5 2.1-1.2 1.3-2.2-5-6.8-10.5-13-11.6-21.8 0-.4-.5-.3-.4 0M208.8 197.2c1 3.2 2.5 6.3 4.4 9.1 2 3.1 4.8 5.8 5.3 9.5.2 1.6 2 1 1.8-.4-.3-3.2-2-5.5-4-8a45.8 45.8 0 0 1-7-10.5c-.2-.4-.6 0-.5.3M203.4 209a50.3 50.3 0 0 1 8 25c0 1.7 2 1.7 2-.1-.2-9-3-19-9.7-25.5-.3-.4-.4.4-.3.6M287.3 107.3a81.6 81.6 0 0 0-30.6 32.8c-.6 1.1.6 3.7 1.5 2.1a120.4 120.4 0 0 1 29.2-34.6s0-.4-.1-.3M271.9 143.5c-5.2 4.4-9.5 10.3-15.8 13.2a33.5 33.5 0 0 0-12.4 10.7c-.7 1 .3 3.2 1.3 2 1.9-2.5 3.8-5 6.1-7 2.4-2 5.1-3.1 7.7-4.8 2.6-1.6 4.5-4 6.5-6.2l6.7-7.6c0-.1 0-.4-.1-.3" fill="#536A32"/>
    <path d="M263.4 168.2a25.8 25.8 0 0 1-8 7c-2.9 1.6-6 2.5-9.2 3.7-5.4 2.1-10.7 5-13.4 10.5-.6 1.5 1 4 1.7 1.9 2.5-6.7 10-8.7 16-11.2 5.3-2.2 10.9-5.8 13-11.7 0 0 0-.3-.1-.2M251 192c-2.6.9-5.1 2-7.7 2.8-3 .9-5.9 1.4-8.8 2-4 1-7.7 2.9-9.4 7-.5 1.3 1 3.2 1.6 1.4 2-4.8 7.8-5.5 12.1-6.7 4.4-1.3 8.8-3.2 12.3-6 .1-.2 0-.5 0-.4M240.9 207.6c-1.9 2.3-4.5 4-7.6 4.4-2.3.4-4.8 0-7 .6-4 1-7 4.5-8.2 8-.4 1.3 1.2 3.5 2 1.5.9-2.3 1.8-4.4 4-6 2.4-1.6 5-1.3 7.7-1.8a13 13 0 0 0 9.3-6.4c.1-.2 0-.6-.2-.3" fill="#536A32"/>
    <path d="M210.9 249.4c1.2-9.4 7-20 11.6-28.2 4-6.9 5.4-14.8 8.6-22 3.5-8 8.4-14.9 12-22.6 3.4-7.4 7.6-14.7 10.4-22.3 2.6-7 4.3-14.6 8.3-21 7-11.4 13.5-22.4 19-34.5l6.2-14c1.6-3.3 3.4-10.9 5.8-13-.4 5.6-7 13.4-9.7 18.7-3.3 6.4-6.2 12.8-10 19-3.3 5.5-5.4 11.4-9.2 16.7-3.8 5.3-6.6 11.3-9.3 17.2-12.6 27.3-29.7 52-39.8 80.4-1.7 4.9-4 9.7-5.4 14.5-.9 3-3.3 8.4-1.5 11.1 1.7.8 3.3.5 3 0" fill="#698439"/>
    <path d="M219.6 231.4c-4.6.8-6.7 2.9-9.4 6.5-.7-2.6-.2-5.7-1.4-8 .4 6.6-3 13.6-5.4 19.8-4 10.5-18.3 70.2-25.7 92.4a79 79 0 0 0-2.8 21c.4 3.6 3 16.6 3.5 20.2.5-4.6 5-16.7 5.8-21.4 1-7.2 8-47 12-59 6.6-19.8 9.5-40.7 17-60.2.7-1.9 4.2-12 6.4-11.3" fill="#536A32"/>
    <path d="M173.5 384c1-3.2-2.3-9.2-3.1-12.4a565 565 0 0 0-4.1-14.9c-2.8-9.4-6.8-18.3-9.4-27.8-1.9-6.6-3.3-13.2-6.1-19.6-2-4.5-2.4-9.4-4.5-13.9 2 1.9 4 5.6 6.5 7.5.5-1.2.2-2.8.3-4.2 2 4.2 2.6 9.8 4 14.5 2.2 7.8 5.4 15.3 8 23 2.6 8.2 4.2 16.5 7.2 24.5a62.8 62.8 0 0 1 4.8 31.1c-1.4-3-2.8-5.6-3.6-7.9" fill="#536A32"/>
    <path d="M152.5 305.3c-1.3-4.7-6.8-8.7-9.2-13-4.5-7.9-8.7-16-12.4-24.4-1.8-3.9-4-7.4-6-11.1-2.6-4.5-3.1-9-4.7-13.8-2.7-8.3-5.6-16.5-7.8-24.9-1.3-5-1-10-1.7-15-.3-3-1.5-6 .5-8.7 4.2 2.8 11.8 7.7 15.7 11.5 6.4 6.2 11.5 12.6 17.7 19a63.3 63.3 0 0 1 17.9 47.6c-.2 4-.3 7.6.2 11.5.2 2 .7 4.2.5 6.1-2.9 1.2-2 2.4-3 4.6-1 2.6-2.7 1.5-4.4 3.1-1 1-2.2 11.6-3.3 7.5" fill="#485828"/>
    <path d="M111.6 194.4c15 9.8 32.5 21.8 41.2 38 2.8 5.2 4 11.3 5.8 16.7-.6-4.5-4.6-8.2-7-12-1.8-2.7-3.4-5.5-5.3-8.2-3-4.4-6.2-8.4-9.6-12.3-5.5-6.2-11.4-13-18.4-17.6-2.4-1.5-5-2.9-6.7-4.6" fill="#698439"/>
    <path d="M159.4 262.3c-.7 2.9-1.8 5.6-3.5 8.1-1.5 2.2-3.5 4-5.4 5.8-2.7 2.7-4.8 6.1-4 10.1.2 1.2 1.3.4 1.1-.5-.8-5.6 4.8-8.8 7.7-12.7a20.5 20.5 0 0 0 4-10.8M151.2 237.6c.3 3.4-.3 6.7-2 9.7-1.5 2.4-3.8 4.1-5.6 6.3a21.7 21.7 0 0 0-5 13.6c0 1.7 1.8 1.6 1.8 0 0-3.6.9-7 2.7-10 1.5-2.6 3.7-4.5 5.4-6.8 2.8-3.7 3.8-8.3 2.8-12.8M138.6 221.5c.4 3.3.9 6.7.7 10-.2 3.3-1.2 6.2-2.5 9.2-2.1 4.5-4 9-2 14 .6 1.7 2.2-.3 1.6-1.6-2.4-5.6 2.3-11.3 3.3-16.7a38.5 38.5 0 0 0-1-14.9M158.4 275.5c-.6 2-1.3 4-2.4 5.7-1.3 2-3.3 3.1-4.9 4.8-2.4 2.5-3 5.8-3.2 9.2-.2 1.6 1.6 2.7 1.8.7.1-2.1.3-4.4 1.2-6.3 1-2 3-3.3 4.3-5 2-2.7 2.9-5.8 3.4-9 0-.2-.1-.4-.2-.1M157 250.8c-1.7 5.9-2.2 12.9-7.7 16.5-3.7 2.4-7.7 4.7-7.6 9.7 0 2 2 2 2 0-.1-5.2 7.8-7 10.2-11 2.6-4.2 2.6-10.4 3.2-15.1 0-.1-.1-.3-.2-.1M133.6 214.6c.1 3.2 1 6.4 1.1 9.6.2 3.6-1.7 6.3-3 9.5-.5 1.3-3.7 10.4.6 9.2 1.2-.4.9-3.2-.6-2.8.9-.2 1-3 1.3-3.7l1.4-3.5c.8-1.8 1.6-3.7 1.8-5.7.4-4-.8-9-2.3-12.7-.1-.2-.3 0-.3.1M127.4 207.6c.1 2.1.8 4 1 6 .5 2.7-.2 5-.9 7.6-.8 3-1.9 6.6-.7 9.7.4 1.2 1.1 0 1-.9-.6-4.5 1.2-8.2 1.5-12.6.3-3.5-.9-6.6-1.7-9.8 0-.2-.2 0-.2 0M123.3 204.7c1.6 4.1 1.4 7.4.3 11.6-.5 2-.7 4.1.3 6.1.6 1.3 1.6-.2 1.2-1.1-1.5-3 .5-6.8.4-10 0-2.4-.7-4.8-2-6.8 0-.2-.2.1-.2.2" fill="#536A32"/>
    <path d="M146.7 233.8c-.2 2.7-.7 5.3-1.8 7.8-1 2.3-2.6 4.3-4 6.4-2.2 3.4-3.8 7.1-2.7 11.1.4 1.6 2 .6 1.7-.7-1.2-5.3 3-9.4 5-13.9 1.7-3.3 2.5-7 2-10.7 0-.1-.2-.1-.2 0M153.1 249.2c-.7 2.9-.8 5.8-2.4 8.4-1 1.9-2.7 3.4-4.2 5-2.6 2.5-5 5.2-5.6 9-.2 1.3 1.4 2.2 1.6.6.8-5 5.3-7.7 8-11.6a19 19 0 0 0 2.7-11.4h-.1M124 247.3c2.7 3.5 6.3 6.4 10 8.7.7.5 1-1.6.3-2-3.7-2-7-4.5-10.2-7.1-.1-.2-.2.2-.1.4M121.7 234c2.4 2.4 5.6 3.3 8.4 5 .8.5 1.1-1.4.2-1.5-3-.4-5.8-2.6-8.5-3.8-.2 0-.2.3-.1.4M130.2 260.4c2.4 3.2 6.2 5.7 10 7.2.8.3 1-1.4.2-1.7a38 38 0 0 1-10-6c-.3-.1-.4.4-.2.5M134 270.2c2.5 5.2 7 10 11.5 13.5.7.6 1-1.1.5-1.6a94.9 94.9 0 0 1-12-12M117 201.6c1 3.6 2.6 7 2 11-.2 1 .9 1.6 1 .4.4-4-1-8-2.8-11.6 0-.2-.2 0-.2.2M116.3 221.9c1 1.4 2.2 2.6 3.7 3.7s3.5 2 4.3 3.8c.5 1.2 1.5-.2 1-1-.7-1.5-2-2.3-3.5-3-2-1-3.7-2.4-5.3-4-.2-.2-.3.3-.2.5M161.6 285.4c-2 5.8-10 7.4-10.7 14-.1 1.2 1.5 2.2 1.6.6.6-6 8.2-8.5 9.2-14.5 0 0 0-.2-.1 0" fill="#536A32"/>
    <path d="M113.6 193.6c-4.8 4 .2 15.3 3.1 18.8 1.9 2.2 3.8 4.4 4.3 7.1.6 3.1-.7 6.6-1 9.6a49.3 49.3 0 0 0 4.6 21.2c2.2 6 5 11.7 7 17.7 1.4 4 4 8 5.4 11.2-.4-3.3-3.8-6.2-5.6-8.9-2-3-3.4-6.3-4.7-9.5-3.3-7.6-6.7-15.5-9.3-23.3-4-12-7-22.8-7.3-35.4-.1-3.5 0-7 3.5-8.5" fill="#698439"/>
    <path d="M150.7 303a31.7 31.7 0 0 1-5.6-12c-1.2-4.1-19.2-57.5-22.9-68.5-1.8-5.4-3.4-11.8-6-16.5 2.9 7.3 7.2 14.3 10.2 21.7 3.5 8.9 7.5 18 11.3 26.6 5.6 13.1 8.3 26.8 14.3 39.5 1.5 3.4 2.3 8.7 1.9 12.4-1.8-.1-4.4-4-4.8-5.7-.3.1 1.5 2 1.6 2.4" fill="#698439"/>
    <path d="M176.7 229.9a65.7 65.7 0 0 1 6.8-15.7c.5-.8 2-1 2.7-1.8 1-1.3.7-3 1.4-4.4 1.3-2.4 3.3-3.5 3.9-6.4.5-2.9-.2-5.5.5-8.4.7-3.8 1.1-7.7 1.6-11.8 1.3-11.5 0-21.2-1.7-32.8-2-13-1.5-26.3-3.6-39.3-1-5.6-1-10.8-2.8-16.2a123 123 0 0 1-3.8-14.5c-1.8-8.2-6.6-16.1-10-23.6-1.7-3.7-4.5-6.2-5.8-10-1.5-4.2-2.4-8.5-4.1-12.7-5-12.2-9.6-23-18.8-32.3-3.2 5.8-1.9 14.3-1.5 20.7.4 7.8 1.2 14 3.3 21.9 2.3 9 1.6 17.8 3 27 1.4 9.8 4.2 18.5 4.3 28.5.1 21.8 1.4 45.5 7.5 66.8 1 3.6 2.9 6.7 4.2 10.2 1.5 3.7 1.1 7.6 2.2 11.1.8 2.8 3.5 4.2 4.4 6.7 1.1 3.2-.2 5.2-1 8.2-1.4 6 .4 9.7 3.7 15 2.3 3.8 3.5 8.8 3.6 13.8" fill="#485828"/>
    <path d="M169.4 206.6c1.9 2.2 3.2 3.6 4.2 6.3.7 1.8 1.2 4 2.4 5.7 1 1.5 2.7 2.3 3.3 4.1 1 2.7.5 33.9 1.6 45.5 1.6 16.6.7 33 0 49.6-.5 16-1.4 32-.8 48 .1 4.1 1.4 8.4 1.2 12.4 0 2.7-2 5-3.2 7.3-1.8 3.6-2.7 5-3.8-.4-2.4-11.6-1.3-23.2-2-35-1.2-25-.9-50 .4-74.9.5-10.3-3-66.8-3-69.2.3-.2.1.2-.3.6" fill="#536A32"/>
    <path d="M144.8 1.6c-4.2 3.6-1.3 14.2-1.1 19.1.2 7.8 1.5 15.4 2.6 22.8 1.7 11.8 4 23.2 5.5 35 2 16 1.1 32 2 48 .4 8.6.9 19.9 3.7 27.9 1 2.6 1.2 6 2.4 8.5 1 2.2 3.7 3 4.6 5 1.8 4 0 10.1 1.3 14.5.9 2.9 7.4 9.1 2.7 11.2 1.4-5.2-3.3-8.6-4.9-13.2-1.7-4.8.3-9.4-1.7-13.7-1.9-4.1-4.9-7.7-6.2-12-1.8-5.8-.5-10.1-1.4-16-1-7-4.2-13.6-4.6-20.8-.4-8.1.2-16.4-.3-24.6-.6-10.8-1-21.8-2.5-32.5-1-7.6-3.1-14.7-3.8-22.4-.5-6-7.4-36.7 1.7-36.8M181 219.8c.2 0 .3-1.7 0-3.5 1-.1.9-.4 1.5-.8.4 0 .7.3 1.2.3 1.5-2 2.8-4.1 3.7-6.2.4-.8-.7-1.8 0-3 .5-.8 2.9-.7 3.7-1.6 2.7-3 1.7-13.7 1.9-17.6.3-7.2 2-13.7 1-20.8-1.3-9.6-.9-19.4-1.7-29.2-.8-9.5-4.7-20.8-3.2-30.2 4.5 5.4 2.5 15.9 3 22.4.7 9 1.4 18.2 2.6 27.3 1.6 12.7 1 24.6-.4 37-.3 2.8 0 6.4-.8 9-1 3.6-2 3.4-4.8 5.5 2.9 3.3-2.4 5.8-3.4 8.6-.7-.5-1-.5-1.5-1.1-1.5.9-1.3.3-1 1.8-.3 1.1-1.1 2.3-1.8 2.1" fill="#698439"/>
    <path d="M171.7 74.9a58.7 58.7 0 0 1-7.8 20.3c-3 4.6-6.2 9.5-5 15.3.2 1.1 1.2.4 1-.4-1.3-7.3 4.4-12.9 7.2-19 2.5-5.1 3.6-10.7 4.6-16.2M179.3 91.9c-1.4 3.8-2.5 7.9-4.4 11.5-2 3.8-5 6.6-7.7 9.9-4.3 5.3-7.6 12-8.5 18.7-.2 1.3 1.1 2.2 1.5.6 1-4 2-7.9 4-11.6 1.8-3.5 4.2-6.6 6.8-9.7a40.9 40.9 0 0 0 8.3-19.4M187 122.7c-.9 3.6-2.4 7.2-5 10-2.3 2.8-5.4 4.6-8.2 7-4.7 4-7.7 9.5-9 15.4-.2 1.3 1.3 2.2 1.7.7a30.2 30.2 0 0 1 12-17.5 22 22 0 0 0 8.6-15.6M165.4 54.9a58 58 0 0 1-4.2 20.5c-2.5 5.3-5.7 10.4-4.7 16.5.2 1.4 1.6.5 1.4-.7-1.1-6.6 3.9-12.8 5.7-19a61.3 61.3 0 0 0 1.8-17.3M153.8 30.3c.2 6.3 2 12.4 2.2 18.8 0 6.8-1 13.5-2.7 20.1-.3 1 .9 2.7 1.3 1.2a64 64 0 0 0 2.5-19.9c-.3-6.9-2.3-13.4-3-20.3 0-.2-.3 0-.3 0M187 139a63.9 63.9 0 0 1-11.6 20.3c-4 4.5-8.3 9-8.3 15.4 0 1.6 1.7 1.6 1.7 0 0-7 6.6-12.3 10.3-17.6a50.6 50.6 0 0 0 8-18.2M189.8 169c-2.8 5.2-7.8 7.3-12.3 10.7-3.8 2.9-6.9 7-6.5 11.9.1 1.7 2 1.7 1.9 0-.8-10.5 14.8-12.8 17.3-22 .1-.3-.1-1-.4-.5M187.4 197c-1.6 4-5.6 5.5-8.2 8.6-2.5 3.1-3.6 7.2-4.3 11-.3 1.1 1.2 2.6 1.6 1 1.3-5 2.5-9.1 6.4-12.7 2.3-2.1 4.9-4.4 5-7.7 0-.4-.4-.7-.5-.3M180.1 117.3c-4.2 4.4-8.6 8.8-12.7 13.4a23.1 23.1 0 0 0-6.4 12c-.2 1.4 1.3 2.3 1.5.7.7-5.1 4-9.2 7.2-13l10.5-12.9v-.2M188.4 184.4c-3.1 3.4-7.1 5.5-10.2 8.8-3.4 3.7-4.5 8.4-6.3 13-.7 1.5 1.3 3.2 1.7 1 1-5 3.2-10.3 7-13.8 2.7-2.6 6.4-4.7 8-8.4.2-.2 0-.8-.2-.6M154.8 137a21 21 0 0 0 6.7 12.5c.9.8 1.3-1.3.7-2a22.9 22.9 0 0 1-7-10.8c-.1-.4-.5 0-.4.3M160.2 158.2a5.6 5.6 0 0 0 3.3 4.5c.7.3.7-1 .2-1.3-1.4-.8-2.8-1.8-3.4-3.2 0-.1-.1 0-.1 0" fill="#536A32"/>
    <path d="M147 29.6c1.3 3.8 1 7.4.9 11.3a40 40 0 0 0 .8 9.3c1.4 7 4.1 13.6 4.7 20.7.1 1.2 1.5 1.2 1.4 0-.7-7.3-3.4-14-5-21.1-.8-4-1-7.7-1-11.6 0-3 0-6-1.5-8.8-.1-.2-.3 0-.2.2" fill="#536A32"/>
    <path d="M177.9 228.4c.4.3.4 1.1.8.4-1.5-47.9-17.4-93.8-21.8-142-1-11-3.3-23.4-6-34.3 3.5 12.2 3.3 26.8 3.8 39.3.6 15.3 1.4 30.2 3.7 45.3 2.1 14.2 6 28 8.8 41.9 1.7 8.5 2.6 17 4.1 25.6 1 5.3 2.5 10.5 3.3 15.6.6 4.3.7 6.9 3.3 8.2" fill="#698439"/>
    <g transform="translate(.5 100.3)">
      <mask id="d" fill="#fff">
        <use xlink:href="#c"/>
      </mask>
      <path d="M.9.6c-2.9 6.2 2 13.9 3.9 19.9 2.5 8.1 5.5 15 10.1 22.1 4.4 6.6 7 14.7 10 22 3.8 9.2 9.8 18 16.3 25.5 6.2 7.3 13.5 13.8 19.3 21.5C65 118 69.7 123.3 75 129c4 4.2 7.4 8.8 11.9 12.7 2.1 2 4 3.5 5.5 6 .8 1.2 1.1 3.5 2.2 4.4 3.6 3.2 10.6-1.3 15-.3 3.9.8 5.1 5.1 8.4 6.2 1.4-3.2-1-7.9-.1-11.4 1-4.4 4.7-6.6 6.4-10.5 3.2-7.9-2.6-13.8-6.3-20.5-3.7-6.9-7.5-14.3-12.1-20.6-12.1-16.6-22.3-34.5-36-50-6-6.6-10.2-14.4-17.2-20.1a81.3 81.3 0 0 0-22.5-13.4c-6.8-2.5-13-5-19.3-8.4C7.6 1.2 4-.6.2.7c.2.7.7.7.7 0" fill="#485828" mask="url(#d)"/>
    </g>
    <path d="M1.6 101c1.4-1.4 6.9-.3 9 0 4.1.4 7.4 2.8 11.1 4.6 10.2 5 20 11.8 28.2 19.5 9.7 9 20 18.2 29.3 27.9 10.4 10.9 17.2 23.5 24.5 36.6 6 10.6 11 25 20.2 33.3-5.5-4.7-7.7-11.2-12.5-16.2-3.8-4-7.3-7.3-10.4-11.9-4.5-6.4-7.3-14.2-12.2-20.2-5.2-6.4-11-12.2-16-18.6-4.8-5.8-9-12.2-13.7-18.1-4.7-5.8-9.5-9.7-15.3-14.4-6.7-5.5-14.8-12.4-22.4-15.3-3.8-1.4-7.4-3.8-11.1-5.7-3.4-1.7-6-1.6-9-1.5.5-.3.9-.3.3 0" fill="#698439"/>
    <path d="M29 118.2c1.7 4.7 4.1 9.2 5.3 14 1 4-.5 8.4 1 12.3.7 1.4 1.8-.3 1.4-1.3-.8-2.4-.4-4.8-.7-7.3-.2-1.7-.6-3.4-1.2-5a120.5 120.5 0 0 0-5.7-12.7M46 130.4c1.6 5.2 3.2 10.1 3.9 15.5.7 5.2.8 10.4.5 15.6-.2 1.7 1.7 1.7 1.8 0a63.9 63.9 0 0 0-6.2-31M59.4 146c-.5 5 0 10 .2 15l.6 15.8c.1 1.9 2.2 1.8 2 0l-1-15.9c-.4-4.9-.4-10-1.4-14.9 0-.3-.4-.3-.4 0M70.6 156.9c-.4 2-.2 4 0 6 .4 3 .7 6 .8 9 .1 5.8-.7 11.2-1.4 16.9-.2 1.5 1.4 2.6 1.9.7a58.2 58.2 0 0 0 1-16c-.3-5.6-1.8-11-1.8-16.5 0-.4-.4-.6-.5-.1M83.6 173.1a48 48 0 0 1-6.6 24.4c-.6 1.3 1 3.4 2 1.5 3.5-8.1 7-17 5-26 0-.3-.4-.2-.4.1M93.1 185.2c-.7 6-.7 11.6-2.4 17.4-.8 2.5-2 4.8-2.8 7.2-.4 1.3-.3 2.6.6 3.6 1 1.1 1.9-1.8 1-2.7.2.6.4.5.5-.5a77.2 77.2 0 0 0 3.1-11.8 35.5 35.5 0 0 0 0-13.2M102.4 198.6c.5 8.7-3.8 15.8-7.6 23.3-.7 1.4.7 3.8 1.6 1.8 3.8-8.3 7.8-15.9 6.5-25.2-.1-.4-.5-.3-.5.1M110.3 214c-1 4.3-2.6 8.1-4.7 12a15.8 15.8 0 0 0-2.5 8.7c.2 1.8 2 1.8 1.9 0-.3-3.9 2-7.1 3.3-10.6 1.3-3.2 2.2-6.5 2.5-10 0-.4-.4-.7-.5-.1M118.9 224.6a41.5 41.5 0 0 0-4.4 27.4c.3 2 2 .7 1.7-.8-1.4-9.2.3-17.5 3-26 .2-.4 0-1-.3-.6" fill="#536A32"/>
    <path d="M17.6 140c13.3 7.5 25.6 16 35.3 27.8 1.1 1.4 2.1-1.2 1.3-2.1a81.9 81.9 0 0 0-36.5-26c-.2-.1-.2.3 0 .3M40 173.9c2.6 2.2 5.4 4.2 8.2 6.3 2.2 1.6 4.4 3.4 7 4.5 3 1 5.8 1.6 8.5 3.2 2.7 1.5 5 3.5 7.3 5.5 1.1 1 1.7-1.5.9-2.2A29.2 29.2 0 0 0 57 183c-6.3-1.7-11.5-6.4-17-9.5-.1 0-.2.2 0 .3M52.2 196.2c3.3 5.6 9.7 8 15.6 9 6 1.2 13.2 2.2 16.7 8 1 1.5 2.2-1.1 1.4-2.2-3.6-4.9-9-6.7-14.5-7.8-3.3-.6-6.6-.9-9.8-1.8-3.7-1.1-6.3-3-9.3-5.4 0-.2-.1.1 0 .2M69.3 216.3c4.2 2.4 9.2 3.4 14 3.8 4.6.4 10 .1 12.9 4.7 1 1.5 2-1.1 1.3-2.2-2.5-3.8-6.8-4.9-11-5-2.8-.1-5.6 0-8.3-.3-3-.3-6-1-9-1.3v.3M81.6 229.5c2.5 3 6.3 5 10.4 4.8 2.5-.2 4.8-.7 7.2.4 2.6 1.2 3.9 3.2 5.2 5.5 1 1.5 2.2-1 1.7-2a12.7 12.7 0 0 0-9.1-6.6c-2.5-.3-5 .7-7.5.6a12 12 0 0 1-7.8-3c-.1-.2-.2.2-.1.3" fill="#536A32"/>
    <path d="M119.2 266.5c-3-9-10.5-18.4-16.6-25.6-5-6-8-13.5-12.3-20-5-7-11-13-15.9-20-4.7-6.5-10.1-12.9-14.2-19.8-3.9-6.5-7-13.7-12-19.2a308.6 308.6 0 0 1-24.8-30.4c-3-4.1-5.7-8.4-8.7-12.5-2-3-5.2-10-8-11.8 1.4 5.5 9.4 12 13 16.6 4.4 5.7 8.4 11.4 13.1 16.8 4.3 4.8 7.4 10.3 12 14.8 4.8 4.5 8.6 9.8 12.3 15.1 17.3 24.5 38.5 45.7 53.6 71.6 2.5 4.5 5.6 8.8 7.9 13.3 1.4 2.7 4.8 7.6 3.5 10.6-1.5 1-3.1 1-2.9.5" fill="#698439"/>
    <path d="M107.7 250.3c4.7 0 7.1 1.6 10.5 4.7.2-2.7-.9-5.7-.1-8.2.8 6.6 5.5 12.9 9 18.5 5.8 9.5 31 65.5 42.3 86a78.6 78.6 0 0 1 6.7 20c.2 3.6.2 16.8.3 20.5-1.3-4.5-8.1-15.4-9.7-20a618.7 618.7 0 0 0-22.8-55.6c-10.1-18.2-16.8-38.2-27.8-56-1-1.7-6.3-11-8.4-9.9" fill="#536A32"/>
    <path d="M253.8 228.6c-7.7 1.6-17 6.5-23.1 11.3-8.5 6.8-14.6 18.8-20.8 27.5-11 15.3-19.6 36.6-18.8 55 .2 4.8 1.6 3.5 4 7 1.4 2 .8 6.7 3.3 7.5 1 .3 3.2-1.3 4.3-1.4 1.7 0 3.5 1.4 5.2 1.5 3.5.3 6-1 8-3.4 3.3-3.6 5.5-8 8.7-11.8a182.7 182.7 0 0 0 28.1-47.1 57.8 57.8 0 0 0 6-26.4c-.2-5.3 1.4-14.1-2.4-18.5-1-1.1-2.2-1.9-2.5-1.2" fill="#485828"/>
    <path d="M217.2 332.4c2.6-1.7 2.5-6 4.1-8.7 1.5-2.6 3.8-4.5 5.6-6.6a97 97 0 0 0 13-18.1c7.3-14.2 16.6-30 18.5-46.5.8-6 .3-13.6-1.2-19.5 0 6.9 2.3 13.3 1.5 20.5-.8 8.2-2 16.3-4.3 24.4a90.3 90.3 0 0 1-25.2 41.8c-3.6 3.3-7.8 11-12 12.7M235.8 236c-4.7 5.6-10.5 10.1-15.2 16.1-4.3 5.5-8.8 11.3-12.9 17-4 5.6-8.5 10.9-11 17.3-2.6 6.3-3.6 12.8-5.1 19.4-1 4.7-2.2 10.6-.4 15 3.1-2.3 1.4-14.1 2.1-18.2a61 61 0 0 1 8.7-23c7-10.3 13.6-20.7 21.5-30.2 3.8-4.5 7.5-9 12.3-13.4" fill="#698439"/>
    <path d="M255 246.8c-5 2.2-12 4.3-15.3 9.3-.4.7.4 2.1.8 1.2 2.8-5.6 9.5-7.6 14.5-10.4M256.3 254.6c-2 1.2-3.4 3.2-5.6 4.3-2.1 1.1-4.5 1.7-6.8 2.4-4 1.1-7.9 2.5-10.3 6-.5.8.3 2.6 1 1.6 2.6-4 7.4-5.1 11.7-6.6 1.8-.5 3.6-1.2 5.2-2.3 2-1.3 3.2-3.2 5-4.7.2-.2 0-1-.2-.7M251 268.4c-2.1 1.2-4.2 2.5-6.3 3.5-2.6 1.3-5.2 1.9-7.9 2.6-4.4 1.2-8 3.6-10.8 7.2-.7.8.2 3 1.2 1.8 3.3-4.2 7.5-6.1 12.4-7.7 4.4-1.4 8-4 11.5-7 .1 0 0-.5-.1-.4M213.6 306.2c4.3-4 8.9-7 14.9-7.7a29 29 0 0 0 14.6-5.2c.9-.7.1-3.2-1-2.3a25 25 0 0 1-8.3 4.3c-2.8.8-5.7.9-8.5 1.6a22 22 0 0 0-11.9 9s0 .4.2.3M237.1 303.1c-2.6 1.5-5.1 3-7.9 4.2-3 1.3-6.3 2.2-9.5 3-4.8 1-10 2.6-11 8.1-.2 1.5 1.5 2.6 2 .7 1.1-6 9.5-6 14-7.7 4.6-1.7 9.3-4.3 12.5-7.8v-.5" fill="#536A32"/>
    <path d="M227.8 316.3c-4 2.2-8 4.6-12.8 4.5-4.1-.2-7.5-1-10.6 2.6-.7.9 0 3.8 1 2.6 3.7-4.1 8-2 12.5-3.2 3.8-1 7-3.5 10-5.9.2-.1.1-.8-.1-.6M238.7 237.6c-2 .4-2.6 2-3.2 3.8-1 3-2.3 6.3-3 9.4-.2 1-.2 2-.1 3 .2 2.2.2 4.2-.2 6.4l-1.8 11.2c-.3 1.5 1.5 2.5 1.8.7l1.4-9.2c.3-2.5 1-5 .6-7.5-.2-1.4-.6-2.6-.4-4 .2-1.7.8-3.3 1.2-5 .7-2.5 1-7.2 3.8-8.6v-.2M226.5 249.2a32.7 32.7 0 0 0-1.3 20.7c.7 3.2 1.8 6.5.9 9.7-.4 1.5 1.1 3 1.6 1 1.1-4.9-.8-9.3-1.7-14-1-5.8-.6-11.6.8-17.2 0-.2-.2-.4-.3-.2M214.5 302.3c2.6-3.1.5-7.2-1-10.3a38.7 38.7 0 0 1-2.2-18.5c.1-1.7-1.6-1.6-1.6 0-.2 4.7-.4 9.5.7 14a23 23 0 0 0 2 5.4c1.5 2.8 3.4 5.7 1.9 9 0 .2 0 .6.2.4M203 333.1c2.2-2.8.9-6.4-.8-9.1-1.6-2.6-3.4-4.8-4-7.7-.7-2.8-.7-5.6-1.4-8.4-.5-2-2.4-.4-1.8 1.2 1.3 3.9.8 8 2.8 11.7 2.2 3.8 7.2 7.1 4.8 12 0 .2.1.6.3.3M220 257.6a35 35 0 0 0-2.7 16.8c.5 6.6 2.6 13.1.2 19.5-.5 1.4.8 3.4 1.6 1.6 2.2-5.3 1-11 .1-16.4a53.3 53.3 0 0 1 .9-21.5M205 277.8a30.3 30.3 0 0 0 1 17.4c1 3.3 2.6 6.4 3.4 9.7 1 4 .7 7.9-.3 11.8-.3 1.2 1.4 2.8 1.8 1.1 1.8-6.2 1-12.4-1.5-18.3a51.7 51.7 0 0 1-3.6-10.5c-.7-3.8-.4-7.4-.5-11.2 0 0-.2-.2-.2 0M243.3 235.3a10.5 10.5 0 0 0-1.7 6.9c.1 3.3 1.1 7.5-1 10.3-.6.8.2 2.9.9 1.7 3.5-5.7-1.4-13 2-18.6 0-.1 0-.5-.2-.3M250 277c-3.6 6.4-11.2 8-17.8 9.8-4.3 1.1-11 2.6-11 8.2-.1 1 1 1.8 1.5.6 2.2-5.9 11-6.2 16.1-8.2 5-2 9.5-5 11.6-10 0-.2-.2-.7-.3-.4" fill="#536A32"/>
    <path d="M201.1 289.4c-.3 5.8.5 11.5 2 17.2.6 2.6 1.5 5.2 2 8 .6 3.5.2 6.9-.8 10.4-.4 1.1 1 3 1.6 1.3 2-5.5 1.5-11.2-.2-16.7a114.2 114.2 0 0 1-4.6-20.2M254 262.3c-2.5 1.7-4.9 3.4-7.8 4.5-3 1.1-6.2 1.2-9.2 2-4.9 1.4-7.8 5.7-10.3 9.7-.6 1 .5 3.2 1.3 1.8 1.4-2.3 2.8-4.7 4.8-6.6 2.5-2.4 5.3-3 8.6-3.7 4.8-1.1 9.8-3.6 12.8-7.4.1-.1 0-.4-.1-.3" fill="#536A32"/>
    <path d="M199 294.7c-.5 5.4-.1 11 .6 16.3.9 6.2 3.7 12.8 2.5 19-.3 1.5 1.3 2.5 1.7.7 1.2-5.7-1-11.3-2.2-16.8-1.4-6.3-2-12.8-2.6-19.2M229.4 252.4l-.6 21.9c0 1.4 1.5 1.4 1.5 0a177.5 177.5 0 0 0-1-21.9M195 323.3c2.4 3 4.3 6 4.7 10 .2 1.4 1.5.5 1.3-.7-.5-3.8-2.5-7.9-6-9.4-.1 0-.1.1 0 .1M245.6 277c-3.6 4.4-8.8 5.7-14.2 6-4 .1-8 1-9.4 5-.5 1.2 1 3 1.5 1.4 1.7-5.2 9-4 13.2-5.2 3.9-1.2 6.7-3.8 9-7v-.3" fill="#536A32"/>
    <path d="M195.7 340.1c5.6-12.6 13.7-29.5 20-42.6 9.2-18.5 12.8-24 21.3-40.5 3-6 11.3-17.2 13.4-23.3-5.6 20-16 38.6-25.4 57-7.1 13.7-11.5 28.3-19.7 41.3a23.7 23.7 0 0 1-5.2 6c-1.5 1.1-4 1.7-4.4 2.1" fill="#698439"/>
    <path d="M198.6 336.2a17 17 0 0 1 6.3 0c-8.8 2.4-12 15.4-15 22.8-2 5.4-4.8 10.7-7.4 16-2.7 5.5-4.5 12.4-7.7 17.6.6-4.8-2.3-10.9-1.3-15.3.5-2 3.2-4.6 4.1-6.6 1.5-3.3 2.8-6.6 4.5-10 5.2-10 10.5-19.2 14.3-29.8 1 1.7 1.5 4 2.2 5.3" fill="#536A32"/>
    <g>
      <g transform="translate(393.2 221.9)">
        <mask id="f" fill="#fff">
          <use xlink:href="#e"/>
        </mask>
        <path d="M147.2 7c-.8 5.5-7.4 8.5-11.2 11.8a66.7 66.7 0 0 1-16.4 10.5c-5.8 2.6-11 7-16.3 10.6a78.6 78.6 0 0 1-22 10.2c-7.3 2.3-15 3.5-22.2 6.2-5.8 2.2-11.2 4-17.3 5.4-4.6 1-8.8 2.7-13.5 3.4-2.3.4-4.3.6-6.3 1.6-1 .5-2.3 2-3.4 2.1-3.8.6-6.6-5.4-10-6.7-3-1-5.6 1.3-8.3.6.4-2.8 4-5 5-7.7 1.2-3.3-.4-6.4.2-9.8 1.2-6.7 7.7-8.2 13.1-11.1 5.4-3 11.2-6.4 17-8.7 15.4-6 30-13.7 45.9-18.2 6.9-1.9 13-5.4 20.2-6.2 7-.8 14.1-.8 21 .7 5.6 1.1 10.9 2.2 16.7 2.6 3 .2 6.2.6 8.2 3.1-.4.4-.8.2-.4-.3" fill="#485828" mask="url(#f)"/>
      </g>
      <path d="M540 229c-.3-1.5-4.5-3.2-6-3.9-3-1.4-6.2-1.2-9.5-1.6-9-1-18.5-.7-27.3 1-10.4 2-21.3 3.6-31.6 6.2-11.7 2.9-21.7 8.5-32.2 14.1-8.7 4.6-18.2 12.2-28 13.8 5.8-.8 10.1-4.2 15.5-5.6 4.2-1 8-1.7 12-3.5 5.8-2.4 11-6.5 17-8.4 6.1-2 12.5-3.5 18.7-5.6 5.7-1.9 11.2-4.4 17-6.3 5.6-1.9 10.5-2.4 16.4-3.2 6.9-.8 15.2-2 21.6-.6 3.2.6 6.7.6 10 1 3 .2 4.7 1.4 6.6 2.7-.2-.4-.4-.5-.2 0" fill="#698439"/>
      <path d="M513.7 228.6c-3 1.8-6 3.8-8.8 5.9-1.3 1-2.5 2-3.5 3.2-1.2 1.6-1.9 3.2-3.4 4.5-.8.6-.5 1.9.5 1.1a9 9 0 0 0 2.5-3c1-1.9 2.2-3.5 3.8-5 2.8-2.4 6-4.3 9-6.6 0 0 0-.2-.1-.1M497.4 229.4a51.4 51.4 0 0 0-17.8 18.6c-.8 1.3.8 1.6 1.4.5 2-3.7 4.4-7.1 7.1-10.3 2.8-3.3 6-6 9.3-8.7M480.8 234.7c-2.8 2.8-5 6.4-7.4 9.6l-7.7 10.3c-1 1.3.8 1.7 1.6.6l7-10.2c2.4-3.3 5-6.6 6.9-10.2 0-.2-.2-.3-.4-.1M469.4 236.8c-2.4 3.8-5.9 6.9-8.5 10.6a46.2 46.2 0 0 0-6.3 11.3c-.5 1.5 1.4 1 1.9 0 1.9-4 3.7-8.1 6.2-11.9 1.2-1.8 2.6-3.6 4-5.3 1.2-1.4 2.5-2.9 3.1-4.6.2-.4-.3-.4-.4-.1M453.3 242.2c-5.2 5.2-6.7 12.7-8 19.7-.2 1.4 2 .5 2.1-.6a39 39 0 0 1 6.2-18.9c.1-.2 0-.4-.3-.2M442 245.7c-2.4 2.4-4 5.5-5.4 8.6a41.4 41.4 0 0 0-2.4 7.5c-.3 1-.3 2.5-.8 3.3a1127.6 1127.6 0 0 1 .5-.6c-1 .2-1.7 2.5-.3 2 1.2-.4 1.7-1.1 2-2.3.4-2.3.6-4.6 1.3-6.8 1.2-4.2 3.4-7.7 5.2-11.6 0-.1 0-.1 0 0M429.7 251c-4.9 5.7-5.5 12.5-6.6 19.7-.2 1.4 1.9.5 2-.5.7-6.7.8-13.4 5-19 .1-.3-.2-.5-.4-.3M417.2 257.8c-1.2 2.4-2.1 5-2.6 7.8-.6 2.9-.4 6-2.3 8.5-.7 1 .6 1.7 1.3.8 1.6-2.1 2-4.4 2.1-7 .3-3.5.8-6.7 2-10 0-.4-.4-.4-.5-.1M407.5 261.6c-1.7 7-4 13.3-9 18.7-1 1.1.2 2.1 1.2 1a30.3 30.3 0 0 0 8.4-20c0-.3-.6 0-.6.3" fill="#536A32"/>
      <path d="M512.5 247.8a65.1 65.1 0 0 0-35.7 2.3c-1 .3-1.7 2.5-.3 2a96 96 0 0 1 35.9-4s.3-.3.1-.3M482.9 261.3c-5.4-.2-11 .9-16.2-.8a26.5 26.5 0 0 0-13-.4c-1 .1-1.6 2-.4 1.8 2.4-.4 4.9-.8 7.3-.8 2.5.1 4.7 1 7.1 1.4 2.3.4 4.7 0 7-.1 2.8-.3 5.5-.5 8.1-.9.1 0 .2-.2 0-.2M465.3 271c-3 .3-5.6.5-8.5-.4-2.5-.7-4.9-1.9-7.3-3-4.3-1.7-8.9-3-13.4-1.3-1.2.5-1.7 2.8 0 2 5-2.4 10.5.6 15.2 2.4 4.4 1.6 9.5 2.6 14 .5v-.2M444.6 277.8l-6-2.7c-2.1-1.1-4.1-2.4-6.2-3.6-2.9-1.7-6-2.7-9.2-1.3-1 .5-1.2 2.4.2 1.8 3.7-1.8 7.5 1 10.7 2.7 3.2 1.7 6.8 3 10.4 3.3 0 0 .2-.1.1-.2M430.5 281.1c-2.3.5-4.7 0-6.8-1.3-1.5-1-2.6-2.6-4.3-3.4-2.7-1.5-6.5-1-9.1.5-1 .6-1.4 2.8.2 2 1.8-1 3.6-1.7 5.7-1.5 2.3.3 3.6 1.8 5.3 3 2.7 1.8 6 2 9 1 .1 0 .3-.3 0-.3" fill="#536A32"/>
      <path d="M389.3 289.4a71 71 0 0 1 22.2-10.1c6-1.9 11.2-5.7 17-8.2 6.4-2.7 13-4 19.3-6.6 6-2.4 12.4-4.4 18.2-7.3 5.4-2.7 10.6-6.2 16.3-7.8 10.3-2.8 20.1-5.7 30-9.7l11.2-4.8c2.7-1 7.9-4.5 10.5-4.4-3.3 3-11.5 4-15.9 5.6-5.5 2-10.6 4-16.2 5.6-5 1.4-9.4 3.7-14.5 4.8-5 1-10 3-14.8 4.9-22.2 9-45.7 14.2-67 25.2-3.7 1.9-7.6 3.5-11 5.5-2.2 1.3-6.6 3.1-7 5.7.5 1.4 1.6 2 1.7 1.6" fill="#698439"/>
      <path d="M404.8 284.2c-3-2-5.4-2-9-1.3 1-2 3-3.4 3.6-5.4-3.4 4-9.2 6.3-14 8.6-8 3.9-49.1 30.7-65.5 39.6a63 63 0 0 0-13.1 10.7c-1.8 2.3-7.4 11.2-9 13.7 2.8-2.5 12-7 15-9.3 4.6-3.7 30.4-23 39.3-27.7 14.7-8 27.8-18.5 42.8-25.8 1.5-.7 9-4.7 10-3" fill="#536A32"/>
      <path d="M225.3 287.3c-3-4.1-6.1-9-8.2-13.2-.4-.8-.4-2.5-.8-3.5-.7-1.5-1.7-2-2.4-3.2-1.2-2.3-1.8-4.8-3.3-6.5-1.5-1.7-3-2.1-4.5-4-2-2.3-4-4.3-6.3-6.4-6-6-11.2-8.7-17.5-11.7-7-3.4-14-9.3-21-12.5-3-1.3-5.8-3.5-8.7-3.8-2.6-.4-5.1-1.1-7.8-2-4.4-1.7-8.7 0-12.8.3-2 .2-3.4 2-5.4 1.8-2.3-.3-4.6-1.1-6.9-1.1-6.6 0-12.4.2-17.5 5.7 3 5.6 7.5 7.7 11 10 4.1 2.8 7.5 4.5 11.7 5.6 4.8 1.4 9.5 5.7 14.5 8.1 5.2 2.5 9.9 3.3 15.2 7.3 11.6 8.8 24.3 17.2 35.8 19.8 2 .5 3.6-.1 5.5-.1 2 0 4 2 6 2.4 1.4.3 2.3-1.9 3.6-1.7 1.7.2 2.8 2.3 4.4 4.3 3.2 4 5.1 3.6 8 2.5 2.1-.8 4.8 0 7.4 2" fill="#485828"/>
      <path d="M212.5 285.3c1.2-1 2-1.7 3.3-1.7 1 0 2.1.4 3-.1.8-.5 1.2-1.8 2.2-1.7 1.4.1 17.3 12.9 23.3 16.3 8.5 5 16.8 12.2 25.3 19.3 8.1 6.9 16.3 14 24.5 19.8 2 1.4 4.3 1.8 6.3 3.5 1.4 1.2 2.5 4 3.6 6 1.8 3.3 2.6 4.7-.3 3.7-6-2.2-11.9-7.8-18-11.9a387.6 387.6 0 0 1-38.1-29.6c-5.3-4.5-34.1-23.2-35.4-24 0-.5.1-.2.3.4" fill="#536A32"/>
      <path d="M107.1 229c1.8 5.4 7.2 6.7 9.8 8.5 4 2.8 7.8 4.5 11.7 6.4 6 3 11.9 5 18 8.3 8.1 4.3 16.2 11.3 24.4 16.8 4.5 2.9 10.2 6.9 14.4 7.2 1.4.1 3.1 1.2 4.4 1 1.1-.2 1.6-2.4 2.7-2.5 2-.2 5.1 4 7.4 4.3 1.5.3 4.9-3.7 5.8 1.8-2.6-3.4-4.5-.1-6.9-.4-2.5-.2-4.8-4-7-3.7-2.2.3-4 1.8-6.3 1.4-3-.5-5.2-3.4-8.2-5-3.6-1.7-7-1-10.7-3.5-4.2-2.8-8.4-6.6-12.6-9.3-5.5-3.6-11.1-7.6-16.6-10.3-4-2-7.6-2.7-11.5-5-3.1-2-19-7.1-18.8-16M219.6 279.3c0-.2-.8-1-1.7-1.4 0-.9-.3-1-.4-1.7l.2-1c-1-2.3-2-4.4-3.1-6-.4-.7-1 0-1.5-1.2-.4-.8-.3-3-.7-4.2-1.5-3.6-7-7-9-8.6-3.6-3.1-6.9-7.3-10.6-9.2-4.9-2.5-9.9-6.7-14.9-9.8-4.8-3-10.7-3.6-15.5-8.7 3-2.2 8.2 3.8 11.5 5.9 4.7 2.8 9.4 5.8 14 8.2a81.7 81.7 0 0 1 18.8 14.8c1.5 1.5 3.4 2.5 4.7 4.3 1.8 2.5 1.6 3.3 2.6 6.8 1.8-1.5 2.9 4.5 4.3 6.6-.2.4-.3.8-.6 1 .4 1.8.1 1.4.9 1.6.6.8 1.1 2 1 2.6" fill="#698439"/>
      <path d="M145.4 231c3.7 4.4 7 9 10.1 15.5 2.3 4.9 4.7 9.9 7.6 11 .6.2.3-1-.2-1.2-3.7-1.5-6.4-9.3-9.4-14.6-2.5-4.4-5.3-7.6-8-10.8 0 0-.1 0 0 0M154 229.6c2 3 4 5.6 5.8 9 1.9 3.5 3.2 7.7 4.8 11.7 2.6 6.4 6 12.4 9.5 16 .6.7 1.1-.3.3-1.3a55.9 55.9 0 0 1-10.7-19.3 54.1 54.1 0 0 0-9.7-16M170 235.7a35 35 0 0 1 5 8.8c1.4 3.4 2.3 7.1 3.4 10.6 2 6.2 4.7 11.3 7.7 14.9.6.8 1.2-.4.3-1.3-3.8-4.5-6.3-11-8.6-18.6a33 33 0 0 0-7.7-14.4M134.8 230.1c3.5 3.2 7.2 6.8 10.4 12.2 2.7 4.5 5.2 9.6 8.3 11 .7.4.3-1.3-.3-1.6-3.4-1.5-6.5-8.8-9.6-13a43.8 43.8 0 0 0-8.8-8.6M122.1 231.5c3.2 2.3 6.3 2.8 9.5 5.2 3.5 2.5 6.8 6 10 10.4.6.7 1.5.1.7-.9a43.7 43.7 0 0 0-9.9-10c-3.5-2.5-6.8-3-10.3-4.9v.2M178.6 240.3c3.8 5.9 7.2 12.2 10.2 20 2.1 5.9 4.3 12 7.6 14.6.9.7.9-1 0-1.7-3.6-2.7-6-11.6-8.6-17.5a68.5 68.5 0 0 0-9.2-15.4M194.2 250.6c2.6 4.8 3.5 10.6 5.1 16.4 1.4 4.8 3.3 9.4 5.9 11 .9.5 1-1.3 0-1.9-5.3-3.3-6-19.6-10.7-25.7-.1-.2-.5-.2-.3.2M208.1 263c2 3.1 2.6 7.7 4.1 11.4 1.5 3.6 3.5 6.3 5.4 8.5.5.6 1.3-.2.5-1.2-2.4-3.2-4.4-6-6.1-11.2-1-3.1-2-6.4-3.8-7.9-.1-.2-.3.1 0 .5M167.4 239.1L174 257c1.7 4.5 3.6 8.6 6 11.1.6.7 1.2-.5.3-1.3-2.6-2.7-4.5-7.6-6.4-12.2l-6.2-15.5s-.2-.1-.2 0M201.7 257.1c1.5 4.4 2.5 9.3 4 13.7 1.7 4.8 4 7.7 6.2 11.3.8 1.2 1.7 0 .6-1.3-2.5-3-5-7.2-6.6-12.3-1.2-3.8-2.2-8.3-4-11.5 0-.1-.4-.3-.2.1M176.5 272.5c2.4 1 4.6.4 6.3-2 .4-.6-.6-1.9-.9-1.4-1.5 2.2-3.4 3.2-5.6 2.8-.2 0 0 .5.2.6M187.7 275.4c.5.3 1 .4 1.4.1.5-.2.9-.7 1.1-1.4.2-.6-.5-1.2-.7-.8-.5 1-1 2-1.9 2v.1" fill="#536A32"/>
      <path d="M121.7 237.3c2 .4 3.9 2.1 5.8 3.7 1.7 1.4 3.3 2.3 4.9 3 3.6 1.3 7 1.4 10.7 3.7.6.3.7-1 0-1.3-3.7-2.3-7.3-2.4-11-3.7-2-.7-3.9-2-6-3.6-1.5-1.2-3-2.3-4.5-2l.1.2" fill="#536A32"/>
      <path d="M223.6 285.8c.2-.3.6.1.3-.6-24.4-17.3-48.3-19.8-72.8-34.4-5.8-3.3-12-5.9-17.7-7.6 6.3 1.4 13.7 7.3 20.1 11.7 7.8 5.4 15.4 10.4 23.1 14.1 7.3 3.5 14.4 5 21.6 7.8 4.4 1.7 8.8 4.2 13.2 6 2.7 1.2 5.3 1.7 8 3 2.2 1.1 3.5 2 4.2 0" fill="#698439"/>
      <path d="M492.3 70.5a164.4 164.4 0 0 0-52 18c-19.3 10.8-33.7 30.6-48 44.8-25.2 25-45.9 60.1-45.2 90.8.1 8.2 3.4 6 8.6 12 3 3.5 1.2 11.2 6.8 12.6 2 .5 7.2-2 9.6-2 3.8 0 7.7 2.4 11.5 2.7 7.7.6 13.2-1.3 18.2-5.3 7.2-6 12.6-13.2 19.9-19.3a302.2 302.2 0 0 0 65.5-77.4c9-14.5 15.2-27.8 15-43.8-.2-8.9 4-23.5-4.3-30.9-2.2-2-4.7-3.3-5.6-2.2" fill="#485828"/>
      <path d="M405.7 241.4c5.9-3 5.8-10 9.5-14.6 3.3-4.2 8.7-7.5 12.8-11 11-9.2 22.3-19.5 30-30.2 17-23.6 38.4-50.1 43.3-77.5 1.9-10.2 1-22.7-2.2-32.7 0 11.5 4.8 22.2 2.9 34.2a186.6 186.6 0 0 1-10.6 40.8 154.4 154.4 0 0 1-58.3 69.8c-8.1 5.5-18 18.5-27.4 21.2" fill="#698439"/>
      <path d="M495 100c-11.2 3.1-27 6.1-34.4 13.8-1 1 .7 3.3 1.7 2 6.4-8.8 21.5-11.5 32.8-15.7v-.1M497.3 113.6c-4.6 2-7.7 5.1-12.5 7-4.8 1.7-10.1 2.6-15.3 3.6-9 1.6-17.7 3.8-23.2 9.6-1.2 1.2.6 4.3 2.2 2.5 6-6.6 16.7-8.1 26.3-10.3 4-.9 8-1.9 11.6-3.5 4.4-2.1 7.4-5.2 11.3-7.6.5-.3.3-1.6-.4-1.3M485.6 138c-4.9 1.8-9.6 3.9-14.6 5.6-5.8 2-11.8 2.9-18 4a50.7 50.7 0 0 0-25 11.6c-1.6 1.4.4 5.1 2.7 3 7.7-6.8 17.2-9.9 28.5-12.3a84.5 84.5 0 0 0 26.6-11.2c.3-.2.2-1-.2-.8M398.6 199.5a62.2 62.2 0 0 1 32-12.7 71 71 0 0 0 31.2-8.6c2-1 .6-5.5-2-4a58.6 58.6 0 0 1-17.7 7.2c-6 1.3-12.2 1.2-18.1 2.5a47.9 47.9 0 0 0-25.7 15c-.2.2 0 .8.3.6M448.8 194.6c-6 2.2-11.7 4.8-18 6.6-7 2-14.3 3.3-21.6 4.3-10.9 1.5-22.5 4-25 13.1-.7 2.5 3 4.3 4 1.3 3.2-10 21.9-9.7 32.3-12.2a81 81 0 0 0 28.6-12.4c.2-.2.2-1-.3-.7" fill="#536A32"/>
      <path d="M425 215.8c-9 3.4-17.9 7-28.2 6.5-9-.4-16.4-2-23.2 3.7-1.7 1.4-.3 6 2 4 8.2-6.2 17.4-2.6 27.5-4.3a70.6 70.6 0 0 0 22.2-8.9c.4-.2.2-1.2-.4-1M459.4 85.7c-4.4.6-6 3.3-7.4 6.2-2.5 5-5.5 10.2-7 15.3-.6 1.7-.7 3.2-.5 5 .4 3.6.2 6.8-.8 10.4L439 141c-.7 2.4 3.2 4.3 4 1.2l3.6-15c.9-4 2.3-8.2 1.8-12.3-.4-2.3-1.2-4.4-.6-6.8.6-2.7 1.9-5.3 2.9-8 1.6-4.2 2.6-12 8.8-14 .2 0 .2-.5-.1-.4M430.8 103a43.2 43.2 0 0 0-4.5 35c1.5 5.5 4 11.2 1.6 16.7-1 2.4 2.4 5 3.6 1.7 3-8.2-1.3-15.9-3-24a52.5 52.5 0 0 1 2.8-29c.1-.3-.3-.7-.5-.3M401.4 192c6.5-5 1.8-12-1.6-17.3-6.1-9.8-5.3-20.4-4.2-31 .3-2.7-3.8-2.7-4 0-.7 7.8-1.5 15.8.9 23.4 1 3.2 2.4 6.2 4.5 9 3.4 4.9 8 9.8 4 15.4-.1.1 0 .8.4.5M370 241.1c4.9-4.5 2.3-10.5-1-15.1-3.2-4.3-6.9-8-8-12.8-1.2-4.6-1-9.2-2.3-13.8-1-3.3-5-.8-3.9 1.9 2.6 6.4 1.1 13.2 5.3 19.3 4.3 6.4 14.6 12 9.3 20-.2.3.1.9.5.5M417 118a41.6 41.6 0 0 0-8 27.7c.7 11 5.8 22-.7 32.4-1.4 2.2 1.9 5.7 3.9 2.6 5.7-8.5 3.2-18.2 1.3-27.2A59.7 59.7 0 0 1 417 118M381.3 150.3c-4.2 8.8-2.4 20 1 28.9 2 5.4 5.1 10.5 6.7 16 1.8 6.6 1 13-1.4 19.6-.7 2 2.8 4.5 3.9 1.8a35.4 35.4 0 0 0-2.3-30.3c-3-5.8-5.7-11.4-7-17.4-1.3-6.3-.5-12.3-.5-18.5 0-.2-.3-.4-.4-.1M469.7 81.5c-4 3.6-4.8 7.3-4.8 11.8 0 5.8 2.4 13.2-3.2 17.9-1.7 1.4.2 5 2 3 9.5-9.8-2.6-22.8 6.4-32.3.2-.2 0-.7-.4-.4" fill="#536A32"/>
      <path d="M479.7 151.3c-8.8 10.5-25.8 13-40.7 15.6-9.7 1.6-24.8 3.8-25.3 13.1-.1 1.7 2.4 3.2 3.5 1.1 5.3-9.7 25-9.8 36.6-12.9 11.4-3 21.5-7.9 26.6-16.3.2-.3-.3-1.2-.7-.6M371.5 168.4c-1 9.7.4 19.4 3.1 29 1.3 4.4 3.3 8.9 4.2 13.5 1.1 6 0 11.7-2.5 17.5-.9 2 2 5.3 3.5 2.4 4.9-9.2 4-19 .5-28.3a152.2 152.2 0 0 1-8.4-34.2c0-.3-.4-.2-.4 0M491.6 126.2c-5.8 2.8-11.1 5.6-17.7 7.4-6.7 1.7-13.6 1.6-20.4 3-10.8 2-17.5 9.3-23.3 15.9-1.5 1.6 1 5.5 2.9 3.2a56 56 0 0 1 10.9-11c5.6-4 11.8-4.8 19.2-6a57.3 57.3 0 0 0 28.7-12c.2-.2 0-.7-.3-.5M364.9 177.7c-1.5 9-.9 18.3.6 27.3 1.6 10.2 7.7 21.5 4.6 31.7-.7 2.5 3 4.2 4 1.3 3-9.4-2-19-4.3-28.2-2.8-10.6-3.7-21.3-4.8-32 0-.1-.1-.2-.1 0" fill="#536A32"/>
      <path d="M437.3 109.6c-1.2 12-1.6 24.2-2.7 36.3-.2 2.4 3.3 2.4 3.5 0 .7-12 1-24.4-.3-36.4 0-.3-.5-.2-.5.1M353 225.9c6 5.2 10.5 10.5 11.4 17.5.2 2.5 3.5 1 3.2-1-1.1-6.7-5.8-14-14.4-16.8-.2 0-.2.2-.1.3M470.7 150.6c-8.2 7-19.7 9-31.7 9.1-8.6.1-17.5 1.3-21 8-1 1.8 2 4.7 3.2 2.1 4.1-8.4 20.2-6 29.4-7.8a39.6 39.6 0 0 0 20.4-11c.1-.2 0-.6-.3-.4" fill="#536A32"/>
      <path d="M355.6 252.2c13.7-20.7 33-48.4 48.2-69.8 21.7-30.5 30.4-39.3 50.7-66.4 7.3-9.8 26.7-28 31.7-38-14 32.8-38.4 63.3-61.1 93.4-17 22.4-27.7 46.6-47.1 67.8a47.5 47.5 0 0 1-12.1 9.6c-3.5 1.8-9.4 2.8-10.3 3.4" fill="#698439"/>
      <path d="M363.7 246.9c2-.6 9.7-.5 14.2.4-19.9 3.4-28 25-35 37-5.2 9.1-11.6 17.8-17.8 26.5-6.5 9.1-11 20.5-18.4 29 1.7-8-4.5-18.3-1.9-25.6 1.2-3.2 7.4-7.5 9.6-10.8 3.6-5.4 6.7-10.9 10.7-16.3 12.4-16.6 24.7-31.8 33.9-49.2 2.3 2.9 3.1 6.8 4.7 9" fill="#536A32"/>
      <path d="M227 136c-1.6-2.2-5.5-1.5-8-1.8-2.9-.5.2-3.4-2.4-4.5-4.7-1.8-11.3-6.8-16.4-6.5a249 249 0 0 1-43.2-5.8c-9-2.2-17.8-5.8-26.8-7.6 8.6 6 20.8 9.4 30.8 12.3 4.7 1.3 9.4 3.1 14 4.4 4 1 7.8 1.1 11.6 2.3-11.4 3.7-23.9 1.6-35.6.6-6.4-.5-13.3-2.3-19.6-3.9-4.2-1-10.7-3.8-14.7-2.8 1.2 3.3 14.5 6 18 7.2 5 1.8 10.3 2.5 15.5 3.2a236 236 0 0 0 25.1 1.7c7.8.2 15.7-.3 23.5-.7 5.5-.2 10.8-1 16.2-.2 4.1.5 9.2 1.4 12 2" fill="#F4C55C"/>
      <path d="M228.3 122c6 .7-2.4-28.6-2.6-32.9-.7-16-4.6-33.5-9-48.8 0 14 3.6 28.6 4.6 42 .7 9.6 1.7 18.5 3.4 28 .5 3.1 1 12.6 3.6 11.8M136 100.3c5.8-.1 12 5.6 17.8 6.9 5 1 10 1.6 15.2 2.8 11.2 2.6 24 3.2 34 8.8 4.6 2.7 14.6 7 17 11.6-5.7 2.3-16.7-2.7-22-5.3a83.3 83.3 0 0 0-19.2-6.6c-11.6-2.3-21.7-7.8-32.3-11.7-4-1.5-9.7-4.6-10.5-6.5" fill="#6557A4"/>
      <path d="M232.8 133.5c-5-16.7 8.5-17.7 19.6-25.6 6.1-4.3 10-12.5 14.4-18.7 4.4-6.3 8-12.3 11.2-19.3 3.6-8.3 7.6-16.3 11.2-24.6C281.4 53 273.4 59 266.6 68c-11.7 15.8-24 32.1-34.3 48.3-3 4.8-5.1 13.8.5 17.2" fill="#D16027"/>
      <path d="M273.6 44.6c-2.8 12.1-3.8 24.3-10.6 35-3.8 6-7 12-12 17.1a297 297 0 0 0-15.3 16.5c-4 4.6-5.2 8.9-7 14.3-.8-18.8 6.7-30.2 18-44 7.7-9.3 13.1-20.1 20-30 2.5-3.6 5.4-7 7-8.9M178 73.7l-5.4-3.4c16 14 25.8 35.6 41.9 50.3 1.8 1.6 4.3 2.3 6.4 3.2-10.5-10.3-17.8-22.4-26-35-6.1-4-10.9-11-16.9-15M195 76.6c9 14.3 19 26.4 27.3 40.4-2.6-8.4-6.7-16.2-10.7-23.9.6 2.3 1.4 4.6 2.3 7-3-8.2-11.5-16-16.4-23.2l-6.2-8.9a29 29 0 0 0 3.7 8.6" fill="#F4C55C"/>
      <path d="M211.4 76.8c-2.2-7.6-5.1-23-6-30.4-4.4 9.3.3 22.5 2 32 .9 4.7 2.9 10 4.2 14.7 3.3 8.1 6.2 14.7 10.7 23.9-8.4-14-18.3-26.1-27.3-40.4a29 29 0 0 1-3.7-8.6l-11.7-16.3c4.3 13.5 9.3 27.4 18 38.6-1-.4-1.8-.9-2.6-1.4 8 12.5 15.4 24.6 26 35-2.2-1-4.7-1.7-6.5-3.3-16-14.7-25.9-36.4-41.9-50.3l-8.5-4.9c11.4 13.7 19.4 30 29.4 44 6.7 9.5 12 19 24.8 22.2 5.2 1.3 10.7 2 13.4.6 1-9.1-7.5-21.3-11.4-29-6-11.8-6.4-17.7-9-26.4" fill="#D16027"/>
      <g transform="translate(91.7 126.9)">
        <mask id="h" fill="#fff">
          <use xlink:href="#g"/>
        </mask>
        <path d="M164.3 36c2.8-3.9 1.2-12.3-.3-16.3-2-5-5-7.7-9.7-9.8-9.7-4.4-18.1-7-28.7-5.8-12.6 1.5-25.3.8-38 1.5-8.5.5-16.2.8-24.6.5-3.9-.1-7.3-.5-11-1-3.7-.3-7.3.9-11 .2-8-1.4-15.8-.6-23.7-2C11.7 2.5 5.4.8 0 .3 4.2 1 9.7 3 13.8 4.4c5.8 2.1 11.6 3 17.7 4.2 15.1 3 30 5 45.6 6.2 13.2 1.1 25.9 5 39 5.3 9.7.2 19 1.7 28.6 2.8 4.8.6 9 0 13 3 2.3 2 7.4 7.8 6.6 10.1" fill="#8776B5" mask="url(#h)"/>
      </g>
      <g transform="translate(246.6 126.9)">
        <mask id="j" fill="#fff">
          <use xlink:href="#i"/>
        </mask>
        <path d="M.3.2c.4 4.1 3.8 8.9 5 13.1 1.1 4 1.9 7.8 2.4 11.8 1.2 9 3.4 18 5.9 27.2 4.3 16 7.2 32.4 10.9 48.6 2.5 10.9 8.6 60.7 12 74.4 3.2 13 5.9 25.8 10.1 38.5 2 6 4.6 12.5 5.4 18.5 9.5-.3 11-10 10-15.3-2-10.6-13.4-52.7-14.7-58-1.5-6.2-8.5-43.3-10.4-55.6-2-13-4.2-26.9-7.5-39.6-2.4-9.2-5.2-18.6-8.8-27.4-2.4-6.2-4.3-12.9-7-18.9C12 13.8 2.6 2.7.3.3c.2 1.2.6.3 0-.1" fill="#698439" mask="url(#j)"/>
      </g>
      <path d="M369.9 75.4c1.7-.8 3.5-5.9 5-8.1 1.9-3 4.2-6.6 7.3-8.7 5.7-4 14.7-6 21.5-6 7.6-.1 15.1-1.1 22.7-1.3a51 51 0 0 0 20-3.2c4.5-2 7.2-5.8 10-9.8 5 .4 9.6 2.3 14.5 2.6 5.3.4 11.4.3 16.8-.1 12-1 24.2-.8 36-2.2 4.7-.6 9-1.7 14.1-.8-5.8.5-12.3 4.4-17.8 6.4-7 2.5-15 4.2-22.2 5-14.9 1.7-28.6 5.5-43 9.2-6.1 1.6-11.8 4.4-18 5.9-5.6 1.4-11.4 1.4-17 3-10.7 3-21.3 5.3-31.9 8.8-2.6 1-5.7 1.4-8.2 2.5-2.1 1-5.7 5-8.1 4.6-3.5-.6-1.4-6.8-1.7-7.8" fill="#8776B5"/>
      <path d="M421.2 51.3c5-3.8 20.3-2.3 25.2-7 4.5-4.1 9.1-7 15.2-8.6 13.6-3.4 30.4.2 44.2 1.4 6.3.5 13.1 1 19.2 1.3-3.7 3.7-15.7 4.3-21 4.5-7.3.2-15 1-22.4.3-6.9-.6-14-2.7-20.6-1-5.1 1.4-9.7 5.6-14.5 7.9-6.8 3.3-20 .2-25.3 1.2" fill="#F4C55C"/>
      <path d="M385.5 42c-4.7 9.8-2.3 23-3.7 33.2-.8 5.3-3.6 8.8-5.6 13.9-3.1 8.3-12.3 48.4-16.1 59.7-5.5 16.4-26 110.5-36.7 138.2-8.6 22.4-7 48.3-16 70.4-3-4.1-4.7-5.4-5.7-10.2-.9-4.4-4.6-3.1-5-7.8-1.3-12.8 6.4-35.7 9.5-48.2 3.3-13.3 6.7-26.8 10.9-39.8C321 239 345 133 350.2 117c5.3-16.2 9-29.8 15.2-47 1.8-5 5.4-13.5 9-17.2 3.5-3.4 8.5-9.3 11-10.8" fill="#698439"/>
    </g>
  </g>
</svg>
