<?xml version="1.0" encoding="UTF-8"?>
<svg width="772px" height="558px" viewBox="0 0 772 558" version="1.1" xmlns="http://www.w3.org/2000/svg" xmlns:xlink="http://www.w3.org/1999/xlink">
    <!-- Generator: Sketch 47.1 (45422) - http://www.bohemiancoding.com/sketch -->
    <title>hopeFooterParadise@2x</title>
    <desc>Created with Sketch.</desc>
    <defs>
        <polygon id="path-1" points="252.776156 0.7725514 252.776156 118.399718 0.537413383 118.399718 0.537413383 0.7725514 252.776156 0.7725514"></polygon>
        <polygon id="path-3" points="0 62.5939364 0 0.288845455 284.963399 0.288845455 284.963399 62.5939364"></polygon>
        <polygon id="path-5" points="107.372526 399 0.534315789 399 0.534315789 0.299202837 107.372526 0.299202837 107.372526 399"></polygon>
    </defs>
    <g id="Symbols" stroke="none" stroke-width="1" fill="none" fill-rule="evenodd">
        <g id="hopeFooterParadise">
            <g id="Page-1">
                <g id="Group-3" transform="translate(519.000000, 323.000000)">
                    <mask id="mask-2" fill="white">
                        <use xlink:href="#path-1"></use>
                    </mask>
                    <g id="Clip-2"></g>
                    <path d="M252.025057,12.1595333 C250.778867,21.4207556 239.421142,26.6577 232.823391,32.2828111 C223.917603,39.8742556 215.314662,45.7137556 204.794001,50.4473111 C194.846116,54.9239778 185.881075,62.2991444 176.969644,68.5730889 C165.787796,76.4469222 152.464384,82.1636444 139.368577,86.1822556 C126.781592,90.0440889 113.579506,92.0907 101.20696,96.8261444 C91.2637777,100.631311 81.9723762,103.575144 71.5128483,106.068478 C63.7140528,107.9262 56.4692238,110.795422 48.4550491,112.027922 C44.565997,112.625756 41.1312164,112.988422 37.6719822,114.694089 C35.8332647,115.6017 33.8055026,118.018533 31.774919,118.332089 C25.292852,119.330367 20.6118818,108.981144 14.6753167,106.792867 C9.66516431,104.947422 5.09987807,108.994367 0.537413383,107.840256 C1.23810112,103.073644 7.39192639,99.3421444 9.08768476,94.6501444 C11.1605918,88.9135889 8.43120149,83.4972 9.46953606,77.7219222 C11.5377405,66.2214222 22.6340007,63.6997556 31.8605063,58.5648111 C41.1782424,53.3788667 51.0800416,47.5828111 61.0956439,43.6482556 C87.2985435,33.3557 112.30228,20.1854222 139.553859,12.4513667 C151.324473,9.11086667 161.957057,3.12875556 174.19793,1.68942222 C186.248819,0.272755556 198.308172,0.374755556 210.140859,2.8662 C219.77461,4.89392222 228.703912,6.71764444 238.64051,7.42125556 C243.854755,7.79053333 249.39348,8.44692222 252.776532,12.7800333 C252.011889,13.3391444 251.338477,13.0397556 252.025057,12.1595333" id="Fill-1" fill="#485828" mask="url(#mask-2)"></path>
                </g>
                <path d="M769.58102,334.668944 C769.125321,332.018215 762.014905,329.121394 759.339084,327.817491 C754.295322,325.359437 748.768555,325.702821 743.084554,325.0151 C727.751779,323.16083 711.405921,323.904827 696.296288,326.773986 C678.457167,330.161083 659.836578,333.11418 642.056773,337.56958 C622.015419,342.591563 604.926695,352.322669 586.863491,362.049959 C572.07586,370.011685 555.790259,383.25484 539,386 C548.905811,384.589266 556.219596,378.681163 565.401372,376.30991 C572.728339,374.416532 579.123193,373.241397 586.114035,370.281623 C595.977477,366.104745 604.977538,358.988123 615.069771,355.632503 C625.678902,352.104239 636.628867,349.563201 647.196571,345.965306 C657.003522,342.626855 666.449867,338.26207 676.310484,334.933159 C686.031755,331.651939 694.437712,330.707635 704.471571,329.466685 C716.276442,328.006351 730.617789,326.028081 741.504671,328.310627 C747.037086,329.469546 752.932931,329.4209 758.557617,329.931206 C763.684234,330.396682 766.645338,332.566674 770,334.846359 C769.706243,334.130023 769.241129,333.857224 769.58102,334.668944" id="Fill-4" fill="#698439"></path>
                <path d="M725.894776,334.019365 C720.681443,337.163396 715.545851,340.650516 710.665284,344.292027 C708.468649,345.932184 706.408534,347.742932 704.723848,349.919642 C702.68933,352.548087 701.455916,355.479593 698.764399,357.586732 C697.392569,358.659839 697.960451,360.888966 699.724774,359.620489 C701.613292,358.26338 702.811629,356.430712 703.967303,354.43603 C705.887106,351.12236 707.713053,348.277579 710.606505,345.693927 C715.367617,341.441528 720.96491,338.180274 725.943127,334.196628 C726.021815,334.133728 726.030347,333.938358 725.894776,334.019365" id="Fill-6" fill="#536A32"></path>
                <path d="M696.965252,335.006305 C684.290579,342.247695 673.636863,354.525667 666.3344,367.005368 C665.043785,369.211122 667.834764,369.713076 668.848549,367.875736 C672.332076,361.562487 676.363595,355.591134 681.02247,350.085746 C685.811729,344.424089 691.365342,339.843053 696.981313,335.065024 C697.005879,335.044188 697.011547,334.979787 696.965252,335.006305" id="Fill-8" fill="#536A32"></path>
                <path d="M668.405273,344.177597 C663.581915,349.138734 659.694111,355.328215 655.604355,360.924537 C651.229049,366.911523 646.853742,372.898509 642.477497,378.886449 C640.810221,381.168343 643.941881,381.770098 645.251279,379.859764 C649.272466,373.991219 653.293652,368.121719 657.315778,362.253174 C661.249608,356.512622 665.864439,350.753921 668.933165,344.489937 C669.167053,344.013308 668.737788,343.835647 668.405273,344.177597" id="Fill-10" fill="#536A32"></path>
                <path d="M649.150525,348.334669 C645.088941,354.977498 639.233289,360.314057 634.762565,366.698681 C630.584483,372.664079 626.524763,379.384084 624.160321,386.349908 C623.245113,389.044389 626.513579,387.99156 627.271281,386.358483 C630.559319,379.283089 633.581741,372.305831 637.863274,365.763045 C639.96676,362.548342 642.284603,359.510858 644.704032,356.541022 C646.740416,354.041862 648.852291,351.556041 649.955759,348.467107 C650.195279,347.797297 649.395637,347.935452 649.150525,348.334669" id="Fill-12" fill="#536A32"></path>
                <path d="M621.455666,358.17097 C612.65987,367.344375 610.119008,380.424044 608.035891,392.693161 C607.603265,395.238545 611.219645,393.595274 611.473638,391.74575 C613.065515,380.106956 614.801601,368.151072 621.877127,358.56227 C622.197177,358.13049 621.8334,357.776777 621.455666,358.17097" id="Fill-14" fill="#536A32"></path>
                <path d="M601.771519,363.057564 C597.629431,367.10758 594.831994,372.51044 592.545147,377.799696 C591.298289,380.684314 590.239494,383.647509 589.380987,386.671294 C588.999219,388.012778 588.653183,389.36657 588.341939,390.726043 C587.966753,392.36858 587.905632,395.015575 586.971899,396.415756 C587.512581,395.985004 588.053262,395.554252 588.593943,395.124446 C588.354163,395.187876 588.115323,395.252252 587.876483,395.316628 C586.080481,395.797556 584.998178,399.681897 587.342384,398.895183 C589.366882,398.216394 590.263943,396.898577 590.67392,394.804459 C591.447799,390.858582 591.845553,386.96856 592.998379,383.081378 C595.115028,375.946042 598.871587,369.80475 601.98215,363.132354 C602.062077,362.961 601.852386,362.978987 601.771519,363.057564" id="Fill-16" fill="#536A32"></path>
                <path d="M581.339461,372.185075 C572.96437,382.201533 571.816453,394.139284 570.024949,406.708825 C569.668342,409.215821 573.249467,407.611382 573.432005,405.784185 C574.596859,394.089356 574.83397,382.381084 581.901187,372.518253 C582.230508,372.057373 581.65749,371.804849 581.339461,372.185075" id="Fill-18" fill="#536A32"></path>
                <path d="M559.109287,384.349022 C556.91201,388.665823 555.360411,393.257103 554.442661,397.991381 C553.449007,403.114343 553.707278,408.541535 550.396084,412.920718 C549.05051,414.700031 551.46367,415.835375 552.713624,414.23169 C555.562494,410.574213 556.227887,406.56644 556.52066,402.064414 C556.916939,395.952945 557.915522,390.29734 559.96099,384.482423 C560.190674,383.829816 559.340942,383.894117 559.109287,384.349022" id="Fill-20" fill="#536A32"></path>
                <path d="M542.034067,390.64512 C539.135171,402.903192 535.125658,413.924818 526.630387,423.409033 C524.96258,425.269453 526.948512,427.090576 528.60126,425.204276 C536.72664,415.931887 543.394101,403.041214 542.981855,390.268435 C542.960208,389.606121 542.106539,390.340321 542.034067,390.64512" id="Fill-22" fill="#536A32"></path>
                <path d="M723.901527,366.883321 C703.629607,361.392831 681.485376,364.255751 661.828971,371.158344 C660.182826,371.736022 658.954658,375.730866 661.305067,374.882178 C681.610387,367.553713 702.413846,366.309718 723.661047,367.400888 C723.846179,367.411077 724.161094,366.953621 723.901527,366.883321" id="Fill-24" fill="#536A32"></path>
                <path d="M672.895953,390.442035 C663.67574,390.09235 653.961974,392.059331 645.053529,388.877599 C637.515541,386.185833 630.441908,386.810997 622.703296,388.134517 C621.15482,388.399831 620.024546,391.856026 622.239884,391.468728 C626.351257,390.749027 630.506898,390.021193 634.686088,390.125895 C638.955699,390.23263 642.726106,391.836711 646.863852,392.633669 C650.869732,393.405214 654.969802,392.782082 658.980392,392.366323 C663.58626,391.889571 668.216617,391.52972 672.798937,390.830349 C672.941164,390.807985 673.115414,390.450167 672.895953,390.442035" id="Fill-26" fill="#536A32"></path>
                <path d="M641.896824,407.476164 C636.863584,408.036689 632.432185,408.373962 627.47806,406.908932 C623.131428,405.623078 619.042862,403.530451 614.878007,401.757851 C607.501447,398.618911 599.610638,396.431427 591.828141,399.418977 C589.800341,400.197005 589.04592,404.180085 591.743375,402.862612 C600.398965,398.636158 609.866429,403.799695 617.96162,406.959714 C625.473806,409.892649 634.291394,411.60776 641.845964,407.823977 C641.937323,407.778943 642.112507,407.45221 641.896824,407.476164" id="Fill-28" fill="#536A32"></path>
                <path d="M607.920465,418.607749 C604.480653,417.007829 600.87328,415.752563 597.445987,414.122713 C593.672017,412.328698 590.176351,410.130169 586.525644,408.14206 C581.452595,405.37848 575.944274,403.793979 570.361802,406.13309 C568.650563,406.850515 568.326997,410.00954 570.705591,408.978299 C577.270316,406.133997 583.852375,410.814035 589.46181,413.546778 C595.091469,416.289498 601.359592,418.506167 607.714384,418.999566 C607.88676,419.013171 608.126545,418.702982 607.920465,418.607749" id="Fill-30" fill="#536A32"></path>
                <path d="M582.781291,424.35541 C578.674129,425.127973 574.470317,424.35541 570.952627,421.936598 C568.23589,420.068895 566.319151,417.166725 563.415813,415.570026 C558.665591,412.959085 552.007242,413.815579 547.477115,416.587303 C545.729753,417.657162 545.15655,421.673683 547.869458,420.216531 C551.115379,418.471185 554.106756,417.05347 557.870378,417.556041 C561.745962,418.07378 564.042604,420.823257 567.125847,423.020614 C571.747839,426.314121 577.483703,426.758042 582.698038,424.937866 C582.941099,424.852924 583.192773,424.277546 582.781291,424.35541" id="Fill-32" fill="#536A32"></path>
                <path d="M512.022102,437.742516 C522.094199,429.626417 537.905171,424.355369 550.256369,420.499329 C560.550611,417.286902 569.534676,410.744601 579.494283,406.546554 C590.424707,401.939789 601.845737,399.512852 612.755364,395.167291 C623.098761,391.048168 634.124659,387.698563 644.089938,382.735697 C653.322615,378.137388 662.190409,372.10434 672.151907,369.405863 C689.791075,364.627155 706.726945,359.652075 723.61177,352.716089 C730.063395,350.065532 736.433724,347.255245 742.936395,344.631936 C747.559824,342.766868 756.520256,336.88885 761,337.0016 C755.326351,342.251978 741.318054,343.825775 733.69332,346.552439 C724.283873,349.918018 715.396228,353.561712 705.844042,356.238578 C697.28914,358.637328 689.666297,362.610815 680.907211,364.365012 C672.122603,366.124847 663.725565,369.467876 655.453306,372.808086 C617.207694,388.249157 576.794526,397.078398 540.033025,415.930148 C533.762896,419.145393 527.004051,421.899305 520.98537,425.382331 C517.343156,427.489811 509.760016,430.631769 509,435.040282 C509.927332,437.383597 511.850059,438.556193 512.022102,437.742516" id="Fill-34" fill="#698439"></path>
                <path d="M538,429.681351 C532.683363,426.217689 528.614979,426.260228 522.469003,427.341677 C524.185234,424.068971 527.667702,421.456099 528.63951,418 C522.798285,424.967027 512.775457,428.836232 504.610385,432.818876 C490.828641,439.542955 420.267852,485.74654 392.051462,501.105195 C386.764073,503.983703 373.147443,514.553354 369.530054,519.435945 C366.551416,523.456402 356.872966,538.791424 354,543 C358.856208,538.76401 374.773098,531.05774 379.941605,526.935189 C387.739655,520.714021 432.088053,487.588028 447.451107,479.289987 C472.615266,465.69814 495.154601,447.487446 520.974495,435.013915 C523.478551,433.803902 536.454543,426.890759 538,429.681351" id="Fill-36" fill="#536A32"></path>
                <path d="M230,436 C224.775294,428.794084 219.346401,420.506757 215.818519,413.130742 C215.131282,411.69488 215.062274,408.7994 214.346678,407.115517 C213.183951,404.375882 211.508869,403.750602 210.343307,401.602036 C208.152087,397.564328 207.237031,393.24439 204.572213,390.218722 C201.961278,387.255772 199.552638,386.630493 196.863243,383.458484 C193.392079,379.362809 189.855689,375.976988 186.115113,372.272826 C175.619381,361.876845 166.684348,357.188201 155.963632,351.956 C143.926106,346.080465 131.807282,335.891644 119.777318,330.467488 C114.619728,328.143122 109.833644,324.390496 104.805561,323.750012 C100.26053,323.172246 96.0075981,321.908384 91.398286,320.209297 C83.8358378,317.420247 76.3688655,320.233054 69.3934524,320.936255 C65.9515932,321.282154 63.5741486,324.363888 60.0122355,323.959072 C56.106231,323.515295 52.1472894,322.084184 48.2167069,322.106041 C36.8673629,322.169709 26.847119,322.512757 18,332.017383 C23.1972925,341.714914 31.0348247,345.36586 36.8626363,349.242972 C44.0516886,354.025694 49.8397974,357.075118 57.0931305,359.037431 C65.4401826,361.296229 73.525385,368.848044 82.0397564,372.98268 C90.9662811,377.317823 99.1252174,378.709022 108.236077,385.633657 C128.284127,400.867476 150.051689,415.418048 169.773608,419.897633 C173.156858,420.665453 176.052331,419.602098 179.345777,419.693324 C182.785745,419.787401 186.28905,423.141863 189.572097,423.805153 C192.141439,424.324002 193.56507,420.62174 195.901867,420.868811 C198.81719,421.175749 200.661482,424.907469 203.376401,428.29329 C208.897934,435.179915 212.225411,434.576492 217.229861,432.607527 C220.82675,431.192571 225.4285,432.748168 230,436" id="Fill-38" fill="#485828"></path>
                <path d="M207.561705,431.982163 C209.5474,430.306041 210.854476,429.024524 213.289745,429.094718 C214.95364,429.142147 216.888225,429.734054 218.400685,428.879393 C219.79389,428.092081 220.537816,425.848714 222.212122,426.008074 C224.597228,426.234782 251.987138,448.190367 262.252557,454.136948 C276.908652,462.628541 291.265663,475.273918 305.85456,487.516154 C319.960756,499.354299 333.963787,511.631632 348.098378,521.597301 C351.694966,524.131878 355.476115,524.849945 359.002664,527.774384 C361.370734,529.738871 363.257049,534.494998 365.266406,538.141298 C368.364204,543.761572 369.611652,546.199395 364.755312,544.434107 C354.422694,540.680618 344.221635,530.951143 333.800994,523.962084 C311.75391,509.171991 289.918836,491.929847 268.018455,472.868347 C258.964518,464.988581 209.170705,432.692642 207.044932,431.213822 C206.873621,430.42651 207.223815,431.057308 207.561705,431.982163" id="Fill-40" fill="#536A32"></path>
                <path d="M27.0032484,334 C29.9703735,343.406343 39.396585,345.635799 43.7705367,348.715919 C50.5782508,353.508684 57.3319656,356.379439 63.9464188,359.615168 C74.4052505,364.731411 84.5400858,368.368895 95.0150226,373.880292 C109.127814,381.30521 123.096607,393.42387 137.228345,402.749107 C144.834682,407.770099 154.797098,414.56315 161.954388,415.173327 C164.329414,415.375147 167.338223,417.276409 169.57683,416.885028 C171.543545,416.539859 172.401851,412.7147 174.234041,412.545888 C177.804633,412.216751 183.074786,419.383264 186.98169,420.041538 C189.564187,420.476301 195.380018,413.668161 197,423 C192.466892,417.247173 189.219349,422.857594 185.178868,422.435091 C180.858915,421.984296 176.908433,415.660902 173.04037,416.07586 C169.314411,416.476672 165.975922,419.064501 162.123017,418.435462 C156.946653,417.590457 153.214063,412.560034 147.952437,409.997669 C141.744401,406.975077 135.866992,408.074716 129.534851,403.87138 C122.332089,399.091818 115.135011,392.579807 107.88867,387.856831 C98.3317227,381.627746 88.6629876,374.846012 79.1628821,370.160759 C72.461272,366.855242 66.1177632,365.55001 59.283523,361.451357 C54.021897,358.29579 26.6574628,349.354389 27.0032484,334" id="Fill-42" fill="#698439"></path>
                <path d="M218.976076,422 C218.991132,421.615053 217.491119,420.37509 215.934644,419.584388 C215.848069,418.065409 215.551642,417.922591 215.276859,416.695869 C215.366258,416.01772 215.532821,415.575078 215.626925,414.904495 C213.863421,410.958555 212.126267,407.427828 210.358058,404.547821 C209.661691,403.411897 208.743239,404.473101 207.729742,402.511481 C207.065369,401.223281 207.290277,397.365301 206.505452,395.34504 C204.047464,389.024158 194.610744,383.31049 191.202307,380.41535 C184.968878,375.120677 179.34524,367.973153 173.05723,364.709145 C164.630243,360.335696 156.082803,353.105886 147.509956,347.850938 C139.167662,342.737861 129.090096,341.532893 121,332.810587 C125.922565,329.048134 134.950875,339.406701 140.703434,342.952561 C148.593089,347.815942 156.674716,352.886457 164.611423,357.09628 C175.789061,363.025594 186.165877,371.861398 196.88523,382.571808 C199.37145,385.056464 202.567212,386.868646 204.846404,390.009698 C207.883131,394.194929 207.650695,395.7158 209.330446,401.692405 C212.344588,399.133975 214.296298,409.458492 216.710059,413.101772 C216.281887,413.798838 216.252715,414.383351 215.684328,414.842072 C216.36658,417.885705 215.911118,417.160264 217.195634,417.467654 C218.191251,418.915697 219.166165,420.969062 218.976076,422" id="Fill-44" fill="#698439"></path>
                <path d="M93.0294648,338.113011 C99.2974922,345.818655 105.154765,353.70328 110.399209,365.023578 C114.259363,373.358023 118.376356,382.018231 123.493325,383.95861 C124.445143,384.319413 123.899358,382.211417 123.138281,381.895122 C116.711617,379.225562 112.130046,365.800109 106.963031,356.767734 C102.619415,349.177623 97.8225511,343.591339 93.0549599,338.018313 C93.008691,337.963387 92.9718646,338.042934 93.0294648,338.113011" id="Fill-46" fill="#536A32"></path>
                <path d="M107.055481,335.250242 C110.415459,340.311204 113.927776,344.927341 117.057826,350.782162 C120.305206,356.85323 122.690592,364.106075 125.461083,370.968156 C129.924338,382.020517 135.701873,392.282814 141.689465,398.609018 C142.806935,399.790794 143.661359,398.074088 142.299768,396.380145 C138.754334,391.964133 135.392463,387.449481 132.198071,381.579485 C129.103031,375.890644 126.499071,369.513224 123.890381,362.929041 C119.13191,350.915894 113.458458,342.290633 107.151048,335.039684 C107.057373,334.933457 106.923012,335.052963 107.055481,335.250242" id="Fill-48" fill="#536A32"></path>
                <path d="M135.031795,346.127159 C138.20385,350.174311 141.302995,355.29316 143.71281,361.462786 C145.978699,367.263451 147.444473,373.748785 149.366644,379.868011 C152.711032,390.521265 157.458699,399.319258 162.656135,405.547841 C163.796181,406.914325 164.681516,404.901209 163.282024,403.256102 C156.651955,395.462291 152.354057,384.294584 148.389461,371.124221 C145.112302,360.232284 140.598515,351.042509 135.082926,346.013998 C135.037476,345.972157 134.954151,346.028262 135.031795,346.127159" id="Fill-50" fill="#536A32"></path>
                <path d="M74.0663453,336.244402 C80.2286034,341.742956 86.4476216,347.82139 92.0176824,357.081667 C96.6057929,364.710206 100.914833,373.406553 106.321235,375.920312 C107.591716,376.511453 106.872754,373.634565 105.845396,373.186048 C99.9082864,370.593471 94.6418924,358.06315 89.2648161,350.964761 C84.3739849,344.507245 79.2381391,339.888836 74.0966174,336.015452 C74.0010712,335.943202 73.9518791,336.142125 74.0663453,336.244402" id="Fill-52" fill="#536A32"></path>
                <path d="M52.1359539,338.408602 C57.7012959,342.33892 63.1762072,343.253703 68.7752202,347.307202 C74.8283113,351.689183 80.6659077,357.937014 86.3832504,365.478719 C87.2798622,366.66087 88.7998691,365.700253 87.4886226,363.922252 C81.937711,356.39678 76.0260383,350.461197 70.1287961,346.378096 C64.0102869,342.141258 58.1659563,341.239844 52.1032449,338.013278 C51.9348897,337.924473 51.9916495,338.306429 52.1359539,338.408602" id="Fill-54" fill="#536A32"></path>
                <path d="M149.03747,354.17469 C155.591182,364.27972 161.566317,375.207526 166.625056,388.641493 C170.405788,398.679376 174.134181,409.324412 179.893302,413.758898 C181.334034,414.869174 181.386372,411.844758 179.942785,410.777039 C173.685974,406.148681 169.379005,390.728699 164.877907,380.713514 C160.217891,370.34652 154.878429,360.932813 149.104082,354.029995 C149.038421,353.9515 148.948019,354.036615 149.03747,354.17469" id="Fill-56" fill="#536A32"></path>
                <path d="M176.117798,371.590822 C180.464152,379.880868 182.054784,389.858118 184.797383,399.7766 C187.107878,408.129206 190.500977,416.151954 194.834209,418.830626 C196.335796,419.759536 196.422966,416.609774 194.884824,415.632522 C185.774071,409.84295 184.505877,381.787029 176.5649,371.178499 C176.358689,370.904566 175.744744,370.878026 176.117798,371.590822" id="Fill-58" fill="#536A32"></path>
                <path d="M200.180446,392.914712 C203.530981,398.201995 204.661408,406.252081 207.258642,412.748271 C209.793337,419.086862 213.239575,423.710112 216.508621,427.615513 C217.430587,428.71679 218.765684,427.276289 217.446695,425.518666 C213.174194,419.828734 209.722271,415.015211 206.812346,405.870574 C205.095386,400.475662 203.306412,394.639661 200.401225,392.079624 C200.077163,391.793254 199.808059,392.327556 200.180446,392.914712" id="Fill-60" fill="#536A32"></path>
                <path d="M130.02039,352.154971 C133.733875,362.337924 137.393846,372.612726 141.23156,382.650409 C144.152848,390.29067 147.461156,397.321735 151.62951,401.634846 C152.78866,402.833557 153.700308,400.818523 152.262121,399.376133 C147.744971,394.843711 144.359259,386.491159 141.101598,378.568793 C137.478895,369.757938 133.862882,360.940521 130.227756,352.149348 C130.162775,351.992831 129.930563,351.909418 130.02039,352.154971" id="Fill-62" fill="#536A32"></path>
                <path d="M189.050876,383.384902 C191.669607,390.981641 193.201629,399.330347 195.809364,406.86223 C198.669077,415.12352 202.51929,419.946444 206.183497,426.134186 C207.450714,428.27541 208.970824,426.031731 207.182243,423.876407 C203.027825,418.868312 198.79644,411.595858 196.101658,402.921926 C194.04644,396.303683 192.496092,388.615767 189.498021,383.264587 C189.369742,383.033358 188.834634,382.75701 189.050876,383.384902" id="Fill-64" fill="#536A32"></path>
                <path d="M146.42112,410.133231 C150.833139,412.018692 154.757555,410.820356 157.834564,406.614028 C158.555155,405.628535 156.721729,403.372785 156.167277,404.165845 C153.440241,408.070887 150.038818,409.799874 146.173386,409.166204 C145.77131,409.100115 146.159623,410.021464 146.42112,410.133231" id="Fill-66" fill="#536A32"></path>
                <path d="M165.098519,414.580701 C166.125003,414.963632 166.986092,415.202524 167.885428,414.76514 C168.698965,414.369913 169.499064,413.629522 169.948732,412.449112 C170.283657,411.570831 168.879866,410.586277 168.565615,411.181752 C167.694189,412.830286 166.57157,414.379575 165.039597,414.386601 C164.947596,414.386601 165.036496,414.557866 165.098519,414.580701" id="Fill-68" fill="#536A32"></path>
                <path d="M51.2275626,349.513315 C54.6156251,350.048273 57.8710083,352.977142 61.2893975,355.734159 C64.0785074,357.983013 66.8562448,359.579569 69.6282959,360.621766 C75.8367428,362.958394 81.8689156,363.11731 88.1711857,366.884187 C89.2402023,367.523549 89.2989603,365.336598 88.2081464,364.693541 C81.7438179,360.876772 75.6026584,360.679974 69.2539506,358.511502 C65.7739602,357.323324 62.4219107,355.114199 58.9220184,352.461587 C56.2466337,350.433553 53.5835692,348.609708 51.0778245,349.072599 C50.883544,349.108633 51.0986741,349.492989 51.2275626,349.513315" id="Fill-70" fill="#536A32"></path>
                <path d="M226.362727,431.970375 C226.666251,431.477814 227.391494,432.107615 226.730549,430.912874 C184.773309,401.350792 143.727586,397.009868 101.412924,372.10643 C91.5743943,366.316965 80.7278997,361.951602 71,359 C81.8238013,361.385722 94.6276008,371.562169 105.628221,379.119775 C119.020158,388.317682 132.147338,396.932788 145.460793,403.218573 C157.959178,409.119897 170.21739,411.85248 182.576778,416.580683 C190.154479,419.479645 197.663154,423.776388 205.237073,426.949831 C209.90151,428.904092 214.499758,429.788633 219.063966,432.012675 C222.85849,433.861656 225.105135,435.377877 226.362727,431.970375" id="Fill-72" fill="#698439"></path>
                <path d="M688.565613,62.691962 C659.153678,66.8199887 622.836997,80.0309941 599.087011,93.4550955 C566.044824,112.132106 541.344574,146.087907 516.69245,170.488335 C473.341742,213.39888 437.930973,273.716346 439.024673,326.434962 C439.31532,340.47195 444.978212,336.81066 453.774992,347.006263 C458.89245,352.937119 455.896336,366.245244 465.465972,368.66756 C469.061309,369.578404 477.899611,365.10056 482.03472,365.127904 C488.604468,365.170335 495.296891,369.255931 501.845878,369.7981 C514.959894,370.883381 524.531418,367.558707 532.96489,360.660433 C545.470247,350.433713 554.625617,338.03549 567.15834,327.624905 C584.72831,313.029718 600.674244,296.712793 615.936969,280.670251 C641.706384,253.584437 661.12498,224.501556 679.711269,194.715269 C695.278796,169.766072 705.909104,147.044953 705.449543,119.520689 C705.195699,104.281501 712.256149,79.1870965 698.192812,66.5399467 C694.311547,63.049322 690.020733,60.7901279 688.565613,62.691962" id="Fill-74" fill="#485828"></path>
                <path d="M540,358 C550.092678,352.917752 550.009711,340.898567 556.238793,332.965923 C561.982333,325.648995 571.265146,320.036836 578.269209,314.157835 C597.274179,298.204858 616.611015,280.506567 629.743281,262.188789 C658.859784,221.576067 695.721393,176.159255 704.157571,129.109334 C707.297096,111.595852 705.845183,90.1476355 700.281718,73 C700.195924,92.7868212 708.546306,111.156459 705.21445,131.752291 C701.404594,155.29941 696.449235,178.540085 687.130596,201.65724 C668.436751,248.023556 635.211523,288.649478 586.956172,321.529452 C573.093236,330.976398 556.268963,353.283599 540,358" id="Fill-76" fill="#698439"></path>
                <path d="M692.903882,113.003816 C673.52496,118.37379 646.175613,123.625127 633.517595,136.862142 C631.799505,138.658777 634.765222,142.640226 636.493725,140.263695 C647.490449,125.141779 673.480469,120.359294 692.944586,113.175602 C693.031674,113.143332 693.014635,112.972495 692.903882,113.003816" id="Fill-78" fill="#536A32"></path>
                <path d="M697.794984,136.084751 C689.923438,139.501846 684.443909,144.887362 676.154875,147.968039 C667.873432,151.046827 658.708622,152.576771 649.778175,154.231454 C634.366228,157.086278 619.256959,160.762301 609.664224,170.724419 C607.614738,172.852544 610.709842,178.121825 613.494676,175.073278 C623.847429,163.73903 642.32222,161.101554 658.88985,157.437816 C665.871387,155.893697 672.789353,154.156799 679.000435,151.277405 C686.630027,147.739351 691.692069,142.36045 698.572081,138.190195 C699.36341,137.710139 699.030369,135.548939 697.794984,136.084751" id="Fill-80" fill="#536A32"></path>
                <path d="M676.291824,178.044731 C668.029805,181.263163 659.897246,184.8041 651.436345,187.747314 C641.524173,191.195567 631.317432,192.694601 620.777658,194.628687 C603.58943,197.782807 589.35628,204.481647 577.98627,214.604149 C575.224446,217.062187 578.740518,223.499997 582.646848,219.960951 C595.796471,208.048119 612.063465,202.829398 631.337132,198.564953 C648.621986,194.740287 662.977093,187.792711 676.743998,179.287463 C677.196172,179.008463 677.051701,177.748707 676.291824,178.044731" id="Fill-82" fill="#536A32"></path>
                <path d="M527.695514,283.900876 C543.776631,272.569521 560.832991,263.752057 582.716426,262.072989 C602.60307,260.548448 619.966556,256.880315 636.385038,247.461703 C639.776654,245.515982 637.422652,237.913063 633.061463,240.549445 C623.863748,246.111476 613.61708,250.367566 602.434859,252.830576 C592.210871,255.083467 581.507767,254.976994 571.278109,257.126239 C552.959225,260.975282 537.874142,270.98185 527.107722,282.97654 C526.835561,283.278999 527.096382,284.322999 527.695514,283.900876" id="Fill-84" fill="#536A32"></path>
                <path d="M617.306943,276.045802 C606.89036,279.821305 597.123809,284.226683 586.232928,287.304824 C574.179926,290.712899 561.831196,292.969952 549.159339,294.72273 C530.518142,297.30222 510.50224,301.589496 506.145699,317.115173 C504.955232,321.357458 511.401704,324.483402 513.072136,319.278495 C518.51616,302.310291 550.665374,302.780823 568.606463,298.405439 C586.213087,294.112539 604.663431,287.116423 617.762344,277.277433 C618.133656,276.999051 618.131767,275.746799 617.306943,276.045802" id="Fill-86" fill="#536A32"></path>
                <path d="M579.984219,312.057922 C564.701007,317.765498 549.237334,323.911689 531.455201,323.111753 C515.901297,322.412391 502.986883,319.820747 491.25212,329.337099 C488.379928,331.666133 490.812363,339.376808 494.870853,336.274845 C508.860439,325.57861 524.836054,331.706176 542.206923,328.869616 C556.352276,326.560138 569.17266,319.984646 580.623434,313.760231 C581.310138,313.386803 581.034696,311.664938 579.984219,312.057922" id="Fill-88" fill="#536A32"></path>
                <path d="M632.566823,89.0058042 C624.922699,90.1438919 622.22881,94.6839649 619.719852,99.6566056 C615.405435,108.210681 610.242624,117.219992 607.484867,126.120688 C606.609782,128.946546 606.304742,131.603343 606.639333,134.48398 C607.376197,140.857272 607.047325,146.308759 605.387714,152.588548 C602.608986,163.096734 599.908424,173.616254 597.124929,184.123496 C596.005812,188.345282 602.739581,191.493205 604.012172,186.272168 C606.120764,177.621756 608.216011,168.969456 610.272175,160.312433 C611.899375,153.463128 614.355905,146.308759 613.39598,139.310228 C612.848814,135.323615 611.416077,131.693068 612.353123,127.639398 C613.422672,123.019045 615.696177,118.428915 617.417749,113.913398 C620.226981,106.547467 621.983824,93.3239264 632.745081,89.7462696 C633.139727,89.6149881 633.073,88.9302465 632.566823,89.0058042" id="Fill-90" fill="#536A32"></path>
                <path d="M582.247407,118.245304 C574.887399,130.801225 571.771364,144.623999 572.013001,158.392345 C572.129311,164.988426 573.20135,171.554479 574.85494,178.019183 C577.230736,187.313192 581.291679,197.015409 577.390324,206.409828 C575.688948,210.509739 581.417907,214.955924 583.33297,209.381771 C588.179233,195.282166 581.199713,182.197921 578.343348,168.345118 C574.881989,151.560723 577.446226,134.971517 583.063382,118.65445 C583.212151,118.220905 582.581912,117.674751 582.247407,118.245304" id="Fill-92" fill="#536A32"></path>
                <path d="M531.575845,271.875042 C542.439848,263.051961 534.551049,251.252475 528.948392,242.003922 C518.675014,225.048557 519.988741,206.758976 521.871933,188.593529 C522.36964,183.790156 515.595853,183.819532 515.172664,188.57742 C513.987734,201.916752 512.742086,215.673974 516.645546,228.835158 C518.276665,234.336909 520.752321,239.567648 524.198553,244.553907 C529.921727,252.834963 537.563972,261.255315 530.934621,270.897121 C530.733147,271.188981 530.947501,272.38485 531.575845,271.875042" id="Fill-94" fill="#536A32"></path>
                <path d="M478.206108,354.812564 C486.794294,347.143056 482.347177,336.8955 476.504906,329.018024 C471.127372,321.766325 464.819419,315.52355 462.79139,307.151449 C460.909773,299.387325 461.107191,291.501418 458.892134,283.750409 C457.251387,278.014438 450.492866,282.337729 452.306473,286.845567 C456.692191,297.74513 454.195647,309.443776 461.280051,319.860892 C468.710173,330.787622 486.430628,340.429075 477.268132,353.994746 C476.966809,354.441595 477.542063,355.405553 478.206108,354.812564" id="Fill-96" fill="#536A32"></path>
                <path d="M558.838791,144.040665 C548.547997,158.604449 544.879192,175.186732 545.835167,191.69443 C546.926285,210.543512 555.296058,229.440744 544.529998,247.482615 C542.294249,251.227885 547.647348,257.153096 550.991448,251.962399 C560.449618,237.27777 556.344547,220.599188 553.213592,205.117733 C548.966123,184.123642 551.273524,164.555151 558.995701,144.184169 C559.021097,144.117138 558.92949,143.914155 558.838791,144.040665" id="Fill-98" fill="#536A32"></path>
                <path d="M497.188256,199.198046 C489.984335,214.472519 493.106951,233.911634 498.794606,249.172808 C502.273767,258.508105 507.828666,267.38647 510.482842,276.894661 C513.683215,288.359778 512.129019,299.561755 508.101765,310.763732 C506.88989,314.130405 512.875299,318.691182 514.78035,313.97936 C521.937806,296.276779 519.566212,278.564698 510.860249,261.453944 C505.831633,251.569568 500.946205,241.882783 498.739607,231.37618 C496.470424,220.575088 497.931691,210.213829 497.870054,199.409888 C497.868157,199.107799 497.386442,198.780061 497.188256,199.198046" id="Fill-100" fill="#536A32"></path>
                <path d="M649.212856,81.1610998 C642.723955,87.3921573 641.335414,93.8379801 641.403213,101.76807 C641.488189,111.723635 645.320239,124.581873 636.079567,132.7525 C633.3287,135.183643 636.343534,141.410882 639.441537,138.003273 C654.935166,120.96427 635.099632,98.3833686 649.880006,81.9628903 C650.223526,81.5810853 649.776047,80.6208457 649.212856,81.1610998" id="Fill-102" fill="#536A32"></path>
                <path d="M666.697813,200.27999 C651.696919,218.233342 622.403826,222.52421 596.631506,226.918269 C579.990865,229.755083 553.922388,233.559077 553.004583,249.408271 C552.839,252.266661 557.202828,254.803283 559.12454,251.285409 C568.154976,234.754216 602.235789,234.47091 622.126593,229.225994 C641.752463,224.051437 659.207774,215.719235 667.922183,201.347548 C668.261865,200.787502 667.422595,199.412248 666.697813,200.27999" id="Fill-104" fill="#536A32"></path>
                <path d="M480.503961,230.421228 C478.937377,247.201576 481.118128,263.932687 485.726212,280.360801 C487.90788,288.138353 491.154714,295.792812 492.616798,303.678307 C494.563798,314.188512 492.534298,323.905245 488.442296,333.944858 C487.074629,337.299602 491.769797,343.05465 494.363965,338.017326 C502.519551,322.181003 500.958467,305.436636 495.171548,289.337084 C488.162713,269.837339 483.719628,250.447431 481.248294,230.304764 C481.185044,229.7802 480.542461,230.008395 480.503961,230.421228" id="Fill-106" fill="#536A32"></path>
                <path d="M687.301463,158.06318 C677.321269,162.836344 668.197708,167.793381 656.855591,170.747613 C645.397305,173.731076 633.497952,173.614152 621.889495,175.829119 C603.293863,179.37646 591.743964,191.95717 581.769437,203.180989 C579.260929,206.003209 583.411867,212.758434 586.681615,208.772625 C592.145363,202.109809 597.746058,195.303665 605.431195,189.898731 C615.118603,183.085987 625.826982,181.62443 638.457353,179.607481 C656.57414,176.715483 676.070794,169.843333 687.866255,158.896739 C688.177929,158.607256 687.926701,157.764268 687.301463,158.06318" id="Fill-108" fill="#536A32"></path>
                <path d="M469.417799,247.101187 C466.954857,262.597449 467.96074,278.358226 470.446478,293.837544 C473.262762,311.379328 483.83926,330.705884 478.470749,348.24955 C477.203659,352.390484 483.517264,355.402758 485.23173,350.359083 C490.713272,334.247187 482.076352,317.88019 477.940737,302.133533 C473.160179,283.937521 471.563493,265.579599 469.675206,247.140723 C469.661908,247.007995 469.446294,246.923274 469.417799,247.101187" id="Fill-110" fill="#536A32"></path>
                <path d="M593.50884,129.47655 C591.486069,150.241246 590.788886,171.107099 589.01484,191.89543 C588.66248,196.028705 594.699703,196.036268 594.94089,191.909611 C596.148712,171.183676 596.745085,150.028531 594.377491,129.34514 C594.309657,128.750485 593.554062,129.010469 593.50884,129.47655" id="Fill-112" fill="#536A32"></path>
                <path d="M449.078421,329.44877 C459.22877,338.453067 467.003906,347.728842 468.398768,359.744064 C468.894114,364.01745 474.548758,361.5248 473.956599,358.007941 C472.024095,346.535672 464.000816,333.90061 449.24103,329.014976 C448.935551,328.914359 448.968449,329.350051 449.078421,329.44877" id="Fill-114" fill="#536A32"></path>
                <path d="M651.403784,199.086579 C637.266355,211.188905 617.355179,214.649008 596.672715,214.836142 C581.810485,214.971295 566.402756,217.103497 560.347246,228.431766 C558.61683,231.666929 563.802388,236.730909 566.024228,232.199035 C573.095788,217.777371 600.779609,221.890556 616.660736,218.716826 C631.558067,215.739682 642.750752,208.73725 651.908489,199.829447 C652.173174,199.572373 651.82026,198.730266 651.403784,199.086579" id="Fill-116" fill="#536A32"></path>
                <path d="M454,375 C477.55955,339.345537 510.699247,291.649277 537.062627,254.719145 C574.453016,202.342905 589.329495,187.113351 624.307815,140.41096 C636.864959,123.643793 670.282862,92.3373891 679,75 C654.94933,131.566376 612.750888,184.075005 573.648678,235.846979 C544.473897,274.47643 525.923957,316.012782 492.560938,352.564658 C487.103738,358.543949 479.200401,365.241927 471.64435,369.154991 C465.700761,372.233999 455.454433,373.876578 454,375" id="Fill-118" fill="#698439"></path>
                <path d="M466.864303,365.471181 C470.232598,364.544362 483.342478,364.739532 491,366.123632 C457.094555,371.959856 443.107867,409.036383 431.229649,429.856337 C422.383649,445.361461 411.344689,460.230162 400.750704,475.240291 C389.743662,490.835928 382.08614,510.472609 369.329237,525 C372.283536,511.3042 361.636042,493.612614 366.116776,481.071802 C368.103207,475.511831 378.831435,468.198165 382.545197,462.548624 C388.716651,453.161636 393.908971,443.81802 400.806091,434.502688 C421.941489,405.951387 443.062806,379.950487 458.746785,350 C462.751565,355.047062 464.105267,361.743163 466.864303,365.471181" id="Fill-120" fill="#536A32"></path>
                <path d="M233,175 C230.155513,171.235605 223.452813,172.531622 219.12367,171.901076 C214.207284,171.184633 219.52935,166.076081 214.967579,164.306211 C206.87857,161.167642 195.521426,152.523126 186.804511,152.976213 C167.440629,153.980555 119.262132,144.809326 112.497964,143.139513 C96.9866217,139.309987 81.859209,133.164055 66.3705617,130 C81.038393,140.198225 102.164004,146.122333 119.35575,151.087408 C127.483531,153.434019 135.440151,156.545214 143.577388,158.719086 C150.21484,160.490844 156.931725,160.654144 163.401798,162.658108 C143.770299,168.973004 122.238063,165.403058 102.126178,163.767227 C91.0234121,162.863885 79.2445128,159.701718 68.3214183,157.0606 C61.2016902,155.339815 49.8918287,150.429488 43,152.165377 C45.0331273,157.909194 67.9980092,162.421182 74.123869,164.56768 C82.7991758,167.607136 91.7468271,168.864452 100.792825,170.059468 C115.28855,171.974703 129.594201,172.662828 143.966992,173.030961 C157.413056,173.374552 170.992455,172.457995 184.332607,171.838777 C193.795632,171.399849 203.020356,170.155749 212.345318,171.413064 C219.37521,172.36077 228.182907,173.893713 233,175" id="Fill-122" fill="#F4C55C"></path>
                <path d="M235.23561,151.921078 C245.693598,152.897902 231.078143,102.42203 230.745584,95.1516945 C229.48205,67.4617595 222.780362,37.2653998 215,11 C215.068608,35.2057396 221.442501,60.3163667 223.174859,83.4676664 C224.406948,99.9288566 226.044969,115.19268 228.967488,131.617902 C229.929909,137.02451 230.7837,153.267051 235.23561,151.921078" id="Fill-124" fill="#6557A4"></path>
                <path d="M76,114.003381 C86.0830577,113.790711 96.67515,123.673212 106.768635,125.845482 C115.55683,127.736724 124.125106,128.672851 133.075396,130.780561 C152.280317,135.303592 174.415269,136.277696 191.55751,146.013036 C199.673627,150.621515 216.930566,158.021285 221,166.018239 C211.267674,169.916553 192.177451,161.236966 182.920035,156.907617 C172.344057,151.961145 161.51688,147.73813 149.934208,145.450031 C129.932083,141.496651 112.470392,131.848657 94.2304564,125.219815 C87.2309925,122.675373 77.4635932,117.262736 76,114.003381" id="Fill-126" fill="#6557A4"></path>
                <path d="M241.973442,170 C233.516154,141.291885 256.561744,139.639356 275.772381,126.116266 C286.238723,118.748072 292.982461,104.700161 300.466377,94.0871028 C308.040927,83.3442502 314.385309,73.050976 319.654356,61.0684913 C325.931706,46.792969 332.794401,33.2059223 339,19 C325.633369,31.941836 311.751257,42.2924832 300.148214,57.8019944 C279.975534,84.7682284 258.838924,112.776581 241.21155,140.570491 C236.069957,148.67889 232.346409,164.179936 241.973442,170" id="Fill-128" fill="#D16027"></path>
                <path d="M312,17 C307.143227,37.8713051 305.422337,58.8430715 293.819941,77.4246176 C287.393349,87.718108 281.853474,97.9841136 273.150504,106.871146 C264.263622,115.943937 255.043634,125.834635 247.137302,135.271361 C240.444225,143.260876 238.219455,150.70354 235.077003,160 C233.884391,127.647676 246.651249,107.914617 265.992956,84.1233 C279.03662,68.0798229 288.393604,49.3466372 300.078573,32.3156067 C304.33951,26.1050144 309.340785,20.3038493 312,17" id="Fill-130" fill="#F4C55C"></path>
                <path d="M148.213096,67.8511093 C145.22703,65.8345933 142.132396,63.8908381 139,62 C166.487295,85.9052588 183.350122,123.150329 210.95448,148.462613 C214.004743,151.214297 218.430503,152.438948 222,154 C203.873075,136.204766 191.314225,115.474528 177.351555,93.9013969 C166.750688,86.964544 158.612878,74.8739523 148.213096,67.8511093" id="Fill-132" fill="#F4C55C"></path>
                <path d="M178.234962,72.7155556 C193.701017,97.1717172 210.720168,118.062357 225,142 C220.582471,127.52862 213.645746,114.222492 206.724073,101.011582 C207.835981,104.967407 209.105926,108.912862 210.651497,112.86303 C205.69871,98.8734007 190.976749,85.396633 182.550895,73.2057912 C179.163433,68.3043771 175.609467,63.170101 172,58 C173.391296,63.0984512 175.167338,68.0715152 178.234962,72.7155556" id="Fill-134" fill="#F4C55C"></path>
                <path d="M205.749356,72.9993721 C201.903479,60.0612398 196.924449,33.8208116 195.388568,21 C187.859234,36.8889838 195.88913,59.5196872 198.868759,75.6648996 C200.373296,83.8172839 203.869635,92.9823809 206.123591,100.893554 C211.895731,114.744911 216.87856,126.050877 224.576014,141.699588 C210.158485,117.868458 192.97409,97.0707744 177.356921,72.7234337 C174.260462,68.1000576 172.466226,63.149122 171.061421,58.073357 C164.254911,48.4615026 157.248936,38.7248189 150.754922,30.1350629 C158.160777,53.1824896 166.858406,77.0370831 181.796444,96.176321 C180.258663,95.4592565 178.779772,94.6173628 177.344573,93.6891211 C191.392616,115.117521 204.028257,135.706844 222.266018,153.381919 C218.673746,151.831408 214.221875,150.615026 211.152012,147.881922 C183.378868,122.740554 166.413884,85.7479141 138.758519,62.0031329 C133.83743,59.0701141 128.828006,56.267556 124,53.5410218 C143.79074,77.0089261 157.599425,104.657203 174.772422,128.587821 C186.50857,144.943272 195.588983,161.310924 217.687819,166.723634 C226.753984,168.944282 236.171587,169.99923 240.867566,167.746671 C242.537374,152.107346 227.992567,131.305908 221.136666,118.028015 C210.802473,98.0140332 210.192679,87.9479128 205.749356,72.9993721" id="Fill-136" fill="#D16027"></path>
                <g id="Group-140" transform="translate(0.000000, 159.000000)">
                    <mask id="mask-4" fill="white">
                        <use xlink:href="#path-3"></use>
                    </mask>
                    <g id="Clip-139"></g>
                    <path d="M282.261546,62.5939364 C287.154675,55.8701182 284.412258,41.2264364 281.769874,34.2000273 C278.499924,25.5003 273.066993,20.9337545 265.058682,17.2272545 C248.386182,9.50975455 234.001232,4.90789091 215.784825,7.12816364 C194.123881,9.76748182 172.317606,8.43398182 150.613252,9.75889091 C135.908384,10.6571182 122.752142,11.1840273 108.187887,10.6132091 C101.542291,10.3526182 95.7384834,9.66057273 89.2476556,8.98666364 C82.9351887,8.33089091 76.7189801,10.4032091 70.3300728,9.2253 C56.6944272,6.71198182 43.3060331,8.19534545 29.6968113,5.86148182 C20.0426722,4.20534545 9.27212583,1.19089091 -0.000754966887,0.288845455 C7.28750662,1.80275455 16.6670265,5.18184545 23.7033179,7.72475455 C33.7538146,11.3568 43.6580364,12.8592545 54.1077219,14.9430273 C80.1163311,20.1300273 105.810685,23.6351182 132.390238,25.7981182 C155.143053,27.6499364 176.894593,34.3470273 199.556811,34.9207091 C216.163252,35.3416636 232.23744,37.9151182 248.637209,39.8623909 C256.790851,40.8303 264.104593,39.7001182 270.899295,45.1601182 C274.944974,48.4122545 283.690321,58.5466636 282.261546,62.5939364" id="Fill-138" fill="#8776B5" mask="url(#mask-4)"></path>
                </g>
                <g id="Group-143" transform="translate(266.000000, 159.000000)">
                    <mask id="mask-6" fill="white">
                        <use xlink:href="#path-5"></use>
                    </mask>
                    <g id="Clip-142"></g>
                    <path d="M0.534315789,0.299202837 C1.21263158,7.41611773 6.98873684,15.5866567 9.08715789,22.8554369 C11.0548421,29.6714511 12.3442105,36.3054156 13.2783158,43.122373 C15.3975789,58.5975362 19.0667368,73.9887489 23.382,89.7817915 C30.888,117.246763 35.8285263,145.438047 42.2298947,173.231274 C46.5432632,191.957862 57.0495789,277.494784 62.8882105,301.0056 C68.4748421,323.500522 73.1131579,345.363458 80.4003158,367.253749 C83.7701053,377.378728 88.3970526,388.641281 89.6731579,399.000189 C106.021895,398.395557 108.613895,381.923366 106.931368,372.666189 C103.631684,354.50933 83.7644211,282.243167 81.5551579,273.002026 C79.0266316,262.419565 66.9874737,198.630501 63.6896842,177.508969 C60.2166316,155.267784 56.4186316,131.38438 50.7107368,109.561061 C46.5764211,93.755756 41.6605263,77.6967135 35.5888421,62.5016993 C31.3294737,51.8418908 28.1207368,40.4435078 23.4881053,30.0996922 C20.6516842,23.7685149 4.63357895,4.72027376 0.585473684,0.509550355 C0.893368421,2.62340142 1.63421053,1.05003972 0.534315789,0.299202837" id="Fill-141" fill="#698439" mask="url(#mask-6)"></path>
                </g>
                <path d="M477.564723,71.406253 C480.610744,70.0448511 483.633182,61.2795831 486.05849,57.4663315 C489.451657,52.1353584 493.450444,46.1307898 498.722731,42.4084878 C508.523957,35.4887387 524.001216,32.1956052 535.640054,32.0497069 C548.777848,31.8848607 561.625095,30.1407126 574.751569,29.904812 C586.319657,29.6982807 598.361298,29.065423 609.019071,24.2962532 C616.756285,20.8354313 621.459742,14.2813755 626.063205,7.38436385 C634.643759,8.12048721 642.670576,11.433516 651.05869,11.9981614 C660.271277,12.6196504 670.747929,12.4462777 680.010512,11.6855222 C700.511961,10.0029545 721.481302,10.4330704 741.623341,8.0068002 C749.933158,7.00540717 757.1855,5.06893853 766,6.5222374 C756.055387,7.47626085 744.911799,14.1790572 735.504885,17.6266156 C723.548144,22.0083022 709.683984,24.8675304 697.27067,26.2848283 C671.732768,29.1980578 648.149452,35.714218 623.503943,42.1053224 C612.932014,44.847074 603.226065,49.6200334 592.689982,52.2831515 C582.997239,54.7331064 572.899807,54.7776338 563.263664,57.5411754 C545.040364,62.7679355 526.70858,66.6844528 508.538107,72.709864 C504.019543,74.2086377 498.825554,75.1389763 494.506977,77.0347071 C490.786473,78.667063 484.738767,85.709973 480.540937,84.9416383 C474.532852,83.8407691 478.114686,73.1342955 477.564723,71.406253" id="Fill-144" fill="#8776B5"></path>
                <path d="M566,29.3615776 C574.625862,22.8850173 600.785074,25.388251 609.170753,17.4719285 C616.906525,10.1698035 624.909795,5.12637059 635.22824,2.50560532 C658.65596,-3.44395838 687.364878,2.80322568 711.045968,4.84296777 C721.911652,5.77942928 733.590192,6.55286308 744,7.21350446 C737.69308,13.6047595 717.022283,14.6009347 708.014954,14.8795983 C695.439732,15.2691587 682.312561,16.4994493 669.671406,15.3677336 C657.764929,14.3023665 645.516544,10.8076968 634.264683,13.7962223 C625.494711,16.1250542 617.672285,23.3096476 609.425064,27.3199398 C597.738048,33.0041095 575.180637,27.5995513 566,29.3615776" id="Fill-146" fill="#F4C55C"></path>
                <path d="M505,13 C496.975687,29.9073224 501.106876,52.5462291 498.607191,70.1078333 C497.296887,79.3188352 492.423161,85.3548684 489.116698,94.0798864 C483.711104,108.342662 467.827802,177.506489 461.310291,196.870204 C451.822633,225.058215 416.56346,387.155585 398.21637,434.820771 C383.407196,473.292919 386.111883,517.872012 370.748168,556 C365.701561,548.844502 362.610491,546.654738 360.950646,538.488507 C359.387162,530.800696 353.006634,533.007479 352.232921,525.005764 C350.095057,502.905788 363.237774,463.461673 368.600856,442.09351 C374.363549,419.133135 380.215043,395.860748 387.369283,373.446869 C394.181541,352.106125 435.503822,169.820569 444.402931,142.140288 C453.370057,114.248217 459.782706,90.7876765 470.46447,61.2447732 C473.590494,52.6020132 479.715952,37.9704947 486.062471,31.5770647 C491.905463,25.691365 500.546667,15.6407645 505,13" id="Fill-148" fill="#698439"></path>
            </g>
        </g>
    </g>
</svg>