<?xml version="1.0" encoding="UTF-8"?>
<svg width="278px" height="510px" viewBox="0 0 278 510" version="1.1" xmlns="http://www.w3.org/2000/svg" xmlns:xlink="http://www.w3.org/1999/xlink">
    <!-- Generator: Sketch 47.1 (45422) - http://www.bohemiancoding.com/sketch -->
    <title>hopeHeaderParadise</title>
    <desc>Created with Sketch.</desc>
    <defs>
        <polygon id="path-1" points="0.0977780488 0.318481132 22.7017293 0.318481132 22.7017293 120.734485 0.0977780488 120.734485 0.0977780488 0.318481132"></polygon>
        <polygon id="path-3" points="131.802 0.486520736 131.802 170.616651 0.29631492 170.616651 0.29631492 0.486520736"></polygon>
        <polygon id="path-5" points="65.5329859 372 0.103686498 372 0.103686498 0.115777846 65.5329859 0.115777846 65.5329859 372"></polygon>
    </defs>
    <g id="Symbols" stroke="none" stroke-width="1" fill="none" fill-rule="evenodd">
        <g id="hopeHeaderParadise">
            <g id="Page-1">
                <g id="Group-3" transform="translate(157.000000, 0.000000)">
                    <mask id="mask-2" fill="white">
                        <use xlink:href="#path-1"></use>
                    </mask>
                    <g id="Clip-2"></g>
                    <path d="M16.6852659,115.276928 C20.8471439,77.432466 22.6389,38.2415934 22.7017293,0.318366981 C18.2273878,18.2560462 16.7778268,39.256966 14.680339,58.4023623 C14.2489488,62.3411406 13.9392902,72.0319849 11.1966805,74.9747962 C8.02324146,78.3793481 3.46643659,75.8663151 0.0977780488,74.700834 C6.61070488,81.5053717 5.32550976,89.4126075 8.16292439,98.0709566 C10.4623634,105.088957 13.784461,114.283244 17.2726073,120.734485 C18.0994854,116.796277 16.4541439,112.687414 16.6852659,115.276928" id="Fill-1" fill="#6557A4" mask="url(#mask-2)"></path>
                </g>
                <path d="M156.916527,112.776734 C145.404472,102.824884 124.701304,104.848383 110.666411,102.179581 C99.0062223,99.9624307 87.8733648,95.873127 75.821396,96.0030219 C69.5420411,96.0703527 64.9281823,95.747999 59,98.4883032 C75.7087233,96.2967748 93.2187379,102.653875 106.400865,112.211275 C113.53413,117.38383 115.690924,114.257416 123.821084,111.655349 C130.413292,109.545451 138.842578,108.057024 145.737915,109.075923 C150.947165,109.846355 157.837355,113.127689 156.916527,112.776734" id="Fill-4" fill="#6557A4"></path>
                <path d="M235.482866,71.3753467 C234.305525,72.2976437 233.059232,73.1344259 231.753757,73.8983197 C221.001396,80.81526 208.841857,85.7343685 197.273574,91.7703345 C185.277219,98.4886969 177.898294,109.962025 172.000096,122.365112 C171.998946,123.256417 172.00814,124.137391 172.028825,125 C178.391869,118.358544 183.500002,111.633294 191.419619,106.11673 C199.563327,100.444632 207.943193,94.9579122 215.84155,88.9781909 C222.84584,83.6762746 231.5877,76.8276313 236,71 C235.828197,71.1251156 235.656393,71.251379 235.482866,71.3753467" id="Fill-6" fill="#F4C55C"></path>
                <path d="M237,71 C236.671193,71.28 236.334627,71.549 236,71.821 C236.292919,71.604 236.581959,71.385 236.872939,71.167 C236.913676,71.111 236.960233,71.055 237,71" id="Fill-8" fill="#F4C55C"></path>
                <path d="M196.954708,91.068634 C208.377083,84.9662633 220.383257,79.9930371 231,73 C211.943419,84.4190981 180.351899,79.8392739 173.772389,105.264174 C172.457281,110.345325 172.007375,116.393733 172,122 C177.823805,109.460461 185.109661,97.8609085 196.954708,91.068634" id="Fill-10" fill="#D16027"></path>
                <path d="M158,117.935201 C151.494827,114.457999 145.86673,115.982498 141,120 C146.536687,118.740047 152.080316,117.485324 158,117.935201" id="Fill-12" fill="#D16027"></path>
                <path d="M98.6825844,97.0488931 C95.7160842,96.224211 92.6282687,94.2752708 89.1541902,94.0723504 C88.8943926,94.0463495 88.6368839,94.0254357 88.3776584,94 C84.5064443,94.08309 80.6821539,94.1746585 76.9568614,94.2187471 C71.0650623,94.2888366 65.2848503,94.0067829 59.3386883,94.9354687 C55.9361399,95.4667923 52.4866678,96.5825718 49,97.1879416 C59.0531397,96.2038625 69.6327417,95.3203957 79.0953281,96.9601507 C88.4966847,98.5897315 97.5117782,102.314649 106.641892,104.809044 C122.020312,109.009892 137.105172,109.90862 151.956557,116.171455 C153.939946,117.007442 155.987426,117.555723 158,118 C144.666772,102.251908 118.974842,102.509091 98.6825844,97.0488931" id="Fill-14" fill="#D16027"></path>
                <path d="M48,97 C46.6553471,97.243 45.3205532,97.49 44,97.728 C45.338628,97.713 46.6723264,97.426 48,97" id="Fill-16" fill="#F4C55C"></path>
                <path d="M131.087371,96.6658594 C117.56963,93.6633045 102.436284,93.8511095 88,94.1697385 C88.2592522,94.1959033 88.5167875,94.2174166 88.7760397,94.2441628 C92.2510492,94.4528997 95.3391835,96.457704 98.3059901,97.3060246 C118.600343,102.922733 144.294926,102.658177 157.628958,118.85767 C163.586036,120.210099 169.234643,120.623503 172,125 C171.130675,110.397722 142.515643,99.2044254 131.087371,96.6658594" id="Fill-18" fill="#F4C55C"></path>
                <path d="M134.179812,117.581976 C136.623122,116.629622 139.30415,115.2796 142,114.269786 C136.534761,113.835708 131.072943,113.824329 125.656161,115.000265 C105.695242,119.335355 87.8606755,130.333512 70.0825458,139.9697 C64.4257645,143.036122 57.8420533,145.645141 52,149 C58.6469888,147.523111 65.4421951,146.697624 72.3582558,145.322 C94.8519851,141.214474 112.67629,125.588808 134.179812,117.581976" id="Fill-20" fill="#F4C55C"></path>
                <path d="M153.818652,115.221804 C150.218153,114.77148 146.607307,114.292975 142.998185,114 C140.279558,115.042731 137.576453,116.435388 135.111925,117.418819 C113.426724,125.681994 95.4518243,141.807925 72.7686243,146.046368 C65.7935561,147.46662 58.9409382,148.318536 52.2383651,149.842708 C49.630691,151.3751 47.1678878,153.057209 45,155 C57.2231847,152.701412 69.1278836,152.690844 81.1538831,148.824049 C93.846748,144.743542 106.713803,140.165154 118.305765,133.54886 C127.168752,128.490205 134.673864,120.391425 145.135029,119.280588 C154.291782,118.308311 162.806964,118.809715 164.134946,129.615133 C165.018543,136.807395 163.415767,141.300063 170.647808,135.397712 C175.029574,131.820956 177.816612,128.696872 178,123.971704 C175.196865,118.908351 159.581865,115.942204 153.818652,115.221804" id="Fill-22" fill="#D16027"></path>
                <path d="M93.4572261,141.07908 C90.6721502,143.038699 87.8617188,145.858104 85,149 C103.357413,140.59899 120.447049,129.961301 138,120 C121.718284,122.837914 106.616753,131.819966 93.4572261,141.07908" id="Fill-24" fill="#F4C55C"></path>
                <path d="M64,170 C70.0641105,167.446337 75.7038375,164.62643 82.7226662,163.543127 C99.5474754,160.947095 115.876688,153.224842 125.07591,138.70561 C127.81906,134.37698 131.097756,129.271373 135,125 C116.489815,134.33461 100.462245,148.768529 80.4536907,154.281806 C75.22561,160.345896 69.7919956,166.609813 64,170" id="Fill-26" fill="#D16027"></path>
                <path d="M137.880502,119.535517 C137.650856,119.573686 137.422362,119.617553 137.193292,119.658002 C119.662518,129.776987 102.593339,140.58189 84.2585177,149.115405 C82.8530169,150.685494 81.4337029,152.335341 80,154 C99.8905411,148.514373 115.823003,134.152842 134.224588,124.864477 C136.300609,122.589671 138.551597,120.54901 141,119 C139.960551,119.181164 138.921678,119.362328 137.880502,119.535517" id="Fill-28" fill="#F4C55C"></path>
                <path d="M182,102.694697 C168.222192,104.347018 158.26426,88.1726949 151.096091,78.661774 C141.46176,65.879603 129.714232,54.6081254 117.364415,44.4926968 C110.597006,38.9496492 103.626914,33.8378171 97,28 C97.0477916,28.3270099 97.1163122,28.6574741 97.1940455,28.9896654 C114.222836,47.1674994 127.046538,67.3494202 145.840164,83.9653215 C154.525572,91.3967359 162.845346,98.8638451 172.408278,104.709722 C176.556937,105.275081 180.896186,105.212327 182,102.694697" id="Fill-30" fill="#F4C55C"></path>
                <path d="M145.50756,83.1790637 C126.767464,66.501859 113.980287,46.2449001 97,28 C98.7379904,35.4761677 107.802871,43.9889905 111.236938,51.042753 C115.404785,59.6041149 118.463923,67.5477597 123.926507,75.5295424 C133.218756,89.1071828 149.359043,98.6243015 165.124402,102.598146 C166.715407,102.999171 169.318086,103.631912 172,104 C162.464306,98.1325548 154.16823,90.637896 145.50756,83.1790637" id="Fill-32" fill="#D16027"></path>
                <path d="M159.701167,98.7547884 C146.283665,91.0062131 132.661806,86.7222437 120.256408,77.7178058 C117.811532,76.257673 115.547104,76.499602 113.102228,75.0388986 C110.030622,73.0715136 107.525406,71.044217 105.586583,68.9558675 C99.7040801,62.8408836 94.2280132,56.4657119 88.2925714,51.0097563 C83.4990206,48.5294134 78.4772054,46.6150931 73,46 C82.5711631,49.8189407 89.6257262,60.7690812 97.4163137,67.5305405 C109.771049,78.2541579 122.471881,92.5924457 139.339534,95.6924464 C146.925765,97.0869617 154.236485,99.2112582 160.333021,104.438408 C165.416883,108.798266 172.970098,119.6748 174.139313,127 C173.904217,123.67747 174.827521,119.875647 175,116.180524 C171.601082,109.260441 167.040918,103.054734 159.701167,98.7547884" id="Fill-34" fill="#D16027"></path>
                <path d="M176.243,129 C176.201,128.355491 176.113,127.684008 176,127 C176.05,127.678227 176.128,128.346821 176.243,129" id="Fill-36" fill="#D16027"></path>
                <path d="M113.885504,73.9661784 C116.337854,75.4230544 118.609205,75.1817593 121.061555,76.6380661 C133.505449,85.6189096 147.168952,89.8916536 160.626903,97.6199252 C167.989093,101.908604 172.563768,108.09805 175.972507,115 C176.09698,112.352583 175.833188,109.759799 174.466838,107.44018 C164.848143,91.1117872 142.796973,81.6193299 127.514177,71.345509 C120.753227,66.8001699 112.825198,64.4185191 105.846134,60.1827661 C100.304793,56.8188623 94.8211204,52.9951321 89,50 C94.9535873,55.4416593 100.446395,61.8001261 106.346882,67.8990868 C108.292204,69.9819642 110.804507,72.0039486 113.885504,73.9661784" id="Fill-38" fill="#F4C55C"></path>
                <g id="Group-42" transform="translate(146.000000, 28.000000)">
                    <mask id="mask-4" fill="white">
                        <use xlink:href="#path-3"></use>
                    </mask>
                    <g id="Clip-41"></g>
                    <path d="M131.80223,0.486520736 C125.160908,5.4512398 119.003395,14.8791161 113.26656,21.462902 C107.399447,28.1965274 102.163638,32.8398351 94.8519861,37.8943435 C79.8057078,48.2950324 65.7563165,60.3759823 51.7442296,72.2487582 C44.9381948,78.0158619 38.5275861,82.1598953 30.7659861,86.6962565 C26.1953426,89.3670592 18.7901426,91.340708 15.9050817,96.1681696 C12.8943339,101.205521 14.3365774,106.530541 10.2095687,111.598775 C6.24727304,116.464554 2.15929043,120.008658 0.950629565,126.217845 C-0.502518261,133.686942 0.522490435,140.936999 3.45231652,148.160176 C5.78469913,153.910695 8.68123826,166.794029 13.0842991,170.616651 C13.1078296,155.074524 15.6290296,140.730541 27.5928209,129.836869 C39.2656383,119.207989 51.2472209,108.710076 61.8749426,96.9568284 C82.0738122,74.6187381 98.8636383,49.3622097 116.605012,25.6801395 C122.153603,18.2739522 128.419586,9.59412943 131.80223,0.486520736" id="Fill-40" fill="#8776B5" mask="url(#mask-4)"></path>
                </g>
                <g id="Group-45" transform="translate(141.000000, 138.000000)">
                    <mask id="mask-6" fill="white">
                        <use xlink:href="#path-5"></use>
                    </mask>
                    <g id="Clip-44"></g>
                    <path d="M5.15186897,2.95327938 C4.02133448,11.6460609 5.5785931,21.6557225 7.33954138,30.2168732 C8.92297241,37.9189902 13.3153862,43.9528302 16.387231,50.7993471 C19.9865069,58.8202394 20.8194724,69.2282271 22.2509897,78.1030025 C24.901231,94.5345286 25.8553862,111.442787 26.9603172,128.131852 C28.251869,147.646972 33.6092483,166.420953 34.7039379,185.976135 C35.675731,203.339378 37.0446621,220.51147 40.3224724,237.557082 C45.8511103,266.307532 54.338369,294.470221 58.6642138,323.394079 C59.6030069,329.671722 60.6851793,336.273292 62.2560931,342.447919 C63.3320069,346.680135 65.9577828,351.644332 65.4741621,356.206196 C65.0167138,360.520252 61.697369,371.797002 56.9169207,372.000172 C52.9648862,363.805298 51.7507138,351.680387 49.6870759,342.700307 C46.7438172,329.888055 46.0274897,316.683772 42.6330414,303.948209 C33.9062483,271.201335 30.8315586,237.044295 24.6873,203.59291 C19.4533862,175.098855 14.7116276,146.200178 11.5441966,117.361021 C10.0256276,103.528916 5.24290345,90.4184917 3.79716207,76.6144302 C2.73888621,66.5149163 1.69597241,56.5018209 1.18504138,46.5442394 C0.393041379,31.107384 -2.2077,13.6663071 5.30776552,0.115777846 C5.14845517,2.083944 4.79854138,4.26901477 5.15186897,2.95327938" id="Fill-43" fill="#698439" mask="url(#mask-6)"></path>
                </g>
                <path d="M97.328007,259.074857 C91.8712364,244.3077 90.0849869,229.663103 89.4626044,213.946242 C89.1957004,207.194564 88.6052047,200.674897 89.3994214,193.948302 C89.9869646,188.968911 91.7295174,182.96571 90.5756888,178 C89.8074539,183.291778 94.7115206,189.626749 96.6566134,194.536594 C98.7794454,199.893928 98.8568003,205.150363 98.4121571,210.798423 C97.4502396,223.014605 98.5627335,234.740543 98.3979852,246.930502 C98.3348022,251.590094 98.5739529,257.506078 100,261.962163 C96.0360024,262.568126 95.8458628,255.645433 97.328007,259.074857" id="Fill-46" fill="#F4C55C"></path>
                <path d="M105.067994,266 C101.397603,262.59768 99.5496884,254.806178 99.2890923,249.897715 C98.9985362,244.424593 102.261922,239.376545 103.917075,234.322178 C108.421826,220.564697 104.536627,208.02155 102.376675,194.191691 C101.772386,190.319492 100.958377,185.932033 100.831188,182.036856 C100.732828,179.019401 101.765038,175.913484 100.640122,173 C96.5559427,176.213908 96.3264372,188.031556 95.7153649,192.985973 C94.6192786,201.873478 94.130873,210.716753 94.4123845,219.611726 C94.81091,232.190487 91.8968694,244.506736 97.467181,256.256027 C99.4897682,260.521133 102.314494,262.663739 105.067994,266" id="Fill-48" fill="#D16027"></path>
                <path d="M95.6191038,258.73092 C91.5122246,254.291381 89.915457,247.63697 86.4839338,242.949093 C86.7812749,244.268567 86.8896084,245.494698 86.8221881,246.769805 C84.3898691,247.118975 77.3954395,242.614903 76.3368823,240.556755 C79.0354252,239.903356 84.9661115,244.349233 85.7768844,238.779787 C79.4681832,239.935046 68.1352249,235.285774 62.1492193,233.02596 C56.8581621,231.028887 52.1064676,228.710301 46.6967044,227.058366 C42.4768817,225.770007 36.2909201,224.957004 33,222 C37.1195566,223.257245 41.2540954,226.365787 45.1719672,228.28104 C48.1050407,229.715176 50.744807,231.520377 53.5228713,233.228202 C57.744999,235.823359 62.1797602,237.763389 66.1984743,240.46226 C73.0056252,245.03317 80.8672996,248.130188 87.637571,252.628498 C90.6323025,254.618656 92.9292045,257.220727 96,259 C95.926241,257.830336 95.3799632,257.015604 95.6191038,258.73092" id="Fill-50" fill="#6557A4"></path>
                <path d="M122.755802,270.023722 C120.296675,267.712197 118.793268,264.514133 116.143341,262.322521 C113.536517,260.166418 109.963627,258.671582 106.933826,257.237866 C100.310446,254.103833 94.6209478,252.34123 87.157361,251.814428 C76.3455909,251.051294 65.5378436,250.300383 54.7835432,249.250854 C45.0470307,248.301447 35.8455609,245.073695 26.329732,243.492708 C17.5138837,242.027559 8.56010821,240.576963 0,238 C5.12744448,238.162988 10.8813084,242.623631 15.7558863,244.918274 C21.2407922,247.500476 26.7354679,250.509357 32.0686538,253.355833 C37.49609,256.253533 42.480435,257.395616 48.4216501,258.87881 C54.035288,260.279928 58.9299803,262.768411 64.589594,263.940763 C68.8279826,264.818572 72.6163836,264.923932 76.6363874,266.134703 C81.5644121,267.619061 86.1550898,270.32525 91.1492047,271.605291 C101.055253,274.144999 111.027391,275.911677 119.827148,281.168052 C123.492564,283.356752 131.744634,289.235394 128.084391,279.835039 C126.174673,274.930254 122.349492,270.95683 122.755802,270.023722" id="Fill-52" fill="#8776B5"></path>
                <path d="M117.234791,245 C116.425909,258.96846 128.532206,272.958144 134.662173,284.788774 C138.691681,292.566301 143.242291,303.347232 145.731426,311.734503 C147.849082,318.868444 165.54246,380.90167 168.391034,390.917409 C174.73655,413.231268 180.758169,430.667178 187.425862,452.706279 C193.27206,472.029354 198.257209,489.640214 205,508.439587 C201.101197,508.312246 196.584983,508.418363 192.653503,509 C192.635732,506.761215 191.84634,504.099108 191.254153,501.838525 C189.732697,496.035351 168.117585,426.550979 164.282988,415.653033 C160.072899,403.68818 155.36808,392.141485 151.884897,379.870326 C145.827162,358.533319 128.720811,296.710607 123.64394,288.107086 C120.508158,282.793771 118.350373,277.46038 117.407345,271.309026 C116.637445,266.285956 115.712189,261.067286 116.085387,255.967926 C116.334186,252.576765 117.689394,249.128244 117.234791,245" id="Fill-54" fill="#698439"></path>
            </g>
        </g>
    </g>
</svg>