<svg width="175" height="144" xmlns="http://www.w3.org/2000/svg">
  <g fill="none" fill-rule="evenodd">
    <path d="M21.3 64.3c-3.8 3.8-7.2 6.8-8 5.6-1-1.2-.9-4.5 2.5-6.8 3.3-2.3 5.2-5.3 7.5-4 2.4 1.2-2 5.2-2 5.2M37.5 68c-.2-1.2.8-4 2.4-6 1.6-2 4.5-.8 5.6.7 1 1.5-.4 2.6-2.8 6.2-1.9 2.9-5 .3-5.2-.9m32.1 1.2c3.3-.9 6.8-1.6 7.3 1.6.4 3.2.4 8.4-2 8.5l-3.7.3c-1.4-3-4.8-9.6-1.6-10.4M92.7 88c.2-2.9-2.4-6.9.3-6.2 2.7.8 2.7 0 2.8 3.8 0 3.7 1 11.2-1.2 9-2.1-2.3-1.9-6.6-1.9-6.6m-9-8.2c-1.2 3.8-3.4 3-3.2 2 .5-2.7.6-8.2 2.7-7 2 1 1.6 1.1.4 5m27 13c-.3-3.4.8-6.5 3-3.6 2 3 2.6 4-.1 6-2.7 1.8-3-2.4-3-2.4M48.4 48.2c-1.5-1.2 2.9-4.8 3.3-5.3 0 0 1.8-2.4 4.3-1.4s.3 3.5-1.4 7.4c-1.6 4-4 .8-6.2-.7m25.2 10.2c-1.6-2 5.2-4.3 9.4-5.2 5.9-1.3 3 .8 1.8 4.2-1.3 3.4-2.5 3.5-5.6 4.7-3.2 1.3-4-1.8-5.6-3.7M45.6 31.1c-3.4 14-4.5-.8-4.2-3.9.4-3.1 1.9-8.7 3.1-12.1 1.3-3.4 8.9-8.2 8.9-8.2l1.3-.8.7.8c.7.7-3 5-5.5 10.3-2.5 5.4-2.5 6.6-4.3 14m11.9-.6c.7-1.9 7.2-9.4 12.2-16.3 5-7 10.5-8.8 15.8-8.6.7 0-.4 3.2-6.5 5.5-6 2.2-5.2 5.3-7.4 8.9a93.8 93.8 0 0 1-10 14.1c-2.7 2.3-4.8-1.8-4.1-3.6m2.2 102.8a89 89 0 0 1-9.2-21.6c-2-7.8-1.3-14.8-.4-23.9.8-9.1 1.1-10.9 3.8-18.6 2.8-7.8 3-5 6.6-2.4 3.5 2.6-2 7.8-4.8 13.7-2.8 5.9 0 14 1.7 30 1.7 16.1 10.6 24 12.6 27.2 2 3.2 6 3.6 11 3.7 5 .1 3.3-1.5 3.3-1.5s-3.9-3.2-7.2-6.9c-3.3-3.6-4.2-11.1-7.3-15.7-3-4.6-.3-18.3.3-25 .5-6.7 6-2.3 7.5 1.8a92.7 92.7 0 0 1 1.4 22.2 46.8 46.8 0 0 0 5.8 20.9c2 2.5 7.8 3.8 13.2 5.3 5.4 1.4 16.3 1 23.9 1.4 7.6.4-3.6-3.8-7.5-7-4-3.3-7-9-13.3-23.4-5.2-12-2.6-7.7-1.5-14.9 1.7-11.5 8.7 4.3 11 9.6 2.3 5.3 5.4 14.4 8 22.4 2.5 8 9.6 9.3 23.5 8.3 14-1 9.8-3.2 3.9-5.7-6-2.4-5.7-3-10.1-9.8-4.5-6.9-4.6-5.5-6.8-14.8-2.1-9.3 11.6 3.7 15.5 9.5 3.9 5.8 9.2 8.6 13.7 10.3 4.5 1.7 7-5.8 11-8.4 4-2.7 7.4-4.5 4.8-8.6-2.7-4-2.3-6-2.2-12.6.1-6.6-.6-11.8-5.7-13.8-5-2-12.7-1.6-17.6-2-4.8-.4-13.3 3.8-20.3 4.5-7 .6 3.7-6.1 8.5-8.3 4.9-2.2 17.5-1.5 26.3.7 8.9 2.2 6-1.5 5-5.7s-.3-6-5-8.6c-4.7-2.5-17.6-1.3-23.3-.3-5.7 1-18.3 4.9-25.6 8-7.4 3-10.1 1.1-11.8-2-1.6-3 9.8-5.8 13.7-7.7 4-2 22.3-7.6 27.1-7.2 4.9.4 8.6 1.3 9.6-.4 1-1.6-5-7.8-7.5-12.1s-4-3.7-8-4.8c-4.1-1-12.6 3.2-16.8 4.3-4.1 1-9 4.4-21.3 10-12.3 5.5-9.1.2-7.3-2.9 1.9-3 7.6-.5 25-9.7 17.2-9.1 21.5-3.3 20.6-9.3-.3-2.3-11-10.3-14-11.2-3-.9-9.8-.5-7.7.6 2 1.1 2.4.8 3.6 4 1.2 3.3-9.3 2.4-13.6 3-4.6.8-8.7 1-16.7 5.6-4 2.3-8.3 6.9-14 9-5 2.1 1.3-5.2 3.5-8a77.7 77.7 0 0 1 24.2-18 20.5 20.5 0 0 1 18.5 1.1s-1-2.4-3.7-4.2c-2.8-1.9-15.3-9-24.6-11.8-9.3-2.8-6.4 2.1-6.4 2.1S81 2.2 77.2.6c-3.7-1.7-13.7.7-17.9 1-4 .4-7 1.4-12.9 2-5.8.5-11.8 7.2-16.3 13.3A20 20 0 0 0 27.6 35c1.7 5 11.8 11.6 13 13l.4.5v2.2c-.2 2.1-2.3 1-8-.6s-6.8-3.6-17.6-3.2c-10.9.4-6 6-12.5 16.6-6.4 10.5-.3 11.6 0 17.6.2 6-1.6 3.5-1.8 6.1-.1 1.4 4.4 3.1 3.3 6.2-1.1 3.1 5.3 7.3 10.4 11.2a26.8 26.8 0 0 0 10.9 4.7s-1-11.2-1.3-18c-.2-6.7 4.6-9.4 7.3-13.8 2.7-4.5 3.6-4.7 6.2-2.6 2.6 2.2-4 15-8.7 25.3-4.7 10.4-.6 11.5.3 16.4 1 5 4.4 5 10.7 8.7 6.4 3.8 20.8 9 19.5 8z" fill="#4C6231"/>
    <path d="M50.3 69.4c-.8-5.6-2.7-17.4-10.9-20.2-8.2-3-14.5-5.8-18.1-3.1-3.7 2.6-9.3 2.9-11.5 6-2.2 3-5.2 7.8-4.4 8.9.8 1 3.9 1.3 9.3.8a38 38 0 0 1 16 1.6c3.2 1.5 9.2 1.9 10.4 5 1.3 3-3.5 2-7.3.7-3.9-1.4-10-3.1-14.7-3.1-4.8 0-16.7.8-17.2 2.7C1.3 70.7 0 77.8 0 81c0 3.2.6 7.1 1.4 9 .8 1.8 6.3-3.3 9.4-6 3-2.5 6.3-5.5 12.3-7 6-1.5 16.3-.7 18.8.8 2.4 1.6 4.3 2.4 4.1 3.1-.2.7-4.9-1.4-8.6-1.1-3.8.2-9-1.8-16.2 3.8C14 89.3 11.5 91 9.1 93.7a21.7 21.7 0 0 0-4 5.6c-.7 1.6-.3 3.9 2.4 9.4 2.6 5.6 5.5 7.5 5.5 7.5s2-.5 4.7-6.1c2.6-5.7.2-9 8-13.2 7.7-4.2 9.7-5.5 13.8-5 4.1.3 8.7-.8 6.4 1.5a21.5 21.5 0 0 1-11.3 5.3c-4.3.6-10.7 3.6-12.2 6.9-1.5 3.3-7 10.5-6.7 12.4.2 2 2.9 4.9 7.1 8.5 4.3 3.6 5.9 3.5 8.2 6.6 2.3 3 2.8 6.1 4 7.5 1.1 1.4-1.2-1.6 5-1.2 6.3.5 6.2 2.6 13.3.9 7-1.7 8.5-1.3 13.5-3 5-1.8 5.6-2.1 5.1-6-.4-3.9 1.5-6-.5-10-2-4.1-2.5-7.2-6.4-12-4-4.9-6-9.5-4-8.6 2.2.9 4.5 4 6.6 7.5 2.2 3.5 4 6.5 5.1 10 1.2 3.5.6 11.9.6 13 0 1 1.1 1.6 3.4-1.8 2.3-3.3 3.2-6.8 2.2-10.5-1-3.8-3.4-12.4-5.4-14.6-2-2.2-6.2-6.9-7.9-9.5-1.6-2.6-4.8-7.2-.7-6 4.2 1.1 8.5 5.6 11 10.6 2.6 5 4.4 9 5.2 13.7.7 4.8-.3 10 2.5 5s5.4-10.7 4-15.1c-1.4-4.4-6-9.5-8.2-10.3-2-1-7.7-1.7-7.3-4.8.3-3.1-1-6 2.8-3.5 3.8 2.4 6.5 4.3 9 7.2 2.7 2.8 5.2 6.2 4.6 2.6-.5-3.6 0-7.7-3.5-12-3.5-4.2-5-8.6-9.6-9.9-4.6-1.3-5.6-2.7-9.4-.3-3.9 2.4-2.7 3-7 4.1-4.3 1.2-7.8-1.2-8.7-6.7" fill="#637D38"/>
  </g>
</svg>
