<svg xmlns="http://www.w3.org/2000/svg" viewBox="0 0 217.3 103.2">
                        <title>Lifestyle a sunshine state of mind</title>
                        <desc>The Text 'Lifestyle a sunshine state of mind' in a cursive script font</desc>
                        <path id="lifestyleTitle" class="lifestyleTitle" d="M127.9,88.7a2.4,2.4,0,0,1-.5,2.2,3.9,3.9,0,0,1-2.4,1.2,5.6,5.6,0,0,1-2.6-.1l-.3-1.3a3.5,3.5,0,0,0,1.4.3h1.2a2.7,2.7,0,0,0,1.5-.8,1.1,1.1,0,0,0,.3-1.1,1,1,0,0,0-.4-.7l-1.4-.7a3.8,3.8,0,0,1-1.7-.8,2.4,2.4,0,0,1-.7-1.3,2.3,2.3,0,0,1,.4-2,4.2,4.2,0,0,1,2.1-1.1,6.7,6.7,0,0,1,2.8.1l-.2,1.2h-.5a6,6,0,0,0-1.9,0,1.7,1.7,0,0,0-1.1.6,1.2,1.2,0,0,0-.3,1,1.2,1.2,0,0,0,.5.7,3.1,3.1,0,0,0,1.3.6l1.4.6a1.6,1.6,0,0,1,.7.7,2,2,0,0,1,.4.8m4.7.8h-.7a1.6,1.6,0,0,1-.4-.7c0-.2-.1-.6-.1-1.1l.2-5.1,2.2-.5V81l-2.2.4V79.3h-.8l-.6,2.1-1.4.9V83l1.4-.3v5.1a5.3,5.3,0,0,0,.1,1.3,1.5,1.5,0,0,0,.8,1.3,1.7,1.7,0,0,0,1.6.2l.7-.2.6-.3-.2-1.1a3.4,3.4,0,0,1-1.1.5m5.8-9.6a3.9,3.9,0,0,0-2.1,1.3,6.2,6.2,0,0,0-1.1,2.6,8.6,8.6,0,0,0,0,3.2,3.6,3.6,0,0,0,1.1,2.1,2.1,2.1,0,0,0,1.9.5,4.1,4.1,0,0,0,2.7-2.5h.1v1.8l1.1-.3.2-9.3-1.1.2-.2,1.5H141a2.3,2.3,0,0,0-1.2-1,2.2,2.2,0,0,0-1.4-.2m0,8.5a1.4,1.4,0,0,1-1.1-.3,1.9,1.9,0,0,1-.7-1.3,7.7,7.7,0,0,1-.1-2.6,5.1,5.1,0,0,1,.8-2.1,2.2,2.2,0,0,1,1.5-1,1.5,1.5,0,0,1,1.3.2,2.3,2.3,0,0,1,.7,1.3,10.4,10.4,0,0,1,0,2.5,6.3,6.3,0,0,1-.9,2.2,2.9,2.9,0,0,1-1.5,1.1m9-1.7a.8.8,0,0,1-.7-.2.6.6,0,0,1-.3-.6,3.4,3.4,0,0,1-.1-1.1V79.7l2.2-.5v-1l-2.3.4V76.4l-.8.2-.7,2-1.4,1v.6l1.4-.3V85a5.3,5.3,0,0,0,.1,1.3,1.7,1.7,0,0,0,.8,1.3,2.3,2.3,0,0,0,1.7.2l.6-.2.7-.3-.2-1.1-1.2.5m6.4-.1,1.3-.4,1.3-.7-.3-1.2-1.2.8-1,.3a2.3,2.3,0,0,1-1.7-.3,2.4,2.4,0,0,1-.8-1.6v-.6h.3a7.1,7.1,0,0,0,3.7-1.6,2.5,2.5,0,0,0,.9-2.5,1.8,1.8,0,0,0-.9-1.4,2.6,2.6,0,0,0-2-.2,4.5,4.5,0,0,0-2.1,1.2,8.3,8.3,0,0,0-1.2,2.5,8.1,8.1,0,0,0,0,3.1,3.5,3.5,0,0,0,1.3,2.3,3.4,3.4,0,0,0,2.5.4m-.4-8.3c.5-.1.8-.1,1,.1a1.2,1.2,0,0,1,.5.7,1.7,1.7,0,0,1-.8,1.6,9,9,0,0,1-2.7,1h-.1a4.8,4.8,0,0,1,.7-2.3,2.4,2.4,0,0,1,1.4-1.1m12.5-3.5a3.6,3.6,0,0,0-2.1,1.1,4.6,4.6,0,0,0-1.2,2.4,10.6,10.6,0,0,0-.1,3.1,4.1,4.1,0,0,0,1.4,2.3,3.3,3.3,0,0,0,2.6.5,4.3,4.3,0,0,0,2.2-1.2,6.7,6.7,0,0,0,1.2-2.4,7.6,7.6,0,0,0,0-3,3.6,3.6,0,0,0-1.4-2.4,3.3,3.3,0,0,0-2.6-.4m2.5,2.9a5.4,5.4,0,0,1,.1,2.5,3.6,3.6,0,0,1-.7,1.9,2.2,2.2,0,0,1-1.4.9,2,2,0,0,1-1.6-.3,2.2,2.2,0,0,1-.8-1.5,7.1,7.1,0,0,1-.1-2.5,3.7,3.7,0,0,1,.8-1.9,2.4,2.4,0,0,1,1.5-.9,1.7,1.7,0,0,1,1.4.3,2,2,0,0,1,.8,1.5m3.3,9.5a2.5,2.5,0,0,0,1.6-1,5.5,5.5,0,0,0,.5-2.5l.2-9.3,1.9-.3V73l-1.9.4v-1a3.9,3.9,0,0,1,.4-1.5,1.4,1.4,0,0,1,1-.6h1.2V69.2h-1.6a2.5,2.5,0,0,0-1.8,1,4.2,4.2,0,0,0-.6,2.5v.9l-1.5.8V75l1.5-.3v9.2a5.7,5.7,0,0,1-.3,1.5,1.3,1.3,0,0,1-.9.7h-.9l.2,1.1h1.1m16.7-7.3V75.6a7.8,7.8,0,0,1,.3-2.2,3.8,3.8,0,0,1,.9-1.5,2.5,2.5,0,0,1,1.2-.7c.4-.1.7-.1.9.1a1.1,1.1,0,0,1,.5.8v7.1l1.4-.3V73.2a6.6,6.6,0,0,0-.1-1.5A1.9,1.9,0,0,0,191,70a3.4,3.4,0,0,0-1.5.7,14,14,0,0,0-1.2,1.8h0a2.4,2.4,0,0,0-.9-1.4,1.9,1.9,0,0,0-1.5-.3,3.7,3.7,0,0,0-1.4.7,5.6,5.6,0,0,0-1.1,1.7h-.1l-.2-1.7-1.1.2-.2,9.3,1.4-.2V76.8a8.5,8.5,0,0,1,.3-2.3,3.5,3.5,0,0,1,.9-1.6,1.7,1.7,0,0,1,1.2-.7c.4-.1.7-.1.9.1a2.2,2.2,0,0,1,.5.8v7Zm9.5-11.1-1.3.3-.2,9.3,1.3-.3Zm-1.4-2.1a1.1,1.1,0,0,0,.3.5.7.7,0,0,0,.6.1.7.7,0,0,0,.6-.4,1.1,1.1,0,0,0,.1-.8c-.1-.5-.4-.7-.8-.6l-.7.4a1.9,1.9,0,0,0-.1.8m11,9.6V70.6a6.6,6.6,0,0,0-.1-1.5,2,2,0,0,0-.9-1.5,2.5,2.5,0,0,0-1.7-.3,4.1,4.1,0,0,0-1.5.7,8.3,8.3,0,0,0-1.2,1.7h-.1V68.1l-1.2.2-.2,9.3,1.4-.3v-4a8.8,8.8,0,0,1,.3-2.4,6.2,6.2,0,0,1,1-1.6,2.6,2.6,0,0,1,1.3-.8,1.5,1.5,0,0,1,1,.2,1,1,0,0,1,.4.8,3.5,3.5,0,0,1,.1,1.2v5.8Zm5.7-10.5a2.8,2.8,0,0,0-2,1.2,4.9,4.9,0,0,0-1.2,2.5,9.1,9.1,0,0,0,0,3.3,3,3,0,0,0,1.1,2.1,2.1,2.1,0,0,0,1.9.5,2.7,2.7,0,0,0,1.4-.7,10.6,10.6,0,0,0,1.3-1.8h0l.2,1.8,1.1-.2.3-13.2-1.4.2v3.1a8.8,8.8,0,0,0,0,2.3h-.1a2.3,2.3,0,0,0-2.6-1.1m0,8.4c-.9.2-1.5-.4-1.8-1.6a8.2,8.2,0,0,1,0-2.7,6.5,6.5,0,0,1,.7-2.1,2.4,2.4,0,0,1,1.4-.9,1.6,1.6,0,0,1,1.4.2,1.9,1.9,0,0,1,.7,1.3,5.3,5.3,0,0,1,0,2.5,6.3,6.3,0,0,1-.9,2.2,2.9,2.9,0,0,1-1.5,1.1M143.4,62a2.8,2.8,0,0,0-2.1,1.2,5.7,5.7,0,0,0-1.2,2.6,9.1,9.1,0,0,0,0,3.3,3.5,3.5,0,0,0,1.1,2,1.9,1.9,0,0,0,1.9.5,3.9,3.9,0,0,0,2.7-2.4h.1v1.7l1.1-.2.2-9.3-1,.2-.3,1.5h-.1a2.6,2.6,0,0,0-1.1-1,2.3,2.3,0,0,0-1.4-.1m-.1,8.4a1.1,1.1,0,0,1-1.1-.3,2,2,0,0,1-.7-1.3,7.6,7.6,0,0,1,0-2.6,4.9,4.9,0,0,1,.8-2.1,2,2,0,0,1,1.4-1,1.5,1.5,0,0,1,1.3.3,1.6,1.6,0,0,1,.7,1.2,7,7,0,0,1,0,2.5,6.3,6.3,0,0,1-.9,2.2,2.6,2.6,0,0,1-1.5,1.1m15.9-4.6a1.9,1.9,0,0,0-.4-.9c-.2-.2-.4-.5-.7-.6l-1.4-.6-1.4-.7c-.2-.1-.3-.4-.4-.7a1,1,0,0,1,.3-1,1.7,1.7,0,0,1,1.1-.6,5.4,5.4,0,0,1,1.8,0l.5.2.3-1.2a5.4,5.4,0,0,0-2.8-.1,3.1,3.1,0,0,0-2.1,1.1,2.5,2.5,0,0,0-.5,1.9,2.3,2.3,0,0,0,.7,1.3,7.4,7.4,0,0,0,1.8.9l1.4.6a1.5,1.5,0,0,1,.4.8,1.1,1.1,0,0,1-.3,1.1,2.6,2.6,0,0,1-1.5.7h-1.3a3.1,3.1,0,0,1-1.3-.3l.2,1.3a4.6,4.6,0,0,0,2.6.1,3.9,3.9,0,0,0,2.4-1.2,2.3,2.3,0,0,0,.6-2.1m2.2-7.1-.2,5.8c0,.6.1,1.1.1,1.4a2.7,2.7,0,0,0,.9,1.5,2.7,2.7,0,0,0,1.8.3,3.7,3.7,0,0,0,1.4-.7,8.4,8.4,0,0,0,1.3-1.7h.1v1.7l1.1-.2.2-9.3-1.3.3v4a8.6,8.6,0,0,1-.4,2.4,4.4,4.4,0,0,1-1,1.6,2.6,2.6,0,0,1-1.3.8c-.8.1-1.3-.2-1.4-1a3.4,3.4,0,0,1-.1-1.1l.2-5.9Zm16.4,6.2V59.2a6.6,6.6,0,0,0-.1-1.5,2,2,0,0,0-.9-1.5,2.4,2.4,0,0,0-1.7-.3,5.1,5.1,0,0,0-1.5.7,8.3,8.3,0,0,0-1.2,1.7h-.1V56.7l-1.2.2-.2,9.3,1.4-.3v-4a6.1,6.1,0,0,1,.4-2.4,4.2,4.2,0,0,1,.9-1.6,2.1,2.1,0,0,1,1.3-.7c.5-.1.8-.1,1,.1a1.1,1.1,0,0,1,.5.8v7Zm7.8-4.1a1.9,1.9,0,0,0-.4-.9,1.6,1.6,0,0,0-.7-.7l-1.4-.6a3.1,3.1,0,0,1-1.3-.6,1.2,1.2,0,0,1-.5-.7,1.2,1.2,0,0,1,.3-1,1.7,1.7,0,0,1,1.1-.6,6,6,0,0,1,1.9,0h.5l.2-1.2a6.6,6.6,0,0,0-2.8,0,3.1,3.1,0,0,0-2.1,1.1,2.1,2.1,0,0,0-.4,1.9,2.1,2.1,0,0,0,.7,1.3,5.2,5.2,0,0,0,1.7.9,3.8,3.8,0,0,1,1.4.6,1,1,0,0,1,.4.7,1.3,1.3,0,0,1-.3,1.2,2.6,2.6,0,0,1-1.5.7,2.4,2.4,0,0,1-1.2,0,3.5,3.5,0,0,1-1.4-.3l.3,1.3a4.5,4.5,0,0,0,2.6.1,3.9,3.9,0,0,0,2.4-1.2,2.3,2.3,0,0,0,.5-2.1m9,.9c.1-2.7.1-4.6.1-5.7a5.3,5.3,0,0,0-.1-1.4,2.4,2.4,0,0,0-.9-1.6,1.9,1.9,0,0,0-1.7-.2,2.6,2.6,0,0,0-1.5.7,5.7,5.7,0,0,0-1.2,1.7h-.1a8.6,8.6,0,0,1,.1-1.6V52.2a5.7,5.7,0,0,1,.1-1.3V49.5l-1.4.3L187.7,63l1.4-.3v-4a6.1,6.1,0,0,1,.4-2.4,4.2,4.2,0,0,1,.9-1.6,2.8,2.8,0,0,1,1.3-.7,1.1,1.1,0,0,1,1.5.9v7ZM199,51.6l-1.4.3-.2,9.3,1.3-.3Zm-1.5-2.1a1,1,0,0,0,.4.5.4.4,0,0,0,.5.1.7.7,0,0,0,.6-.4.8.8,0,0,0,.1-.8c-.1-.5-.3-.7-.8-.6a.7.7,0,0,0-.6.4,1.1,1.1,0,0,0-.2.8m11,9.6V53.4a6.6,6.6,0,0,0-.1-1.5,2,2,0,0,0-.9-1.5,2.7,2.7,0,0,0-1.8-.3,3.7,3.7,0,0,0-1.4.7,8.3,8.3,0,0,0-1.2,1.7h-.1V50.8l-1.2.3-.2,9.3,1.4-.3v-4a8.8,8.8,0,0,1,.3-2.4,6.2,6.2,0,0,1,1-1.6,2.6,2.6,0,0,1,1.3-.8,1.5,1.5,0,0,1,1,.2.8.8,0,0,1,.4.7,4.1,4.1,0,0,1,.1,1.2v5.9Zm6.3-1.1,1.3-.4a3.7,3.7,0,0,0,1.2-.7l-.2-1.2-1.2.8a4.5,4.5,0,0,1-1.1.3,1.5,1.5,0,0,1-1.6-.3,2.2,2.2,0,0,1-.8-1.6v-.6h.2a7.9,7.9,0,0,0,3.8-1.5,2.9,2.9,0,0,0,.9-2.6,2.8,2.8,0,0,0-.9-1.4,3.2,3.2,0,0,0-2-.2,4.5,4.5,0,0,0-2.1,1.2,5.3,5.3,0,0,0-1.2,2.5,8.1,8.1,0,0,0,0,3.1,3.5,3.5,0,0,0,1.3,2.3,3,3,0,0,0,2.5.4m-.4-8.3a1.6,1.6,0,0,1,1,.1,1,1,0,0,1,.4.7c.2.6-.1,1.1-.7,1.6a6.9,6.9,0,0,1-2.7,1h-.1a4.2,4.2,0,0,1,.7-2.3,2.4,2.4,0,0,1,1.4-1.1M53.7,65c-.6.2-1,0-1.2-.8a7.3,7.3,0,0,1-.1-3.4l3.1-18.6-6.3,1.2L46.4,60.1a10.6,10.6,0,0,0,.5,5.6,5,5,0,0,0,6.4,2.5A6.9,6.9,0,0,0,56,66a22.9,22.9,0,0,0,3.3-5.5l.8-1.7c-1,5.5-1.7,9.9-2.6,15.5a32.5,32.5,0,0,1-1.1,4.2,8.5,8.5,0,0,1-1.8,3.4,3.7,3.7,0,0,1-2.8,1.6h-.9c-.2,0-.3.2-.4.4s.1.7.3.8a1.4,1.4,0,0,0,.9.1,14.9,14.9,0,0,0,4.3-.7,10.3,10.3,0,0,0,3.6-2.4A16.5,16.5,0,0,0,62.5,77a40.4,40.4,0,0,0,2-8l4.9-29.4,5.4-1.1.4-2.7-5.4,1c.1-.3.1-.7.2-1.2s.4-2.6.7-4.1A25.8,25.8,0,0,1,72,27.3a7.5,7.5,0,0,1,2.1-3.2c0,.1.1.3.1.4a2,2,0,0,0,.9,1.3,2.1,2.1,0,0,0,1.7.4,2.3,2.3,0,0,0,1.2-.6,3,3,0,0,0,.6-1.1,2.6,2.6,0,0,0-.5-1.9,2.6,2.6,0,0,0-1.5-.7h-2l-1.7.3a9.3,9.3,0,0,0-4,2.2,14.9,14.9,0,0,0-3.2,5A34.6,34.6,0,0,0,63.5,38l-3.7.7-.5,2.8,3.7-.7c-.5,3.4-1.1,6.8-1.6,10.2-.7,1.7-1.4,3.5-2.3,5.5A31.3,31.3,0,0,1,56.4,62,6.7,6.7,0,0,1,53.7,65ZM52.6,33.3a3.1,3.1,0,0,0-2.1,1.4,3.3,3.3,0,0,0-.5,2.4,3.1,3.1,0,0,0,1.4,2.1,3.3,3.3,0,0,0,2.4.5,3.1,3.1,0,0,0,2.1-1.4,3.3,3.3,0,0,0,.5-2.4A3.1,3.1,0,0,0,55,33.8,2.9,2.9,0,0,0,52.6,33.3Zm66.2,44.5a17.7,17.7,0,0,1-1.2,7.5,18.8,18.8,0,0,1-5.8,8,26.8,26.8,0,0,1-10,5.5A68.5,68.5,0,0,1,83,101.1c-9-.4-15.6-1.8-24.9-4.3-7.1-1.9-11-3.2-16.7-5-3.2-.9-7.5-2.5-11.3-3.2a26.5,26.5,0,0,1-5,8.5,18.3,18.3,0,0,1-4.9,3.6,18,18,0,0,1-6,2.2,16.7,16.7,0,0,1-6.3.1,11.5,11.5,0,0,1-5.4-2.7A8,8,0,0,1,.1,96a8.2,8.2,0,0,1,1-5.6,13.8,13.8,0,0,1,4.1-4.3,28.9,28.9,0,0,1,6.1-3,42.7,42.7,0,0,1,6.8-1.8,26.9,26.9,0,0,1,6.2-.4c.7-4,.9-6.4,1.4-9.7s.9-8.4,1.4-11.9.5-4.7.9-7a11.5,11.5,0,0,1-1.7.6,26,26,0,0,1-8.8,1.4,15.9,15.9,0,0,1-7.2-1.7,8.3,8.3,0,0,1-3.9-4.7c-.7-2.1-.5-4.6.6-7.7a14.9,14.9,0,0,1,3.8-6,17.2,17.2,0,0,1,6.4-4.1,14.9,14.9,0,0,1,7.9-.6q.9.3.9.9a.9.9,0,0,1-.4,1,1.6,1.6,0,0,1-1.4.4,13,13,0,0,0-6.5.4,14.6,14.6,0,0,0-5.3,3,12,12,0,0,0-3.2,4.7c-.7,1.9-.8,3.4-.1,4.6A5.5,5.5,0,0,0,12.4,47a19.1,19.1,0,0,0,5.6.7,34,34,0,0,0,6.9-.8L29,45.8c1-4.7,1.6-7.7,2.5-11.5s2-8,3.1-11.5A84.4,84.4,0,0,1,38.4,13c3.1-6.4,7.2-8.2,10.4-8S52.5,7.4,53,9.3a21.1,21.1,0,0,1,.6,7.2,37.5,37.5,0,0,1-1.1,6.7,49.8,49.8,0,0,1-2.5,8,30.9,30.9,0,0,1-6,9.4,47.8,47.8,0,0,1-7.7,7.3c-.5,3.4-1,6.9-1.4,10.4s-.9,9.1-1.5,12.8-.8,6.8-1.2,10.8c3.8,1,10,2.8,17,5.1,8.5,2.7,19,5.8,30.9,7.1,6.1.6,13,.4,16.8-.6s7.3-2.1,9.7-4.4a15,15,0,0,0,4.5-8,14.2,14.2,0,0,0-.2-7.7,9,9,0,0,0-4.7-5.8,9.9,9.9,0,0,0-6-.8,8.6,8.6,0,0,0-4.1,2.4,8.1,8.1,0,0,0-2,4.5,3.1,3.1,0,0,0,.8,2.7,5.3,5.3,0,0,0,2.6.9,2.2,2.2,0,0,1,1.3.7,1.1,1.1,0,0,1-.3,1.9,4,4,0,0,1-2.2,0A5.7,5.7,0,0,1,93,77.3a8.7,8.7,0,0,1,.8-9.4A13.9,13.9,0,0,1,98.9,64a11.4,11.4,0,0,1,5.7-.9,13.5,13.5,0,0,1,5.6,1.7,14.1,14.1,0,0,1,6.2,5.5A14.8,14.8,0,0,1,118.8,77.8ZM37.3,41.9l.4-.2a26.6,26.6,0,0,0,8.2-10.1,30.7,30.7,0,0,0,3-14.6v-.6c-.6-4.1-3.4-3.4-5,.9A116.6,116.6,0,0,0,40,30.6C39.1,34.2,38.1,38.1,37.3,41.9ZM22.2,87.6a17.5,17.5,0,0,0-4.1-.1c-1.7.1-3.5.4-5.4.7a41,41,0,0,0-5.3,1.6,12.4,12.4,0,0,0-3.8,2.4,3.6,3.6,0,0,0-1.2,3.1,5.2,5.2,0,0,0,3.1,3.5,10.7,10.7,0,0,0,5.7.6,10.5,10.5,0,0,0,5.6-2.9A23.9,23.9,0,0,0,22.2,87.6ZM217.1,33.8a11,11,0,0,1-2.3,4.9,13.3,13.3,0,0,1-5.5,3.7,6.9,6.9,0,0,1-8.4-2.9,3.9,3.9,0,0,1-.6-1.1,6,6,0,0,1-.2-3.5,4,4,0,0,1,1.8-2.7l1.4-.5a2,2,0,0,1,1.3.1l.6.5a.9.9,0,0,1,.1.7,1.4,1.4,0,0,1-.8,1,1.7,1.7,0,0,1-1.7-.4,2.3,2.3,0,0,0-1.1,1.7,4.3,4.3,0,0,0,.1,2.5l.5.9a5.2,5.2,0,0,0,2.8,2.2,4.5,4.5,0,0,0,3.6,0,6.7,6.7,0,0,0,3.9-3.2,7,7,0,0,0,.8-4.5,8.6,8.6,0,0,0-1.8-4.3,7.4,7.4,0,0,0-3.7-2.6,7,7,0,0,0-5,.7,32,32,0,0,0-6,4.3L185,42.1a39.8,39.8,0,0,1-4.3,3.4,16,16,0,0,1-5.8,2.5,16.3,16.3,0,0,1-7.5-.7,10.9,10.9,0,0,1-4.6-3.5,10.6,10.6,0,0,1-2-4.6l-1.1,2.4a21.1,21.1,0,0,1-3.3,5.5,7.2,7.2,0,0,1-2.7,2.3,5.2,5.2,0,0,1-3.5.1,4.9,4.9,0,0,1-2.9-2.6c-.1-.2-.1-.5-.2-.7-2.4,5.5-5,8.3-8.5,9.1-.2,1.7-.7,2.8-1.1,4.7a35,35,0,0,1-1.7,5.5,19.2,19.2,0,0,1-2.9,5,13.3,13.3,0,0,1-4.8,3.5,7.6,7.6,0,0,1-4.4.7,6.1,6.1,0,0,1-3.4-2.3,7.8,7.8,0,0,1-1.4-4.2,10.5,10.5,0,0,1,1.2-5,15.6,15.6,0,0,1,4.4-5,27.2,27.2,0,0,1,8.2-3.8l.9-5.6a15.5,15.5,0,0,0,.4-2.1,17.5,17.5,0,0,1-2.8,4.9,7.5,7.5,0,0,1-2.8,2.3,4.7,4.7,0,0,1-3.5.1,4.5,4.5,0,0,1-2.8-2.6,9.4,9.4,0,0,1-.6-5l-.9,2.3a27.6,27.6,0,0,1-3.3,5.4,7.5,7.5,0,0,1-2.8,2.3,4.7,4.7,0,0,1-3.5.1,4.5,4.5,0,0,1-2.8-2.6c-.7-1.3-.8-3.2-.6-5.6a13,13,0,0,1-2.6,3.1,7.4,7.4,0,0,1-.8,3,9.6,9.6,0,0,1-1.6,2.5,13.3,13.3,0,0,1-2.4,1.9,11.7,11.7,0,0,1-2.4.9,8.1,8.1,0,0,1-4.1-.1,6.9,6.9,0,0,1-3-2l-.8-1.3a21.6,21.6,0,0,1-2.4,3.5A9.5,9.5,0,0,1,84.1,62a12,12,0,0,1-4.5.9,5.8,5.8,0,0,1-3.9-1.1,7,7,0,0,1-2.4-4.4,27.6,27.6,0,0,1-.3-7.1,27.1,27.1,0,0,1,1.6-6.8,14,14,0,0,1,1.5-3,8.8,8.8,0,0,1,2.1-2.2A7,7,0,0,1,81,37.1a9.4,9.4,0,0,1,3.7-.1,4.9,4.9,0,0,1,2.4,1.5,5.4,5.4,0,0,1,1.4,3.9,8.3,8.3,0,0,1-1.1,4,11.8,11.8,0,0,1-2.6,3.2,5.9,5.9,0,0,1-3.1,1.3,2.6,2.6,0,0,1-2.5-1.3c-.1.8-.2,1.8-.3,3.1a13.7,13.7,0,0,0,.1,3.5,4.9,4.9,0,0,0,1.2,2.6,3.9,3.9,0,0,0,3.4.8,6.2,6.2,0,0,0,3.1-2.1A24.1,24.1,0,0,0,89,53.9c.6-1.3,1.1-2.3,1.4-3.1s.1-.4.2-.5c.9-2,1.6-3.9,2.3-5.7l.5-1.4-.3-.5a6.1,6.1,0,0,1-.6-3.2,6.3,6.3,0,0,1,1.2-3,5.3,5.3,0,0,1,2.6-2.1l1.9,2.8h0a1.7,1.7,0,0,0-.8,1.2,2,2,0,0,0,.2,1.3,7.2,7.2,0,0,0,1.1,1.5l1.6,1.7,2.4,2.5a12.1,12.1,0,0,1,1.8,2.8,13.4,13.4,0,0,0,2-2.1,23.1,23.1,0,0,0,2.1-3.5l1.8-11-3.7.7.4-2.8,3.8-.7,2.1-13,6.4-1.2-2.2,13,5.4-1-.5,2.8-5.4,1L113.6,49a9,9,0,0,0,.1,3.4c.2.7.6,1,1.2.8a7.8,7.8,0,0,0,2.7-3.1,38.6,38.6,0,0,0,2.8-5.4c.8-2.1,1.6-4,2.2-5.7a.3.3,0,0,0,.1-.2l1.6-9.7,6.3-1.2-3.1,18.6a8.4,8.4,0,0,0,.1,3.3q.5,1.1,1.2.6a9,9,0,0,0,2.8-3.7,46.8,46.8,0,0,0,2.8-6.9,72,72,0,0,0,2.2-8.6l.6-3.9a1.5,1.5,0,0,0,.1-.7h0l6.4-1.2c-.6,3.6-1.3,7.3-1.9,10.9-.9,5.7-1.8,11.3-2.8,16.9,3.5-1.3,6-6.1,7.7-10.9a3.4,3.4,0,0,0,.1-1l3-18.2v-.6c.7-3.8,2.2-11.6,2.7-13.2a16.3,16.3,0,0,1,1.8-4.5,9.8,9.8,0,0,1,3.4-3.6c2-1.3,3.6-1.6,5.3-.7A3.7,3.7,0,0,1,164.8,3a16.4,16.4,0,0,1-1.4,8.1c-2.1,4.5-3.3,5.7-7.2,10.2L152.8,42a9.5,9.5,0,0,0,0,3.4c.2.7.6,1,1.3.7a6.7,6.7,0,0,0,2.7-3,34,34,0,0,0,2.7-5.4,21.8,21.8,0,0,0,.9-2.3c.1-1.1.1-2.3.2-3a30.1,30.1,0,0,1,.9-4.1,14.6,14.6,0,0,1,1.6-3.6,9.1,9.1,0,0,1,2.3-2.8,6.3,6.3,0,0,1,3.2-1.5,11.4,11.4,0,0,1,3.7,0,4.9,4.9,0,0,1,2.4,1.5,5.3,5.3,0,0,1,1.3,3.9,8.3,8.3,0,0,1-1.1,4,10.1,10.1,0,0,1-2.7,3.1,5.9,5.9,0,0,1-3,1.4,2.5,2.5,0,0,1-2.5-1.3,25.1,25.1,0,0,0-.3,7.1c.4,2.4,1,3.3,2.4,4.4s4.8,1.7,7,1.1a19.2,19.2,0,0,0,6.3-3.3c2.1-1.6,11.7-10.5,13.8-12.3a33.8,33.8,0,0,1,6.2-4.4,14.6,14.6,0,0,1,6.8-2.1,8,8,0,0,1,5,1.5,7.2,7.2,0,0,1,2.8,3.8A9.3,9.3,0,0,1,217.1,33.8ZM167,31.2v.2a1.2,1.2,0,0,0,1,1.3,3.2,3.2,0,0,0,2.1-.2,4.8,4.8,0,0,0,2.1-1.7,11.1,11.1,0,0,0,1.6-3.6,6.9,6.9,0,0,0-.1-2.9,2.2,2.2,0,0,0-1.3-1.5,1.9,1.9,0,0,0-1.9.6,6.9,6.9,0,0,0-1.5,2c-.4.9-.8,1.9-1.2,3.1a14.4,14.4,0,0,0-.8,2.6ZM79.5,48.1a1.4,1.4,0,0,0,1,1.3,3.4,3.4,0,0,0,2.2-.2,8.4,8.4,0,0,0,2.1-1.8,10.7,10.7,0,0,0,1.5-3.6,5.5,5.5,0,0,0-.2-2.9,2.1,2.1,0,0,0-1.2-1.5,2.1,2.1,0,0,0-2,.6,5.3,5.3,0,0,0-1.5,2.2,24.9,24.9,0,0,0-1.1,2.9,16.4,16.4,0,0,0-.7,2.8Zm19.1,6.2h-.2c-.8,0-1.2-.2-1.4-.5a2.8,2.8,0,0,1-.4-1.3,3.4,3.4,0,0,1,.2-1.5,1.1,1.1,0,0,1,.8-.7h.9a5.6,5.6,0,0,0-1.1-2L96,46.6l-1.6-1.8-.3-.4c-.2,1.1-.5,2.3-.9,3.8a48.4,48.4,0,0,1-1.8,4.9,4.6,4.6,0,0,0,.8,2.7,3.6,3.6,0,0,0,3.3,1.3A4.3,4.3,0,0,0,98.6,54.3Zm33.5,2.5c-2.1.9-3.8,1.5-5.4,3.1a19.9,19.9,0,0,0-3.8,5.1,11.6,11.6,0,0,0-1.4,5.1,3.6,3.6,0,0,0,.8,2.7,2.4,2.4,0,0,0,2.2.5,5.6,5.6,0,0,0,2.8-1.8,13.7,13.7,0,0,0,2.4-4.2c.7-2.1,1.3-4.2,1.8-6.2A35.5,35.5,0,0,0,132.1,56.8ZM159.9,3.4c-1.6,4.1-3,12.7-3.5,16.1a48.4,48.4,0,0,0,4-5,21.9,21.9,0,0,0,2.7-6.1,18.3,18.3,0,0,0,.5-4.3,4.4,4.4,0,0,0-.7-2.2,1.2,1.2,0,0,0-1.5-.5A4.1,4.1,0,0,0,159.9,3.4Z" fill="#FFF" />
                        </svg>
