<?xml version="1.0" encoding="UTF-8"?>
<svg width="561px" height="225px" viewBox="0 0 561 225" version="1.1" xmlns="http://www.w3.org/2000/svg" xmlns:xlink="http://www.w3.org/1999/xlink">
    <!-- Generator: Sketch 47.1 (45422) - http://www.bohemiancoding.com/sketch -->
    <title>playUmbrellas@2x</title>
    <desc>Created with Sketch.</desc>
    <defs>
        <polygon id="path-1" points="334.864139 224 0.095221834 224 0.095221834 0.924805066 334.864139 0.924805066"></polygon>
    </defs>
    <g id="Symbols" stroke="none" stroke-width="1" fill="none" fill-rule="evenodd">
        <g id="playUmbrellas">
            <g id="umbrellaOrange" transform="translate(0.000000, 13.000000)">
                <path d="M179.454983,148.45718 C179.454983,148.45718 207.905851,127.105936 218.207701,124.155198 C228.508104,121.20446 244.828768,112.250946 251.891943,111.638802 C258.858204,111.033894 265.326874,108.404423 265.326874,108.404423 C265.326874,108.404423 266.340859,90.9373285 266.445006,84.3672698 C266.567957,76.6727758 265.28348,73.3052589 268.701519,62.4892635 C271.07375,54.9857934 274.406446,48.7225303 277.642228,47.0148939 C280.87801,45.3087046 283,42.534519 283,42.534519 C283,42.534519 247.183642,25.8416495 239.456531,21.6420216 C231.729421,17.4423937 211.517718,5.4006627 208.779526,4.91442047 C206.041335,4.42817824 188.17872,5.11557425 183.816128,5.20963897 C179.454983,5.30370369 168.094308,0.804515876 168.094308,0.804515876 C168.094308,0.804515876 152.245197,-0.492130081 145.169003,0.20684313 C138.09281,0.904369192 129.902825,0.535346068 124.996356,0.640987982 C120.08844,0.748077045 115.193542,1.39784717 115.193542,1.39784717 C115.193542,1.39784717 104.642898,9.88682617 100.364202,13.7984713 C96.0840596,17.7115635 87.8622519,18.6768123 83.547394,20.9531784 C79.2325361,23.2295446 68.7831452,24.7736531 68.7831452,24.7736531 C68.7831452,24.7736531 41.3014204,40.2668357 34.8920556,44.6285443 C27.8158622,49.4432107 23.0048608,54.1869668 22.7068854,55.1247197 C21.7406349,58.1564979 17.0554775,81.1748579 14.8206617,87.1342196 C11.2087944,96.7649996 0,114.433248 0,114.433248 C0,114.433248 25.663496,113.637316 39.7204148,124.732611 C53.8554437,135.891581 68.4735979,153.953454 68.4735979,153.953454 C68.4735979,153.953454 74.9466079,154.322477 85.2368858,152.982416 C96.172295,151.558421 113.87869,149.18799 124.296258,149.002755 C134.855582,148.813179 155.236523,147.654012 159.875393,148.099734 C164.522942,148.545456 177.170987,148.661228 178.195096,149.40651 L179.454983,148.45718 Z" id="Fill-1" fill="#CE7046"></path>
                <path d="M134,25 C134,25 180.401284,36.9176551 206.944184,54.3648358 C233.488529,71.8105685 265,108.983923 265,108.983923 C265,108.983923 232.921849,121.512591 222.082643,124.47644 C211.241991,127.440289 177.926395,150 177.926395,150 C177.926395,150 158.348459,76.1629523 149.254108,58.8851758 C140.159757,41.6088472 134,25 134,25" id="Fill-3" fill="#FCC06D"></path>
                <path d="M283,42 C278.606609,41.0143963 231.213918,22.0343619 221.893902,20.6118263 C212.572436,19.1907232 179.23222,18.8196893 171.062716,20.0746149 C162.893211,21.328108 134,24.1072813 134,24.1072813 C134,24.1072813 150.107168,11.3374099 156.043752,7.9680204 C161.981785,4.60149607 167.908226,0.692030153 167.908226,0.692030153 C167.908226,0.692030153 205.560688,-1.72900224 210.569907,2.48559971 C215.579127,6.70020166 283,42 283,42" id="Fill-5" fill="#FCC06D"></path>
                <path d="M115.797587,1 C115.797587,1 125.823974,6.69553643 127.556786,10.4175695 C129.289598,14.1410264 135,23.6867455 135,23.6867455 C135,23.6867455 114.083737,23.0516932 105.825167,22.6886027 C97.5651396,22.3255123 69,24 69,24 C69,24 83.7128555,17.783322 96.7672877,11.0654368 C109.820261,4.34755154 115.797587,1 115.797587,1" id="Fill-7" fill="#FCC06D"></path>
                <path d="M68.7306774,153.818 C68.7306774,153.818 22.6013226,118.744 -0.000290322581,114.377444 C-0.000290322581,114.377444 29.7780968,82.3801111 37.3090645,76.2267778 C44.8400323,70.072 66.2440645,51.8301111 77.1877742,47.0461111 C92.9145484,40.172 134.726806,24.5821111 134.726806,24.5821111 C134.726806,24.5821111 127.82729,34.5213333 116.619387,47.8347778 C105.411484,61.1496667 94.4285806,84.8082222 89.2042258,96.3594444 C83.9784194,107.910667 74.1727742,135.356556 72.6485806,140.836778 C71.1243871,146.317 68.7306774,153.818 68.7306774,153.818" id="Fill-9" fill="#FCC06D"></path>
            </g>
            <g id="umbrellaGreen" transform="translate(226.000000, 0.000000)">
                <g id="Group-14">
                    <mask id="mask-2" fill="white">
                        <use xlink:href="#path-1"></use>
                    </mask>
                    <g id="Clip-13"></g>
                    <path d="M325.709065,202.618301 C325.709065,202.618301 318.836301,192.829337 318.023621,183.908578 C317.210941,174.987819 327.049417,177.662739 331.910839,163.482067 C334.814663,155.012578 334.68926,148.629396 334.863522,146.718038 C335.060585,144.57287 288.035894,88.1919066 281.764089,83.6105343 C275.493913,79.029162 262.637609,70.3749139 262.637609,70.3749139 L212.738409,36.6964321 C212.738409,36.6964321 165.518284,18.0063299 161.66009,16.3222423 C160.062417,15.6240818 145.00748,11.8111766 143.315347,11.4351182 C141.624842,11.0606949 115.659799,4.87044672 112.52634,4.16247591 C73.2489807,-4.70432701 53.2121041,7.45216934 53.2121041,7.45216934 C53.2121041,7.45216934 55.7560041,15.5243445 49.9402123,17.4520526 C42.9225011,19.7754394 41.0609917,19.6757022 35.1995987,20.8594686 C28.3984935,22.2328993 15.4786738,23.3905051 15.4786738,23.3905051 C15.4786738,23.3905051 -4.87089719,36.0538628 1.23967428,45.4471474 C11.5292773,61.2579504 29.6606718,92.4920526 28.1704871,106.303206 C27.5988425,111.612169 51.9841268,102.796053 59.3861917,106.672724 C62.5505947,108.330651 49.1226465,129.084169 59.5637109,134.842768 C70.0047753,140.599731 172.418735,210.100228 181.45756,206.045337 C205.126253,195.42741 204.945476,194.457834 209.798755,197.304432 C214.652034,200.151031 205.720698,220.302855 216.601489,219.36925 C236.516219,217.660636 306.405066,222.117746 316.039965,223.975147 C320.570778,224.848257 325.709065,202.618301 325.709065,202.618301" id="Fill-12" fill="#475727" mask="url(#mask-2)"></path>
                </g>
                <path d="M224.22406,177.575501 C218.306627,178.119285 209.935664,179.251077 209.935664,179.251077 C209.935664,179.251077 190.59215,168.657115 174.403407,158.613489 C158.213038,148.569862 136.264682,134.251307 121.787553,125.973341 C107.310425,117.693737 76.9536848,98.8627566 72.4777822,98.1944919 C68.0002526,97.5245892 65.1415972,77.2342365 59.7350453,68.9611842 C54.3284933,60.6897698 49.5955232,47.0345655 41.680123,39.0334053 C34.0266712,31.2975855 32.7641119,23.6256439 33.0325685,23.6158165 C33.9274236,23.5814205 42.9817304,22.1990296 57.7321968,17.3688512 C73.0033062,12.3732445 81.4360955,2.86521275 83.1233041,1.07662176 C83.3445774,0.844039417 91.8896303,1.20437826 93.0806011,1.31903153 C93.1765946,1.32885895 84.7926157,13.0742674 77.1212668,15.3444021 C69.4515449,17.6128989 50.3325585,22.618333 50.3325585,22.618333 C50.3325585,22.618333 60.7926013,43.1609229 65.810298,49.786244 C70.8296218,56.4132029 86.4603002,87.8953525 86.4603002,87.8953525 C86.4603002,87.8953525 126.427784,112.689941 136.546155,118.966388 C146.666153,125.244474 172.467266,141.25007 180.874024,145.762495 C189.279154,150.27492 209.515895,162.829453 209.515895,162.829453 C209.515895,162.829453 235.601736,163.550131 247.513071,164.616406 C259.426033,165.681044 273.790898,166.160949 279.280428,167.458169 C284.76833,168.753751 308.787869,171.70853 308.787869,171.70853 C308.787869,171.70853 303.439889,158.880467 306.427078,147.054801 C309.899116,133.316064 318.063449,125.660501 318.273333,125.752224 C318.484844,125.843947 326,135.307755 326,135.307755 C326,135.307755 317.575346,141.589116 316.23469,153.842275 C314.516568,169.553048 317.576973,187 317.576973,187 C317.576973,187 230.141492,177.030079 224.22406,177.575501" id="Fill-15" fill="#FCC06D"></path>
                <path d="M62.2659218,22.6658897 C64.0898063,23.094062 75.613514,19.0637282 82.9463404,17.3218455 C90.2791667,15.5815847 97.7708737,9.06493236 99.8282154,6.85433078 C101.885557,4.64372919 103.498682,2.0017116 103.631623,2.00008973 C104.712983,1.98549295 112.854804,3.7565692 112.854804,3.7565692 C112.854804,3.7565692 108.321843,10.0023702 103.819685,12.7952212 C99.319149,15.5864503 81.1581229,22.4842409 81.1581229,22.4842409 C81.1581229,22.4842409 90.1105587,38.4401458 95.3033606,45.8147646 C100.497784,53.1926271 113.944271,75.4008204 113.944271,75.4008204 C113.944271,75.4008204 133.219082,85.8894194 142.486037,92.2990287 C151.754613,98.708638 171.532006,109.508635 178.279568,114.364498 C185.02713,119.218739 213.011193,132.39639 213.011193,132.39639 C213.011193,132.39639 227.302341,134.148004 233.393305,134.423721 C239.484268,134.699438 254.183967,136.802996 260.779133,137.390111 C267.3743,137.977226 288.552436,141.986476 290.183394,141.59885 C291.81111,141.212846 289.648388,126.658232 292.873016,120.294035 C296.096022,113.93146 302.885737,106.174081 302.885737,106.174081 C302.885737,106.174081 311.006481,115.626309 310.999996,115.777142 C310.993511,115.929597 299.401712,134.949205 298.983434,139.556922 C298.038257,149.949831 302.780357,158.411099 300.958093,157.984549 C299.134209,157.554755 288.388692,155.803141 275.123782,152.496159 C261.858873,149.189177 256.852513,151.669008 245.09859,149.294598 C233.346289,146.920188 211.388341,148.691264 211.388341,148.691264 C211.388341,148.691264 193.121935,138.822218 180.015906,130.74371 C166.908256,122.661958 147.646414,110.890464 136.244299,104.558704 C124.843805,98.2253223 99.523424,83.1387369 99.523424,83.1387369 C99.523424,83.1387369 94.4716692,73.1366973 87.4971349,61.8777126 C80.5209793,50.6187278 75.6783632,39.2835154 72.0727462,34.9742209 C68.4687504,30.6649264 60.4420373,22.2360956 62.2659218,22.6658897" id="Fill-17" fill="#FCC06D"></path>
                <path d="M296.999911,98.387561 C297.029333,98.6581959 289.752344,109.204803 288.263275,113.885481 C286.77584,118.56616 286.025584,129.996406 286.025584,129.996406 C286.025584,129.996406 278.55572,132.569067 268.11262,129.476331 C257.631925,126.375442 249.493532,125.922211 237.958557,124.9326 C228.553393,124.128847 214.949085,123.929947 214.949085,123.929947 C214.949085,123.929947 195.489842,114.218069 185.324615,107.970643 C175.159387,101.721587 164.603504,93.8356787 152.287217,87.6648782 C139.97093,81.4924475 125.935103,73.5641509 125.935103,73.5641509 C125.935103,73.5641509 118.996465,62.2284639 112.159169,51.7307667 C105.320238,41.2314392 101.827218,34.2650375 98.3865031,30.7533059 C94.9474231,27.2383136 91,23.4151889 91,23.4151889 C91,23.4151889 102.358444,21.0479493 109.655048,16.1797828 C116.881365,11.3605262 121.647695,6 121.647695,6 L133.759664,8.86775111 C133.759664,8.86775111 126.830833,15.3597266 123.739911,16.9590807 C120.648989,18.5551741 110.555681,23.543985 110.555681,23.543985 C110.555681,23.543985 114.225232,33.4922609 119.893829,39.0745121 C125.560793,44.6567632 131.188527,53.7116181 132.594234,55.9745166 C134.001576,58.2390455 138.025823,64.2093153 138.025823,64.2093153 C138.025823,64.2093153 153.468992,74.4005104 162.423023,79.2034636 C171.377053,84.0096776 188.657449,94.6296495 193.74088,97.7533625 C198.822677,100.878706 215.48685,108.867325 215.48685,108.867325 C215.48685,108.867325 231.475957,110.455266 239.140332,111.669862 C246.806342,112.884459 252.556667,111.523133 259.086669,113.437141 C265.616672,115.352779 276.76426,116.609763 276.76426,116.609763 C276.76426,116.609763 277.042132,110.484612 278.529567,105.803934 C280.018636,101.123255 283.464254,95.5475255 284.717949,93.5193946 C285.97001,91.4928939 288.230584,88.6447068 288.230584,88.6447068 C288.230584,88.6447068 296.962317,98.027258 296.999911,98.387561" id="Fill-19" fill="#FCC06D"></path>
                <path d="M278.999839,80.8249075 C279.03898,80.854481 271.91383,90.0847229 268.851109,106.429053 C268.502108,108.295474 263.112175,105.149174 250.977078,103.253179 C238.841982,101.358828 213.634054,99.1030209 213.634054,99.1030209 C213.634054,99.1030209 179.032476,79.0307771 172.438981,74.9381227 C165.847117,70.8471112 149.501185,62.1081193 149.501185,62.1081193 C149.501185,62.1081193 138.351117,46.0217365 136.05163,41.7746423 C133.752142,37.5259051 123,24.398523 123,24.398523 C123,24.398523 132.630123,19.9148401 135.519975,17.478306 C138.408197,15.0434148 144.1455,10.9836199 144.289014,11.0000497 C147.421862,11.3598616 155.809283,13.9524785 155.809283,13.9524785 L139.104567,25.3432345 C139.104567,25.3432345 157.082971,50.4873466 159.302547,54.09368 C162.109226,58.6562257 210.789865,85.4811028 213.410629,87.1076495 C215.997144,88.7128376 257.52654,92.2567379 259.129658,93.2507386 C259.382439,93.4084644 261.838487,84.5347484 263.400834,81.9799199 C264.963181,79.4234485 268.06015,73.4660158 268.107444,73.2787165 C268.11886,73.2310701 277.638086,79.8325497 278.999839,80.8249075" id="Fill-21" fill="#FCC06D"></path>
                <path d="M258,65.9379714 C258,65.9379714 250.253326,82.2490003 249.531151,82.851424 C248.807345,83.4554759 242.196915,82.0910676 238.059487,81.0327557 C234.549682,80.1340046 214.962921,77.6461575 214.962921,77.6461575 C214.962921,77.6461575 190.64045,65.4739423 187.75501,63.3475494 C184.867939,61.2227847 170.104917,52.8328134 170.104917,52.8328134 C170.104917,52.8328134 163.106501,44.3321265 161.955585,42.2268998 C160.806299,40.1233014 156.284146,33.8466976 154.217062,31.5249241 C152.435261,29.5271568 152,27.6547588 152,27.6547588 C152,27.6547588 157.109023,24.5726288 160.154222,21.9040546 C163.199422,19.2354804 165.481691,17 165.481691,17 L177.049536,21.5881892 L166.606524,29.0191671 C166.606524,29.0191671 170.310321,35.4911515 172.630085,37.9676014 C174.951479,40.4440513 180.115928,48.5149008 180.115928,48.5149008 C180.115928,48.5149008 195.327253,57.8768909 199.034311,59.8079031 C202.739738,61.7389153 214.11033,67.6882565 214.11033,67.6882565 C214.11033,67.6882565 223.395906,68.5137398 226.966027,68.9631153 C230.536149,69.414119 240.933516,71.2718634 240.933516,71.2718634 C240.933516,71.2718634 242.943543,66.4654991 243.872753,63.9369477 C245.007367,60.8515615 245.235594,57.3705293 245.235594,57.3705293 L258,65.9379714 Z" id="Fill-23" fill="#FCC06D"></path>
                <path d="M195.683743,32.5063131 C195.973725,32.2192641 207.435369,35.6735828 207.435369,35.6735828 L219.43438,42.3746365 C219.43438,42.3746365 224.888327,48.2631956 225.045605,48.3880701 C225.202883,48.5129445 223.032117,52.4667608 222.692986,52.6370441 C222.353855,52.8073275 215.237019,51.7677884 212.882762,51.1758511 C211.91288,50.9309675 198.306684,43.1741572 198.234598,43.0525263 C197.923318,42.5238371 193.170569,36.5428385 193.170569,36.5428385 C193.170569,36.5428385 195.048077,33.1339288 195.683743,32.5063131 M180.003441,33.9415582 C183.837095,38.5992122 186.656633,45.9651818 188.987954,47.2139261 C192.498861,49.096773 213.665876,61.2241883 213.665876,61.2241883 C213.665876,61.2241883 219.522849,61.053905 223.566207,61.6961164 C228.196082,62.4307672 230.838683,63 230.838683,63 C230.838683,63 232.991427,60.0938315 233.8925,58.220715 C234.819785,56.2924592 235,51.2699124 235,51.2699124 C235,51.2699124 229.362562,47.1944651 224.244469,43.6655462 C219.126377,40.1366273 215.024039,37.2872199 209.3096,34.9032535 C203.593523,32.5176654 201.134413,31.6565183 201.134413,31.6565183 C201.134413,31.6565183 188.530864,27.0118383 188.385055,27.0004861 C187.556068,26.9339945 179.813396,33.7112703 180.003441,33.9415582" id="Fill-25" fill="#FCC06D"></path>
            </g>
        </g>
    </g>
</svg>