<svg xmlns="http://www.w3.org/2000/svg" viewBox="0 0 50 50">
  <path d="M42.7 34.4a21.3 21.3 0 1 0-7.4 8.2l12.1 3.5c-.1-.8-4.7-11.7-4.7-11.7zm-18.2-5.6c-.3 2-1.6 3.2-3.6 3.6-.7.1-1.4.2-2.2.1-2.3-.2-3.7-1.1-4.2-3-.2-.6-.2-1.4-.2-2.2h3.8c0 .6 0 1.2.2 1.6.2.4.5.6 1.1.6.6 0 1-.2 1.2-.6a2 2 0 0 0 0-1.5c-.2-.3-.6-.6-1-.7l-1.3-.5c-.9-.3-1.7-.7-2.3-1.2a3.3 3.3 0 0 1-1.3-2.2l-.1-1.6.3-1.5c.6-1.6 1.9-2.5 3.9-2.7.9-.1 1.9 0 2.6.3 1.3.4 2.2 1.2 2.6 2.4.2.6.2 1.4.2 2.3h-3.7c0-.8 0-1.6-.6-1.8a2 2 0 0 0-1.1 0c-.3.1-.5.4-.5.7-.1.4 0 .8.1 1.1.1.3.4.4.6.6l.8.4.8.4 1.7.8c1 .6 1.9 1.3 2.1 2.7.3.3.2 1.2.1 1.9zm9 3.4h-7.6v-15h3.8v11.7h3.8v3.3z" fill="#fff"/>
</svg>
