<svg width="286" height="179" xmlns="http://www.w3.org/2000/svg">
  <g fill="none" fill-rule="evenodd">
    <path d="M160.5 63.2c-1-3.8-1.6-7-.5-7.1 1-.1 3 1 3.3 4 .2 3 1.4 5.2-.3 6.2-1.6 1-2.5-3-2.5-3m-9.2 8.7c.9.4 2.4 2 3.2 3.9.7 1.8-1.2 3.2-2.6 3.3-1.4 0-1.5-1.3-3-4.2-1.3-2.3 1.5-3.3 2.4-3m-12.8 19.8c-.6 2.3-1.4 4.7-3.6 3.7-2.1-.9-5.5-2.8-4.7-4.3l1.1-2.3c2.4.2 7.8.6 7.2 2.9m-20.3 8.1c1.8 1.2 5.5 1.1 4 2.5-1.4 1.4-1 1.7-3.5.3s-7.9-3.7-5.6-4.2c2.3-.4 5 1.4 5 1.4m8.6-2.7c-2.2-2.2-.8-3.3-.2-2.8 1.6 1.4 5.2 3.5 3.7 4.4-1.5 1-1.4.6-3.5-1.6M108.3 110c2.1 1 3.6 2.7 1.2 2.8-2.5.2-3.3.2-3.5-2-.2-2.1 2.3-.8 2.3-.8m51.5-23.4c1.3-.5 2.1 3.5 2.3 4 0 0 1 1.9-.6 3-1.5 1.1-2.3-1.1-4.3-3.6-2-2.4.8-2.7 2.6-3.4M144.4 99c1.8-.3.7 5.1-.3 8.3-1.5 4.4-1.8 1.7-3.4-.4-1.7-2.1-1.3-3-1-5.6.5-2.5 2.8-2 4.7-2.3m28.3-7.5c-7.6-7.3 2.1-2.6 4-1.2 1.9 1.3 4.9 4.3 6.5 6.3 1.7 2 2 8.6 2 8.6v1.1l-.7.2c-.8.2-2-3.8-4.6-7.3-2.4-3.5-3.2-3.9-7.2-7.7m-4.2 7.1c.9 1.1 3.4 8 6 13.7 2.6 5.7 1.8 9.8-.3 13-.3.5-1.9-1.4-1.1-6 .7-4.6-1.5-5.2-3-8a69.2 69.2 0 0 1-5.4-11.5c-.6-2.5 2.9-2.3 3.8-1.2m-67.1-36.5a66 66 0 0 1 17.2 2.1c5.7 1.6 10 4.7 15.5 8.6a42 42 0 0 1 10.5 9.4c4 4.6 2.1 3.8-.9 5-3 1.3-4.2-4.1-7-8-2.7-4-9-5.2-20-10.1-10.8-5-19.1-2-22-2-2.7 0-4.5 2.5-6.4 5.6-2 3.2-.2 2.7-.2 2.7s3.5-1.3 7-2c3.6-.8 8.7 1.4 12.8 1.1 4.1-.2 11.8 6.6 16 9.4 4 2.9-.9 4.8-4 4.2a68.9 68.9 0 0 1-14.8-7.4 34.8 34.8 0 0 0-15.5-4c-2.3.3-5.3 3.6-8.3 6.5-2.9 3-6.6 10-9.7 14.7-3 4.8 3.8-.8 7.3-2.2 3.5-1.3 8.3-1.1 19.9.2 9.6 1.2 5.9 1.2 10.1 4.6 6.8 5.3-6 4-10.2 3.4-4.3-.5-11.2-1.8-17.3-3.2-6.1-1.3-9.6 2.8-14 12-4.6 9.3-1.6 7.5 2.2 4.6 3.7-2.9 4-2.5 10-2.8 6-.3 5.2-.9 12 1.1 6.7 2.1-6.6 6-11.8 6.4-5.2.4-9 2.7-11.7 5-2.7 2.2 1.1 6.6 1.4 10.1.2 3.6.1 6.4 3.7 6.2 3.5-.2 4.6.8 8.8 3.3 4.2 2.5 7.9 4 11 1.5 3.2-2.5 5.8-7.5 7.8-10.5s2.5-10 4.6-14.7c2.2-4.7 2.6 4.7 2.2 8.6-.4 3.9-5.5 11.7-10.1 16.6-4.7 4.8-1.3 4.3 1.7 5.3 3.1.9 4 2 7.4-.1 3.4-2 7.4-10.8 8.8-14.8 1.5-4 3.6-13.5 4.4-19.3.7-5.8 3-7 5.6-6.8 2.6 0 0 8.4-.1 11.6-.2 3.2-3.4 17-5.4 20-2 3-4 5-3.4 6.3.7 1.3 7-.3 10.6-.3 3.7 0 3.9-1.2 6-3.4 2.2-2.2 2.6-9.2 3.5-12.3.8-3 .5-7.4 1.5-17.3 1-10 3.2-6 4.5-3.6 1.3 2.3-2.5 5-3 19.5-.5 14.4-5.8 15-1.7 16.7 1.6.6 10.7-3.2 12.4-4.8 1.6-1.6 4-6.1 2.5-5.2-1.5 1-1.5 1.2-4 .8-2.5-.4 2-6.8 3.1-9.8 1.3-3.2 2.6-6 2.6-12.7 0-3.4-1.3-7.9-.7-12.3.6-4 3 2.7 4 5.2 1 2.4 3.7 13.8 2.6 22.1-1 8.3-7.6 11.5-7.6 11.5s1.9.2 4.1-.9c2.3-1 11.4-6.4 16.7-11.3 5.2-5 1-4.9 1-4.9s3-3 5.5-4.8c2.4-1.8 4.6-9 6-11.8 1.2-2.8 1.7-5 3.5-9s-.3-10.3-2.6-15.4c-2.2-5-7-7.5-10.8-8.3-3.8-.8-11.7 3.2-13 3.4l-.6.1-1.3-.8c-1.3-.9.2-1.8 3.3-4.9 3.1-3 4.8-3 8.6-10 3.7-7.1-1.7-6.1-6-14.1-4.5-8-7.4-4.6-11.4-6.7-4-2-1.6-2.2-3.2-3.3-.8-.6-3.6 1.6-5.2-.2-1.6-1.9-6.7.7-11 2.5-4.4 1.9-7 5.2-7 5.2s7.5 3.5 12 6c4.3 2.3 4.3 6.3 6.1 9.6 1.9 3.4 1.7 4.1-.6 5-2.4.9-8.1-8-13-15-5-6.8-7.1-4.6-10.7-5.8-3.5-1.3-4.8 1-9.5 3.6a60.5 60.5 0 0 0-12.3 9.5z" fill="#6657A5"/>
    <path d="M51.6 34.1c-3.3-.3-.4-5.8-.3-5.7 0 0 1.5.8 2.3 2.3.7 1.2 1 3.8-2 3.4M62 29.3c1.3 4.5 3 5.3 1.6 7.5-1.3 2.2-5.7-2.6-5.8-5.5 0-1.2 2-2.8 3.6-3.6l.6 1.6M34.3 49.1c1.5 3.3 2.1 8-1.9 7.1-.6-.1-.7.2-4.5-2.6-1.7-1.3-1.5-1.5-2.6-2.7-1.5-1.6-2.1-4.6-2-7.6 3 .2 8.6.5 11 5.8M97 45.3c.2-4.9-.4-8.3-6.2-17.1-3.6-5.5-3.7-4.7-6.9-7a61.4 61.4 0 0 0-14.3-7.9c-8.1-3.4-11.4-2.2-15.3-1.5-3.9.6-9.1.3-14 .6s-7.5 2.8-9.4 6.3c-2 3.5-5.6 10.8-7.8 18.7-.5 1.6-.8 3.2-.9 4.6-3.8.2-6.7 1.3-9 2.8-1.6 1.2-3 2.7-4 4.3-2.8 4-3.2 11.4.6 17.6 3.8 6.2 6.1 9.5 23.5 22.7 17.3 13.1 20.1 14 20.7 29.2.6 15-1.6 16.8-4.6 20-3 3.4.2 2.4.4 1.6.2-.7 1.9-1.8 3-3.8 1.2-2.3 3.2-4.5 3.2-12.6s-.6-12.4-1.8-15.7c-1.2-3.3-2.2-6.5-8-11.2C40.4 92.3 30 85.3 26.5 82c-3.4-3.3-8.6-5.2-13.1-12-4.7-6.9-5.8-11.4-5-15.5.7-3.8 6.8-11.7 13.7-11.2 0 4.5 1.8 8 3.9 9.9 1.1 1 2 2 3 2.6 1.7 1 3 1.3 4.7 1.4 2.3 0 2.5-2.6 2.5-3.8 0-1.2-.3-2.5-.3-2.5-.8-3.9-4.8-9-12.4-9 .7-6.7 4.3-15.2 7.4-21.3 4.9-9.5 13.4-6.4 25.8-8 12.4-1.6 26 8.6 29.5 12.1A33.8 33.8 0 0 1 95.3 45c0 7.6-4.7 27.4-29 26.1-24.5-1.2-24.8-9.7-27.9-26.1-2-15.8 7-18.7 9.3-18.7 1.7.1 2.6 1 2.6 1.2l-.5 1a8.2 8.2 0 0 0-.7 2.1c-.8 3.1.4 5.1 4 4.3 3.7-.8 1.9-4.9-1-7.5 1-1 2.7-2 4.3-2 2 .1 3.2 0 4.5 1.6-.7.5-2.9 1.6-3.6 3.2-1.2 2.6.8 6 4.1 7.6 4 2 4.3-2.2 1.7-8.5l-.9-2c1-.6 1.6-1.6 3.7-1.6.8 0 1.5.5 2.2.9 1.6.8 3.3 2 5.8 3.3 3.4 2 3.2 3.1 3.9 3.1 0 0 1-.3 0-1.6-1-1.2-5.6-3.1-9.5-5.6-2.7-1.8-4.5-.9-6.7.7-1.3-1.7-2.6-2-4.3-2-2.6 0-4.8 1-6.2 2-.5-.4-1-.6-1.6-.8-3.7-1.4-6.5.4-9.2 3.6-3 3.4-3 5.6-3.6 10-.6 4.5 1.3 15.1 5.3 23 2.7 5.3 9.9 8 15.2 9.3a52 52 0 0 0 20.6-.3c3.8-1 7.9-1.5 14.4-10.8 4.7-6.7 4.5-10.2 4.8-15.1M184.8 148.5c3.3.2.7 5.8.6 5.7 0 0-1.5-.7-2.4-2.2-.8-1.1-1.3-3.6 1.8-3.5m-10.1 5.3c-1.6-4.3-3.2-5-2-7.3 1.2-2.3 5.8 2.3 6 5.1.1 1.2-1.7 3-3.3 3.8-.3-.4-.5-1-.7-1.6m26.5-21c-1.7-3.3-2.5-7.9 1.5-7.2.7 0 .7-.3 4.7 2.4 1.7 1.2 1.5 1.4 2.6 2.5 1.7 1.5 2.5 4.5 2.5 7.5-3-.1-8.6-.1-11.3-5.2m-62.2 7c0 4.8.8 8.1 7.1 16.6 3.9 5.3 4 4.5 7.2 6.6 3.3 2.1 6.4 4 14.7 7.1 8.3 3 11.4 1.7 15.3.8 3.8-.8 9-.7 13.9-1.3 4.8-.6 7.3-3.2 9-6.8a94 94 0 0 0 6.8-19c.4-1.6.6-3.2.6-4.6 3.9-.4 6.6-1.6 8.8-3.3 1.6-1.2 2.8-2.8 3.8-4.5 2.6-4.1 2.6-11.5-1.5-17.4-4.1-6-6.7-9.2-24.6-21.4-18-12.2-20.8-13-22.2-28-1.4-15 .6-16.8 3.4-20.3 2.8-3.4-.3-2.3-.4-1.5-.2.8-1.8 2-2.7 4-1.1 2.3-3 4.6-2.6 12.7.4 8 1.3 12.3 2.6 15.5 1.4 3.2 2.6 6.4 8.6 10.8 6 4.3 16.9 10.7 20.4 13.8 3.6 3 8.9 4.8 13.7 11.3 5 6.6 6.4 11 5.8 15.1-.5 4-6.1 12-13 12-.3-4.6-2.3-8-4.4-9.7-1.2-1-2.2-2-3.2-2.5-1.7-1-3-1.1-4.7-1.1-2.3 0-2.4 2.7-2.3 3.9 0 1.1.4 2.4.4 2.4 1 3.8 5.3 8.7 12.8 8.3a69.4 69.4 0 0 1-6.1 21.6c-4.4 9.7-13 7.1-25.3 9.3-12.2 2.2-26.3-7.3-30-10.5a33.8 33.8 0 0 1-10.2-19.7c-.4-7.5 3.2-27.5 27.6-27.5 24.3 0 25.1 8.5 29 24.7 2.8 15.6-6 19-8.2 19-1.7 0-2.7-.8-2.7-1a26 26 0 0 0 1.1-3.2c.6-3.1-.7-5-4.2-4-3.7 1-1.6 4.9 1.3 7.4a6 6 0 0 1-4 2.1c-2 0-3.3.2-4.7-1.3.6-.5 2.8-1.8 3.4-3.3 1.1-2.8-1-6-4.5-7.5-4-1.7-4.1 2.5-1.2 8.6l1 2c-1 .6-1.5 1.7-3.6 1.7-.8 0-1.5-.4-2.2-.7-1.7-.7-3.4-1.9-6-3-3.5-1.8-3.3-3-4-3 0 0-1 .4 0 1.6 1.1 1.2 5.8 2.9 9.8 5.2 2.8 1.6 4.6.6 6.7-1 1.3 1.6 2.7 1.8 4.4 1.7 2.5 0 4.7-1.2 6-2.3l1.6.7c3.8 1.2 6.5-.8 9-4 2.9-3.6 2.6-5.8 3-10.2.4-4.5-2-15-6.5-22.6-3-5.2-10.2-7.5-15.6-8.5-5.8-1-15.2-.2-20.4 1.4-3.8 1.2-7.9 1.8-13.8 11.4-4.4 7-4 10.4-4 15.4" fill="#526A32"/>
    <path d="M4.5 98.5c1.7-.4 3.5-.3 3.8-1.6.2-1.4 1.3-2.5-.1-4.1-1.4-1.6-1.9-2.2-5.3-1.6-.3 0-2 .9-2.2 2.1-.2 1.2-.3 3 .6 3.8.8 1 1.6 1.9 3.2 1.4m33.6 7.3c1.7-.5 3.5-.4 3.8-1.7.2-1.3 1.3-2.5-.1-4.1-1.4-1.6-1.9-2.2-5.3-1.6-.4.1-2 1-2.2 2.1-.2 1.2-.3 3 .5 3.8.9 1 1.6 1.9 3.3 1.5m-10.5.3c1.7-.4 3.5-.3 3.8-1.7.2-1.3 1.2-2.5-.1-4-1.4-1.7-1.9-2.3-5.3-1.6-.4 0-2 .9-2.2 2-.2 1.2-.3 3 .5 3.9.9.9 1.6 1.8 3.3 1.4m8 16.9c-.4-.7-.4-1.6-.3-2.4l-1 1c-.4.3-.8.4-1.2.5a6 6 0 0 1 2.4.9m-4.2-8l-1-1.2c-.1 0-.2 0-.3-.2 0 .7-.3 1.4-.5 2 .6-.4 1.4-.6 1.8-.7m0 7h-1c-.6-.1-1-.4-1.4-.7l.4 1.1v.7c.5-.6 1.3-.9 2-1m-2.4 6.6l-.7-1.5c-.3-1 0-2 .5-3l-1.7 1.6c-1.2 1.2-2.4.8-3.6.4l-.5-.2c1 1.4.2 2.5 0 3.6 0-.3.2-.6.4-.8.6-1 2.4-1.2 2.7-1.1 1.5.3 2.4.5 3 1m-2-9.7l1 .6c-.3-.9 0-1.7.4-2.6-.7.3-1.7.4-2.7.6-1.7.5-2.4-.5-3.3-1.4-.8-.9-.7-2.6-.5-3.8l-1.7-.8-1.3 5c1.5.6 1.7 1.4 2.2 3 .2.4.2.8.2 1.1l.2-.3c2.6-2.3 3.4-2 5.4-1.4m-4.4 11.4c-.4.4-1 .6-1.6.7.8.3 1.2.7 1.5 1.2-.2-.5-.1-1.2 0-1.9m-1-5.9l-.6-1.2a2 2 0 0 1 0-1.2c-.4.5-1 1-1.3 1.5l-.3.3c1 0 1.7.2 2.3.6m-3.1-13.8l-.5.1c-.5.2-1 .2-1.3 0l.5.6c.3.4.3 1.6.1 2.1a5.9 5.9 0 0 1-2 2.7 4 4 0 0 1 1.3-.2l.4.1 1.5-5.4m-1 13.5l-1.7-.3-1.3 2.7.2.1.5.3v-.7c.3-1.2 2-2 2.3-2.1m-.6 6.9l-.4-.4-.1.3c0 .4-.2.7-.4 1l.5-.6.4-.3m-2.2-21.7l-.5-1a8 8 0 0 1-.9.9h1.4M20.5 92l.2-2.7c-.7.6-2 .6-3.3 1H17a7.5 7.5 0 0 1 1.8 2.2l1.8-.5M15 89.6l-.9-.9-.2 1H15m28 33.7c-.3 1.3-2.1 1.2-3.8 1.7-1.4.3-2.2-.3-2.9-1l.5 1.2c.7 2-.7 3.1-1.6 3.9-1.2 1-2.5.7-4.3.5-.7 0-1.1-.3-1.5-.5.3.4.5.9.7 1.5.6 2-.7 2.6-1.5 3.7-.7 1-2.2.4-3.9.2-1.2-.2-1.7-.8-2-1.6l.2 1c.2 1.7-.2 2.4-1 3.3-.9 1-2.7 1.1-4 1-1.2 0-2.5-1.4-2.6-1.7-1-2.5-.6-3.4.2-4.4-.6.6-1.4 1-2.4 1.5-1.6.8-2.6 0-3.7-.6-1.1-.7-1.4-2-1.5-3.3-.2-1.2 1.2-2.9 1.5-3 1.4-.9 2.7-1.2 4-.8l1.1-2.4c-1.2-.5-1.6-1.5-2-2.5-.4-1.2.4-2.9 1-4l1-.8c-.8.2-1.7 0-2.8-.1-1.7-.2-2-1.3-2.4-2.4-.3-.7-.1-1.4.1-2l-2 .5a3 3 0 0 1 .1 3.3c-.7 1.3-2.4 2.7-3.9 2.6-1.4 0-3 0-3.3-1.8-.3-1.8-.5-4.7 1.7-5.4.7-.2 2.3-1.3 4 0l.6.5 2.3-.8-.3-.1c-1.2-.4-2-1.9-2.6-3-.5-1.1.5-2.6.7-2.8 2.6-2.4 3.3-2.1 5.4-1.4 1.4.4 1.7 1.2 2 2.1.2-1.2 1.8-2 2.1-2 1.7-.4 2.6-.4 3.3-.2l.9-10.3-1.4.6c0 .7-.4 1.5-.6 1.7-2.2 2.6-3 2.4-5 2-2.2-.4-2.2-1.9-2.9-3-.4-.8 0-1.4.5-2h-.8c-1.3 0-2-1-3.2-2C5.8 89 6.3 88 6.6 87c.4-1.1 1.6-1.7 2.7-2 1.1-.5 3 .3 3.2.5l1 1V85c.3-1.2 2-2 2.2-2 3.5-.7 4-.1 5.4 1.5l.3-5.1h1.9s-1.7 21.8-2 23.2l-.1 2 .4.4c1.3 1.6.3 2.8 0 4.2 0 .6-.5.9-1.1 1l-.1.5c.6.1 1.4.3 2 .6a4 4 0 0 1 1.6-1c3.5-.6 4 0 5.4 1.6l.1.2c0-.7 0-1.4.2-2 .2-1.2 1.8-2 2.1-2 3.5-.7 4-.1 5.4 1.5 1.3 1.6.3 2.8 0 4.1-.2 1.3-2 1.2-3.7 1.7 1 .4 1.6 1 2 2.2l.3.9.1.4c.6-.6 1.4-1 1.6-1 3.5-.7 4-.1 5.4 1.5 1.3 1.6.3 2.8 0 4m-7.2-5.3l.1.4v-.4M8 124.7c-1.7.5-2.4-.5-3.3-1.4-.8-.9-.7-2.6-.5-3.8.2-1.2 1.8-2 2.1-2 3.5-.7 4-.1 5.4 1.5 1.3 1.6.3 2.7 0 4-.2 1.4-2 1.3-3.7 1.7" fill="#CE7046"/>
    <path d="M11.8 93.3c-.8 1.3-.4 2 .8 2.4.9.3 1 .8 2.2.7 1.2 0 1.6-.3 1.6-.9 0-.5-.3-1.3-1-1.3s-1.5-.7-2-1c-.7-.2-1.5-.2-1.6 0zM8 87c-.8 1-1.1.7-.8 1.6.2.8.2 1.1 1.2 1.8s2 1.2 2.5 1c.8-.2.8-2 .3-2.4-.5-.5-1.4-1.3-1.7-1.8-.4-.5-1.3-.5-1.5-.2zm7.7 47.9c0 .6-.8 1.4.8 2 1.6.5 2.2 1 3.1.4 1-.6 1.5-1.1 1-1.6-.6-.4-.6.4-1.9-.5-1.2-.9-.3-1.5-1.2-2-1-.6-1.8 0-1.8.2v1.5zm-.8-18.7s-1 .4-1.3 1c-.3.5-1.8 2.6-1 4.3.7 1.8 2 2.1 2.8 2.3.9.2 2.7 0 3-1.5.1-1.5-2.3-.8-2-1.8.2-1 .7-.5 1-1.6.3-1.2-1-1-1.4-2-.4-1-1.1-.7-1.1-.7zm-5-3.7c-.5 1-.1 2.2.6 2.7.8.5 1 .8 2.2.7 1.2 0 1.6-.3 1.6-.9 0-.5-.3-1.3-1-1.3-.7-.1-1.5-.4-2-.9-.4-.4-1.2-.6-1.4-.3zm19.5 6c0 1.2-.7 1.5 0 2 .8.5 1 .8 2.3.7 1.2 0 2.2-.2 2.6-.7.4-.6-.7-2-1.4-2.1-.6 0-2 .1-2.5-.3-.4-.5-1 0-1 .4zm-20 8.2l-1 1.1-.5 1-.1 1c0 .1 0 1 .2 1.3l.5 1.3.8.7.8.5c.2 0 .3.1.4 0 0-.2.2-.3 0-.5 0-.2-.6-.5-.8-1-.1-.6-.6-1.7-.2-2.3.4-.5.8-1.2.6-1.5-.2-.3-.4-.7-.2-1l.7-.7c.4-.2.4-.6.3-.6-.2 0-.7.1-1 .3l-.5.4zm14.2 4.7c0 1.2-.7 1.5 0 2 .8.5 1 .7 2.3.7 1.2 0 1.6-.3 1.6-.9-.1-.5-.3-1.3-1-1.4-.7 0-1.6-.3-2-.8-.5-.4-1 0-1 .4zm-5.8-6.1s-.8-.5-1.4 0c-.7.5-1.2 1-1.3 1.6 0 .7-.2 2.4.2 2.8.3.5 1.1 1.4 1.6 1.5.4.2 1 .3 1.5.3s1.5-.3 1.6-.8c.2-.5 0-.9.2-1.3.3-.5.9-.6.7-1.3 0-.8-.2-1.6-1-2-.6-.5-2.1-.8-2.1-.8zm-10-20.4c-1 1.1-1 2.4-.2 3.4.9 1 1.1 1 2.4 1 1.3-.1 2-.2 2.2-1.1.2-1 .3-.8.2-1.6-.1-.7-.5-1.9-2-2-1.7 0-2.3 0-2.6.3zm14.8 15.6c-1 1-1 2.4-.1 3.3.8 1 1 1 2.4 1 1.3 0 1.9-.2 2.1-1 .3-1 .3-1 .2-1.7 0-.6-.5-1.8-2-1.9-1.6 0-2.3 0-2.6.3zm-17.2-1c-1 1-1 2.4-.1 3.3.8 1 1.1 1 2.4 1 1.3 0 2-.2 2.2-1.1.2-1 .2-.8.1-1.6 0-.7-.4-1.9-2-1.9s-2.2 0-2.6.3zm-5.2-6.3a3 3 0 0 0 1.3 2.2c1.4 1 3.2.5 3.7-.2.5-.8 1.7-1.2 2-1.1.4 0 .6.4.6.7 0 .3-.4 1.1-.7 1.5l-1 1.2c-.4.3-1.2.6-1.8.7-.4.1-1.9 0-2.8-.2-.9-.2-1-1-1.4-1.8-.3-.9 0-3.2.1-3z" fill="#FCC06D"/>
    <path d="M233 40c1.5-1 9.1-13.6 10.7-16.4 1.5-2.8 4.8-7.6 6.2-9 1.3-1.5 7.4-3.6 10-2.5 6.9 2.9-4.7 5.7-7 10.8-2.4 5-1.4 3-3.3 5.7-2.3 2.9-4.6 4.2-2.7 5 1 .5 1.7 2.3 6.7-2 5-4.4 12.5-7.2 15.4-7.5 2.9-.4 6.3 1 6.6 2.9.3 2.8-.2 1.6-3.8 2.4-3.1.7-5.1.7-5.6 2.2-.8 2.5.1 3.9 5.5 3.8 5.5 0 12 1.5 13.6 2.3 2.4 1.3 3.3 4.7-4.2 4.4-5.6-.2-10.7 1-12.7 2.9-1.4 1.3-2.5 1.4-1.5 3.5s2.1 2.9 7.2 3.4c4.7.6 11.8 6.5 10.6 8.2-1.8 2.5-10.3-1-17.3-3.5s-12.4-3.1-15.8-4.1c-2.6-.8-4-2-6.5-.8-1 .5-6.1.4 7.9 7 11.9 5.6 15.9 5.5 17.7 6.9 2 1.4-5.7 7.3-18.7 2-6-2.3-12.2-6.8-15.2-8-3-1.3-9-5.1-9.6-2.7-.2.7 0 .2 4.8 6.3 4.7 6 17.9 5.8 18.3 8.6.5 2.6-4.9 4-10.9 2.9a30 30 0 0 1-17.2-9.7c-1.6-2-2.9-3-3.8-2.7-.8.2-.8.6 1.4 4.3 2.9 4.7 11.4 9.7 9.3 12-1.6 1.7-10.5-3-13.6-7a43 43 0 0 0-6.5-7c-2.4.1-2 1.7-.2 4.8 2.3 4.3 5.7 10.3 6.6 12.2 1.3 2.7-3 1-5-.8-2.7-2.1-5-5.8-5.9-7.4-.8-1.7-1.8-4-2.6-3.1-.7.8-1.3.8-.5 3.6s4 7.1 2.9 7.8c-1.6 1-5.3-.2-6.4-2.5-1.1-2.3-2.2-5-3.9-5-1.7 0-.7 2-1.8 4.2-1 2.1-2.8 3.2-4-.7-1.2-3.8 1.9-7.5-.2-7.7-1-.2-2.2.5-2.2 2.3-.2 4-3 2.5-3-2.6-.1-1.6 0-5.8 1.4-7 1.4-1.3 4.9-1.6 4.6-3.8-.7-4.7-6.4-3-7.8-7.4-.8-2.2.5-3-1-6.3-3.4-8 2.7-6.5 3.3-2.6.2 2 1.8 1.8 2.1.7.8-2.7-.5-4.8-.3-9.1.3-6.7 12.4-10.6 6.6-4-4.3 5-1.6 9 .4 8.6 2-.4 2-1 3-6.7.9-5.7.4-7.8 2.6-9.7 2.1-1.7 4-1.2 3.3 2.8-.6 3.9-.3 5.3-.6 8-.3 2.6-.9 7.5 0 8 1.7.9 2.6-6.5 3-9.1.5-2.3 3.2-9.2 4.6-11.2 1.3-2 6.9-4 8-2.4 1 1.8-3.1 2.3-4.6 7.2-1.5 4.9-2.2 4.3-2.7 9.5-.3 4.1-1.7 6-.3 6.7 1.4.8 2.3-2.7 3.1-6.1.9-3.5 5.2-13 7.3-16.2 2.1-3 5.6-4.5 6.4-4 .7.6 1.5-.2-1 4.8-3 5.7-2.6 9.1-4 13.3-1.5 4.2-2.7 6.2-1 6.6 1.8.4 6.1-12.1 6.7-14.8a58 58 0 0 1 11.3-14.3c1.9-1.3 2 3.5-.3 8.4a80.6 80.6 0 0 0-6.3 15.4c-1 3.9-2.4 6.2-.3 6 2-.3 2.8-1 2.8-1" fill="#475726"/>
    <path d="M56.8 131.5c1.8-1.4 2-.8 2-.8s1.4-2.6 1.2-4c-.2-1.5 1-2 1.5-3.6.5-1.7 2.1-1.4 3-2 1-.5 1.5.3 1.3 1.6-.2 1.2-.5 1.3-1.2 2.3-.6 1-.1 3.8 0 5.6.2 1.8 0 2.9 1.6 4 1.5 1 1-1.6 1.5-3 .4-1.5.3-1.1.4-3.5.1-2.4.2-2.3 1.5-3.9 1.4-1.5 2-2 3.4-2.5 1.4-.4 1.7.8 1.5 1.7-.2.8-.6 2.2-1.3 3.3-.6.9-.9 3-1.2 4-.3 1-.6 5 0 7 .7 2.6 1 2 1.7 1.2s.8-3.6.9-5.6c0-2 1-3 1.8-5.7.7-2.7 2.3-3.3 3.8-3.7 1.5-.3 2.3 1.9 1.1 3.5-1.1 1.6-.9 4.8-1.7 6.8-.7 2-.9 6-.8 8.1 0 2 2.1 2.8 3.3 1.1.7-1 .8-3.8 1.2-5.3a9.3 9.3 0 0 1 3.5-5c2.3-1.7 2.4-2.1 4.7-2.3 2.4-.3.8 1.6-.6 3-1.8 2-.8 1.6-2.1 2.7-1.4 1-.7 3-1.2 4s-1 3-1 5c-.2 4 1.1 2.7 3 1.3 1.2-1 1.3-2.2 1.4-3.6 0-1.3-.1-2.2.4-4 .5-1.6 2.2-3.2 3.3-4.4 1.2-1.3 1.2-.6 1.9.2.6.8-.6 3-1.1 4.8-.6 2 0 1.5 0 2.6 0 .6-.9 3-1.7 4.3-1 1.4-.2 4.1.5 4.4.6.3.8-.4 2.7-3.2 1.8-2.7 1.6-2.8 2.5-5.2.9-2.4 1.3-2 2.7-3.9 1.7-2.3 2.6-.7 2.6.4 0 1-.3 3.3-1.2 5-.9 1.7-1.3 2.5-2.5 4-1.1 1.4-.8 4.4-.4 4.8.5.5 2-.8 3.5-2.4 1.5-1.6 1.8-2.6 2.4-4.7.6-2.2 1.8-2.6 3-3.9 1.1-1.2 2-1.2 3.9-2.3 1.8-1.2 2.6-1.2 3-.8.5.5-.3 1.4-1.2 2.8-1 1.4-.8 1.1-2 2.2-1.1 1-.8 1.3-2 2.9-1.1 1.6-3.1 5-4.5 6.7-1.5 1.7-.2 3.7 1 2.1 1.1-1.7 3-3 4.6-5.6 1.6-2.5 1.6-2.4 2.6-4.4 1.5-2.9 4.4-5.2 5.2-4 .5.8-.4 4.2-2.2 5.9-1.7 1.5-1.2 2-2 3.6s-4 6.5-3 7.3c.8.8 3.5-2.4 5.2-4.2 1.7-1.8 2.9-4.3 4.3-5.2 1.4-1 4-2.2 5-3.5 1.2-1.2 1.7-.5 2-.2.2.4.6.4-.4 2-.7 1.2-.3.6-1.9 2.2-1.5 1.6-2.2 2.4-3.9 3.7a14.6 14.6 0 0 0-3.9 6c-.6 2.4 2.5 2 4-.3 1-1.5 2-2.6 3.1-4.6 1-2 3-2.9 3.7-3.7.8-1 1.4-1.3 2.5-1.9 1.2-.5 1.5 0 1.7.7.2.7-.7 1.5-2.1 2.8-1.5 1.3-2 3.3-2.8 3.7-.8.4-3.9 3.8-3.5 5.3.3 1.4 1.3-.2 2.8-2.5l3.9-5.5c.4-.8 5-4.5 5.9-5.3.8-.8 2.2-.6 2 .7-.2 1.2-1.4 1.7-2.2 2.4-.7.7-3.5 5.4-4 6.5-.7 1-2.2 3.7-1.2 4.3 1 .7 2.3-4.7 3.2-6.6a17.7 17.7 0 0 1 8.4-7.8c1.1-.5 1.2.3.7 1.2-.4 1-1.7 1.8-2.2 2.3-.6.6-2.3 3.2-2.7 4.7-.4 1.4-2.3 4.6-2.5 5.3-.2.7.7 1.3 1.5-.2.7-1.4 1-2.5 1.3-4.4.3-1.9 2.2-4.1 3-5 .7-.9 2-2.5 3.2-3.2 1.1-.7.6.2 1.3.4.6.3-1.3 2.1-2.1 4-.9 2-1.7 4.8-2 6.4-.5 1.6 0 2.9 1 1.8 1-1-.1-1.6.3-3.8.5-2.3 1.4-2.5 2.3-4.6.8-2 1.9-3.3 2.5-4.6.5-1.2 1.3-.5 2 .5.6 1-.8 3.8-1 5-.3 1.1-.8 4.3-1.5 5.5-.7 1.1-.3 2.4.5 1.5.9-1 1.1-3.3 1.5-4.9l1-4.2c.3-1.6 1.8-2.9 2.4-2.4.6.6.3 1.8 0 3.2l-1 6.1c-.2 1.4.7.4 1.1-1 .4-1.4.7-2.2.9-4 .2-1.8 1.3-3.4 1.6-4.7.3-1.3 2-3 2.9-2.1.8.8-1 6.2-.4 6.7.5.5 1.4-6.2 1.5-7.2.1-1 .4-1.5 1.3-2 1-.5.9 1.5 1.2 2.3.4.7-1 5.6-.2 6 .2 0 .9-4.2 1-5.4.3-1.3.6-2.8 1.6-2.1 1 .6-.4 3.7.1 4.4.5.6 1-.5 1-1.7v-4c0-1.3 1.4-1.6 1.8-.5.5 1.1.7 1.3.7 2.5 0 1.3-.1 3.7.8 3 .6-.4 1-2.7.5-4.2-.4-1.6.3-1.5.6-2.9.3-1.3 1-1.8 1.9-1.3.8.4.3 2.1.1 2.7-.2.5-.3 2.3.6 3 1 .7.6-1.7.5-3 0-1.4.3-2.4.4-3 .1-.7.4-.8 1.2-.7.9 0 1 1.3 1 2s1 2.3 1 1.4c-.2-1 0-3.5.3-4.1.2-.7 1.2-1.4 1.8-.7.2.4.1 1.3.7 2.4.5 1 .2-1.3 1-2.7.7-1.4.1-.6 1-1 1-.3.3 1.5 1 1.2.8-.4.9-2.2 2-2.7 1-.4-.4 1.4.3 1 .8-.3.9-2.1 1.7-2 .9 0 .2.7 1 .4.7-.4.5-.8 1.2-1.2l2-.8s-.9.8-1.5 2.3c-.7 1.5-.8.6-1.3 1.5-.5 1 .5.1 0 1-.7 1-1.2.5-2.6 1-1.5.4 1 .4 1.8 0 .7-.3-.2 1.2-1.1 2.1-.9 1-1.7 0-3.2.5-1.5.6 2.2-.1 2.6.4.4.6-1.1 1-2.3 1.6-1.1.5-2.1 0-3.3.6-1.1.5 2 .1 3 .7.9.5 0 .7-1.2 1.2a12 12 0 0 1-5 .8c-1.5 0 0 .9 1.7.9s1.6.3 2.3 1c.8.7-.7.7-2.3 1-1.6.2-2.9.3-4.8 0-1.8-.1 2.4 1.2 3.9 1 1.5 0 1.1 0 2 .6 1 .6 0 .8-1.2 1.4-1.1.5-2.2.8-4.4.7-2.2 0-3.5-.6-4.6-.6-1.2 0 2.1 1.3 3.5 1.6 1.4.3.3.7 1.6.6 1.4-.2 2.7-.4 3 .7.4 1-.7 2-2.8 1.4-2.2-.4-1.5.3-3.5.3s-3.7-1.2-5.4-1.6c-1.8-.5.2 1.1 2 2 1.6 1 .9.5 2.3 1.8 1.3 1.2 2.4 1.4 1.6 2.3-1.4 1.6-1.9.2-4.4-.5a14 14 0 0 1-6.1-3.4c-1.4-1.3-.7 1.4 1.1 2.7 1.8 1.4 3 3 5.6 4 2.6.9 1.7 1.6 0 1.9-1.9.2-4.5-.3-6.6-1.8l-5.3-3.7c-1.8-1.2-1 .4-.5 1.2.5.8 2.3 1.9 3.8 2.6 1.5.7.7 1.2 2.7 3.3 2 2.2 1.3 3-.3 3.2-1.6 0-2-.9-3-2.3-1.2-1.4-1.9-.6-3.6-1.8-1.8-1.2-2.6-2.2-3.3-3-.6-.9-1.9-.7-1.7.2.2.9 3.3 3.7 5.3 5.1 2 1.4 2 1.5 2.6 4 .3 1.5-1.5.8-3.4.1-1.9-.7-4.5-4-6.3-5.8-2-1.8-2.3-3.1-3.5-3-1.2 0-.5 1.7 1.1 3.3 1.6 1.5 1.6 2.2 3 3.8 1.4 1.5.7 2.6 1 4.7.2 2-1.4.3-3.1-.8-1.8-1.2-4-4.4-5.2-6-1-1.7-1.4-3.3-2.3-4-1-.8-1.3 0-1.8.7-.5.6-.1 2 1.7 4.3 1.7 2.2 1 1.8 2 4.2 1.1 2.4.4 1.9-.5 3.2-.9 1.3-2-.8-3.5-3.1a29 29 0 0 1-3.1-6.2l-1.2-3c-.3-.7-1.8-.6-1.9.8-.1 1.3.3 4.3 1.2 7.7 1 3.4-.7 4.5-2.2 4.5-1.5 0-1.5-3-2.1-4.2-.7-1.2-.3-4.7-.5-6.8-.2-2.1.1-1.7-.7-2.5-.9-.8-2-.4-2 1.8l.2 4.4c0 2.6 0 2.4-.6 5.6-.7 3-1.8 1.6-3 .2-1-1.4-.5-3-.2-7.1.2-4.2-.2-1.8-.6-4.8-.3-1.9-2-.5-2.7 1-.6 1.5 0 2.1-.5 3.8-.6 2.6-.4 1.2-1.3 3.6-.6 1.6-1.5 4.2-3.2 3.1-1.9-1.2-.2-2.6.2-5.9.4-3.6 1-4.6 1-6.6-.1-2-.3-2.2-1.3-2.4-.5-.1-1.8 1.3-1.5 3.7.2 2.4 0 2.4-1.3 5.8-1.4 3.4-1.6 2.2-3 1.1-1.2-1 .1-2.7.4-4.9.3-2.2-.7-3.5-.2-5.5.5-2 0-2.5-1.1-2.1-1.2.3-1.3 3-1 4.4.4 1.4-.3 3-1.4 5.8-1 2.7-2.2 3.2-3.3 2.7-1.2-.5-1.5-3-.3-6.3 1.3-3.3 1.2-2.5 1-4.8-.3-2.2.9-2 .6-3.6-.3-1.5-1-1-2.4.7-1.4 1.6-.5 1.3-.2 3.7.2 2.4-1.8 2-2.6 3.8-.9 1.9-.2 2.4-1 4.1-.9 1.7-2.3 1.4-2.8-1-.6-2.6 1-4 1.2-6 .4-2.1 1.3-4.6 1.7-6.6.4-2-.1-2.1-1.7-1.4-1.6.8-1 1.2-1.3 3.4-.4 2.1-1.5 2.1-1.6 3.2 0 1 .3 2.2-.4 4.6-.7 2.4-2.6 3-3.6 2.1-1-.8-1-2.3-1-3.7-.3-1.5 1.5-5.9 2.5-8.5 1.1-2.6 1.1-2.3.7-3.6-.5-1.4-3-1.1-3.8-.3-.9.7-1.9 2-2.6 4.4-.7 2.4-2 5.2-3.5 7-1.1 1.4-2.9 1.7-3.7 1-.9-.9.6-2.3 1.3-5 .6-2.4 2.5-3.8 3.3-6.6.8-2.9 1.6-3.3 1.1-4.4-.4-1.2-2-.3-3.2.4-1.4.7-1.7 2.4-2.3 4-.5 1.6-2.6 4.3-4 6.8-1.3 2.5-1.8 2-3.9 3-2 .8-2-2.3-.4-4.3 1.8-2.4 2.6-3.3 3.7-6 1.5-3.8 1.8-2.5 2.7-5.3.9-2.7.5-2.4-.6-3.1-1.1-.7-2.2 0-3.5 1.1-1.3 1-3 2.8-4 3.8-.8 1-3.2 4-5 5.7-2 1.8-3.1 1.2-4.5 1.3-1.4 0 .2-3.2 1.7-6 1.6-3 2.4-1.6 4.7-3.2 2.3-1.5 3-3.1 4.8-5 1.7-1.7.4-2-.7-2.6-1.2-.6-1.6-.4-2.8-.3-1 .2-4.2 3.7-5.2 5.4-1.1 1.7-3.3 4-4.7 5-1.4 1.2-3.2 1-3.5.1-.3-.8.6-2.7 2.5-5.1 2-2.5 2.8-2.4 4.6-3.8 1.8-1.3 1.8-2.6 3-4 1.3-1.3.5-1-.3-2-.7-.9-1.3-.4-2.1-.4a13 13 0 0 0-4.4 2.5c-.8.8-5.1 3.9-6.7 4.5-1.6.6-2 0-2.2-.9-.2-.9.9-2.4 1.6-3.5a8.1 8.1 0 0 1 4.2-2.7c1.2-.2 2.1-1 4-2.2z" fill="#688538"/>
    <path d="M175.1 72.6c-3.6-6.2-4.4-13.2-2.2-15.3 2.3-2.2 9.4-5.8 9.3-3.6 0 2.2-1.4 5 1.4 4.2 2.9-.8 4.8-4.2 8.3-1.8 3.5 2.5 5.1 3 2.8 3.3-2.3.3-5.8 4.2-3.9 3.8 2-.4-.4-3.9 5.8-2 6.2 2 10.2 2 8.7 4.4-1.6 2.3-2.5 2.7-4.7 2.7-3 0-8.1 1.3-5.4 2 1.7.5 7.7.7 10 1.5 2.2.9 5.6 1.7 7.2 4.2 1.7 2.5 3.6 6.2.3 5.3-3.3-.8-3.8-.6-8-1-4.2-.5-9 2-9 2.8.1.8 10-.3 13.1.9 3.3 1.2 8.6 2.4 9.8 6.2 1.2 3.8 3.4 8-1.4 6.2-4.9-1.8-11.6-4.4-11.4-1.7.1 2.6 6.4 2.4 9.2 3.5 3 1 8.9 1.8 10.8 5.4 2 3.7 5 4.2 3.3 7.2-1.8 3-1 4.8-4.8 3-3.7-1.7-10.8-6.5-10.9-4-.2 5 8.3 6.4 12.2 11.6 4 5.2 7.4 8.5 8.2 12.7 1.2 6-2.8 3.8-6.9 3-4-.7-.5 4.7 1.7 7.7 2.1 3 3.8 9.6 5.6 12.8 1.7 3.3 2.8 5.2-.2 8.5-3 3.4-2.8 3.8-7 1.2a33.3 33.3 0 0 1-10-11.5c-1.4-3.2-5.4-11.3-6.7-8.8-1.2 2.5.7 8.4-4 7.4-4.8-1-13.5-13.2-15.4-19.1-1.6-5-.6-18.8-3-21.2-2.4-2.4-4-1.9-5.8.9-1.7 2.7-.4 10.2-3.6 9-3.2-1.2-4.9-6.6-4.4-11 .4-4.2 6.1-15 3.4-15.7-2.6-.6-5.4 1-8 3.3-2.7 2.4-4.8 8.4-7 7-4-2.4-2.5-7-.5-10.5 1.7-3 8-7.3 5.8-9.3-2.2-1.9-3.7-1.8-6.2.2-2.6 2-4.9 5-6 3.7-3.7-4-.8-7.8.9-9.5 1.6-1.6 7.6-1 5.4-3-2.2-1.9-2.9-1-4.3-.7-2.4.4-5.2 3.5-4.5-.3.6-3.9 5.8-5.6 6-7 .1-1.4-5.3 1-4-1.9 1.5-2.8 1.8-3.8 3-4.1 1.2-.3-2.3-3.8.5-4.3 2.7-.5 3.9-1.9 6 2.3 2.2 4 3.7 5 5.2 9 1.5 3.8 5.3 6.4 5.3 4.5v-4.1z" fill="#475727"/>
    <path d="M162.3 58.8c1-4.7.3-12.1 3.2-13.9 2.9-1.7 5.7-1.4 8.1-2.2 2.5-.9 4.6-1.4 4.9 1.2.2 2.6 3.3 2.3 5.7 1.4 2.4-.8 2.4-1.4 5.2-1.4 2.8 0 5-.2 3.8 2-1.2 2-1.5 1.8-3 3.1-1.6 1.4-3.3 4.1-2.2 3.4a25 25 0 0 1 6.1-2.9c3.5-1.2 6.5-2.4 8.5-1.4s4.9 4 2.2 5.2c-2.7 1.1-4.4-1.9-8.5 1.2-4.2 3-7.4 4.5-7.6 8.2-.2 3.8 4.4 5.3 9.6 4 5.1-1.5 10-2.8 14.5-2.4 4.5.4 7.3-2.5 7.6.6.3 3.2-1.7 4.8-4 5.3-2.1.5-9 1.5-10 3.6-.8 2.1 4.4 1 7.7.7 3.3-.3 11.8-2 18.2.2 6.3 2.2 10.3 3 12.3 6 2 2.9 3.9 5.8 1.3 7.8-2.6 2-7-1-10.8-1.7-3.7-.8-7.3-3.3-7 0 .4 3.5 7.2 8.3 12.7 9.7a34.8 34.8 0 0 1 16.5 9.6c3.2 4.2 10.3 13.9 11 20.4.6 6.6 2.7 11.5 1.1 15.1-1.6 3.7-2.4 7.5-4.9 7.4-2.5 0-4.5-9.6-8.2-13-3.7-3.3-10.7-9.2-14.3-12-3.6-2.8-16-10.4-19.9-12.6a52.1 52.1 0 0 1-12.9-9c-2.3-3.6-3.5-8-5.7-4.7-2.9 4.4.2 5.8-.3 8.4-.6 2.6-1 5.3-3.4 2.4-2.6-3-7.3-8.8-9.6-12.6-2.3-3.8-.4-4.3-4.3-6.7-3.9-2.5-5.8-5.5-6-7.5-.2-2-.6-5.7-2.4-4-2.4 2.1-2.8 5.7-4.3 7-1.6 1.3-4 .1-4.5-3.3-.6-3.4-2.6-6.3-1.6-7.6 1-1.2.7-5-2.2-5.2-2.8-.3-4.5-.7-5.8.6-1.3 1.2-4 4.1-4.9 1.3-.8-2.8-1.8-4.7-.3-6 1.6-1.3 2.1-1.4 3.5-1.5 1.4-.1-.8-2.8-3.8-2-3 1-7.6 2.6-8.3 3.8-.7 1.2-.7 4.4-2.7 3.5-2-1-3.5-3.7-2-5.6 1.5-1.9 5-3.1 4-4.7s-3.1-4-1.3-5.3c1.8-1.4 5.4.8 5.5-.9.1-1.7-3-3.1.5-3.5 3.6-.4 3.8-1 5.4.9 1.6 1.8 2.8 0 3.2 4 .4 4 1.4 10.5 3 10.9 2.5.6 1.4-5.3 1.4-5.3" fill="#688538"/>
  </g>
</svg>
