<?xml version="1.0" encoding="UTF-8"?>
<svg width="286px" height="179px" viewBox="0 0 286 179" version="1.1" xmlns="http://www.w3.org/2000/svg" xmlns:xlink="http://www.w3.org/1999/xlink">
    <!-- Generator: Sketch 47.1 (45422) - http://www.bohemiancoding.com/sketch -->
    <title>wellbeingHeaderMotif	@3x</title>
    <desc>Created with Sketch.</desc>
    <defs></defs>
    <g id="Symbols" stroke="none" stroke-width="1" fill="none" fill-rule="evenodd">
        <g id="wellbeingHeaderMotif-">
            <g id="leaf-motif">
                <path d="M51.5568042,34.1397914 C48.282164,33.8131017 51.248587,28.3430098 51.2983862,28.3822126 C51.2997322,28.3822126 52.795057,29.2106976 53.6187642,30.697789 C54.2957655,31.9183016 54.6833924,34.4534135 51.5568042,34.1397914 M62.0133104,29.3309194 C63.3134758,33.7556043 64.9232044,34.6010772 63.6203471,36.8134197 C62.3188358,39.0244554 57.9270763,34.2273442 57.8261318,31.3158858 C57.785754,30.1267354 59.7346561,28.5181155 61.3834166,27.6948575 C61.6095323,28.1378487 61.8194969,28.6762333 62.0133104,29.3309194 M34.3087508,49.0864974 C35.8134971,52.3952105 36.4339694,57.0812472 32.4486798,56.2200932 C31.7662949,56.0724294 31.7407223,56.4357084 27.8886794,53.5556122 C26.2008871,52.29459 26.4485376,52.0802816 25.3462235,50.9420948 C23.7728349,49.3191005 23.164476,46.2952608 23.2788797,43.2714212 C26.3341338,43.5301594 31.9089631,43.8098058 34.3087508,49.0864974 M96.9603027,45.2537741 C97.1904562,40.4017791 96.5807513,37.001593 90.7757686,28.1861988 C87.1633007,22.704346 87.0960044,23.5419783 83.9398058,21.2342425 C80.7647642,18.9147458 77.7552716,16.8095575 69.6164515,13.3335794 C61.4789774,9.85629445 58.2231802,11.1212369 54.3173003,11.7524013 C50.4114204,12.3861793 45.2026833,12.0686369 40.3196604,12.3861793 C35.4366376,12.7011081 32.8336149,15.2296862 30.880675,18.7056644 C28.927735,22.1829493 25.3462235,29.4511412 23.0675692,37.353111 C22.5884192,39.0166149 22.3111583,40.5690442 22.1994464,42.0064788 C18.3541332,42.1998791 15.5048059,43.2518198 13.2799887,44.8303843 C11.6096934,46.013001 10.292031,47.4935586 9.16683605,49.1309272 C6.37807549,53.19364 5.97968112,60.5441577 9.7644276,66.7342737 C13.55052,72.9243897 15.9408862,76.2121945 33.2750789,89.3673344 C50.6092717,102.521167 53.3980322,103.488169 53.9956238,118.577312 C54.5945613,133.665148 52.4020463,135.407057 49.4140886,138.694862 C46.4247849,141.982667 49.6132858,141.016972 49.8124829,140.242064 C50.0116801,139.46977 51.6590947,138.408682 52.7358362,136.400194 C53.9660134,134.105525 55.9889415,131.924545 55.9889415,123.799119 C55.9889415,115.676307 55.39135,111.420194 54.1961669,108.131083 C52.9996379,104.841971 52.003652,101.554166 46.2255877,96.9112524 C40.4475235,92.2683387 29.8873809,85.3046216 26.5010288,82.0168167 C23.1133307,78.727705 17.8736373,76.7845549 13.3513228,70.0220786 C8.71998832,63.0975642 7.57325858,58.6101548 8.37004732,54.547442 C9.13184195,50.6650619 15.1817834,42.8428043 22.1173448,43.2714212 C22.1483011,47.8084874 23.9330002,51.3498035 25.9976521,53.1544373 C27.1430359,54.1554144 28.0582662,55.2321836 29.0407929,55.8345994 C30.7097422,56.8577914 31.9210765,57.0812472 33.6896244,57.1661865 C35.9575113,57.2759542 36.1957403,54.5539758 36.1957403,53.3935741 C36.1957403,52.2331724 35.9171335,50.9329475 35.9171335,50.9329475 C35.0503565,47.0374998 31.0839099,41.9738098 23.5117251,41.9738098 L23.4605799,41.9738098 C24.2250664,35.20872 27.7527408,26.6742789 30.880675,20.603078 C35.7636978,11.1212369 44.3130256,14.1620644 56.6834398,12.5808863 C69.0525082,11.0010151 82.6382944,21.2342425 86.21846,24.7102206 C89.7986256,28.1861988 95.3303852,37.3295894 95.3303852,44.9153236 C95.3303852,52.5010579 90.6250248,72.2919184 66.2126024,71.0282828 C41.7974882,69.7633404 41.4758116,61.2916237 38.4205575,44.8839614 C36.4676176,29.0813285 45.4153397,26.1711768 47.7276421,26.2129931 C49.4100508,26.2979324 50.3293189,27.1904486 50.3293189,27.4060638 C50.179921,27.6857102 49.8959304,28.3051138 49.8313259,28.444937 C49.2996848,29.5961914 49.2673825,29.7268673 49.0735691,30.5174563 C48.3171581,33.6066338 49.4934983,35.6112017 53.015789,34.8232262 C56.791114,33.9803668 54.9539237,29.9150405 52.1476661,27.2727744 C53.0682801,26.2717973 54.7601103,25.2342308 56.3725307,25.3100228 C58.3766159,25.4041095 59.6202524,25.2865012 60.8800399,26.8938144 C60.2407247,27.3694746 57.9997564,28.5494777 57.2944907,30.069238 C56.053546,32.7350258 58.0818579,36.1325984 61.4009137,37.7464454 C65.3081395,39.6425523 65.6890368,35.4883664 63.1102408,29.2120043 C62.8100991,28.4802195 62.1613624,27.285842 62.242118,27.2387987 C63.2825195,26.6363829 63.8208903,25.5543867 65.9393792,25.6484734 C66.6756012,25.6798356 67.4064396,26.1202132 68.1090134,26.4651975 C69.7147042,27.2505595 71.3876914,28.4919803 73.862851,29.8392485 C77.3407261,31.7301283 77.0648111,32.8970639 77.7552716,32.9271193 C77.7552716,32.9271193 78.7310686,32.6121905 77.7552716,31.347248 C76.7781287,30.0836124 72.2208201,28.1861988 68.3149402,25.6589274 C65.6338538,23.9235519 63.7616695,24.8160681 61.5960731,26.3684974 C60.3430151,24.6605638 58.982283,24.3835309 57.251421,24.3547822 C54.7130028,24.3116592 52.4545375,25.3518391 51.1422587,26.4377556 C50.6186932,26.045728 50.0587876,25.8144317 49.5096494,25.6053503 C45.7921992,24.1875171 43.0397787,26.0365807 40.2792826,29.1518934 C37.2442174,32.5782147 37.3909234,34.8232262 36.7394948,39.2479112 C36.0894121,43.6739029 37.9965906,54.3422809 42.0061068,62.194594 C44.7343007,67.5366235 51.8677133,70.1893437 57.2473832,71.4856483 C62.9433459,72.857745 72.4536655,72.5101471 77.7552716,71.1694127 C81.5521314,70.1566747 85.66663,69.7319781 92.1768785,60.4213224 C96.8970442,53.6706069 96.7261115,50.1946288 96.9603027,45.2537741" id="Fill-1" fill="#526A32"></path>
                <path d="M149.75251,10.4516342 C151.559627,9.12789224 151.71394,9.66020339 151.71394,9.66020339 C151.71394,9.66020339 153.167134,7.0925229 152.993999,5.66100736 C152.820863,4.22949183 154.051756,3.79459608 154.539986,2.10056223 C155.030062,0.406997154 156.63119,0.689522439 157.580684,0.164471071 C158.531167,-0.364079304 158.99258,0.443981747 158.792462,1.69359251 C158.589821,2.94162535 158.30641,3.03003235 157.635149,4.00633235 C156.964564,4.98374149 157.501734,7.8473973 157.671521,9.63714721 C157.840633,11.425788 157.688784,12.4523202 159.186332,13.5382993 C160.685727,14.6247472 160.288169,11.9849662 160.680702,10.559167 C161.07373,9.13161841 160.974595,9.48898584 161.09376,7.07689059 C161.214773,4.66526412 161.306701,4.8442249 162.644027,3.24939049 C163.983695,1.65327536 164.554724,1.12219478 165.974173,0.689204492 C167.394794,0.255573846 167.71248,1.46312833 167.514045,2.35689459 C167.316599,3.24716184 166.925163,4.58510898 166.205378,5.6944172 C165.642483,6.56414445 165.325036,8.72528906 165.031563,9.70650913 C164.736739,10.6855109 164.423274,14.7640305 164.957643,16.6753565 C165.685802,19.273394 166.069371,18.652556 166.738619,17.8548186 C167.408363,17.0553317 167.530381,14.2867516 167.551839,12.3214537 C167.571448,10.355687 168.573729,9.2486824 169.357278,6.57389725 C170.139656,3.89975246 171.656905,3.2890665 173.169873,2.94543551 C174.682842,2.60180452 175.463128,4.79866973 174.315035,6.39651875 C173.163923,7.99453935 173.414077,11.2147663 172.639071,13.1735514 C171.862895,15.132977 171.7252,19.2410969 171.798615,21.2979724 C171.871353,23.3537387 173.940441,24.0887778 175.090127,22.4013273 C175.802995,21.3549552 175.884321,18.5657365 176.278026,17.139297 C176.670559,15.7134979 177.538168,13.9347826 179.821277,12.1674139 C182.104567,10.4029039 182.204123,9.95657532 184.517409,9.75508172 C186.868584,9.54913924 185.303055,11.4151499 183.918466,12.8761092 C182.1433,14.751741 183.100973,14.4322148 181.768017,15.4937512 C180.436727,16.5528977 181.075555,18.5254194 180.594021,19.5029845 C180.111993,20.4822991 179.688987,22.5266531 179.598282,24.4987561 C179.415172,28.4734696 180.701961,27.190206 182.605286,25.7783699 C183.833765,24.8656455 183.854948,23.5556297 183.963393,22.2171285 C184.070486,20.8764089 183.891314,19.9805812 184.380896,18.2887656 C184.870973,16.5952006 186.587077,15.0017872 187.731147,13.7610634 C188.877063,12.5208084 188.944419,13.1820008 189.569611,14.0025562 C190.210174,14.8457633 189.033319,16.9266558 188.481268,18.8182579 C187.924086,20.7244964 188.512855,20.2916729 188.502134,21.3652669 C188.493759,22.0456824 187.621116,24.3950296 186.75678,25.7282989 C185.893615,27.0609278 186.619761,29.8375279 187.277613,30.1122754 C187.935466,30.3870228 188.131394,29.6735687 189.952084,26.9197479 C191.776469,24.1668647 191.63417,24.1204433 192.50756,21.71597 C193.382121,19.3108562 193.789757,19.7771271 195.192422,17.8079113 C196.86772,15.4559738 197.79541,17.0723931 197.783099,18.2355886 C197.77252,19.1967119 197.465316,21.5385915 196.598127,23.2283456 C195.730938,24.9180997 195.250922,25.7188517 194.104164,27.137029 C192.956235,28.5558466 193.255334,31.5541042 193.721942,32.0043996 C194.189226,32.4558042 195.665066,31.1726966 197.19212,29.5791273 C198.718497,27.9844489 199.011474,27.0049783 199.601107,24.8650847 C200.189568,22.7258314 201.419785,22.2898265 202.565702,21.0495715 C203.710448,19.8099569 204.6544,19.8188438 206.460676,18.6730242 C208.264609,17.5284852 209.066938,17.49206 209.534222,17.9434646 C210.001506,18.3948692 209.239068,19.2805292 208.279695,20.7012523 C207.320999,22.1230845 207.465475,21.8119118 206.320894,22.8724951 C205.178161,23.9335471 205.459577,24.2055928 204.308464,25.8036134 C203.160371,27.4014624 201.189332,30.8231123 199.756475,32.50715 C198.323122,34.1929372 199.623901,36.1702927 200.725738,34.6169596 C201.925387,32.9243738 203.77648,31.6061653 205.409126,29.0305796 C207.039924,26.4545251 206.99117,26.5743492 208.003065,24.5866065 C209.45688,21.7228158 212.398761,19.3556885 213.186585,20.6581627 C213.665022,21.4480424 212.847874,24.825907 211.002441,26.4915097 C209.310508,28.0169896 209.754115,28.5345781 208.981963,30.1368784 C208.210982,31.7385384 205.09269,36.5801151 205.934234,37.3918155 C206.775777,38.2035159 209.49718,34.9675817 211.215973,33.1967149 C212.93409,31.4247389 214.090397,28.933608 215.516377,27.9631804 C216.941186,26.9933931 219.410934,25.8190411 220.555256,24.5249407 C221.652693,23.2845724 222.195075,23.9744208 222.467377,24.3416597 C222.746441,24.7199899 223.126523,24.7133038 222.133502,26.2914362 C221.396887,27.4602275 221.755307,26.949265 220.22893,28.5439435 C218.702553,30.1386219 218.035152,30.9368281 216.322395,32.1720071 C214.61081,33.4065457 212.712704,36.9273319 212.413635,38.145271 C211.823417,40.5531571 214.917111,40.1127893 216.357176,37.8924234 C217.335576,36.3799602 218.460198,35.3199377 219.519967,33.2749638 C220.578384,31.2277716 222.474081,30.4412248 223.239538,29.5553932 C224.003147,28.6690929 224.590841,28.2575606 225.726862,27.7310872 C226.865407,27.2061918 227.237955,27.701999 227.419634,28.4175146 C227.600818,29.1347797 226.696501,29.8850572 225.266496,31.2126101 C223.836491,32.5401629 223.376051,34.471887 222.522271,34.9105937 C221.66849,35.3493004 218.613048,38.7161107 218.975415,40.1506409 C219.338278,41.5834215 220.299663,39.9841358 221.832241,37.6747381 C223.366667,35.3658092 225.185181,32.9695825 225.665873,32.1699396 C226.145394,31.3709371 230.713129,27.6593866 231.570934,26.8635547 C232.429234,26.0659733 233.842482,26.3477022 233.639346,27.5974846 C233.437381,28.8466266 232.207165,29.2826315 231.444891,29.98926 C230.682123,30.6976381 227.896024,35.4078699 227.318959,36.4746383 C226.741894,37.5414067 225.202949,40.2092104 226.235061,40.8442536 C227.266001,41.4799372 228.45432,36.1289459 229.419053,34.1714258 C230.38311,32.2127966 232.195092,30.3540071 232.95786,29.6456291 C233.720133,28.9390005 236.66596,26.9113317 237.804999,26.3846868 C238.943544,25.8597914 239.02852,26.6651507 238.545815,27.6433561 C238.064958,28.6220304 236.829546,29.4158009 236.257841,29.9457723 C235.686813,30.4768529 233.958635,33.1416419 233.567273,34.5668007 C233.173569,35.9932402 231.253818,39.19164 231.057395,39.9068437 C230.86079,40.6191887 231.799382,41.1648726 232.569522,39.7411349 C233.339168,38.3191467 233.633481,37.1600044 233.937014,35.2859713 C234.240546,33.4119381 236.055876,31.1949143 236.820657,30.3079736 C237.584266,29.4216732 238.921592,27.8268388 240.060796,27.1211625 C241.200677,26.4165954 240.713018,27.2688489 241.370871,27.5435964 C242.029218,27.8165943 240.145801,29.609442 239.25965,31.5831518 C238.403212,33.4903344 237.60723,36.3035356 237.212685,37.9078973 C236.817644,39.5140086 237.371076,40.770132 238.325748,39.705425 C239.279925,38.6424676 238.153453,38.0959873 238.649566,35.8667343 C239.143832,33.6370126 239.996772,33.3762282 240.866814,31.3299892 C241.738522,29.2813603 242.789072,27.9512773 243.369997,26.706415 C243.948398,25.4599748 244.695745,26.1812068 245.34672,27.1695643 C245.9972,28.1596714 244.645294,31.0061936 244.350981,32.1653359 C244.055497,33.3251186 243.565614,36.5225725 242.893017,37.6785443 C242.219744,38.8334069 242.583328,40.1341752 243.44364,39.1580311 C244.302781,38.1825275 244.499988,35.9214929 244.894533,34.3171311 C245.288402,32.7116603 245.645262,31.58339 245.94477,30.066482 C246.244279,28.5495741 247.744472,27.2013917 248.304105,27.742796 C248.864908,28.2835598 248.62725,29.5048937 248.341395,30.8930707 C247.971112,32.6986007 247.505352,35.8177957 247.3186,37.0201699 C247.100472,38.434908 248.037903,37.4136413 248.431607,35.9872018 C248.822969,34.5620431 249.052138,33.8185838 249.258967,32.0343944 C249.466292,30.2484554 250.615557,28.649966 250.912559,27.3133702 C251.210055,25.9750249 252.924988,24.3822519 253.766532,25.1939523 C254.605732,26.0069335 252.756708,31.4396623 253.355932,31.9461101 C253.941499,32.4378419 254.799484,25.6510733 254.903229,24.6685882 C255.00765,23.6872121 255.296933,23.2421487 256.245074,22.714879 C257.195062,22.1880781 257.079245,24.241939 257.448985,24.9611096 C257.81922,25.6785306 256.426626,30.645793 257.189768,30.9088177 C257.43323,30.9930967 258.090576,26.8433893 258.291369,25.5948877 C258.493334,24.3457457 258.792843,22.8288378 259.823107,23.4634123 C260.854723,24.100205 259.445736,27.2219477 259.910331,27.8508057 C260.376279,28.4818821 260.914053,27.4070188 260.928633,26.155331 C260.942042,24.9042836 260.86259,23.3830959 260.875999,22.1320485 C260.888912,20.8827505 262.289794,20.5678685 262.720664,21.658822 C263.181747,22.8249459 263.414548,22.9608981 263.401139,24.2119455 C263.388407,25.4641021 263.256491,27.8757746 264.164444,27.221113 C264.806413,26.7577237 265.1915,24.4974854 264.736288,22.9747051 C264.279725,21.4497066 265.033949,21.4573284 265.332122,20.1200923 C265.629618,18.781747 266.342271,18.2959786 267.186667,18.7511941 C268.031063,19.2064096 267.494054,20.9433814 267.300137,21.478273 C267.105545,22.0120553 267.007023,23.7843505 267.942432,24.5092374 C268.879507,25.2317345 268.512756,22.8294721 268.431474,21.4897058 C268.351858,20.1475495 268.740367,19.0788756 268.841935,18.4539845 C268.942332,17.8297336 269.179412,17.6986309 270.027157,17.7956121 C270.876748,17.893062 271.005384,19.1004605 270.997335,19.814711 C270.989963,20.5300706 272.093795,22.0768036 271.941526,21.1943653 C271.775671,20.2409756 271.96408,17.6786283 272.253033,17.0562829 C272.543157,16.4332972 273.483349,15.7136865 274.052778,16.4479006 C274.33125,16.8073295 274.227926,17.7008535 274.782693,18.7773053 C275.338812,19.8559753 274.985334,17.5292724 275.754303,16.1061751 C276.523272,14.6830778 275.902383,15.5268383 276.850359,15.1786001 C277.796488,14.829893 277.117435,16.6105138 277.876855,16.26037 C278.635104,15.9108667 278.7013,14.077866 279.744313,13.6421739 C280.787821,13.2047323 279.353372,14.9783716 280.112792,14.6282278 C280.870365,14.2776153 280.981902,12.4908094 281.831494,12.5882594 C282.679238,12.6852405 282.012678,13.3055244 282.771422,12.9542716 C283.529671,12.6047682 283.250943,12.1552691 284.010363,11.8051254 C284.767936,11.4545129 286,11.0189767 286,11.0189767 C286,11.0189767 285.142871,11.8159178 284.466746,13.3272653 C283.788953,14.8410026 283.704818,13.8577211 283.223961,14.8363954 C282.741257,15.8146008 283.693422,14.930206 283.11954,15.8177714 C282.54264,16.7055085 281.980996,16.3426668 280.561051,16.7774066 C279.140926,17.2092878 281.593328,17.2334185 282.352748,16.8832747 C283.110321,16.5326622 282.152119,17.952745 281.292978,18.9282486 C280.433838,19.9037523 279.595478,18.9128489 278.079326,19.4356829 C276.563669,19.9567674 280.346849,19.2769557 280.717925,19.8164545 C281.089678,20.3570624 279.574021,20.8781469 278.436152,21.4041514 C277.298284,21.9301559 276.265331,21.4730349 275.126292,21.9996798 C273.989595,22.525044 277.107716,22.1068131 278.046308,22.6524971 C278.983547,23.1959627 278.038259,23.3667475 276.900391,23.8927521 C275.761846,24.4176475 273.587677,24.8447654 271.983861,24.7396936 C270.380045,24.6346218 271.927964,25.5880614 273.626141,25.6045702 C275.325489,25.6204387 275.227269,25.8870955 275.928781,26.5638822 C276.699384,27.3078914 275.165336,27.2711512 273.558172,27.5243138 C271.951684,27.7785855 270.724139,27.8552468 268.840094,27.659379 C266.954202,27.4630425 271.186062,28.8434484 272.697019,28.67838 C274.210499,28.5148896 273.829527,28.6891725 274.76929,29.2342161 C275.706035,29.7794313 274.66571,30.0376699 273.527166,30.5625653 C272.390469,31.0879295 271.252765,31.4349026 269.083956,31.3252235 C266.915147,31.2155445 265.598948,30.6677991 264.46644,30.6570066 C263.335103,30.6455738 266.623687,32.0182019 268.036259,32.2988217 C269.449507,32.5805507 268.311383,33.016485 269.63446,32.8506203 C270.958708,32.6841152 272.281108,32.5171414 272.646824,33.5934371 C273.013035,34.6679834 271.918075,35.5077065 269.75329,35.0409021 C267.586658,34.5736291 268.28817,35.2504158 266.305905,35.3212048 C264.323641,35.3919938 262.637701,34.1250779 260.850029,33.6620845 C259.061681,33.197982 261.120708,34.8258341 262.809501,35.7362652 C264.498788,36.6449467 263.794964,36.1897739 265.2448,37.5458504 C266.48335,38.7039303 267.648077,38.8597812 266.777043,39.8388299 C265.399918,41.3888759 264.935231,39.9555715 262.39467,39.3052845 C259.853614,38.656747 257.698214,37.2960204 256.295191,35.942447 C254.893339,34.5882332 255.620582,37.2769814 257.400041,38.6332566 C259.179005,39.9912813 260.341088,41.6540514 262.973832,42.5733694 C265.606577,43.4926874 264.70226,44.242965 262.906539,44.4942221 C261.110819,44.7454792 258.474726,44.1843955 256.414363,42.7362151 C254.351476,41.2864569 252.853251,40.1993687 251.074123,39.0203753 C249.292652,37.8426627 250.125651,39.3703631 250.590082,40.1782525 C251.052847,40.9885319 252.929174,42.075932 254.430251,42.8065354 C255.93367,43.535858 255.078042,43.9740959 257.132881,46.1381046 C259.186548,48.3027537 258.422939,49.1890541 256.817111,49.2625449 C255.211959,49.3371448 254.844907,48.4405208 253.727143,46.9990092 C252.60956,45.5603561 251.940312,46.3580935 250.159336,45.1786314 C248.379036,44.0002784 247.586932,42.9648592 246.933945,42.1550643 C246.283301,41.3439886 245.008328,41.4658062 245.186329,42.3622743 C245.366672,43.2574616 248.544799,46.1471536 250.51349,47.5064434 C252.480334,48.8652645 252.57453,48.9557329 253.113877,51.4617947 C253.447945,53.0138388 251.594377,52.342863 249.713845,51.6097295 C247.83516,50.8770647 245.226049,47.6348547 243.35759,45.8303455 C241.490302,44.0251959 241.127019,42.6813764 239.898979,42.7597873 C238.670263,42.837089 239.408481,44.5423135 240.996201,46.0758862 C242.584597,47.6105681 242.577224,48.3259277 243.976388,49.8575949 C245.376227,51.3903713 244.702954,52.545234 244.964925,54.6040149 C245.227392,56.6610464 243.640513,54.9495514 241.859537,53.7700893 C240.079237,52.5917363 237.84841,49.3526969 236.733334,47.7337318 C235.616412,46.1142979 235.303665,44.4589075 234.367761,43.7357701 C233.431181,43.0115235 233.092112,43.8564786 232.614108,44.4786679 C232.136599,45.0991078 232.497119,46.5331692 234.267194,48.7833666 C236.036774,51.0353136 235.380934,50.5820035 236.394276,53.0048912 C237.406267,55.4255606 236.658755,54.88336 235.793742,56.2155202 C234.930577,57.5481491 233.821538,55.3934961 232.335551,53.0560008 C230.850736,50.7178651 230.201773,49.550945 229.191614,46.9488543 C228.180283,44.347404 228.412919,44.6623876 228.043855,43.9443262 C227.672943,43.225796 226.208243,43.3463485 226.100474,44.6859589 C225.992029,46.0244602 226.433667,48.9773193 227.340247,52.3828638 C228.249168,55.7871275 226.631943,56.9331032 225.122999,56.9196089 C223.614055,56.9061147 223.645061,53.8678632 222.996593,52.6991935 C222.34763,51.5322733 222.667919,48.0489584 222.500985,45.9027236 C222.335222,43.7558484 222.613454,44.2070971 221.772406,43.3936472 C220.932034,42.5813064 219.841364,43.0489706 219.8188,45.2071244 C219.796684,47.3532032 219.940012,46.9761101 220.007863,49.6334847 C220.076412,52.2254077 220.078425,52.0468451 219.384371,55.1681147 C218.706109,58.2230749 217.57323,56.8489819 216.456818,55.4096885 C215.339054,53.9681769 215.923327,52.3650802 216.154286,48.2562493 C216.386416,44.1467781 215.994001,46.4539098 215.583322,43.5210948 C215.320015,41.6419856 213.61406,43.0035852 212.938115,44.5177914 C212.260818,46.0297792 212.820415,46.5993011 212.41969,48.3164767 C211.826409,50.8576559 211.982162,49.5199083 211.108772,51.9243817 C210.547862,53.4659025 209.577737,56.1317842 207.889785,55.0434309 C206.00161,53.8264542 207.705887,52.4288013 208.092881,49.147111 C208.530107,45.4534542 209.115374,44.5256502 209.042635,42.4698838 C208.96922,40.4130084 208.785164,40.2622359 207.840617,40.0910006 C207.322677,39.9970767 206.034295,41.3699418 206.291566,43.7847388 C206.549513,46.200645 206.360957,46.1987395 205.003691,49.5820587 C203.648272,52.9658467 203.376917,51.800988 202.067249,50.7158052 C200.757086,49.632372 202.096078,48.0351477 202.401788,45.8035206 C202.708173,43.5730025 201.683014,42.3115608 202.177115,40.2608705 C202.669368,38.2097114 202.20234,37.8483771 201.064637,38.1953502 C199.929951,38.5421518 199.808774,41.1328097 200.169789,42.5651215 C200.533328,43.9990113 199.762347,45.6006713 198.695205,48.3610048 C197.626216,51.1208695 196.490195,51.6473428 195.363047,51.0997534 C194.236575,50.5532731 193.884432,48.0468985 195.146167,44.7527826 C196.407225,41.4575576 196.305492,42.2614801 196.045533,40.0241366 C195.78625,37.7879021 196.963003,37.9327413 196.695672,36.4107574 C196.428341,34.8887734 195.619481,35.462636 194.282831,37.0585795 C192.94501,38.6551634 193.796778,38.3950194 194.05522,40.809176 C194.312672,43.2268317 192.335767,42.7608237 191.466566,44.6291405 C190.598041,46.4985664 191.348572,47.0405954 190.479535,48.7298807 C189.613022,50.420744 188.201622,50.1394838 187.660923,47.6312038 C187.1209,45.1240328 188.645942,43.7090261 188.949639,41.6559616 C189.253337,39.602897 190.224106,37.1096891 190.622675,35.1482021 C191.020568,33.185606 190.50434,32.9561708 188.891815,33.7461303 C187.278614,34.5349807 187.982558,34.9442437 187.582653,37.0854024 C187.181577,39.2272015 186.05024,39.2157687 186.038843,40.2882536 C186.027447,41.3607384 186.298126,42.524488 185.613292,44.9308668 C184.927287,47.337886 183.034022,47.8569091 182.005094,47.0426628 C180.974319,46.2279478 181.084776,44.7108839 180.91164,43.2793684 C180.738505,41.8478529 182.482432,37.395391 183.548733,34.8129797 C184.612692,32.2318492 184.610259,32.4993729 184.151865,31.1557956 C183.695136,29.8098285 181.23796,30.0545022 180.380831,30.8514433 C179.523703,31.6483843 178.519153,32.8438813 177.834319,35.2502601 C177.148314,37.6572793 175.860657,40.504166 174.267104,42.3677532 C173.16887,43.6529223 171.419241,44.0386949 170.578869,43.2263541 C169.737326,42.4146537 171.215855,40.9540926 171.903196,38.3674017 C172.5495,35.9362449 174.445519,34.5047415 175.228738,31.6526744 C176.013128,28.799967 176.772548,28.4498233 176.313807,27.2824187 C175.853401,26.117404 174.380232,27.0411681 173.052471,27.744939 C171.723359,28.4464915 171.421838,30.141962 170.839413,31.7455275 C170.256311,33.3479837 168.152869,36.0094306 166.806835,38.4992964 C165.458954,40.9886934 164.992346,40.5383979 162.906501,41.4126407 C160.81998,42.2857744 160.98698,39.165774 162.477596,37.207625 C164.334167,34.7713649 165.056204,33.927019 166.174543,31.2096784 C167.726091,27.4406319 168.041581,28.6804434 168.918996,25.9188448 C169.797581,23.1566058 169.416445,23.5099201 168.291309,22.7837681 C167.166849,22.0587252 166.121164,22.8537608 164.788027,23.9124386 C163.455071,24.973975 161.737449,26.7442014 160.87948,27.7190648 C160.019168,28.6952088 157.62895,31.621407 155.723448,33.3908371 C153.817946,35.1602672 152.691474,34.613787 151.274202,34.6891832 C149.857606,34.7656886 151.496947,31.4736342 153.037409,28.6290174 C154.576519,25.7821824 155.41036,27.1319605 157.692809,25.5453727 C159.974582,23.9576758 160.746735,22.3553755 162.464356,20.585149 C164.180626,18.8127043 162.850172,18.4797923 161.783626,17.9419552 C160.610642,17.3499206 160.230346,17.5253126 159.049989,17.6486375 C157.908694,17.7668732 154.812178,21.3173354 153.756433,23.0051841 C152.700193,24.6947823 150.507074,26.906886 149.078405,28.0547671 C147.651584,29.203117 145.861899,28.9186862 145.586025,28.1127022 C145.312493,27.3054375 146.180523,25.4377611 148.094568,22.952331 C150.007442,20.4675413 150.855862,20.5656316 152.662979,19.2418897 C154.468925,17.9187881 154.483925,16.5781391 155.724202,15.2493212 C156.965651,13.9198628 156.160139,14.135491 155.415975,13.2350561 C154.669963,12.3341524 154.051251,12.8203189 153.297026,12.812697 C152.54163,12.8057155 149.786537,14.4776957 148.929409,15.2746368 C148.07228,16.0715778 143.792821,19.1596739 142.182804,19.7693213 C140.571615,20.3796091 140.199863,19.8390012 140.020196,18.944923 C139.841025,18.0490953 140.894758,16.5398092 141.568031,15.3849466 C142.239951,14.2278657 144.708944,12.821746 145.843465,12.6539758 C146.977985,12.4862057 147.946069,11.7764852 149.75251,10.4516342 Z" id="Fill-10" fill="#475727"></path>
                <path d="M169.831966,155.514301 C173.10952,155.6745 170.450702,161.268418 170.398358,161.233252 C170.398358,161.233252 168.864269,160.483055 167.962338,159.045177 C167.224151,157.86518 166.70205,155.360615 169.831966,155.514301 M159.67853,160.830803 C158.144441,156.492423 156.49627,155.733109 157.674686,153.465586 C158.85176,151.198063 163.483552,155.750041 163.739904,158.642728 C163.844593,159.82533 161.989728,161.523693 160.393901,162.427577 C160.142917,161.997776 159.905355,161.472899 159.67853,160.830803 M186.203628,139.764068 C184.527271,136.547077 183.658894,131.915651 187.671951,132.569469 C188.361821,132.681477 188.367189,132.318101 192.356087,134.989376 C194.104921,136.161559 193.870043,136.386878 195.028327,137.462682 C196.68321,138.998242 197.450925,141.976889 197.499243,144.993307 C194.444488,144.891718 188.87721,144.894323 186.203628,139.764068 M124.020036,146.752884 C124.050906,151.594 124.841438,154.947746 131.097243,163.426537 C134.988163,168.701361 135.009638,167.863901 138.277796,170.001182 C141.563403,172.148882 144.675871,174.092101 152.96639,177.139777 C161.256909,180.186151 164.431117,178.763902 168.287141,177.936861 C172.143165,177.109821 177.346718,177.159313 182.191913,176.597968 C187.037109,176.036622 189.493261,173.387489 191.252832,169.827959 C193.011061,166.269732 196.185268,158.852418 198.029396,150.873759 C198.41728,149.192327 198.609208,147.633324 198.644105,146.198051 C202.462548,145.809928 205.243503,144.619511 207.376194,142.935475 C208.973364,141.672122 210.206809,140.131352 211.238929,138.446013 C213.798428,134.26132 213.79977,126.924756 209.696788,120.955739 C205.593807,114.98542 203.035651,111.83355 185.066819,99.6194024 C167.097988,87.4052547 164.267373,86.5834241 162.86079,71.5964122 C161.454207,56.6094002 163.542607,54.7651655 166.34101,51.3410885 C169.140754,47.915709 166.018891,49.0397024 165.861859,49.8211578 C165.704826,50.6000083 164.121078,51.7396307 163.156065,53.7922536 C162.055494,56.1392246 160.159023,58.4119573 160.595225,66.4987182 C161.031427,74.585479 161.856855,78.7910114 163.223173,82.0040955 C164.592176,85.2158772 165.761197,88.4393806 171.763334,92.7673411 C177.766813,97.0953015 188.657096,103.491514 192.20845,106.592589 C195.75712,109.693665 201.080124,111.363374 205.948137,117.863781 C210.932917,124.520478 212.315341,128.930492 211.740897,133.014898 C211.190612,136.916966 205.588438,145.008936 198.657526,144.934698 C198.381041,140.419188 196.414778,136.984692 194.261954,135.294143 C193.067432,134.355094 192.098393,133.331388 191.087747,132.781764 C189.371125,131.846623 188.151102,131.686424 186.387504,131.690332 C184.120597,131.695541 184.030672,134.417611 184.093753,135.57156 C184.155493,136.726812 184.504454,138.008398 184.504454,138.008398 C185.574155,141.841437 189.797931,146.681251 197.338183,146.297035 C197.355632,146.295733 197.371737,146.29443 197.387843,146.293128 C196.990564,153.064439 193.937151,161.738594 191.150828,167.940745 C186.798205,177.625582 178.121144,175.032452 165.88736,177.232249 C153.653576,179.430744 139.574322,169.934758 135.821644,166.656553 C132.068966,163.377045 126.068171,154.558321 125.660155,147.00816 C125.252138,139.459301 128.873285,119.520466 153.253612,119.542608 C177.632598,119.563446 178.41105,127.978418 182.335524,144.155847 C185.129901,159.784955 176.377678,163.134794 174.070506,163.210335 C172.390122,163.210335 171.427794,162.37027 171.417057,162.156672 C171.549931,161.870139 171.800914,161.238462 171.855943,161.096498 C172.323015,159.92171 172.349858,159.791467 172.498837,158.995685 C173.086703,155.880283 171.807625,153.944879 168.342169,154.907371 C164.628414,155.938892 166.675207,159.891754 169.611852,162.379387 C168.748844,163.421328 167.120804,164.541414 165.510213,164.547926 C163.510395,164.554438 162.278293,164.734173 160.937475,163.198613 C161.546816,162.693272 163.715746,161.405173 164.337165,159.857891 C165.429683,157.141031 163.2272,153.860221 159.83422,152.424948 C155.841296,150.735702 155.685605,154.889137 158.591381,161.004026 C158.929605,161.717755 159.639607,162.874309 159.561762,162.925103 C158.559169,163.576316 158.080018,164.680773 155.966117,164.696402 C155.229271,164.701612 154.480346,164.299162 153.760948,163.993092 C152.119487,163.292387 150.388102,162.142346 147.848736,160.92588 C144.285302,159.219702 144.497364,158.043612 143.807494,158.048822 C143.807494,158.048822 142.851876,158.413501 143.893392,159.62085 C144.933565,160.830803 149.573411,162.487488 153.599889,164.805806 C156.363396,166.396068 158.177995,165.414039 160.251632,163.758656 C161.591107,165.394502 162.962794,165.601588 164.687469,165.542979 C167.218782,165.458321 169.410528,164.306977 170.657395,163.15954 C171.202311,163.522917 171.771387,163.726095 172.328383,163.904527 C176.109246,165.128808 178.750616,163.147818 181.330247,159.908686 C184.168914,156.343947 183.901825,154.115496 184.312525,149.679435 C184.723226,145.24207 182.248284,134.719774 177.833921,127.107096 C174.830168,121.928651 167.582507,119.649406 162.156156,118.633514 C156.410371,117.555106 146.957542,118.382146 141.751305,119.986735 C138.024128,121.186269 133.949332,121.816643 127.967327,131.414217 C123.629467,138.373078 123.987824,141.823203 124.020036,146.752884" id="Fill-12" fill="#526A32"></path>
                <g id="nuts" transform="translate(0.000000, 79.000000)">
                    <path d="M4.5468,19.5400549 C6.2388,19.1108242 8.03213333,19.2028022 8.2908,17.8703984 C8.54946667,16.5379945 9.5748,15.3588874 8.20013333,13.7594918 C6.8268,12.1588187 6.34146667,11.5609615 2.87613333,12.2252473 C2.55746667,12.2865659 0.904133333,13.0990385 0.704133333,14.2973077 C0.5068,15.493022 0.409466667,17.2125 1.2588,18.118228 C2.1068,19.023956 2.8548,19.9680082 4.5468,19.5400549 M38.1308,26.7628846 C39.8228,26.3336538 41.6161333,26.4269093 41.8748,25.0945055 C42.1334667,23.7621016 43.1588,22.581717 41.7854667,20.9823214 C40.4094667,19.3829258 39.9254667,18.7850687 36.4614667,19.4493544 C36.1414667,19.5106731 34.4881333,20.3218681 34.2908,21.5201374 C34.0908,22.7171291 33.9948,24.4353297 34.8428,25.3410577 C35.6908,26.2467857 36.4388,27.1908379 38.1308,26.7628846 M27.6214667,27.0911951 C29.3134667,26.6632418 31.1081333,26.7552198 31.3654667,25.4215385 C31.6254667,24.0904121 32.6494667,22.9100275 31.2748,21.3106319 C29.9014667,19.7112363 29.4148,19.1133791 25.9521333,19.7776648 C25.6321333,19.837706 23.9788,20.6501786 23.7801333,21.8484478 C23.5814667,23.0454396 23.4854667,24.7649176 24.3334667,25.6706456 C25.1828,26.5763736 25.9294667,27.5191484 27.6214667,27.0911951 M35.5121333,43.9883242 C35.2214667,43.2933791 35.1961333,42.4119231 35.2668,41.6147802 C34.9748,41.9418132 34.6214667,42.2356319 34.2761333,42.5498901 C33.9214667,42.8718132 33.5294667,43.0289423 33.0921333,43.087706 C34.2908,43.3432005 35.0214667,43.6153022 35.5121333,43.9883242 M31.3228,35.9121429 C30.9161333,35.6221566 30.5734667,35.2286951 30.2121333,34.8428984 C30.1521333,34.7803022 30.0988,34.7138736 30.0494667,34.6436126 C29.9934667,35.3296154 29.6694667,35.9709066 29.4988,36.6441346 C30.1108,36.2455632 30.8828,36.0002885 31.3228,35.9121429 M31.2828,42.9906181 C31.0001333,42.9510165 30.7041333,42.9075824 30.3948,42.8718132 C29.6988,42.7875 29.2428,42.5460577 28.9161333,42.2126374 C29.0161333,42.5946016 29.1028,42.9816758 29.2508,43.347033 C29.3468,43.576978 29.3694667,43.7941484 29.3401333,44.0010989 C29.7881333,43.4109066 30.6188,43.1170879 31.2828,42.9906181 M28.9054667,49.5708791 C28.6094667,49.1237637 28.4294667,48.5923352 28.2281333,48.0609066 C27.8894667,47.1679533 28.2428,46.0310027 28.7281333,45.0588462 C28.2508,45.5621703 27.5761333,46.064217 26.9921333,46.6595192 C25.7934667,47.8795055 24.6361333,47.4553846 23.4161333,47.1155769 C23.2268,47.0632005 23.0454667,46.9801648 22.8721333,46.877967 C23.8868,48.275522 23.1014667,49.3588187 22.8081333,50.5443132 C22.9641333,50.2262225 23.1361333,49.927294 23.3001333,49.6654121 C23.9174667,48.6804808 25.6708,48.5259066 25.9748,48.5808379 C27.4948,48.854217 28.3548,49.1493132 28.9054667,49.5708791 M26.9081333,39.9004121 C27.4001333,40.0600962 27.7601333,40.2683242 28.0321333,40.511044 C28.0321333,40.5097665 28.0308,40.508489 28.0294667,40.5072115 C27.7014667,39.6423626 27.9801333,38.7621841 28.4174667,37.9407692 C27.6881333,38.2141484 26.6788,38.2882418 25.7028,38.534794 C24.0121333,38.9640247 23.2641333,38.0199725 22.4148,37.1142445 C21.5668,36.2085165 21.6628,34.4903159 21.8614667,33.2933242 C21.8641333,33.276717 21.8668,33.2613874 21.8708,33.2460577 C21.2134667,32.9803434 20.5214667,32.6724725 20.1654667,32.5025687 C19.7134667,34.4200549 19.1908,36.3515934 18.8681333,37.5153709 C20.3628,38.1017308 20.6214667,38.9193132 21.1174667,40.4267308 C21.2694667,40.8891758 21.3148,41.2864698 21.2841333,41.6390522 C21.3921333,41.4665934 21.4854667,41.3426786 21.5428,41.2928571 C24.1188,38.9767995 24.8588,39.2386813 26.9081333,39.9004121 M22.4694667,51.3478434 C22.1361333,51.7234203 21.5748,51.900989 20.9134667,52.0364011 C21.6681333,52.3033929 22.1081333,52.7236813 22.3841333,53.2308379 L22.3761333,53.2103984 C22.1654667,52.6546978 22.2508,51.992967 22.4694667,51.3478434 M21.4934667,45.4012088 C21.2308,44.9821978 21.0121333,44.5414698 20.8401333,44.1505632 C20.6761333,43.7788187 20.6734667,43.3598077 20.7508,42.9612363 C20.3734667,43.4824451 19.8774667,43.9359478 19.5188,44.4763187 C19.4174667,44.6270604 19.3028,44.7458654 19.1761333,44.8403984 C20.2908,44.7726923 20.9308,44.9681456 21.4934667,45.4012088 M18.3894667,31.6134478 C18.2281333,31.6479396 18.0668,31.6837088 17.9068,31.7233104 C17.4041333,31.8510577 16.9828,31.8574451 16.6201333,31.7782418 C16.7614667,31.9468681 16.9134667,32.1321016 17.0761333,32.3416071 C17.3628,32.7069643 17.3761333,33.8732967 17.2041333,34.4200549 C17.0334667,34.9668132 16.5441333,35.9172527 15.5428,36.8306456 C15.4254667,36.9353984 15.3054667,37.023544 15.1828,37.0950824 C15.8001333,36.9200687 16.3788,36.8932418 16.5481333,36.9226236 C16.6814667,36.9481731 16.8094667,36.9724451 16.9348,36.996717 C17.2414667,35.8942582 17.8841333,33.557761 18.3894667,31.6134478 M17.4174667,45.0818407 C16.8881333,45.0077473 16.3068,44.8723352 15.7054667,44.7714148 C15.5321333,45.3462775 14.7908,46.7987637 14.4121333,47.483489 C14.4748,47.5218132 14.5388,47.5639698 14.6028,47.6074038 C14.7974667,47.7389835 14.9561333,47.8437363 15.0788,47.926772 C15.1041333,47.6597802 15.1388,47.4030082 15.1788,47.1653984 C15.3774667,45.9684066 17.0308,45.1559341 17.3508,45.0946154 C17.3734667,45.0895055 17.3948,45.0856731 17.4174667,45.0818407 M16.7641333,51.9980769 C16.6214667,51.8882143 16.4841333,51.7668544 16.3521333,51.6365522 C16.3321333,51.7374725 16.3134667,51.8396703 16.2961333,51.9405907 C16.2348,52.2855082 16.1054667,52.5716621 15.9214667,52.8246016 C16.0681333,52.6738599 16.2228,52.5154533 16.3868,52.3429945 C16.5134667,52.2114148 16.6388,52.0964423 16.7641333,51.9980769 M14.5934667,30.2733791 C14.3548,30.0076648 14.1934667,29.6780769 14.0894667,29.3101648 C13.8508,29.5988736 13.5348,29.88375 13.1961333,30.1801236 C13.7748,30.2120604 14.2001333,30.1980082 14.5934667,30.2733791 M20.4841333,12.9304121 C20.5561333,12.0195742 20.6241333,11.1202335 20.6908,10.2438874 C19.9961333,10.797033 18.6734667,10.8264148 17.4081333,11.1470604 C17.2308,11.191772 17.0654667,11.2198764 16.9081333,11.2364835 C17.6588,11.7755769 18.2894667,12.6365934 18.7241333,13.3417582 C18.7334667,13.3558104 18.7414667,13.3698626 18.7481333,13.3839148 C19.3921333,13.1986813 20.0814667,13.0223901 20.4841333,12.9304121 M15.0228,10.6335165 C14.7041333,10.3665247 14.4174667,10.0433242 14.1188,9.72395604 C14.1054667,9.71118132 14.0921333,9.69585165 14.0788,9.68052198 C14.0601333,9.98072802 13.9961333,10.2937088 13.8868,10.6220192 C14.2548,10.5658104 14.6348,10.5875275 15.0228,10.6335165 M42.9561333,44.390728 C42.6961333,45.7244093 40.9028,45.6311538 39.2108,46.0603846 C37.7934667,46.4193544 37.0374667,45.8125549 36.3294667,45.0741758 C36.4814667,45.4139835 36.6121333,45.81 36.7668,46.2813874 C37.4534667,48.3611126 36.1388,49.4009753 35.1681333,50.1674588 C33.9534667,51.1255632 32.6841333,50.9071154 30.8548,50.6886676 C30.2348,50.6132967 29.7854667,50.4267857 29.4441333,50.1623489 C29.7068,50.5736951 29.8721333,51.0808516 30.0868,51.7336401 C30.7041333,53.6051374 29.3668,54.2936951 28.6468,55.3782692 C27.9281333,56.4615659 26.3854667,55.7717308 24.7414667,55.575 C23.4828,55.4242582 23.0068,54.7548626 22.6694667,53.9653846 C22.7588,54.29625 22.8161333,54.6475549 22.8694667,55.0078022 C23.1161333,56.667239 22.6761333,57.3941209 21.8561333,58.3241209 C21.0388,59.2553984 19.2481333,59.4023077 17.9828,59.3805907 C16.7174667,59.3575962 15.4094667,57.9012775 15.3014667,57.6074588 C14.3908,55.1125549 14.6734667,54.2336538 15.5361333,53.2423352 C14.9374667,53.7712088 14.0588,54.1531731 13.1001333,54.6769368 C11.5161333,55.5430632 10.4988,54.782967 9.3908,54.0892995 C8.2828,53.3956319 7.9948,52.0772802 7.8588,50.8202473 C7.72546667,49.5632143 9.0828,47.9088874 9.37213333,47.7389835 C10.7641333,46.926511 12.0894667,46.556044 13.4668,47.0287088 C13.7361333,46.2417857 14.1574667,45.2402473 14.5054667,44.5516896 C13.2534667,44.1454533 12.9441333,43.1055907 12.5508,42.068283 C12.0921333,40.8636264 12.8934667,39.2220742 13.5774667,38.1285577 C13.7961333,37.7785302 14.1441333,37.5243132 14.5254667,37.3403571 C13.7294667,37.5000412 12.7841333,37.2879808 11.6614667,37.1525687 C10.0174667,36.9558379 9.7068,35.8712637 9.29746667,34.7892445 C9.03746667,34.1057967 9.1548,33.4146841 9.4308,32.7503984 C8.81746667,32.9407418 7.95613333,33.1566346 7.33746667,33.2984341 C8.1868,34.5030907 8.0308,35.6234341 7.52413333,36.5955907 C6.8388,37.9088324 5.12546667,39.3306593 3.6388,39.2220742 C2.1548,39.1122115 0.6708,39.1122115 0.3268,37.3607967 C-0.0158666667,35.6106593 -0.243866667,32.6558654 2.04013333,31.997967 C2.7068,31.8076236 4.32546667,30.6860027 6.0388,31.997967 C6.2388,32.1512637 6.4188,32.303283 6.5828,32.4540247 C7.24813333,32.1819231 8.15213333,31.8778846 8.9108,31.6632692 C8.80546667,31.6338874 8.70146667,31.603228 8.5948,31.5738462 C7.3748,31.2340385 6.50946667,29.7266209 6.0188,28.6101099 C5.5268,27.4923214 6.4828,25.9644643 6.72013333,25.7511264 C9.29613333,23.4350687 10.0374667,23.6969505 12.0854667,24.3586813 C13.4668,24.8057967 13.8174667,25.6438187 14.0574667,26.5291071 L14.0654667,26.4805632 C14.2641333,25.2835714 15.9174667,24.4698214 16.2361333,24.4110577 C17.8654667,24.0967995 18.8361333,24.0635852 19.5494667,24.2833104 C19.8054667,21.4562637 20.1108,17.7209341 20.3988,14.0405357 C19.9548,14.2168269 19.4548,14.3969505 18.9774667,14.5528022 C18.9254667,15.3499451 18.5641333,16.1062088 18.4308,16.2646154 C16.2041333,18.8923764 15.4321333,18.7288599 13.3081333,18.3366758 C11.1854667,17.9444918 11.1894667,16.4089698 10.5028,15.2247527 C10.1001333,14.5310852 10.4254667,13.8936264 10.9694667,13.2101786 C10.7308,13.2331731 10.4854667,13.2485027 10.2388,13.2714973 C8.90546667,13.3928571 8.1468,12.3555495 6.98013333,11.2262637 C5.81346667,10.0982555 6.26946667,9.06350275 6.64413333,7.96743132 C7.02013333,6.87263736 8.16013333,6.31949176 9.28146667,5.91070055 C10.4014667,5.50190934 12.2374667,6.25434066 12.4601333,6.45873626 C12.8428,6.80620879 13.1708,7.16262363 13.4308,7.53181319 C13.4201333,6.96206044 13.4841333,6.38975275 13.5668,5.90303571 C13.7641333,4.70604396 15.4174667,3.89357143 15.7374667,3.83225275 C19.1961333,3.17052198 19.6854667,3.76326923 21.0548,5.35755495 C21.2641333,2.47813187 21.4028,0.46739011 21.4028,0.285989011 L23.2881333,0.367747253 C23.2881333,0.367747253 21.6414667,22.1154396 21.3854667,23.5091621 C21.3054667,23.9435027 21.2388,24.7125412 21.1814667,25.5045742 C21.3001333,25.6399863 21.4254667,25.7868956 21.5614667,25.9427473 C22.9348,27.5421429 21.9094667,28.72125 21.6508,30.0536538 C21.5308,30.673228 21.0814667,30.9836538 20.4641333,31.1829396 C20.4388,31.3068544 20.4108,31.4307692 20.3841333,31.5534066 C20.9721333,31.697761 21.7614667,31.9481456 22.4721333,32.2049176 C23.0428,31.6236676 23.8241333,31.2621429 24.0321333,31.2225412 C27.4974667,30.5582555 27.9828,31.1548352 29.3561333,32.7555082 C29.4228,32.8308791 29.4828,32.90625 29.5374667,32.9803434 C29.4894667,32.3071154 29.5614667,31.6019505 29.6574667,31.0207005 C29.8561333,29.8237088 31.5108,29.0112363 31.8294667,28.9499176 C35.2948,28.2869093 35.7801333,28.883489 37.1534667,30.4828846 C38.5268,32.0822802 37.5028,33.2626648 37.2428,34.5950687 C36.9854667,35.92875 35.1908,35.8354945 33.5001333,36.2647253 C33.4828,36.2698352 33.4668,36.2723901 33.4508,36.2775 C34.4054667,36.6607418 35.1161333,37.3441896 35.5108,38.510522 C35.7014667,39.0815522 35.7854667,39.3051099 35.8161333,39.370261 C35.8508,39.5171703 35.8988,39.673022 35.9094667,39.8033242 C36.4854667,39.1786401 37.3241333,38.7877335 37.5414667,38.7455769 C41.0068,38.0825687 41.4908,38.6791484 42.8641333,40.278544 C44.2401333,41.8779396 43.2148,43.0583242 42.9561333,44.390728 M35.7414667,39.0291758 C35.7828,39.1543681 35.7908,39.2565659 35.8161333,39.370261 C35.8748,39.4980082 35.7374667,39.0164011 35.7414667,39.0291758 M7.99613333,45.7320742 C6.30546667,46.1600275 5.55746667,45.2159753 4.70946667,44.3102473 C3.86013333,43.4057967 3.95746667,41.6863187 4.1548,40.4880495 C4.35346667,39.2910577 6.00813333,38.4785852 6.3268,38.4172665 C9.79213333,37.7542582 10.2774667,38.3521154 11.6508,39.951511 C13.0241333,41.5509066 12.0001333,42.7300137 11.7414667,44.0624176 C11.4828,45.3960989 9.68813333,45.3028434 7.99613333,45.7320742" id="Fill-1" fill="#CE7046"></path>
                    <path d="M11.7746667,14.2854272 C11.0453333,15.6050563 11.428,16.2821168 12.6213333,16.7036827 C13.4693333,17.0026113 13.592,17.4688887 14.792,17.4139574 C15.9906667,17.3603036 16.448,17.085647 16.3906667,16.5401662 C16.3346667,15.9921305 16.1053333,15.225647 15.42,15.1707157 C14.7346667,15.1157843 13.94,14.4668283 13.316,14.203669 C12.7253333,13.9532843 11.9346667,13.9941635 11.7746667,14.2854272 L11.7746667,14.2854272 Z M8.00533333,8.00664973 C7.228,8.95325687 6.88666667,8.73608654 7.152,9.56388874 C7.41866667,10.3904135 7.42133333,10.7417184 8.40133333,11.4072816 C9.37866667,12.0753997 10.332,12.5544519 10.8853333,12.4075426 C11.6733333,12.200592 11.732,10.4019107 11.2293333,9.95224038 C10.7253333,9.50384753 9.80266667,8.6632706 9.46533333,8.20593544 C9.088,7.70261126 8.216,7.74860027 8.00533333,8.00664973 L8.00533333,8.00664973 Z M15.748,55.8582157 C15.748,56.5148365 14.9493333,57.2800426 16.548,57.8280783 C18.1466667,58.376114 18.7186667,58.8130096 19.6333333,58.2662514 C20.5466667,57.7182157 21.1173333,57.1714574 20.5466667,56.7345618 C19.9746667,56.2963887 19.9746667,57.0615948 18.7186667,56.1865261 C17.4626667,55.3101799 18.376,54.6548365 17.4626667,54.1068008 C16.548,53.5600426 15.748,54.1068008 15.748,54.4351113 L15.748,55.8582157 Z M14.892,37.1981745 C14.892,37.1981745 13.8626667,37.5801387 13.5786667,38.1281745 C13.2933333,38.6749327 11.8066667,40.754658 12.5493333,42.5060728 C13.2933333,44.2562102 14.5493333,44.6394519 15.4066667,44.8042459 C16.2626667,44.9690398 18.0893333,44.7493146 18.3186667,43.2712788 C18.5466667,41.7932431 16.148,42.4511415 16.3773333,41.519864 C16.6053333,40.589864 17.12,41.0280371 17.4053333,39.8783118 C17.6906667,38.729864 16.3773333,38.894658 15.976,37.8535179 C15.5773333,36.8149327 14.892,37.1981745 14.892,37.1981745 L14.892,37.1981745 Z M9.92266667,33.5305508 C9.38,34.4337239 9.78,35.6933118 10.5226667,36.1851387 C11.2653333,36.6769657 11.4933333,36.9503448 12.692,36.8954135 C13.892,36.8417596 14.3493333,36.567103 14.292,36.0216223 C14.236,35.4735865 14.0066667,34.707103 13.3213333,34.6521717 C12.636,34.5972404 11.7786667,34.2702074 11.3213333,33.8320343 C10.864,33.3938613 10.0933333,33.2469519 9.92266667,33.5305508 L9.92266667,33.5305508 Z M29.3706667,39.4682431 C29.3706667,40.6728997 28.7426667,41.0012102 29.4853333,41.4930371 C30.228,41.9861415 30.456,42.2582431 31.656,42.2045893 C32.856,42.1509354 33.9133333,41.963147 34.2533333,41.519864 C34.74,40.8913475 33.6266667,39.4401387 32.9413333,39.3852074 C32.2546667,39.3315536 30.884,39.4950701 30.4266667,39.0581745 C29.9693333,38.6200014 29.3706667,39.1399327 29.3706667,39.4682431 L29.3706667,39.4682431 Z M9.372,47.7398777 C9.372,47.7398777 8.56133333,48.5702349 8.428,48.8257294 C8.296,49.0812239 7.952,49.6829135 7.91333333,49.8668695 C7.876,50.0482706 7.76133333,50.5771442 7.78133333,50.7598228 C7.8,50.9412239 7.85733333,51.7268695 7.99066667,52.0730646 C8.124,52.4205371 8.33333333,53.1857431 8.524,53.3684217 C8.71333333,53.5498228 9.076,53.9701113 9.28533333,54.0978585 C9.49466667,54.2256058 9.71333333,54.426169 10.056,54.5628585 C10.2693333,54.6484492 10.4093333,54.7174327 10.4653333,54.5718008 C10.5226667,54.426169 10.6746667,54.2984217 10.5413333,54.0978585 C10.4093333,53.8972953 9.932,53.6239162 9.74266667,53.0579959 C9.552,52.4920755 9.11333333,51.379397 9.51333333,50.8326387 C9.91333333,50.2858805 10.312,49.6100975 10.1226667,49.3188338 C9.932,49.0262926 9.72266667,48.6443283 9.91333333,48.3517871 C10.104,48.0592459 10.16,47.8586827 10.5613333,47.6402349 C10.9613333,47.4205096 11.036,47.0014986 10.8653333,47.0385453 C10.6933333,47.0743146 10.1986667,47.1292459 9.89466667,47.3489712 C9.58933333,47.567419 9.372,47.7398777 9.372,47.7398777 L9.372,47.7398777 Z M23.5746667,52.3566635 C23.5746667,53.5600426 22.9453333,53.888353 23.688,54.3814574 C24.4306667,54.8720069 24.6586667,55.1466635 25.8586667,55.0917321 C27.0573333,55.0368008 27.5146667,54.7646992 27.4573333,54.2166635 C27.4013333,53.6686277 27.172,52.9034217 26.4866667,52.8484904 C25.8013333,52.7935591 24.944,52.4652486 24.4866667,52.0270755 C24.0293333,51.5889025 23.5746667,52.0270755 23.5746667,52.3566635 L23.5746667,52.3566635 Z M17.804,46.2810041 C17.804,46.2810041 17.0053333,45.8441085 16.3773333,46.3359354 C15.748,46.8290398 15.1773333,47.2110041 15.12,47.9225563 C15.064,48.635386 14.9493333,50.2769382 15.292,50.7151113 C15.6346667,51.1520069 16.4333333,52.1369382 16.8906667,52.2468008 C17.348,52.3566635 17.976,52.5201799 18.4333333,52.4652486 C18.8906667,52.4103173 19.86,52.1918695 20.032,51.6987651 C20.204,51.2056607 19.9173333,50.8236964 20.204,50.3855234 C20.4893333,49.9473503 21.06,49.8387651 20.9466667,49.0722816 C20.832,48.3057981 20.66,47.4856607 19.9746667,47.0474876 C19.2906667,46.610592 17.804,46.2810041 17.804,46.2810041 L17.804,46.2810041 Z M7.78266667,25.9474739 C6.80533333,27.0167184 6.82266667,28.337625 7.63733333,29.3033942 C8.45466667,30.2691635 8.74266667,30.2691635 10.0373333,30.2231745 C11.332,30.175908 11.9573333,30.0852074 12.196,29.1654272 C12.436,28.2469245 12.492,28.3503997 12.388,27.6030783 C12.292,26.9132431 11.9093333,25.7175288 10.3253333,25.6715398 C8.74266667,25.6255508 8.11866667,25.5795618 7.78266667,25.9474739 L7.78266667,25.9474739 Z M22.604,41.4892047 C21.628,42.5584492 21.644,43.8793558 22.46,44.845125 C23.276,45.8108942 23.564,45.8108942 24.8586667,45.7649052 C26.1546667,45.7176387 26.7786667,45.6256607 27.0186667,44.7058805 C27.2573333,43.7873777 27.3133333,43.8921305 27.2093333,43.1448091 C27.1146667,42.4549739 26.7306667,41.2592596 25.1466667,41.2132706 C23.564,41.1672816 22.94,41.1212926 22.604,41.4892047 L22.604,41.4892047 Z M5.44,40.4774464 C4.46533333,41.5454135 4.48,42.8675975 5.29733333,43.8333668 C6.112,44.7978585 6.4,44.7978585 7.69466667,44.753147 C8.99066667,44.7058805 9.61466667,44.6139025 9.85466667,43.6941223 C10.0933333,42.7756195 10.1493333,42.8790948 10.0466667,42.1317734 C9.95066667,41.4432157 9.56666667,40.2475014 7.98266667,40.2015124 C6.4,40.1555234 5.776,40.1095343 5.44,40.4774464 L5.44,40.4774464 Z M0.198666667,34.242103 C0.213333333,34.5295343 0.4,35.7009766 1.46933333,36.4316909 C2.912,37.4153448 4.65333333,36.9362926 5.196,36.1710865 C5.74,35.404603 6.93866667,35.0494657 7.28133333,35.104397 C7.624,35.1593283 7.76666667,35.5144657 7.824,35.7878448 C7.88133333,36.0625014 7.38133333,36.9362926 7.13733333,37.2927074 C7.05466667,37.4153448 6.41866667,38.1205096 6.02533333,38.4705371 C5.65333333,38.7975701 4.93866667,39.0990536 4.28266667,39.2357431 C3.86666667,39.3226113 2.42533333,39.2089162 1.512,38.9891909 C0.598666667,38.7707431 0.484,38.032364 0.141333333,37.1841223 C-0.2,36.3358805 0.185333333,33.9546717 0.198666667,34.242103 L0.198666667,34.242103 Z" id="Fill-4" fill="#FCC06D"></path>
                </g>
                <path d="M131.190724,21.0168881 C131.807814,17.7945136 131.445979,14.077604 134.586062,12.2174869 C137.725249,10.3582009 143.024699,6.14343153 141.571986,9.1256032 C140.118376,12.1077749 138.08798,14.0734482 142.322525,11.6789007 C146.556173,9.28352198 150.139594,2.66340009 153.856464,1.8197813 C157.572438,0.975331348 157.413015,0.080181156 157.343156,3.03409367 C157.273297,5.98966849 152.103713,9.81545896 154.048129,10.1620491 C155.99344,10.5086393 157.764999,9.31843035 162.706196,7.55057106 C167.645602,5.78354292 174.746167,1.66186251 173.855014,5.01805236 C172.963861,8.37424222 167.087624,11.5733444 165.505044,14.9428327 C163.922463,18.312321 166.832369,18.5117974 171.658926,17.774566 C176.483692,17.0365034 179.97128,18.2508158 186.642837,19.5316203 C193.313498,20.8115936 199.277507,21.4632164 197.262337,24.0713699 C195.247166,26.6795234 188.849672,25.2657346 181.805532,25.7901913 C174.760497,26.315479 163.581228,27.5646998 167.631272,29.1538615 C171.680421,30.742192 178.277641,28.8139205 184.500487,28.6900789 C190.725124,28.5670685 194.759943,29.5145812 201.963505,29.8852748 C209.167067,30.2551372 214.151255,30.4138872 211.443762,33.0353391 C208.73806,35.656791 203.075879,36.1546508 193.971787,37.3623139 C184.867696,38.5708082 173.255837,39.057863 178.976233,41.1265992 C184.69663,43.1969976 189.766799,41.0418217 198.642504,41.8929209 C207.517314,42.7440201 215.785782,41.2953229 221.910108,42.8437582 C228.033539,44.3913624 233.595409,45.5649483 224.938238,48.1764264 C216.281066,50.7879045 210.849063,49.2261708 205.216438,51.0073285 C199.584708,52.7884862 191.301015,53.5947032 194.658737,55.1971633 C198.016458,56.8004546 215.049573,63.395642 222.383002,63.3790189 C229.71643,63.3615648 247.396191,68.0193379 245.654189,70.4928448 C243.912186,72.9680141 239.777952,73.6919471 232.833227,72.544958 C225.888502,71.3988 215.00927,67.6345147 216.595433,70.428015 C218.181596,73.2215153 230.270826,75.4215734 239.26386,81.4058644 C248.257789,87.3909865 253.790103,87.2821056 256.429528,93.7783859 C259.069849,100.273835 258.58173,103.108893 253.42379,101.413344 C248.264954,99.7177947 240.884056,91.6473134 240.295627,96.1521547 C239.707197,100.657827 240.469379,97.689785 242.850863,104.96153 C245.232346,112.234106 246.545342,115.161421 242.540079,115.497206 C238.535711,115.833823 229.642093,108.177255 225.566075,111.467784 C221.490953,114.759144 220.640999,113.877292 223.250868,119.090274 C225.861634,124.303257 232.417654,126.613027 226.960573,129.930984 C221.501701,133.249772 215.851163,128.225461 212.693167,123.280109 C209.536067,118.334758 204.417535,112.401167 201.647347,106.293034 C198.878055,100.184071 194.189426,88.8488263 193.442469,92.4593485 C192.695513,96.0698707 192.221724,99.5457464 193.308125,110.695644 C194.395421,121.846373 195.364494,127.861417 191.589408,126.139271 C187.813427,124.415462 183.919222,117.559293 182.159307,113.228163 C180.398496,108.897032 175.537009,96.0249885 176.094988,90.235187 C176.653862,84.4462166 175.551339,72.65467 171.720725,74.5280855 C167.889214,76.4023322 169.848855,77.3905713 168.846644,87.9395465 C167.844433,98.4885216 171.264848,108.822229 167.99669,111.069662 C164.72674,113.317927 160.821788,111.982267 160.053336,102.624332 C159.283989,93.2655655 156.322137,78.8143339 157.32793,74.4291785 C158.333724,70.0423607 156.655311,57.2351469 155.445314,58.8002052 C154.236211,60.3652635 153.186532,62.8263032 151.632611,67.4790894 C150.079587,72.1327068 146.008047,81.5870554 146.370778,85.303965 C146.733508,89.0200435 149.07021,94.3668412 145.84146,92.3762333 C142.613605,90.3864566 138.937038,86.9920338 138.674618,81.6045096 C138.412199,76.2161542 138.594012,66.0686253 140.35124,64.2359362 C142.106677,62.4040782 144.163047,55.5578831 142.894833,54.5555144 C141.625723,53.5531456 140.561714,55.3717052 139.540694,59.1160428 C138.52057,62.8603804 138.190082,66.5905884 137.443126,70.2002795 C136.696169,73.8108017 140.878767,81.1756354 136.829618,79.5864737 C132.780469,77.9981431 129.160328,71.0073276 129.215857,67.4101038 C129.271386,63.8137112 132.060382,52.716176 129.338558,54.695979 C126.616735,56.6757819 129.471112,60.4716509 123.809827,60.9686795 C118.147646,61.4665393 119.06925,59.3936474 121.457899,54.9802328 C123.846548,50.5676493 130.902331,44.5201909 125.817832,46.0345489 C120.732438,47.5472447 120.518382,50.2484872 119.335253,46.9330237 C118.151228,43.6175603 121.24653,39.8333274 118.093012,41.0509644 C114.938599,42.2694325 109.435841,43.6624425 111.421455,39.770991 C113.407965,35.8795396 112.772067,32.2964454 117.970311,29.7539529 C123.170346,27.2106292 124.956235,26.6620692 128.269175,26.3387513 C131.58301,26.0170956 134.045996,24.8119259 133.180816,23.2884252 C132.315637,21.7640933 131.190724,21.0168881 131.190724,21.0168881" id="Fill-8" fill="#688538"></path>
                <path d="M136.265524,19.275888 C136.265524,19.275888 130.292088,12.7711268 127.185417,8.05548686 C124.077534,3.33888709 115.92555,-0.289266587 107.571221,1.43746581 C99.2181036,3.16323838 91.9542598,2.5883008 86.5054682,10.3571568 C81.0578883,18.1250531 73.4293377,18.6999906 71.6142855,25.0310228 C69.7980216,31.3610952 67.2547676,35.6764864 69.4345265,36.8273214 C71.6142855,37.9781564 71.6142855,39.4169401 78.5146342,35.3885377 C85.4149829,31.3610952 93.0423218,24.1681365 101.396651,25.3180117 C109.75098,26.4688467 107.571221,29.9223115 102.84942,30.497249 C98.1276183,31.0731465 89.0475106,34.8126403 81.7836668,37.1152701 C74.5186114,39.4169401 65.8019988,42.5814963 62.8964613,46.3229098 C59.9909238,50.0624037 59.6274287,52.9399711 59.9909238,55.241641 C60.3544189,57.543311 61.8071876,59.8459408 61.8071876,59.8459408 C61.8071876,59.8459408 54.1798487,61.2847245 52.72708,66.463002 C51.2730996,71.6422394 52.0000898,78.2593006 54.9056273,82.0007141 C57.8111648,85.740208 62.8964613,92.9331666 62.8964613,92.9331666 C62.8964613,92.9331666 66.5277774,91.207394 69.0710314,88.6177753 C71.6142855,86.0281567 68.7075363,79.4101356 74.8821065,80.2739817 C81.0578883,81.136868 82.1471619,79.6980843 78.5146342,83.7264867 C74.8821065,87.7548891 75.2456016,88.0428378 73.0670543,90.6324564 C70.8872953,93.2211153 66.8912725,92.0712401 67.9817578,95.810734 C69.0710314,99.5511877 68.7075363,102.140806 72.3400641,105.018374 C75.9713801,107.894981 80.6943932,109.909662 81.0578883,111.923384 C81.4201717,113.938065 85.4149829,114.799991 89.7745008,113.075178 C94.1328071,111.348446 99.5815987,113.362167 106.481947,111.636395 C113.382296,109.909662 130.816733,109.621714 132.269502,103.867539 C133.72227,98.1133638 130.089743,84.589373 128.638186,81.4248167 C127.185417,78.2593006 119.920361,70.4914044 119.558078,63.5854347 C119.194583,56.6804247 119.194583,54.090806 126.821922,58.9820947 C134.449261,63.8733834 133.72227,60.1329297 136.265524,68.4776831 C138.807567,76.8214768 141.713104,75.0947444 142.076599,81.7127654 C142.440095,88.3298266 142.076599,99.2632389 142.076599,100.702023 C142.076599,102.140806 146.436117,99.2632389 151.883697,92.9331666 C157.332489,86.6040541 164.959828,83.7264867 164.232838,79.4101356 C163.505847,75.0947444 158.784046,65.6001158 152.609476,60.7088271 C146.436117,55.8175384 140.986114,49.4874661 136.265524,43.1573937 C131.543723,36.8273214 133.72227,33.949754 140.986114,36.5393727 C148.25117,39.1299512 154.42574,48.0486824 158.420551,52.6520224 C162.416574,57.2553623 167.137163,62.7225484 167.864154,66.7509507 C168.591144,70.7783933 168.954639,74.2318581 168.954639,74.2318581 C168.954639,74.2318581 178.034747,59.5579921 179.12402,58.4071571 C180.213294,57.2553623 184.209317,50.3503524 183.847033,49.4874661 C183.483538,48.62362 180.940284,40.5677751 174.039935,36.8273214 C167.137163,33.0868677 158.807067,28.886656 153.699961,27.0447441 C148.590432,25.2028322 135.902029,18.9879393 146.072622,19.5638367 C156.242004,20.1387743 162.416574,23.3042904 168.954639,28.4835278 C175.491493,33.6618053 179.851011,37.6911675 179.851011,37.6911675 C179.851011,37.6911675 184.936307,26.7567954 183.847033,21.8655067 C182.756548,16.9751779 185.299802,11.7949807 179.12402,8.34247574 C172.94945,4.88997077 167.137163,-0.289266587 159.511036,2.30035209 C151.883697,4.88997077 149.72696,6.01105106 147.161896,7.76753816 C144.595621,9.52402526 142.098409,14.9317019 139.896841,17.2621668 C137.696483,19.5926316 136.265524,19.275888 136.265524,19.275888" id="Fill-3" fill="#6657A5"></path>
            </g>
        </g>
    </g>
</svg>